<svg id="Capa_1" enable-background="new 0 0 512 512" height="512" viewBox="0 0 512 512" width="512" xmlns="http://www.w3.org/2000/svg"><g><g><path d="m256.006 467.812c-4.278 0-7.746-3.468-7.746-7.746v-50.148c0-4.278 3.468-7.746 7.746-7.746s7.746 3.468 7.746 7.746v50.148c-.001 4.278-3.469 7.746-7.746 7.746z" fill="#c38c66"/></g><g><path d="m164.289 462.015c-4.278 0-7.746-3.468-7.746-7.746v-44.352c0-4.278 3.468-7.746 7.746-7.746s7.746 3.468 7.746 7.746v44.352c-.001 4.278-3.469 7.746-7.746 7.746z" fill="#c38c66"/></g><g><path d="m347.693 462.015c-4.278 0-7.746-3.468-7.746-7.746v-44.352c0-4.278 3.468-7.746 7.746-7.746s7.746 3.468 7.746 7.746v44.352c-.001 4.278-3.469 7.746-7.746 7.746z" fill="#c38c66"/></g><g><path clip-rule="evenodd" d="m164.289 512c9.807 0 17.828-8.021 17.828-17.829v-22.073c0-9.807-8.021-17.829-17.828-17.829s-17.828 8.021-17.828 17.829v22.073c0 9.808 8.021 17.829 17.828 17.829z" fill="#ffe07d" fill-rule="evenodd"/></g><g><path clip-rule="evenodd" d="m230.039 486.033c0 14.345 11.622 25.967 25.966 25.967 14.315 0 25.937-11.622 25.937-25.967s-11.622-25.967-25.937-25.967c-14.344 0-25.966 11.622-25.966 25.967z" fill="#95d6a4" fill-rule="evenodd"/></g><g><path clip-rule="evenodd" d="m347.693 512c9.807 0 17.857-8.021 17.857-17.829v-22.073c0-9.807-8.05-17.829-17.857-17.829s-17.828 8.021-17.828 17.829v22.073c0 9.808 8.021 17.829 17.828 17.829z" fill="#ffe07d" fill-rule="evenodd"/></g><g><path clip-rule="evenodd" d="m256.005 512c14.315 0 25.937-11.622 25.937-25.967s-11.622-25.967-25.937-25.967c-3.571 0-6.967.732-10.07 2.02 9.368 3.952 15.925 13.174 15.925 23.947s-6.557 20.024-15.925 23.947c3.103 1.288 6.499 2.02 10.07 2.02z" fill="#78c2a4" fill-rule="evenodd"/></g><g><path clip-rule="evenodd" d="m156.707 510.302c2.313 1.083 4.889 1.698 7.582 1.698 9.807 0 17.828-8.021 17.828-17.829v-22.073c0-9.807-8.021-17.829-17.828-17.829-2.693 0-5.269.615-7.582 1.698 6.06 2.869 10.275 9.046 10.275 16.131v22.073c0 7.085-4.215 13.262-10.275 16.131z" fill="#ffc250" fill-rule="evenodd"/></g><g><path clip-rule="evenodd" d="m340.14 510.302c2.283 1.083 4.86 1.698 7.553 1.698 9.807 0 17.857-8.021 17.857-17.829v-22.073c0-9.807-8.05-17.829-17.857-17.829-2.693 0-5.269.615-7.553 1.698 6.031 2.869 10.246 9.046 10.246 16.131v22.073c0 7.085-4.216 13.262-10.246 16.131z" fill="#ffc250" fill-rule="evenodd"/></g><g><path clip-rule="evenodd" d="m142.128 368.786 113.877 20.566 113.848-20.566 7.348-46.869 19.556-124.771-140.766-164.346-140.737 164.346 2.723 17.448 16.569 105.771z" fill="#ffe07d" fill-rule="evenodd"/></g><g><path clip-rule="evenodd" d="m194.471 267.172c0 33.988 27.547 61.507 61.535 61.507 33.958 0 61.505-27.519 61.505-61.507 0-33.959-27.547-61.507-61.505-61.507-33.988 0-61.535 27.548-61.535 61.507z" fill="#eff6ff" fill-rule="evenodd"/></g><g><path clip-rule="evenodd" d="m238.88 173.667h34.251c2.43 0 4.42-1.991 4.42-4.45v-19.468c0-11.856-9.69-21.547-21.546-21.547s-21.575 9.69-21.575 21.547v19.468c0 2.459 1.991 4.45 4.45 4.45z" fill="#375e7d" fill-rule="evenodd"/></g><g><path clip-rule="evenodd" d="m392.892 409.918c11.3 0 20.551-9.251 20.551-20.551 0-11.329-9.251-20.58-20.551-20.58-91.277 0-182.526 0-273.774 0-11.329 0-20.58 9.251-20.58 20.58 0 11.3 9.251 20.551 20.58 20.551z" fill="#eb5468" fill-rule="evenodd"/></g><g><path clip-rule="evenodd" d="m256.005 128.203c-11.856 0-21.575 9.69-21.575 21.547v16.687c0-11.856 9.719-21.576 21.575-21.576s21.546 9.719 21.546 21.576v-16.687c0-11.857-9.689-21.547-21.546-21.547z" fill="#2b4d66" fill-rule="evenodd"/></g><g><path clip-rule="evenodd" d="m256.005 205.665c-33.988 0-61.535 27.548-61.535 61.507 0 2.957.234 5.855.615 8.695 4.245-29.861 29.889-52.812 60.92-52.812 31.002 0 56.675 22.952 60.891 52.812.41-2.84.615-5.738.615-8.695 0-33.959-27.547-61.507-61.506-61.507z" fill="#d9eeff" fill-rule="evenodd"/></g><g><path clip-rule="evenodd" d="m368.273 409.918h24.62c11.3 0 20.551-9.251 20.551-20.551 0-11.329-9.251-20.58-20.551-20.58-7.67 0-15.369 0-23.039 0h-1.698c11.329 0 20.58 9.251 20.58 20.58-.001 11.27-9.193 20.492-20.463 20.551z" fill="#e5384f" fill-rule="evenodd"/></g><g><path clip-rule="evenodd" d="m256.005 56.391-140.751 140.755 2.723 17.448 1.464 9.339c45.522-45.523 91.043-91.016 136.565-136.539l108.227 108.259c8.812 8.783 7.055 6.177 5.094 18.765l-8.314 53.076-8.548 54.422-7.348 46.87h23.039 1.698l7.348-46.87 15.34-97.984 4.216-26.787z" fill="#ffc250" fill-rule="evenodd"/></g><g><path d="m149.505 238.529h-28.981c-4.278 0-7.746-3.468-7.746-7.746s3.468-7.746 7.746-7.746h28.981c4.278 0 7.746 3.468 7.746 7.746s-3.468 7.746-7.746 7.746z" fill="#c38c66"/></g><g><path d="m153.633 285.574h-25.732c-4.278 0-7.746-3.468-7.746-7.746s3.468-7.746 7.746-7.746h25.732c4.278 0 7.746 3.468 7.746 7.746s-3.468 7.746-7.746 7.746z" fill="#c38c66"/></g><g><path d="m270.35 274.918h-14.344c-4.278 0-7.746-3.468-7.746-7.746s3.468-7.746 7.746-7.746h14.344c4.278 0 7.746 3.468 7.746 7.746-.001 4.278-3.469 7.746-7.746 7.746z" fill="#375e7d"/></g><g><path d="m256.013 274.918c-2.456 0-4.871-1.165-6.375-3.337l-18.326-26.465c-2.435-3.517-1.559-8.342 1.959-10.777 3.516-2.435 8.342-1.559 10.777 1.959l18.326 26.465c2.435 3.517 1.559 8.342-1.959 10.777-1.345.932-2.881 1.378-4.402 1.378z" fill="#375e7d"/></g><g><path d="m161.508 331.624h-26.406c-4.278 0-7.746-3.468-7.746-7.746s3.468-7.746 7.746-7.746h26.406c4.278 0 7.746 3.468 7.746 7.746s-3.468 7.746-7.746 7.746z" fill="#c38c66"/></g><g><path d="m256.006 336.425c-38.201 0-69.281-31.066-69.281-69.253s31.079-69.253 69.281-69.253c38.185 0 69.251 31.066 69.251 69.253s-31.067 69.253-69.251 69.253zm0-123.014c-29.66 0-53.789 24.117-53.789 53.761s24.13 53.761 53.789 53.761c29.643 0 53.759-24.117 53.759-53.761s-24.117-53.761-53.759-53.761z" fill="#375e7d"/></g><g><path d="m391.487 238.529h-28.981c-4.278 0-7.746-3.468-7.746-7.746s3.468-7.746 7.746-7.746h28.981c4.278 0 7.746 3.468 7.746 7.746s-3.468 7.746-7.746 7.746z" fill="#c38c66"/></g><g><path d="m384.11 285.574h-25.732c-4.278 0-7.746-3.468-7.746-7.746s3.468-7.746 7.746-7.746h25.732c4.278 0 7.746 3.468 7.746 7.746s-3.468 7.746-7.746 7.746z" fill="#c38c66"/></g><g><path d="m376.879 331.624h-26.405c-4.278 0-7.746-3.468-7.746-7.746s3.468-7.746 7.746-7.746h26.405c4.278 0 7.746 3.468 7.746 7.746s-3.468 7.746-7.746 7.746z" fill="#c38c66"/></g><g><path clip-rule="evenodd" d="m164.113 148.286 89.701-89.703c1.21-1.21 3.172-1.21 4.382 0l125.182 125.214 13.378 13.349 15.984 16.014c7.933 7.934 20.931 7.934 28.865 0 7.933-7.934 7.904-20.932 0-28.865l-183.409-183.386c-1.21-1.21-3.171-1.21-4.381 0l-183.409 183.385c-8.402 8.403-7.906 22.486 1.49 30.217 8.163 6.717 20.205 5.788 27.68-1.687l15.678-15.678z" fill="#c38c66" fill-rule="evenodd"/></g><g><path clip-rule="evenodd" d="m241.456 13.239 175.91 175.914c7.611 7.612 7.904 19.907.878 27.899 7.582 3.689 17.067 2.401 23.361-3.894 7.933-7.934 7.904-20.932 0-28.865l-183.411-183.386c-1.209-1.209-3.169-1.21-4.379-.002z" fill="#b57f5f" fill-rule="evenodd"/></g></g></svg>