<svg id="Capa_1" enable-background="new 0 0 512 512" height="512" viewBox="0 0 512 512" width="512" xmlns="http://www.w3.org/2000/svg"><g><g><path clip-rule="evenodd" d="m7.6 110.1h42.6v187.3h-42.6z" fill="#eb5468" fill-rule="evenodd"/></g><g><path clip-rule="evenodd" d="m7.6 110.1h42.6v-51.3c0-4.7 3.9-8.6 8.6-8.6h57.9v-42.6h-37.9c-39.2 0-71.2 32-71.2 71.2z" fill="#b57f5f" fill-rule="evenodd"/></g><g><path clip-rule="evenodd" d="m116.7 7.6h187.3v42.6h-187.3z" fill="#eb5468" fill-rule="evenodd"/></g><g><path clip-rule="evenodd" d="m370.4 58.8v51.3h42.6v-31.3c0-39.2-32.1-71.2-71.3-71.2h-37.7v42.6h57.9c4.7 0 8.5 3.9 8.5 8.6z" fill="#b57f5f" fill-rule="evenodd"/></g><g><path clip-rule="evenodd" d="m370.4 110.1v127c4 22.8 6.1 22.8 7.4 22.8 13.4 0 29.2 15.5 35.2-17.4v-132.4z" fill="#e5384f" fill-rule="evenodd"/></g><g><path clip-rule="evenodd" d="m7.6 341.8c0 39.2 32 71.3 71.2 71.3h37.9v-42.6h-57.9c-4.7 0-8.6-3.9-8.6-8.6v-64.6h-42.6z" fill="#b57f5f" fill-rule="evenodd"/></g><g><path clip-rule="evenodd" d="m116.7 413.1h125.7c25.5 0 26.2-26.1 15.3-38.6-.9-1-3.7-4.1-20.7-4.1h-120.3z" fill="#eb5468" fill-rule="evenodd"/></g><g><path clip-rule="evenodd" d="m116.7 370.4h120.3c101.6 8.1 137.4-73.1 133.4-133.4v-127-51.2c0-4.7-3.9-8.6-8.6-8.6h-57.9-187.2-57.9c-4.7 0-8.6 3.9-8.6 8.6v51.3 187.3 64.6c0 4.7 3.9 8.6 8.6 8.6z" fill="#eff6ff" fill-rule="evenodd"/></g><g><path clip-rule="evenodd" d="m242.4 413.1c16.7 57 69.2 98.7 131.6 98.9h.5.5c75.7-.3 137-61.7 137-137.5 0-62.6-41.8-115.4-98.9-132-12.3-3.6-25.2-5.5-38.6-5.5-1.4 0-2.7 0-4.1.1-72.7 2.1-131.3 60.7-133.4 133.4 0 1.4-.1 2.7-.1 4.1.1 13.3 2 26.2 5.5 38.5z" fill="#95d6a4" fill-rule="evenodd"/></g><g><path clip-rule="evenodd" d="m374.5 478.8c57.5 0 104.3-46.9 104.3-104.3 0-57.5-46.9-104.3-104.3-104.3-57.5 0-104.3 46.9-104.3 104.3-.1 57.4 46.8 104.3 104.3 104.3z" fill="#eff6ff" fill-rule="evenodd"/></g><g><path clip-rule="evenodd" d="m304 50.2h-54.4c17.8 62.4 28.6 140.7 29.1 225.7 23.9-23.2 56.2-37.9 91.9-38.9v-127-51.2c0-4.7-3.9-8.6-8.6-8.6-.1 0-58 0-58 0z" fill="#d9eeff" fill-rule="evenodd"/></g><g><path clip-rule="evenodd" d="m249.5 50.2h54.5v-42.6h-68.6c5 13.2 9.8 27.4 14.1 42.6z" fill="#e5384f" fill-rule="evenodd"/></g><g><path d="m50.2 304.9h-42.6c-4.2 0-7.6-3.4-7.6-7.6s3.4-7.6 7.6-7.6h42.6c4.2 0 7.6 3.4 7.6 7.6s-3.4 7.6-7.6 7.6zm0-187.2h-42.6c-4.2 0-7.6-3.4-7.6-7.6s3.4-7.6 7.6-7.6h42.6c4.2 0 7.6 3.4 7.6 7.6s-3.4 7.6-7.6 7.6z" fill="#ffe07d"/></g><g><path d="m413.1 117.7h-42.6c-4.2 0-7.6-3.4-7.6-7.6s3.4-7.6 7.6-7.6h42.6c4.2 0 7.6 3.4 7.6 7.6s-3.4 7.6-7.6 7.6z" fill="#ffe07d"/></g><g><path d="m116.7 420.7c-4.2 0-7.6-3.4-7.6-7.6v-42.6c0-4.2 3.4-7.6 7.6-7.6s7.6 3.4 7.6 7.6v42.6c0 4.2-3.4 7.6-7.6 7.6z" fill="#ffe07d"/></g><g><path d="m304 57.8c-4.2 0-7.6-3.4-7.6-7.6v-42.6c0-4.2 3.4-7.6 7.6-7.6s7.6 3.4 7.6 7.6v42.6c0 4.2-3.4 7.6-7.6 7.6zm-187.3 0c-4.2 0-7.6-3.4-7.6-7.6v-42.6c0-4.2 3.4-7.6 7.6-7.6s7.6 3.4 7.6 7.6v42.6c0 4.2-3.4 7.6-7.6 7.6z" fill="#ffe07d"/></g><g><path d="m210.3 339.5c-4.2 0-7.6-3.4-7.6-7.6v-20.8c0-4.2 3.4-7.6 7.6-7.6s7.6 3.4 7.6 7.6v20.8c0 4.2-3.4 7.6-7.6 7.6zm121.6-121.5h-20.8c-4.2 0-7.6-3.4-7.6-7.6s3.4-7.6 7.6-7.6h20.8c4.2 0 7.6 3.4 7.6 7.6 0 4.1-3.4 7.6-7.6 7.6zm-222.3 0h-20.8c-4.2 0-7.6-3.4-7.6-7.6s3.4-7.6 7.6-7.6h20.8c4.2 0 7.6 3.4 7.6 7.6 0 4.1-3.4 7.6-7.6 7.6zm100.7-100.8c-4.2 0-7.6-3.4-7.6-7.6v-20.8c0-4.2 3.4-7.6 7.6-7.6s7.6 3.4 7.6 7.6v20.8c0 4.2-3.4 7.6-7.6 7.6z" fill="#eb5468"/></g><g><path d="m124.4 303.9c-1.9 0-3.9-.7-5.4-2.2-3-3-3-7.8 0-10.8l14.7-14.7c3-3 7.8-3 10.8 0s3 7.8 0 10.8l-14.7 14.7c-1.5 1.4-3.5 2.2-5.4 2.2zm157.2-157.2c-1.9 0-3.9-.7-5.4-2.2-3-3-3-7.8 0-10.8l14.7-14.7c3-3 7.8-3 10.8 0s3 7.8 0 10.8l-14.7 14.7c-1.5 1.4-3.5 2.2-5.4 2.2zm-142.5 0c-1.9 0-3.9-.7-5.4-2.2l-14.7-14.7c-3-3-3-7.8 0-10.8s7.8-3 10.8 0l14.7 14.7c3 3 3 7.8 0 10.8-1.5 1.4-3.5 2.2-5.4 2.2z" fill="#375e7d"/></g><g><path d="m202.1 199.6c-3 0-5.8-1.8-7-4.7l-24.7-59.1c-1.6-3.9.2-8.3 4.1-10 3.9-1.6 8.3.2 10 4.1l24.7 59.1c1.6 3.9-.2 8.3-4.1 10-1 .4-2 .6-3 .6z" fill="#2b4d66"/></g><g><path d="m260.5 218h-30.1c-4.2 0-7.6-3.4-7.6-7.6s3.4-7.6 7.6-7.6h30.1c4.2 0 7.6 3.4 7.6 7.6 0 4.1-3.4 7.6-7.6 7.6z" fill="#2b4d66"/></g><g><path clip-rule="evenodd" d="m352.3 272.5c42.2 13.3 72.8 52.8 72.8 99.5 0 50-35.2 91.8-82.1 102 9.9 3.2 20.5 4.8 31.5 4.8 57.6 0 104.3-46.7 104.3-104.3s-46.7-104.3-104.3-104.3c-7.6-.1-15.1.8-22.2 2.3z" fill="#d9eeff" fill-rule="evenodd"/></g><g><path clip-rule="evenodd" d="m349.6 239.2c25 6.7 47.2 20.3 64.4 38.7 38 15.6 64.8 53 64.8 96.6 0 46.6-30.6 86.1-72.8 99.5-18.6 16.8-41.7 28.6-67.4 33.3 11.3 3 23.1 4.7 35.4 4.7h.5.5c75.7-.3 137-61.7 137-137.5 0-62.6-41.8-115.4-98.9-132-12.3-3.6-25.2-5.5-38.6-5.5-1.4 0-2.7 0-4.1.1-7.1.1-14 .9-20.8 2.1z" fill="#78c2a4" fill-rule="evenodd"/></g><g><path d="m421.2 416.7c-4.3 0-7.6-3.5-7.6-7.7 0-4.6.1-9.7.1-15h-30.8c-2.7 0-5.2-1.4-6.6-3.7s-1.4-5.2-.1-7.5c4.3-7.8 26.1-47.2 30.6-52.7 3.7-4.6 8.8-6.5 13.5-5 4.8 1.5 8.2 6.1 8.7 11.8.2 2.8.2 23.2 0 41.9h2.2c4.2 0 7.6 3.4 7.6 7.6s-3.4 7.6-7.6 7.6h-2.3c0 6.8-.1 12.4-.1 15.2 0 4.1-3.4 7.5-7.6 7.5zm-25.4-37.9h18c.1-12.2.1-23.9.1-31.6-4.4 7.3-11.2 19.2-18.1 31.6z" fill="#375e7d"/></g><g><path d="m338 419.3c-14.9 0-16-.4-17.1-.7-2.5-.8-4.4-2.8-5.2-5.2-1.3-4.3.5-6.7 5.4-13.1 4-5.2 11.3-14.8 23.6-32.4 3.6-5.2 6-10 7-13.9l.3-2.1c-.2-6.6-5.7-11.9-12.3-11.9-5.9 0-10.9 4.2-12.1 9.9-.8 4.1-4.8 6.8-8.9 6s-6.8-4.8-6-8.9c2.5-12.9 13.9-22.2 27-22.2 16.8-.2 30.5 15.7 27 32.2-1.4 6-4.5 12.6-9.4 19.6-9.1 13-15.5 21.7-19.9 27.6 7.3 0 16.7-.1 25.5-.2h.1c4.2 0 7.6 3.3 7.6 7.5.1 4.2-3.3 7.7-7.5 7.7-11.1.1-19.1.1-25.1.1z" fill="#375e7d"/></g><g><path d="m210.3 238.1c-15.3 0-27.7-12.4-27.7-27.7s12.4-27.7 27.7-27.7 27.7 12.4 27.7 27.7-12.4 27.7-27.7 27.7zm0-40.3c-6.9 0-12.5 5.6-12.5 12.5s5.6 12.5 12.5 12.5 12.5-5.6 12.5-12.5-5.6-12.5-12.5-12.5z" fill="#375e7d"/></g></g></svg>