<svg id="Capa_1" enable-background="new 0 0 512 512" height="512" viewBox="0 0 512 512" width="512" xmlns="http://www.w3.org/2000/svg"><g><g><path clip-rule="evenodd" d="m.182 255.985c0 70.727 28.646 134.738 75.018 181.053l53.263-53.294c-32.793-32.706-53.088-77.97-53.088-127.963 0-50.023 20.295-95.257 53.088-127.993l-53.059-53.06c-46.459 46.344-75.222 110.442-75.222 181.257z" fill="#eb5468" fill-rule="evenodd"/></g><g><path clip-rule="evenodd" d="m128.463 127.788c32.705-32.648 77.851-52.827 127.697-52.827 99.839 0 180.785 80.948 180.785 180.819 0 99.842-80.946 180.79-180.785 180.79-49.847 0-94.992-20.179-127.697-52.827l-53.263 53.295c46.313 46.315 110.293 74.962 180.961 74.962h33.64c11.184 0 20.324-9.14 20.324-20.325v-23.449c20.412-5.198 39.714-13.287 57.381-23.8l16.586 16.587c7.914 7.914 20.85 7.914 28.734 0l48.036-48.008c7.914-7.914 7.914-20.85 0-28.735l-16.586-16.587c10.512-17.696 18.601-36.97 23.799-57.411h23.419c11.184 0 20.324-9.14 20.324-20.325v-67.924c0-11.155-9.14-20.325-20.324-20.325h-23.419c-5.198-20.412-13.287-39.715-23.799-57.382l16.586-16.587c7.914-7.914 7.914-20.85 0-28.735l-48.036-48.037c-7.884-7.914-20.821-7.914-28.734 0l-16.586 16.587c-17.667-10.513-36.969-18.602-57.381-23.8v-23.42c0-11.184-9.14-20.324-20.325-20.324h-33.64c-70.55 0-134.442 28.53-180.755 74.728z" fill="#375e7d" fill-rule="evenodd"/></g><g><path clip-rule="evenodd" d="m128.463 383.744c32.705 32.648 77.851 52.827 127.697 52.827 99.839 0 180.785-80.948 180.785-180.79 0-99.871-80.946-180.819-180.785-180.819-49.847 0-94.992 20.179-127.697 52.827-32.793 32.736-53.088 77.97-53.088 127.993 0 49.993 20.295 95.256 53.088 127.962zm127.698 14.981c-78.96 0-142.969-64.011-142.969-142.944 0-78.962 64.009-142.973 142.969-142.973s142.97 64.011 142.97 142.973c-.001 78.933-64.01 142.944-142.97 142.944z" fill="#95d6a4" fill-rule="evenodd"/></g><g><path clip-rule="evenodd" d="m113.191 255.781c0 78.933 64.009 142.944 142.969 142.944s142.97-64.011 142.97-142.944c0-78.962-64.009-142.973-142.97-142.973s-142.969 64.011-142.969 142.973zm143.262 23.595c-13.024 0-23.595-10.571-23.595-23.595 0-13.053 10.571-23.624 23.595-23.624s23.595 10.571 23.595 23.624c-.001 13.024-10.572 23.595-23.595 23.595z" fill="#eff6ff" fill-rule="evenodd"/></g><g><path clip-rule="evenodd" d="m306.679 267.491c0 44.241-4.147 86.643-11.71 125.919 60.096-16.908 104.161-72.129 104.161-137.629 0-67.457-46.693-123.992-109.534-139.06 10.162 42.635 16.178 89.592 16.995 139.06.059 3.884.088 7.797.088 11.71z" fill="#d9eeff" fill-rule="evenodd"/></g><g><path clip-rule="evenodd" d="m289.596 116.721c62.841 15.068 109.534 71.604 109.534 139.06 0 65.5-44.065 120.721-104.161 137.629-2.716 14.017-5.869 27.625-9.403 40.766 85.852-14.017 151.379-88.57 151.379-178.395 0-92.366-69.236-168.554-158.651-179.476 4.206 12.966 7.973 26.457 11.302 40.416z" fill="#78c2a4" fill-rule="evenodd"/></g><g><path clip-rule="evenodd" d="m278.295 76.305c89.414 10.922 158.651 87.11 158.651 179.476 0 89.826-65.528 164.378-151.379 178.395-7.651 28.268-17.141 54.403-28.238 77.824h32.471c11.184 0 20.324-9.14 20.324-20.325v-23.449c20.412-5.198 39.714-13.287 57.381-23.8l16.586 16.587c7.914 7.914 20.85 7.914 28.734 0l48.036-48.008c7.914-7.914 7.914-20.85 0-28.735l-16.586-16.587c10.512-17.696 18.601-36.97 23.799-57.411h23.419c11.184 0 20.324-9.14 20.324-20.325v-67.924c0-11.155-9.14-20.325-20.324-20.325h-23.419c-5.198-20.412-13.287-39.715-23.799-57.382l16.586-16.587c7.914-7.914 7.914-20.85 0-28.735l-48.036-48.037c-7.884-7.914-20.821-7.914-28.734 0l-16.586 16.587c-17.667-10.513-36.969-18.602-57.381-23.8v-23.42c.001-11.184-9.139-20.324-20.324-20.324h-33.64c-3.533 0-7.067.058-10.571.204 12.616 22.428 23.625 48.009 32.706 76.101z" fill="#2b4d66" fill-rule="evenodd"/></g><g fill="#2b4d66"><path d="m225.01 161.817c-1.64-3.939-6.163-5.803-10.103-4.162-3.94 1.64-5.803 6.163-4.162 10.103l28.909 69.413c1.236 2.968 4.109 4.758 7.135 4.758.99 0 1.996-.192 2.967-.596 3.94-1.64 5.803-6.163 4.162-10.103z"/><path d="m315.352 248.055h-35.304c-4.267 0-7.726 3.459-7.726 7.726s3.459 7.726 7.726 7.726h35.304c4.267 0 7.726-3.459 7.726-7.726s-3.459-7.726-7.726-7.726z"/><path d="m256.16 105.081c-83.094 0-150.696 67.604-150.696 150.7 0 83.08 67.602 150.671 150.696 150.671s150.696-67.591 150.696-150.671c.001-83.096-67.601-150.7-150.696-150.7zm118.558 158.427h16.46c-1.778 31.401-14.322 59.966-33.991 82.064l-11.643-11.624c-3.021-3.016-7.913-3.012-10.927.009-3.015 3.02-3.011 7.912.009 10.927l11.65 11.631c-22.076 19.762-50.659 32.393-82.098 34.24v-16.706c0-4.267-3.459-7.726-7.726-7.726s-7.726 3.459-7.726 7.726v16.743c-31.523-1.716-60.202-14.277-82.373-34.003l11.925-11.905c3.02-3.015 3.024-7.907.009-10.927s-7.907-3.024-10.927-.009l-11.952 11.933c-19.827-22.14-32.479-50.826-34.265-82.373h17.044c4.267 0 7.726-3.459 7.726-7.726s-3.459-7.726-7.726-7.726h-17.044c1.786-31.555 14.438-60.248 34.266-82.393l11.947 11.948c1.509 1.509 3.486 2.263 5.463 2.263s3.955-.755 5.463-2.263c3.017-3.017 3.018-7.909 0-10.927l-11.93-11.931c22.171-19.731 50.85-32.295 82.373-34.011v16.742c0 4.267 3.459 7.726 7.726 7.726s7.726-3.459 7.726-7.726v-16.705c31.439 1.848 60.022 14.482 82.098 34.248l-11.656 11.656c-3.018 3.018-3.018 7.909 0 10.927 1.509 1.509 3.486 2.263 5.463 2.263s3.955-.755 5.463-2.263l11.638-11.639c19.67 22.103 32.214 50.675 33.992 82.084h-16.46c-4.267 0-7.726 3.459-7.726 7.726.002 4.267 3.462 7.727 7.729 7.727z"/></g><g><path clip-rule="evenodd" d="m256.453 279.376c13.024 0 23.595-10.571 23.595-23.595 0-13.053-10.571-23.624-23.595-23.624s-23.595 10.571-23.595 23.624c0 13.024 10.571 23.595 23.595 23.595z" fill="#ffe07d" fill-rule="evenodd"/></g></g></svg>