<svg id="Capa_1" enable-background="new 0 0 512 512" height="512" viewBox="0 0 512 512" width="512" xmlns="http://www.w3.org/2000/svg"><g><g><path clip-rule="evenodd" d="m8.183 136.549v253.854c0 12.761 10.425 23.186 23.186 23.186h233.318l140.692-150.391v-126.649h-214.775z" fill="#eff6ff" fill-rule="evenodd"/></g><g><path clip-rule="evenodd" d="m8.183 136.549h397.196c4.497 0 8.206-3.709 8.206-8.206v-25.523h-413.578v25.523.204c.088 4.41 3.738 8.002 8.176 8.002z" fill="#9fd4fe" fill-rule="evenodd"/></g><g><path clip-rule="evenodd" d="m.007 102.821h413.578v-52.944c0-4.497-3.709-8.206-8.206-8.206h-397.196c-4.439 0-8.089 3.592-8.176 8.001v.204 52.945z" fill="#eb5468" fill-rule="evenodd"/></g><g><path clip-rule="evenodd" d="m42.524 54.082c0 10.367 8.468 18.806 18.806 18.806s18.806-8.439 18.806-18.806v-12.411-22.865c-.001-10.191-8.206-18.543-18.339-18.806h-.934c-10.133.263-18.339 8.615-18.339 18.806v22.865z" fill="#ffe07d" fill-rule="evenodd"/></g><g><path clip-rule="evenodd" d="m139.501 41.671v12.411c0 10.367 8.468 18.806 18.806 18.806 10.337 0 18.806-8.439 18.806-18.806v-12.411-22.865c0-10.192-8.206-18.543-18.338-18.806h-.934c-10.133.263-18.338 8.615-18.338 18.806v22.865z" fill="#ffe07d" fill-rule="evenodd"/></g><g><path clip-rule="evenodd" d="m236.479 54.082c0 10.367 8.439 18.806 18.806 18.806 10.337 0 18.806-8.439 18.806-18.806v-12.411-22.865c0-10.192-8.206-18.543-18.338-18.806h-.934c-10.133.263-18.338 8.615-18.338 18.806v22.865 12.411z" fill="#ffe07d" fill-rule="evenodd"/></g><g><path clip-rule="evenodd" d="m62.702 18.806v35.276c0 7.213-4.088 13.521-10.074 16.674 2.599 1.373 5.548 2.132 8.702 2.132 10.337 0 18.806-8.439 18.806-18.806v-12.411-22.865c-.001-10.191-8.206-18.543-18.339-18.806h-.934c-2.979.058-5.782.847-8.235 2.132 5.986 3.154 10.074 9.461 10.074 16.674z" fill="#ffc250" fill-rule="evenodd"/></g><g><path clip-rule="evenodd" d="m159.68 18.806v35.276c0 7.213-4.088 13.521-10.074 16.674 2.599 1.373 5.548 2.132 8.702 2.132 10.337 0 18.806-8.439 18.806-18.806v-12.411-22.865c0-10.192-8.206-18.543-18.338-18.806h-.934c-2.979.058-5.782.847-8.235 2.132 5.984 3.154 10.073 9.461 10.073 16.674z" fill="#ffc250" fill-rule="evenodd"/></g><g><path clip-rule="evenodd" d="m256.657 18.806v35.276c0 7.213-4.088 13.521-10.104 16.674 2.628 1.373 5.577 2.132 8.731 2.132 10.337 0 18.806-8.439 18.806-18.806v-12.411-22.865c0-10.192-8.206-18.543-18.338-18.806h-.934c-2.979.058-5.782.847-8.264 2.132 6.015 3.154 10.103 9.461 10.103 16.674z" fill="#ffc250" fill-rule="evenodd"/></g><g><path d="m135.374 347.167c-28.19 0-30.138-.639-31.13-.964-2.774-.933-4.794-2.965-5.599-5.595-1.482-4.841.348-7.236 9.143-18.751 7.509-9.831 21.485-28.131 44.889-61.57 7.489-10.709 12.313-20.43 14.34-28.896l.612-4.78c-.248-16.266-13.57-29.421-29.909-29.421-14.263 0-26.597 10.134-29.328 24.098-.82 4.188-4.877 6.921-9.065 6.099-4.188-.819-6.919-4.878-6.1-9.066 4.147-21.198 22.858-36.583 44.493-36.583 25.015 0 45.366 20.339 45.366 45.339 0 .328-.021.656-.062.982l-.729 5.694c-.033.255-.078.507-.136.757-2.424 10.488-8.081 22.142-16.819 34.636-23.591 33.705-37.694 52.172-45.271 62.092-.104.136-.207.272-.311.406 14.287.141 39.077.003 61.757-.274.032-.001.064-.001.097-.001 4.223 0 7.672 3.397 7.723 7.632.052 4.267-3.364 7.768-7.631 7.82-20.41.249-35.359.346-46.33.346z" fill="#375e7d"/></g><g><path d="m256.789 346.83c-25.522.001-47.273-18.824-50.822-44.195-.34-2.246-.518-4.676-.518-7.138 0-4.267 3.459-7.726 7.726-7.726s7.726 3.459 7.726 7.726c0 1.693.12 3.346.357 4.914 2.492 17.81 17.697 30.965 35.541 30.967.25 0 .499-.003.75-.008 4.225-.083 8.346-.909 12.253-2.457 3.968-1.572 15.868-9.078 17.44-5.11 1.57 3.967-7.783 17.906-11.75 19.477-5.63 2.229-11.561 3.42-17.631 3.539-.357.008-.715.011-1.072.011z" fill="#375e7d"/></g><g><path d="m300.426 304.439c-.072 0-11.139 12.239-11.116 12.17 2.747-8.241 3.271-15.844 3.389-20.109.27-9.779-3.334-19.023-10.149-26.028-6.823-7.014-15.966-10.876-25.745-10.876-12.698 0-18.232 2.042-24.664 4.927-.888.388-1.325.62-1.33.622-2.595 1.382-5.772 1.183-8.159-.532-2.388-1.715-3.619-4.625-3.139-7.525l10.6-64.067c.617-3.73 3.842-6.465 7.623-6.465h53.58c4.268 0 7.726 3.459 7.726 7.726s-3.459 7.726-7.726 7.726h-47.027l-7.334 44.329c5.41-1.438 11.491-2.194 19.85-2.194 13.988 0 27.065 5.524 36.822 15.553 9.749 10.023 14.905 23.244 14.519 37.23-.117 4.193-3.552 7.513-7.72 7.513z" fill="#375e7d"/></g><g><path clip-rule="evenodd" d="m267.578 424.481c15.827 50.374 62.695 87.022 118.178 87.519h2.307c68.331-.613 123.551-56.01 123.93-124.401v-.672-.701c-.321-58.316-40.561-107.201-94.787-120.692-9.695-2.424-19.857-3.679-30.282-3.679-29.464 0-56.534 10.162-77.909 27.187-9.52 7.593-17.93 16.558-24.909 26.603-8.147 11.739-14.338 24.968-18.105 39.16-2.716 10.25-4.176 20.996-4.176 32.122 0 1.694.029 3.358.117 5.023.438 11.301 2.395 22.223 5.636 32.531z" fill="#95d6a4" fill-rule="evenodd"/></g><g><path clip-rule="evenodd" d="m294.969 386.927c0 50.782 41.174 91.928 91.955 91.928 50.752 0 91.926-41.146 91.926-91.928s-41.174-91.957-91.926-91.957c-50.781 0-91.955 41.175-91.955 91.957z" fill="#eff6ff" fill-rule="evenodd"/></g><g><path clip-rule="evenodd" d="m315.322 102.821h98.262v-52.944c0-4.497-3.709-8.206-8.206-8.206h-112.278c9.199 19.069 16.703 39.569 22.222 61.15z" fill="#e5384f" fill-rule="evenodd"/></g><g><path clip-rule="evenodd" d="m322.156 136.549h83.224c4.497 0 8.206-3.709 8.206-8.206v-25.523h-98.262c2.802 10.98 5.079 22.223 6.832 33.729z" fill="#85beef" fill-rule="evenodd"/></g><g><path clip-rule="evenodd" d="m386.924 261.855c6.249 0 12.44.438 18.455 1.343v-126.649h-83.224c2.657 17.521 4.059 35.597 4.059 54.082 0 33.32-4.526 65.325-12.849 95.111 20.646-15.039 46.051-23.887 73.559-23.887z" fill="#d9eeff" fill-rule="evenodd"/></g><g><path clip-rule="evenodd" d="m511.993 386.227v-.029zm0 1.431c0-.029 0-.029 0-.058zm-114.644 123.904c63.951-5.286 114.265-58.696 114.644-123.904v-.058-.672-.701s0 0 0-.029c-.35-58.317-40.561-107.172-94.787-120.663-1.956-.496-3.942-.934-5.957-1.314 1.489 11.272 2.687 23.011 3.592 35.101 37.115 11.798 64.009 46.577 64.009 87.606 0 44.329-31.391 81.357-73.178 90.03-2.425 12.323-5.228 23.916-8.323 34.604z" fill="#78c2a4" fill-rule="evenodd"/></g><g><path clip-rule="evenodd" d="m405.671 476.958c41.787-8.673 73.178-45.701 73.178-90.03 0-41.029-26.894-75.809-64.009-87.606 1.314 17.375 2.015 35.481 2.015 54.111 0 11.301-.263 22.427-.759 33.32-1.46 32.676-5.11 63.222-10.425 90.205z" fill="#d9eeff" fill-rule="evenodd"/></g><g fill="#2b4d66"><path d="m370.607 328.559c-1.642-3.939-6.163-5.801-10.104-4.16-3.939 1.641-5.802 6.164-4.16 10.104l17.229 41.35c1.236 2.967 4.109 4.757 7.135 4.757.991 0 1.997-.192 2.969-.597 3.939-1.641 5.802-6.164 4.16-10.104z"/><path d="m424.798 379.026h-22.718c-4.268 0-7.726 3.459-7.726 7.726s3.459 7.726 7.726 7.726h22.718c4.268 0 7.726-3.459 7.726-7.726s-3.459-7.726-7.726-7.726z"/><path d="m386.924 287.244c-54.965 0-99.681 44.718-99.681 99.684 0 54.95 44.716 99.654 99.681 99.654 54.949 0 99.652-44.705 99.652-99.654-.001-54.966-44.704-99.684-99.652-99.684zm76.069 107.235h7.774c-1.559 17.448-8.447 33.384-19.043 46.148l-5.548-5.548c-3.017-3.017-7.909-3.018-10.927 0-3.018 3.017-3.018 7.909-.001 10.927l5.561 5.561c-12.754 10.651-28.693 17.596-46.16 19.193v-7.936c0-4.267-3.459-7.726-7.726-7.726s-7.726 3.459-7.726 7.726v7.936c-17.476-1.597-33.425-8.545-46.184-19.198l5.556-5.557c3.017-3.018 3.017-7.909-.001-10.927-3.015-3.017-7.907-3.018-10.927 0l-5.545 5.545c-10.597-12.764-17.487-28.698-19.046-46.145h7.774c4.268 0 7.726-3.459 7.726-7.726s-3.459-7.726-7.726-7.726h-7.747c1.628-17.403 8.565-33.283 19.181-45.999l5.42 5.406c1.509 1.505 3.483 2.256 5.457 2.256 1.981 0 3.962-.757 5.471-2.27 3.013-3.021 3.007-7.913-.014-10.927l-5.395-5.381c12.728-10.57 28.609-17.456 46-19.046v7.615c0 4.267 3.459 7.726 7.726 7.726s7.726-3.459 7.726-7.726v-7.615c17.385 1.591 33.26 8.477 45.984 19.047l-5.385 5.386c-3.017 3.018-3.017 7.909.001 10.927 1.508 1.509 3.486 2.263 5.463 2.263s3.955-.755 5.464-2.263l5.394-5.394c10.61 12.715 17.544 28.593 19.171 45.995h-7.747c-4.268 0-7.726 3.459-7.726 7.726-.001 4.268 3.457 7.727 7.725 7.727z"/></g><g><path clip-rule="evenodd" d="m333.456 54.082c0 10.367 8.439 18.806 18.806 18.806 10.337 0 18.806-8.439 18.806-18.806v-12.411-22.865c0-10.192-8.235-18.543-18.338-18.806h-.964c-10.104.263-18.309 8.615-18.309 18.806v22.865 12.411z" fill="#ffe07d" fill-rule="evenodd"/></g><g><path clip-rule="evenodd" d="m353.634 18.806v35.276c0 7.213-4.117 13.521-10.104 16.674 2.628 1.373 5.577 2.132 8.731 2.132 10.337 0 18.806-8.439 18.806-18.806v-12.411-22.865c0-10.192-8.235-18.543-18.338-18.806h-.964c-2.949.058-5.753.847-8.235 2.132 5.987 3.154 10.104 9.461 10.104 16.674z" fill="#ffc250" fill-rule="evenodd"/></g><g><path clip-rule="evenodd" d="m371.739 386.752c0 8.381 6.775 15.185 15.185 15.185 8.381 0 15.155-6.804 15.155-15.185s-6.775-15.185-15.155-15.185c-8.41 0-15.185 6.804-15.185 15.185z" fill="#ffe07d" fill-rule="evenodd"/></g></g></svg>