<svg id="Capa_1" enable-background="new 0 0 512 512" height="512" viewBox="0 0 512 512" width="512" xmlns="http://www.w3.org/2000/svg"><g><g><path clip-rule="evenodd" d="m10.14 169.022v283.377c0 15.798 12.907 28.676 28.676 28.676h434.34c15.769 0 28.676-12.907 28.676-28.676v-283.377l-250.94-18.748z" fill="#eff6ff" fill-rule="evenodd"/></g><g><path clip-rule="evenodd" d="m121.309 399.718 117.74 18.07 12.864-53.054c0-6.921-19.647-30.054-26.567-30.054l-104.036 12.328v52.71z" fill="#ffe07d" fill-rule="evenodd"/></g><g><path clip-rule="evenodd" d="m94.473 495.267c0 9.199 7.534 16.733 16.732 16.733h289.589c9.198 0 16.732-7.534 16.732-16.733v-14.192-14.922l-156.986-40.871s-166.068 37.467-166.068 40.871v14.922 14.192z" fill="#ffe07d" fill-rule="evenodd"/></g><g><path clip-rule="evenodd" d="m388.15 495.267c0 9.199-7.534 16.733-16.732 16.733h29.376c9.198 0 16.732-7.534 16.732-16.733v-14.192-14.922c-8.176 8.177-18.66 12.615-29.377 13.287v1.635 14.192z" fill="#ffc250" fill-rule="evenodd"/></g><g><path clip-rule="evenodd" d="m295.34 360.737 12.773 67.27 82.578-28.289v-52.71l-72.36-12.328c-31.676-2.554-22.991 26.057-22.991 26.057z" fill="#ffe07d" fill-rule="evenodd"/></g><g><path clip-rule="evenodd" d="m361.344 347.008v52.71h10.074 19.273v-52.71z" fill="#ffc250" fill-rule="evenodd"/></g><g><path clip-rule="evenodd" d="m232.04 271.93v30.983l23.945 12.761 23.945-12.761v-30.983c0-3.066-2.511-5.548-5.548-5.548h-18.397-18.368c-3.065-.001-5.577 2.482-5.577 5.548z" fill="#9fd4fe" fill-rule="evenodd"/></g><g><path clip-rule="evenodd" d="m10.14 169.022h491.691c5.519 0 10.016-4.41 10.162-9.9v-.234-27.362l-252.737-23.537-259.249 23.537v27.362.175c.088 5.491 4.614 9.959 10.133 9.959z" fill="#9fd4fe" fill-rule="evenodd"/></g><g><path clip-rule="evenodd" d="m94.473 416.451v49.702c17.842 17.842 46.751 17.842 64.593 0s46.78-17.842 64.622 0 46.78 17.842 64.622 0 46.751-17.842 64.593 0 46.78 17.842 64.622 0v-49.702c0-9.199-7.534-16.733-16.732-16.733h-10.104-151.64-117.74-10.104c-9.198 0-16.732 7.534-16.732 16.733z" fill="#c38c66" fill-rule="evenodd"/></g><g><path clip-rule="evenodd" d="m390.686 320.613v26.393h-71.278c-6.923 0-12.558 5.666-12.558 12.589v45.441c0 9.313-7.644 16.936-16.957 16.936-3.389 0-6.552-1.01-9.21-2.751-4.646-3.018-7.737-8.262-7.737-14.186v18.565c0 6.768-3.132 11.487-7.5 14.134-9.982 6.088-26.393 1.37-26.393-14.134v-64.005c0-6.923-5.666-12.589-12.589-12.589h-105.15v-26.393c0-9.725 7.943-17.698 17.657-17.698h234.057c9.715-.001 17.658 7.973 17.658 17.698z" fill="#eb5468" fill-rule="evenodd"/></g><g><path clip-rule="evenodd" d="m361.344 320.61v26.399h29.347v-26.399c0-9.724-7.943-17.696-17.667-17.696h-29.377c9.725-.001 17.697 7.971 17.697 17.696z" fill="#e5384f" fill-rule="evenodd"/></g><g><path clip-rule="evenodd" d="m388.15 416.451v49.702 13.287c10.717-.672 21.2-5.11 29.377-13.287v-49.702c0-9.199-7.534-16.733-16.732-16.733h-10.104-19.273c9.228 0 16.732 7.534 16.732 16.733z" fill="#b57f5f" fill-rule="evenodd"/></g><g><path clip-rule="evenodd" d="m255.985 207.189c-10.892 0-19.711 28.56-19.711 39.452 0 7.885 4.614 15.915 11.301 19.741l8.41 7.067 8.439-7.067c6.687-3.826 11.301-11.856 11.301-19.741 0-10.893-8.818-39.452-19.74-39.452z" fill="#ffe07d" fill-rule="evenodd"/></g><g><path clip-rule="evenodd" d="m247.897 213.964c7.271 0 18.543 48.067 15.594 52.418-.526.759-1.08 1.489-1.694 2.19l2.628-2.19c6.687-3.826 11.301-11.856 11.301-19.741 0-10.892-8.819-39.452-19.74-39.452-3.387 0-6.57 2.745-9.344 6.892.408-.088-4.41-.117 1.255-.117z" fill="#ffc250" fill-rule="evenodd"/></g><g><path clip-rule="evenodd" d="m266.118 271.93v30.983h13.812v-30.983c0-3.066-2.511-5.548-5.548-5.548h-13.841c3.066-.001 5.577 2.482 5.577 5.548z" fill="#85beef" fill-rule="evenodd"/></g><g><path d="m280.683 364.736v54.486c-4.646-3.018-7.737-8.262-7.737-14.186v18.564c0 6.768-3.132 11.487-7.5 14.134-.144-.577-.216-1.174-.216-1.793v-71.206c0-4.265 3.451-7.726 7.726-7.726 4.266 0 7.727 3.462 7.727 7.727z" fill="#e5384f"/></g><g><path clip-rule="evenodd" d="m501.831 452.399v-283.377h-158.767c9.812 33.699 15.214 70.435 15.214 108.895 0 8.41-.263 16.762-.759 24.997h15.506c9.724 0 17.667 7.972 17.667 17.696v26.399 52.71h10.104c9.198 0 16.732 7.534 16.732 16.733v49.702 14.922h55.628c15.768-.001 28.675-12.908 28.675-28.677z" fill="#d9eeff" fill-rule="evenodd"/></g><g><path clip-rule="evenodd" d="m.007 131.526h511.986v-69.793-.233c-.146-5.461-4.643-9.9-10.162-9.9-169.689 0-321.973 0-491.691 0-5.519 0-10.045 4.468-10.133 9.958v.175 69.793z" fill="#eb5468" fill-rule="evenodd"/></g><g><path clip-rule="evenodd" d="m75.93 0c12.79 0 23.273 10.454 23.273 23.274v49.644c0 12.791-10.483 23.274-23.273 23.274-12.819 0-23.303-10.484-23.303-23.274v-49.644c.001-12.82 10.484-23.274 23.303-23.274z" fill="#ffe07d" fill-rule="evenodd"/></g><g><path clip-rule="evenodd" d="m195.977 0c12.79 0 23.273 10.454 23.273 23.274v49.644c0 12.791-10.483 23.274-23.273 23.274-12.819 0-23.273-10.484-23.273-23.274v-49.644c-.001-12.82 10.453-23.274 23.273-23.274z" fill="#ffe07d" fill-rule="evenodd"/></g><g><path clip-rule="evenodd" d="m316.023 0c12.79 0 23.273 10.454 23.273 23.274v49.644c0 12.791-10.483 23.274-23.273 23.274-12.819 0-23.273-10.484-23.273-23.274v-49.644c0-12.82 10.454-23.274 23.273-23.274z" fill="#ffe07d" fill-rule="evenodd"/></g><g><path clip-rule="evenodd" d="m398.692 131.526h113.301v-69.793-.233c-.146-5.461-4.643-9.9-10.162-9.9h-42.488v21.318c0 12.791-10.483 23.274-23.273 23.274s-23.273-10.484-23.273-23.274v-21.318h-44.97c11.476 21.055 20.908 44.27 27.946 69.092 1.021 3.592 1.985 7.184 2.919 10.834z" fill="#e5384f" fill-rule="evenodd"/></g><g><path clip-rule="evenodd" d="m406.08 169.022h95.751c5.519 0 10.016-4.41 10.162-9.9v-.234-27.362h-113.301c3.037 12.177 5.519 24.676 7.388 37.496z" fill="#85beef" fill-rule="evenodd"/></g><g><path clip-rule="evenodd" d="m436.07 0c12.79 0 23.273 10.454 23.273 23.274v49.644c0 12.791-10.483 23.274-23.273 23.274-12.79 0-23.273-10.484-23.273-23.274v-49.644c-.001-12.82 10.483-23.274 23.273-23.274z" fill="#ffe07d" fill-rule="evenodd"/></g><g><path d="m411.628 277.7h-9.286c-4.268 0-7.726-3.459-7.726-7.726s3.459-7.726 7.726-7.726h9.286c4.268 0 7.726 3.459 7.726 7.726 0 4.266-3.459 7.726-7.726 7.726z" fill="#375e7d"/></g><g><path d="m462.439 277.7h-9.257c-4.268 0-7.726-3.459-7.726-7.726s3.459-7.726 7.726-7.726h9.257c4.268 0 7.726 3.459 7.726 7.726 0 4.266-3.459 7.726-7.726 7.726z" fill="#375e7d"/></g><g><path d="m432.39 307.749c-4.268 0-7.726-3.459-7.726-7.726v-9.286c0-4.267 3.459-7.726 7.726-7.726s7.726 3.459 7.726 7.726v9.286c.001 4.266-3.458 7.726-7.726 7.726z" fill="#375e7d"/></g><g><path d="m432.39 256.937c-4.268 0-7.726-3.459-7.726-7.726v-9.286c0-4.267 3.459-7.726 7.726-7.726s7.726 3.459 7.726 7.726v9.286c.001 4.266-3.458 7.726-7.726 7.726z" fill="#375e7d"/></g><g><path d="m62.731 248.059h-9.286c-4.267 0-7.726-3.459-7.726-7.726s3.459-7.726 7.726-7.726h9.286c4.267 0 7.726 3.459 7.726 7.726.001 4.267-3.459 7.726-7.726 7.726z" fill="#375e7d"/></g><g><path d="m113.542 248.059h-9.286c-4.267 0-7.726-3.459-7.726-7.726s3.459-7.726 7.726-7.726h9.286c4.267 0 7.726 3.459 7.726 7.726s-3.459 7.726-7.726 7.726z" fill="#375e7d"/></g><g><path d="m83.493 278.108c-4.267 0-7.726-3.459-7.726-7.726v-9.286c0-4.267 3.459-7.726 7.726-7.726s7.726 3.459 7.726 7.726v9.286c.001 4.267-3.458 7.726-7.726 7.726z" fill="#375e7d"/></g><g><path d="m83.493 227.268c-4.267 0-7.726-3.459-7.726-7.726v-9.257c0-4.267 3.459-7.726 7.726-7.726s7.726 3.459 7.726 7.726v9.257c.001 4.266-3.458 7.726-7.726 7.726z" fill="#375e7d"/></g><g><path clip-rule="evenodd" d="m99.204 51.6v-28.326c0-12.82-10.484-23.274-23.274-23.274-4.001 0-7.797 1.022-11.096 2.803 7.651 3.855 12.907 11.739 12.907 20.821v27.976 21.668c0 8.79-4.935 16.499-12.206 20.471 3.125 1.548 6.658 2.453 10.396 2.453 12.79 0 23.273-10.484 23.273-23.274z" fill="#ffc250" fill-rule="evenodd"/></g><g><path clip-rule="evenodd" d="m219.25 51.6v-28.326c0-12.82-10.483-23.274-23.273-23.274-4.001 0-7.797 1.022-11.067 2.803 7.622 3.855 12.878 11.739 12.878 20.821v27.976 21.668c0 8.79-4.935 16.499-12.206 20.471 3.125 1.548 6.658 2.453 10.396 2.453 12.79 0 23.273-10.484 23.273-23.274v-21.318z" fill="#ffc250" fill-rule="evenodd"/></g><g><path clip-rule="evenodd" d="m339.297 51.6v-28.326c0-12.82-10.484-23.274-23.274-23.274-4.001 0-7.768 1.022-11.067 2.803 7.622 3.855 12.878 11.739 12.878 20.821v27.976 21.668c0 8.79-4.935 16.499-12.206 20.471 3.154 1.548 6.658 2.453 10.396 2.453 12.79 0 23.273-10.484 23.273-23.274z" fill="#ffc250" fill-rule="evenodd"/></g><g><path clip-rule="evenodd" d="m459.343 51.6v-28.326c0-12.82-10.483-23.274-23.273-23.274-4.001 0-7.768 1.022-11.067 2.803 7.622 3.855 12.878 11.739 12.878 20.821v27.976 21.668c0 8.79-4.935 16.499-12.177 20.471 3.125 1.548 6.658 2.453 10.366 2.453 12.79 0 23.273-10.484 23.273-23.274z" fill="#ffc250" fill-rule="evenodd"/></g></g></svg>