<svg id="Capa_1" enable-background="new 0 0 512 512" height="512" viewBox="0 0 512 512" width="512" xmlns="http://www.w3.org/2000/svg"><g><g><path clip-rule="evenodd" d="m200.416 52.885c0 3.942 4.05 14.006 1.256 11.476 29.99 27.153 91.371 14.104 103.285 0-2.432 2.879 1.256-7.534 1.256-11.476 0-29.202-23.683-52.885-52.884-52.885-29.23 0-52.913 23.683-52.913 52.885z" fill="#faf0b0" fill-rule="evenodd"/></g><g><path clip-rule="evenodd" d="m110.038 263.257c0 48.359-23.916 94.848-76.507 143.849l219.798 20.587 100.511-20.587c30.661 4.38 58.811-22.573 67.922-60.594-17.083-27.684-25.172-55.134-25.172-83.255v-65.296c0-60.624-38.137-112.749-91.634-133.599-16.032-6.249-33.465-9.666-51.628-9.666-18.192 0-35.596 3.417-51.657 9.666-53.468 20.85-91.634 72.976-91.634 133.599v65.296z" fill="#ffe07d" fill-rule="evenodd"/></g><g><path clip-rule="evenodd" d="m201.73 460.4c0 28.005 22.631 51.016 50.518 51.6h2.161c27.887-.584 50.518-23.595 50.518-51.6l-47.715-17.93z" fill="#ffe07d" fill-rule="evenodd"/></g><g><path clip-rule="evenodd" d="m151.855 198.574c0 56.039 45.437 101.448 101.474 101.448s101.445-45.409 101.445-101.448-45.408-101.448-101.445-101.448-101.474 45.409-101.474 101.448zm118.206-.175c0 9.228-7.476 16.733-16.732 16.733-9.257 0-16.762-7.505-16.762-16.733 0-9.257 7.505-16.762 16.762-16.762s16.732 7.505 16.732 16.762z" fill="#eff6ff" fill-rule="evenodd"/></g><g><path clip-rule="evenodd" d="m51.548 460.4h150.182 103.197 64.184c25.288-18.777 9.87-37.028-15.272-53.294h-100.51-219.798v35.276c0 9.9 8.118 18.018 18.017 18.018z" fill="#faf0b0" fill-rule="evenodd"/></g><g><path clip-rule="evenodd" d="m421.762 346.512c-34.896.555-63.542 26.749-67.922 60.594-.38 2.949-.584 5.957-.584 9.023 0 16.82 5.957 32.239 15.856 44.27 12.79 15.506 32.121 25.377 53.76 25.377 38.458 0 69.645-31.188 69.645-69.647 0-38.43-31.187-69.618-69.645-69.618-.38.001-.73.001-1.11.001z" fill="#95d6a4" fill-rule="evenodd"/></g><g><path clip-rule="evenodd" d="m368.061 373.203c12.527-15.974 31.888-26.34 53.701-26.691-17.083-27.684-25.172-55.134-25.172-83.255v-65.296c0-60.624-38.137-112.749-91.634-133.599-16.032-6.249-33.465-9.666-51.628-9.666-13.257 0-26.135 1.811-38.341 5.227 7.125 1.577 14.046 3.709 20.733 6.308 21.142 8.235 39.86 21.347 54.782 37.933 37.64 14.835 64.272 51.512 64.272 94.41 0 26.778-10.396 51.162-27.332 69.297 1.168 25.522 18.28 75.312 40.619 105.332z" fill="#ffc250" fill-rule="evenodd"/></g><g><path clip-rule="evenodd" d="m327.442 267.871c16.937-18.134 27.332-42.518 27.332-69.297 0-42.898-26.632-79.576-64.272-94.41-11.505-4.556-24.062-7.038-37.173-7.038-7.563 0-14.951.818-22.018 2.395 7.68 1.46 15.039 3.767 22.018 6.862 35.596 15.74 60.417 51.366 60.417 92.804s-24.821 77.064-60.417 92.833c-6.045 2.657-12.411 4.76-19.01 6.22 6.161 1.168 12.498 1.781 19.01 1.781 29.231.001 55.599-12.351 74.113-32.15z" fill="#d9eeff" fill-rule="evenodd"/></g><g><path clip-rule="evenodd" d="m304.957 64.361c.818-3.679 1.256-7.534 1.256-11.476 0-29.202-23.683-52.885-52.884-52.885-9.082 0-17.608 2.278-25.084 6.308 28.588.029 51.832 22.748 52.796 51.074 8.235 1.635 16.236 4.001 23.916 6.979z" fill="#ffe07d" fill-rule="evenodd"/></g><g><path clip-rule="evenodd" d="m422.872 485.777c38.458 0 69.645-31.188 69.645-69.647 0-38.43-31.187-69.618-69.645-69.618h-1.11c-5.227.088-10.308.759-15.214 1.927 4.701.964 9.228 2.395 13.549 4.264 24.733 10.659 42.05 35.276 42.05 63.953 0 32.823-22.748 60.361-53.322 67.69 4.556.934 9.228 1.431 14.047 1.431z" fill="#78c2a4" fill-rule="evenodd"/></g><g><path clip-rule="evenodd" d="m270.412 460.4c0 22.34-14.396 41.467-34.341 48.621 5.081 1.811 10.512 2.862 16.178 2.979h2.161c27.887-.584 50.518-23.595 50.518-51.6z" fill="#ffc250" fill-rule="evenodd"/></g><g><path d="m414.053 446.342c-1.824 0-3.597-.645-4.998-1.834l-20.003-16.966c-3.254-2.76-3.655-7.636-.894-10.89 2.76-3.253 7.635-3.655 10.89-.894l14.073 11.937 32.648-38.981c2.74-3.272 7.615-3.702 10.884-.963 3.272 2.74 3.702 7.613.963 10.884l-37.64 44.942c-1.321 1.577-3.217 2.563-5.267 2.737-.218.018-.438.028-.656.028z" fill="#2b4d66"/></g><g fill="#2b4d66"><path d="m238.793 144.557c-1.641-3.939-6.164-5.801-10.103-4.161-3.94 1.641-5.803 6.164-4.161 10.104l14.805 35.539c1.236 2.968 4.109 4.757 7.135 4.757.99 0 1.997-.192 2.968-.596 3.94-1.641 5.803-6.164 4.161-10.104z"/><path d="m291.407 190.673h-21.346c-4.268 0-7.726 3.459-7.726 7.726s3.459 7.726 7.726 7.726h21.346c4.268 0 7.726-3.459 7.726-7.726s-3.458-7.726-7.726-7.726z"/><path d="m253.329 89.4c-60.213 0-109.2 48.975-109.2 109.174s48.987 109.175 109.2 109.175c60.197 0 109.172-48.975 109.172-109.175 0-60.199-48.975-109.174-109.172-109.174zm83.953 116.725h9.461c-1.608 20.067-9.565 38.369-21.854 52.896l-6.724-6.74c-3.013-3.021-7.904-3.028-10.927-.013-3.021 3.014-3.027 7.905-.013 10.927l6.753 6.769c-14.517 12.352-32.831 20.364-52.923 22.012v-9.65c0-4.267-3.459-7.726-7.726-7.726-4.268 0-7.726 3.459-7.726 7.726v9.65c-20.094-1.647-38.411-9.656-52.931-22.004l6.761-6.777c3.014-3.021 3.008-7.913-.013-10.927-3.022-3.015-7.914-3.008-10.927.013l-6.735 6.752c-12.299-14.529-20.263-32.835-21.871-52.907h9.489c4.268 0 7.726-3.459 7.726-7.726s-3.459-7.726-7.726-7.726h-9.458c1.681-20.029 9.688-38.285 22.014-52.762l6.561 6.577c1.509 1.513 3.489 2.27 5.47 2.27 1.974 0 3.949-.752 5.457-2.257 3.021-3.014 3.027-7.905.013-10.927l-6.555-6.571c14.487-12.249 32.726-20.191 52.725-21.83v9.27c0 4.267 3.459 7.726 7.726 7.726 4.268 0 7.726-3.459 7.726-7.726v-9.27c19.997 1.64 38.233 9.585 52.717 21.838l-6.547 6.563c-3.014 3.021-3.008 7.913.013 10.927 1.508 1.505 3.483 2.257 5.457 2.257 1.981 0 3.961-.757 5.47-2.27l6.55-6.566c12.316 14.475 20.317 32.726 21.997 52.75h-9.429c-4.268 0-7.726 3.459-7.726 7.726s3.458 7.726 7.725 7.726z"/><path d="m405.81 8.537c-4.036-1.367-8.427.802-9.794 4.846-1.366 4.042.804 8.427 4.846 9.793 54.427 18.396 83.744 77.63 65.354 132.041-1.366 4.042.804 8.427 4.846 9.793.82.278 1.654.409 2.475.409 3.222 0 6.229-2.032 7.319-5.255 21.118-62.482-12.547-130.503-75.046-151.627z"/><path d="m392.638 47.579c-4.038-1.366-8.427.805-9.792 4.85-1.364 4.043.807 8.427 4.85 9.791 15.956 5.386 28.85 16.647 36.308 31.709 7.46 15.066 8.596 32.155 3.199 48.118-1.366 4.042.803 8.427 4.846 9.794.82.277 1.654.409 2.475.409 3.222 0 6.229-2.032 7.319-5.254 6.718-19.875 5.301-41.156-3.991-59.923-9.29-18.762-25.347-32.787-45.214-39.494z"/><path d="m105.795 23.176c4.042-1.366 6.212-5.751 4.846-9.793-1.367-4.043-5.756-6.21-9.794-4.846-62.484 21.12-96.162 89.139-75.075 151.625 1.089 3.224 4.096 5.258 7.32 5.258.819 0 1.653-.131 2.472-.407 4.043-1.365 6.214-5.748 4.85-9.792-18.365-54.417 10.965-113.652 65.381-132.045z"/><path d="m114.021 47.579c-40.973 13.83-63.059 58.426-49.235 99.411 1.088 3.225 4.096 5.259 7.32 5.259.819 0 1.652-.131 2.471-.407 4.043-1.364 6.215-5.747 4.851-9.79-11.101-32.913 6.635-68.725 39.535-79.831 4.043-1.365 6.214-5.748 4.85-9.791-1.367-4.045-5.755-6.216-9.792-4.851z"/></g><g><path clip-rule="evenodd" d="m236.567 198.399c0 9.228 7.505 16.733 16.762 16.733s16.732-7.505 16.732-16.733c0-9.257-7.476-16.762-16.732-16.762-9.257 0-16.762 7.505-16.762 16.762z" fill="#ffe07d" fill-rule="evenodd"/></g></g></svg>