<svg id="Capa_1" enable-background="new 0 0 512 512" height="512" viewBox="0 0 512 512" width="512" xmlns="http://www.w3.org/2000/svg"><g><g clip-rule="evenodd" fill-rule="evenodd"><path d="m10.14 169.022v314.302c0 15.769 12.907 28.676 28.675 28.676h212.498 221.842c15.769 0 28.676-12.907 28.676-28.676v-314.302h-96.569-129.683-38.692z" fill="#eff6ff"/><path d="m.007 131.526 255.978 18.748 256.008-18.748v-69.793c0-5.578-4.585-10.133-10.162-10.133-169.689 0-321.973 0-491.691 0-5.577 0-10.133 4.556-10.133 10.133v69.793z" fill="#eb5468"/><g fill="#ffe07d"><path d="m52.628 23.274v28.326 21.318c0 12.791 10.483 23.274 23.303 23.274 12.79 0 23.273-10.484 23.273-23.274v-21.318-28.326c0-12.615-10.192-22.982-22.748-23.274h-1.08c-12.557.292-22.748 10.659-22.748 23.274z"/><path d="m172.703 23.274v28.326 21.318c0 12.791 10.454 23.274 23.273 23.274 12.79 0 23.273-10.484 23.273-23.274v-21.318-28.326c0-12.615-10.191-22.982-22.748-23.274h-1.08c-12.556.292-22.718 10.659-22.718 23.274z"/><path d="m292.75 51.6v21.318c0 12.791 10.454 23.274 23.273 23.274 12.79 0 23.273-10.484 23.273-23.274v-21.318-28.326c0-12.615-10.191-22.982-22.748-23.274h-1.08c-12.557.292-22.719 10.659-22.719 23.274v28.326z"/><path d="m412.796 51.6v21.318c0 12.791 10.454 23.274 23.273 23.274 12.79 0 23.273-10.484 23.273-23.274v-21.318-28.326c0-12.615-10.191-22.982-22.748-23.274h-1.08c-12.557.292-22.719 10.659-22.719 23.274v28.326z"/></g><path d="m398.692 131.526h113.301v-69.793c0-5.578-4.585-10.133-10.162-10.133h-42.488v21.318c0 12.791-10.483 23.274-23.273 23.274-12.819 0-23.273-10.484-23.273-23.274v-21.318h-35.713c8.643 25.114 15.914 51.863 21.608 79.926z" fill="#e5384f"/><path d="m10.14 169.022h491.691c5.577 0 10.162-4.556 10.162-10.133v-27.362h-511.986v27.362c0 5.577 4.555 10.133 10.133 10.133z" fill="#9fd4fe"/><path d="m405.262 169.022h96.569c5.577 0 10.162-4.556 10.162-10.133v-27.362h-113.301c2.482 12.264 4.672 24.763 6.57 37.495z" fill="#85beef"/><path d="m99.204 51.6v-28.326c0-12.615-10.192-22.982-22.748-23.274h-1.08c-3.533.088-6.862.964-9.841 2.453 7.622 3.825 12.878 11.739 12.878 20.821v28.326 21.288c0 9.082-5.256 16.996-12.907 20.821 3.154 1.577 6.687 2.482 10.425 2.482 12.79 0 23.273-10.484 23.273-23.274z" fill="#ffc250"/><path d="m198.459 23.274v28.326 21.288c0 9.082-5.256 16.996-12.878 20.821 3.125 1.577 6.658 2.482 10.396 2.482 12.79 0 23.273-10.484 23.273-23.274v-21.317-28.326c0-12.615-10.191-22.982-22.748-23.274h-1.08c-3.533.088-6.862.964-9.841 2.453 7.622 3.825 12.878 11.739 12.878 20.821z" fill="#ffc250"/><path d="m318.505 23.274v28.326 21.288c0 9.082-5.256 16.996-12.878 20.821 3.125 1.577 6.658 2.482 10.396 2.482 12.79 0 23.273-10.484 23.273-23.274v-21.317-28.326c0-12.615-10.191-22.982-22.748-23.274h-1.08c-3.533.088-6.862.964-9.841 2.453 7.622 3.825 12.878 11.739 12.878 20.821z" fill="#ffc250"/><path d="m438.552 23.274v28.326 21.288c0 9.082-5.256 16.996-12.878 20.821 3.125 1.577 6.658 2.482 10.396 2.482 12.79 0 23.273-10.484 23.273-23.274v-21.317-28.326c0-12.615-10.191-22.982-22.748-23.274h-1.08c-3.504.088-6.862.964-9.841 2.453 7.622 3.825 12.878 11.739 12.878 20.821z" fill="#ffc250"/><path d="m377.112 415.75c-9.636 36.152-24.441 68.8-43.159 96.25h139.203c15.769 0 28.676-12.907 28.676-28.676v-314.302h-96.569-46.08c8.03 17.959 14.659 37.291 19.652 57.645.73-.146-.409 189.054-1.723 189.083z" fill="#d9eeff"/></g><g><path clip-rule="evenodd" d="m122.952 310.99c7.82 0 14.193-6.372 14.193-14.193v-48.806c0-7.821-6.372-14.193-14.193-14.193h-41.505c-7.82 0-14.193 6.372-14.193 14.193v48.806c0 7.821 6.372 14.193 14.193 14.193z" fill="#95d6a4" fill-rule="evenodd"/></g><g><path clip-rule="evenodd" d="m235.537 310.99c7.791 0 14.193-6.372 14.193-14.193v-48.806c0-7.821-6.401-14.193-14.193-14.193h-41.535c-7.791 0-14.193 6.372-14.193 14.193v48.806c0 7.821 6.401 14.193 14.193 14.193z" fill="#95d6a4" fill-rule="evenodd"/></g><g><path clip-rule="evenodd" d="m122.952 430.674c7.82 0 14.193-6.372 14.193-14.193v-48.806c0-7.821-6.372-14.193-14.193-14.193h-41.505c-7.82 0-14.193 6.372-14.193 14.193v48.806c0 7.821 6.372 14.193 14.193 14.193z" fill="#95d6a4" fill-rule="evenodd"/></g><g><path clip-rule="evenodd" d="m235.537 430.674c7.791 0 14.193-6.372 14.193-14.193v-48.806c0-7.821-6.401-14.193-14.193-14.193h-41.535c-7.791 0-14.193 6.372-14.193 14.193v48.806c0 7.821 6.401 14.193 14.193 14.193z" fill="#95d6a4" fill-rule="evenodd"/></g><g><path d="m220.127 291.079c-1.807 0-3.563-.639-4.952-1.816l-12.86-10.891c-3.23-2.735-3.631-7.571-.896-10.801s7.571-3.631 10.801-.895l6.981 5.912 33.575-40.063c2.719-3.245 7.554-3.669 10.796-.951 3.244 2.719 3.67 7.552.951 10.796l-38.523 45.967c-1.309 1.563-3.188 2.54-5.221 2.713-.216.02-.435.029-.652.029z" fill="#2b4d66"/></g><g><path clip-rule="evenodd" d="m461.969 349.936c.01 1.972-1.829 3.433-3.75 2.994l-55.148-12.773v35.365l24.616 12.844.001.001c1.016.527 1.654 1.577 1.654 2.721v28.065c0 2.089-2.047 3.567-4.028 2.903-15.182-5.089-30.26-7.636-45.244-7.665-1.288 0-2.585.02-3.873.072-.01 0-.01 0-.01 0-13.703.419-27.487 2.943-41.363 7.592-1.972.664-4.026-.817-4.026-2.902v-28.069c0-1.144.634-2.187 1.655-2.718l24.616-12.844v-35.365l-55.148 12.773c-1.921.439-3.76-1.022-3.75-2.994l.041-21.479c0-5.732 2.238-6.55 6.928-9.237l.061-.061 51.868-29.745v-29.868c0-11.904 9.156-30.481 20.774-32.637.729-.146 1.485-.204 2.227-.204 12.661 0 23.001 20.191 23.001 32.841v29.868l51.837 29.745.092.061c4.69 2.687 6.897 3.505 6.918 9.237z" fill="#375e7d" fill-rule="evenodd"/></g><g><path clip-rule="evenodd" d="m461.969 349.936c.01 1.972-1.829 3.433-3.75 2.994l-55.148-12.773v35.365l24.616 12.844c1.012.531 1.655 1.574 1.655 2.718v28.069c0 2.089-2.047 3.567-4.028 2.903-15.182-5.089-30.26-7.636-45.244-7.665-1.288 0-2.585.02-3.873.072-.01 0-.01 0-.01 0-.02-.01-.041-.01-.061-.01 8.052-30.266 12.456-62.975 12.456-97.124 0-31.656-3.76-62.065-10.739-90.421.734-.147 1.48-.204 2.227-.204 12.661 0 23.001 20.191 23.001 32.841v29.868l28.356 16.278 23.481 13.468.092.061c4.69 2.687 6.897 3.505 6.918 9.237z" fill="#2b4d66" fill-rule="evenodd"/></g></g></svg>