<svg id="Capa_1" enable-background="new 0 0 512 512" height="512" viewBox="0 0 512 512" width="512" xmlns="http://www.w3.org/2000/svg"><g><g><path clip-rule="evenodd" d="m.941 67.369v385.234c0 11.856 9.695 21.551 21.551 21.551h162.213v-41.117l-75.222-346.132v-41.087h-86.991c-11.856 0-21.551 9.695-21.551 21.551z" fill="#c38c66" fill-rule="evenodd"/></g><g><path clip-rule="evenodd" d="m99.174 86.905 72.857 11.681 75.836-11.681v-41.35c0-6.366-5.198-11.564-11.564-11.564h-28.792c0-18.719-15.126-33.933-33.844-33.991h-.146-.146c-18.718.058-33.873 15.273-33.873 33.991h-28.792c-6.337 0-11.535 5.198-11.535 11.564v41.35z" fill="#ffe07d" fill-rule="evenodd"/></g><g><path clip-rule="evenodd" d="m304.985 242.786 16.09 24.546 25.025-24.546v-175.417c0-11.856-9.695-21.551-21.551-21.551h-76.683l-21.743 20.114z" fill="#c38c66" fill-rule="evenodd"/></g><g><path clip-rule="evenodd" d="m42.028 96.25v327.443c0 5.14 4.205 9.345 9.374 9.345h133.304l120.28-190.251v-146.537c0-5.14-4.205-9.345-9.344-9.345h-47.773-148.695-47.773c-5.168 0-9.373 4.205-9.373 9.345z" fill="#eff6ff" fill-rule="evenodd"/></g><g><path clip-rule="evenodd" d="m83.143 132.986v45.146c0 2.716 2.249 4.964 4.964 4.964h45.145c2.716 0 4.964-2.249 4.964-4.964v-45.146c0-2.716-2.249-4.964-4.964-4.964h-45.145c-2.716 0-4.964 2.248-4.964 4.964z" fill="#95d6a4" fill-rule="evenodd"/></g><g><path clip-rule="evenodd" d="m83.143 237.413v45.146c0 2.716 2.249 4.964 4.964 4.964h45.145c2.716 0 4.964-2.249 4.964-4.964v-45.146c0-2.745-2.249-4.964-4.964-4.964h-45.145c-2.716 0-4.964 2.219-4.964 4.964z" fill="#95d6a4" fill-rule="evenodd"/></g><g><path clip-rule="evenodd" d="m83.143 341.84v45.146c0 2.716 2.249 4.964 4.964 4.964h45.145c2.716 0 4.964-2.249 4.964-4.964v-45.146c0-2.745-2.249-4.964-4.964-4.964h-45.145c-2.716-.001-4.964 2.219-4.964 4.964z" fill="#95d6a4" fill-rule="evenodd"/></g><g><path clip-rule="evenodd" d="m118.185 391.95c-16.937 17.258-35.48 31.188-54.694 41.087h121.215l.029-123.963c-3.65 0-6.599-2.979-6.599-6.6v-2.745c-10.717 25.815-24.325 49.089-39.918 69.209v18.047c0 2.716-2.249 4.964-4.964 4.964h-15.069z" fill="#d9eeff" fill-rule="evenodd"/></g><g><path clip-rule="evenodd" d="m206.051 242.786h98.934v-146.536c0-5.14-4.205-9.345-9.344-9.345h-47.773-4.847c6.19 59.485-24.267 144.142-36.97 155.881z" fill="#d9eeff" fill-rule="evenodd"/></g><g><path clip-rule="evenodd" d="m99.642 383.044c-2.949 3.037-5.957 6.016-8.994 8.907h27.537 15.068c2.716 0 4.964-2.249 4.964-4.964v-18.047-27.1c0-1.606-.759-3.008-1.927-3.913-10.484 15.681-22.719 30.837-36.648 45.117z" fill="#78c2a4" fill-rule="evenodd"/></g><g><path clip-rule="evenodd" d="m99.642 278.617c-2.949 3.037-5.957 6.016-8.994 8.907h27.537 15.068c2.716 0 4.964-2.249 4.964-4.964v-18.047-27.1c0-1.606-.759-3.008-1.927-3.913-10.484 15.681-22.719 30.837-36.648 45.117z" fill="#78c2a4" fill-rule="evenodd"/></g><g><path clip-rule="evenodd" d="m99.642 174.19c-2.949 3.037-5.957 6.016-8.994 8.907h27.537 15.068c2.716 0 4.964-2.249 4.964-4.964v-18.047-27.1c0-1.577-.759-3.008-1.927-3.913-10.484 15.682-22.719 30.838-36.648 45.117z" fill="#78c2a4" fill-rule="evenodd"/></g><g><path clip-rule="evenodd" d="m304.985 96.25v146.536h41.115v-175.417c0-11.856-9.695-21.551-21.551-21.551h-28.471c.759 13.141.759 26.895-.029 41.117 4.965.204 8.936 4.322 8.936 9.315z" fill="#b57f5f" fill-rule="evenodd"/></g><g><path clip-rule="evenodd" d="m167.564 86.905h75.456 4.847v-41.087-.263c0-6.366-5.198-11.564-11.564-11.564h-28.792c0-18.719-15.126-33.933-33.844-33.991h-.146-.146c-1.869 0-3.679.146-5.461.438 9.198 11.476 14.776 26.545 14.776 43.044 0 16.674-5.723 31.918-15.126 43.423z" fill="#ffc250" fill-rule="evenodd"/></g><g><path clip-rule="evenodd" d="m184.705 309.075v123.963 41.117 19.186c0 10.25 8.41 18.66 18.66 18.66h282.464c10.25 0 18.63-8.41 18.63-18.66v-184.266l-158.359-21.551z" fill="#eff6ff" fill-rule="evenodd"/></g><g><path clip-rule="evenodd" d="m178.135 249.386v53.089c0 3.621 2.949 6.6 6.599 6.6h319.725c3.592 0 6.57-2.92 6.599-6.512v-.088-53.089-.088c-.029-3.592-3.008-6.512-6.599-6.512-84.655 0-237.027 0-319.725 0-3.65 0-6.599 2.979-6.599 6.6z" fill="#eb5468" fill-rule="evenodd"/></g><g><path clip-rule="evenodd" d="m401.846 242.786c6.57 20.792 11.038 43.044 12.995 66.289h89.619c3.592 0 6.57-2.92 6.599-6.512v-.088-53.089-.088c-.029-3.592-3.008-6.512-6.599-6.512h-35.596v9.753c0 10.571-8.673 19.244-19.244 19.244-10.6 0-19.244-8.673-19.244-19.244v-9.753z" fill="#e5384f" fill-rule="evenodd"/></g><g><path clip-rule="evenodd" d="m220.331 242.786v9.753c0 10.571 8.644 19.244 19.244 19.244s19.244-8.673 19.244-19.244v-9.753-14.309c0-10.571-8.644-19.244-19.244-19.244s-19.244 8.673-19.244 19.244z" fill="#ffe07d" fill-rule="evenodd"/></g><g><path clip-rule="evenodd" d="m430.375 242.786v9.753c0 10.571 8.644 19.244 19.244 19.244 10.571 0 19.244-8.673 19.244-19.244v-9.753-14.309c0-10.571-8.673-19.244-19.244-19.244-10.6 0-19.244 8.673-19.244 19.244z" fill="#ffe07d" fill-rule="evenodd"/></g><g><path clip-rule="evenodd" d="m230.989 211.248c6.337 3.183 10.688 9.724 10.688 17.229v14.309 9.753c0 7.505-4.351 14.046-10.688 17.229 2.599 1.285 5.519 2.015 8.585 2.015 10.6 0 19.244-8.673 19.244-19.244v-9.753-14.309c0-10.571-8.644-19.244-19.244-19.244-3.066 0-5.986.73-8.585 2.015z" fill="#ffc250" fill-rule="evenodd"/></g><g><path clip-rule="evenodd" d="m441.034 211.248c6.337 3.183 10.688 9.724 10.688 17.229v14.309 9.753c0 7.505-4.351 14.046-10.688 17.229 2.599 1.285 5.519 2.015 8.585 2.015 10.571 0 19.244-8.673 19.244-19.244v-9.753-14.309c0-10.571-8.673-19.244-19.244-19.244-3.066 0-5.986.73-8.585 2.015z" fill="#ffc250" fill-rule="evenodd"/></g><g><path d="m239.633 179.522h-68.156c-4.267 0-7.726-3.459-7.726-7.726s3.459-7.726 7.726-7.726h68.156c4.267 0 7.726 3.459 7.726 7.726s-3.459 7.726-7.726 7.726z" fill="#375e7d"/></g><g><path d="m263.87 147.049h-92.393c-4.267 0-7.726-3.459-7.726-7.726s3.459-7.726 7.726-7.726h92.393c4.267 0 7.726 3.459 7.726 7.726s-3.459 7.726-7.726 7.726z" fill="#375e7d"/></g><g><path clip-rule="evenodd" d="m143.385 433.038c-15.593 16.032-31.508 29.815-47.423 41.117h88.743v-41.117z" fill="#b57f5f" fill-rule="evenodd"/></g><g><path clip-rule="evenodd" d="m437.325 363.186c-4.818 58.171-8.731 111.318-55.804 148.814h104.307c10.25 0 18.63-8.41 18.63-18.66v-184.265h-89.618-151.759-78.376l.029 26.34h214.483c30.136 0 40.795-4.701 38.108 27.771z" fill="#d9eeff" fill-rule="evenodd"/></g><g><path d="m239.486 392.113c-1.873 0-3.691-.681-5.108-1.93l-15.477-13.637c-3.201-2.821-3.51-7.703-.689-10.905 2.82-3.201 7.703-3.511 10.905-.689l9.42 8.3 24.076-29.867c2.677-3.32 7.542-3.845 10.864-1.166 3.322 2.678 3.844 7.542 1.166 10.864l-29.143 36.152c-1.323 1.641-3.259 2.671-5.359 2.85-.217.019-.436.028-.655.028z" fill="#95d6a4"/></g><g><path d="m328.288 377.045h-29.143c-4.267 0-7.726-3.459-7.726-7.726s3.459-7.726 7.726-7.726h29.143c4.267 0 7.726 3.459 7.726 7.726s-3.459 7.726-7.726 7.726z" fill="#375e7d"/></g><g><path d="m390.72 377.045h-29.143c-4.267 0-7.726-3.459-7.726-7.726s3.459-7.726 7.726-7.726h29.143c4.267 0 7.726 3.459 7.726 7.726.001 4.267-3.459 7.726-7.726 7.726z" fill="#375e7d"/></g><g><path d="m250.057 463.571h-29.143c-4.267 0-7.726-3.459-7.726-7.726s3.459-7.726 7.726-7.726h29.143c4.267 0 7.726 3.459 7.726 7.726.001 4.267-3.459 7.726-7.726 7.726z" fill="#375e7d"/></g><g><path d="m390.72 463.571h-29.143c-4.267 0-7.726-3.459-7.726-7.726s3.459-7.726 7.726-7.726h29.143c4.267 0 7.726 3.459 7.726 7.726.001 4.267-3.459 7.726-7.726 7.726z"/></g><g><path d="m457.445 463.571h-29.143c-4.267 0-7.726-3.459-7.726-7.726s3.459-7.726 7.726-7.726h29.143c4.267 0 7.726 3.459 7.726 7.726.001 4.267-3.459 7.726-7.726 7.726z" fill="#375e7d"/></g><g><path d="m301.919 478.639c-1.873 0-3.691-.681-5.108-1.93l-15.477-13.637c-3.201-2.821-3.51-7.703-.689-10.905 2.82-3.202 7.703-3.51 10.905-.689l9.42 8.3 24.076-29.867c2.677-3.321 7.542-3.845 10.864-1.166 3.322 2.678 3.844 7.542 1.166 10.864l-29.143 36.152c-1.323 1.641-3.259 2.671-5.359 2.85-.218.019-.437.028-.655.028z" fill="#95d6a4"/></g><g><path d="m390.72 463.571h-29.143c-4.267 0-7.726-3.459-7.726-7.726s3.459-7.726 7.726-7.726h29.143c4.267 0 7.726 3.459 7.726 7.726.001 4.267-3.459 7.726-7.726 7.726z" fill="#375e7d"/></g><g><path d="m442.552 392.113c-1.873 0-3.691-.681-5.108-1.93l-15.476-13.637c-3.202-2.821-3.51-7.703-.689-10.905 2.821-3.201 7.703-3.511 10.905-.689l9.419 8.3 24.076-29.867c2.678-3.32 7.542-3.845 10.864-1.166 3.322 2.678 3.844 7.542 1.166 10.864l-29.143 36.152c-1.323 1.641-3.259 2.671-5.359 2.85-.218.019-.437.028-.655.028z" fill="#95d6a4"/></g></g></svg>