<svg id="Capa_1" enable-background="new 0 0 512 512" height="512" viewBox="0 0 512 512" width="512" xmlns="http://www.w3.org/2000/svg"><g><g><path clip-rule="evenodd" d="m38.8 512.4h434.4c15.8 0 28.6-12.9 28.6-28.7v-314.3h-491.6v314.3c0 15.8 12.9 28.7 28.6 28.7z" fill="#eff6ff" fill-rule="evenodd"/></g><g><path clip-rule="evenodd" d="m10.1 169h491.7c5.5 0 10-4.4 10.2-9.9v-.2-27.4h-512v27.4.2c.1 5.5 4.6 9.9 10.1 9.9z" fill="#9fd4fe" fill-rule="evenodd"/></g><g><path clip-rule="evenodd" d="m0 131.5h512v-69.8-.2c-.1-5.5-4.6-9.9-10.2-9.9h-491.7c-5.5 0-10 4.5-10.1 10v.2c0-.1 0 69.7 0 69.7z" fill="#eb5468" fill-rule="evenodd"/></g><g><path clip-rule="evenodd" d="m367 51.6c13.5 24 25.3 50.8 35 79.9h110v-69.8-.2c-.1-5.5-4.6-9.9-10.2-9.9h-42.5v21.3c0 12.8-10.5 23.3-23.3 23.3s-23.3-10.5-23.3-23.3v-21.3z" fill="#e5384f" fill-rule="evenodd"/></g><g><path clip-rule="evenodd" d="m402 131.5c4 12.1 7.7 24.6 11 37.5h88.8c5.5 0 10-4.4 10.2-9.9v-.2-27.4z" fill="#85beef" fill-rule="evenodd"/></g><g><path clip-rule="evenodd" d="m52.6 72.9c0 12.8 10.5 23.3 23.3 23.3s23.3-10.5 23.3-23.3v-21.3-28.3c0-12.8-10.5-23.3-23.3-23.3s-23.3 10.5-23.3 23.3v28.3z" fill="#ffe07d" fill-rule="evenodd"/></g><g><path clip-rule="evenodd" d="m172.7 72.9c0 12.8 10.5 23.3 23.3 23.3s23.3-10.5 23.3-23.3v-21.3-28.3c-.1-12.8-10.5-23.3-23.3-23.3s-23.3 10.5-23.3 23.3v28.3z" fill="#ffe07d" fill-rule="evenodd"/></g><g><path clip-rule="evenodd" d="m292.8 72.9c0 12.8 10.5 23.3 23.3 23.3s23.3-10.5 23.3-23.3v-21.3-28.3c-.1-12.8-10.6-23.3-23.4-23.3s-23.3 10.5-23.3 23.3v28.3 21.3z" fill="#ffe07d" fill-rule="evenodd"/></g><g><path clip-rule="evenodd" d="m412.8 23.3v28.3 21.3c0 12.8 10.5 23.3 23.3 23.3s23.3-10.5 23.3-23.3v-21.3-28.3c0-12.8-10.5-23.3-23.3-23.3s-23.3 10.5-23.3 23.3z" fill="#ffe07d" fill-rule="evenodd"/></g><g><path clip-rule="evenodd" d="m196.4 23.3v49.6c0 8.6-4.8 16.2-11.9 20.2 3.4 1.9 7.3 3 11.4 3 12.8 0 23.3-10.5 23.3-23.3v-21.2-28.3c0-12.8-10.4-23.3-23.2-23.3-4.1 0-8.1 1.1-11.4 3 7 4 11.8 11.6 11.8 20.3z" fill="#ffc250" fill-rule="evenodd"/></g><g><path clip-rule="evenodd" d="m76.3 23.3v49.6c0 8.6-4.8 16.2-11.9 20.2 3.4 1.9 7.3 3 11.4 3 12.8 0 23.3-10.5 23.3-23.3v-21.2-28.3c.1-12.8-10.4-23.3-23.2-23.3-4.1 0-8.1 1.1-11.4 3 7.1 4 11.8 11.6 11.8 20.3z" fill="#ffc250" fill-rule="evenodd"/></g><g><path clip-rule="evenodd" d="m316.4 23.3v49.6c0 8.6-4.8 16.2-11.8 20.2 3.4 1.9 7.3 3 11.4 3 12.8 0 23.3-10.5 23.3-23.3v-21.2-28.3c0-12.8-10.5-23.3-23.3-23.3-4.1 0-8.1 1.1-11.4 3 7 4 11.8 11.6 11.8 20.3z" fill="#ffc250" fill-rule="evenodd"/></g><g><path clip-rule="evenodd" d="m436.5 23.3v49.6c0 8.6-4.8 16.2-11.8 20.2 3.4 1.9 7.3 3 11.4 3 12.8 0 23.3-10.5 23.3-23.3v-21.2-28.3c0-12.8-10.5-23.3-23.3-23.3-4.1 0-8.1 1.1-11.4 3 7 4 11.8 11.6 11.8 20.3z" fill="#ffc250" fill-rule="evenodd"/></g><g><path clip-rule="evenodd" d="m298.1 300.8v47h54.3v-52.2h-49.1c-2.9-.1-5.2 2.3-5.2 5.2z" fill="#9fd4fe" fill-rule="evenodd"/></g><g><path clip-rule="evenodd" d="m352.4 295.5h54.3v52.2h-54.3z" fill="#9fd4fe" fill-rule="evenodd"/></g><g><path clip-rule="evenodd" d="m406.7 295.5v52.2h54.3v-47c0-2.9-2.4-5.3-5.3-5.3h-49z" fill="#9fd4fe" fill-rule="evenodd"/></g><g><path clip-rule="evenodd" d="m406.7 347.7h54.3v52.2h-54.3z" fill="#9fd4fe" fill-rule="evenodd"/></g><g><path clip-rule="evenodd" d="m352.4 347.7h54.3v52.2h-54.3z" fill="#9fd4fe" fill-rule="evenodd"/></g><g><path clip-rule="evenodd" d="m298.1 347.7h54.3v52.2h-54.3z" fill="#9fd4fe" fill-rule="evenodd"/></g><g><path clip-rule="evenodd" d="m298.1 400v47c0 2.9 2.4 5.3 5.3 5.3h49.1v-52.3z" fill="#9fd4fe" fill-rule="evenodd"/></g><g><path clip-rule="evenodd" d="m352.4 400h54.3v52.3h-54.3z" fill="#eb5468" fill-rule="evenodd"/></g><g><path clip-rule="evenodd" d="m406.7 400v52.3h49.1c2.9 0 5.3-2.4 5.3-5.3v-47z" fill="#9fd4fe" fill-rule="evenodd"/></g><g><path clip-rule="evenodd" d="m425.9 295.5c2.5 16.9 4.1 34.4 4.8 52.2h30.3v-47c0-2.9-2.4-5.3-5.3-5.3h-29.8z" fill="#85beef" fill-rule="evenodd"/></g><g><path clip-rule="evenodd" d="m430.7 347.7c.3 6.6.4 13.3.4 20 0 10.9-.3 21.7-1 32.3h31v-52.2z" fill="#85beef" fill-rule="evenodd"/></g><g><path clip-rule="evenodd" d="m430.1 400c-1.1 17.9-3.2 35.4-6.1 52.3h31.8c2.9 0 5.3-2.4 5.3-5.3v-47z" fill="#85beef" fill-rule="evenodd"/></g><g><path clip-rule="evenodd" d="m417.1 250.3c3.6 14.6 6.6 29.7 8.8 45.2h29.9c2.9 0 5.3 2.4 5.3 5.3v47 52.2 47c0 2.9-2.4 5.3-5.3 5.3h-31.8c-3.6 20.8-8.4 40.8-14.5 59.7h63.7c15.8 0 28.6-12.9 28.6-28.7v-314.3h-88.8-25.5c12.2 24.5 22.2 51.8 29.6 81.3z" fill="#d9eeff" fill-rule="evenodd"/></g><g><path d="m406.7 407.7h-54.3c-4.3 0-7.7-3.5-7.7-7.7v-52.2c0-4.3 3.5-7.7 7.7-7.7h54.3c4.3 0 7.7 3.5 7.7 7.7v52.2c0 4.2-3.4 7.7-7.7 7.7zm-46.6-15.4h38.9v-36.8h-38.9z"/></g><g><path d="m222.1 444.5h-142.2c-4.3 0-7.7 3.5-7.7 7.7s3.5 7.7 7.7 7.7h142.2c4.3 0 7.7-3.5 7.7-7.7s-3.4-7.7-7.7-7.7z" fill="#2b4d66"/><path d="m455.8 287.8h-152.5c-7.2 0-13 5.8-13 13v146.2c0 7.2 5.8 13 13 13h152.5c7.2 0 13-5.8 13-13v-146.2c0-7.2-5.9-13-13-13zm-95.7 104.5v-36.8h38.9v36.8zm38.9 15.4v36.8h-38.9v-36.8zm-93.2-52.2h38.9v36.8h-38.9zm54.3-15.5v-36.8h38.9v36.8zm54.3 15.5h38.9v36.8h-38.9zm38.9-15.5h-38.9v-36.8h38.9zm-108.6-36.8v36.8h-38.9v-36.8zm-38.9 104.5h38.9v36.8h-38.9zm108.6 36.8v-36.8h38.9v36.8z" fill="#2b4d66"/><path d="m298.1 220.7h67.8c4.3 0 7.7-3.5 7.7-7.7s-3.5-7.7-7.7-7.7h-67.8c-4.3 0-7.7 3.5-7.7 7.7s3.4 7.7 7.7 7.7z" fill="#375e7d"/><path d="m298.1 258h135.7c4.3 0 7.7-3.5 7.7-7.7s-3.5-7.7-7.7-7.7h-135.7c-4.3 0-7.7 3.5-7.7 7.7s3.4 7.7 7.7 7.7z" fill="#2b4d66"/></g><g><path clip-rule="evenodd" d="m74.4 284.8c-17.8 4.1-31 18-31 34.5 0 16.6 13.1 30.5 31 34.5 3.4.8 7 1.2 10.7 1.2 11 0 26.6-3.6 39.8-9.6 3.4-1.5 6.7-3.3 9.7-5.1 14.4-9.1 18.7-29.6 0-41.9-3-1.8-6.3-3.6-9.7-5.1-13.2-6-28.8-9.6-39.8-9.6-3.7-.1-7.3.3-10.7 1.1z" fill="#eb5468" fill-rule="evenodd"/></g><g><path clip-rule="evenodd" d="m116.4 243.2c-.7 3.3-1.1 6.7-1.1 10.3 0 11 3.7 26.6 9.6 39.8 17.6 27.7 41.5 23.3 52.1 0 6-13.2 9.6-28.8 9.6-39.8 0-3.6-.4-7-1.1-10.3-3.9-18-17.9-31.4-34.6-31.4-16.6 0-30.6 13.3-34.5 31.4z" fill="#eb5468" fill-rule="evenodd"/></g><g><path clip-rule="evenodd" d="m80.4 249c-9.1 9.1-10.9 23.1-6 35.8 3.4-.8 7-1.2 10.7-1.2 11 0 26.6 3.6 39.8 9.6-6-13.2-9.6-28.8-9.6-39.8 0-3.6.4-7 1.1-10.3-12.8-5-26.9-3.2-36 5.9z" fill="#95d6a4" fill-rule="evenodd"/></g><g><path clip-rule="evenodd" d="m74.4 353.8c-5 12.7-3.1 26.7 6 35.8 9.1 9.2 23.2 11 36 5.9-.7-3.3-1.1-6.7-1.1-10.3 0-11 3.7-26.6 9.6-39.8-13.2 6-28.8 9.6-39.8 9.6-3.7 0-7.3-.4-10.7-1.2z" fill="#95d6a4" fill-rule="evenodd"/></g><g><path clip-rule="evenodd" d="m124.9 345.4c-6 13.2-9.6 28.8-9.6 39.8 0 3.6.4 7 1.1 10.3 3.9 18.1 17.9 31.4 34.6 31.4s30.7-13.3 34.6-31.4c.7-3.3 1.1-6.7 1.1-10.3 0-11-3.7-26.6-9.6-39.8-13-19-31.1-19.4-52.2 0z" fill="#eb5468" fill-rule="evenodd"/></g><g><path clip-rule="evenodd" d="m177.1 345.4c6 13.2 9.6 28.8 9.6 39.8 0 3.6-.4 7-1.1 10.3 12.8 5.1 26.9 3.3 36-5.9 9.1-9.1 10.9-23 6-35.8-3.4.8-7 1.2-10.7 1.2-11.1 0-26.6-3.6-39.8-9.6z" fill="#95d6a4" fill-rule="evenodd"/></g><g><path clip-rule="evenodd" d="m167.3 340.3c3 1.8 6.3 3.6 9.7 5.1 13.2 6 28.8 9.6 39.8 9.6 3.7 0 7.3-.4 10.7-1.2 17.8-4.1 31-18 31-34.5s-13.1-30.4-31-34.5c-3.4-.8-7-1.2-10.7-1.2-11 0-26.6 3.6-39.8 9.6-3.4 1.5-6.7 3.3-9.7 5.1-14.6 10-14.6 30.7 0 42z" fill="#eb5468" fill-rule="evenodd"/></g><g><path clip-rule="evenodd" d="m186.7 253.5c0 11-3.6 26.6-9.6 39.8 13.2-6 28.8-9.6 39.8-9.6 3.7 0 7.3.4 10.7 1.2 5-12.7 3.1-26.7-6-35.8s-23.2-11-36-5.9c.7 3.3 1.1 6.7 1.1 10.3z" fill="#95d6a4" fill-rule="evenodd"/></g><g><path clip-rule="evenodd" d="m175.1 330.5c-1.8 3.9-4.4 7.2-7.8 9.8 3 1.8 6.3 3.6 9.7 5.1 13.2 6 28.8 9.6 39.8 9.6 3.7 0 7.3-.4 10.7-1.2 17.8-4.1 31-18 31-34.5 0-2.2-.2-4.4-.7-6.5-15.8 32.5-61.5 26-80.6 18.7-.7-.3-1.4-.6-2.1-1z" fill="#e5384f" fill-rule="evenodd"/></g><g><path clip-rule="evenodd" d="m138.2 217.1c39.4-.2 31.5 53.3 26.6 79.5.8.5 1.7 1.1 2.5 1.7 3-1.8 6.3-3.6 9.7-5.1 6-13.2 9.6-28.8 9.6-39.8 0-3.6-.4-7-1.1-10.3-3.9-18-17.9-31.4-34.6-31.4-6.6 0-12.8 2.1-18.1 5.8 1.7-.2 5.4-.4 5.4-.4z" fill="#e5384f" fill-rule="evenodd"/></g><g><path clip-rule="evenodd" d="m124.9 345.4c-6 13.2-9.6 28.8-9.6 39.8 0 3.6.4 7 1.1 10.3 3.9 18.1 17.9 31.4 34.6 31.4 7.1 0 13.6-2.4 19.2-6.5 0 0-2 .1-2.8.1-8.8 0-26.5-13.4-30.5-31.4-.7-3.3-1.1-3.6-1.1-10.3s-1.2-23.3 3.7-35.5c-1.7-.8-3.4-1.8-4.8-3-3.1 1.8-6.3 3.6-9.8 5.1z" fill="#e5384f" fill-rule="evenodd"/></g><g><path clip-rule="evenodd" d="m74.4 284.8c-17.8 4.1-31 18-31 34.5 0 1.3.1 2.5.2 3.7 14.3-28.6 56.5-21.3 79.5-15 1.1.5 2.1 1 3.2 1.5 1.8-4.4 4.7-8.3 8.4-11.1-3-1.8-6.3-3.6-9.7-5.1-13.2-6-28.8-9.6-39.8-9.6-3.8-.1-7.4.3-10.8 1.1z" fill="#e5384f" fill-rule="evenodd"/></g><g><path d="m124.4 327.1h-27.2c-4.3 0-7.7-3.5-7.7-7.7s3.5-7.7 7.7-7.7h27.2c4.3 0 7.7 3.5 7.7 7.7s-3.4 7.7-7.7 7.7z" fill="#e5384f"/></g><g><path d="m204.8 327.1h-27.2c-4.3 0-7.7-3.5-7.7-7.7s3.5-7.7 7.7-7.7h27.2c4.3 0 7.7 3.5 7.7 7.7s-3.5 7.7-7.7 7.7z" fill="#e5384f"/></g><g><path d="m151 380.8c-4.3 0-7.7-3.5-7.7-7.7v-27.2c0-4.3 3.5-7.7 7.7-7.7s7.7 3.5 7.7 7.7v27.2c0 4.3-3.5 7.7-7.7 7.7z" fill="#e5384f"/></g><g><path d="m151 300.5c-4.3 0-7.7-3.5-7.7-7.7v-27.2c0-4.3 3.5-7.7 7.7-7.7s7.7 3.5 7.7 7.7v27.2c0 4.2-3.5 7.7-7.7 7.7z" fill="#e5384f"/></g><g><path clip-rule="evenodd" d="m134.7 298.4c-6.2 4.8-10.2 12.4-10.2 20.9s4 16.1 10.2 21c4.5 3.5 10.2 5.6 16.3 5.6 6.2 0 11.9-2.1 16.4-5.6 6.2-4.9 10.2-12.4 10.2-21 0-8.5-4-16.1-10.2-20.9-4.5-3.5-10.2-5.6-16.4-5.6s-11.8 2.1-16.3 5.6z" fill="#ffe07d" fill-rule="evenodd"/></g><g><path clip-rule="evenodd" d="m152.5 297.9c6.2 4.8 10.2 12.4 10.2 20.9s-4 16.1-10.2 21c-2.9 2.2-6.2 3.9-9.8 4.8 2.6.9 5.4 1.3 8.3 1.3 6.2 0 11.9-2.1 16.4-5.6 3.3-2.6 6-5.9 7.8-9.8 1.6-3.4 2.5-7.2 2.5-11.2 0-8.5-4-16.1-10.2-20.9-.8-.6-1.6-1.2-2.5-1.7-4-2.5-8.8-3.9-13.9-3.9-2.2 0-4.4.3-6.5.8 2.8.9 5.5 2.4 7.9 4.3z" fill="#ffc250" fill-rule="evenodd"/></g></g></svg>