<svg id="Capa_1" enable-background="new 0 0 512 512" height="512" viewBox="0 0 512 512" width="512" xmlns="http://www.w3.org/2000/svg"><g><g><path clip-rule="evenodd" d="m36.094 479.431h403.806c14.659 0 26.661-11.973 26.661-26.633v-292.204l-228.565-13.45-228.564 13.45v292.204c0 14.66 12.002 26.633 26.662 26.633z" fill="#eff6ff" fill-rule="evenodd"/></g><g><path clip-rule="evenodd" d="m9.432 160.594h457.129c5.11 0 9.315-4.118 9.432-9.199v-.234-25.436l-237.997-19.712-237.996 19.713v25.436.175c.088 5.11 4.293 9.257 9.432 9.257z" fill="#9fd4fe" fill-rule="evenodd"/></g><g><path clip-rule="evenodd" d="m0 125.726h475.994v-64.86-.234c-.117-5.081-4.322-9.199-9.432-9.199h-457.13c-5.14 0-9.345 4.147-9.432 9.257v.175z" fill="#eb5468" fill-rule="evenodd"/></g><g><path clip-rule="evenodd" d="m341.226 51.434c12.586 22.282 23.537 47.25 32.531 74.292h102.236v-64.86-.234c-.117-5.081-4.322-9.199-9.432-9.199h-39.51v19.8c0 11.915-9.753 21.639-21.639 21.639-11.914 0-21.639-9.725-21.639-21.639v-19.8h-42.547z" fill="#e5384f" fill-rule="evenodd"/></g><g><path clip-rule="evenodd" d="m373.757 125.726c3.738 11.272 7.155 22.924 10.191 34.868h82.613c5.11 0 9.315-4.118 9.432-9.199v-.234-25.436h-102.236z" fill="#85beef" fill-rule="evenodd"/></g><g><path clip-rule="evenodd" d="m48.943 71.233c0 11.915 9.724 21.639 21.639 21.639 11.885 0 21.639-9.725 21.639-21.639v-19.8-26.34c0-11.915-9.753-21.639-21.639-21.639-11.914 0-21.639 9.725-21.639 21.639v26.341z" fill="#ffe07d" fill-rule="evenodd"/></g><g><path clip-rule="evenodd" d="m160.553 71.233c0 11.915 9.724 21.639 21.639 21.639 11.885 0 21.639-9.725 21.639-21.639v-19.8-26.34c0-11.915-9.753-21.639-21.639-21.639-11.914 0-21.639 9.725-21.639 21.639v26.341z" fill="#ffe07d" fill-rule="evenodd"/></g><g><path clip-rule="evenodd" d="m272.163 71.233c0 11.915 9.724 21.639 21.639 21.639 11.885 0 21.639-9.725 21.639-21.639v-19.8-26.34c0-11.915-9.753-21.639-21.639-21.639-11.914 0-21.639 9.725-21.639 21.639v26.341z" fill="#ffe07d" fill-rule="evenodd"/></g><g><path clip-rule="evenodd" d="m383.774 25.093v26.341 19.8c0 11.915 9.724 21.639 21.639 21.639 11.885 0 21.639-9.725 21.639-21.639v-19.8-26.341c0-11.915-9.753-21.639-21.639-21.639-11.915 0-21.639 9.724-21.639 21.639z" fill="#ffe07d" fill-rule="evenodd"/></g><g><path clip-rule="evenodd" d="m182.571 25.093v46.141c0 8.06-4.439 15.098-11.009 18.836 3.154 1.781 6.775 2.803 10.63 2.803 11.885 0 21.639-9.725 21.639-21.639v-19.8-26.341c0-11.915-9.753-21.639-21.639-21.639-3.855 0-7.505 1.022-10.63 2.803 6.571 3.709 11.009 10.776 11.009 18.836z" fill="#ffc250" fill-rule="evenodd"/></g><g><path clip-rule="evenodd" d="m70.961 25.093v46.141c0 8.06-4.439 15.098-11.009 18.836 3.154 1.781 6.775 2.803 10.63 2.803 11.885 0 21.639-9.725 21.639-21.639v-19.8-26.341c0-11.915-9.753-21.639-21.639-21.639-3.855 0-7.476 1.022-10.63 2.803 6.57 3.709 11.009 10.776 11.009 18.836z" fill="#ffc250" fill-rule="evenodd"/></g><g><path clip-rule="evenodd" d="m294.182 25.093v46.141c0 8.06-4.439 15.098-11.009 18.836 3.125 1.781 6.775 2.803 10.63 2.803 11.885 0 21.639-9.725 21.639-21.639v-19.8-26.341c0-11.915-9.753-21.639-21.639-21.639-3.855 0-7.505 1.022-10.63 2.803 6.57 3.709 11.009 10.776 11.009 18.836z" fill="#ffc250" fill-rule="evenodd"/></g><g><path clip-rule="evenodd" d="m405.792 25.093v46.141c0 8.06-4.439 15.098-11.009 18.836 3.125 1.781 6.775 2.803 10.63 2.803 11.885 0 21.639-9.725 21.639-21.639v-19.8-26.341c0-11.915-9.753-21.639-21.639-21.639-3.855 0-7.505 1.022-10.63 2.803 6.541 3.709 11.009 10.776 11.009 18.836z" fill="#ffc250" fill-rule="evenodd"/></g><g><path clip-rule="evenodd" d="m380.678 479.431h59.222c14.659 0 26.661-11.973 26.661-26.633v-292.204h-82.613-23.654c40.125 102.035 44.301 210.319 20.384 318.837z" fill="#d9eeff" fill-rule="evenodd"/></g><g><path clip-rule="evenodd" d="m378.722 241.953c-73.618 0-133.307 59.691-133.307 133.311s59.689 133.282 133.307 133.282c73.589 0 133.278-59.661 133.278-133.282s-59.689-133.311-133.278-133.311z" fill="#eb5468" fill-rule="evenodd"/></g><g><path clip-rule="evenodd" d="m378.722 276.734c-54.433 0-98.528 44.126-98.528 98.53s44.095 98.501 98.528 98.501c54.403 0 98.499-44.096 98.499-98.501s-44.096-98.53-98.499-98.53z" fill="#eff6ff" fill-rule="evenodd"/></g><g><path d="m291.437 220.068h-190.778c-4.267 0-7.726-3.459-7.726-7.726s3.459-7.726 7.726-7.726h190.777c4.268 0 7.726 3.459 7.726 7.726s-3.458 7.726-7.725 7.726z" fill="#2b4d66"/></g><g><path d="m234.142 272.487h-133.483c-4.267 0-7.726-3.459-7.726-7.726s3.459-7.726 7.726-7.726h133.483c4.267 0 7.726 3.459 7.726 7.726s-3.459 7.726-7.726 7.726z" fill="#2b4d66"/></g><g><path d="m203.947 324.906h-103.288c-4.267 0-7.726-3.459-7.726-7.726s3.459-7.726 7.726-7.726h103.288c4.267 0 7.726 3.459 7.726 7.726s-3.459 7.726-7.726 7.726z" fill="#2b4d66"/></g><g><path d="m203.947 377.326h-103.288c-4.267 0-7.726-3.459-7.726-7.726s3.459-7.726 7.726-7.726h103.288c4.267 0 7.726 3.459 7.726 7.726s-3.459 7.726-7.726 7.726z" fill="#2b4d66"/></g><g><path d="m185.024 429.744h-84.365c-4.267 0-7.726-3.459-7.726-7.726s3.459-7.726 7.726-7.726h84.365c4.267 0 7.726 3.459 7.726 7.726s-3.459 7.726-7.726 7.726z" fill="#2b4d66"/></g><g><path d="m68.625 220.068h-8.615c-4.267 0-7.726-3.459-7.726-7.726s3.459-7.726 7.726-7.726h8.615c4.267 0 7.726 3.459 7.726 7.726s-3.459 7.726-7.726 7.726z" fill="#eb5468"/></g><g><path d="m68.625 272.487h-8.615c-4.267 0-7.726-3.459-7.726-7.726s3.459-7.726 7.726-7.726h8.615c4.267 0 7.726 3.459 7.726 7.726s-3.459 7.726-7.726 7.726z" fill="#2b4d66"/></g><g><path d="m68.625 324.906h-8.615c-4.267 0-7.726-3.459-7.726-7.726s3.459-7.726 7.726-7.726h8.615c4.267 0 7.726 3.459 7.726 7.726s-3.459 7.726-7.726 7.726z" fill="#eb5468"/></g><g><path d="m68.625 377.326h-8.615c-4.267 0-7.726-3.459-7.726-7.726s3.459-7.726 7.726-7.726h8.615c4.267 0 7.726 3.459 7.726 7.726s-3.459 7.726-7.726 7.726z" fill="#2b4d66"/></g><g><path d="m68.625 429.744h-8.615c-4.267 0-7.726-3.459-7.726-7.726s3.459-7.726 7.726-7.726h8.615c4.267 0 7.726 3.459 7.726 7.726s-3.459 7.726-7.726 7.726z" fill="#eb5468"/></g><g><path clip-rule="evenodd" d="m395.309 358.56h-50.841c-8.293 0-15.039 7.505-15.039 16.704 0 9.17 6.775 16.675 15.039 16.675h49.264 19.244c8.264 0 15.01-7.505 15.01-16.675s-6.746-16.704-15.01-16.704z" fill="#eb5468" fill-rule="evenodd"/></g><g><path clip-rule="evenodd" d="m359.974 278.515c13.637 21.961 23.42 49.47 27.684 80.045h7.651 17.667c8.264 0 15.01 7.534 15.01 16.704s-6.746 16.675-15.01 16.675h-19.244-3.679v1.46c0 29.115-4.906 56.478-13.521 80.366h2.19c1.051 0 2.132 0 3.183-.029 36.97-1.197 68.829-22.749 84.657-53.821 6.804-13.404 10.659-28.59 10.659-44.651 0-16.091-3.855-31.247-10.659-44.68-14.572-28.59-42.693-49.119-75.896-53.12-3.913-.496-7.914-.73-11.944-.73-6.425 0-12.674.613-18.748 1.781z" fill="#d9eeff" fill-rule="evenodd"/></g><g><path clip-rule="evenodd" d="m395.309 358.56h-7.651c1.519 10.776 2.336 21.961 2.395 33.379h3.679 19.244c8.264 0 15.01-7.505 15.01-16.675s-6.746-16.704-15.01-16.704z" fill="#e5384f" fill-rule="evenodd"/></g><g><path clip-rule="evenodd" d="m466.562 275.011c-22.106-19.362-50.636-31.568-81.97-32.912-1.957-.088-3.913-.146-5.87-.146-15.039 0-29.494 2.511-42.985 7.096 8.965 8.089 17.112 18.018 24.238 29.466 6.074-1.168 12.323-1.781 18.748-1.781 4.03 0 8.031.234 11.944.73 33.203 4.001 61.324 24.53 75.896 53.12 6.804 13.433 10.659 28.59 10.659 44.68 0 16.062-3.855 31.247-10.659 44.651-15.828 31.072-47.687 52.624-84.657 53.821-1.051.029-2.132.029-3.183.029-.73 0-1.46 0-2.19 0-.701 1.898-1.431 3.796-2.161 5.665-3.971 10.017-8.585 19.361-13.813 27.889 5.928.818 12.002 1.227 18.164 1.227 73.589 0 133.278-59.661 133.278-133.282-.001-39.978-17.581-75.839-45.439-100.253z" fill="#e5384f" fill-rule="evenodd"/></g></g></svg>