<svg id="Capa_1" enable-background="new 0 0 512 512" height="512" viewBox="0 0 512 512" width="512" xmlns="http://www.w3.org/2000/svg"><g><g><path d="m256.52 143.878h-103.54c-4.204 0-7.612-3.407-7.612-7.612s3.407-7.612 7.612-7.612h103.54c4.204 0 7.612 3.407 7.612 7.612s-3.408 7.612-7.612 7.612zm-154.259 0h-94.649c-4.204 0-7.612-3.407-7.612-7.612s3.407-7.612 7.612-7.612h94.649c4.204 0 7.612 3.407 7.612 7.612s-3.408 7.612-7.612 7.612z" fill="#d9eeff"/></g><g><path d="m109.597 197.158h-71.548c-4.204 0-7.612-3.407-7.612-7.612 0-4.204 3.407-7.612 7.612-7.612h71.548c4.204 0 7.612 3.407 7.612 7.612-.001 4.205-3.408 7.612-7.612 7.612z" fill="#d9eeff"/></g><g><path d="m61.15 303.692h-53.538c-4.204 0-7.612-3.407-7.612-7.612s3.407-7.612 7.612-7.612h53.538c4.204 0 7.612 3.407 7.612 7.612s-3.408 7.612-7.612 7.612z" fill="#d9eeff"/></g><g><path d="m119.982 356.973h-87.773c-4.204 0-7.612-3.407-7.612-7.612 0-4.204 3.407-7.612 7.612-7.612h87.773c4.204 0 7.612 3.407 7.612 7.612 0 4.204-3.407 7.612-7.612 7.612z" fill="#d9eeff"/></g><g><path d="m91.587 410.254h-37.284c-4.204 0-7.612-3.407-7.612-7.612 0-4.204 3.407-7.612 7.612-7.612h37.284c4.204 0 7.612 3.407 7.612 7.612-.001 4.205-3.408 7.612-7.612 7.612z" fill="#d9eeff"/></g><g><path d="m211.676 463.535h-112.465c-4.204 0-7.612-3.407-7.612-7.612 0-4.204 3.407-7.612 7.612-7.612h112.465c4.204 0 7.612 3.407 7.612 7.612 0 4.204-3.407 7.612-7.612 7.612z" fill="#d9eeff"/></g><g><path d="m129.274 250.439h-59.148c-4.204 0-7.612-3.407-7.612-7.612s3.407-7.612 7.612-7.612h59.148c4.204 0 7.612 3.407 7.612 7.612s-3.408 7.612-7.612 7.612z" fill="#d9eeff"/></g><g><path clip-rule="evenodd" d="m359.798 53.122-24.166 68.759c12.486 1.554 25 4.344 37.399 8.429s24.137 9.293 35.098 15.449l24.166-68.759z" fill="#eff6ff" fill-rule="evenodd"/></g><g><path clip-rule="evenodd" d="m339.545 16.355-8.947 27.158c-1.927 5.869 1.266 12.256 7.135 14.183l17.204 5.639 72.468 23.879 17.175 5.668c5.869 1.928 12.255-1.295 14.183-7.164l8.947-27.158c1.927-5.869-1.295-12.256-7.163-14.183l-106.819-35.186c-5.869-1.928-12.256 1.295-14.183 7.164z" fill="#375e7d" fill-rule="evenodd"/></g><g><path clip-rule="evenodd" d="m444.579 92.881c5.869 1.928 12.255-1.295 14.183-7.164l8.947-27.158c1.927-5.869-1.295-12.256-7.163-14.183l-26.467-8.717c5.869 1.928 9.091 8.314 7.163 14.183l-8.947 27.158c-1.927 5.869-8.314 9.091-14.183 7.164h.058l9.235 3.05z" fill="#2b4d66" fill-rule="evenodd"/></g><g><path clip-rule="evenodd" d="m253.44 493.439c103.308 34.006 214.614-22.152 248.619-125.435 29.948-90.883-9.954-187.98-90.334-233.176-10.961-6.157-22.698-11.364-35.098-15.449s-24.914-6.876-37.399-8.429c-43.585-5.437-86.766 4.056-123.303 25.317-40.132 23.361-72.238 60.962-87.888 108.547-34.033 103.281 22.123 214.619 125.403 248.625z" fill="#375e7d" fill-rule="evenodd"/></g><g><path clip-rule="evenodd" d="m363.049 160.662c-80.495-26.525-167.232 17.262-193.757 97.759-26.496 80.497 17.261 167.237 97.756 193.734 80.495 26.525 167.232-17.233 193.757-97.73l.086-.288c26.323-80.411-17.434-167.007-97.842-193.475z" fill="#eff6ff" fill-rule="evenodd"/></g><g><path clip-rule="evenodd" d="m363.049 160.662-39.989 121.407c-4.632 14.04 4.287 27.273 16.139 31.992l121.692 40.076c26.323-80.411-17.434-167.007-97.842-193.475z" fill="#eb5468" fill-rule="evenodd"/></g><g><path clip-rule="evenodd" d="m460.891 354.137c23.073-70.485-7.71-145.717-69.793-181.046 10.903 32.538 16.916 68.327 16.916 105.9 0 19.276-1.582 38.091-4.603 56.216z" fill="#e5384f" fill-rule="evenodd"/></g><g><path clip-rule="evenodd" d="m502.059 368.004c29.948-90.883-9.954-187.98-90.334-233.176-8.055-4.546-16.542-8.545-25.403-11.968-3.193-1.237-6.415-2.388-9.695-3.481-3.855-1.266-7.71-2.417-11.594-3.424 10.414 17.492 19.217 36.681 26.064 57.136 62.083 35.329 92.865 110.561 69.793 181.046-.029.086-.058.173-.086.288-16.484 50.001-56.185 85.819-103.193 99.427-12.629 18.93-27.244 35.617-43.469 49.512 83.055.403 160.529-52.188 187.917-135.36z" fill="#2b4d66" fill-rule="evenodd"/></g><g><path clip-rule="evenodd" d="m357.611 453.852c47.008-13.608 86.709-49.426 103.193-99.427l.086-.288-57.48-18.93c-5.351 32.193-15.19 62.257-28.654 89.099-5.206 10.357-10.931 20.225-17.145 29.546z" fill="#d9eeff" fill-rule="evenodd"/></g><g><path clip-rule="evenodd" d="m411.725 134.827 15.679-47.613-9.292-3.05-17.175-5.668-14.615 44.363c8.861 3.424 17.348 7.423 25.403 11.968z" fill="#d9eeff" fill-rule="evenodd"/></g><g><path d="m267.221 459.25c-.789 0-1.592-.124-2.383-.385-3.993-1.315-6.164-5.618-4.847-9.611l8.199-24.886c1.314-3.993 5.613-6.165 9.611-4.847 3.993 1.315 6.164 5.618 4.847 9.611l-8.199 24.886c-1.055 3.203-4.031 5.232-7.228 5.232z" fill="#375e7d"/></g><g><path d="m194.523 274.033c-.79 0-1.594-.124-2.386-.386l-24.856-8.2c-3.992-1.316-6.161-5.62-4.843-9.613 1.316-3.991 5.615-6.165 9.613-4.843l24.856 8.2c3.992 1.316 6.161 5.62 4.843 9.613-1.056 3.2-4.031 5.229-7.227 5.229z" fill="#375e7d"/></g><g><path d="m257.963 200.382c-2.78 0-5.459-1.529-6.799-4.179l-11.825-23.39c-1.897-3.751-.392-8.33 3.359-10.227 3.752-1.894 8.331-.392 10.227 3.359l11.825 23.39c1.897 3.751.392 8.33-3.359 10.227-1.101.556-2.273.82-3.428.82z" fill="#375e7d"/></g><g><path d="m384.142 450.504c-2.783 0-5.464-1.532-6.802-4.186l-11.795-23.39c-1.893-3.753-.385-8.331 3.369-10.223 3.752-1.894 8.33-.386 10.223 3.369l11.795 23.39c1.893 3.753.385 8.331-3.369 10.223-1.099.554-2.269.817-3.421.817z" fill="#375e7d"/></g><g><path d="m178.388 382.753c-2.783 0-5.464-1.532-6.802-4.186-1.893-3.753-.385-8.33 3.369-10.223l23.39-11.796c3.752-1.896 8.331-.386 10.223 3.369 1.893 3.753.385 8.33-3.369 10.223l-23.39 11.796c-1.099.554-2.268.817-3.421.817z" fill="#375e7d"/></g><g><path d="m294.375 297.363c-1.831 0-3.666-.656-5.126-1.986l-55.265-50.376c-3.106-2.833-3.329-7.646-.498-10.753 2.832-3.107 7.645-3.329 10.753-.498l55.265 50.376c3.106 2.833 3.329 7.646.497 10.753-1.5 1.647-3.559 2.484-5.626 2.484z" fill="#375e7d"/></g><g><path d="m321.611 367.734c-3.809 0-7.097-2.853-7.55-6.729l-3.337-28.568c-.488-4.175 2.501-7.955 6.677-8.443 4.16-.481 7.955 2.5 8.443 6.677l3.337 28.568c.488 4.175-2.501 7.955-6.677 8.443-.299.034-.597.052-.893.052z" fill="#375e7d"/></g><g><path d="m315.23 467.556c-16.958 0-33.99-2.711-50.565-8.172-84.342-27.763-130.371-118.982-102.603-203.341 13.466-40.868 42.034-74.048 80.44-93.429 38.413-19.384 82.07-22.643 122.929-9.179 84.176 27.709 130.242 118.751 102.724 202.98l-.059.199c-.02.065-.04.13-.061.195-13.465 40.863-42.033 74.038-80.441 93.412-22.831 11.513-47.517 17.335-72.364 17.335zm-.331-307.062c-22.506 0-44.859 5.274-65.538 15.709-34.778 17.55-60.646 47.595-72.84 84.6-25.143 76.385 16.534 158.982 92.906 184.121 37.001 12.193 76.531 9.246 111.31-8.297 34.748-17.528 60.602-47.53 72.808-84.49l.056-.187c.018-.06.037-.121.056-.18 24.974-76.292-16.74-158.778-92.988-183.878-.001 0-.002-.001-.003-.001-15-4.943-30.419-7.397-45.767-7.397zm145.906 193.93h.01z" fill="#ffc250"/></g><g><path clip-rule="evenodd" d="m323.06 282.069c-13.291-4.373-27.618 2.848-31.991 16.14-4.373 13.291 2.848 27.619 16.139 31.992s27.618-2.848 31.991-16.14c4.373-13.291-2.848-27.619-16.139-31.992z" fill="#ffe07d" fill-rule="evenodd"/></g><g><path clip-rule="evenodd" d="m339.199 314.061c4.373-13.291-2.848-27.619-16.139-31.992-6.933-2.273-14.154-1.41-20.109 1.841 12.284 4.948 18.786 18.671 14.586 31.445-2.1 6.329-6.444 11.306-11.881 14.298.518.201 1.036.374 1.553.547 13.291 4.374 27.618-2.847 31.99-16.139z" fill="#ffe07d" fill-rule="evenodd"/></g></g></svg>