<svg id="Capa_1" enable-background="new 0 0 512 512" height="512" viewBox="0 0 512 512" width="512" xmlns="http://www.w3.org/2000/svg"><g><g><path clip-rule="evenodd" d="m447.463 230.126c-3.708-120.345-102.44-216.773-223.687-216.773-123.584 0-223.776 100.195-223.776 223.782 0 121.864 97.389 220.978 218.578 223.723 21.493 5.169 97.418-26.896 93.797-43.98l129.891-159.886z" fill="#95d6a4" fill-rule="evenodd"/></g><g><path clip-rule="evenodd" d="m397.119 196.66c-18.339-78.79-88.979-137.517-173.343-137.517-98.294 0-177.987 79.695-177.987 177.991s79.692 177.991 177.987 177.991c15.273 0 30.078-1.927 44.212-5.549 146.068 8.792 127.028-220.597 129.131-212.916z" fill="#eff6ff" fill-rule="evenodd"/></g><g><path clip-rule="evenodd" d="m397.119 196.66c-14.397-61.91-61.091-111.438-121.364-129.807 33.699 43.571 54.082 100.195 54.082 162.076 0 6.279-.234 12.528-.642 18.69 7.184-6.366 15.477-11.448 24.588-14.923v-12.878c0-15.331 12.557-27.86 27.888-27.86 5.636 0 10.922 1.694 15.302 4.614.029-.146.088-.117.146.088z" fill="#d9eeff" fill-rule="evenodd"/></g><g><path clip-rule="evenodd" d="m275.755 66.853c60.273 18.369 106.967 67.897 121.364 129.807 7.476 5.023 12.411 13.55 12.411 23.158v12.878c8.177 3.125 15.711 7.534 22.34 13.024l15.594-15.594c-3.709-120.345-102.441-216.773-223.688-216.773-1.957 0-3.942.029-5.899.058 21.93 14.135 41.467 32.241 57.878 53.442z" fill="#78c2a4" fill-rule="evenodd"/></g><g><path d="m211.747 217.675c-3.025 0-5.897-1.789-7.135-4.756l-31.684-76.015c-1.642-3.939.22-8.463 4.159-10.105 3.94-1.638 8.462.22 10.105 4.159l31.684 76.015c1.642 3.939-.22 8.463-4.159 10.105-.972.405-1.979.597-2.97.597z" fill="#2b4d66"/></g><g><path d="m290.59 244.54h-37.407c-4.268 0-7.726-3.459-7.726-7.726 0-4.268 3.459-7.726 7.726-7.726h37.407c4.268 0 7.726 3.459 7.726 7.726s-3.459 7.726-7.726 7.726z" fill="#2b4d66"/></g><path d="m404.644 194.908c-9.347-40.16-32.288-76.588-64.595-102.573-32.806-26.386-74.099-40.918-116.274-40.918-102.402 0-185.713 83.313-185.713 185.717 0 102.405 83.311 185.718 185.713 185.718 15.614 0 31.134-1.949 46.13-5.791 4.134-1.059 16.514-18.628 15.455-22.761-6.954 3.992-15.154 6.737-19.29 7.791-11.268 2.888-22.865 4.588-34.568 5.114v-23.123c0-4.268-3.459-7.726-7.726-7.726s-7.726 3.459-7.726 7.726v23.134c-41.211-1.85-78.653-18.415-107.187-44.561l16.242-16.243c3.017-3.017 3.017-7.909-.001-10.927-3.016-3.016-7.908-3.017-10.927.001l-16.229 16.23c-26.035-28.567-42.49-66.001-44.262-107.178h22.823c4.268 0 7.726-3.459 7.726-7.726 0-4.268-3.459-7.726-7.726-7.726h-22.799c1.922-41.085 18.47-78.407 44.547-106.868l15.92 15.92c1.509 1.508 3.487 2.263 5.464 2.263s3.955-.755 5.464-2.263c3.017-3.018 3.017-7.909 0-10.928l-15.909-15.909c28.491-25.965 65.804-42.405 106.853-44.248v22.49c0 4.268 3.459 7.726 7.726 7.726s7.726-3.459 7.726-7.726v-22.5c40.912 1.809 78.405 17.925 107.069 44.044l-16.124 16.125c-3.017 3.017-3.017 7.909.001 10.927 1.508 1.508 3.486 2.263 5.463 2.263s3.955-.755 5.464-2.264l16.131-16.132c19.174 20.985 33.247 47.01 40.089 76.404.967 4.157 11.104 22.325 15.253 21.36 4.156-.966.765-20.706-.203-24.862z" fill="#2b4d66"/><g><path clip-rule="evenodd" d="m381.671 498.647c15.652 0 28.501-12.82 28.501-28.502v-9.199l-32.736-19.332-24.267 19.332v9.199c.001 15.682 12.821 28.502 28.502 28.502z" fill="#ffe07d" fill-rule="evenodd"/></g><g><path clip-rule="evenodd" d="m409.53 232.696v-12.878c0-9.608-4.935-18.135-12.411-23.158-4.439-2.979-9.753-4.702-15.448-4.702-15.331 0-27.888 12.528-27.888 27.86v12.878c16.47 6.95 36.678 5.724 55.747 0z" fill="#faf0b0" fill-rule="evenodd"/></g><g><path clip-rule="evenodd" d="m379.802 202.033c7.476 5.023 12.411 13.55 12.411 23.158v3.125c1.46.204 2.92.438 4.351.701 4.468.876 8.79 2.103 12.966 3.68v-12.878c0-9.608-4.935-18.135-12.411-23.158-.029-.029-.088-.058-.146-.088-4.38-2.92-9.666-4.614-15.302-4.614-6.132 0-11.827 1.986-16.441 5.373 5.374.175 10.367 1.868 14.572 4.701z" fill="#ffe07d" fill-rule="evenodd"/></g><g><path clip-rule="evenodd" d="m288.341 389.253 81.532-64.305 61.996-79.227c-6.629-5.49-14.163-9.9-22.34-13.024-8.673-3.271-18.076-5.081-27.859-5.081-9.812 0-19.215 1.811-27.888 5.081-29.874 11.36-51.279 40.329-51.279 74.058v36.066c.001 15.681-4.525 30.983-14.162 46.432z" fill="#ffe07d" fill-rule="evenodd"/></g><g><path clip-rule="evenodd" d="m306.972 422.281h196.092c-29.056-27.071-42.255-52.74-42.255-79.461v-36.066c0-11.243-2.395-21.961-6.658-31.656l-76.714 56.975z" fill="#ffe07d" fill-rule="evenodd"/></g><g><path clip-rule="evenodd" d="m353.17 460.946h57.002 82.934c5.49 0 9.958-4.497 9.958-9.958v-28.706h-196.092l-38.664 15.332v23.333h84.862z" fill="#faf0b0" fill-rule="evenodd"/></g><g><path clip-rule="evenodd" d="m306.972 422.281 147.178-147.182 52.505-52.536c7.125-7.096 7.125-18.719 0-25.815-7.096-7.096-18.719-7.096-25.815 0l-33.378 33.379-15.594 15.594-143.527 143.532-20.354 20.325-45.555 45.586c-1.694 1.694-2.979 3.621-3.855 5.695-2.833 6.687-1.548 14.718 3.855 20.121 7.096 7.125 18.719 7.125 25.815 0l20.062-20.033z" fill="#eb5468" fill-rule="evenodd"/></g><g><path clip-rule="evenodd" d="m377.641 227.702c6.366 6.979 12.177 15.507 17.288 25.319 3.3 6.366 6.308 13.287 8.994 20.646l27.946-27.947c-6.629-5.49-14.163-9.9-22.34-13.024-4.176-1.577-8.498-2.803-12.966-3.68-1.431-.263-2.891-.496-4.351-.701-3.446-.467-6.979-.701-10.542-.701-1.371.001-2.715.03-4.029.088z" fill="#ffc250" fill-rule="evenodd"/></g><g><path clip-rule="evenodd" d="m444.923 422.281v28.706c0 5.461-4.497 9.958-9.987 9.958h58.171c5.49 0 9.958-4.497 9.958-9.958v-28.706z" fill="#ffe07d" fill-rule="evenodd"/></g><g><path clip-rule="evenodd" d="m424.481 366.737c0 18.748 6.512 36.971 20.441 55.544h58.141c-29.056-27.071-42.255-52.74-42.255-79.461v-36.066c0-11.243-2.395-21.961-6.658-31.656l-32.969 32.97c2.132 7.155 3.3 14.747 3.3 22.603z" fill="#ffc250" fill-rule="evenodd"/></g><g><path clip-rule="evenodd" d="m234.697 466.348c-4.672 4.672-11.33 6.249-17.346 4.789.613 3.592 2.307 7.067 5.081 9.841 7.096 7.125 18.719 7.125 25.815 0l40.854-40.826 17.872-17.872 5.402-5.403 108.807-108.81 32.969-32.97 52.505-52.536c7.125-7.096 7.125-18.719 0-25.815-2.424-2.424-5.373-4.03-8.469-4.789.934 5.636-.759 11.623-5.081 15.945-86.146 86.149-172.263 172.298-258.409 258.446z" fill="#e5384f" fill-rule="evenodd"/></g><g><path clip-rule="evenodd" d="m393.44 466.027c0 15.039-11.827 27.451-26.632 28.444 4.351 2.657 9.432 4.176 14.864 4.176 15.652 0 28.501-12.82 28.501-28.502v-9.199h-16.733z" fill="#ffc250" fill-rule="evenodd"/></g><g><path clip-rule="evenodd" d="m223.776 266.192c16.236 0 29.406-13.141 29.406-29.378s-13.17-29.378-29.406-29.378-29.377 13.141-29.377 29.378c-.001 16.237 13.14 29.378 29.377 29.378z" fill="#ffe07d" fill-rule="evenodd"/></g><g><path clip-rule="evenodd" d="m229.149 237.398c0 11.681-6.833 21.785-16.733 26.516 3.504 1.489 7.33 2.278 11.36 2.278 16.236 0 29.406-13.141 29.406-29.378s-13.17-29.378-29.406-29.378c-4.526 0-8.819 1.022-12.645 2.833 10.571 4.467 18.018 14.922 18.018 27.129z" fill="#ffc250" fill-rule="evenodd"/></g></g></svg>