<svg id="Capa_1" enable-background="new 0 0 512 512" height="512" viewBox="0 0 512 512" width="512" xmlns="http://www.w3.org/2000/svg"><g><g><path clip-rule="evenodd" d="m381.569 144.868-35.153-14.873-38.461-16.254c-6.588-2.762-14.24.345-17.001 6.904l-15.419 36.477c-27.501-2.704-56.067.949-83.481 11.91-12.6 4.143-25.372 12.255-32.996 17.347-65.818 44.015-95.592 127.815-69.587 204.768l99.159 107.016c18.411 7.825 38.116 12.543 58.282 13.837h22.582c18.612-1.208 37.368-5.351 55.578-12.773 91.105-36.966 134.974-140.789 98.009-231.867-11.248-27.674-28.652-51.005-50.026-69.014l15.419-36.477c2.79-6.587-.317-14.211-6.905-17.001z" fill="#375e7d" fill-rule="evenodd"/></g><g><path clip-rule="evenodd" d="m387.035 281.974c-13.377-32.968-39.353-60.872-74.736-75.803-35.383-14.959-73.499-14.154-106.466-.777-32.996 13.406-60.871 39.383-75.829 74.767-12.283 29.026-13.923 59.894-6.731 88.288 7.825 48.445 45.509 75.716 90.558 97.724 32.535 10.96 66.682 9.177 96.628-2.963 32.996-13.377 60.871-39.354 75.829-74.738 14.958-35.413 14.153-73.501.747-106.498z" fill="#eff6ff" fill-rule="evenodd"/></g><g><path d="m310.46 470.828c-3.009 0-5.86-1.795-7.061-4.755l-12.427-30.637c-1.581-3.899.297-8.341 4.196-9.922 3.897-1.58 8.34.298 9.921 4.195l12.427 30.637c1.581 3.899-.297 8.341-4.196 9.922-.937.38-1.906.56-2.86.56z" fill="#375e7d"/></g><g><path d="m160.435 300.64c-.988 0-1.993-.193-2.961-.603l-30.435-12.859c-3.875-1.636-5.689-6.105-4.052-9.98s6.105-5.692 9.981-4.051l30.435 12.859c3.875 1.636 5.689 6.105 4.052 9.98-1.228 2.906-4.05 4.654-7.02 4.654z" fill="#375e7d"/></g><g><path d="m218.263 243.651c-3.009 0-5.86-1.795-7.061-4.755l-12.427-30.637c-1.581-3.899.297-8.341 4.196-9.922 3.896-1.579 8.339.298 9.921 4.195l12.427 30.637c1.581 3.899-.297 8.341-4.196 9.922-.937.38-1.907.56-2.86.56z" fill="#375e7d"/></g><g><path d="m346.419 137.613c-3.012 0-19.929 2.964-21.128 0-1.577-3.899 14.37-13.102 18.269-14.679 4.745-1.92 8.453-5.567 10.441-10.267 1.99-4.708 2.022-9.918.089-14.67-7.113-17.58 1.387-37.68 18.943-44.82 3.896-1.587 8.341.289 9.925 4.186 1.585 3.897-.289 8.34-4.186 9.925-9.789 3.981-14.529 15.189-10.566 24.983 3.462 8.513 3.402 17.869-.175 26.328-3.575 8.453-10.236 15.007-18.758 18.455-.936.38-1.903.559-2.854.559z" fill="#d9eeff"/></g><g><path d="m273.464 327.449c-1.974 0-3.945-.762-5.437-2.282-2.947-3.002-2.901-7.825.101-10.771l46.286-45.424c3.003-2.948 7.825-2.903 10.771.101 2.947 3.002 2.901 7.825-.101 10.771l-46.286 45.424c-1.482 1.456-3.409 2.181-5.334 2.181z" fill="#2b4d66"/></g><g><path d="m238.71 333.723c-.99 0-1.995-.194-2.964-.604l-28.422-12.025c-3.874-1.639-5.686-6.108-4.047-9.983 1.64-3.874 6.108-5.684 9.983-4.046l28.422 12.025c3.874 1.639 5.686 6.108 4.047 9.983-1.23 2.904-4.051 4.65-7.019 4.65z" fill="#2b4d66"/></g><g><path d="m386.599 39.401c-1.042 0-2.102-.215-3.114-.669-3.838-1.723-5.553-6.23-3.83-10.068l10.845-24.166c1.722-3.836 6.231-5.55 10.067-3.83 3.838 1.723 5.553 6.23 3.83 10.068l-10.845 24.165c-1.267 2.825-4.045 4.5-6.953 4.5z" fill="#eb5468"/></g><g><path d="m407.404 66.011c-3.072 0-5.966-1.871-7.122-4.914-1.494-3.932.483-8.332 4.416-9.825l24.768-9.407c3.935-1.491 8.331.484 9.825 4.416s-.483 8.332-4.416 9.825l-24.768 9.407c-.89.338-1.805.498-2.703.498z" fill="#eb5468"/></g><g><path d="m352.891 41.53c-3.069 0-5.961-1.868-7.119-4.907l-9.436-24.769c-1.498-3.931.476-8.332 4.406-9.829 3.931-1.499 8.332.476 9.829 4.406l9.436 24.769c1.498 3.931-.476 8.332-4.406 9.829-.892.34-1.809.501-2.71.501z" fill="#eb5468"/></g><g><path clip-rule="evenodd" d="m238.713 326.104c4.545-10.73 16.915-15.765 27.645-11.219 2.762 1.18 5.178 2.877 7.105 4.948 5.581 5.897 7.451 14.729 4.085 22.669-4.516 10.73-16.886 15.765-27.616 11.219-10.73-4.517-15.735-16.887-11.219-27.617z" fill="#ffe07d" fill-rule="evenodd"/></g><g><path clip-rule="evenodd" d="m346.416 129.995-38.461-16.254c-2.79-1.179-5.782-1.295-8.515-.518 15.304 30.177 27.098 65.533 34.319 104.283 24.481 15.822 42.776 38.577 53.276 64.468 13.405 32.996 14.211 71.085-.748 106.498-14.038 33.198-39.439 58.111-69.788 72.12-6.127 17.146-13.262 33.14-21.259 47.841 10.04-2.158 20.022-5.207 29.831-9.206 91.105-36.966 134.974-140.789 98.009-231.867-11.248-27.674-28.652-51.005-50.026-69.014l15.419-36.477c2.79-6.588-.316-14.211-6.904-17.002z" fill="#2b4d66" fill-rule="evenodd"/></g><g><path clip-rule="evenodd" d="m387.035 281.974c-10.5-25.891-28.796-48.646-53.276-64.468 5.264 28.192 8.083 58.197 8.083 89.323 0 56.212-9.263 108.828-25.344 153.763 30.349-14.01 55.75-38.923 69.788-72.12 14.96-35.413 14.155-73.501.749-106.498z" fill="#d9eeff" fill-rule="evenodd"/></g><g><path d="m299.408 244.226c-.99 0-1.997-.194-2.966-.605-3.874-1.64-5.684-6.11-4.044-9.984l12.887-30.436c1.64-3.873 6.111-5.684 9.984-4.043 3.874 1.64 5.684 6.11 4.044 9.984l-12.887 30.436c-1.23 2.904-4.051 4.648-7.018 4.648z" fill="#375e7d"/></g><g><path d="m386.284 396.09c-.99 0-1.995-.194-2.964-.604l-30.464-12.888c-3.874-1.639-5.686-6.108-4.047-9.982 1.639-3.875 6.108-5.684 9.983-4.047l30.464 12.888c3.874 1.639 5.686 6.108 4.047 9.982-1.23 2.906-4.052 4.651-7.019 4.651z" fill="#375e7d"/></g><g><path d="m356.401 302.049c-3.007 0-5.856-1.792-7.058-4.751-1.584-3.897.291-8.34 4.187-9.925l30.637-12.455c3.897-1.584 8.34.29 9.925 4.188 1.584 3.897-.291 8.34-4.187 9.925l-30.637 12.455c-.94.382-1.912.563-2.867.563z" fill="#375e7d"/></g><g><path d="m258.14 481.075c-15.748 0-31.52-2.552-46.743-7.684-3.986-1.345-6.128-5.665-4.784-9.652 1.343-3.986 5.666-6.128 9.651-4.784 64.759 21.836 136.362-10.429 163.008-73.45 28.207-66.813-3.166-144.115-69.936-172.317-32.354-13.679-68.097-13.934-100.649-.721-32.551 13.212-58.003 38.306-71.666 70.658-11.256 26.599-13.456 55.456-6.365 83.455 1.033 4.078-1.436 8.222-5.514 9.254-4.077 1.029-8.221-1.435-9.254-5.513-7.914-31.246-5.459-63.449 7.1-93.127 15.246-36.097 43.646-64.098 79.968-78.842 36.323-14.744 76.208-14.457 112.307.804 74.505 31.469 109.514 117.725 78.039 192.278-14.51 34.316-41.218 61.586-75.205 76.791-19.103 8.546-39.508 12.85-59.957 12.85z" fill="#ffe07d"/></g><g><path clip-rule="evenodd" d="m145.71 364.94c40.619 0 73.528 32.939 73.528 73.53 0 9.81-1.927 19.159-5.408 27.703-5.236 12.917-14.038 23.963-25.2 31.99-12.025 8.659-26.753 13.78-42.69 13.837h-.23-.201c-40.504-.115-73.298-32.996-73.298-73.53 0-18.037 6.473-34.55 17.26-47.323 8.803-10.471 20.482-18.44 33.801-22.698 7.077-2.272 14.614-3.509 22.438-3.509z" fill="#eb5468" fill-rule="evenodd"/></g><g><path d="m145.768 481.672h-.115c-4.207 0-7.617-3.41-7.617-7.617s3.41-7.617 7.617-7.617h.115c4.207 0 7.617 3.41 7.617 7.617-.001 4.208-3.411 7.617-7.617 7.617z" fill="#eff6ff"/></g><g><path d="m145.653 449.712c-.008 0-.015 0-.023 0-4.207-.012-7.607-3.432-7.594-7.64l.115-39.21c.012-4.198 3.42-7.594 7.616-7.594h.023c4.207.012 7.607 3.432 7.594 7.64l-.115 39.21c-.012 4.198-3.42 7.594-7.616 7.594z" fill="#eff6ff"/></g><g><path clip-rule="evenodd" d="m127.616 367.213c28.393 10.155 48.702 37.312 48.702 69.215 0 2.733-.144 5.437-.46 8.084-1.553 14.326-7.249 27.444-15.851 38.088-9.838 12.169-23.474 21.144-39.094 25.114 7.681 2.733 15.966 4.258 24.596 4.286h.201.23c15.937-.058 30.665-5.178 42.69-13.837 11.162-8.026 19.964-19.073 25.2-31.99 3.481-8.544 5.408-17.893 5.408-27.703 0-40.591-32.909-73.53-73.528-73.53-6.242 0-12.312.777-18.094 2.273z" fill="#e5384f" fill-rule="evenodd"/></g></g></svg>