<svg id="Capa_1" enable-background="new 0 0 512 512" height="512" viewBox="0 0 512 512" width="512" xmlns="http://www.w3.org/2000/svg"><g><g><path clip-rule="evenodd" d="m406.684 287.31v-158.635h-398.475v243.941c0 12.796 10.459 23.255 23.254 23.255l266.605.058 74.67-39.06z" fill="#eff6ff" fill-rule="evenodd"/></g><g><path clip-rule="evenodd" d="m406.684 138.988h-124.947c10.488 25.066 16.33 52.966 16.33 82.327 0 42.157-12.036 81.246-32.544 113.352-16.272 25.446-37.832 46.48-62.956 61.234l95.5.029c58.866-58.867 58.749-58.75 108.617-108.62z" fill="#d9eeff" fill-rule="evenodd"/></g><g><path clip-rule="evenodd" d="m365.318 328.649-22.436 22.437-44.814 44.844-24.16 24.16 6.193 17.354 17.733 6.602 93.776-79.697 65.439-79.522-3.652-22.787-20.303-1.14-26.41 26.41z" fill="#ffe07d" fill-rule="evenodd"/></g><g><path clip-rule="evenodd" d="m457.049 284.827-159.215 159.219-.38 18.522 24.335 5.405 159.186-159.19-4.996-19.048z" fill="#ffc250" fill-rule="evenodd"/></g><g><path d="m297.834 451.773c-1.977 0-3.955-.755-5.463-2.263-3.018-3.018-3.018-7.909 0-10.928l159.215-159.219c3.017-3.016 7.909-3.016 10.927 0 3.018 3.018 3.018 7.909 0 10.928l-159.216 159.219c-1.508 1.508-3.486 2.263-5.463 2.263z" fill="#c38c66"/></g><g><path clip-rule="evenodd" d="m8.209 138.988h398.475c4.528 0 8.238-3.681 8.238-8.209v-25.563l-217.291-15.484-197.631 15.484v25.563c0 4.528 3.681 8.209 8.209 8.209z" fill="#9fd4fe" fill-rule="evenodd"/></g><g><path clip-rule="evenodd" d="m0 105.216h414.923v-53.17c0-4.528-3.71-8.209-8.238-8.209-136.633 0-261.843 0-398.475 0-4.529-.001-8.21 3.68-8.21 8.209z" fill="#eb5468" fill-rule="evenodd"/></g><g><path clip-rule="evenodd" d="m61.436 70.685c10.4 0 18.901-8.501 18.901-18.873v-7.976-22.991c0-10.4-8.501-18.873-18.901-18.873-10.371 0-18.872 8.472-18.872 18.873v22.992 7.976c0 10.37 8.502 18.872 18.872 18.872z" fill="#ffe07d" fill-rule="evenodd"/></g><g><path clip-rule="evenodd" d="m139.905 20.845v22.992 7.976c0 10.371 8.501 18.873 18.872 18.873 10.4 0 18.872-8.501 18.872-18.873v-7.976-22.992c0-10.4-8.472-18.873-18.872-18.873-10.371 0-18.872 8.472-18.872 18.873z" fill="#ffe07d" fill-rule="evenodd"/></g><g><path clip-rule="evenodd" d="m237.245 20.845v22.992 7.976c0 10.371 8.501 18.873 18.872 18.873s18.872-8.501 18.872-18.873v-7.976-22.992c0-10.4-8.501-18.873-18.872-18.873s-18.872 8.472-18.872 18.873z" fill="#ffe07d" fill-rule="evenodd"/></g><g><path clip-rule="evenodd" d="m334.585 20.845v22.992 7.976c0 10.371 8.472 18.873 18.872 18.873 10.371 0 18.872-8.501 18.872-18.873v-7.976-22.992c0-10.4-8.501-18.873-18.872-18.873-10.4 0-18.872 8.472-18.872 18.873z" fill="#ffe07d" fill-rule="evenodd"/></g><g><path clip-rule="evenodd" d="m457.049 284.827 23.926 23.956 26.643-26.644c2.863-2.834 4.324-6.602 4.382-10.371v-.497c-.058-3.769-1.519-7.508-4.382-10.371l-26.643-26.644c-5.843-5.843-15.396-5.843-21.238 0l-26.643 26.644z" fill="#eb5468" fill-rule="evenodd"/></g><g><path clip-rule="evenodd" d="m323.396 138.988h83.288c4.528 0 8.238-3.681 8.238-8.209v-25.563h-95.178c2.075 10.956 3.302 22.232 3.652 33.772z" fill="#85beef" fill-rule="evenodd"/></g><g><path clip-rule="evenodd" d="m319.744 105.216h95.178v-53.17c0-4.528-3.71-8.209-8.238-8.209h-34.355v7.976c0 10.371-8.501 18.873-18.872 18.873-10.4 0-18.872-8.501-18.872-18.873v-7.976h-36.78c10.254 18.668 17.762 39.351 21.939 61.379z" fill="#e5384f" fill-rule="evenodd"/></g><g><path clip-rule="evenodd" d="m463.856 291.663 17.119 17.12 26.643-26.644c2.863-2.834 4.324-6.602 4.382-10.371v-.497c-.058-3.769-1.519-7.508-4.382-10.371l-17.061-17.061c2.805 2.863 4.236 6.573 4.294 10.313v.497c-.058 3.769-1.519 7.508-4.382 10.371z" fill="#e5384f" fill-rule="evenodd"/></g><g><path clip-rule="evenodd" d="m80.338 20.845c0-10.4-8.501-18.873-18.901-18.873-3.798 0-7.333 1.139-10.312 3.097 5.551 3.272 9.319 9.349 9.319 16.243v22.524.467 7.976c0 6.573-3.418 12.387-8.56 15.776 2.805 1.665 6.076 2.629 9.553 2.629 10.4 0 18.901-8.501 18.901-18.873v-7.976z" fill="#ffc250" fill-rule="evenodd"/></g><g><path clip-rule="evenodd" d="m148.464 5.069c5.551 3.272 9.29 9.349 9.29 16.243v22.524.467 7.976c0 6.573-3.389 12.387-8.53 15.776 2.805 1.665 6.076 2.629 9.553 2.629 10.4 0 18.872-8.501 18.872-18.873v-7.976-22.99c0-10.4-8.472-18.873-18.872-18.873-3.798 0-7.333 1.139-10.313 3.097z" fill="#ffc250" fill-rule="evenodd"/></g><g><path clip-rule="evenodd" d="m245.804 5.069c5.551 3.272 9.29 9.349 9.29 16.243v22.524.467 7.976c0 6.573-3.418 12.387-8.56 15.776 2.834 1.665 6.106 2.629 9.582 2.629 10.371 0 18.872-8.501 18.872-18.873v-7.976-22.99c0-10.4-8.501-18.873-18.872-18.873-3.797 0-7.361 1.139-10.312 3.097z" fill="#ffc250" fill-rule="evenodd"/></g><g><path clip-rule="evenodd" d="m352.435 21.312v22.524.467 7.976c0 6.573-3.418 12.387-8.56 15.776 2.805 1.665 6.076 2.629 9.582 2.629 10.371 0 18.872-8.501 18.872-18.873v-7.976-22.99c0-10.4-8.501-18.873-18.872-18.873-3.798 0-7.362 1.139-10.312 3.097 5.55 3.272 9.29 9.348 9.29 16.243z" fill="#ffc250" fill-rule="evenodd"/></g><g><path clip-rule="evenodd" d="m365.318 328.649v-26.614c0-6.106-4.966-11.072-11.043-11.072h-32.34c-6.076 0-11.043 4.966-11.043 11.072v38.008c0 6.077 4.966 11.043 11.043 11.043h20.946z" fill="#78c2a4" fill-rule="evenodd"/></g><g><path clip-rule="evenodd" d="m310.893 193.707v38.037c0 6.077 4.966 11.043 11.043 11.043h32.34c6.076 0 11.043-4.966 11.043-11.043v-38.037c0-6.077-4.966-11.043-11.043-11.043h-32.34c-6.077 0-11.043 4.966-11.043 11.043z" fill="#78c2a4" fill-rule="evenodd"/></g><g><path d="m279.05 355.949c-1.978 0-3.956-.755-5.465-2.265l-21.704-21.716-21.704 21.716c-3.017 3.019-7.909 3.02-10.927.003-3.018-3.016-3.02-7.908-.003-10.927l21.71-21.722-21.71-21.722c-3.017-3.018-3.015-7.91.003-10.927 3.019-3.018 7.91-3.015 10.927.003l21.704 21.716 21.704-21.716c3.016-3.02 7.908-3.021 10.927-.003 3.018 3.016 3.02 7.908.003 10.927l-21.71 21.722 21.71 21.722c3.017 3.018 3.015 7.91-.003 10.927-1.509 1.508-3.486 2.262-5.462 2.262z" fill="#eb5468"/></g><g><path d="m106.601 355.949c-1.977 0-3.955-.755-5.463-2.263l-21.72-21.721-21.72 21.721c-3.017 3.016-7.909 3.016-10.927 0-3.018-3.018-3.018-7.909 0-10.927l21.72-21.721-21.72-21.721c-3.018-3.017-3.018-7.908 0-10.927 3.018-3.016 7.91-3.016 10.927 0l21.72 21.721 21.72-21.721c3.017-3.016 7.909-3.016 10.927 0 3.018 3.018 3.018 7.909 0 10.927l-21.72 21.721 21.72 21.721c3.018 3.017 3.018 7.908 0 10.927-1.509 1.508-3.487 2.263-5.464 2.263z" fill="#eb5468"/></g><g><path clip-rule="evenodd" d="m192.869 340.043v-38.008c0-6.106-4.966-11.072-11.043-11.072h-32.34c-6.076 0-11.043 4.966-11.043 11.072v38.008c0 6.077 4.966 11.043 11.043 11.043h32.34c6.077 0 11.043-4.967 11.043-11.043z" fill="#95d6a4" fill-rule="evenodd"/></g><g><path clip-rule="evenodd" d="m95.587 242.787c6.076 0 11.072-4.966 11.072-11.043v-38.037c0-6.077-4.996-11.043-11.072-11.043h-32.34c-6.076 0-11.043 4.966-11.043 11.043v38.037c0 6.077 4.966 11.043 11.043 11.043z" fill="#95d6a4" fill-rule="evenodd"/></g><g><path clip-rule="evenodd" d="m138.415 193.707v38.037c0 6.077 4.996 11.043 11.072 11.043h32.34c6.076 0 11.043-4.966 11.043-11.043v-38.037c0-6.077-4.966-11.043-11.043-11.043h-32.34c-6.077 0-11.072 4.966-11.072 11.043z" fill="#95d6a4" fill-rule="evenodd"/></g><g><path clip-rule="evenodd" d="m224.654 193.707v38.037c0 6.077 4.966 11.043 11.072 11.043h32.31c6.106 0 11.072-4.966 11.072-11.043v-38.037c0-6.077-4.966-11.043-11.072-11.043h-32.31c-6.106 0-11.072 4.966-11.072 11.043z" fill="#95d6a4" fill-rule="evenodd"/></g><g><path clip-rule="evenodd" d="m284.22 486.787-2.629-24.394-26.497-4.733-22.874 45.779c-1.402 4.879 1.344 7.625 6.223 6.223z" fill="#375e7d" fill-rule="evenodd"/></g><g><path clip-rule="evenodd" d="m284.22 486.787-17.148-17.149-23.955 11.978-10.897 21.823c-1.402 4.879 1.344 7.625 6.223 6.223z" fill="#2b4d66" fill-rule="evenodd"/></g><g><path clip-rule="evenodd" d="m297.834 444.046-13.906-13.935-10.02-10.021-18.814 37.57 29.126 29.127 37.569-18.814z" fill="#ffe5c1" fill-rule="evenodd"/></g><g><path clip-rule="evenodd" d="m321.789 467.973-17.148-17.12-37.569 18.785 17.148 17.149z" fill="#fed1a3" fill-rule="evenodd"/></g></g></svg>