<svg id="Capa_1" enable-background="new 0 0 512 512" height="512" viewBox="0 0 512 512" width="512" xmlns="http://www.w3.org/2000/svg"><g><g><path clip-rule="evenodd" d="m100.495 7.5c-51.306 0-92.889 41.584-92.889 92.892 0 48.473 37.133 88.299 84.499 92.523 2.778.255 5.556.397 8.39.397 12.274 0 23.981-2.381 34.695-6.69 24.831-10.006 44.361-30.444 53.148-55.871 3.288-9.524 5.074-19.729 5.074-30.359 0-2.778-.142-5.556-.368-8.277-4.195-47.424-44.021-84.615-92.549-84.615z" fill="#ffe07d" fill-rule="evenodd"/></g><g><path clip-rule="evenodd" d="m173.882 119.327c-17.319 7.398-42.462 25.739-57.06 57.487-9.949 12.728-9.581 76.11-10.856 118.063-1.332 44.504 47.167 108.426 87.05 125.15 18.737 7.172 38.409 11.027 58.137 11.565l120.328-63.241c16.242-13.89 27.07-49.663 40.024-49.663 12.926 0 5.669.113 8.447.369 9.553-24.888 13.209-51.477 11.026-77.641-56.861 71.688-120.101-176.826-257.096-122.089z" fill="#9fd4fe" fill-rule="evenodd"/></g><g><path clip-rule="evenodd" d="m147.776 331.586c48.726-16.214 61.227-125.122-12.586-144.964-8.447-1.077-21.713-8.419-43.086 6.293-15.59 40.564-15.562 85.692-.057 126.142 2.806-.255 5.612-.369 8.447-.369 17.264 0 33.421 4.706 47.282 12.898z" fill="#95d6a4" fill-rule="evenodd"/></g><g><path clip-rule="evenodd" d="m351.157 340.94c-22.62-56.155-118.23-47.877-100.542 10.12 12.699 41.584-27.779 43.427.539 80.533 23.017.624 46.09-3.232 67.831-11.565-.255-2.778-.397-5.584-.397-8.447-.001-28.262 12.642-53.576 32.569-70.641z" fill="#95d6a4" fill-rule="evenodd"/></g><g><path clip-rule="evenodd" d="m351.157 340.94c-19.927 17.065-32.569 42.378-32.569 70.64 0 2.863.142 5.669.397 8.447 4.252 47.339 44.049 84.473 92.521 84.473 51.306 0 92.889-41.613 92.889-92.92 0-48.444-37.105-88.243-84.442-92.523-2.778-.255-5.612-.369-8.447-.369-23.046 0-44.107 8.391-60.349 22.252z" fill="#ffe07d" fill-rule="evenodd"/></g><g><path clip-rule="evenodd" d="m193.016 420.027c.255-2.778.397-5.584.397-8.447 0-34.044-18.311-63.808-45.637-79.994-13.861-8.192-30.018-12.898-47.281-12.898-2.835 0-5.641.113-8.447.369-47.337 4.28-84.442 44.079-84.442 92.523 0 51.307 41.583 92.92 92.889 92.92 48.471 0 88.269-37.106 92.521-84.473z" fill="#eff6ff" fill-rule="evenodd"/></g><g><path clip-rule="evenodd" d="m127.168 11.383c19.218 15.392 32.201 38.296 34.497 64.262.227 2.721.369 5.499.369 8.277 0 10.63-1.786 20.835-5.074 30.359-8.787 25.427-28.317 45.865-53.148 55.843-10.715 4.337-22.422 6.69-34.695 6.69-2.835 0-5.612-.113-8.39-.368-6.293-.567-12.387-1.758-18.255-3.515 13.833 11.112 30.954 18.312 49.633 19.984 2.778.255 5.556.397 8.39.397 12.274 0 23.981-2.381 34.695-6.69 24.831-10.006 44.361-30.444 53.148-55.871 3.288-9.524 5.074-19.729 5.074-30.359 0-2.778-.142-5.556-.368-8.277-3.401-38.382-30.103-70.045-65.876-80.732z" fill="#ffc250" fill-rule="evenodd"/></g><g><path clip-rule="evenodd" d="m165.662 398.682c0 2.863-.142 5.669-.397 8.447-4.252 47.367-44.049 84.473-92.521 84.473-8.532 0-16.837-1.162-24.689-3.317 14.91 10.233 32.994 16.214 52.44 16.214 48.471 0 88.269-37.106 92.521-84.473.255-2.778.397-5.584.397-8.447 0-34.044-18.34-63.808-45.637-79.994-7.001-4.139-14.57-7.37-22.563-9.581 24.405 16.725 40.449 44.845 40.449 76.678z" fill="#d9eeff" fill-rule="evenodd"/></g><g><path clip-rule="evenodd" d="m476.644 398.682c0 51.336-41.583 92.92-92.889 92.92-8.56 0-16.837-1.162-24.717-3.317 14.938 10.233 32.994 16.214 52.468 16.214 51.306 0 92.889-41.613 92.889-92.92 0-42.747-28.884-78.747-68.2-89.575 24.433 16.725 40.449 44.845 40.449 76.678z" fill="#ffc250" fill-rule="evenodd"/></g><g><path clip-rule="evenodd" d="m351.157 340.94c-7.086-17.603-21.344-28.857-37.048-34.271-8.249 48.416-27.014 91.559-52.922 124.923 19.672-.595 39.202-4.45 57.797-11.565-.255-2.778-.397-5.584-.397-8.447 0-28.261 12.643-53.575 32.57-70.64z" fill="#78c2a4" fill-rule="evenodd"/></g><g><path clip-rule="evenodd" d="m314.109 306.669c15.704 5.414 29.962 16.668 37.048 34.271 16.242-13.861 37.303-22.252 60.348-22.252 2.835 0 5.669.113 8.447.369 9.553-24.888 13.209-51.477 11.026-77.641-17.461 19.758-34.157 35.093-48.131 23.726-16.129-13.124-28.346-9.921-45.155-4.224-5.811 1.984-12.586 3.232-19.19 3.402-.566 14.485-2.069 28.63-4.393 42.349z" fill="#85beef" fill-rule="evenodd"/></g><g><path clip-rule="evenodd" d="m318.984 92.114c-40.506-15.534-85.548-15.477-125.94 0 .227 2.721.368 5.499.368 8.277 0 10.63-1.786 20.835-5.074 30.359 38.749-14.542 56.89-1.474 43.567 29.055-12.16 27.95 2.296 49.408 29.508 39.373 39.826-14.655 46.034 10.091 35.064 24.775-22.988 41.131 17.319 45.071 41.215 36.964 16.809-5.698 29.026-8.901 45.155 4.224 13.974 11.367 30.67-3.969 48.131-23.726-1.389-16.441-5.074-32.74-11.055-48.331-13.577-18.254-50.256-73.162-100.939-100.97z" fill="#95d6a4" fill-rule="evenodd"/></g><g><path clip-rule="evenodd" d="m269.067 80.974c30.869 44.759 49.69 104.429 49.69 169.938 0 4.507-.085 8.986-.255 13.408 6.605-.17 13.379-1.417 19.19-3.402 16.809-5.698 29.026-8.901 45.155 4.224 13.974 11.367 30.67-3.969 48.131-23.726-1.389-16.441-5.074-32.74-11.055-48.331-2.778.255-5.584.397-8.419.397-23.357 0-44.701-8.617-61.028-22.847-19.53-17.036-31.889-42.123-31.889-70.073 0-2.835.142-5.669.397-8.447-16.128-6.18-32.966-9.894-49.917-11.141z" fill="#78c2a4" fill-rule="evenodd"/></g><g><path clip-rule="evenodd" d="m411.505 119.526c-10.573 0-19.133-8.561-19.133-19.134 0-10.545 8.56-19.106 19.133-19.106 7.795 0 14.513 4.677 17.461 11.367 1.077 2.353 1.644 4.989 1.644 7.739 0 10.573-8.56 19.134-19.105 19.134zm-92.918-18.964c0 51.307 41.612 92.92 92.917 92.92 2.835 0 5.641-.142 8.419-.397 47.366-4.252 84.47-44.051 84.47-92.523 0-51.307-41.583-92.892-92.889-92.892-48.471 0-88.269 37.106-92.521 84.444-.254 2.778-.396 5.613-.396 8.448z" fill="#eff6ff" fill-rule="evenodd"/></g><g><path clip-rule="evenodd" d="m473.554 82.732c0 48.473-37.105 88.271-84.47 92.523-2.778.255-5.584.397-8.419.397-10.573 0-20.721-1.786-30.188-5.017 16.327 14.23 37.672 22.847 61.028 22.847 2.835 0 5.641-.142 8.419-.397 47.366-4.252 84.47-44.051 84.47-92.523 0-40.734-26.22-75.373-62.729-87.903 19.558 17.036 31.889 42.123 31.889 70.073z" fill="#d9eeff" fill-rule="evenodd"/></g><g fill="#2b4d66"><path d="m411.505 200.981c55.355 0 100.39-45.048 100.39-100.42 0-55.356-45.034-100.392-100.39-100.392-55.37 0-100.417 45.035-100.417 100.392 0 55.373 45.047 100.42 100.417 100.42zm-7.5-185.462v7.997c0 4.143 3.357 7.5 7.5 7.5s7.5-3.357 7.5-7.5v-7.997c41.052 3.592 73.856 36.343 77.528 77.373h-8.154c-4.143 0-7.5 3.357-7.5 7.5s3.357 7.5 7.5 7.5h8.18c-3.52 41.203-36.388 74.138-77.554 77.741v-8.365c0-4.143-3.357-7.5-7.5-7.5s-7.5 3.357-7.5 7.5v8.365c-41.18-3.602-74.06-36.537-77.581-77.741h8.207c4.143 0 7.5-3.357 7.5-7.5s-3.357-7.5-7.5-7.5h-8.181c3.673-41.031 36.489-73.783 77.555-77.373z"/><path d="m428.997 100.155c.965 0 1.945-.188 2.891-.583l38.295-16.016c3.821-1.598 5.624-5.991 4.025-9.812-1.598-3.821-5.993-5.623-9.812-4.025l-38.295 16.016c-3.821 1.598-5.624 5.991-4.025 9.812 1.201 2.876 3.987 4.608 6.921 4.608z"/><path d="m411.472 146.357h.034c4.126 0 7.48-3.336 7.499-7.467l.085-19.162c.019-4.142-3.324-7.515-7.467-7.533-.012 0-.022 0-.034 0-4.126 0-7.48 3.336-7.499 7.467l-.085 19.162c-.019 4.142 3.324 7.515 7.467 7.533z"/><path d="m426.137 426.353c-1.595-3.822-5.988-5.626-9.81-4.034-3.822 1.595-5.629 5.986-4.034 9.81l15.987 38.324c1.201 2.879 3.988 4.614 6.925 4.614.963 0 1.941-.187 2.885-.58 3.822-1.595 5.629-5.986 4.034-9.81z"/><path d="m392.371 404.25h-19.161c-4.143 0-7.5 3.357-7.5 7.5s3.357 7.5 7.5 7.5h19.161c4.143 0 7.5-3.357 7.5-7.5s-3.357-7.5-7.5-7.5z"/><path d="m100.495 311.188c-55.355 0-100.39 45.035-100.39 100.392 0 55.372 45.035 100.42 100.39 100.42 55.37 0 100.417-45.048 100.417-100.42 0-55.356-45.047-100.392-100.417-100.392zm7.5 185.463v-8.025c0-4.143-3.357-7.5-7.5-7.5s-7.5 3.357-7.5 7.5v8.025c-41.053-3.593-73.857-36.356-77.528-77.401h8.154c4.143 0 7.5-3.357 7.5-7.5s-3.357-7.5-7.5-7.5h-8.18c3.521-41.189 36.389-74.111 77.554-77.713v8.337c0 4.143 3.357 7.5 7.5 7.5s7.5-3.357 7.5-7.5v-8.337c41.179 3.601 74.059 36.523 77.581 77.713h-8.207c-4.143 0-7.5 3.357-7.5 7.5s3.357 7.5 7.5 7.5h8.181c-3.672 41.046-36.488 73.809-77.555 77.401z"/><path d="m95.673 422.318c-3.822-1.592-8.214.211-9.81 4.034l-15.987 38.324c-1.595 3.823.212 8.215 4.034 9.81.944.394 1.922.58 2.885.58 2.936 0 5.724-1.735 6.925-4.614l15.987-38.324c1.595-3.823-.212-8.215-4.034-9.81z"/><path d="m122.054 371.372c-3.653-1.948-8.196-.568-10.147 3.087l-9.015 16.895c-1.95 3.654-.568 8.197 3.087 10.147 1.124.6 2.332.885 3.523.885 2.681 0 5.273-1.441 6.624-3.972l9.015-16.895c1.95-3.654.568-8.197-3.087-10.147z"/><path d="m100.495 0c-55.355 0-100.39 45.035-100.39 100.392 0 55.372 45.034 100.42 100.39 100.42 55.37 0 100.417-45.048 100.417-100.42 0-55.357-45.047-100.392-100.417-100.392zm7.5 185.463v-8.365c0-4.143-3.357-7.5-7.5-7.5s-7.5 3.357-7.5 7.5v8.365c-41.166-3.603-74.034-36.537-77.554-77.741h8.18c4.143 0 7.5-3.357 7.5-7.5s-3.357-7.5-7.5-7.5h-8.154c3.672-41.03 36.476-73.781 77.528-77.373v7.997c0 4.143 3.357 7.5 7.5 7.5s7.5-3.357 7.5-7.5v-7.997c41.066 3.591 73.882 36.342 77.555 77.373h-8.181c-4.143 0-7.5 3.357-7.5 7.5s3.357 7.5 7.5 7.5h8.207c-3.521 41.204-36.401 74.139-77.581 77.741z"/><path d="m83.72 41.52c-1.595-3.823-5.988-5.627-9.81-4.034-3.822 1.595-5.629 5.986-4.034 9.81l15.987 38.324c1.201 2.879 3.988 4.614 6.925 4.614.963 0 1.941-.187 2.885-.58 3.822-1.595 5.629-5.986 4.034-9.81z"/><path d="m138.79 92.722h-19.161c-4.143 0-7.5 3.357-7.5 7.5s3.357 7.5 7.5 7.5h19.161c4.143 0 7.5-3.357 7.5-7.5s-3.357-7.5-7.5-7.5z"/><path d="m411.505 311.188c-55.37 0-100.417 45.035-100.417 100.392 0 55.372 45.047 100.42 100.417 100.42 55.355 0 100.39-45.048 100.39-100.42 0-55.356-45.035-100.392-100.39-100.392zm7.5 185.463v-8.025c0-4.143-3.357-7.5-7.5-7.5s-7.5 3.357-7.5 7.5v8.025c-41.067-3.592-73.883-36.355-77.555-77.401h8.181c4.143 0 7.5-3.357 7.5-7.5s-3.357-7.5-7.5-7.5h-8.207c3.522-41.189 36.402-74.112 77.581-77.713v8.337c0 4.143 3.357 7.5 7.5 7.5s7.5-3.357 7.5-7.5v-8.337c41.165 3.602 74.033 36.524 77.554 77.713h-8.18c-4.143 0-7.5 3.357-7.5 7.5s3.357 7.5 7.5 7.5h8.154c-3.671 41.045-36.475 73.808-77.528 77.401z"/></g><g><path clip-rule="evenodd" d="m411.505 392.645c-10.573 0-19.133 8.561-19.133 19.106 0 10.573 8.56 19.134 19.133 19.134 2.75 0 5.357-.595 7.71-1.644 6.718-2.948 11.395-9.666 11.395-17.49 0-10.546-8.56-19.106-19.105-19.106z" fill="#eb5468" fill-rule="evenodd"/></g><g><path clip-rule="evenodd" d="m100.495 430.884c10.573 0 19.133-8.561 19.133-19.134 0-7.285-4.11-13.635-10.119-16.866-2.693-1.417-5.754-2.239-9.014-2.239-10.545 0-19.105 8.561-19.105 19.106 0 7.824 4.677 14.542 11.395 17.49 2.353 1.048 4.961 1.643 7.71 1.643z" fill="#ffe07d" fill-rule="evenodd"/></g><g><path clip-rule="evenodd" d="m392.372 100.392c0 10.573 8.56 19.134 19.133 19.134 10.545 0 19.105-8.561 19.105-19.134 0-2.75-.567-5.386-1.616-7.739-2.976-6.69-9.694-11.367-17.489-11.367-10.573 0-19.133 8.561-19.133 19.106z" fill="#ffe07d" fill-rule="evenodd"/></g><g><path clip-rule="evenodd" d="m92.785 82.732c-6.718 2.976-11.395 9.694-11.395 17.49 0 10.573 8.56 19.106 19.105 19.106 10.573 0 19.133-8.532 19.133-19.106 0-10.545-8.56-19.106-19.133-19.106-2.749 0-5.357.567-7.71 1.616z" fill="#eb5468" fill-rule="evenodd"/></g></g></svg>