<svg id="Capa_1" enable-background="new 0 0 512 512" height="512" viewBox="0 0 512 512" width="512" xmlns="http://www.w3.org/2000/svg"><g><g><path clip-rule="evenodd" d="m378.983 307.356c13.52 8.76 27.945 15.564 43.159-3.008 4.409-15.272 6.775-31.421 6.775-48.095 0-95.518-77.411-172.961-172.927-172.961-16.761 0-32.968 2.395-48.298 6.862-8.41 12.265-14.951 25.902-3.154 43.247z" fill="#95d6a4" fill-rule="evenodd"/></g><g><path clip-rule="evenodd" d="m133.258 204.595c-12.936-10.308-27.04-17.316-43.276 3.066-4.497 15.418-6.921 31.713-6.921 48.591 0 95.489 77.411 172.932 172.927 172.932 16.79 0 33.026-2.395 48.386-6.862 12.673-9.344 14.805-23.653 2.92-43.189z" fill="#95d6a4" fill-rule="evenodd"/></g><g><path clip-rule="evenodd" d="m389.144 256.253c0-73.529-59.628-133.159-133.155-133.159-18.25 0-35.625 3.679-51.452 10.308-30.778 7.388-63.336 41.028-71.279 71.193-6.716 15.886-10.395 33.319-10.395 51.658 0 73.529 59.599 133.13 133.126 133.13 18.192 0 35.508-3.65 51.306-10.25 30.807-24.383 54.255-53.497 71.688-71.777 6.541-15.74 10.161-32.998 10.161-51.103z" fill="#eff6ff" fill-rule="evenodd"/></g><g><path clip-rule="evenodd" d="m338.481 173.496c1.635 9.724 2.482 19.682 2.482 29.873 0 19.886-3.241 39.013-9.198 56.914-11.155 33.553-31.946 62.696-59.044 84.188-20.207 16.002-43.918 27.771-69.79 33.932 16.265 7.067 34.194 10.98 53.058 10.98 18.192 0 35.508-3.65 51.306-10.25 30.807-24.383 54.255-53.497 71.688-71.777 6.541-15.74 10.162-32.998 10.162-51.103 0-45.321-22.66-85.356-57.233-109.418 2.831 8.614 5.051 17.521 6.569 26.661z" fill="#d9eeff" fill-rule="evenodd"/></g><g><path clip-rule="evenodd" d="m331.911 146.835c34.574 24.062 57.233 64.097 57.233 109.418 0 18.105-3.621 35.363-10.162 51.103 14.046-4.03 28.763-5.023 43.159-3.008 4.409-15.272 6.775-31.421 6.775-48.095 0-80.333-54.751-147.877-129.009-167.325 13.987 16.966 24.937 36.56 32.004 57.907z" fill="#78c2a4" fill-rule="evenodd"/></g><g><path clip-rule="evenodd" d="m307.295 379.133c-15.798 6.6-33.114 10.25-51.306 10.25-18.864 0-36.793-3.913-53.058-10.98-13.374 3.183-27.361 4.847-41.699 4.847-8.264 0-16.382-.555-24.353-1.635 31.011 29.464 72.943 47.569 119.11 47.569 16.79 0 33.026-2.395 48.386-6.862-2.044-14.396-1.052-29.114 2.92-43.189z" fill="#78c2a4" fill-rule="evenodd"/></g><g><path clip-rule="evenodd" d="m333.897 333.9c-13.053 13.053-21.901 28.676-26.602 45.233-3.971 14.075-4.964 28.793-2.92 43.189 3.037 21.609 12.878 42.488 29.522 59.104 20.324 20.353 46.955 30.516 73.615 30.574h.292c26.66-.058 53.291-10.221 73.615-30.574 20.353-20.324 30.544-46.985 30.573-73.646v-.234c-.029-26.661-10.22-53.322-30.573-73.646-16.674-16.674-37.581-26.544-59.278-29.552-14.396-2.015-29.113-1.022-43.159 3.008-16.527 4.701-32.091 13.549-45.085 26.544z" fill="#9fd4fe" fill-rule="evenodd"/></g><g fill="#2b4d66"><path d="m429.959 82.279c-46.471-46.473-108.255-72.066-173.97-72.066-2.934 0-5.615 1.662-6.92 4.289-1.305 2.628-1.01 5.768.763 8.106l25.901 34.166c2.577 3.399 7.422 4.067 10.825 1.489 3.4-2.577 4.067-7.425 1.489-10.825l-16.091-21.224c119.719 8.232 214.614 108.264 214.614 230.04 0 4.268 3.459 7.726 7.726 7.726s7.726-3.459 7.726-7.726c.001-65.718-25.591-127.503-72.063-173.975z"/><path d="m264.194 243.219c3.164 0 6.133-1.959 7.269-5.108l22.018-61.06c1.447-4.014-.634-8.442-4.648-9.889-4.012-1.448-8.442.633-9.889 4.648l-22.018 61.06c-1.447 4.014.634 8.442 4.648 9.889.865.312 1.75.46 2.62.46z"/><path d="m304.312 372.005c-12.937 5.415-26.562 8.564-40.597 9.41v-15.248c0-4.268-3.459-7.726-7.726-7.726-4.268 0-7.726 3.459-7.726 7.726v15.244c-28.835-1.762-55.064-13.309-75.406-31.36l10.688-10.689c3.017-3.017 3.017-7.909-.001-10.927-3.016-3.016-7.908-3.017-10.927.001l-10.672 10.672c-17.963-20.365-29.429-46.585-31.128-75.393h14.997c4.268 0 7.726-3.459 7.726-7.726 0-4.268-3.459-7.726-7.726-7.726h-14.969c.874-14.104 4.063-27.759 9.53-40.688 1.661-3.931-.178-8.464-4.108-10.126-3.931-1.661-8.463.177-10.126 4.108-7.303 17.273-11.005 35.674-11.005 54.695 0 77.668 63.186 140.856 140.852 140.856 18.824 0 37.09-3.65 54.289-10.848 3.937-1.648 5.792-6.174 4.145-10.111-1.648-3.935-6.172-5.791-10.11-4.144z"/><path d="m255.989 115.367c-18.839 0-37.154 3.67-54.437 10.908-3.936 1.649-9.784 12.726-8.136 16.662 1.649 3.937 10.172-.758 14.106-2.408 13.01-5.449 26.682-8.617 40.74-9.467v14.751c0 4.268 3.459 7.726 7.726 7.726 4.268 0 7.726-3.459 7.726-7.726v-14.748c28.711 1.754 54.841 13.207 75.148 31.121l-10.431 10.432c-3.017 3.017-3.017 7.909.001 10.927 1.508 1.508 3.486 2.263 5.463 2.263s3.955-.755 5.464-2.264l10.446-10.446c18 20.286 29.535 46.426 31.351 75.167h-14.993c-4.268 0-7.726 3.459-7.726 7.726 0 4.268 3.459 7.726 7.726 7.726h15.028c-.82 14.033-3.947 27.684-9.344 40.674-1.638 3.941.229 8.463 4.17 10.1.969.402 1.974.594 2.962.594 3.028 0 5.903-1.793 7.138-4.764 7.136-17.172 10.754-35.363 10.754-54.067 0-77.686-63.199-140.887-140.882-140.887z"/><path d="m236.277 455.707c-2.577-3.402-7.422-4.071-10.824-1.496-3.402 2.576-4.071 7.423-1.496 10.824l16.076 21.229c-119.729-8.22-214.625-108.243-214.625-230.012 0-4.268-3.459-7.726-7.726-7.726s-7.726 3.459-7.726 7.726c0 65.715 25.593 127.496 72.064 173.961 46.469 46.462 108.253 72.05 173.969 72.05 2.933 0 5.613-1.661 6.919-4.287 1.306-2.627 1.012-5.766-.759-8.104z"/><path d="m310.857 248.264h-32.88c-4.268 0-7.726 3.459-7.726 7.726 0 4.268 3.459 7.726 7.726 7.726h32.88c4.268 0 7.726-3.459 7.726-7.726 0-4.268-3.458-7.726-7.726-7.726z"/></g><g><path clip-rule="evenodd" d="m412.855 314.89c11.914 15.156 20.353 33.056 25.288 52.125 1.898 1.431 3.708 3.008 5.461 4.731 9.899 9.928 14.863 22.923 14.863 35.918s-4.964 26.019-14.863 35.947c-1.548 1.518-3.154 2.949-4.847 4.234-4.818 19.974-13.462 38.78-25.901 54.607-2.657 3.387-5.431 6.541-8.322 9.491.993.029 1.986.058 2.978.058h.292c26.66-.058 53.291-10.221 73.615-30.574 20.353-20.324 30.544-46.985 30.573-73.646v-.234c-.029-26.661-10.22-53.322-30.573-73.646-16.674-16.674-37.581-26.544-59.278-29.552-6.453-.905-12.994-1.197-19.506-.876 3.124 3.066 6.161 6.395 9.081 9.987.38.466.76.933 1.139 1.43z" fill="#85beef" fill-rule="evenodd"/></g><g><path d="m407.658 364.578c-4.268 0-7.726-3.459-7.726-7.726v-25.901c0-4.268 3.459-7.726 7.726-7.726s7.726 3.459 7.726 7.726v25.901c0 4.268-3.458 7.726-7.726 7.726z" fill="#ffc250"/></g><g><path d="m407.658 492.102c-4.268 0-7.726-3.459-7.726-7.726v-25.901c0-4.268 3.459-7.726 7.726-7.726s7.726 3.459 7.726 7.726v25.901c0 4.267-3.458 7.726-7.726 7.726z" fill="#ffc250"/></g><g><path d="m356.848 415.389h-25.9c-4.268 0-7.726-3.459-7.726-7.726 0-4.268 3.459-7.726 7.726-7.726h25.9c4.268 0 7.726 3.459 7.726 7.726 0 4.268-3.458 7.726-7.726 7.726z" fill="#ffe07d"/></g><g><path d="m484.368 415.389h-25.901c-4.268 0-7.726-3.459-7.726-7.726 0-4.268 3.459-7.726 7.726-7.726h25.901c4.268 0 7.726 3.459 7.726 7.726.001 4.268-3.458 7.726-7.726 7.726z" fill="#ffc250"/></g><g><path d="m443.604 379.472c-1.975 0-3.95-.753-5.458-2.258-3.02-3.014-3.025-7.906-.011-10.927l14.863-14.893c3.014-3.021 7.906-3.026 10.927-.011 3.02 3.014 3.025 7.906.011 10.927l-14.863 14.893c-1.51 1.512-3.49 2.269-5.469 2.269z" fill="#ffc250"/></g><g><path d="m371.74 379.472c-1.978 0-3.955-.755-5.464-2.264l-14.892-14.893c-3.017-3.017-3.017-7.909.001-10.927 3.017-3.017 7.909-3.016 10.927.001l14.892 14.893c3.017 3.017 3.017 7.909-.001 10.927-1.508 1.508-3.486 2.263-5.463 2.263z" fill="#ffe07d"/></g><g><path d="m458.467 466.2c-1.978 0-3.955-.755-5.464-2.264l-14.863-14.864c-3.017-3.017-3.017-7.909.001-10.927 3.017-3.017 7.909-3.016 10.927.001l14.863 14.864c3.017 3.017 3.017 7.909-.001 10.927-1.508 1.509-3.486 2.263-5.463 2.263z" fill="#ffc250"/></g><g><path d="m356.848 466.2c-1.977 0-3.955-.755-5.464-2.263-3.017-3.018-3.017-7.909 0-10.928l12.119-12.119c3.018-3.016 7.909-3.016 10.928 0 3.017 3.018 3.017 7.909 0 10.928l-12.119 12.119c-1.509 1.509-3.487 2.263-5.464 2.263z" fill="#ffe07d"/></g><g><path clip-rule="evenodd" d="m458.467 407.663c0-12.995-4.964-25.989-14.863-35.918-9.928-9.929-22.952-14.893-35.946-14.893s-25.989 4.964-35.917 14.893c-9.928 9.928-14.892 22.923-14.892 35.918s4.964 26.019 14.892 35.947c9.928 9.899 22.923 14.864 35.917 14.864s26.018-4.964 35.946-14.864c9.899-9.929 14.863-22.952 14.863-35.947z" fill="#ffe07d" fill-rule="evenodd"/></g><g><path clip-rule="evenodd" d="m409.789 367.978c19.827 19.857 19.827 52.008 0 71.865-6.95 6.95-15.418 11.447-24.324 13.55 6.979 3.387 14.6 5.081 22.193 5.081 12.994 0 26.018-4.964 35.946-14.864 9.899-9.929 14.863-22.952 14.863-35.947s-4.964-25.989-14.863-35.918c-9.928-9.929-22.952-14.893-35.946-14.893-3.884 0-7.797.438-11.622 1.343 4.964 2.395 9.607 5.666 13.753 9.783z" fill="#ffc250" fill-rule="evenodd"/></g><g><path clip-rule="evenodd" d="m255.989 277.979c12.148 0 21.988-9.841 21.988-21.989s-9.841-21.989-21.988-21.989-21.988 9.841-21.988 21.989 9.841 21.989 21.988 21.989z" fill="#ffe07d" fill-rule="evenodd"/></g><g><path clip-rule="evenodd" d="m30.559 30.554c-40.735 40.736-40.735 106.79 0 147.526 16.703 16.733 37.698 26.573 59.424 29.581 14.425 1.986 29.172.964 43.276-3.066 16.411-4.731 31.887-13.55 44.823-26.515 12.907-12.878 21.725-28.325 26.456-44.678 4.059-14.075 5.11-28.822 3.154-43.247-2.978-21.814-12.848-42.839-29.61-59.6-40.736-40.737-106.788-40.737-147.523-.001z" fill="#9fd4fe" fill-rule="evenodd"/></g><g><path clip-rule="evenodd" d="m47.32 100.229c0 34.604 28.062 62.667 62.665 62.667 8.118 0 15.856-1.518 22.981-4.322 9.227-3.65 5.723-7.855-1.08-11.564-16.557-9.023-27.799-26.603-27.799-46.781 0-20.207 11.242-37.758 27.799-46.781 6.804-3.709 10.308-7.914 1.08-11.564-7.125-2.803-14.863-4.351-22.981-4.351-34.603 0-62.665 28.063-62.665 62.696z" fill="#ffe07d" fill-rule="evenodd"/></g><g><path clip-rule="evenodd" d="m81.573 5.149c53.788 0 97.414 40.619 97.414 90.729s-43.626 90.729-97.414 90.729c-23.01 0-44.181-7.417-60.854-19.857 2.978 3.942 6.249 7.738 9.841 11.33 16.703 16.733 37.698 26.573 59.424 29.581 14.425 1.986 29.172.964 43.276-3.066 16.411-4.731 31.887-13.55 44.823-26.515 12.907-12.878 21.725-28.325 26.456-44.678 4.059-14.075 5.11-28.822 3.154-43.247-2.978-21.814-12.848-42.839-29.61-59.6-29.232-29.232-71.485-37.496-108.074-24.764 3.797-.438 7.651-.642 11.564-.642z" fill="#85beef" fill-rule="evenodd"/></g></g></svg>