<svg id="Capa_1" enable-background="new 0 0 512 512" height="512" viewBox="0 0 512 512" width="512" xmlns="http://www.w3.org/2000/svg"><g><g><path d="m361.052 512h-193.467c-18.446 0-33.452-15.02-33.452-33.481v-35.014c0-4.277 3.467-7.743 7.743-7.743 4.277 0 7.743 3.467 7.743 7.743v35.014c0 9.922 8.059 17.994 17.965 17.994h193.466c9.906 0 17.965-8.072 17.965-17.994v-65.911c0-4.277 3.467-7.743 7.743-7.743s7.743 3.467 7.743 7.743v65.911c.002 18.461-15.004 33.481-33.449 33.481z" fill="#d9eeff"/></g><g><path clip-rule="evenodd" d="m281.839 143.892c-.116-91.591-71.01-144.864-139.962-143.879-68.953-.985-139.876 52.288-139.963 143.879-.087 80.838 53.794 104.75 71.474 162.632 11.536 18.057 129.847 19.622 136.977 0 17.68-57.882 71.561-81.794 71.474-162.632z" fill="#ffe07d" fill-rule="evenodd"/></g><g><path clip-rule="evenodd" d="m199.409 303.626h-115.094c-3.971 0-7.71 1.043-10.927 2.898-6.637 3.826-11.159 11.014-11.159 19.188 0 12.145 10.753 17.738 22.086 22.086l57.562 22.086 57.533-22.086c12.144 0 22.086-9.942 22.086-22.086 0-8.174-4.492-15.362-11.13-19.188-3.247-1.855-6.986-2.898-10.957-2.898z" fill="#eff6ff" fill-rule="evenodd"/></g><g><path clip-rule="evenodd" d="m193.584 391.971-51.707-22.086-51.707 22.086v19.854c0 17.42 14.26 31.68 31.679 31.68h20.028 19.999c17.448 0 31.708-14.26 31.708-31.68z" fill="#375e7d" fill-rule="evenodd"/></g><g><path clip-rule="evenodd" d="m199.409 347.798h-115.094c-12.144 0-22.086 9.942-22.086 22.086 0 12.145 9.941 22.086 22.086 22.086h5.855 103.414 5.826c12.144 0 22.086-9.942 22.086-22.086-.001-12.144-9.942-22.086-22.087-22.086z" fill="#eff6ff" fill-rule="evenodd"/></g><g><path clip-rule="evenodd" d="m193.584 391.971h-23.767-5.826v19.854c0 17.42-14.26 31.68-31.708 31.68h9.594 19.999c17.448 0 31.708-14.26 31.708-31.68z" fill="#2b4d66" fill-rule="evenodd"/></g><g><path clip-rule="evenodd" d="m141.877 242.672c56.779 0 102.805-46.027 102.805-102.808s-46.026-102.808-102.805-102.808-102.806 46.027-102.806 102.808 46.027 102.808 102.806 102.808z" fill="#eff6ff" fill-rule="evenodd"/></g><g><path clip-rule="evenodd" d="m244.682 139.864c0-44.578-28.404-82.548-68.083-96.779 11.564 32.289 18.173 69.679 18.173 109.532 0 28.376-3.362 55.505-9.449 80.432 35.042-16.376 59.359-51.94 59.359-93.185z" fill="#d9eeff" fill-rule="evenodd"/></g><g><path clip-rule="evenodd" d="m176.599 43.084c39.679 14.231 68.083 52.201 68.083 96.779 0 41.245-24.317 76.809-59.359 93.185-6.463 26.376-15.97 50.259-27.882 70.577h12.376 11.883 17.709c3.971 0 7.71 1.043 10.956 2.898 17.68-57.882 71.561-81.794 71.474-162.632-.087-84.952-61.098-136.95-124.978-143.24 7.594 12.782 14.231 27.043 19.738 42.433z" fill="#ffc250" fill-rule="evenodd"/></g><g><path clip-rule="evenodd" d="m263.434 307.742v92.316c0 6.898 5.652 12.55 12.55 12.55h110.776 110.776c6.898 0 12.55-5.652 12.55-12.55v-92.316c0-6.898-5.652-12.521-12.55-12.521h-221.552c-6.898 0-12.55 5.623-12.55 12.521z" fill="#eb5468" fill-rule="evenodd"/></g><g><path clip-rule="evenodd" d="m478.609 307.742v92.316c0 6.898-5.623 12.521-12.492 12.55h.029 27.795 3.594c6.898 0 12.55-5.652 12.55-12.55v-92.316c0-6.898-5.652-12.521-12.55-12.521h-3.594-27.853c6.87 0 12.521 5.623 12.521 12.521z" fill="#e5384f" fill-rule="evenodd"/></g><g><path d="m141.877 29.313c-60.957 0-110.549 49.593-110.549 110.551s49.592 110.551 110.549 110.551 110.548-49.593 110.548-110.551-49.591-110.551-110.548-110.551zm85.067 118.12h9.693c-1.617 20.427-9.721 39.055-22.244 53.824l-6.9-6.9c-3.023-3.023-7.927-3.024-10.951 0-3.024 3.025-3.025 7.927-.001 10.952l6.915 6.915c-14.757 12.578-33.392 20.732-53.836 22.388v-9.881c0-4.277-3.467-7.743-7.743-7.743-4.277 0-7.743 3.467-7.743 7.743v9.881c-20.449-1.657-39.087-9.813-53.846-22.396l6.917-6.901c3.027-3.021 3.033-7.923.012-10.951s-7.924-3.033-10.951-.013l-6.913 6.898c-12.519-14.769-20.62-33.393-22.236-53.816h9.693c4.277 0 7.743-3.467 7.743-7.743 0-4.277-3.467-7.743-7.743-7.743h-9.662c1.689-20.38 9.833-38.955 22.378-53.671l6.74 6.724c1.512 1.508 3.49 2.262 5.469 2.262 1.985 0 3.969-.758 5.482-2.275 3.021-3.027 3.015-7.93-.012-10.951l-6.712-6.697c14.726-12.484 33.286-20.574 53.641-22.223v9.503c0 4.277 3.467 7.743 7.743 7.743 4.277 0 7.743-3.467 7.743-7.743v-9.503c20.351 1.649 38.907 9.736 53.632 22.215l-6.71 6.71c-3.024 3.024-3.023 7.927.001 10.952 1.512 1.512 3.494 2.268 5.475 2.268s3.964-.756 5.475-2.268l6.727-6.727c12.55 14.718 20.697 33.295 22.385 53.679h-9.662c-4.277 0-7.743 3.467-7.743 7.743 0 4.278 3.467 7.745 7.744 7.745z" fill="#2b4d66"/><path d="m168.281 131.946h-21.665l-18.945-47.114c-1.596-3.969-6.104-5.889-10.074-4.296-3.968 1.596-5.891 6.106-4.295 10.073l20.897 51.969c1.179 2.934 4.023 4.855 7.184 4.855h26.897c4.277 0 7.743-3.467 7.743-7.743.002-4.277-3.465-7.744-7.742-7.744z" fill="#375e7d"/><g fill="#eff6ff"><path d="m415.048 334.21c4.277 0 7.743-3.467 7.743-7.743s-3.467-7.743-7.743-7.743h-22.23c-4.277 0-7.743 3.467-7.743 7.743v54.867c0 4.277 3.467 7.743 7.743 7.743 4.277 0 7.743-3.467 7.743-7.743v-20.198h12.719c4.277 0 7.743-3.467 7.743-7.743 0-4.277-3.467-7.743-7.743-7.743h-12.719v-11.44z"/><path d="m333.285 318.519c-19.516 0-35.394 15.878-35.394 35.395 0 19.501 15.877 35.365 35.394 35.365s35.394-15.864 35.394-35.365c0-19.517-15.878-35.395-35.394-35.395zm0 55.274c-10.977 0-19.907-8.918-19.907-19.878 0-10.978 8.93-19.908 19.907-19.908s19.907 8.931 19.907 19.908c0 10.96-8.93 19.878-19.907 19.878z"/><path d="m466.118 345.649h-12.748v-11.439h14.516c4.277 0 7.743-3.467 7.743-7.743s-3.467-7.743-7.743-7.743h-22.259c-4.277 0-7.743 3.467-7.743 7.743v54.867c0 4.277 3.467 7.743 7.743 7.743s7.743-3.467 7.743-7.743v-20.198h12.748c4.277 0 7.743-3.467 7.743-7.743 0-4.278-3.467-7.744-7.743-7.744z"/></g></g><g><path clip-rule="evenodd" d="m194.511 325.712c0 12.145-9.941 22.086-22.086 22.086h26.984c12.144 0 22.086-9.942 22.086-22.086 0-8.174-4.492-15.362-11.13-19.188-3.246-1.855-6.985-2.898-10.956-2.898h-17.709-9.275c3.971 0 7.71 1.043 10.927 2.898 3.942 2.261 7.101 5.681 9.043 9.797 1.363 2.841 2.116 6.029 2.116 9.391z" fill="#d9eeff" fill-rule="evenodd"/></g><g><path clip-rule="evenodd" d="m199.409 347.798h-26.984c5.275 0 10.144 1.884 13.941 5.014 4.956 4.058 8.144 10.203 8.144 17.072 0 7.594-3.884 14.318-9.768 18.318-3.536 2.377-7.768 3.768-12.318 3.768h21.158 5.826c12.144 0 22.086-9.942 22.086-22.086.001-12.144-9.94-22.086-22.085-22.086z" fill="#d9eeff" fill-rule="evenodd"/></g></g></svg>