<svg id="Capa_1" enable-background="new 0 0 512 512" height="512" viewBox="0 0 512 512" width="512" xmlns="http://www.w3.org/2000/svg"><g><g><path d="m402.211 149.385c-1.979 0-3.957-.756-5.466-2.266-3.016-3.019-3.014-7.91.005-10.927l29.844-29.815c3.019-3.016 7.91-3.013 10.927.005 3.016 3.019 3.014 7.91-.005 10.927l-29.844 29.815c-1.509 1.508-3.485 2.261-5.461 2.261z" fill="#d9eeff"/></g><g><path d="m109.76 149.385c-1.977 0-3.955-.755-5.463-2.263l-29.814-29.815c-3.018-3.018-3.018-7.909 0-10.928 3.018-3.016 7.91-3.016 10.927 0l29.814 29.815c3.018 3.018 3.018 7.909 0 10.928-1.509 1.509-3.487 2.263-5.464 2.263z" fill="#d9eeff"/></g><g><path d="m256 88.821c-4.267 0-7.726-3.459-7.726-7.726v-38.022c0-4.268 3.459-7.726 7.726-7.726s7.726 3.459 7.726 7.726v38.021c0 4.268-3.459 7.727-7.726 7.727z" fill="#d9eeff"/></g><g><path clip-rule="evenodd" d="m90.166 506.071 56.942-42.314c0-19.232-4.236-27.623-15.771-39.157-3.942-3.942-12.262-10.218-32.85-2.689l-39.422 53.031c-7.242 9.724-8.556 22.573 0 31.129 8.558 8.557 21.377 7.213 31.101 0z" fill="#375e7d" fill-rule="evenodd"/></g><g><path clip-rule="evenodd" d="m402.211 141.659c-40.386-40.357-93.298-60.565-146.211-60.565-52.942 0-105.855 20.208-146.24 60.565-76.799 76.801-80.566 198.983-11.272 280.252 3.563 4.176 7.33 8.264 11.272 12.206 11.535 11.535 24.062 21.405 37.348 29.64 66.491 41.263 151.292 41.263 217.783 0 13.257-8.235 25.814-18.105 37.319-29.64 3.971-3.942 7.738-8.031 11.301-12.206 69.266-81.269 65.499-203.451-11.3-280.252z" fill="#95d6a4" fill-rule="evenodd"/></g><g><path clip-rule="evenodd" d="m416.724 287.903c0-88.774-71.952-160.728-160.724-160.728s-160.724 71.954-160.724 160.728 71.952 160.728 160.724 160.728 160.724-71.954 160.724-160.728zm-233.114 0c0-12.148 9.928-22.077 22.076-22.077h28.238v-28.238c0-12.148 9.928-22.077 22.076-22.077 12.119 0 22.076 9.929 22.076 22.077v28.238h28.238c12.119 0 22.076 9.929 22.076 22.077s-9.958 22.077-22.076 22.077h-28.238v28.238c0 12.148-9.958 22.077-22.076 22.077-12.148 0-22.076-9.929-22.076-22.077v-28.238h-28.238c-12.147 0-22.076-9.929-22.076-22.077z" fill="#eff6ff" fill-rule="evenodd"/></g><g><path clip-rule="evenodd" d="m328.39 287.903c0-12.148-9.958-22.077-22.076-22.077h-28.238v-28.238c0-12.148-9.958-22.077-22.076-22.077-12.148 0-22.076 9.929-22.076 22.077v28.238h-28.238c-12.148 0-22.076 9.929-22.076 22.077s9.928 22.077 22.076 22.077h28.238v28.238c0 12.148 9.928 22.077 22.076 22.077 12.119 0 22.076-9.929 22.076-22.077v-28.238h28.238c12.118 0 22.076-9.929 22.076-22.077z" fill="#95d6a4" fill-rule="evenodd"/></g><g><path clip-rule="evenodd" d="m79.946 111.844 41.174-41.175c1.606-1.606 1.606-4.264 0-5.87l-11.564-11.564c-24.266-24.267-63.98-24.267-88.217 0-24.266 24.267-24.266 63.952 0 88.219l11.564 11.564c1.606 1.606 4.263 1.606 5.869 0z" fill="#95d6a4" fill-rule="evenodd"/></g><g><path clip-rule="evenodd" d="m292.122 43.073c11.856 0 21.551-9.695 21.551-21.551-.001-11.827-9.695-21.522-21.551-21.522h-72.273c-11.827 0-21.521 9.695-21.521 21.522 0 11.856 9.695 21.551 21.521 21.551h36.151z" fill="#375e7d" fill-rule="evenodd"/></g><g><path clip-rule="evenodd" d="m490.661 141.455c24.266-24.267 24.266-63.952 0-88.219s-63.951-24.267-88.217 0l-11.564 11.564c-1.635 1.606-1.635 4.263 0 5.87l41.174 41.175 41.174 41.175c1.606 1.606 4.234 1.606 5.84 0z" fill="#95d6a4" fill-rule="evenodd"/></g><g><path clip-rule="evenodd" d="m452.933 474.942-39.422-53.031c-15.973-5.485-33.987 1.812-37.959 5.755-11.505 11.535-11.505 11.535-10.661 36.092l56.942 42.314c9.695 7.213 22.543 8.556 31.099 0 8.557-8.557 7.214-21.406.001-31.13z" fill="#375e7d" fill-rule="evenodd"/></g><g><path clip-rule="evenodd" d="m83.946 78.846 14.484 14.513 22.689-22.69c1.606-1.606 1.606-4.264 0-5.87l-11.564-11.564c-24.266-24.267-63.98-24.267-88.217 0-4.468 4.439-8.089 9.403-10.892 14.718 23.566-12.557 53.673-8.906 73.5 10.893z" fill="#78c2a4" fill-rule="evenodd"/></g><g><path clip-rule="evenodd" d="m470.25 39.686c18.017 24.355 16.002 59.134-6.045 81.182l-11.564 11.564 20.587 20.587c1.606 1.606 4.234 1.606 5.84 0l11.593-11.564c24.266-24.267 24.266-63.952 0-88.219-6.015-6.016-12.965-10.543-20.411-13.55z" fill="#78c2a4" fill-rule="evenodd"/></g><g><path clip-rule="evenodd" d="m289.406 21.522c0 11.856-9.695 21.551-21.551 21.551h24.266c11.856 0 21.551-9.695 21.551-21.551 0-11.827-9.694-21.522-21.55-21.522h-24.266c11.855 0 21.55 9.695 21.55 21.522z" fill="#2b4d66" fill-rule="evenodd"/></g><g><path clip-rule="evenodd" d="m397.538 438.673 26.982 36.269c7.213 9.724 8.556 22.573 0 31.129-.38.38-.788.73-1.168 1.08 9.49 6.249 21.463 7.038 29.581-1.08 8.556-8.556 7.213-21.405 0-31.129l-39.422-53.031c-3.562 4.176-7.329 8.264-11.301 12.206-1.547 1.548-3.095 3.067-4.672 4.556z" fill="#2b4d66" fill-rule="evenodd"/></g><g><path clip-rule="evenodd" d="m125.003 447.93-41.874 31.13c-8.556 6.366-19.565 8.177-27.916 2.628-3.475 8.381-2.833 17.696 3.855 24.384 8.556 8.556 21.375 7.213 31.099 0l56.942-42.314c-7.622-4.731-15.01-10.017-22.106-15.828z" fill="#2b4d66" fill-rule="evenodd"/></g><g><path clip-rule="evenodd" d="m225.514 83.343c35.626 8.673 69.411 26.895 97.24 54.725 2.19 2.19 4.322 4.409 6.395 6.687 51.978 26.603 87.575 80.714 87.575 143.148 0 67.603-41.758 125.481-100.89 149.222-9.578 8.731-19.769 16.412-30.428 23.011-24.266 15.068-51.015 24.647-78.405 28.706 53.029 12.878 110.176 4.526 157.891-25.085 11.505-7.125 22.427-15.506 32.647-25.085 1.577-1.489 3.125-3.008 4.672-4.556 3.971-3.942 7.738-8.031 11.301-12.206 69.265-81.269 65.498-203.451-11.301-280.252-40.386-40.356-93.298-60.564-146.211-60.564-10.191 0-20.382.759-30.486 2.249z" fill="#78c2a4" fill-rule="evenodd"/></g><g><path clip-rule="evenodd" d="m256 132.606c62.549 21.989 107.402 81.59 107.402 151.675s-44.853 129.687-107.402 151.676c-11.914 4.205-24.441 7.008-37.436 8.293 12.002 2.862 24.529 4.38 37.436 4.38 21.142 0 41.349-4.088 59.833-11.506 59.133-23.741 100.89-81.62 100.89-149.222 0-62.434-35.596-116.545-87.575-143.148-21.959-11.243-46.81-17.58-73.149-17.58-5.344 0-10.658.263-15.856.759 5.403 1.315 10.688 2.863 15.857 4.673z" fill="#d9eeff" fill-rule="evenodd"/></g><path d="m256 119.449c-92.884 0-168.45 75.568-168.45 168.455 0 92.885 75.566 168.454 168.45 168.454s168.45-75.568 168.45-168.454c0-92.887-75.566-168.455-168.45-168.455zm132.982 175.888h19.832c-1.751 36.416-16.292 69.531-39.218 94.946l-14.105-14.105c-3.017-3.016-7.909-3.016-10.927 0-3.018 3.018-3.018 7.909 0 10.928l14.122 14.122c-25.386 23.026-58.514 37.661-94.96 39.483v-20.114c0-4.268-3.459-7.726-7.726-7.726s-7.726 3.459-7.726 7.726v20.114c-36.454-1.822-69.588-16.463-94.976-39.497l14.108-14.108c3.018-3.018 3.018-7.909 0-10.928-3.017-3.016-7.909-3.016-10.927 0l-14.089 14.089c-22.918-25.412-37.454-58.522-39.204-94.93h19.832c4.267 0 7.726-3.459 7.726-7.726s-3.459-7.726-7.726-7.726h-19.806c1.885-36.333 16.504-69.352 39.467-94.671l13.8 13.801c1.509 1.509 3.486 2.264 5.463 2.264s3.955-.755 5.463-2.263c3.018-3.017 3.018-7.909 0-10.927l-13.783-13.784c25.346-22.866 58.351-37.395 94.651-39.209v19.529c0 4.268 3.459 7.726 7.726 7.726s7.726-3.459 7.726-7.726v-19.529c36.293 1.814 69.292 16.337 94.636 39.195l-13.797 13.798c-3.018 3.017-3.018 7.909 0 10.927 1.509 1.508 3.486 2.263 5.463 2.263s3.955-.755 5.463-2.264l13.816-13.816c22.972 25.321 37.595 58.346 39.481 94.686h-19.806c-4.267 0-7.726 3.459-7.726 7.726s3.46 7.726 7.727 7.726z" fill="#375e7d"/></g></svg>