<svg id="Capa_1" enable-background="new 0 0 512 512" height="512" viewBox="0 0 512 512" width="512" xmlns="http://www.w3.org/2000/svg"><g><g><path clip-rule="evenodd" d="m413.001 169.022h-402.861v314.302c0 15.769 12.907 28.676 28.675 28.676h434.369c15.769 0 28.646-12.907 28.646-28.676v-314.302z" fill="#eff6ff" fill-rule="evenodd"/></g><g><path clip-rule="evenodd" d="m38.815 512h434.369c15.769 0 28.646-12.907 28.646-28.676v-314.302l-245.83-13.022-245.86 13.022v314.302c0 15.769 12.907 28.676 28.675 28.676z" fill="#eff6ff" fill-rule="evenodd"/></g><g><path clip-rule="evenodd" d="m10.14 169.022h491.691c5.519 0 10.045-4.439 10.162-9.9v-.234-27.362l-247.675-26.526-264.311 26.526v27.362.175c.088 5.52 4.614 9.959 10.133 9.959z" fill="#9fd4fe" fill-rule="evenodd"/></g><g><path clip-rule="evenodd" d="m.007 131.526h511.986v-69.793-.233c-.117-5.461-4.643-9.9-10.162-9.9h-491.691c-5.519 0-10.045 4.468-10.133 9.958v.175 69.793z" fill="#eb5468" fill-rule="evenodd"/></g><g><path clip-rule="evenodd" d="m367.038 51.6c13.549 23.975 25.318 50.841 35.012 79.926h109.943v-69.793-.233c-.117-5.461-4.643-9.9-10.162-9.9h-42.488v21.318c0 12.791-10.483 23.274-23.273 23.274s-23.273-10.484-23.273-23.274v-21.318z" fill="#e5384f" fill-rule="evenodd"/></g><g><path clip-rule="evenodd" d="m402.05 131.526c4.03 12.119 7.68 24.647 10.95 37.495h88.83c5.519 0 10.045-4.439 10.162-9.9v-.234-27.362h-109.942z" fill="#85beef" fill-rule="evenodd"/></g><g><path clip-rule="evenodd" d="m52.628 72.918c0 12.791 10.483 23.274 23.303 23.274 12.79 0 23.273-10.484 23.273-23.274v-21.318-28.326c0-12.82-10.484-23.274-23.274-23.274-12.819 0-23.302 10.454-23.302 23.274v28.326z" fill="#ffe07d" fill-rule="evenodd"/></g><g><path clip-rule="evenodd" d="m172.703 72.918c0 12.791 10.454 23.274 23.273 23.274 12.79 0 23.273-10.484 23.273-23.274v-21.318-28.326c.001-12.82-10.482-23.274-23.272-23.274-12.819 0-23.273 10.454-23.273 23.274v28.326 21.318z" fill="#ffe07d" fill-rule="evenodd"/></g><g><path clip-rule="evenodd" d="m292.75 72.918c0 12.791 10.454 23.274 23.273 23.274 12.79 0 23.273-10.484 23.273-23.274v-21.318-28.326c.001-12.82-10.483-23.274-23.273-23.274-12.819 0-23.273 10.454-23.273 23.274v28.326z" fill="#ffe07d" fill-rule="evenodd"/></g><g><path clip-rule="evenodd" d="m412.796 23.274v28.326 21.318c0 12.791 10.483 23.274 23.273 23.274s23.273-10.484 23.273-23.274v-21.318-28.326c.001-12.82-10.482-23.274-23.272-23.274s-23.274 10.454-23.274 23.274z" fill="#ffe07d" fill-rule="evenodd"/></g><g><path clip-rule="evenodd" d="m196.386 23.274v49.644c0 8.644-4.789 16.236-11.856 20.237 3.387 1.927 7.3 3.037 11.447 3.037 12.79 0 23.273-10.484 23.273-23.274v-21.318-28.326c0-12.82-10.483-23.274-23.273-23.274-4.147 0-8.06 1.08-11.447 3.008 7.067 4 11.856 11.593 11.856 20.266z" fill="#ffc250" fill-rule="evenodd"/></g><g><path clip-rule="evenodd" d="m76.339 23.274v49.644c0 8.644-4.789 16.236-11.856 20.237 3.387 1.927 7.3 3.037 11.447 3.037 12.79 0 23.273-10.484 23.273-23.274v-21.318-28.326c.001-12.82-10.483-23.274-23.273-23.274-4.147 0-8.06 1.08-11.447 3.008 7.067 4 11.856 11.593 11.856 20.266z" fill="#ffc250" fill-rule="evenodd"/></g><g><path clip-rule="evenodd" d="m316.432 23.274v49.644c0 8.644-4.789 16.236-11.826 20.237 3.358 1.927 7.271 3.037 11.418 3.037 12.79 0 23.273-10.484 23.273-23.274v-21.318-28.326c0-12.82-10.484-23.274-23.274-23.274-4.147 0-8.06 1.08-11.447 3.008 7.067 4 11.856 11.593 11.856 20.266z" fill="#ffc250" fill-rule="evenodd"/></g><g><path clip-rule="evenodd" d="m436.479 23.274v49.644c0 8.644-4.789 16.236-11.827 20.237 3.358 1.927 7.271 3.037 11.418 3.037 12.79 0 23.273-10.484 23.273-23.274v-21.318-28.326c0-12.82-10.483-23.274-23.273-23.274-4.147 0-8.06 1.08-11.418 3.008 7.038 4 11.827 11.593 11.827 20.266z" fill="#ffc250" fill-rule="evenodd"/></g><g><path clip-rule="evenodd" d="m432.916 224.476h-353.832c-8.235 0-14.98 6.746-14.98 14.981v202.108c0 8.235 6.745 14.981 14.98 14.981h353.832c8.235 0 14.98-6.746 14.98-14.981v-202.108c0-8.235-6.745-14.981-14.98-14.981z" fill="#95d6a4" fill-rule="evenodd"/></g><g><path clip-rule="evenodd" d="m413.001 169.022h-113.827c8.41 17.288 15.681 35.86 21.609 55.455h112.133c8.235 0 14.98 6.746 14.98 14.981v202.108c0 8.235-6.745 14.981-14.98 14.981h-105.475c-4.585 19.419-10.425 37.963-17.375 55.455h163.118c15.769 0 28.646-12.907 28.646-28.676v-314.304z" fill="#d9eeff" fill-rule="evenodd"/></g><g><path clip-rule="evenodd" d="m432.916 224.476h-112.133c3.738 12.294 6.95 24.997 9.578 38.021h45.729c0 18.66 15.126 33.787 33.786 33.787v88.453c-18.66 0-33.786 15.127-33.786 33.787h-41.437c-1.869 12.966-4.293 25.669-7.213 38.021h105.475c8.235 0 14.98-6.746 14.98-14.981v-202.107c.001-8.235-6.744-14.981-14.979-14.981z" fill="#78c2a4" fill-rule="evenodd"/></g><g><path clip-rule="evenodd" d="m376.09 262.497h-240.21c0 18.66-15.097 33.787-33.757 33.787v88.453c18.66 0 33.757 15.127 33.757 33.787h240.21c0-18.66 15.126-33.787 33.786-33.787v-88.453c-18.659 0-33.786-15.126-33.786-33.787z" fill="#eff6ff" fill-rule="evenodd"/></g><g><path clip-rule="evenodd" d="m409.876 296.284c-18.66 0-33.786-15.127-33.786-33.787h-45.729c3.796 18.689 6.453 38.08 7.826 57.995.73 10.659 1.11 21.464 1.11 32.385 0 2.57-.029 5.11-.058 7.651-.321 19.828-1.898 39.218-4.585 57.995h41.437c0-18.66 15.126-33.787 33.786-33.787v-88.452z" fill="#d9eeff" fill-rule="evenodd"/></g><g><path clip-rule="evenodd" d="m298.24 340.525c0-23.332-18.922-42.255-42.254-42.255s-42.225 18.923-42.225 42.255c0 23.303 18.893 42.226 42.225 42.226 23.331.001 42.254-18.922 42.254-42.226z" fill="#95d6a4" fill-rule="evenodd"/></g><g><path d="m359.592 368.256h-30.107c-4.267 0-7.726-3.459-7.726-7.726s3.459-7.726 7.726-7.726h30.107c4.267 0 7.726 3.459 7.726 7.726s-3.459 7.726-7.726 7.726zm-177.106 0h-30.077c-4.267 0-7.726-3.459-7.726-7.726s3.459-7.726 7.726-7.726h30.077c4.267 0 7.726 3.459 7.726 7.726s-3.459 7.726-7.726 7.726zm186.304-40.037h-39.305c-4.267 0-7.726-3.459-7.726-7.726s3.459-7.726 7.726-7.726h39.305c4.267 0 7.726 3.459 7.726 7.726s-3.459 7.726-7.726 7.726zm-186.304 0h-39.305c-4.267 0-7.726-3.459-7.726-7.726s3.459-7.726 7.726-7.726h39.305c4.267 0 7.726 3.459 7.726 7.726s-3.459 7.726-7.726 7.726z" fill="#95d6a4"/></g></g></svg>