<svg id="Capa_1" enable-background="new 0 0 512 512" height="512" viewBox="0 0 512 512" width="512" xmlns="http://www.w3.org/2000/svg"><g><g><path clip-rule="evenodd" d="m439.801 289.396v-144.093l-199.801-17.915-222.757 17.915v247.75c0 13.577 11.097 24.675 24.645 24.675h228.146z" fill="#eff6ff" fill-rule="evenodd"/></g><g><path clip-rule="evenodd" d="m351.494 145.303h-25.146c21.25 25.531 35.388 85.033 26.77 135.416 26.947-7.999 57.228-6.434 86.182 8.412.177.089.325.177.502.266v-144.094z" fill="#d9eeff" fill-rule="evenodd"/></g><g><path clip-rule="evenodd" d="m17.243 145.303h422.558c4.811 0 8.736-3.926 8.736-8.707v-27.124l-230.419-16.41-209.581 16.41v27.124c0 4.782 3.925 8.707 8.706 8.707z" fill="#9fd4fe" fill-rule="evenodd"/></g><g><path clip-rule="evenodd" d="m8.537 109.472h440.001v-56.374c0-4.781-3.925-8.707-8.736-8.707-144.886 0-277.671 0-422.558 0-4.781 0-8.707 3.925-8.707 8.707v56.374z" fill="#eb5468" fill-rule="evenodd"/></g><g><path clip-rule="evenodd" d="m73.704 72.843c11.009 0 20.011-9.002 20.011-20.011v-8.441-24.38c0-11.009-9.002-20.011-20.011-20.011s-20.01 9.002-20.01 20.011v24.38 8.441c0 11.009 9.001 20.011 20.01 20.011z" fill="#ffe07d" fill-rule="evenodd"/></g><g><path clip-rule="evenodd" d="m156.905 20.011v24.38 8.441c0 11.009 9.002 20.011 20.011 20.011s20.011-9.002 20.011-20.011v-8.441-24.38c0-11.009-9.002-20.011-20.011-20.011s-20.011 9.002-20.011 20.011z" fill="#ffe07d" fill-rule="evenodd"/></g><g><path clip-rule="evenodd" d="m260.117 20.011v24.38 8.441c0 11.009 9.002 20.011 20.011 20.011s20.011-9.002 20.011-20.011v-8.441-24.38c0-11.009-9.002-20.011-20.011-20.011s-20.011 9.002-20.011 20.011z" fill="#ffe07d" fill-rule="evenodd"/></g><g><path clip-rule="evenodd" d="m363.329 20.011v24.38 8.441c0 11.009 9.002 20.011 20.011 20.011s20.04-9.002 20.04-20.011v-8.441-24.38c0-11.009-9.031-20.011-20.04-20.011s-20.011 9.002-20.011 20.011z" fill="#ffe07d" fill-rule="evenodd"/></g><g><path clip-rule="evenodd" d="m351.494 145.303h88.307c4.811 0 8.736-3.926 8.736-8.707v-27.124h-100.939c2.184 11.629 3.512 23.612 3.896 35.831z" fill="#85beef" fill-rule="evenodd"/></g><g><path clip-rule="evenodd" d="m347.598 109.472h100.939v-56.374c0-4.781-3.925-8.707-8.736-8.707h-36.421v8.441c0 11.009-9.031 20.011-20.04 20.011s-20.011-9.002-20.011-20.011v-8.441h-38.989c10.862 19.805 18.831 41.734 23.258 65.081z" fill="#e5384f" fill-rule="evenodd"/></g><g><path clip-rule="evenodd" d="m93.715 20.011c0-11.009-9.002-20.011-20.011-20.011-4.043 0-7.792 1.21-10.95 3.276 5.903 3.483 9.858 9.917 9.858 17.237v23.878.502 8.441c0 6.966-3.601 13.164-9.061 16.735 2.981 1.771 6.464 2.774 10.153 2.774 11.009 0 20.011-9.002 20.011-20.011v-8.441z" fill="#ffc250" fill-rule="evenodd"/></g><g><path clip-rule="evenodd" d="m165.966 3.276c5.903 3.483 9.887 9.917 9.887 17.237v23.878.502 8.441c0 6.966-3.63 13.164-9.09 16.735 2.981 1.771 6.464 2.774 10.153 2.774 11.009 0 20.011-9.002 20.011-20.011v-8.441-24.38c0-11.009-9.002-20.011-20.011-20.011-4.014 0-7.792 1.21-10.95 3.276z" fill="#ffc250" fill-rule="evenodd"/></g><g><path clip-rule="evenodd" d="m269.208 3.276c5.873 3.483 9.858 9.917 9.858 17.237v23.878.502 8.441c0 6.966-3.63 13.164-9.09 16.735 2.981 1.771 6.464 2.774 10.153 2.774 11.009 0 20.011-9.002 20.011-20.011v-8.441-24.38c-.001-11.009-9.003-20.011-20.012-20.011-4.014 0-7.792 1.21-10.92 3.276z" fill="#ffc250" fill-rule="evenodd"/></g><g><path clip-rule="evenodd" d="m382.277 20.513v23.878.502 8.441c0 6.966-3.63 13.164-9.061 16.735 2.981 1.771 6.434 2.774 10.123 2.774 11.009 0 20.04-9.002 20.04-20.011v-8.441-24.38c.001-11.009-9.03-20.011-20.039-20.011-4.014 0-7.792 1.21-10.92 3.276 5.873 3.483 9.857 9.917 9.857 17.237z" fill="#ffc250" fill-rule="evenodd"/></g><g><path clip-rule="evenodd" d="m213.071 347.571v-40.318c0-6.434-5.283-11.718-11.717-11.718h-34.296c-6.434 0-11.717 5.283-11.717 11.718v40.318c0 6.464 5.283 11.718 11.717 11.718h34.296c6.434-.001 11.717-5.254 11.717-11.718z" fill="#95d6a4" fill-rule="evenodd"/></g><g><path clip-rule="evenodd" d="m109.919 255.365c6.434 0 11.717-5.254 11.717-11.718v-40.317c0-6.434-5.283-11.718-11.717-11.718h-34.296c-6.464 0-11.717 5.283-11.717 11.718v40.318c0 6.464 5.254 11.718 11.717 11.718h34.296z" fill="#95d6a4" fill-rule="evenodd"/></g><g><path clip-rule="evenodd" d="m155.341 203.33v40.318c0 6.464 5.254 11.718 11.717 11.718h34.296c6.434 0 11.717-5.254 11.717-11.718v-40.318c0-6.434-5.283-11.718-11.717-11.718h-34.296c-6.463.001-11.717 5.284-11.717 11.718z" fill="#95d6a4" fill-rule="evenodd"/></g><g><path clip-rule="evenodd" d="m121.636 347.571v-40.318c0-6.434-5.283-11.718-11.717-11.718h-34.296c-6.464 0-11.717 5.283-11.717 11.718v40.318c0 6.464 5.254 11.718 11.717 11.718h34.296c6.434-.001 11.717-5.254 11.717-11.718z" fill="#95d6a4" fill-rule="evenodd"/></g><g><path clip-rule="evenodd" d="m304.507 243.648v-40.318c0-6.434-5.283-11.718-11.717-11.718h-34.296c-6.434 0-11.717 5.283-11.717 11.718v40.318c0 6.464 5.283 11.718 11.717 11.718h34.296c6.434-.001 11.717-5.254 11.717-11.718z" fill="#95d6a4" fill-rule="evenodd"/></g><g><path clip-rule="evenodd" d="m385.553 512c64.961 0 117.91-52.95 117.91-117.884s-52.949-117.913-117.91-117.913c-64.932 0-117.88 52.98-117.88 117.913s52.949 117.884 117.88 117.884z" fill="#95d6a4" fill-rule="evenodd"/></g><g><path clip-rule="evenodd" d="m439.801 317.288c16.085 20.159 25.678 45.689 25.678 73.463 0 62.189-48.138 113.161-109.203 117.589 9.356 2.391 19.184 3.66 29.278 3.66 65.138 0 117.91-52.773 117.91-117.884 0-45.571-25.825-85.092-63.663-104.72l-.502-.266c-16.115-8.264-34.384-12.928-53.746-12.928-2.892 0-5.785.118-8.677.325 17.738 4.545 33.883 13.105 47.371 24.645 5.667 4.871 10.891 10.272 15.554 16.116z" fill="#78c2a4" fill-rule="evenodd"/></g><path d="m376.493 392.824h-20.549v-20.519c0-4.268-3.459-7.726-7.726-7.726s-7.726 3.459-7.726 7.726v20.519h-21.197c-4.268 0-7.726 3.459-7.726 7.726s3.459 7.726 7.726 7.726h21.197v21.228c0 4.268 3.459 7.726 7.726 7.726s7.726-3.459 7.726-7.726v-21.228h20.549c4.268 0 7.726-3.459 7.726-7.726s-3.458-7.726-7.726-7.726z" fill="#2b4d66"/><g><path d="m401.664 451.548c-1.038 0-2.094-.21-3.106-.655-3.906-1.717-5.681-6.277-3.964-10.183l33.281-75.702h-35.77c-4.268 0-7.726-3.459-7.726-7.726 0-4.268 3.459-7.726 7.726-7.726h47.607c2.61 0 5.043 1.318 6.47 3.503s1.654 4.944.604 7.333l-38.044 86.538c-1.273 2.894-4.106 4.618-7.078 4.618z" fill="#2b4d66"/></g></g></svg>