<svg id="Capa_1" enable-background="new 0 0 512 512" height="512" viewBox="0 0 512 512" width="512" xmlns="http://www.w3.org/2000/svg"><g><g><path clip-rule="evenodd" d="m192.547 56.431c-97.208 27.712-168.399 117.214-168.399 223.331 0 128.252 103.954 232.238 232.202 232.238 105.414 0 194.417-70.229 222.77-166.447 3.154-10.688-3.008-21.989-13.695-25.142-10.687-3.154-21.988 2.979-25.112 13.637-23.39 79.457-96.887 137.48-183.963 137.48-105.881 0-191.73-85.852-191.73-191.765s85.849-191.736 191.73-191.736c9.403 0 17.345-6.191 19.623-15.301 2.307-9.111-1.752-18.309-10.016-22.777l-88.302-47.54c-9.811-5.285-22.134-1.577-27.419 8.235s-1.577 22.135 8.235 27.42z" fill="#95d6a4" fill-rule="evenodd"/></g><g><path clip-rule="evenodd" d="m331.862 103.474c7.534 3.241 14.98 7.008 22.251 11.301 9.578 5.694 22.046 2.482 27.711-7.096 5.694-9.578 2.482-22.047-7.096-27.741-8.789-5.198-17.812-9.753-26.952-13.695-10.249-4.38-22.192.409-26.572 10.658-4.38 10.25.409 22.193 10.658 26.573z" fill="#95d6a4" fill-rule="evenodd"/></g><g><path clip-rule="evenodd" d="m407.375 129.58c-8.614 7.067-9.841 19.886-2.774 28.5 5.198 6.366 10.074 13.111 14.542 20.295 5.869 9.461 18.396 12.352 27.857 6.453s12.381-18.397 6.482-27.858c-5.402-8.702-11.301-16.908-17.608-24.587-7.066-8.614-19.885-9.87-28.499-2.803z" fill="#95d6a4" fill-rule="evenodd"/></g><g><path clip-rule="evenodd" d="m459.498 216.133c-10.892 2.307-17.9 13.082-15.593 24.003 1.664 8.03 2.862 16.294 3.533 24.704.847 11.126 10.629 19.477 21.725 18.601 11.125-.876 19.477-10.629 18.63-21.755-.818-10.191-2.248-20.178-4.292-29.931-2.307-10.921-13.082-17.929-24.003-15.622z" fill="#95d6a4" fill-rule="evenodd"/></g><g><path clip-rule="evenodd" d="m256.35 130.894c-82.199 0-148.864 66.637-148.864 148.868s66.665 148.868 148.864 148.868c82.229 0 148.864-66.637 148.864-148.868s-66.635-148.868-148.864-148.868z" fill="#eff6ff" fill-rule="evenodd"/></g><g><path clip-rule="evenodd" d="m256.35 138.428c57.846 20.412 99.311 75.573 99.311 140.429 0 64.827-41.465 119.988-99.311 140.4-8.819 3.125-18.017 5.431-27.507 6.833 8.906 1.694 18.104 2.541 27.507 2.541 82.229 0 148.864-66.637 148.864-148.868s-66.635-148.869-148.864-148.869c-7.475 0-14.834.555-22.046 1.606 7.563 1.431 14.95 3.417 22.046 5.928z" fill="#d9eeff" fill-rule="evenodd"/></g><g fill="#2b4d66"><path d="m256.35 123.168c-86.344 0-156.591 70.248-156.591 156.595s70.246 156.595 156.591 156.595 156.591-70.249 156.591-156.595-70.247-156.595-156.591-156.595zm123.197 164.057h17.743c-1.735 33.139-14.957 63.282-35.745 86.525l-12.632-12.612c-3.018-3.014-7.91-3.011-10.927.009-3.015 3.019-3.011 7.911.009 10.927l12.64 12.62c-23.221 20.887-53.383 34.197-86.56 35.996v-18.02c0-4.268-3.459-7.726-7.726-7.726s-7.726 3.459-7.726 7.726v18.02c-33.171-1.799-63.329-15.105-86.548-35.986l12.634-12.634c3.017-3.018 3.017-7.909 0-10.928-3.018-3.016-7.909-3.016-10.928 0l-12.618 12.618c-20.793-23.244-34.019-53.392-35.754-86.535h17.772c4.268 0 7.726-3.459 7.726-7.726s-3.459-7.726-7.726-7.726h-17.739c1.855-33.073 15.147-63.138 35.978-86.298l12.357 12.377c1.509 1.512 3.488 2.268 5.468 2.268 1.975 0 3.951-.753 5.459-2.259 3.02-3.015 3.024-7.906.009-10.927l-12.349-12.369c23.181-20.733 53.225-33.939 86.259-35.73v17.465c0 4.268 3.459 7.726 7.726 7.726s7.726-3.459 7.726-7.726v-17.465c33.039 1.791 63.088 15 86.27 35.738l-12.355 12.355c-3.017 3.018-3.017 7.909 0 10.928 1.509 1.508 3.487 2.263 5.464 2.263s3.955-.755 5.464-2.263l12.37-12.37c20.825 23.158 34.113 53.219 35.968 86.287h-17.71c-4.268 0-7.726 3.459-7.726 7.726s3.46 7.726 7.727 7.726z"/><path d="m225.521 187.083c-1.642-3.939-6.17-5.798-10.105-4.159-3.939 1.643-5.801 6.166-4.159 10.105l30.232 72.308c1.237 2.967 4.11 4.756 7.135 4.756.991 0 1.999-.192 2.97-.597 3.939-1.643 5.801-6.166 4.159-10.105z"/><path d="m317.7 271.773h-36.764c-4.268 0-7.726 3.459-7.726 7.726s3.459 7.726 7.726 7.726h36.764c4.268 0 7.726-3.459 7.726-7.726s-3.458-7.726-7.726-7.726z"/></g><g><path clip-rule="evenodd" d="m280.937 279.499c0-13.579-11.009-24.587-24.587-24.587s-24.587 11.009-24.587 24.587c0 13.579 11.009 24.587 24.587 24.587 13.578.001 24.587-11.008 24.587-24.587z" fill="#ffe07d" fill-rule="evenodd"/></g></g></svg>