<svg id="Capa_1" enable-background="new 0 0 512 512" height="512" viewBox="0 0 512 512" width="512" xmlns="http://www.w3.org/2000/svg"><g><g><path clip-rule="evenodd" d="m421.437 452.074v-263.947l-206.449-15.733-206.479 15.733v263.946c0 13.247 10.849 24.067 24.095 24.067h364.766c13.248.001 24.067-10.819 24.067-24.066z" fill="#eff6ff" fill-rule="evenodd"/></g><g><path clip-rule="evenodd" d="m8.509 188.127h412.928c4.679 0 8.539-3.831 8.539-8.51l-.029-22.985-214.959-17.809-214.988 17.81v22.985c0 4.678 3.831 8.509 8.509 8.509z" fill="#9fd4fe" fill-rule="evenodd"/></g><g><path clip-rule="evenodd" d="m0 156.633h429.947l.029-58.603c0-4.679-3.86-8.51-8.539-8.51-142.526 0-270.402 0-412.928 0-4.678 0-8.509 3.831-8.509 8.51z" fill="#eb5468" fill-rule="evenodd"/></g><g><path clip-rule="evenodd" d="m83.311 89.52v-23.804c0-10.761-8.802-19.534-19.563-19.534s-19.534 8.773-19.534 19.534v23.804 17.897c0 10.732 8.773 19.534 19.534 19.534s19.563-8.802 19.563-19.534z" fill="#ffe07d" fill-rule="evenodd"/></g><g><path clip-rule="evenodd" d="m145.012 65.716v23.804 17.897c0 10.732 8.802 19.534 19.563 19.534 10.732 0 19.534-8.802 19.534-19.534v-17.897-23.804c0-10.761-8.802-19.534-19.534-19.534-10.762 0-19.563 8.773-19.563 19.534z" fill="#ffe07d" fill-rule="evenodd"/></g><g><path clip-rule="evenodd" d="m245.838 65.716v23.804 17.897c0 10.732 8.802 19.534 19.563 19.534 10.732 0 19.534-8.802 19.534-19.534v-17.897-23.804c0-10.761-8.802-19.534-19.563-19.534-10.732 0-19.534 8.773-19.534 19.534z" fill="#ffe07d" fill-rule="evenodd"/></g><g><path clip-rule="evenodd" d="m284.935 65.716c0-10.761-8.802-19.534-19.563-19.534-3.772 0-7.311 1.082-10.293 2.954 5.527 3.451 9.211 9.621 9.211 16.581v23.803 17.897c0 6.96-3.684 13.101-9.211 16.581 2.983 1.872 6.521 2.954 10.322 2.954 10.732 0 19.534-8.802 19.534-19.534v-17.898z" fill="#ffc250" fill-rule="evenodd"/></g><g><path clip-rule="evenodd" d="m184.108 65.716c0-10.761-8.802-19.534-19.534-19.534-3.772 0-7.311 1.082-10.322 2.954 5.527 3.451 9.241 9.621 9.241 16.581v23.803 17.897c0 6.96-3.714 13.101-9.241 16.581 3.012 1.872 6.55 2.954 10.322 2.954 10.732 0 19.534-8.802 19.534-19.534v-17.898z" fill="#ffc250" fill-rule="evenodd"/></g><g><path clip-rule="evenodd" d="m83.311 65.716c0-10.761-8.802-19.534-19.563-19.534-3.772 0-7.311 1.082-10.322 2.954 5.556 3.451 9.241 9.621 9.241 16.581v23.803 17.897c0 6.96-3.685 13.101-9.241 16.581 3.012 1.872 6.55 2.954 10.322 2.954 10.761 0 19.563-8.802 19.563-19.534v-17.898z" fill="#ffc250" fill-rule="evenodd"/></g><g><path clip-rule="evenodd" d="m168.025 322.762-75.708-75.681c-7.281-7.281-19.183-7.281-26.464 0s-7.281 19.183 0 26.494l53.63 53.953c3.714 3.743 3.714 5.468 0 9.211l-53.63 53.982c-7.281 7.311-7.281 19.213 0 26.494s19.183 7.281 26.464 0l75.708-75.71c5.088-5.087 5.088-13.655 0-18.743z" fill="#95d6a4" fill-rule="evenodd"/></g><g><path clip-rule="evenodd" d="m178.932 273.575 53.63 53.953c3.714 3.743 3.714 5.468 0 9.211l-53.63 53.982c-7.281 7.311-7.281 19.213 0 26.494s19.183 7.281 26.464 0l75.708-75.71c5.088-5.088 5.088-13.656 0-18.745l-75.708-75.681c-7.281-7.281-19.183-7.281-26.464 0-7.281 7.283-7.281 19.185 0 26.496z" fill="#95d6a4" fill-rule="evenodd"/></g><g><path clip-rule="evenodd" d="m321.78 262.287v139.693c0 10.323 8.451 18.745 18.744 18.745s18.715-8.422 18.715-18.745v-139.693c0-10.294-8.422-18.715-18.715-18.715s-18.744 8.422-18.744 18.715z" fill="#95d6a4" fill-rule="evenodd"/></g><g><path clip-rule="evenodd" d="m336.518 89.52h-51.583v6.697c7.457 15.528 14.299 32.284 20.44 50.093 1.17 3.421 2.31 6.843 3.421 10.323h24.037c-.877-2.69-1.638-5.439-2.281-8.246-1.55-6.638-2.339-13.539-2.339-20.645 0-13.629 2.983-26.583 8.305-38.222z" fill="#e5384f" fill-rule="evenodd"/></g><g><path clip-rule="evenodd" d="m332.834 156.633h-24.037c2.456 7.632 4.766 15.469 6.96 23.453.731 2.661 1.433 5.351 2.135 8.042h32.956c-1.608-1.842-3.158-3.743-4.62-5.732-5.733-7.75-10.295-16.406-13.394-25.763z" fill="#85beef" fill-rule="evenodd"/></g><g><path clip-rule="evenodd" d="m350.847 188.127h-32.956c4.854 18.715 8.948 38.279 12.282 58.574 2.953-1.989 6.521-3.129 10.352-3.129 10.293 0 18.715 8.422 18.715 18.715v139.693c0 10.323-8.422 18.745-18.715 18.745-.848 0-1.667-.058-2.486-.175-1.257 19.008-3.217 37.577-5.79 55.591h65.122c13.247 0 24.066-10.82 24.066-24.067v-232.452c-.439 0-.877 0-1.345 0-7.866 0-15.528-.994-22.838-2.837-18.276-4.679-34.359-14.855-46.407-28.658z" fill="#d9eeff" fill-rule="evenodd"/></g><g><path clip-rule="evenodd" d="m359.239 262.287c0-10.294-8.422-18.715-18.715-18.715-3.831 0-7.398 1.14-10.352 3.129 6.229 38.308 9.591 79.16 9.591 121.621 0 17.692-.585 35.15-1.725 52.228.819.117 1.638.175 2.486.175 10.293 0 18.715-8.422 18.715-18.745z" fill="#78c2a4" fill-rule="evenodd"/></g><g><path clip-rule="evenodd" d="m420.092 219.622c50.618 0 91.908-41.262 91.908-91.881s-41.29-91.881-91.908-91.881c-50.589 0-91.879 41.262-91.879 91.881s41.29 91.881 91.879 91.881z" fill="#95d6a4" fill-rule="evenodd"/></g><g><path clip-rule="evenodd" d="m462.376 67.851c12.516 15.733 20.031 35.618 20.031 57.287 0 48.455-37.547 88.167-85.153 91.647 7.311 1.842 14.972 2.837 22.838 2.837 50.764 0 91.908-41.116 91.908-91.881 0-35.501-20.148-66.294-49.624-81.617l-.409-.205c-12.545-6.433-26.786-10.06-41.875-10.06-2.281 0-4.533.088-6.755.234 13.832 3.538 26.406 10.206 36.904 19.213 4.444 3.802 8.509 7.983 12.135 12.545z" fill="#78c2a4" fill-rule="evenodd"/></g><g fill="#2b4d66"><path d="m420.999 124.342h-14.322v-14.323c0-4.268-3.459-7.726-7.726-7.726s-7.726 3.459-7.726 7.726v14.323h-14.819c-4.267 0-7.726 3.459-7.726 7.726 0 4.268 3.459 7.726 7.726 7.726h14.819v14.82c0 4.268 3.459 7.726 7.726 7.726s7.726-3.459 7.726-7.726v-14.82h14.322c4.267 0 7.726-3.459 7.726-7.726s-3.459-7.726-7.726-7.726z"/><path d="m450.416 88.402h-13.568c-4.267 0-7.726 3.459-7.726 7.726 0 4.268 3.459 7.726 7.726 7.726h5.842v55.673c0 4.268 3.459 7.726 7.726 7.726s7.726-3.459 7.726-7.726v-63.398c0-4.268-3.459-7.727-7.726-7.727z"/></g></g></svg>