<svg id="Capa_1" enable-background="new 0 0 512 512" height="512" viewBox="0 0 512 512" width="512" xmlns="http://www.w3.org/2000/svg"><g><g><path clip-rule="evenodd" d="m356.701 447.493c-18.426-14.922-47.014-4.439-38.809 27.304l30.369 30.37c9.082 9.111 23.945 9.111 33.056 0 9.082-9.082 9.082-23.946 0-33.057z" fill="#c38c66" fill-rule="evenodd"/></g><g><path clip-rule="evenodd" d="m356.701 447.493c-4.03 3.971-8.264 7.68-12.703 11.155l14.805 14.805c7.855 7.855 8.906 20.033 3.212 29.056-1.08 2.103-2.511 4.088-4.263 5.87-.672.642-1.343 1.256-2.044 1.811 8.498 3.533 18.718 1.869 25.61-5.023 9.082-9.082 9.082-23.946 0-33.057z" fill="#b57f5f" fill-rule="evenodd"/></g><g><path clip-rule="evenodd" d="m194.108 474.797c-4.147-19.449-12.995-33.904-38.809-27.275l-24.587 24.588c-9.111 9.111-9.111 23.975 0 33.057 9.082 9.111 23.945 9.111 33.027 0z" fill="#c38c66" fill-rule="evenodd"/></g><g><path clip-rule="evenodd" d="m157.84 484.462c-9.111 9.111-23.974 9.111-33.056 0-.146-.146-.292-.292-.438-.438-1.489 7.417.642 15.419 6.366 21.142 9.082 9.111 23.945 9.111 33.027 0l30.369-30.37c-1.577-7.388-3.825-14.075-7.446-19.157l-9.549 9.549z" fill="#b57f5f" fill-rule="evenodd"/></g><g><path clip-rule="evenodd" d="m458 447.463c14.659 0 26.661-12.002 26.661-26.691v-263.548l-228.675-11.593-228.647 11.593v263.549c0 14.689 12.002 26.691 26.661 26.691 132.837-.001 371.411-.001 404-.001z" fill="#eff6ff" fill-rule="evenodd"/></g><g><path clip-rule="evenodd" d="m494.093 122.327-234.924-12.002-241.262 12.002v25.464c0 5.169 4.234 9.432 9.432 9.432h457.321c5.198 0 9.432-4.263 9.432-9.432v-25.464z" fill="#9fd4fe" fill-rule="evenodd"/></g><g><path clip-rule="evenodd" d="m17.907 122.327h476.185v-.292-64.595c0-5.198-4.234-9.461-9.432-9.461-157.833 0-299.488 0-457.321 0-5.198 0-9.432 4.264-9.432 9.461v64.887z" fill="#eb5468" fill-rule="evenodd"/></g><g><path clip-rule="evenodd" d="m110.154 67.807v-19.828-26.34c0-11.915-9.724-21.639-21.638-21.639s-21.667 9.724-21.667 21.639v26.34 19.828c0 11.914 9.753 21.639 21.667 21.639s21.638-9.724 21.638-21.639z" fill="#ffe07d" fill-rule="evenodd"/></g><g><path clip-rule="evenodd" d="m178.514 21.639v26.34 19.828c0 11.914 9.753 21.639 21.667 21.639 11.885 0 21.638-9.724 21.638-21.639v-19.828-26.34c.001-11.915-9.752-21.639-21.637-21.639-11.914 0-21.668 9.724-21.668 21.639z" fill="#ffe07d" fill-rule="evenodd"/></g><g><path clip-rule="evenodd" d="m290.18 21.639v26.34 19.828c0 11.914 9.753 21.639 21.638 21.639 11.914 0 21.667-9.724 21.667-21.639v-19.828-26.34c.001-11.915-9.753-21.639-21.667-21.639-11.885 0-21.638 9.724-21.638 21.639z" fill="#ffe07d" fill-rule="evenodd"/></g><g><path clip-rule="evenodd" d="m401.846 21.639v26.34 19.828c0 11.914 9.724 21.639 21.638 21.639s21.667-9.724 21.667-21.639v-19.828-26.34c0-11.915-9.753-21.639-21.667-21.639s-21.638 9.724-21.638 21.639z" fill="#ffe07d" fill-rule="evenodd"/></g><g><path clip-rule="evenodd" d="m445.151 67.807c0 11.914-9.753 21.639-21.667 21.639s-21.638-9.724-21.638-21.639v-19.828h-44.357c10.629 21.084 19.828 44.124 27.362 68.771.555 1.84 1.139 3.709 1.664 5.578h107.578v-.292-64.596c0-5.198-4.234-9.461-9.432-9.461h-39.509v19.828z" fill="#e5384f" fill-rule="evenodd"/></g><g><path clip-rule="evenodd" d="m494.093 122.327h-107.578c2.891 9.87 5.519 19.974 7.884 30.312.35 1.519.672 3.037 1.022 4.585h89.239c5.198 0 9.432-4.263 9.432-9.432v-25.465z" fill="#85beef" fill-rule="evenodd"/></g><g><path clip-rule="evenodd" d="m484.661 157.224h-89.239-64.681c3.475 14.28 6.424 28.998 8.79 44.095l9.695-9.724 9.987 50.636 50.635 9.987-26.778 26.778c10.396 19.857 16.294 42.46 16.294 66.435 0 39.919-16.294 76.042-42.634 102.032h101.27c14.659 0 26.661-12.002 26.661-26.691z" fill="#d9eeff" fill-rule="evenodd"/></g><g><path clip-rule="evenodd" d="m255.985 202.078c-79.165 0-143.349 64.186-143.349 143.353 0 39.919 16.294 76.042 42.634 102.032 0 0 .029.029.029.058 11.272 11.097 24.383 20.354 38.809 27.275 18.747 8.994 39.743 14.017 61.878 14.017 22.164 0 43.16-5.023 61.907-14.017 14.425-6.921 27.537-16.178 38.809-27.304l.029-.029c26.34-25.99 42.634-62.113 42.634-102.032 0-23.975-5.899-46.577-16.294-66.435l-60.622-60.624c-19.858-10.424-42.46-16.294-66.464-16.294z" fill="#9fd4fe" fill-rule="evenodd"/></g><g><path clip-rule="evenodd" d="m292.691 308.754c9.374 9.403 15.185 22.369 15.185 36.678 0 28.647-23.215 51.892-51.861 51.892-28.676 0-51.891-23.245-51.891-51.892s23.215-51.863 51.891-51.863c14.308-.001 27.274 5.811 36.676 15.185zm-36.676-60.945c-53.935 0-97.649 43.716-97.649 97.623 0 53.936 43.714 97.623 97.649 97.623 53.906 0 97.62-43.686 97.62-97.623 0-18.397-5.11-35.597-13.958-50.286l-27.858-5.519-5.519-27.859c-14.689-8.849-31.889-13.959-50.285-13.959z" fill="#ffe07d" fill-rule="evenodd"/></g><g><path clip-rule="evenodd" d="m292.691 308.754c-9.403-9.374-22.368-15.185-36.677-15.185-28.676 0-51.891 23.216-51.891 51.863s23.215 51.892 51.891 51.892c28.646 0 51.861-23.245 51.861-51.892.001-14.31-5.81-27.275-15.184-36.678z" fill="#eb5468" fill-rule="evenodd"/></g><g><path clip-rule="evenodd" d="m306.299 261.767 5.519 27.859 35.042-18.689 12.352-28.706-9.987-50.636-26.777 26.778-20.646 20.646z" fill="#eb5468" fill-rule="evenodd"/></g><g><path clip-rule="evenodd" d="m359.212 242.231-47.394 47.395 27.858 5.519 22.748 4.468 20.645-20.616 26.778-26.779z" fill="#e5384f" fill-rule="evenodd"/></g><g><path clip-rule="evenodd" d="m292.691 308.754c-5.782-5.782-12.936-10.192-20.908-12.732 1.226 10.133 2.073 20.529 2.511 31.129.234 5.373.321 10.805.321 16.295 0 17.726-1.139 34.984-3.358 51.6 21.2-6.512 36.618-26.253 36.618-49.614.001-14.31-5.81-27.275-15.184-36.678z" fill="#e5384f" fill-rule="evenodd"/></g><g><path clip-rule="evenodd" d="m292.691 308.754c9.374 9.403 15.185 22.369 15.185 36.678 0 23.362-15.418 43.102-36.618 49.614-2.219 16.704-5.49 32.736-9.695 47.862 51.336-2.891 92.072-45.409 92.072-97.477 0-18.397-5.11-35.597-13.958-50.286l-27.858-5.519-5.519-27.859c-12.907-7.768-27.741-12.645-43.627-13.725 4.001 15.185 7.096 31.246 9.111 47.979 7.971 2.541 15.126 6.951 20.907 12.733z" fill="#ffc250" fill-rule="evenodd"/></g><g><path clip-rule="evenodd" d="m339.676 295.145c8.848 14.689 13.958 31.889 13.958 50.286 0 52.067-40.736 94.586-92.072 97.477-4.526 16.295-10.104 31.538-16.645 45.497 3.679.263 7.359.409 11.067.409 22.164 0 43.16-5.023 61.907-14.017 14.425-6.921 27.537-16.178 38.809-27.304l.029-.029c26.34-25.99 42.634-62.113 42.634-102.032 0-23.975-5.899-46.577-16.294-66.435l-20.645 20.617z" fill="#85beef" fill-rule="evenodd"/></g><g><path clip-rule="evenodd" d="m306.299 261.767-4.497-22.748 20.645-20.646c-19.857-10.425-42.459-16.295-66.462-16.295-3.125 0-6.22.088-9.286.292 6.278 14.046 11.651 29.377 15.973 45.672 15.886 1.081 30.72 5.958 43.627 13.725z" fill="#85beef" fill-rule="evenodd"/></g><g><path clip-rule="evenodd" d="m110.154 21.639c0-11.915-9.724-21.639-21.638-21.639-3.738 0-7.242.934-10.308 2.628 6.745 3.679 11.359 10.834 11.359 19.011v46.168c0 8.177-4.614 15.36-11.359 19.04 3.066 1.665 6.57 2.599 10.308 2.599 11.914 0 21.638-9.724 21.638-21.639z" fill="#ffc250" fill-rule="evenodd"/></g><g><path clip-rule="evenodd" d="m189.874 2.628c6.745 3.679 11.33 10.834 11.33 19.011v46.168c0 8.177-4.585 15.36-11.33 19.04 3.066 1.665 6.57 2.599 10.308 2.599 11.885 0 21.638-9.724 21.638-21.639v-46.168c0-11.915-9.753-21.639-21.638-21.639-3.738 0-7.242.934-10.308 2.628z" fill="#ffc250" fill-rule="evenodd"/></g><g><path clip-rule="evenodd" d="m301.539 2.628c6.745 3.679 11.33 10.834 11.33 19.011v26.34 19.828c0 8.177-4.585 15.36-11.33 19.04 3.066 1.665 6.57 2.599 10.279 2.599 11.914 0 21.667-9.724 21.667-21.639v-19.828-26.34c.001-11.915-9.753-21.639-21.667-21.639-3.708 0-7.212.934-10.279 2.628z" fill="#ffc250" fill-rule="evenodd"/></g><g><path clip-rule="evenodd" d="m424.535 21.639v26.34 19.828c0 8.177-4.614 15.36-11.359 19.04 3.066 1.665 6.599 2.599 10.308 2.599 11.914 0 21.667-9.724 21.667-21.639v-19.828-26.34c0-11.915-9.753-21.639-21.667-21.639-3.709 0-7.242.934-10.308 2.628 6.745 3.68 11.359 10.834 11.359 19.011z" fill="#ffc250" fill-rule="evenodd"/></g><g><path d="m255.985 353.158c-1.978 0-3.955-.755-5.464-2.264-3.017-3.017-3.017-7.909.001-10.927l134.414-134.388c3.017-3.017 7.909-3.016 10.927.001 3.017 3.017 3.017 7.909-.001 10.927l-134.414 134.388c-1.508 1.508-3.486 2.263-5.463 2.263z" fill="#c38c66"/></g></g></svg>