<svg id="Capa_1" enable-background="new 0 0 512 512" height="512" viewBox="0 0 512 512" width="512" xmlns="http://www.w3.org/2000/svg"><g><g><path clip-rule="evenodd" d="m.007 18.543v322.187h511.986v-322.187c0-10.22-8.351-18.543-18.543-18.543h-474.9c-10.221 0-18.543 8.323-18.543 18.543z" fill="#9fd4fe" fill-rule="evenodd"/></g><g><path clip-rule="evenodd" d="m302.007 258.76c-2.949 0-5.373 2.424-5.373 5.373v28.238c0 2.949 2.424 5.373 5.373 5.373h161.337c2.949 0 5.373-2.424 5.373-5.373v-28.238c0-2.949-2.424-5.373-5.373-5.373z" fill="#ffe07d" fill-rule="evenodd"/></g><g><path clip-rule="evenodd" d="m151.036 278.237c59.483 0 107.724-48.213 107.724-107.726s-48.241-107.756-107.724-107.756c-59.512 0-107.753 48.242-107.753 107.756s48.241 107.726 107.753 107.726zm17.784-107.93c0 9.812-7.972 17.784-17.784 17.784-9.841 0-17.813-7.972-17.813-17.784 0-9.841 7.972-17.784 17.813-17.784 9.812-.001 17.784 7.942 17.784 17.784z" fill="#eff6ff" fill-rule="evenodd"/></g><g><path clip-rule="evenodd" d="m296.634 203.188c0 3.066 2.511 5.548 5.577 5.548h51.774v-55.163h-57.351z" fill="#eff6ff" fill-rule="evenodd"/></g><g><path clip-rule="evenodd" d="m296.634 98.411h57.351v55.163h-57.351z" fill="#eff6ff" fill-rule="evenodd"/></g><g><path clip-rule="evenodd" d="m296.634 98.411h57.351v-55.163h-51.774c-3.066 0-5.577 2.511-5.577 5.578z" fill="#eff6ff" fill-rule="evenodd"/></g><g><path clip-rule="evenodd" d="m353.985 43.248h57.381v55.163h-57.381z" fill="#eff6ff" fill-rule="evenodd"/></g><g><path clip-rule="evenodd" d="m353.985 98.411h57.381v55.163h-57.381z" fill="#eff6ff" fill-rule="evenodd"/></g><g><path clip-rule="evenodd" d="m353.985 153.574h57.381v55.163h-57.381z" fill="#eff6ff" fill-rule="evenodd"/></g><g><path clip-rule="evenodd" d="m411.365 153.574v55.163h51.803c3.037 0 5.548-2.482 5.548-5.548v-49.614h-57.351z" fill="#eb5468" fill-rule="evenodd"/></g><g><path clip-rule="evenodd" d="m411.365 98.411h57.351v55.163h-57.351z" fill="#eff6ff" fill-rule="evenodd"/></g><g><path clip-rule="evenodd" d="m411.365 98.411h57.351v-49.585c0-3.066-2.511-5.578-5.548-5.578h-51.803z" fill="#eff6ff" fill-rule="evenodd"/></g><g><path clip-rule="evenodd" d="m327.558 394.316-69.908-15.477-73.237 15.477-20.587 64.887 93.824 12.995 90.524-12.995z" fill="#365e7d" fill-rule="evenodd"/></g><g><path clip-rule="evenodd" d="m348.174 459.203h-184.348-33.114c-14.513 0-26.398 11.885-26.398 26.399v21.084c0 2.803 2.219 5.14 4.964 5.315h293.414c2.774-.175 4.964-2.511 4.964-5.315v-21.084c0-14.513-11.885-26.399-26.398-26.399z" fill="#407093" fill-rule="evenodd"/></g><g><path clip-rule="evenodd" d="m511.993 340.73h-511.986v35.043c0 10.191 8.322 18.543 18.543 18.543h165.863 143.145 165.892c10.191 0 18.543-8.352 18.543-18.543z" fill="#407093" fill-rule="evenodd"/></g><g><path clip-rule="evenodd" d="m151.036 65.062c41.115 15.185 70.433 54.725 70.433 101.127s-29.318 85.942-70.433 101.127c-9.724 3.592-20.12 5.811-30.924 6.424 9.782 2.949 20.178 4.497 30.924 4.497 59.483 0 107.724-48.213 107.724-107.726s-48.241-107.756-107.724-107.756c-2.161 0-4.293.058-6.395.175 2.161.643 4.292 1.373 6.395 2.132z" fill="#d9eeff" fill-rule="evenodd"/></g><g><path clip-rule="evenodd" d="m511.993 340.73h-128.778c-17.813 20.792-38.663 38.459-61.848 52.213-.759.467-1.548.905-2.336 1.373h8.527 165.892c10.191 0 18.543-8.352 18.543-18.543z" fill="#365e7d" fill-rule="evenodd"/></g><g><path clip-rule="evenodd" d="m383.215 340.73h128.778v-322.187c0-10.22-8.351-18.543-18.543-18.543h-96.86c9.724 13.433 18.251 27.917 25.434 43.248h41.145c3.037 0 5.548 2.511 5.548 5.578v49.585 55.163 49.614c0 3.066-2.511 5.548-5.548 5.548h-18.864c-2.891 17.317-7.359 34.05-13.199 50.023h32.238c2.949 0 5.373 2.424 5.373 5.373v28.238c0 2.949-2.424 5.373-5.373 5.373h-50.139c-8.643 15.449-18.689 29.846-29.99 42.987z" fill="#85beef" fill-rule="evenodd"/></g><g><path clip-rule="evenodd" d="m413.205 297.744h50.139c2.949 0 5.373-2.424 5.373-5.373v-28.238c0-2.949-2.424-5.373-5.373-5.373h-32.238c-4.994 13.579-10.98 26.603-17.901 38.984z" fill="#ffc250" fill-rule="evenodd"/></g><g><path clip-rule="evenodd" d="m444.304 208.736h18.864c3.037 0 5.548-2.482 5.548-5.548v-49.614h-20.704c.088 2.774.117 5.548.117 8.323.001 15.973-1.313 31.654-3.825 46.839z" fill="#e5384f" fill-rule="evenodd"/></g><g><path clip-rule="evenodd" d="m448.013 153.574h20.704v-55.163h-27.712c4.059 17.755 6.482 36.211 7.008 55.163z" fill="#d9eeff" fill-rule="evenodd"/></g><g><path clip-rule="evenodd" d="m441.005 98.411h27.712v-49.585c0-3.066-2.511-5.578-5.548-5.578h-41.145c8.147 17.376 14.542 35.86 18.981 55.163z" fill="#d9eeff" fill-rule="evenodd"/></g><g><path clip-rule="evenodd" d="m348.174 459.203h-12.819c2.336 0 4.585.321 6.716.876 11.301 3.008 19.682 13.345 19.682 25.523v21.084c0 2.803-2.19 5.14-4.964 5.315h45.904c2.774-.175 4.964-2.511 4.964-5.315v-21.084c0-14.513-11.885-26.399-26.398-26.399z" fill="#365e7d" fill-rule="evenodd"/></g><g fill="#2b4d66"><path d="m319.031 394.316h-37.378l20.587 64.887h33.115 12.819l-20.616-64.887z"/><path d="m151.036 55.029c-63.675 0-115.479 51.805-115.479 115.482 0 63.661 51.804 115.453 115.479 115.453 63.659 0 115.45-51.792 115.45-115.453 0-63.677-51.791-115.482-115.45-115.482zm89.151 123.004h10.564c-1.629 21.803-10.283 41.677-23.695 57.368l-7.511-7.511c-3.018-3.016-7.909-3.016-10.928 0-3.017 3.018-3.017 7.909 0 10.928l7.528 7.528c-15.676 13.479-35.559 22.194-57.383 23.869v-10.754c0-4.268-3.459-7.726-7.726-7.726-4.268 0-7.726 3.459-7.726 7.726v10.755c-21.831-1.675-41.721-10.39-57.402-23.869l7.539-7.523c3.02-3.014 3.025-7.905.011-10.927s-7.906-3.024-10.927-.011l-7.535 7.519c-13.418-15.691-22.075-35.567-23.705-57.371h10.592c4.268 0 7.726-3.459 7.726-7.726s-3.459-7.726-7.726-7.726h-10.56c1.714-21.749 10.414-41.561 23.851-57.193l7.357 7.341c1.509 1.505 3.483 2.258 5.458 2.258 1.98 0 3.96-.757 5.469-2.269 3.014-3.021 3.009-7.912-.011-10.927l-7.33-7.314c15.648-13.381 35.457-22.03 57.192-23.699v10.375c0 4.268 3.459 7.726 7.726 7.726 4.268 0 7.726-3.459 7.726-7.726v-10.376c21.725 1.668 41.525 10.316 57.167 23.693l-7.334 7.318c-3.021 3.014-3.027 7.906-.013 10.927 1.51 1.513 3.489 2.27 5.47 2.27 1.974 0 3.95-.753 5.458-2.257l7.362-7.345c13.435 15.632 22.134 35.446 23.847 57.196h-10.532c-4.268 0-7.726 3.459-7.726 7.726s3.46 7.727 7.727 7.727z"/><path d="m130.66 102.593c-1.642-3.938-6.166-5.797-10.105-4.159-3.939 1.642-5.801 6.166-4.159 10.105l20.207 48.476c1.237 2.967 4.11 4.756 7.135 4.756.991 0 1.998-.192 2.97-.597 3.939-1.642 5.801-6.166 4.159-10.105z"/><path d="m195.422 162.58h-26.602c-4.268 0-7.726 3.459-7.726 7.726s3.459 7.726 7.726 7.726h26.602c4.268 0 7.726-3.459 7.726-7.726s-3.459-7.726-7.726-7.726z"/><path d="m463.169 35.522h-160.958c-7.336 0-13.304 5.968-13.304 13.304v154.362c0 7.32 5.968 13.275 13.304 13.275h160.958c7.319 0 13.274-5.955 13.274-13.275v-154.362c0-7.336-5.955-13.304-13.274-13.304zm-158.809 70.616h41.898v39.709h-41.898zm99.279 39.709h-41.928v-39.709h41.928zm0-55.162h-41.928v-39.71h41.928zm-41.928 70.615h41.928v39.71h-41.928zm57.381-55.162h41.898v39.709h-41.898zm41.898-15.453h-41.898v-39.71h41.898zm-114.731-39.71v39.71h-41.899v-39.71zm-41.899 110.325h41.898v39.71h-41.898zm114.732 39.71v-39.71h41.898v39.71z"/></g><g><path clip-rule="evenodd" d="m151.036 188.091c9.812 0 17.784-7.972 17.784-17.784 0-9.841-7.972-17.784-17.784-17.784-9.841 0-17.813 7.943-17.813 17.784 0 9.811 7.972 17.784 17.813 17.784z" fill="#ffe07d" fill-rule="evenodd"/></g></g></svg>