<svg id="Capa_1" enable-background="new 0 0 512 512" height="512" viewBox="0 0 512 512" width="512" xmlns="http://www.w3.org/2000/svg"><g><g><path clip-rule="evenodd" d="m446.5 29.7h45.5v183.2h-45.5z" fill="#9fd4fe" fill-rule="evenodd"/></g><g><path clip-rule="evenodd" d="m20 29.7h45.5v183.2h-45.5z" fill="#9fd4fe" fill-rule="evenodd"/></g><g><path clip-rule="evenodd" d="m20 299.1h45.5v183.2h-45.5z" fill="#9fd4fe" fill-rule="evenodd"/></g><g><path clip-rule="evenodd" d="m446.5 299.1v172.9l23.5 20 22-20v-172.9z" fill="#9fd4fe" fill-rule="evenodd"/></g><g><path clip-rule="evenodd" d="m446.5 309.4h45.5c9.8 0 17.8-8 17.8-17.8s-8-17.8-17.8-17.8h-45.5c-9.8 0-17.8 8-17.8 17.8s8 17.8 17.8 17.8z" fill="#ffe07d" fill-rule="evenodd"/></g><g><path clip-rule="evenodd" d="m446.5 273.8 22.7 17.3 22.7-17.3c9.8 0 17.8-8 17.8-17.8s-9.1-13.2-17.8-17.8l-22.7-12-22.7 12c-8.7 4.6-17.8 8-17.8 17.8s8 17.8 17.8 17.8z" fill="#ffe07d" fill-rule="evenodd"/></g><g><path clip-rule="evenodd" d="m446.5 238.2h45.5c9.8 0 17.8-8 17.8-17.8s-8-17.8-17.8-17.8h-45.5c-9.8 0-17.8 8-17.8 17.8s8 17.8 17.8 17.8z" fill="#ffe07d" fill-rule="evenodd"/></g><g><path clip-rule="evenodd" d="m233.2 256c0 13.1-7.2 26.2-21.5 33.5-35.7 18.3-70.5 55.5-70.5 98.1v31.6c10 2.9 18.1 31.2 21.6 40.9h186.5c3.5-9.8 11.5-38 21.6-40.9v-31.6c0-42.6-34.8-79.8-70.5-98.1-14.3-7.3-21.5-20.4-21.5-33.4-1.7 29.7-44.1 29.7-45.7-.1z" fill="#eff6ff" fill-rule="evenodd"/></g><g><path clip-rule="evenodd" d="m268.2 62.1h-105.5c-3.5 9.8-11.5 17.4-21.6 20.4v41.9c0 6.8.9 13.4 2.5 19.9 41.9 10.2 68.2 25.2 120 25.2 35.8 0 73.6-13 105.5-29 1.1-5.2 1.6-10.6 1.6-16v-42c-10-2.9-18.1-10.6-21.6-20.4z" fill="#eff6ff" fill-rule="evenodd"/></g><g><path clip-rule="evenodd" d="m278.8 256c-1.5 28.8-13.2 34.7-21.8 35.1 3.4 4.2 7.9 7.9 13.4 10.7 35.7 18.3 70.5 55.5 70.5 98.1v10.7c4.9 8.8 7.9 18.6 8.4 28.9 3.5-9.8 11.5-17.4 21.6-20.4v-31.6c0-42.6-34.8-79.8-70.5-98.1-14.5-7.3-21.6-20.3-21.6-33.4z" fill="#d9eeff" fill-rule="evenodd"/></g><g><path clip-rule="evenodd" d="m469.3 39.9h22.7v162.6h-22.7z" fill="#85beef" fill-rule="evenodd"/></g><g><path clip-rule="evenodd" d="m469.3 309.4h22.7v162.6h-22.7z" fill="#85beef" fill-rule="evenodd"/></g><g><path clip-rule="evenodd" d="m348.9 72.4v40.9c0 5.4-.6 10.8-1.6 16 .4.1.8.2 1.1.3 8 2.2 15.1 5.8 20.7 10.8 1.1-5.2 1.6-10.6 1.6-16v-31.6c-5.5-1.6-10.5-4.7-14.4-8.8-3.2-3.3-5.6-7.2-7.2-11.6z" fill="#d9eeff" fill-rule="evenodd"/></g><g><path clip-rule="evenodd" d="m42.7 39.9h22.7v162.6h-22.7z" fill="#85beef" fill-rule="evenodd"/></g><g><path clip-rule="evenodd" d="m42.7 299.1v172.9h22.7v-172.9z" fill="#85beef" fill-rule="evenodd"/></g><g><path clip-rule="evenodd" d="m20 273.8 19 7.5 26.5-7.5c9.8 0 17.8-8 17.8-17.8s-8-17.8-17.8-17.8l-26.5-5.4-19 5.3c-9.8 0-17.8 8-17.8 17.8 0 9.9 8 17.9 17.8 17.9z" fill="#ffe07d" fill-rule="evenodd"/></g><g><path clip-rule="evenodd" d="m20 238.2h45.5c9.8 0 17.8-8 17.8-17.8s-8-17.8-17.8-17.8h-45.5c-9.8 0-17.8 8-17.8 17.8s8 17.8 17.8 17.8z" fill="#ffe07d" fill-rule="evenodd"/></g><g><path clip-rule="evenodd" d="m20 309.4h45.5c9.8 0 17.8-8 17.8-17.8s-8-17.8-17.8-17.8h-45.5c-9.8 0-17.8 8-17.8 17.8s8 17.8 17.8 17.8z" fill="#ffe07d" fill-rule="evenodd"/></g><g><path clip-rule="evenodd" d="m65.5 238.2h-45.5c-8.6 0-15.9 6.2-17.5 14.4 2-.7 4.1-1.1 6.2-1.1h45.5c9.8 0 17.8 8 17.8 17.8 0 1.2-.1 2.3-.3 3.4 6.7-2.5 11.6-9.1 11.6-16.7 0-9.8-8-17.8-17.8-17.8z" fill="#ffc250" fill-rule="evenodd"/></g><g><path clip-rule="evenodd" d="m65.5 273.8h-45.5c-7.4 0-13.7 4.5-16.4 10.9 1.8-.6 3.8-1 5.8-1h45.5c9.8 0 17.8 8 17.8 17.8 0 2.5-.5 4.8-1.4 6.9 7-2.4 12-9.1 12-16.9 0-9.7-8-17.7-17.8-17.7z" fill="#ffc250" fill-rule="evenodd"/></g><g><path clip-rule="evenodd" d="m65.5 202.5h-45.5c-8.6 0-15.9 6.2-17.5 14.4 2-.7 4.1-1.1 6.2-1.1h45.5c9.8 0 17.8 8 17.8 17.8 0 1.2-.1 2.3-.3 3.4 6.7-2.5 11.6-9.1 11.6-16.7 0-9.7-8-17.8-17.8-17.8z" fill="#ffc250" fill-rule="evenodd"/></g><g><path clip-rule="evenodd" d="m492 238.2h-45.5c-8.6 0-15.9 6.2-17.5 14.4 2-.7 4.1-1.1 6.2-1.1h45.5c9.8 0 17.8 8 17.8 17.8 0 1.2-.1 2.3-.3 3.4 6.7-2.5 11.6-9.1 11.6-16.7 0-9.8-8-17.8-17.8-17.8z" fill="#ffc250" fill-rule="evenodd"/></g><g><path clip-rule="evenodd" d="m492 273.8h-45.5c-7.4 0-13.7 4.5-16.4 10.9 1.8-.6 3.8-1 5.8-1h45.5c9.8 0 17.8 8 17.8 17.8 0 2.5-.5 4.8-1.4 6.9 7-2.4 12-9.1 12-16.9 0-9.7-8-17.7-17.8-17.7z" fill="#ffc250" fill-rule="evenodd"/></g><g><path clip-rule="evenodd" d="m492 202.5h-45.5c-8.6 0-15.9 6.2-17.5 14.4 2-.7 4.1-1.1 6.2-1.1h45.5c9.8 0 17.8 8 17.8 17.8 0 1.2-.1 2.3-.3 3.4 6.7-2.5 11.6-9.1 11.6-16.7 0-9.7-8-17.8-17.8-17.8z" fill="#ffc250" fill-rule="evenodd"/></g><g><path clip-rule="evenodd" d="m349.2 72.4c3.5 9.8 11.5 17.4 21.6 20.4 2.9.8 5.9 1.3 9 1.3 17.8 0 32.4-14.6 32.4-32.4 0-8.3-3.2-15.9-8.4-21.7l-147.8-20-147.8 20c-5.2 5.8-8.4 13.4-8.4 21.7 0 17.8 14.6 32.4 32.4 32.4 3.1 0 6.1-.5 9-1.3 10-2.9 18.1-10.6 21.6-20.4h105.5z" fill="#ffe07d" fill-rule="evenodd"/></g><g><path clip-rule="evenodd" d="m370.8 57.1c0 11.2-5.7 21.1-14.4 26.9 3.9 4.1 8.8 7.2 14.4 8.8 2.9.8 5.9 1.3 9 1.3 17.8 0 32.4-14.6 32.4-32.4 0-8.3-3.2-15.9-8.4-21.7h-38c3.2 4.9 5 10.8 5 17.1z" fill="#ffc250" fill-rule="evenodd"/></g><g><path clip-rule="evenodd" d="m108.1 39.9h295.7 42.7 45.5c11 0 20-9 20-20 0-10.8-8.6-19.6-19.3-20h-473.4c-10.7.4-19.3 9.3-19.3 20.1 0 11 9 20 20 20h45.5 42.6z" fill="#c38c66" fill-rule="evenodd"/></g><g><path clip-rule="evenodd" d="m447.2 0c10.7.3 19.3 9.2 19.3 20 0 3.5-.9 6.8-2.5 9.7-3.4 6.1-10 10.3-17.5 10.3h22.7 22.8c11 0 20-9 20-20 0-10.8-8.6-19.6-19.3-20z" fill="#b57f5f" fill-rule="evenodd"/></g><g><path d="m256 373.6c-4.3 0-7.7-3.5-7.7-7.7v-21.6c0-4.3 3.5-7.7 7.7-7.7 4.3 0 7.7 3.5 7.7 7.7v21.6c0 4.3-3.5 7.7-7.7 7.7z" fill="#b57f5f"/></g><g><path d="m256 319.7c-4.3 0-7.7-3.5-7.7-7.7v-20.9c0-4.3 3.5-7.7 7.7-7.7 4.3 0 7.7 3.5 7.7 7.7v20.9c0 4.3-3.5 7.7-7.7 7.7z" fill="#b57f5f"/></g><g><path clip-rule="evenodd" d="m255.7 367.8s-4.8-1.9-7.2-1.7c-46.7 3.1-83.7 34.5-85.7 73.4l93.2 20.6 93.2-20.6c-1.9-38.9-38.9-70.3-85.5-73.4-2.6-.1-8 1.7-8 1.7z" fill="#c38c66" fill-rule="evenodd"/></g><g><path clip-rule="evenodd" d="m256 365.9c-6.9 0-13.7.6-20.2 1.8 40.6 7.4 71.2 36.6 73 71.9h40.5c-.5-10.3-3.5-20-8.4-28.9-14.8-26.4-47.3-44.8-84.9-44.8z" fill="#b57f5f" fill-rule="evenodd"/></g><g><path clip-rule="evenodd" d="m108.1 472 153.7 20 142-20c5.2-5.8 8.4-13.3 8.4-21.7 0-17.8-14.6-32.4-32.4-32.4-3.1 0-6.2.5-9 1.3-10 2.9-18.1 10.6-21.6 20.4h-81-105.5c-3.5-9.8-11.5-17.4-21.6-20.4-2.9-.8-5.9-1.3-9-1.3-17.8 0-32.4 14.6-32.4 32.4.1 8.4 3.3 16 8.4 21.7z" fill="#ffe07d" fill-rule="evenodd"/></g><g><path clip-rule="evenodd" d="m362.5 423c9 5.8 15 15.9 15 27.3 0 8.3-3.2 15.9-8.4 21.7h34.7c5.2-5.8 8.4-13.3 8.4-21.7 0-17.8-14.6-32.4-32.4-32.4-3.1 0-6.2.5-9 1.3-3 .9-5.8 2.2-8.3 3.8z" fill="#ffc250" fill-rule="evenodd"/></g><g><path clip-rule="evenodd" d="m20 512h472c11 0 20-9 20-20s-9-20-20-20h-45.5-42.7-295.7-42.6-45.5c-11 0-20 9-20 20s9 20 20 20z" fill="#c38c66" fill-rule="evenodd"/></g><g><path clip-rule="evenodd" d="m446.5 472c11 0 20 9 20 20s-9 20-20 20h45.5c11 0 20-9 20-20s-9-20-20-20h-22.7z" fill="#b57f5f" fill-rule="evenodd"/></g><g><path clip-rule="evenodd" d="m143.7 144.3c8.6 34.1 38 62.9 68 78.3 14.4 7.3 21.5 20.4 21.5 33.5 1.5 29.8 14 35.2 22.8 35.2s21.3-5.3 22.8-35.1c0-13.1 7.2-26.2 21.5-33.5 31.1-16 61.6-46.3 68.9-82.1-24.2-21.8-76.6-15.3-104.4.7-44.8 25.6-79.2 13.2-121.1 3z" fill="#c38c66" fill-rule="evenodd"/></g><g><path clip-rule="evenodd" d="m348.4 129.6c-8.4 34.4-38 63.5-68.2 79-14.4 7.3-21.6 20.4-21.5 33.5-1.5 28.3-12.8 34.5-21.4 35.1 4.8 11.4 12.6 14 18.7 14 8.8 0 21.3-5.3 22.8-35.1 0-13.1 7.2-26.2 21.5-33.5 31.1-16 61.6-46.3 68.9-82.1-5.7-5.1-12.8-8.7-20.8-10.9z" fill="#b57f5f" fill-rule="evenodd"/></g></g></svg>