<svg id="Capa_1" enable-background="new 0 0 512 512" height="512" viewBox="0 0 512 512" width="512" xmlns="http://www.w3.org/2000/svg"><g><g><path clip-rule="evenodd" d="m38.81 512h434.38c15.769 0 28.647-12.907 28.647-28.676v-314.302h-491.704v314.302c0 15.769 12.907 28.676 28.677 28.676z" fill="#eff6ff" fill-rule="evenodd"/></g><g><path clip-rule="evenodd" d="m10.133 169.022h491.705c5.519 0 10.046-4.439 10.162-9.9v-.234-27.362h-512v27.362.175c.088 5.52 4.614 9.959 10.133 9.959z" fill="#9fd4fe" fill-rule="evenodd"/></g><g><path clip-rule="evenodd" d="m0 131.526h512v-69.793-.233c-.117-5.461-4.643-9.9-10.162-9.9h-491.705c-5.519 0-10.045 4.468-10.133 9.958v.175z" fill="#eb5468" fill-rule="evenodd"/></g><g><path clip-rule="evenodd" d="m314.156 169.022c85.328 92.892 88.132 246.057 7.826 342.978h151.208c15.769 0 28.647-12.907 28.647-28.676v-314.302z" fill="#d9eeff" fill-rule="evenodd"/></g><g><path clip-rule="evenodd" d="m367.041 51.6c13.55 23.975 25.318 50.841 35.013 79.926h109.946v-69.793-.233c-.117-5.461-4.643-9.9-10.162-9.9h-42.489v21.318c0 12.791-10.484 23.274-23.274 23.274s-23.274-10.484-23.274-23.274v-21.318z" fill="#e5384f" fill-rule="evenodd"/></g><g><path clip-rule="evenodd" d="m402.054 131.526c4.03 12.119 7.68 24.647 10.951 37.495h88.833c5.519 0 10.046-4.439 10.162-9.9v-.234-27.362h-109.946z" fill="#85beef" fill-rule="evenodd"/></g><g><path clip-rule="evenodd" d="m73.093 317.777h68.304c9.607 0 17.492-7.855 17.492-17.492v-68.304c0-9.608-7.885-17.492-17.492-17.492h-68.304c-9.637 0-17.492 7.885-17.492 17.492v68.304c0 9.637 7.855 17.492 17.492 17.492z" fill="#95d6a4" fill-rule="evenodd"/></g><g><path clip-rule="evenodd" d="m204.356 300.285c0 9.637 7.855 17.492 17.492 17.492h68.304c9.607 0 17.492-7.855 17.492-17.492v-68.304c0-9.608-7.885-17.492-17.492-17.492h-68.304c-9.637 0-17.492 7.885-17.492 17.492z" fill="#95d6a4" fill-rule="evenodd"/></g><g><path clip-rule="evenodd" d="m404.741 304.14 33.933 16.908c1.723.847 2.657.175 2.365-1.723l-5.169-34.663c-.263-1.752.321-3.592 1.577-4.877l24.559-24.997c1.343-1.343.964-2.453-.905-2.774l-34.575-5.782c-1.752-.292-3.3-1.431-4.117-3.008l-16.207-31.1c-.876-1.665-2.044-1.665-2.92 0l-16.178 31.1c-.818 1.577-2.395 2.716-4.147 3.008l-34.546 5.782c-1.898.321-2.249 1.431-.905 2.774l24.559 24.997c1.256 1.285 1.84 3.125 1.577 4.877l-5.169 34.663c-.292 1.898.642 2.57 2.365 1.723z" fill="#ffe07d" fill-rule="evenodd"/></g><g><path clip-rule="evenodd" d="m73.093 466.532h68.304c9.607 0 17.492-7.855 17.492-17.492v-68.304c0-9.607-7.885-17.492-17.492-17.492h-68.304c-9.637 0-17.492 7.885-17.492 17.492v68.304c0 9.637 7.855 17.492 17.492 17.492z" fill="#95d6a4" fill-rule="evenodd"/></g><g><path clip-rule="evenodd" d="m222.082 469.803 33.904-16.908 33.933 16.908c1.723.847 2.657.175 2.365-1.723l-5.169-34.663c-.263-1.752.321-3.592 1.577-4.877l24.559-24.997c1.343-1.372.993-2.453-.905-2.774l-34.575-5.782c-1.752-.292-3.3-1.431-4.117-3.008l-16.207-31.1c-.876-1.665-2.044-1.665-2.92 0l-16.178 31.1c-.818 1.577-2.395 2.716-4.147 3.008l-34.546 5.782c-1.898.321-2.249 1.402-.905 2.774l24.559 24.997c1.256 1.285 1.84 3.125 1.577 4.877l-5.169 34.663c-.294 1.898.641 2.57 2.364 1.723z" fill="#ffe07d" fill-rule="evenodd"/></g><g><path clip-rule="evenodd" d="m370.604 466.532h68.304c9.607 0 17.492-7.855 17.492-17.492v-68.304c0-9.607-7.885-17.492-17.492-17.492h-68.304c-9.637 0-17.492 7.885-17.492 17.492v68.304c0 9.637 7.855 17.492 17.492 17.492z" fill="#95d6a4" fill-rule="evenodd"/></g><g><path clip-rule="evenodd" d="m52.622 72.918c0 12.791 10.484 23.274 23.303 23.274 12.791 0 23.274-10.484 23.274-23.274v-21.318-28.326c0-12.82-10.483-23.274-23.274-23.274-12.82 0-23.303 10.454-23.303 23.274v28.326z" fill="#ffe07d" fill-rule="evenodd"/></g><g><path clip-rule="evenodd" d="m172.701 72.918c0 12.791 10.454 23.274 23.274 23.274 12.791 0 23.274-10.484 23.274-23.274v-21.318-28.326c0-12.82-10.483-23.274-23.274-23.274-12.82 0-23.274 10.454-23.274 23.274v28.326z" fill="#ffe07d" fill-rule="evenodd"/></g><g><path clip-rule="evenodd" d="m292.751 72.918c0 12.791 10.454 23.274 23.274 23.274 12.79 0 23.274-10.484 23.274-23.274v-21.318-28.326c0-12.82-10.484-23.274-23.274-23.274-12.82 0-23.274 10.454-23.274 23.274v28.326z" fill="#ffe07d" fill-rule="evenodd"/></g><g><path clip-rule="evenodd" d="m412.801 23.274v28.326 21.318c0 12.791 10.484 23.274 23.274 23.274 12.791 0 23.274-10.484 23.274-23.274v-21.318-28.326c0-12.82-10.484-23.274-23.274-23.274-12.791 0-23.274 10.454-23.274 23.274z" fill="#ffe07d" fill-rule="evenodd"/></g><g><path clip-rule="evenodd" d="m103.872 214.489c10.951 17.784 17.434 39.686 17.434 63.339 0 14.134-2.307 27.596-6.483 39.948h26.574c9.607 0 17.492-7.855 17.492-17.492v-68.304c0-9.608-7.885-17.492-17.492-17.492h-37.525z" fill="#78c2a4" fill-rule="evenodd"/></g><g><path clip-rule="evenodd" d="m397.645 222.958c6.892 15.127 10.776 32.443 10.776 50.812 0 10.542-1.285 20.733-3.679 30.37l33.933 16.908c1.723.847 2.657.175 2.365-1.723l-5.169-34.663c-.263-1.752.321-3.592 1.577-4.877l24.559-24.997c1.343-1.343.964-2.453-.905-2.774l-34.575-5.782c-1.752-.292-3.3-1.431-4.117-3.008l-16.207-31.1c-.876-1.665-2.044-1.665-2.92 0z" fill="#ffc250" fill-rule="evenodd"/></g><g><path clip-rule="evenodd" d="m248.889 371.713c6.892 15.127 10.776 32.444 10.776 50.812 0 10.542-1.285 20.733-3.679 30.37l33.933 16.908c1.723.847 2.657.175 2.365-1.723l-5.169-34.663c-.263-1.752.321-3.592 1.577-4.877l24.559-24.997c1.343-1.372.993-2.453-.905-2.774l-34.575-5.782c-1.752-.292-3.3-1.431-4.117-3.008l-16.207-31.1c-.876-1.665-2.044-1.665-2.92 0z" fill="#ffc250" fill-rule="evenodd"/></g><g><path clip-rule="evenodd" d="m252.627 214.489c10.951 17.784 17.434 39.686 17.434 63.339 0 14.134-2.307 27.596-6.483 39.948h26.574c9.607 0 17.492-7.855 17.492-17.492v-68.304c0-9.608-7.885-17.492-17.492-17.492h-37.525z" fill="#78c2a4" fill-rule="evenodd"/></g><g><path clip-rule="evenodd" d="m103.872 363.245c10.951 17.784 17.434 39.656 17.434 63.339 0 14.134-2.307 27.596-6.483 39.948h26.574c9.607 0 17.492-7.855 17.492-17.492v-68.304c0-9.607-7.885-17.492-17.492-17.492h-37.525z" fill="#78c2a4" fill-rule="evenodd"/></g><g><path clip-rule="evenodd" d="m401.383 363.245c10.951 17.784 17.404 39.656 17.404 63.339 0 14.134-2.278 27.596-6.454 39.948h26.574c9.607 0 17.492-7.855 17.492-17.492v-68.304c0-9.607-7.885-17.492-17.492-17.492h-37.524z" fill="#78c2a4" fill-rule="evenodd"/></g><g><path clip-rule="evenodd" d="m196.384 23.274v49.644c0 8.644-4.789 16.236-11.856 20.237 3.387 1.927 7.301 3.037 11.447 3.037 12.791 0 23.274-10.484 23.274-23.274v-21.318-28.326c0-12.82-10.483-23.274-23.274-23.274-4.147 0-8.06 1.08-11.447 3.008 7.067 4 11.856 11.593 11.856 20.266z" fill="#ffc250" fill-rule="evenodd"/></g><g><path clip-rule="evenodd" d="m76.334 23.274v49.644c0 8.644-4.789 16.236-11.856 20.237 3.387 1.927 7.301 3.037 11.447 3.037 12.791 0 23.274-10.484 23.274-23.274v-21.318-28.326c0-12.82-10.483-23.274-23.274-23.274-4.147 0-8.06 1.08-11.447 3.008 7.067 4 11.856 11.593 11.856 20.266z" fill="#ffc250" fill-rule="evenodd"/></g><g><path clip-rule="evenodd" d="m316.434 23.274v49.644c0 8.644-4.789 16.236-11.827 20.237 3.358 1.927 7.271 3.037 11.418 3.037 12.79 0 23.274-10.484 23.274-23.274v-21.318-28.326c0-12.82-10.484-23.274-23.274-23.274-4.147 0-8.06 1.08-11.447 3.008 7.067 4 11.856 11.593 11.856 20.266z" fill="#ffc250" fill-rule="evenodd"/></g><g><path clip-rule="evenodd" d="m436.483 23.274v49.644c0 8.644-4.789 16.236-11.827 20.237 3.358 1.927 7.271 3.037 11.418 3.037 12.791 0 23.274-10.484 23.274-23.274v-21.318-28.326c.001-12.82-10.483-23.274-23.273-23.274-4.147 0-8.06 1.08-11.418 3.008 7.037 4 11.826 11.593 11.826 20.266z" fill="#ffc250" fill-rule="evenodd"/></g></g></svg>