<svg id="Capa_1" enable-background="new 0 0 512 512" height="512" viewBox="0 0 512 512" width="512" xmlns="http://www.w3.org/2000/svg"><g><g><path clip-rule="evenodd" d="m112.574 125.043-27.327 1.051-5.437 31.684 26.106 26.107c6.888 3.436 20.685.37 26.204-5.149 5.548-5.548 14.508-18.028 6.559-27.586z" fill="#eff6ff" fill-rule="evenodd"/></g><g><path clip-rule="evenodd" d="m229.788 58.618v72.282c22.923-3.942 46.372-3.942 69.295 0v-72.282h-14.221-40.853z" fill="#eff6ff" fill-rule="evenodd"/></g><g><path clip-rule="evenodd" d="m229.788 110.296c-32.53 5.636-63.951 19.244-91.108 40.854-5.986 4.76-11.768 9.899-17.316 15.448-5.519 5.519-10.688 11.301-15.447 17.288-105.885 133.132-8.206 327.91 158.27 328.114h.496c51.686-.058 103.373-19.828 142.823-59.28 79.019-78.992 79.019-207.101 0-286.122-30.661-30.662-68.711-49.439-108.424-56.302-22.922-3.942-46.371-3.942-69.294 0z" fill="#375e7d" fill-rule="evenodd"/></g><g><path clip-rule="evenodd" d="m264.45 144.959-9.432 16.791 9.432 22.369c34.662 0 66.053 14.046 88.772 36.765l27.683-27.684c-29.815-29.814-70.988-48.241-116.455-48.241z" fill="#9fd4fe" fill-rule="evenodd"/></g><g><path clip-rule="evenodd" d="m389.986 309.659c0 34.663-14.046 66.055-36.764 88.774l3.387 20.792 24.295 6.892c29.785-29.786 48.241-70.961 48.241-116.458l-20.674-15.594z" fill="#85beef" fill-rule="evenodd"/></g><g><path clip-rule="evenodd" d="m147.995 193.201c-29.815 29.815-48.241 70.99-48.241 116.458l19.068 11.739 20.061-11.739c0-34.663 14.046-66.055 36.764-88.774l-6.95-21.843z" fill="#9fd4fe" fill-rule="evenodd"/></g><g><path clip-rule="evenodd" d="m83.928 92.425-36.706 36.736c-2.657 2.657-2.657 6.979 0 9.637l20.967 20.967c2.657 2.657 6.979 2.657 9.636 0l1.986-1.986 32.764-32.736 1.986-1.986c2.657-2.657 2.657-7.009 0-9.637l-20.997-20.995c-2.628-2.658-6.979-2.658-9.636 0z" fill="#eb5468" fill-rule="evenodd"/></g><g><path clip-rule="evenodd" d="m325.712 10.189v44.39c0 5.604-4.584 10.219-10.188 10.219h-102.143c-5.635 0-10.23-4.615-10.23-10.219v-44.39c0-5.46 4.358-9.921 9.725-10.189h103.111c5.409.268 9.725 4.729 9.725 10.189z" fill="#375e7d" fill-rule="evenodd"/></g><g><path clip-rule="evenodd" d="m264.45 435.228c69.149 0 125.536-56.418 125.536-125.569s-56.388-125.54-125.536-125.54-125.566 56.389-125.566 125.54 56.417 125.569 125.566 125.569z" fill="#ffe07d" fill-rule="evenodd"/></g><g><path clip-rule="evenodd" d="m175.649 398.433-22.222 5.724-5.431 21.96c29.785 29.815 70.959 48.242 116.455 48.242l15.885-19.945-15.885-19.186c-34.692 0-66.083-14.076-88.802-36.795z" fill="#9fd4fe" fill-rule="evenodd"/></g><g><path clip-rule="evenodd" d="m380.905 193.201c-15.564-15.565-34.253-28.034-54.986-36.386 2.599 15.214 4.76 30.983 6.395 47.22 7.563 4.848 14.571 10.513 20.908 16.85z" fill="#85beef" fill-rule="evenodd"/></g><g><path clip-rule="evenodd" d="m380.905 193.201c29.785 29.815 48.241 70.99 48.241 116.458 0 45.497-18.455 86.672-48.241 116.458-19.302 19.303-43.364 33.816-70.258 41.671-4.497 14.893-9.49 28.852-14.922 41.788 40.911-6.366 80.245-25.318 111.783-56.856 79.019-78.992 79.019-207.101 0-286.122-26.018-26.019-57.38-43.482-90.553-52.359 3.417 13.608 6.395 27.83 8.965 42.577 20.732 8.351 39.421 20.82 54.985 36.385z" fill="#2b4d66" fill-rule="evenodd"/></g><g><path clip-rule="evenodd" d="m264.45 144.959c-45.496 0-86.669 18.427-116.455 48.242l27.654 27.684c22.719-22.719 54.11-36.765 88.801-36.765z" fill="#eff6ff" fill-rule="evenodd"/></g><g><path clip-rule="evenodd" d="m99.755 309.659c0 45.497 18.426 86.672 48.241 116.458l27.654-27.684c-22.719-22.719-36.764-54.111-36.764-88.774z" fill="#eff6ff" fill-rule="evenodd"/></g><g><path clip-rule="evenodd" d="m353.222 398.433c-22.719 22.719-54.11 36.795-88.772 36.795v39.131c45.466 0 86.64-18.427 116.455-48.242z" fill="#eff6ff" fill-rule="evenodd"/></g><g><path clip-rule="evenodd" d="m380.905 426.117-27.683-27.684c-9.052 9.053-19.448 16.704-30.895 22.661-3.358 16.382-7.271 31.976-11.681 46.694 26.895-7.855 50.957-22.369 70.259-41.671z" fill="#d9eeff" fill-rule="evenodd"/></g><g><path clip-rule="evenodd" d="m380.905 193.201-27.683 27.684c22.719 22.719 36.764 54.111 36.764 88.774h39.159c0-45.468-18.455-86.643-48.24-116.458z" fill="#d9eeff" fill-rule="evenodd"/></g><path d="m281.304 301.585c-2.323-.821-4.523-1.618-6.616-2.396v-50.741c7.346 1.959 11.697 5.706 12.046 6.016 3.139 2.852 7.997 2.639 10.875-.483 2.892-3.138 2.693-8.026-.445-10.917-.512-.472-8.799-7.925-22.477-10.438v-11.74c0-4.267-3.459-7.726-7.726-7.726-4.268 0-7.726 3.459-7.726 7.726v11.333c-2.959.371-6.051.999-9.276 1.972-13.261 3.989-23.177 15.357-25.876 29.666-2.448 12.971 1.659 25.443 10.72 32.552 5.865 4.597 13.415 8.753 24.432 13.324v60.795c-11.269-.11-16.979-1.388-27.935-8.552-3.571-2.334-8.359-1.334-10.695 2.239-2.335 3.571-1.333 8.36 2.238 10.695 14.123 9.234 22.697 10.923 36.391 11.067v12.457c0 4.267 3.459 7.726 7.726 7.726 4.268 0 7.726-3.459 7.726-7.726v-13.759c19.929-4.721 31.591-21.516 34.233-37.241 3.48-20.698-7.361-38.694-27.615-45.849zm-36.965-17.337c-4.502-3.532-6.445-10.248-5.072-17.527 1.275-6.754 5.922-14.959 15.15-17.735 1.659-.501 3.263-.871 4.818-1.142v45.026c-6.45-2.971-11.244-5.76-14.896-8.622zm49.343 60.625c-1.583 9.422-8.037 19.421-18.994 23.615v-52.858c.492.176.965.348 1.468.525 19.577 6.916 18.364 23.73 17.526 28.718z" fill="#375e7d"/><g><path d="m350.243 317.385h-25.581c-4.268 0-7.726-3.459-7.726-7.726s3.459-7.726 7.726-7.726h25.581c4.268 0 7.726 3.459 7.726 7.726.001 4.267-3.458 7.726-7.726 7.726z" fill="#95d6a4"/></g><g><path d="m204.208 317.385h-25.551c-4.268 0-7.726-3.459-7.726-7.726s3.459-7.726 7.726-7.726h25.551c4.268 0 7.726 3.459 7.726 7.726.001 4.267-3.458 7.726-7.726 7.726z" fill="#95d6a4"/></g><g><path clip-rule="evenodd" d="m267.283 64.799v42.547c10.658.146 21.288 1.139 31.8 2.949v-45.496h-14.221-1.168z" fill="#d9eeff" fill-rule="evenodd"/></g><g><path clip-rule="evenodd" d="m301.273 10.192v44.387c0 3.972-2.278 7.417-5.607 9.111-1.372.701-2.949 1.11-4.614 1.11h24.471c5.607 0 10.191-4.614 10.191-10.221v-44.387c0-5.461-4.322-9.929-9.724-10.192h-24.441c1.46.058 2.862.467 4.117 1.11 3.329 1.693 5.607 5.139 5.607 9.082z" fill="#2b4d66" fill-rule="evenodd"/></g><g><path clip-rule="evenodd" d="m78.701 107.318 20.967 20.967c2.657 2.657 2.657 7.008 0 9.637l12.907-12.878 1.986-1.986c2.657-2.657 2.657-7.009 0-9.637l-20.997-20.996c-2.628-2.657-6.979-2.657-9.636 0l-14.863 14.893c2.657-2.658 6.978-2.658 9.636 0z" fill="#e5384f" fill-rule="evenodd"/></g><g><path clip-rule="evenodd" d="m112.574 125.043-12.907 12.878-1.986 1.986 25.201 25.201c5.081-4.964 10.337-9.637 15.798-13.959z" fill="#d9eeff" fill-rule="evenodd"/></g><g><path d="m236.282 0h15.453v64.798h-15.453z" fill="#2b4d66"/></g><g><path d="m277.139 0h15.453v64.798h-15.453z" fill="#2b4d66"/></g></g></svg>