<svg id="Capa_1" enable-background="new 0 0 511.948 511.948" height="512" viewBox="0 0 511.948 511.948" width="512" xmlns="http://www.w3.org/2000/svg"><g><g><path clip-rule="evenodd" d="m81.926 335.016 182.07 53.492 163.589-53.492v-36.483l-172.83-57.97-172.829 57.97z" fill="#faf0b0" fill-rule="evenodd"/></g><g><path clip-rule="evenodd" d="m61.034 335.016c4.054 50.26 16.838 96.58 36.085 135.529 18.312 31.834 27.043 37.39 59.5 37.504h198.71c32.457-.113 41.188-5.669 59.5-37.504 19.247-38.949 32.032-85.269 36.085-135.529-129.969 0-259.91 0-389.88 0z" fill="#ffe07d" fill-rule="evenodd"/></g><g><path clip-rule="evenodd" d="m399.097 335.016c-4.054 50.26-16.838 96.58-36.085 135.529-18.34 31.834-27.043 37.39-59.528 37.504h51.846c32.457-.113 41.188-5.669 59.5-37.504 19.247-38.949 32.032-85.269 36.085-135.529h-23.329z" fill="#ffc250" fill-rule="evenodd"/></g><g><path clip-rule="evenodd" d="m255.974 11.406c-107.97 0-195.56 128.35-196.3 287.13h392.6c-.74-158.78-88.33-287.13-196.3-287.13zm17.09 193.75c0 9.44-7.65 17.09-17.09 17.09s-17.09-7.65-17.09-17.09v-27.33c0-9.46 7.65-17.12 17.09-17.12s17.09 7.66 17.09 17.12z" fill="#ffe07d" fill-rule="evenodd"/></g><g><path clip-rule="evenodd" d="m225.445 438.825 30.529-58.339 30.53 58.339z" fill="#ffe07d" fill-rule="evenodd"/></g><g><path d="m116.244 243.256v55.28h-15v-55.28c0-4.14 3.36-7.5 7.5-7.5s7.5 3.36 7.5 7.5z" fill="#375e7d"/></g><g><path d="m165.314 262.676v35.86h-15v-35.86c0-4.14 3.35-7.5 7.5-7.5 4.14 0 7.5 3.36 7.5 7.5z" fill="#375e7d"/></g><g><path d="m214.404 243.256v55.28h-15v-55.28c0-4.14 3.36-7.5 7.5-7.5s7.5 3.36 7.5 7.5z" fill="#375e7d"/></g><g><path d="m248.474 298.536v-35.86c0-4.14 3.36-7.5 7.5-7.5s7.5 3.36 7.5 7.5v35.86z" fill="#375e7d"/></g><g><path d="m312.544 243.256v55.28h-15v-55.28c0-4.14 3.36-7.5 7.5-7.5s7.5 3.36 7.5 7.5z" fill="#375e7d"/></g><g><path d="m361.634 262.676v35.86h-15v-35.86c0-4.14 3.36-7.5 7.5-7.5 4.15 0 7.5 3.36 7.5 7.5z" fill="#375e7d"/></g><g><path d="m498.736 156.559c-.795 0-1.604-.127-2.399-.396-3.924-1.325-6.032-5.58-4.708-9.505 17.831-52.834-10.64-110.322-63.465-128.151-3.924-1.324-6.032-5.58-4.708-9.504 1.324-3.925 5.578-6.034 9.504-4.708 60.662 20.473 93.356 86.489 72.881 147.16-1.056 3.13-3.976 5.104-7.105 5.104zm-37.871-12.785c-.795 0-1.603-.127-2.398-.395-3.925-1.324-6.034-5.579-4.71-9.504 10.776-31.951-6.44-66.715-38.378-77.496-3.925-1.325-6.032-5.58-4.708-9.504 1.325-3.926 5.581-6.033 9.504-4.708 39.773 13.425 61.213 56.715 47.795 96.501-1.055 3.131-3.975 5.106-7.105 5.106z" fill="#375e7d"/></g><g><path d="m13.213 156.559c-3.129 0-6.049-1.974-7.105-5.104-20.476-60.67 12.218-126.686 72.88-147.159 3.923-1.326 8.18.783 9.504 4.708 1.325 3.925-.783 8.18-4.708 9.504-52.824 17.829-81.295 75.317-63.464 128.151 1.324 3.925-.784 8.18-4.708 9.505-.795.268-1.604.395-2.399.395zm37.871-12.785c-3.13 0-6.05-1.975-7.106-5.105-13.418-39.786 8.022-83.076 47.795-96.501 3.922-1.326 8.18.783 9.504 4.708 1.325 3.924-.783 8.18-4.708 9.504-31.938 10.781-49.154 45.545-38.378 77.496 1.324 3.925-.785 8.18-4.71 9.504-.794.267-1.602.394-2.397.394z" fill="#375e7d"/></g><g><path clip-rule="evenodd" d="m238.881 205.157c0 9.44 7.654 17.094 17.093 17.094s17.093-7.654 17.093-17.094v-27.327c0-9.468-7.654-17.122-17.093-17.122s-17.093 7.654-17.093 17.122z" fill="#95d6a4" fill-rule="evenodd"/></g><g><path clip-rule="evenodd" d="m225.445 438.825h61.059l-30.53-58.339z" fill="#eb5468" fill-rule="evenodd"/></g><g><path clip-rule="evenodd" d="m231.426 13.641c96.407 17.689 171.101 138.336 171.781 284.892h24.378 24.69c-.737-158.774-88.328-287.131-196.301-287.131-8.305 0-16.498.765-24.548 2.239z" fill="#ffc250" fill-rule="evenodd"/></g><g><path clip-rule="evenodd" d="m378.659 298.533v36.483h20.438 28.488v-36.483h-24.378z" fill="#ffe07d" fill-rule="evenodd"/></g><g><path d="m395.704 298.536v-55.28c0-4.14 3.36-7.5 7.5-7.5s7.5 3.36 7.5 7.5v55.28z" fill="#375e7d"/></g></g></svg>