<svg id="Capa_1" enable-background="new 0 0 512 512" height="512" viewBox="0 0 512 512" width="512" xmlns="http://www.w3.org/2000/svg"><g><g><path clip-rule="evenodd" d="m76.947 464.859h77.21c7.68 0 10.571-.584 14.192-7.534l19.77-37.788-66.376-16.231-48.738 16.231v41.41c0 2.16 1.782 3.912 3.942 3.912z" fill="#375e7d" fill-rule="evenodd"/></g><g><path clip-rule="evenodd" d="m357.842 464.859h77.21c2.161 0 3.913-1.752 3.913-3.913v-41.41l-58.725-23.442-56.36 23.442 19.741 37.788c3.65 6.951 6.512 7.535 14.221 7.535z" fill="#375e7d" fill-rule="evenodd"/></g><g><path clip-rule="evenodd" d="m255.985 84.229 32.633 17.225 32.633-17.225v-23.041c0-7.739-6.337-14.047-14.046-14.047h-37.145c-7.739 0-14.075 6.308-14.075 14.047z" fill="#375e7d" fill-rule="evenodd"/></g><g><path clip-rule="evenodd" d="m69.793 84.229 61.733 14.822v-51.91h-47.687c-7.739 0-14.046 6.308-14.046 14.047z" fill="#9fd4fe" fill-rule="evenodd"/></g><g><path clip-rule="evenodd" d="m131.526 99.05 61.733-14.822v-23.04c0-7.739-6.337-14.047-14.046-14.047h-47.687z" fill="#9fd4fe" fill-rule="evenodd"/></g><g><path clip-rule="evenodd" d="m188.12 419.536h135.76 115.085 3.241c38.196 0 69.501-31.101 69.793-69.24v-.555-195.717-.555c-.292-38.139-31.597-69.24-69.793-69.24h-120.954-65.267-62.726-61.733-61.733c-38.196 0-69.501 31.072-69.793 69.211v.584 195.718.584c.292 38.139 31.597 69.211 69.793 69.211h3.212 115.115z" fill="#eb5468" fill-rule="evenodd"/></g><g><path clip-rule="evenodd" d="m93.359 377.221h56.769c9.987 0 18.193-8.177 18.193-18.193 0-10.017-8.206-18.193-18.193-18.193h-56.769c-9.987 0-18.193 8.177-18.193 18.193s8.206 18.193 18.193 18.193z" fill="#95d6a4" fill-rule="evenodd"/></g><g><path clip-rule="evenodd" d="m361.872 377.221h56.74c10.016 0 18.193-8.177 18.193-18.193 0-10.017-8.177-18.193-18.193-18.193h-56.74c-10.016 0-18.193 8.177-18.193 18.193s8.177 18.193 18.193 18.193z" fill="#95d6a4" fill-rule="evenodd"/></g><g><path clip-rule="evenodd" d="m71.954 298.49h368.092c15.769 0 28.676-12.908 28.676-28.677v-113.658c0-15.77-12.907-28.677-28.676-28.677h-368.092c-15.798 0-28.706 12.908-28.706 28.677v113.658c0 15.769 12.908 28.677 28.706 28.677z" fill="#eff6ff" fill-rule="evenodd"/></g><g><path d="m120.838 262.967h-23.391c-10.283 0-18.648-8.379-18.648-18.678v-62.611c0-10.283 8.365-18.648 18.648-18.648h23.391c10.282 0 18.648 8.365 18.648 18.648v62.611c0 10.299-8.365 18.678-18.648 18.678zm-23.391-84.484c-1.762 0-3.195 1.434-3.195 3.195v62.611c0 1.748 1.463 3.225 3.195 3.225h23.391c1.732 0 3.195-1.477 3.195-3.225v-62.611c0-1.732-1.463-3.195-3.195-3.195z" fill="#2b4d66"/></g><g><path d="m335.882 262.967h-23.391c-10.283 0-18.648-8.379-18.648-18.678v-62.611c0-10.283 8.365-18.648 18.648-18.648h23.391c10.283 0 18.648 8.365 18.648 18.648v62.611c.001 10.299-8.365 18.678-18.648 18.678zm-23.391-84.484c-1.762 0-3.195 1.434-3.195 3.195v62.611c0 1.748 1.463 3.225 3.195 3.225h23.391c1.732 0 3.195-1.477 3.195-3.225v-62.611c0-1.732-1.463-3.195-3.195-3.195z" fill="#2b4d66"/></g><g><path d="m255.985 247.315c-4.267 0-7.727-3.459-7.727-7.727v-.117c0-4.267 3.459-7.727 7.727-7.727s7.727 3.459 7.727 7.727v.117c0 4.267-3.459 7.727-7.727 7.727z" fill="#95d6a4"/></g><g><path d="m255.985 194.224c-4.267 0-7.727-3.459-7.727-7.727v-.117c0-4.267 3.459-7.727 7.727-7.727s7.727 3.459 7.727 7.727v.117c0 4.267-3.459 7.727-7.727 7.727z" fill="#95d6a4"/></g><g><path d="m210.43 262.967c-4.267 0-7.727-3.459-7.727-7.727v-73.562c0-1.732-1.476-3.195-3.224-3.195h-34.283c-4.267 0-7.727-3.459-7.727-7.727s3.459-7.727 7.727-7.727h34.283c10.299 0 18.678 8.365 18.678 18.648v73.562c0 4.269-3.459 7.728-7.727 7.728z" fill="#2b4d66"/></g><g><path clip-rule="evenodd" d="m451.844 130.019c9.929 4.526 16.879 14.572 16.879 26.137v113.658c0 9.841-5.023 18.573-12.615 23.742v56.186c0 38.402-31.421 69.795-69.793 69.795h52.651 3.241c38.196 0 69.501-31.101 69.793-69.24v-.555-195.718-.555c-.292-38.139-31.597-69.24-69.793-69.24h-55.893c29.962 0 55.689 19.128 65.53 45.79z" fill="#e5384f" fill-rule="evenodd"/></g><g><path clip-rule="evenodd" d="m174.774 61.188v23.041h18.485v-23.041c0-7.739-6.337-14.047-14.046-14.047h-18.514c7.739 0 14.075 6.308 14.075 14.047z" fill="#85beef" fill-rule="evenodd"/></g><g><path clip-rule="evenodd" d="m113.946 47.141h17.58v37.088h-17.58z" fill="#85beef" fill-rule="evenodd"/></g><g><path clip-rule="evenodd" d="m425.474 181.679v62.611c0 6.016-4.935 10.951-10.951 10.951h-4.556v14.572c0 15.77-12.907 28.677-28.676 28.677h58.755c5.928 0 11.476-1.811 16.061-4.935 7.592-5.169 12.615-13.901 12.615-23.742v-113.658c0-11.564-6.95-21.61-16.879-26.137-3.621-1.635-7.593-2.541-11.798-2.541h-58.755c15.769 0 28.676 12.908 28.676 28.677v14.601h4.556c6.017.002 10.952 4.908 10.952 10.924z" fill="#d9eeff" fill-rule="evenodd"/></g><g><path d="m414.523 262.967h-23.362c-10.283 0-18.648-8.379-18.648-18.678v-62.611c0-10.283 8.365-18.648 18.648-18.648h23.362c10.299 0 18.678 8.365 18.678 18.648v62.611c0 10.299-8.379 18.678-18.678 18.678zm-23.361-84.484c-1.762 0-3.195 1.434-3.195 3.195v62.611c0 1.748 1.463 3.225 3.195 3.225h23.362c1.748 0 3.224-1.477 3.224-3.225v-62.611c0-1.732-1.477-3.195-3.224-3.195z" fill="#2b4d66"/></g><g><path clip-rule="evenodd" d="m76.947 464.859h-.146zm86.38-45.323-19.77 37.788c-3.621 6.95-6.512 7.534-14.192 7.534h24.793c7.68 0 10.571-.584 14.192-7.534l19.77-37.788z" fill="#2b4d66" fill-rule="evenodd"/></g><g><path clip-rule="evenodd" d="m414.173 419.536v41.41c0 2.132-1.752 3.913-3.884 3.913h24.763c2.161 0 3.913-1.752 3.913-3.913v-41.41z" fill="#2b4d66" fill-rule="evenodd"/></g><g><path clip-rule="evenodd" d="m296.781 61.188v23.041h24.471v-23.041c0-7.739-6.337-14.047-14.046-14.047h-24.471c7.738 0 14.046 6.308 14.046 14.047z" fill="#2b4d66" fill-rule="evenodd"/></g></g></svg>