<svg id="Capa_1" enable-background="new 0 0 512 512" height="512" viewBox="0 0 512 512" width="512" xmlns="http://www.w3.org/2000/svg"><g><g><path clip-rule="evenodd" d="m262.472 91.487 86.666-20.876-17.988-53.265c-3.884-11.476-10.717-17.346-22.631-17.346h-52.533-52.504c-11.914 0-18.747 5.87-22.631 17.346l-17.988 53.265z" fill="#c38c66" fill-rule="evenodd"/></g><g><path clip-rule="evenodd" d="m255.985 512h52.533c11.914 0 18.747-5.87 22.631-17.375l17.988-53.265-93.137-27.489-93.137 27.489 17.988 53.265c3.883 11.505 10.716 17.375 22.63 17.375z" fill="#c38c66" fill-rule="evenodd"/></g><g><path d="m274.703 78.337c-4.268 0-7.726-3.459-7.726-7.726v-24.209c0-4.267 3.459-7.726 7.726-7.726s7.726 3.459 7.726 7.726v24.209c.001 4.267-3.458 7.726-7.726 7.726z" fill="#b57f5f"/></g><g><path d="m237.297 78.337c-4.268 0-7.726-3.459-7.726-7.726v-24.209c0-4.267 3.459-7.726 7.726-7.726s7.726 3.459 7.726 7.726v24.209c0 4.267-3.459 7.726-7.726 7.726z" fill="#b57f5f"/></g><g><path d="m274.703 473.295c-4.268 0-7.726-3.459-7.726-7.726v-24.209c0-4.267 3.459-7.726 7.726-7.726s7.726 3.459 7.726 7.726v24.209c.001 4.267-3.458 7.726-7.726 7.726z" fill="#b57f5f"/></g><g><path d="m237.297 473.295c-4.268 0-7.726-3.459-7.726-7.726v-24.209c0-4.267 3.459-7.726 7.726-7.726s7.726 3.459 7.726 7.726v24.209c0 4.267-3.459 7.726-7.726 7.726z" fill="#b57f5f"/></g><g><path clip-rule="evenodd" d="m316.549 441.36-17.988 53.265c-3.884 11.505-10.717 17.375-22.631 17.375h32.589c11.914 0 18.747-5.87 22.631-17.375l17.988-53.265z" fill="#b57f5f" fill-rule="evenodd"/></g><g><path clip-rule="evenodd" d="m298.561 17.346 17.988 53.265h32.589l-17.988-53.265c-3.884-11.476-10.717-17.346-22.631-17.346h-32.589c11.914 0 18.747 5.87 22.631 17.346z" fill="#b57f5f" fill-rule="evenodd"/></g><g><path clip-rule="evenodd" d="m44.247 271.141c0 11.476 9.374 20.85 20.85 20.85h31.158v-72.012h-31.158c-11.476 0-20.85 9.403-20.85 20.85z" fill="#375e7d" fill-rule="evenodd"/></g><g><path clip-rule="evenodd" d="m162.863 441.36h51.92 82.435 51.92c42.283 0 76.916-34.604 76.916-76.918v-72.012-72.888-72.012c0-42.314-34.633-76.918-76.916-76.918h-51.92-82.435-51.92c-42.283 0-76.916 34.604-76.916 76.918v72.45 72.012 72.45c-.001 42.314 34.632 76.918 76.916 76.918z" fill="#eff6ff" fill-rule="evenodd"/></g><g><path clip-rule="evenodd" d="m160.702 405.617h190.597c21.229 0 38.633-17.404 38.633-38.664v-221.936c0-21.259-17.404-38.634-38.633-38.634h-190.597c-21.259 0-38.633 17.375-38.633 38.634v221.936c-.001 21.259 17.374 38.664 38.633 38.664z" fill="#9fd4fe" fill-rule="evenodd"/></g><g><path clip-rule="evenodd" d="m415.746 219.541h31.158c11.476 0 20.85-9.374 20.85-20.85v-30.312c0-11.447-9.374-20.85-20.85-20.85h-31.158z" fill="#375e7d" fill-rule="evenodd"/></g><g><path clip-rule="evenodd" d="m415.746 364.442h31.158c11.476 0 20.85-9.374 20.85-20.85v-30.283c0-11.476-9.374-20.879-20.85-20.879h-31.158z" fill="#375e7d" fill-rule="evenodd"/></g><g><path clip-rule="evenodd" d="m349.138 70.611h-51.92-33.348c12.031 10.046 23.011 22.106 32.647 35.773h54.782c21.229 0 38.633 17.375 38.633 38.634v221.936c0 21.259-17.404 38.664-38.633 38.664h-60.067c-10.834 14.017-23.127 26.077-36.589 35.743h42.575 51.92c42.283 0 76.916-34.604 76.916-76.918v-72.013-72.888-72.012c0-42.315-34.633-76.919-76.916-76.919z" fill="#d9eeff" fill-rule="evenodd"/></g><g><path clip-rule="evenodd" d="m296.517 106.383c60.534 112.808 58.052 197.348-5.285 299.234h60.067c21.229 0 38.633-17.404 38.633-38.664v-221.936c0-21.259-17.404-38.634-38.633-38.634z" fill="#85beef" fill-rule="evenodd"/></g><g><path clip-rule="evenodd" d="m317.425 172.905c0 10.98 8.936 19.916 19.915 19.916 11.009 0 19.944-8.936 19.944-19.916 0-11.009-8.936-19.945-19.944-19.945-10.979 0-19.915 8.936-19.915 19.945z" fill="#eb5468" fill-rule="evenodd"/></g><g><path clip-rule="evenodd" d="m317.425 255.985c0 11.009 8.936 19.916 19.915 19.916 11.009 0 19.944-8.907 19.944-19.916s-8.936-19.916-19.944-19.916c-10.979.001-19.915 8.907-19.915 19.916z" fill="#eb5468" fill-rule="evenodd"/></g><g><path clip-rule="evenodd" d="m317.425 339.095c0 11.009 8.936 19.916 19.915 19.916 11.009 0 19.944-8.907 19.944-19.916s-8.936-19.916-19.944-19.916c-10.979 0-19.915 8.906-19.915 19.916z" fill="#ffe07d" fill-rule="evenodd"/></g><g><path d="m195.13 246.687h-21.054c-9.686 0-17.566-7.881-17.566-17.567v-56.36c0-9.687 7.88-17.567 17.566-17.567h21.054c9.671 0 17.538 7.881 17.538 17.567v56.36c0 9.686-7.867 17.567-17.538 17.567zm-21.055-76.042c-1.126 0-2.114.988-2.114 2.115v56.36c0 1.127.988 2.115 2.114 2.115h21.054c1.131 0 2.086-.968 2.086-2.115v-56.36c0-1.146-.955-2.115-2.086-2.115z" fill="#2b4d66"/></g><path d="m190.195 265.313h-25.96c-4.268 0-7.726 3.459-7.726 7.726s3.459 7.726 7.726 7.726h25.96c1.146 0 2.115.955 2.115 2.086v20.454h-28.074c-4.268 0-7.726 3.459-7.726 7.726s3.459 7.726 7.726 7.726h28.074v20.454c0 1.146-.969 2.115-2.115 2.115h-25.96c-4.268 0-7.726 3.459-7.726 7.726s3.459 7.726 7.726 7.726h25.96c9.687 0 17.567-7.881 17.567-17.567v-56.36c.001-9.67-7.88-17.538-17.567-17.538z" fill="#2b4d66"/><g><path d="m274.703 246.687c-4.268 0-7.726-3.459-7.726-7.726v-66.201c0-1.127-.988-2.115-2.115-2.115h-30.865c-4.268 0-7.726-3.459-7.726-7.726s3.459-7.726 7.726-7.726h30.865c9.687 0 17.567 7.881 17.567 17.567v66.201c.001 4.267-3.458 7.726-7.726 7.726z" fill="#2b4d66"/></g><g><path d="m264.862 356.779h-21.024c-9.687 0-17.567-7.881-17.567-17.567v-56.36c0-9.671 7.88-17.538 17.567-17.538h21.024c9.687 0 17.567 7.868 17.567 17.538v56.36c.001 9.686-7.88 17.567-17.567 17.567zm-21.024-76.013c-1.146 0-2.115.955-2.115 2.086v56.36c0 1.146.969 2.115 2.115 2.115h21.024c1.146 0 2.115-.968 2.115-2.115v-56.36c0-1.13-.969-2.086-2.115-2.086z" fill="#2b4d66"/></g></g></svg>