<svg id="Capa_1" enable-background="new 0 0 512 512" height="512" viewBox="0 0 512 512" width="512" xmlns="http://www.w3.org/2000/svg"><g><g><path d="m228.91 112.921c-1.051 0-2.117-.219-3.137-.68-22.471-10.18-36.431-30.452-36.431-52.904.001-32.719 29.909-59.337 66.671-59.337s66.67 26.618 66.67 59.336c0 22.459-13.972 42.731-36.463 52.906-3.829 1.733-8.339.032-10.072-3.798-1.732-3.83-.032-8.339 3.798-10.072 16.972-7.677 27.515-22.635 27.515-39.036 0-24.324-23.079-44.113-51.447-44.113s-51.447 19.789-51.447 44.113c0 16.397 10.534 31.356 27.49 39.038 3.83 1.734 5.527 6.245 3.792 10.074-1.274 2.81-4.043 4.473-6.939 4.473z" fill="#375e7d"/></g><g><path clip-rule="evenodd" d="m86.459 187.843 20.367 20.368c29.199 3.797 39.497-8.63 33.917-33.889l-20.367-20.396c-9.349-9.321-24.596-9.321-33.916 0-9.321 9.32-9.321 24.596-.001 33.917z" fill="#95d6a4" fill-rule="evenodd"/></g><g><path clip-rule="evenodd" d="m405.171 208.21 20.396-20.368c9.321-9.321 9.321-24.597 0-33.917-9.321-9.321-24.596-9.321-33.917 0l-20.367 20.396c-1.151 21.289 9.867 33.113 33.888 33.889z" fill="#eb5468" fill-rule="evenodd"/></g><g><path clip-rule="evenodd" d="m228.914 136.923c19.36 15.42 37.627 15.592 54.169 0v-31.616-13.089c0-14.902-12.169-27.099-27.07-27.099s-27.099 12.198-27.099 27.099v13.089z" fill="#eff6ff" fill-rule="evenodd"/></g><g><path clip-rule="evenodd" d="m106.826 208.21c-57.275 73.962-51.982 180.691 15.908 248.584 36.736 36.737 84.892 55.148 133.048 55.206h.46c48.156-.058 96.312-18.469 133.048-55.206 67.862-67.892 73.155-174.621 15.879-248.584-4.833-6.243-10.126-12.255-15.879-18.009-5.725-5.754-11.766-11.047-18.008-15.88-26.322-20.396-56.786-32.853-88.2-37.398-17.951-2.589-36.218-2.589-54.169 0-31.385 4.545-61.849 17.002-88.171 37.398-6.242 4.833-12.284 10.126-18.008 15.88-5.753 5.754-11.046 11.767-15.908 18.009z" fill="#375e7d" fill-rule="evenodd"/></g><g><path clip-rule="evenodd" d="m403.333 323.489c0 37.936-14.35 72.553-37.905 98.645-1.705 1.888-3.451 3.725-5.247 5.521s-3.633 3.542-5.521 5.237c-24.367 21.992-56.092 35.947-91.034 37.723-2.517.132-5.054.193-7.611.193s-5.095-.061-7.612-.193c-34.942-1.776-66.697-15.73-91.034-37.723-1.888-1.695-3.725-3.44-5.521-5.237-1.796-1.796-3.552-3.643-5.247-5.531-23.575-26.092-37.905-60.699-37.905-98.635 38.118-75.78 25.027-129.801 147.318-129.801 81.008 6.728 109.282 73.638 147.319 129.801z" fill="#eff6ff" fill-rule="evenodd"/></g><g><path clip-rule="evenodd" d="m151.847 219.315c-26.667 26.668-43.151 63.491-43.151 104.169h35.01c0-31.012 12.571-59.089 32.881-79.4l-2.647-21.633z" fill="#95d6a4" fill-rule="evenodd"/></g><g><path clip-rule="evenodd" d="m176.587 244.084c20.338-20.339 48.415-32.911 79.426-32.911l13.434-15.765-13.434-19.246c-40.677 0-77.528 16.484-104.166 43.152z" fill="#9fd4fe" fill-rule="evenodd"/></g><g><path clip-rule="evenodd" d="m256.013 211.174c31.011 0 59.088 12.572 79.397 32.911l20.425 3.625 4.344-28.394c-26.667-26.668-63.489-43.152-104.166-43.152z" fill="#ffe07d" fill-rule="evenodd"/></g><g><path clip-rule="evenodd" d="m335.41 244.084c20.338 20.31 32.91 48.388 32.91 79.4h35.01c0-40.678-16.484-77.501-43.151-104.169z" fill="#e5384f" fill-rule="evenodd"/></g><g><path clip-rule="evenodd" d="m310.153 225.068c9.292 5.121 17.807 11.536 25.258 19.016l7.364-7.336 17.404-17.433c-19.101-19.102-43.438-32.997-70.652-39.326 4.948 8.343 9.407 17.146 13.405 26.323 2.618 6.099 5.035 12.341 7.221 18.756z" fill="#ffc250" fill-rule="evenodd"/></g><g><path clip-rule="evenodd" d="m310.153 225.068c9.148 26.927 14.24 56.615 14.24 87.857 0 61.391-19.648 116.913-51.321 156.9 33.859-3.884 64.237-19.275 87.107-42.174 26.667-26.639 43.151-63.491 43.151-104.169h-35.01c0-31.012-12.571-59.089-32.91-79.4-7.45-7.478-15.965-13.893-25.257-19.014z" fill="#d9eeff" fill-rule="evenodd"/></g><g><path clip-rule="evenodd" d="m389.291 456.794c67.862-67.892 73.155-174.621 15.879-248.584-4.833-6.243-10.126-12.255-15.879-18.009-5.725-5.754-11.766-11.047-18.008-15.88-26.322-20.396-56.786-32.853-88.2-37.398-17.864-2.56-36.017-2.589-53.881-.029 13.032 1.927 25.89 5.236 38.347 9.896 17.347 6.502 33.917 15.621 49.077 27.387 6.271 4.833 12.284 10.126 18.037 15.88s11.047 11.766 15.879 18.009c1.755 2.273 3.452 4.574 5.092 6.876 1.553 1.438 3.049 2.877 4.545 4.373 26.667 26.668 43.151 63.491 43.151 104.169s-16.484 77.53-43.151 104.169c-1.669 1.697-3.395 3.337-5.149 4.919-6.012 8.429-12.801 16.484-20.367 24.05-29.975 29.976-67.517 47.755-106.467 53.307 9.148 1.381 18.353 2.043 27.588 2.071h.46c48.155-.058 96.312-18.469 133.047-55.206z" fill="#2b4d66" fill-rule="evenodd"/></g><g><path clip-rule="evenodd" d="m283.083 105.307v-13.089c0-14.902-12.169-27.099-27.07-27.099-9.493 0-17.893 4.977-22.755 12.428.863-.086 1.726-.144 2.589-.144 14.901 0 27.099 12.198 27.099 27.099v13.089 17.52c6.732.259 13.463.863 20.137 1.812z" fill="#d9eeff" fill-rule="evenodd"/></g><g><path clip-rule="evenodd" d="m127.568 185.541c4.258-3.999 8.659-7.71 13.175-11.219l-20.367-20.396c-9.349-9.321-24.596-9.321-33.916 0-5.063 5.063-7.393 11.881-6.933 18.555.173-.173.345-.374.518-.547 9.349-9.321 24.596-9.321 33.916 0z" fill="#78c2a4" fill-rule="evenodd"/></g><g><path clip-rule="evenodd" d="m425.567 187.843c9.321-9.321 9.321-24.597 0-33.917-5.379-5.38-12.744-7.652-19.792-6.818.949.69 1.87 1.496 2.733 2.359 9.321 9.321 9.321 24.568 0 33.917l-13.147 13.147c3.452 3.797 6.732 7.71 9.81 11.68z" fill="#e5384f" fill-rule="evenodd"/></g><g><path d="m181.971 408.291-24.6 24.6c-1.888-1.695-3.725-3.44-5.521-5.237-1.796-1.796-3.552-3.643-5.247-5.531l24.6-24.59c2.974-2.974 7.794-2.974 10.768 0 2.973 2.974 2.973 7.784 0 10.758z" fill="#85beef"/></g><g><path d="m263.627 435.794v34.82c-2.517.132-5.054.193-7.611.193s-5.095-.061-7.612-.193v-34.82c0-4.202 3.41-7.612 7.612-7.612 4.201 0 7.611 3.41 7.611 7.612z" fill="#85beef"/></g><g><path d="m365.428 422.134c-1.705 1.888-3.451 3.725-5.247 5.521s-3.633 3.542-5.521 5.237l-24.631-24.59c-2.974-2.974-2.974-7.794 0-10.768 2.963-2.974 7.784-2.974 10.758-.01z" fill="#85beef"/></g><g><path d="m256.013 308.771c-4.204 0-7.612-3.408-7.612-7.611v-57.564c0-4.204 3.408-7.611 7.612-7.611s7.611 3.408 7.611 7.611v57.564c.001 4.203-3.407 7.611-7.611 7.611z" fill="#375e7d"/></g><g><path d="m289.901 386.732h-67.776c-4.204 0-7.611-3.408-7.611-7.612s3.408-7.611 7.611-7.611h67.776c4.204 0 7.611 3.408 7.611 7.611s-3.408 7.612-7.611 7.612z" fill="#375e7d"/></g><g><path clip-rule="evenodd" d="m233.69 323.484c0 12.341 9.982 22.324 22.323 22.324s22.323-9.983 22.323-22.324c0-12.313-9.982-22.324-22.323-22.324s-22.323 10.011-22.323 22.324z" fill="#ffe07d" fill-rule="evenodd"/></g></g></svg>