<svg id="Capa_1" enable-background="new 0 0 512 512" height="512" viewBox="0 0 512 512" width="512" xmlns="http://www.w3.org/2000/svg"><g><g><path clip-rule="evenodd" d="m259.434 110.401 30.312-18.859v-40.031l-33.202-19.747-33.202 19.747v40.031z" fill="#eff6ff" fill-rule="evenodd"/></g><g><path clip-rule="evenodd" d="m19.931 295.713c0 5.196 4.23 9.456 9.426 9.456h45.407v-44.2h-45.407c-5.196 0-9.426 4.26-9.426 9.456z" fill="#d9eeff" fill-rule="evenodd"/></g><g><path clip-rule="evenodd" d="m120.201 512h271.567c10.272 0 18.701-8.399 18.701-18.701v-18.671l-157.044-15.167-151.924 15.167v18.671c0 10.302 8.429 18.701 18.7 18.701z" fill="#c38c66" fill-rule="evenodd"/></g><g><path clip-rule="evenodd" d="m437.206 305.17h45.407c5.196 0 9.456-4.26 9.456-9.456v-25.287c0-5.196-4.26-9.456-9.456-9.456h-45.407z" fill="#d9eeff" fill-rule="evenodd"/></g><g><path clip-rule="evenodd" d="m357.872 101.844h52.597c.816 0 1.631.03 2.447.06v-27.794c0-9.607-7.885-17.493-17.492-17.493h-20.06c-9.607 0-17.492 7.885-17.492 17.493z" fill="#95d6a4" fill-rule="evenodd"/></g><g><path clip-rule="evenodd" d="m101.501 101.844h55.044v-27.795c0-9.638-7.885-17.493-17.492-17.493h-20.03c-9.637 0-17.522 7.855-17.522 17.493z" fill="#95d6a4" fill-rule="evenodd"/></g><g><path clip-rule="evenodd" d="m234.671 51.511h42.628 12.447 27.341v-11.571c0-21.934-17.885-39.88-39.788-39.94h-42.628c-21.903.06-39.788 18.006-39.788 39.94v11.571h28.459z" fill="#eb5468" fill-rule="evenodd"/></g><g><path clip-rule="evenodd" d="m64.462 128.582v132.388 44.2 132.388c0 20.393 16.676 37.07 37.039 37.07h308.968c20.362 0 37.039-16.677 37.039-37.07v-132.388-44.2-132.388c0-19.547-15.347-35.68-34.592-36.979-17.039-1.118-37.613-.06-55.044-.06h-68.126-66.404-66.797-55.044c-20.362-.001-37.039 16.676-37.039 37.039z" fill="#375e7d" fill-rule="evenodd"/></g><g><path clip-rule="evenodd" d="m104.733 139.911v286.318c0 4.471 3.625 8.127 8.097 8.127h286.31c4.471 0 8.097-3.656 8.097-8.127v-286.318c0-4.471-3.625-8.097-8.097-8.097h-286.31c-4.471 0-8.097 3.626-8.097 8.097z" fill="#9fd4fe" fill-rule="evenodd"/></g><g><path clip-rule="evenodd" d="m140.956 283.296c0 63.535 51.51 115.047 115.044 115.047s115.013-51.511 115.013-115.047-51.479-115.046-115.013-115.046-115.044 51.511-115.044 115.046z" fill="#eff6ff" fill-rule="evenodd"/></g><g><path clip-rule="evenodd" d="m407.236 426.229v-286.318c0-4.471-3.625-8.097-8.097-8.097h-103.774c8.429 16.465 15.468 34.381 20.815 53.415 32.9 20.242 54.833 56.587 54.833 98.068 0 44.079-24.773 82.357-61.177 101.693-6.375 17.704-14.199 34.26-23.293 49.366h112.597c4.471 0 8.096-3.656 8.096-8.127z" fill="#85beef" fill-rule="evenodd"/></g><g><path clip-rule="evenodd" d="m295.365 131.814h103.775c4.471 0 8.097 3.625 8.097 8.097v286.318c0 4.471-3.625 8.127-8.097 8.127h-112.597c-9.033 14.955-19.305 28.46-30.604 40.272h154.529c20.362 0 37.039-16.677 37.039-37.07v-132.388-44.2-132.388c0-19.547-15.347-35.68-34.592-36.979-17.039-1.118-37.613-.06-55.044-.06h-68.065-.06-20.03c2.628 3.323 5.166 6.767 7.643 10.302 6.556 9.335 12.568 19.335 18.006 29.969z" fill="#2b4d66" fill-rule="evenodd"/></g><g><path clip-rule="evenodd" d="m371.013 283.296c0-41.481-21.933-77.826-54.833-98.068-17.25-10.604-37.492-16.798-59.183-16.979 40.271 19.154 68.337 62.357 68.337 112.569 0 50.635-28.549 94.14-69.334 113.053-3.263 1.511-6.586 2.84-9.97 4.048 3.293.272 6.616.423 9.97.423 19.426 0 37.764-4.834 53.836-13.354 36.404-19.334 61.177-57.613 61.177-101.692z" fill="#d9eeff" fill-rule="evenodd"/></g><g><path clip-rule="evenodd" d="m289.746 91.542v-40.031h-12.447-14.381v40.031h6.798z" fill="#d9eeff" fill-rule="evenodd"/></g><g><path clip-rule="evenodd" d="m317.087 39.94c0-21.934-17.885-39.88-39.788-39.94h-26.767c21.873.121 39.727 18.036 39.727 39.94v11.571h26.827v-11.571z" fill="#e5384f" fill-rule="evenodd"/></g><g><path clip-rule="evenodd" d="m156.545 74.049c0-9.638-7.885-17.493-17.492-17.493h-20.03c9.607 0 17.492 7.855 17.492 17.493v17.493h20.03z" fill="#78c2a4" fill-rule="evenodd"/></g><g><path clip-rule="evenodd" d="m412.916 74.11c0-9.607-7.885-17.493-17.492-17.493h-20.06c9.637 0 17.522 7.885 17.522 17.493v16.979c6.888 0 13.655.121 19.939.514h.091z" fill="#78c2a4" fill-rule="evenodd"/></g><g><path clip-rule="evenodd" d="m410.469 474.628h-85.89v18.671c0 10.302-8.429 18.701-18.701 18.701h85.89c10.272 0 18.701-8.399 18.701-18.701z" fill="#b57f5f" fill-rule="evenodd"/></g><g fill="#2b4d66"><path d="m233.767 210.988c-1.642-3.94-6.168-5.802-10.104-4.159-3.939 1.642-5.801 6.165-4.159 10.104l21.571 51.753c1.237 2.967 4.109 4.756 7.135 4.756.991 0 1.998-.192 2.969-.597 3.939-1.642 5.801-6.165 4.159-10.104z"/><path d="m303.401 275.359h-28.429c-4.267 0-7.726 3.459-7.726 7.726s3.459 7.726 7.726 7.726h28.429c4.267 0 7.726-3.459 7.726-7.726s-3.459-7.726-7.726-7.726z"/><path d="m256 160.523c-67.696 0-122.77 55.076-122.77 122.773s55.074 122.773 122.77 122.773c67.679 0 122.74-55.076 122.74-122.773s-55.061-122.773-122.74-122.773zm95.164 130.288h11.856c-1.655 23.814-11.106 45.513-25.818 62.551l-8.428-8.429c-3.017-3.018-7.909-3.017-10.927 0s-3.018 7.909 0 10.927l8.447 8.447c-17.019 14.796-38.728 24.324-62.567 26.029v-12.084c0-4.267-3.459-7.726-7.726-7.726s-7.726 3.459-7.726 7.726v12.084c-23.846-1.705-45.562-11.232-62.586-26.028l8.46-8.442c3.02-3.014 3.026-7.906.012-10.927-3.015-3.02-7.906-3.025-10.927-.012l-8.455 8.437c-14.717-17.038-24.172-38.738-25.827-62.553h11.855c4.267 0 7.726-3.459 7.726-7.726s-3.459-7.726-7.726-7.726h-11.828c1.745-23.759 11.258-45.394 26.005-62.367l8.244 8.245c1.509 1.509 3.486 2.263 5.464 2.263 1.977 0 3.955-.755 5.463-2.263 3.017-3.018 3.018-7.909.001-10.927l-8.23-8.23c16.988-14.679 38.614-24.126 62.35-25.823v11.631c0 4.267 3.459 7.726 7.726 7.726s7.726-3.459 7.726-7.726v-11.631c23.729 1.697 45.348 11.145 62.331 25.824l-8.217 8.235c-3.014 3.021-3.009 7.913.012 10.927 1.508 1.505 3.483 2.257 5.457 2.257 1.98 0 3.96-.757 5.469-2.269l8.218-8.236c14.742 16.973 24.251 38.606 25.996 62.365h-11.829c-4.267 0-7.726 3.459-7.726 7.726-.001 4.266 3.458 7.725 7.725 7.725z"/></g><g><path clip-rule="evenodd" d="m236.997 283.085c0 10.484 8.489 18.973 19.003 18.973 10.483 0 18.973-8.49 18.973-18.973 0-10.514-8.489-19.003-18.973-19.003-10.513 0-19.003 8.489-19.003 19.003z" fill="#ffe07d" fill-rule="evenodd"/></g></g></svg>