<svg id="Capa_1" enable-background="new 0 0 512 512" height="512" viewBox="0 0 512 512" width="512" xmlns="http://www.w3.org/2000/svg"><g><g><path clip-rule="evenodd" d="m53.002 190.294h123.262l37.601 44.374c1.198 1.414 3.379 1.414 4.578 0l37.601-44.374h123.261c14.279 0 25.961-11.683 25.961-25.961v-131.852c0-14.263-11.669-25.932-25.932-25.932h-326.361c-14.263 0-25.932 11.669-25.932 25.932v131.851c0 14.28 11.681 25.962 25.961 25.962z" fill="#eb5468" fill-rule="evenodd"/></g><g><path clip-rule="evenodd" d="m377.408 6.549c-20.763 31.101-54.082 62.699-96.425 90.558-22.807 14.981-48.213 28.911-75.663 41.059-61.383 27.159-122.386 40.855-173.285 41.439 4.731 6.454 12.382 10.688 20.967 10.688h123.262l37.601 44.374c1.198 1.414 3.379 1.414 4.578 0l37.601-44.374h123.261c14.279 0 25.961-11.683 25.961-25.961v-131.851c0-14.262-11.669-25.931-25.931-25.931h-1.927z" fill="#e5384f" fill-rule="evenodd"/></g><g><path clip-rule="evenodd" d="m512 329.421c0 3.874-.855 7.561-2.39 10.889-4.162 9.076-13.341 15.422-23.921 15.422h-10.158c.206 0 .412 0 .608.021 14.124.371 25.548 12.063 25.548 26.259 0 3.863-.845 7.551-2.369 10.858-4.131 9.045-13.238 15.391-23.787 15.453h-10.425c14.453 0 26.28 11.827 26.28 26.28 0 3.863-.845 7.531-2.359 10.848-4.049 8.87-12.877 15.144-23.138 15.442-.258.021-.525.021-.783.021h-13.732c12.239 0 22.283 10.024 22.283 22.252 0 12.269-10.044 22.283-22.283 22.283h-117.307c-40.672 0-60.039-17.874-86.669-26.723.67-1.453 1.37-3.121 1.02-4.811l-18.162-89.389 18.162-89.389s0 0 0-.031c21.757-.175 21.057-1.957 46.379-19.161 26.022-17.668 33.378-22.891 71.577-22.891h50.139c15.298 0 27.825 12.527 27.825 27.825v22.345l41.352-.093c14.453-.052 26.31 11.826 26.31 26.29z" fill="#ffe5c1" fill-rule="evenodd"/></g><g><path clip-rule="evenodd" d="m116.575 295.132-11.681 79.169 11.681 99.611h67.31l15.857-89.39-15.857-89.39z" fill="#ffe5c1" fill-rule="evenodd"/></g><g><path clip-rule="evenodd" d="m70.815 263.622-12.528 112.256 12.528 129.573h32.122c7.505 0 13.637-6.133 13.637-13.667v-17.872-178.78-17.872c0-7.505-6.132-13.638-13.637-13.638z" fill="#eff6ff" fill-rule="evenodd"/></g><g><path clip-rule="evenodd" d="m0 266.712v235.648c0 1.707 1.384 3.091 3.091 3.091h67.724v-117.588-124.241h-67.724c-1.707 0-3.091 1.384-3.091 3.09z" fill="#9fd4fe" fill-rule="evenodd"/></g><g><path clip-rule="evenodd" d="m70.815 477.036h-70.815v25.324c0 1.707 1.384 3.091 3.091 3.091h67.724z" fill="#85beef" fill-rule="evenodd"/></g><g><path clip-rule="evenodd" d="m70.815 477.036v28.414h32.122c7.505 0 13.637-6.133 13.637-13.667v-17.872-10.513c0 7.505-6.132 13.638-13.637 13.638z" fill="#d9eeff" fill-rule="evenodd"/></g><g><path clip-rule="evenodd" d="m116.575 473.912h67.31v-28.385h-67.31v17.872z" fill="#fed1a3" fill-rule="evenodd"/></g><g><path clip-rule="evenodd" d="m334.072 481.3c-40.153 0-59.543-23.245-85.65-32.182v24.793c0 1.723-.35 3.358-1.022 4.818 26.632 8.848 45.993 26.721 86.672 26.721h117.305c12.236 0 22.281-10.017 22.281-22.282 0-5.753-2.219-11.009-5.84-14.981-4.088 4.468-9.958 13.112-16.441 13.112h-117.305z" fill="#fed1a3" fill-rule="evenodd"/></g><g><path clip-rule="evenodd" d="m183.885 295.132v38.285c9.345-5.899 20.412-9.316 32.268-9.316 11.885 0 22.953 3.417 32.268 9.316v-38.285s0 0 0-.029c0-6.512-5.344-11.827-11.856-11.827h-40.795c-6.541-.001-11.885 5.344-11.885 11.856z" fill="#c38c66" fill-rule="evenodd"/></g><g><path clip-rule="evenodd" d="m183.885 435.627v38.285c0 6.541 5.344 11.886 11.885 11.886h40.795c4.818 0 8.965-2.92 10.834-7.067.672-1.46 1.022-3.095 1.022-4.818v-38.285c-9.315 5.899-20.383 9.345-32.268 9.345-11.855-.001-22.923-3.447-32.268-9.346z" fill="#c38c66" fill-rule="evenodd"/></g><g><path clip-rule="evenodd" d="m195.771 457.383c-6.541 0-11.885-5.344-11.885-11.856v28.385c0 6.541 5.344 11.886 11.885 11.886h40.795c4.818 0 8.965-2.92 10.834-7.067.672-1.46 1.022-3.095 1.022-4.818v-28.385c0 1.694-.35 3.329-1.022 4.818-1.869 4.147-6.016 7.038-10.834 7.038h-40.795z" fill="#b57f5f" fill-rule="evenodd"/></g><g><path clip-rule="evenodd" d="m183.885 333.417c9.345-5.899 20.412-9.316 32.268-9.316 11.885 0 22.953 3.417 32.268 9.316v-15.39c-.146-.117-.321-.204-.467-.292-9.345-5.928-20.412-9.345-32.268-9.345-11.652 0-22.544 3.3-31.801 9.024z" fill="#b57f5f" fill-rule="evenodd"/></g><g><path clip-rule="evenodd" d="m155.735 384.522c0 21.523 11.243 40.388 28.151 51.105 9.345 5.899 20.412 9.345 32.268 9.345 11.885 0 22.953-3.446 32.268-9.345 16.937-10.717 28.18-29.582 28.18-51.105 0-21.493-11.243-40.388-28.18-51.105-9.315-5.899-20.383-9.316-32.268-9.316-11.856 0-22.924 3.417-32.268 9.316-16.909 10.717-28.151 29.612-28.151 51.105z" fill="#eff6ff" fill-rule="evenodd"/></g><g><path clip-rule="evenodd" d="m214.285 417.959c-11.856 0-22.924-3.417-32.268-9.345-12.09-7.651-21.288-19.507-25.552-33.525-.467 3.096-.73 6.22-.73 9.433 0 21.523 11.243 40.388 28.151 51.105 9.345 5.899 20.412 9.345 32.268 9.345 11.885 0 22.953-3.446 32.268-9.345 16.937-10.717 28.18-29.582 28.18-51.105 0-6.103-.905-12.002-2.599-17.58-2.745 17.522-13.053 32.561-27.45 41.672-9.315 5.928-20.383 9.345-32.268 9.345z" fill="#d9eeff" fill-rule="evenodd"/></g><g><path d="m216.154 452.698c-37.575 0-68.145-30.584-68.145-68.177 0-37.576 30.57-68.147 68.145-68.147 37.592 0 68.175 30.57 68.175 68.147-.001 37.593-30.584 68.177-68.175 68.177zm0-120.871c-29.055 0-52.693 23.638-52.693 52.694 0 29.072 23.638 52.724 52.693 52.724 29.071 0 52.722-23.652 52.722-52.724 0-29.055-23.651-52.694-52.722-52.694z" fill="#ffc250"/></g><path d="m230.259 376.795h-10.056l-14.108-20.383c-2.429-3.51-7.243-4.385-10.75-1.956-3.509 2.429-4.385 7.241-1.956 10.75l16.355 23.631c1.421 2.115 3.88 3.411 6.423 3.411h14.091c4.267 0 7.726-3.459 7.726-7.726.001-4.267-3.458-7.727-7.725-7.727z" fill="#375e7d"/><g><path d="m266.832 143.678c-9.432.001-18.357-4.482-23.976-12.067-2.54-3.429-1.82-8.268 1.609-10.807 3.429-2.541 8.267-1.82 10.807 1.609 2.763 3.729 7.211 5.911 11.834 5.81 7.444-.152 13.578-6.091 13.957-13.52.211-3.974-1.172-7.734-3.892-10.603-2.73-2.879-6.417-4.464-10.381-4.464-5.7 0-8 .849-10.857 2.144-.049.022-.099.044-.148.065-.144.062-.254.112-.325.146-2.577 1.478-5.684 1.293-8.133-.396-2.464-1.699-3.629-4.721-3.141-7.674l5.344-32.357c.616-3.731 3.842-6.467 7.623-6.467h27.07c4.267 0 7.726 3.459 7.726 7.726s-3.459 7.726-7.726 7.726h-20.516l-2.291 13.873c1.611-.158 3.381-.24 5.373-.24 8.127 0 15.997 3.384 21.593 9.284 5.668 5.976 8.548 13.803 8.111 22.039-.789 15.471-13.562 27.85-29.079 28.167-.193.004-.388.006-.582.006z" fill="#eff6ff"/></g><g><path d="m156.768 142.451c-14.073 0-15.123-.351-16.15-.693-2.558-.853-4.469-2.788-5.245-5.311-1.326-4.312.56-6.782 5.119-12.75 3.66-4.791 10.474-13.71 21.88-30.001 3.33-4.758 5.471-8.986 6.366-12.573l.23-1.84c-.22-5.708-4.932-10.284-10.692-10.284-5.099 0-9.512 3.629-10.494 8.628-.823 4.188-4.886 6.915-9.071 6.092-4.187-.823-6.914-4.884-6.092-9.071 2.403-12.226 13.194-21.101 25.657-21.101 14.421 0 26.153 11.732 26.153 26.153 0 .32-.02.641-.06.959l-.351 2.803c-.032.259-.077.516-.136.77-1.288 5.609-4.266 11.774-8.851 18.325-7.875 11.247-13.604 19.047-17.636 24.423 6.554-.007 14.656-.067 22.278-.163 4.241-.059 7.769 3.363 7.822 7.629.053 4.267-3.363 7.769-7.629 7.822-10.179.13-17.625.183-23.098.183z" fill="#eff6ff"/></g><g><path d="m344.497 143.557c-15.741 0-28.547-12.807-28.547-28.548v-33.32c0-15.741 12.806-28.548 28.547-28.548s28.547 12.806 28.547 28.548v33.32c0 15.741-12.806 28.548-28.547 28.548zm0-74.964c-7.22 0-13.095 5.874-13.095 13.095v33.32c0 7.221 5.874 13.096 13.095 13.096 7.22 0 13.095-5.875 13.095-13.096v-33.32c0-7.221-5.875-13.095-13.095-13.095z" fill="#eff6ff"/></g><g><path d="m216.154 134.328c-4.267 0-7.726-3.459-7.726-7.726v-.117c0-4.267 3.459-7.726 7.726-7.726s7.726 3.459 7.726 7.726v.117c0 4.267-3.459 7.726-7.726 7.726z" fill="#2b4d66"/></g><g><path d="m216.154 78.054c-4.267 0-7.726-3.459-7.726-7.726v-.117c0-4.267 3.459-7.726 7.726-7.726s7.726 3.459 7.726 7.726v.117c0 4.267-3.459 7.726-7.726 7.726z" fill="#2b4d66"/></g><g><path d="m444.338 287.719v15.453l-46.77-.021c-4.275 0-7.726-3.461-7.726-7.726s3.461-7.726 7.726-7.726z" fill="#fed1a3"/></g><g><path d="m509.61 340.31c-4.162 9.076-13.341 15.422-23.921 15.422h-10.158c.206 0 .412 0 .608.021l-24.405-.01c-4.265-.01-7.726-3.472-7.716-7.737 0-4.265 3.461-7.716 7.726-7.716h.01z" fill="#fed1a3"/></g><g><path d="m499.318 392.87c-4.131 9.045-13.238 15.391-23.787 15.453h-10.425l-19.646-.01c-4.275-.01-7.726-3.472-7.716-7.737 0-4.265 3.461-7.716 7.726-7.716h.01z" fill="#fed1a3"/></g><g><path d="m489.027 445.45c-4.049 8.87-12.877 15.144-23.138 15.442l-30.071-.01c-4.265 0-7.726-3.461-7.716-7.737.01-4.255 3.461-7.716 7.726-7.716h.01z" fill="#fed1a3"/></g><g><path d="m87.84 143.557c-15.741 0-28.548-12.807-28.548-28.548v-33.32c0-15.741 12.806-28.548 28.548-28.548 15.741 0 28.547 12.806 28.547 28.548v33.32c0 15.741-12.806 28.548-28.547 28.548zm0-74.964c-7.221 0-13.095 5.874-13.095 13.095v33.32c0 7.221 5.874 13.096 13.095 13.096 7.22 0 13.095-5.875 13.095-13.096v-33.32c0-7.221-5.875-13.095-13.095-13.095z" fill="#eff6ff"/></g></g></svg>