<svg id="Capa_1" enable-background="new 0 0 512 512" height="512" viewBox="0 0 512 512" width="512" xmlns="http://www.w3.org/2000/svg"><g><g><g><path clip-rule="evenodd" d="m166.367 290.736-16.703 62.083 16.703 87.548 97.503 13.17 81.734-13.17 10.921-78.991-10.921-70.64-89.619-13.141z" fill="#eff6ff" fill-rule="evenodd"/></g><g><path clip-rule="evenodd" d="m126.653 290.736h39.714v149.631h-39.714z" fill="#375e7d" fill-rule="evenodd"/></g><g><path clip-rule="evenodd" d="m345.604 290.736h39.714v149.631h-39.714z" fill="#375e7d" fill-rule="evenodd"/></g><g><path clip-rule="evenodd" d="m126.653 299.175h39.714v24.851h-39.714z" fill="#2b4d66" fill-rule="evenodd"/></g><g><path clip-rule="evenodd" d="m166.367 299.175v24.851h89.618 89.619v-24.851h-89.619z" fill="#d9eeff" fill-rule="evenodd"/></g><g><path clip-rule="evenodd" d="m345.604 299.175h39.714v24.851h-39.714z" fill="#2b4d66" fill-rule="evenodd"/></g><g><path d="m255.985 410.131c-4.267 0-7.726-3.459-7.726-7.726v-16.353c0-4.267 3.459-7.726 7.726-7.726s7.727 3.459 7.727 7.726v16.353c0 4.267-3.459 7.726-7.727 7.726zm0-66.844c-4.267 0-7.726-3.459-7.726-7.726v-36.386c0-4.267 3.459-7.726 7.726-7.726s7.727 3.459 7.727 7.726v36.386c0 4.267-3.459 7.726-7.727 7.726z" fill="#375e7d"/></g><g><path clip-rule="evenodd" d="m86.063 255.985v184.382h40.59v-143.908-40.474c-.058 0-.146 0-.234 0h-40.122c-.088 0-.146 0-.234 0z" fill="#9fd4fe" fill-rule="evenodd"/></g><g><path clip-rule="evenodd" d="m116.374 49.644v249.532h49.993 89.619 89.619 50.022c0-77.093 0-155.997 0-249.532h-52.299c-12.761 0-17.725.204-28.705-5.402-17.608-8.965-37.524-14.017-58.636-14.017s-41.028 5.052-58.636 14.017c-10.98 5.607-15.944 5.402-28.705 5.402z" fill="#c38c66" fill-rule="evenodd"/></g><g><path clip-rule="evenodd" d="m86.063 45.818v194.252h.234 40.123.234v-194.223h-39.218c-.468 0-.935 0-1.373-.029z" fill="#9fd4fe" fill-rule="evenodd"/></g><g><path clip-rule="evenodd" d="m385.318 48.505v192.967h.234 40.123.263v-193.026c-.467.029-.934.058-1.402.058h-39.218z" fill="#9fd4fe" fill-rule="evenodd"/></g><g><path clip-rule="evenodd" d="m385.318 294.591v137.337h40.619v-175.943c-.088 0-.175 0-.263 0h-40.123c-.058 0-.146 0-.234 0v38.606z" fill="#9fd4fe" fill-rule="evenodd"/></g><g><path clip-rule="evenodd" d="m169.112 169.927c0 47.95 38.867 86.818 86.786 86.818 47.949 0 86.815-38.868 86.815-86.818s-38.867-86.789-86.815-86.789c-47.92 0-86.786 38.839-86.786 86.789z" fill="#eff6ff" fill-rule="evenodd"/></g><g><path clip-rule="evenodd" d="m126.653 431.928v-132.753-37.32c-.058 0-.146 0-.234 0h-20.061v37.32 132.753z" fill="#85beef" fill-rule="evenodd"/></g><g><path clip-rule="evenodd" d="m425.937 431.928v-170.073c-.088 0-.175 0-.263 0h-20.061v170.073z" fill="#85beef" fill-rule="evenodd"/></g><g><path clip-rule="evenodd" d="m67.17 39.686c0 11.126 9.111 20.266 20.266 20.266h39.217 41.991c12.761 0 17.725.175 28.705-5.402 17.608-8.965 37.524-14.046 58.636-14.046s41.028 5.081 58.636 14.046c10.98 5.578 15.944 5.402 28.705 5.402h41.991 39.217c11.155 0 20.266-9.14 20.266-20.266 0-11.155-9.111-20.266-20.266-20.266h-76.42c-12.323 0-12.498-.117-23.507-4.994-21.432-9.462-44.647-14.397-68.3-14.426h-.321-.321c-23.653.029-46.839 4.964-68.273 14.426-11.009 4.877-11.184 4.994-23.536 4.994h-76.42c-11.155-.001-20.266 9.11-20.266 20.266z" fill="#ffe07d" fill-rule="evenodd"/></g><g><path clip-rule="evenodd" d="m425.937 59.893c10.483-.73 18.864-9.549 18.864-20.208 0-11.155-9.111-20.266-20.266-20.266h-39.101c11.096.058 20.149 9.14 20.149 20.266s-9.111 20.266-20.266 20.266h39.217c.468.001.936-.028 1.403-.058z" fill="#ffc250" fill-rule="evenodd"/></g><g><path clip-rule="evenodd" d="m70.382 245.94c0 8.673 7.038 15.769 15.681 15.915h.234 40.123.234c8.644-.146 15.681-7.242 15.681-15.915s-7.038-15.798-15.681-15.915c-.058 0-.146 0-.234 0h-40.123c-.088 0-.146 0-.234 0-8.643.117-15.681 7.242-15.681 15.915z" fill="#ffe07d" fill-rule="evenodd"/></g><g><path clip-rule="evenodd" d="m385.318 230.025c-8.644.117-15.681 7.242-15.681 15.915s7.038 15.769 15.681 15.915h.234 40.123.263c8.644-.146 15.652-7.242 15.652-15.915s-7.008-15.798-15.652-15.915h-.263-40.123z" fill="#ffe07d" fill-rule="evenodd"/></g><g><path clip-rule="evenodd" d="m126.653 261.855c8.644-.146 15.681-7.242 15.681-15.915s-7.038-15.798-15.681-15.915h-.234-19.974c8.614.175 15.593 7.242 15.593 15.915s-7.038 15.769-15.681 15.915h20.061z" fill="#ffc250" fill-rule="evenodd"/></g><g><path clip-rule="evenodd" d="m425.937 261.855c8.644-.146 15.652-7.242 15.652-15.915s-7.008-15.798-15.652-15.915h-.263-19.974c8.614.175 15.594 7.242 15.594 15.915s-7.038 15.769-15.681 15.915h20.061z" fill="#ffc250" fill-rule="evenodd"/></g><g><path clip-rule="evenodd" d="m168.644 83.985c12.761 0 17.725.204 28.705-5.402 17.608-8.965 37.524-14.017 58.636-14.017s41.028 5.052 58.636 14.017c10.98 5.607 15.944 5.402 28.705 5.402h41.991v-24.033h-41.991c-12.761 0-17.725.175-28.705-5.402-17.608-8.965-37.524-14.046-58.636-14.046s-41.028 5.081-58.636 14.046c-10.98 5.578-15.944 5.402-28.705 5.402h-41.991v24.033z" fill="#b57f5f" fill-rule="evenodd"/></g><g><path clip-rule="evenodd" d="m255.898 91.899c31.099 13.199 52.913 44.008 52.913 79.926s-21.813 66.727-52.913 79.926c-3.913 1.665-7.972 3.066-12.148 4.147 3.971.555 8.03.847 12.148.847 47.949 0 86.815-38.868 86.815-86.818s-38.867-86.789-86.815-86.789c-7.505 0-14.776.934-21.726 2.716 7.622 1.081 14.893 3.125 21.726 6.045z" fill="#d9eeff" fill-rule="evenodd"/></g><g><path clip-rule="evenodd" d="m126.653 123.788v-63.836h-20.295-18.922c-.467 0-.934-.029-1.372-.058v24.092h10.571c11.184 0 9.724 7.417 9.724 18.281v21.493 106.266h.088 19.974.234v-106.238z" fill="#85beef" fill-rule="evenodd"/></g><g><path clip-rule="evenodd" d="m425.937 230.025v-170.132c-.467.029-.934.058-1.402.058h-18.922-20.295v24.033h8.556c7.884 0 11.739-.204 11.739 8.439v137.6h20.061c.088.002.175.002.263.002z" fill="#85beef" fill-rule="evenodd"/></g><g fill="#2b4d66"><path d="m278.207 162.054h-17.498l-15.689-39.018c-1.592-3.959-6.092-5.878-10.051-4.286s-5.878 6.092-4.286 10.051l17.637 43.861c1.177 2.926 4.014 4.844 7.169 4.844h22.718c4.268 0 7.726-3.459 7.726-7.726s-3.458-7.726-7.726-7.726z"/><path d="m255.898 75.412c-52.114 0-94.513 42.399-94.513 94.515 0 52.132 42.398 94.544 94.513 94.544 52.13 0 94.542-42.412 94.542-94.544 0-52.116-42.412-94.515-94.542-94.515zm71.835 102.095h6.882c-1.532 16.036-7.866 30.689-17.553 42.498l-4.884-4.898c-3.012-3.022-7.904-3.028-10.927-.016-3.021 3.013-3.028 7.905-.015 10.927l4.919 4.932c-11.804 9.739-26.473 16.12-42.532 17.684v-7.047c0-4.267-3.459-7.726-7.726-7.726s-7.726 3.459-7.726 7.726v7.047c-16.052-1.565-30.715-7.946-42.515-17.685l4.923-4.923c3.018-3.017 3.018-7.909 0-10.927-3.017-3.017-7.909-3.017-10.927 0l-4.901 4.901c-9.681-11.809-16.011-26.461-17.543-42.494h6.883c4.267 0 7.726-3.459 7.726-7.726s-3.459-7.726-7.726-7.726h-6.86c1.589-15.994 7.959-30.603 17.664-42.366l4.765 4.752c1.508 1.504 3.482 2.256 5.456 2.256 1.981 0 3.962-.757 5.471-2.271 3.013-3.022 3.007-7.913-.015-10.927l-4.731-4.718c11.768-9.652 26.36-15.977 42.33-17.534v6.696c0 4.267 3.459 7.726 7.726 7.726s7.726-3.459 7.726-7.726v-6.697c15.977 1.556 30.574 7.88 42.347 17.532l-4.726 4.727c-3.017 3.018-3.017 7.909.001 10.927 1.508 1.509 3.486 2.263 5.463 2.263 1.978 0 3.955-.755 5.464-2.263l4.748-4.748c9.71 11.764 16.084 26.374 17.673 42.37h-6.86c-4.268 0-7.726 3.459-7.726 7.726s3.459 7.728 7.726 7.728z"/></g><g><path clip-rule="evenodd" d="m118.36 472.46v19.77c0 10.863 8.906 19.77 19.769 19.77h235.713c10.892 0 19.769-8.907 19.769-19.77v-19.77l-129.741-18.923z" fill="#375e7d" fill-rule="evenodd"/></g><g><path clip-rule="evenodd" d="m85.771 431.928c-11.155 0-20.266 9.111-20.266 20.266 0 11.126 9.111 20.266 20.266 20.266h32.589 275.251 32.618c11.126 0 20.266-9.14 20.266-20.266 0-11.155-9.14-20.266-20.266-20.266h-.292-40.619-39.714-179.237-39.714-40.59z" fill="#ffe07d" fill-rule="evenodd"/></g><g><path clip-rule="evenodd" d="m426.229 472.46c11.126 0 20.266-9.14 20.266-20.266 0-11.155-9.14-20.266-20.266-20.266h-.292-20.324-8.906c11.126 0 20.236 9.111 20.236 20.266 0 11.097-9.052 20.208-20.149 20.266z" fill="#ffc250" fill-rule="evenodd"/></g><g><path clip-rule="evenodd" d="m346.597 472.46v19.77c0 10.863-8.906 19.77-19.798 19.77h47.043c10.892 0 19.769-8.907 19.769-19.77v-19.77z" fill="#2b4d66" fill-rule="evenodd"/></g><g><path clip-rule="evenodd" d="m230.755 360.821c0 13.929 11.301 25.231 25.23 25.231 13.958 0 25.259-11.301 25.259-25.231 0-13.959-11.301-25.26-25.259-25.26-13.929 0-25.23 11.301-25.23 25.26z" fill="#ffe07d" fill-rule="evenodd"/></g><g><path clip-rule="evenodd" d="m247.575 337.021c9.782 3.475 16.82 12.82 16.82 23.8s-7.038 20.325-16.82 23.8c2.628.934 5.461 1.431 8.41 1.431 13.958 0 25.259-11.301 25.259-25.231 0-13.959-11.301-25.26-25.259-25.26-2.949 0-5.781.526-8.41 1.46z" fill="#ffc250" fill-rule="evenodd"/></g></g><path d="m248.486 297.91h15v24.123h-15z" fill="#2b4d66"/></g></svg>