<svg id="Capa_1" enable-background="new 0 0 504.5 504.5" height="512" viewBox="0 0 504.5 504.5" width="512" xmlns="http://www.w3.org/2000/svg"><g><path d="m359.694 0h-214.888c-23.985 0-43.499 19.514-43.499 43.5v45.1c0 4.142 3.357 7.5 7.5 7.5s7.5-3.358 7.5-7.5v-45.1c0-15.715 12.784-28.5 28.499-28.5h214.889c15.699 0 28.471 12.785 28.471 28.5v45.1c0 4.142 3.357 7.5 7.5 7.5s7.5-3.358 7.5-7.5v-45.1c-.001-23.986-19.502-43.5-43.472-43.5z" fill="#2b4d66"/><g><path clip-rule="evenodd" d="m19.489 261.343v167.387l65.224 75.77h335.075l65.195-75.77v-167.387c-14.145 18.681-451.321 18.681-465.494 0z" fill="#b57f5f" fill-rule="evenodd"/></g><g><path clip-rule="evenodd" d="m19.489 428.73v61.002c0 8.107 6.661 14.769 14.768 14.769h50.455v-43.143c0-17.943-14.655-32.627-32.598-32.627h-32.625z" fill="#ffe07d" fill-rule="evenodd"/></g><g><path clip-rule="evenodd" d="m419.788 461.357v43.143h50.455c8.107 0 14.74-6.661 14.74-14.769v-61.001h-32.598c-17.942 0-32.597 14.683-32.597 32.627z" fill="#ffe07d" fill-rule="evenodd"/></g><g><path clip-rule="evenodd" d="m72.892 107.393v28.772h71.828v-28.772c0-10.347-8.447-18.794-18.765-18.794h-17.149-17.149c-10.318 0-18.765 8.448-18.765 18.794z" fill="#ffe07d" fill-rule="evenodd"/></g><g><path clip-rule="evenodd" d="m359.751 107.393v28.772h71.828v-28.772c0-10.347-8.447-18.794-18.765-18.794h-17.149-17.121c-10.346 0-18.793 8.448-18.793 18.794z" fill="#ffe07d" fill-rule="evenodd"/></g><g><path clip-rule="evenodd" d="m19.489 304.77c14.173 18.68 36.566 30.813 61.68 30.813h22.705c-.624-5.528-.935-11.112-.935-16.809 0-9.099.794-17.972 2.353-26.617-7.228 0-13.804 0-19.53 0-1.757 0-3.288 0-4.592 0-25.114 0-47.508-12.132-61.68-30.813v43.426z" fill="#9f6e50" fill-rule="evenodd"/></g><g><path clip-rule="evenodd" d="m399.209 292.156c1.559 8.646 2.353 17.518 2.353 26.617 0 5.698-.312 11.31-.935 16.809h22.677c25.823 0 29.083-2.296 29.083 23.953v69.194h32.598v-123.959-43.427c-14.145 18.68-36.566 30.813-61.68 30.813-6.72 0-14.856 0-24.096 0z" fill="#9f6e50" fill-rule="evenodd"/></g><g><path clip-rule="evenodd" d="m452.385 428.73v61.002c0 8.107-6.633 14.769-14.768 14.769h32.626c8.107 0 14.74-6.661 14.74-14.769v-61.002z" fill="#ffc250" fill-rule="evenodd"/></g><g><path clip-rule="evenodd" d="m3.842 214.798c0 17.433 5.839 33.562 15.647 46.545 14.173 18.68 36.566 30.813 61.68 30.813h342.134c25.114 0 47.536-12.132 61.68-30.813 9.836-12.983 15.675-29.112 15.675-46.545v-73.361c0-8.419-6.888-15.279-15.278-15.279h-53.8-71.828-215.032-71.828-53.772c-8.419 0-15.278 6.86-15.278 15.279z" fill="#c38c66" fill-rule="evenodd"/></g><g><path clip-rule="evenodd" d="m102.939 318.773c0 82.46 66.839 149.33 149.297 149.33 82.486 0 149.326-66.87 149.326-149.33 0-9.099-.794-17.972-2.353-26.617-12.557-69.761-73.586-122.712-146.973-122.712-73.359 0-134.387 52.951-146.945 122.712-1.559 8.646-2.352 17.518-2.352 26.617z" fill="#95d6a4" fill-rule="evenodd"/></g><g><path clip-rule="evenodd" d="m142.736 318.773c0 60.463 49.038 109.503 109.5 109.503 60.49 0 109.5-49.04 109.5-109.503s-49.01-109.503-109.5-109.503c-60.462.001-109.5 49.04-109.5 109.503zm91.444-.198c0-9.978 8.079-18.085 18.056-18.085 10.006 0 18.085 8.107 18.085 18.085s-8.079 18.085-18.085 18.085c-9.978 0-18.056-8.107-18.056-18.085z" fill="#eff6ff" fill-rule="evenodd"/></g><g><path clip-rule="evenodd" d="m428.83 214.798c0 17.433-5.839 33.562-15.675 46.545-4.847 6.406-10.658 12.019-17.234 16.668 1.332 4.62 2.409 9.354 3.288 14.145h24.094c25.114 0 47.536-12.132 61.68-30.813 9.836-12.983 15.675-29.112 15.675-46.545v-73.361c0-8.419-6.888-15.279-15.278-15.279h-53.8-18.028c8.39 0 15.278 6.86 15.278 15.279z" fill="#b57f5f" fill-rule="evenodd"/></g><g><path clip-rule="evenodd" d="m304.902 222.735c26.362 14.485 46.119 39.515 53.574 69.421 2.126 8.504 3.26 17.433 3.26 26.617 0 51.279-35.234 94.337-82.855 106.243-22.053 18.255-49.435 30.331-79.482 33.449 16.412 6.236 34.242 9.638 52.837 9.638 76.789 0 140.028-57.969 148.39-132.52.624-5.499.935-11.112.935-16.809 0-9.099-.794-17.972-2.353-26.617-.879-4.791-1.956-9.524-3.288-14.145-17.716-62.646-75.343-108.567-143.685-108.567-5.301 0-10.516.283-15.675.822 27.638 10.459 51.335 28.884 68.342 52.468z" fill="#78c2a4" fill-rule="evenodd"/></g><g><path clip-rule="evenodd" d="m358.476 292.156c-7.455-29.906-27.212-54.936-53.574-69.421 6.151 8.532 11.423 17.745 15.675 27.496 4.592 10.46 7.993 21.543 10.063 33.109.539 2.92.964 5.839 1.332 8.816.68 5.839 1.049 11.792 1.049 17.802 0 46.29-21.061 87.676-54.14 115.059 47.621-11.906 82.855-54.964 82.855-106.243 0-9.185-1.134-18.114-3.26-26.618z" fill="#d9eeff" fill-rule="evenodd"/></g><g><path clip-rule="evenodd" d="m144.72 107.393c0-10.347-8.447-18.794-18.765-18.794h-17.149-8.645c10.318 0 18.765 8.447 18.765 18.794v18.765h25.795v-18.765z" fill="#ffc250" fill-rule="evenodd"/></g><g><path clip-rule="evenodd" d="m387.02 88.599c10.318 0 18.765 8.447 18.765 18.794v18.765h7.767 18.028v-18.765c0-10.347-8.447-18.794-18.765-18.794h-17.149z" fill="#ffc250" fill-rule="evenodd"/></g><g fill="#2b4d66"><path d="m235.773 260.811c-1.595-3.823-5.984-5.63-9.809-4.037-3.823 1.594-5.631 5.985-4.037 9.809l15.987 38.353c1.201 2.88 3.988 4.616 6.926 4.616.962 0 1.939-.186 2.883-.579 3.823-1.594 5.631-5.985 4.037-9.809z"/><path d="m293.365 311.075h-23.045c-4.143 0-7.5 3.358-7.5 7.5s3.357 7.5 7.5 7.5h23.045c4.143 0 7.5-3.358 7.5-7.5s-3.357-7.5-7.5-7.5z"/><path d="m252.235 201.771c-64.514 0-116.999 52.487-116.999 117.003 0 64.515 52.485 117.002 116.999 117.002s117-52.487 117-117.002c0-64.516-52.486-117.003-117-117.003zm90.622 124.304h11.114c-1.6 22.515-10.538 43.033-24.433 59.17l-7.911-7.911c-2.928-2.929-7.677-2.93-10.606 0-2.929 2.929-2.929 7.678.001 10.606l7.929 7.929c-16.126 13.974-36.666 22.982-59.216 24.629v-11.328c0-4.142-3.357-7.5-7.5-7.5s-7.5 3.358-7.5 7.5v11.329c-22.543-1.646-43.076-10.649-59.2-24.616l7.942-7.942c2.93-2.929 2.93-7.677.001-10.606s-7.678-2.93-10.606 0l-7.926 7.926c-13.902-16.139-22.845-36.663-24.446-59.186h11.142c4.143 0 7.5-3.358 7.5-7.5s-3.357-7.5-7.5-7.5h-11.117c1.685-22.47 10.68-42.935 24.609-59.013l7.731 7.748c1.465 1.468 3.387 2.202 5.309 2.202 1.917 0 3.834-.73 5.298-2.191 2.932-2.926 2.937-7.675.011-10.607l-7.724-7.741c16.09-13.858 36.537-22.787 58.976-24.426v10.932c0 4.142 3.357 7.5 7.5 7.5s7.5-3.358 7.5-7.5v-10.932c22.447 1.639 42.9 10.574 58.992 24.439l-7.711 7.727c-2.926 2.932-2.921 7.681.011 10.607 1.464 1.461 3.381 2.191 5.298 2.191 1.922 0 3.844-.734 5.309-2.202l7.716-7.732c13.922 16.076 22.912 36.535 24.597 58.998h-11.089c-4.143 0-7.5 3.358-7.5 7.5s3.357 7.5 7.499 7.5z"/></g><g><path clip-rule="evenodd" d="m234.18 318.575c0 9.978 8.079 18.085 18.056 18.085 10.006 0 18.085-8.107 18.085-18.085s-8.079-18.085-18.085-18.085c-9.978 0-18.056 8.107-18.056 18.085z" fill="#ffe07d" fill-rule="evenodd"/></g></g></svg>