<svg id="Capa_1" enable-background="new 0 0 512 512" height="512" viewBox="0 0 512 512" width="512" xmlns="http://www.w3.org/2000/svg"><g><g><path clip-rule="evenodd" d="m54.988 294.76-11.681 12.411 11.681 20.267 31.889 15.156 80.014-15.156v-22.983c0-12.616-10.454-21.143-22.953-22.953l-57.586-8.41c-16.325-2.366-31.364 1.08-31.364 21.668z" fill="#9fd4fe" fill-rule="evenodd"/></g><g><path clip-rule="evenodd" d="m44.679 327.438v68.86h175.505v-68.86h-53.294z" fill="#eff6ff" fill-rule="evenodd"/></g><g><path clip-rule="evenodd" d="m257.504 300.25-10.951 72.598 10.951 109.482h122.678c10.075-10.046 10.075-26.37 0-36.416-10.046-10.046-10.046-26.341 0-36.416 10.075-10.046 10.075-26.341 0-36.416-10.046-10.046-10.046-26.341 0-36.416 10.075-10.046 10.075-26.341 0-36.416z" fill="#ffe07d" fill-rule="evenodd"/></g><g><path clip-rule="evenodd" d="m398.462 373.082c10.046 10.075 10.046 26.37 0 36.416-10.046 10.075-10.046 26.37 0 36.416s10.046 26.37 0 36.416h58.521l19.35-86.207-19.35-95.873h-58.521c10.046 10.075 10.046 26.37 0 36.416-10.045 10.075-10.045 26.37 0 36.416z" fill="#ffe07d" fill-rule="evenodd"/></g><g><path clip-rule="evenodd" d="m456.983 300.25v182.08 19.566c0 2.745 2.249 4.964 4.964 4.964h45.088c2.716 0 4.964-2.249 4.964-4.964v-211.546c0-2.716-2.249-4.964-4.964-4.964h-45.088c-2.716 0-4.964 2.249-4.964 4.964z" fill="#c38c66" fill-rule="evenodd"/></g><g><path clip-rule="evenodd" d="m369.874 373.082c10.075 10.075 10.075 26.37 0 36.416-10.046 10.075-10.046 26.37 0 36.416 10.075 10.046 10.075 26.37 0 36.416h38.897c10.046-10.046 10.046-26.37 0-36.416-10.075-10.046-10.075-26.341 0-36.416 10.046-10.046 10.046-26.341 0-36.416-10.075-10.046-10.075-26.341 0-36.416 10.046-10.046 10.046-26.341 0-36.416h-38.897c10.075 10.075 10.075 26.37 0 36.416-10.046 10.075-10.046 26.37 0 36.416z" fill="#eb5468" fill-rule="evenodd"/></g><g><path clip-rule="evenodd" d="m0 222.308v279.588c0 2.745 2.219 4.964 4.935 4.964h45.088c2.745 0 4.964-2.219 4.964-4.964v-39.132h154.888l17.2-37.789-17.2-38.986h-154.887v-58.552-32.677-72.452c0-2.716-2.219-4.935-4.964-4.935h-45.089c-2.716-.001-4.935 2.219-4.935 4.935z" fill="#c38c66" fill-rule="evenodd"/></g><g><path clip-rule="evenodd" d="m209.875 327.438v58.552 76.774c0 10.776 8.79 19.566 19.565 19.566h28.063v-182.08h-28.063c-10.776 0-19.565 8.819-19.565 19.595z" fill="#9fd4fe" fill-rule="evenodd"/></g><g><path clip-rule="evenodd" d="m135.936 310.062h-80.948v17.376h91.811 20.091v-22.983c0-12.616-10.454-21.143-22.953-22.953l-20.091-2.92c12.469 1.811 22.953 10.309 22.953 22.953 0 8.206-1.577 8.527-10.863 8.527z" fill="#85beef" fill-rule="evenodd"/></g><g><path clip-rule="evenodd" d="m175.212 363.241h-120.224v22.749h154.888v-58.552h-25.201v21.493c-.001 9.491.729 14.31-9.463 14.31z" fill="#d9eeff" fill-rule="evenodd"/></g><g><path clip-rule="evenodd" d="m257.504 449.36c-1.08.088-2.161.146-3.271.234-13.141.818-25.844.438-37.904-1.022-2.161-.263-4.322-.584-6.454-.905v15.098c0 10.776 8.79 19.566 19.565 19.566h28.063v-32.971z" fill="#85beef" fill-rule="evenodd"/></g><g><path clip-rule="evenodd" d="m257.504 449.36v32.97h112.37c10.075-10.046 10.075-26.37 0-36.416-9.578-9.579-10.016-24.852-1.314-34.956-27.333 18.485-60.915 31.831-97.185 36.883-4.672.643-9.286 1.168-13.871 1.519z" fill="#ffc250" fill-rule="evenodd"/></g><g><path clip-rule="evenodd" d="m369.874 445.914c10.075 10.046 10.075 26.37 0 36.416h10.308 18.28 10.308c10.046-10.046 10.046-26.37 0-36.416-10.075-10.046-10.075-26.341 0-36.416 9.812-9.812 10.046-25.611.642-35.715-1.84 2.307-3.738 4.556-5.753 6.775-5.023 5.636-10.542 11.039-16.499 16.178-5.811 4.994-12.031 9.754-18.602 14.222-8.701 10.104-8.263 25.377 1.316 34.956z" fill="#e5384f" fill-rule="evenodd"/></g><g><path clip-rule="evenodd" d="m408.771 445.914c10.046 10.046 10.046 26.37 0 36.416h48.213v-182.08h-19.244v.35c0 25.64-10.454 50.93-28.326 73.182 9.403 10.104 9.169 25.903-.642 35.715-10.076 10.076-10.076 26.371-.001 36.417z" fill="#ffc250" fill-rule="evenodd"/></g><g><path clip-rule="evenodd" d="m184.674 385.99v10.308 66.466h25.201v-15.098-51.368-10.308z" fill="#b57f5f" fill-rule="evenodd"/></g><g><path clip-rule="evenodd" d="m489.456 290.35v211.546c0 2.716-2.249 4.964-4.964 4.964h22.544c2.716 0 4.964-2.249 4.964-4.964v-211.546c0-2.716-2.249-4.964-4.964-4.964h-22.544c2.715 0 4.964 2.248 4.964 4.964z" fill="#b57f5f" fill-rule="evenodd"/></g><g><path clip-rule="evenodd" d="m202.401 247.154 83.312-7.675c42.81 15.653 92.687 6.308 127.029-28.035 47.22-47.192 47.22-123.703 0-170.895-47.191-47.192-123.7-47.192-170.891 0-34.984 34.956-44.037 86.032-27.158 129.369l-15.599 73.517c-.432 2.037 1.233 3.91 3.307 3.719z" fill="#95d6a4" fill-rule="evenodd"/></g><g><path clip-rule="evenodd" d="m241.881 125.821c0 47.279 38.313 85.594 85.591 85.594s85.591-38.314 85.591-85.594-38.313-85.594-85.591-85.594-85.591 38.315-85.591 85.594z" fill="#eff6ff" fill-rule="evenodd"/></g><g><path clip-rule="evenodd" d="m374.984 122.872c0 33.612-19.332 62.669-47.512 76.687-7.885 3.913-16.47 6.658-25.493 8.002 8.06 2.511 16.616 3.855 25.493 3.855 47.278 0 85.591-38.314 85.591-85.594s-38.313-85.594-85.591-85.594c-4.263 0-8.469.321-12.557.905 4.351 1.373 8.527 3.066 12.557 5.052 28.18 14.017 47.512 43.104 47.512 76.687z" fill="#d9eeff" fill-rule="evenodd"/></g><g><path clip-rule="evenodd" d="m319.091 5.418c24.121 10.571 44.446 28.444 58.346 50.901 21.58 15.536 35.627 40.884 35.627 69.503 0 27.655-13.112 52.273-33.495 67.926-13.316 23.099-33.29 41.702-57.236 53.003 32.56 1.314 65.559-10.425 90.41-35.306 47.22-47.192 47.22-123.703 0-170.895-25.669-25.7-60.04-37.41-93.652-35.132z" fill="#78c2a4" fill-rule="evenodd"/></g><g fill="#2b4d66"><path d="m327.472 32.502c-51.455 0-93.317 41.863-93.317 93.32s41.862 93.32 93.317 93.32c51.456 0 93.318-41.863 93.318-93.32s-41.862-93.32-93.318-93.32zm70.815 100.9h6.676c-1.524 15.699-7.728 30.046-17.197 41.628l-4.756-4.743c-3.022-3.013-7.914-3.007-10.927.016-3.013 3.022-3.006 7.914.015 10.927l4.76 4.746c-11.576 9.522-25.938 15.771-41.659 17.327v-6.81c0-4.267-3.459-7.726-7.726-7.726s-7.726 3.459-7.726 7.726v6.81c-15.722-1.556-30.083-7.805-41.659-17.327l4.76-4.747c3.021-3.013 3.028-7.905.015-10.927s-7.905-3.029-10.927-.015l-4.756 4.743c-9.469-11.582-15.673-25.929-17.197-41.628h6.675c4.268 0 7.726-3.459 7.726-7.726s-3.459-7.726-7.726-7.726h-6.653c1.58-15.662 7.821-29.967 17.309-41.507l4.613 4.614c1.509 1.509 3.486 2.263 5.464 2.263 1.977 0 3.955-.755 5.463-2.263 3.018-3.017 3.018-7.909.001-10.927l-4.596-4.597c11.547-9.444 25.842-15.644 41.488-17.192v6.489c0 4.267 3.459 7.726 7.726 7.726s7.726-3.459 7.726-7.726v-6.49c15.645 1.549 29.941 7.748 41.488 17.192l-4.597 4.597c-3.017 3.017-3.017 7.909 0 10.927 1.509 1.509 3.487 2.263 5.464 2.263s3.955-.755 5.464-2.263l4.614-4.614c9.489 11.54 15.73 25.845 17.309 41.507h-6.653c-4.268 0-7.726 3.459-7.726 7.726s3.457 7.727 7.725 7.727z"/><path d="m349.461 117.949h-17.178l-15.456-38.407c-1.595-3.959-6.099-5.875-10.052-4.284-3.959 1.593-5.876 6.094-4.284 10.052l17.404 43.249c1.177 2.926 4.014 4.842 7.168 4.842h22.397c4.268 0 7.726-3.459 7.726-7.726s-3.458-7.726-7.725-7.726z"/></g></g></svg>