<svg id="Capa_1" enable-background="new 0 0 512 512" height="512" viewBox="0 0 512 512" width="512" xmlns="http://www.w3.org/2000/svg"><g><g><path clip-rule="evenodd" d="m38.815 512h434.369c15.769 0 28.646-12.907 28.646-28.676v-314.302l-245.349-11.919-246.341 11.919v314.302c0 15.769 12.907 28.676 28.675 28.676z" fill="#eff6ff" fill-rule="evenodd"/></g><g><path clip-rule="evenodd" d="m10.14 169.022h491.691c5.519 0 10.045-4.439 10.162-9.9v-.234-27.362l-248.782-21.215-263.204 21.215v27.362.175c.088 5.52 4.614 9.959 10.133 9.959z" fill="#9fd4fe" fill-rule="evenodd"/></g><g><path clip-rule="evenodd" d="m.007 131.526h511.986v-69.793-.233c-.117-5.461-4.643-9.9-10.162-9.9h-491.691c-5.519 0-10.045 4.468-10.133 9.958v.175 69.793z" fill="#eb5468" fill-rule="evenodd"/></g><g><path clip-rule="evenodd" d="m367.038 51.6c13.549 23.975 25.318 50.841 35.012 79.926h109.943v-69.793-.233c-.117-5.461-4.643-9.9-10.162-9.9h-42.488v21.318c0 12.791-10.483 23.274-23.273 23.274s-23.273-10.484-23.273-23.274v-21.318z" fill="#e5384f" fill-rule="evenodd"/></g><g><path clip-rule="evenodd" d="m402.05 131.526c4.03 12.119 7.68 24.647 10.95 37.495h88.83c5.519 0 10.045-4.439 10.162-9.9v-.234-27.362h-109.942z" fill="#85beef" fill-rule="evenodd"/></g><g><path clip-rule="evenodd" d="m52.628 72.918c0 12.791 10.483 23.274 23.303 23.274 12.79 0 23.273-10.484 23.273-23.274v-21.318-28.326c0-12.82-10.484-23.274-23.274-23.274-12.819 0-23.302 10.454-23.302 23.274v28.326z" fill="#ffe07d" fill-rule="evenodd"/></g><g><path clip-rule="evenodd" d="m172.703 72.918c0 12.791 10.454 23.274 23.273 23.274 12.79 0 23.273-10.484 23.273-23.274v-21.318-28.326c.001-12.82-10.482-23.274-23.272-23.274-12.819 0-23.273 10.454-23.273 23.274v28.326 21.318z" fill="#ffe07d" fill-rule="evenodd"/></g><g><path clip-rule="evenodd" d="m292.75 72.918c0 12.791 10.454 23.274 23.273 23.274 12.79 0 23.273-10.484 23.273-23.274v-21.318-28.326c.001-12.82-10.483-23.274-23.273-23.274-12.819 0-23.273 10.454-23.273 23.274v28.326z" fill="#ffe07d" fill-rule="evenodd"/></g><g><path clip-rule="evenodd" d="m412.796 23.274v28.326 21.318c0 12.791 10.483 23.274 23.273 23.274s23.273-10.484 23.273-23.274v-21.318-28.326c.001-12.82-10.482-23.274-23.272-23.274s-23.274 10.454-23.274 23.274z" fill="#ffe07d" fill-rule="evenodd"/></g><g><path clip-rule="evenodd" d="m196.386 23.274v49.644c0 8.644-4.789 16.236-11.856 20.237 3.387 1.927 7.3 3.037 11.447 3.037 12.79 0 23.273-10.484 23.273-23.274v-21.318-28.326c0-12.82-10.483-23.274-23.273-23.274-4.147 0-8.06 1.08-11.447 3.008 7.067 4 11.856 11.593 11.856 20.266z" fill="#ffc250" fill-rule="evenodd"/></g><g><path clip-rule="evenodd" d="m76.339 23.274v49.644c0 8.644-4.789 16.236-11.856 20.237 3.387 1.927 7.3 3.037 11.447 3.037 12.79 0 23.273-10.484 23.273-23.274v-21.318-28.326c.001-12.82-10.483-23.274-23.273-23.274-4.147 0-8.06 1.08-11.447 3.008 7.067 4 11.856 11.593 11.856 20.266z" fill="#ffc250" fill-rule="evenodd"/></g><g><path clip-rule="evenodd" d="m316.432 23.274v49.644c0 8.644-4.789 16.236-11.826 20.237 3.358 1.927 7.271 3.037 11.418 3.037 12.79 0 23.273-10.484 23.273-23.274v-21.318-28.326c0-12.82-10.484-23.274-23.274-23.274-4.147 0-8.06 1.08-11.447 3.008 7.067 4 11.856 11.593 11.856 20.266z" fill="#ffc250" fill-rule="evenodd"/></g><g><path clip-rule="evenodd" d="m436.479 23.274v49.644c0 8.644-4.789 16.236-11.827 20.237 3.358 1.927 7.271 3.037 11.418 3.037 12.79 0 23.273-10.484 23.273-23.274v-21.318-28.326c0-12.82-10.483-23.274-23.273-23.274-4.147 0-8.06 1.08-11.418 3.008 7.038 4 11.827 11.593 11.827 20.266z" fill="#ffc250" fill-rule="evenodd"/></g><g><path clip-rule="evenodd" d="m409.467 512h63.717c15.769 0 28.646-12.907 28.646-28.676v-314.302h-88.83-25.464c43.19 109.741 47.658 226.228 21.931 342.978z" fill="#d9eeff" fill-rule="evenodd"/></g><g><path clip-rule="evenodd" d="m269.973 246.962c-17.988 18.631-17.988 49.118 0 67.749l7.271 7.242 53.526 53.031c2.307 1.811 3.446 2.803 4.614 2.862 1.139-.058 2.307-1.051 4.614-2.862l33.056-32.794 20.441-20.237 7.3-7.242c17.988-18.631 17.988-49.118 0-67.749-16.353-16.937-42.751-12.674-60.184 3.037-3.241 2.891-4.38 4.351-5.227 4.351-.876 0-2.015-1.46-5.227-4.351-10.25-9.228-23.565-14.484-36.093-13.871-8.877.467-17.346 3.825-24.091 10.834z" fill="#eb5468" fill-rule="evenodd"/></g><g><path clip-rule="evenodd" d="m400.795 246.962c-10.191-10.542-24.266-12.878-37.64-9.345.642.613 1.285 1.227 1.927 1.869 17.988 18.631 17.988 49.118 0 67.749l-7.3 7.242-20.412 20.237-23.624 23.42 17.024 16.85c2.307 1.811 3.446 2.803 4.614 2.862 1.139-.058 2.307-1.051 4.614-2.862l33.056-32.794 20.441-20.237 7.3-7.242c17.988-18.631 17.988-49.118 0-67.749z" fill="#e5384f" fill-rule="evenodd"/></g><g><path clip-rule="evenodd" d="m124.609 295.671c-22.748 23.537-22.748 62.084 0 85.65l9.198 9.14 67.659 67.019c2.891 2.307 4.351 3.563 5.811 3.621 1.46-.058 2.92-1.314 5.84-3.621l41.816-41.438 25.814-25.581 9.228-9.14c22.719-23.566 22.719-62.113 0-85.65-20.674-21.405-54.022-16.032-76.099 3.825-4.059 3.679-5.49 5.519-6.6 5.49-1.08.029-2.541-1.81-6.599-5.49-12.936-11.652-29.756-18.31-45.642-17.492-11.183.555-21.899 4.819-30.426 13.667z" fill="#eb5468" fill-rule="evenodd"/></g><g><path clip-rule="evenodd" d="m289.976 295.671c-12.878-13.316-30.661-16.266-47.598-11.798.847.759 1.664 1.519 2.453 2.365 22.748 23.537 22.748 62.084 0 85.65l-9.228 9.111-25.814 25.61-29.844 29.582 21.521 21.288c2.891 2.307 4.351 3.563 5.811 3.621 1.46-.058 2.92-1.314 5.84-3.621l41.816-41.438 25.814-25.581 9.228-9.14c22.719-23.565 22.719-62.112.001-85.649z" fill="#e5384f" fill-rule="evenodd"/></g><g><path clip-rule="evenodd" d="m55.927 223.6c-6.015 9.169-3.621 21.843 5.344 28.18l3.592 2.424 26.427 17.872c1.11.584 1.664.905 2.132.818.496-.117.876-.613 1.694-1.548l11.184-16.236 6.921-10.016 2.453-3.592c6.015-9.169 3.621-21.843-5.315-28.18-8.118-5.753-18.776-1.927-24.792 5.986-1.11 1.46-1.489 2.161-1.84 2.219-.35.088-.934-.438-2.511-1.402-4.993-3.037-10.921-4.176-16.119-2.92-3.621.876-6.892 2.949-9.17 6.395z" fill="#eb5468" fill-rule="evenodd"/></g><g><path clip-rule="evenodd" d="m110.359 213.321c-5.052-3.592-11.096-3.446-16.382-.934.321.204.613.409.934.642 14.104 9.987-5.285 40.445-12.031 53.352l8.41 5.694c1.11.584 1.664.905 2.132.818.496-.117.876-.613 1.694-1.548l11.184-16.236 6.921-10.016 2.453-3.592c6.015-9.169 3.62-21.843-5.315-28.18z" fill="#e5384f" fill-rule="evenodd"/></g><g><path clip-rule="evenodd" d="m394.166 402.813c-9.52 5.461-13.111 17.872-7.972 27.567l2.103 3.796 15.506 27.859c.73 1.022 1.08 1.548 1.548 1.694.467.117 1.051-.146 2.219-.613l17.316-9.432 10.688-5.84 3.796-2.073c9.52-5.461 13.111-17.872 7.972-27.567-4.643-8.79-15.885-10.162-24.821-5.84-1.664.818-2.278 1.256-2.628 1.168-.35-.117-.642-.818-1.635-2.395-3.066-4.964-7.855-8.673-13.024-9.87-3.651-.877-7.506-.498-11.068 1.546z" fill="#eb5468" fill-rule="evenodd"/></g><g><path clip-rule="evenodd" d="m419.367 456.662 16.207-8.819 3.796-2.073c9.52-5.461 13.111-17.872 7.972-27.567-4.409-8.323-14.717-10.016-23.39-6.483-.994 14.952-2.512 29.961-4.585 44.942z" fill="#e5384f" fill-rule="evenodd"/></g></g></svg>