<svg id="Capa_1" enable-background="new 0 0 512 512" height="512" viewBox="0 0 512 512" width="512" xmlns="http://www.w3.org/2000/svg"><g><g><path clip-rule="evenodd" d="m38.815 512h434.369c15.769 0 28.646-12.907 28.646-28.676v-314.302l-245.83-19.613-245.86 19.613v314.302c0 15.769 12.907 28.676 28.675 28.676z" fill="#eff6ff" fill-rule="evenodd"/></g><g><path clip-rule="evenodd" d="m10.14 169.022h491.691c5.519 0 10.045-4.439 10.162-9.9v-.234-27.362l-258.899-21.215-253.087 21.215v27.362.175c.088 5.52 4.614 9.959 10.133 9.959z" fill="#9fd4fe" fill-rule="evenodd"/></g><g><path clip-rule="evenodd" d="m.007 131.526h511.986v-69.793-.233c-.117-5.461-4.643-9.9-10.162-9.9h-491.691c-5.519 0-10.045 4.468-10.133 9.958v.175 69.793z" fill="#eb5468" fill-rule="evenodd"/></g><g><path clip-rule="evenodd" d="m367.038 51.6c13.549 23.975 25.318 50.841 35.012 79.926h109.943v-69.793-.233c-.117-5.461-4.643-9.9-10.162-9.9h-42.488v21.318c0 12.791-10.483 23.274-23.273 23.274s-23.273-10.484-23.273-23.274v-21.318z" fill="#e5384f" fill-rule="evenodd"/></g><g><path clip-rule="evenodd" d="m402.05 131.526c4.03 12.119 7.68 24.647 10.95 37.495h88.83c5.519 0 10.045-4.439 10.162-9.9v-.234-27.362h-109.942z" fill="#85beef" fill-rule="evenodd"/></g><g><path clip-rule="evenodd" d="m52.628 72.918c0 12.791 10.483 23.274 23.303 23.274 12.79 0 23.273-10.484 23.273-23.274v-21.318-28.326c0-12.82-10.484-23.274-23.274-23.274-12.819 0-23.302 10.454-23.302 23.274v28.326z" fill="#ffe07d" fill-rule="evenodd"/></g><g><path clip-rule="evenodd" d="m172.703 72.918c0 12.791 10.454 23.274 23.273 23.274 12.79 0 23.273-10.484 23.273-23.274v-21.318-28.326c.001-12.82-10.482-23.274-23.272-23.274-12.819 0-23.273 10.454-23.273 23.274v28.326 21.318z" fill="#ffe07d" fill-rule="evenodd"/></g><g><path clip-rule="evenodd" d="m292.75 72.918c0 12.791 10.454 23.274 23.273 23.274 12.79 0 23.273-10.484 23.273-23.274v-21.318-28.326c.001-12.82-10.483-23.274-23.273-23.274-12.819 0-23.273 10.454-23.273 23.274v28.326z" fill="#ffe07d" fill-rule="evenodd"/></g><g><path clip-rule="evenodd" d="m412.796 23.274v28.326 21.318c0 12.791 10.483 23.274 23.273 23.274s23.273-10.484 23.273-23.274v-21.318-28.326c.001-12.82-10.482-23.274-23.272-23.274s-23.274 10.454-23.274 23.274z" fill="#ffe07d" fill-rule="evenodd"/></g><g><path clip-rule="evenodd" d="m196.386 23.274v49.644c0 8.644-4.789 16.236-11.856 20.237 3.387 1.927 7.3 3.037 11.447 3.037 12.79 0 23.273-10.484 23.273-23.274v-21.318-28.326c0-12.82-10.483-23.274-23.273-23.274-4.147 0-8.06 1.08-11.447 3.008 7.067 4 11.856 11.593 11.856 20.266z" fill="#ffc250" fill-rule="evenodd"/></g><g><path clip-rule="evenodd" d="m76.339 23.274v49.644c0 8.644-4.789 16.236-11.856 20.237 3.387 1.927 7.3 3.037 11.447 3.037 12.79 0 23.273-10.484 23.273-23.274v-21.318-28.326c.001-12.82-10.483-23.274-23.273-23.274-4.147 0-8.06 1.08-11.447 3.008 7.067 4 11.856 11.593 11.856 20.266z" fill="#ffc250" fill-rule="evenodd"/></g><g><path clip-rule="evenodd" d="m316.432 23.274v49.644c0 8.644-4.789 16.236-11.826 20.237 3.358 1.927 7.271 3.037 11.418 3.037 12.79 0 23.273-10.484 23.273-23.274v-21.318-28.326c0-12.82-10.484-23.274-23.274-23.274-4.147 0-8.06 1.08-11.447 3.008 7.067 4 11.856 11.593 11.856 20.266z" fill="#ffc250" fill-rule="evenodd"/></g><g><path clip-rule="evenodd" d="m436.479 23.274v49.644c0 8.644-4.789 16.236-11.827 20.237 3.358 1.927 7.271 3.037 11.418 3.037 12.79 0 23.273-10.484 23.273-23.274v-21.318-28.326c0-12.82-10.483-23.274-23.273-23.274-4.147 0-8.06 1.08-11.418 3.008 7.038 4 11.827 11.593 11.827 20.266z" fill="#ffc250" fill-rule="evenodd"/></g><g><path clip-rule="evenodd" d="m298.064 300.781v46.957h54.314v-52.243h-49.058c-2.89.001-5.256 2.366-5.256 5.286z" fill="#9fd4fe" fill-rule="evenodd"/></g><g><path clip-rule="evenodd" d="m352.379 295.496h54.344v52.243h-54.344z" fill="#9fd4fe" fill-rule="evenodd"/></g><g><path clip-rule="evenodd" d="m406.722 295.496v52.243h54.314v-46.957c0-2.92-2.365-5.286-5.256-5.286z" fill="#9fd4fe" fill-rule="evenodd"/></g><g><path clip-rule="evenodd" d="m406.722 347.738h54.314v52.243h-54.314z" fill="#9fd4fe" fill-rule="evenodd"/></g><g><path clip-rule="evenodd" d="m352.379 347.738h54.344v52.243h-54.344z" fill="#9fd4fe" fill-rule="evenodd"/></g><g><path clip-rule="evenodd" d="m298.064 347.738h54.314v52.243h-54.314z" fill="#9fd4fe" fill-rule="evenodd"/></g><g><path clip-rule="evenodd" d="m298.064 399.981v46.986c0 2.891 2.365 5.286 5.256 5.286h49.058v-52.272z" fill="#9fd4fe" fill-rule="evenodd"/></g><g><path clip-rule="evenodd" d="m352.379 399.981h54.344v52.272h-54.344z" fill="#eb5468" fill-rule="evenodd"/></g><g><path clip-rule="evenodd" d="m406.722 399.981v52.272h49.058c2.891 0 5.256-2.395 5.256-5.286v-46.986z" fill="#9fd4fe" fill-rule="evenodd"/></g><g><path clip-rule="evenodd" d="m425.908 295.496c2.453 16.937 4.088 34.4 4.76 52.243h30.369v-46.957c0-2.92-2.365-5.286-5.256-5.286z" fill="#85beef" fill-rule="evenodd"/></g><g><path clip-rule="evenodd" d="m430.667 347.738c.263 6.6.38 13.258.38 19.974 0 10.892-.321 21.668-.993 32.268h30.983v-52.243h-30.37z" fill="#85beef" fill-rule="evenodd"/></g><g><path clip-rule="evenodd" d="m430.054 399.981c-1.139 17.901-3.183 35.364-6.103 52.272h31.829c2.891 0 5.256-2.395 5.256-5.286v-46.986z" fill="#85beef" fill-rule="evenodd"/></g><g><path clip-rule="evenodd" d="m417.06 250.262c3.621 14.601 6.599 29.699 8.848 45.234h29.873c2.891 0 5.256 2.365 5.256 5.286v46.957 52.243 46.986c0 2.891-2.365 5.286-5.256 5.286h-31.829c-3.563 20.821-8.439 40.824-14.484 59.747h63.717c15.769 0 28.646-12.907 28.646-28.676v-314.303h-88.83-25.464c12.206 24.442 22.193 51.775 29.523 81.24z" fill="#d9eeff" fill-rule="evenodd"/></g><g fill="#2b4d66"><path d="m222.082 444.526h-142.181c-4.267 0-7.726 3.459-7.726 7.726s3.459 7.726 7.726 7.726h142.181c4.267 0 7.726-3.459 7.726-7.726.001-4.267-3.458-7.726-7.726-7.726z"/><path d="m455.781 287.77h-152.46c-7.159 0-12.983 5.837-12.983 13.012v146.186c0 7.175 5.824 13.012 12.983 13.012h152.46c7.159 0 12.983-5.837 12.983-13.012v-146.187c0-7.174-5.824-13.011-12.983-13.011zm-149.99 67.695h38.862v36.79h-38.862zm93.205 36.79h-38.89v-36.79h38.89zm0-52.243h-38.89v-36.79h38.89zm-38.89 67.695h38.89v36.819h-38.89zm54.343-52.242h38.862v36.79h-38.862zm38.862-15.453h-38.862v-36.79h38.862zm-108.658-36.79v36.79h-38.862v-36.79zm-38.862 104.485h38.862v36.819h-38.862zm108.658 36.819v-36.819h38.862v36.819z"/><path d="m298.064 220.726h67.835c4.268 0 7.726-3.459 7.726-7.726s-3.459-7.726-7.726-7.726h-67.835c-4.268 0-7.726 3.459-7.726 7.726s3.459 7.726 7.726 7.726z"/><path d="m298.064 257.988h135.669c4.268 0 7.726-3.459 7.726-7.726s-3.459-7.726-7.726-7.726h-135.669c-4.268 0-7.726 3.459-7.726 7.726s3.459 7.726 7.726 7.726z"/></g><path d="m254.01 291.2c1.519-3.557.174-7.689-3.148-9.67-2.614-1.559-5.083-2.835-7.47-4.068-6.56-3.389-11.741-6.065-16.811-13.055-5.045-6.937-5.994-12.673-7.197-19.935-.445-2.685-.904-5.461-1.597-8.471-.867-3.765-4.377-6.306-8.229-5.962-3.032.276-5.778.695-8.434 1.1-7.296 1.114-13.06 1.994-21.274-.667-8.152-2.645-12.286-6.724-17.52-11.888-1.94-1.914-3.947-3.894-6.28-5.924-2.91-2.532-7.244-2.528-10.152.009-2.308 2.016-4.297 3.981-6.219 5.882-5.237 5.178-9.374 9.268-17.57 11.922-8.191 2.658-13.953 1.779-21.247.668-2.664-.406-5.419-.826-8.463-1.102-3.847-.352-7.373 2.207-8.231 5.98-.68 2.987-1.132 5.743-1.569 8.409-1.193 7.278-2.136 13.027-7.197 19.986-5.065 6.982-10.246 9.658-16.806 13.048-2.388 1.233-4.857 2.509-7.471 4.068-3.322 1.981-4.667 6.113-3.148 9.67 1.207 2.826 2.464 5.331 3.681 7.754 3.307 6.586 5.919 11.787 5.919 20.372 0 8.61-2.614 13.817-5.924 20.409-1.215 2.42-2.471 4.922-3.676 7.745-1.519 3.557-.174 7.688 3.148 9.669 2.621 1.563 5.097 2.842 7.49 4.077 6.555 3.385 11.733 6.059 16.787 13.009 5.058 6.972 6.001 12.718 7.196 19.991.438 2.666.89 5.422 1.571 8.407.858 3.765 4.366 6.312 8.211 5.978 3.079-.272 5.863-.694 8.555-1.102 7.268-1.102 13.008-1.972 21.18.697 8.191 2.652 12.328 6.742 17.565 11.921 1.923 1.901 3.911 3.866 6.219 5.882 1.456 1.27 3.268 1.905 5.081 1.905 1.808 0 3.617-.632 5.071-1.897 2.333-2.03 4.34-4.01 6.28-5.924 5.233-5.164 9.367-9.243 17.529-11.891 8.182-2.667 13.923-1.795 21.192-.691 2.684.408 5.459.829 8.527 1.1 3.841.347 7.342-2.203 8.208-5.959.694-3.009 1.154-5.785 1.6-8.47 1.204-7.258 2.154-12.991 7.195-19.941 5.06-6.958 10.238-9.632 16.793-13.017 2.393-1.236 4.868-2.514 7.489-4.077 3.321-1.981 4.667-6.113 3.148-9.669-1.205-2.823-2.462-5.325-3.677-7.745-3.309-6.592-5.924-11.799-5.924-20.408 0-8.584 2.612-13.786 5.919-20.371 1.215-2.423 2.473-4.928 3.68-7.754zm-17.487 55.467c.093.186.187.373.281.559-.175.09-.349.18-.522.27-7.368 3.805-14.986 7.739-22.206 17.666-7.186 9.907-8.584 18.339-9.936 26.493-.038.227-.075.453-.113.679-.218-.033-.437-.066-.657-.1-8.178-1.242-16.635-2.526-28.292 1.273-11.632 3.775-17.718 9.78-23.604 15.587-.164.162-.327.323-.489.483-.147-.145-.295-.292-.444-.439-5.892-5.825-11.985-11.85-23.65-15.627-5.819-1.901-10.843-2.531-15.434-2.531-4.593 0-8.753.631-12.843 1.251-.223.034-.447.067-.671.102-.034-.204-.067-.408-.101-.611-1.343-8.175-2.73-16.628-9.941-26.569-7.213-9.919-14.831-13.853-22.199-17.658-.174-.09-.348-.18-.523-.27.094-.187.187-.373.28-.559 3.72-7.409 7.566-15.07 7.566-27.342 0-12.246-3.845-19.902-7.562-27.306-.095-.188-.189-.377-.284-.566.169-.088.338-.175.506-.261 7.375-3.81 15.002-7.751 22.216-17.696 7.213-9.919 8.601-18.382 9.943-26.566.033-.2.066-.4.099-.601.196.03.392.059.587.089 8.197 1.249 16.673 2.541 28.341-1.244 11.684-3.783 17.777-9.807 23.669-15.633.149-.147.297-.293.444-.439.162.16.325.321.489.483 5.886 5.807 11.971 11.812 23.609 15.589 11.697 3.788 20.173 2.494 28.37 1.242l.573-.087c.037.223.074.446.111.669 1.352 8.163 2.749 16.605 9.939 26.491 7.22 9.953 14.847 13.893 22.222 17.703.168.087.337.174.506.261-.095.19-.19.379-.285.567-3.718 7.404-7.562 15.06-7.562 27.306.001 12.271 3.847 19.933 7.567 27.342z" fill="#ffc250"/><g><path clip-rule="evenodd" d="m150.978 267.637c-28.53 0-51.686 23.157-51.686 51.688 0 28.56 23.157 51.717 51.686 51.717 28.559 0 51.715-23.157 51.715-51.717 0-28.531-23.157-51.688-51.715-51.688z" fill="#ffe07d" fill-rule="evenodd"/></g><g><path clip-rule="evenodd" d="m134.128 270.44c23.011 5.227 40.181 25.815 40.181 50.432 0 22.632-14.571 41.876-34.837 48.884 3.709.847 7.563 1.285 11.505 1.285 28.559 0 51.715-23.157 51.715-51.717 0-28.53-23.157-51.688-51.715-51.688-5.898.001-11.563.994-16.849 2.804z" fill="#ffc250" fill-rule="evenodd"/></g></g></svg>