<svg id="Capa_1" enable-background="new 0 0 512 512" height="512" viewBox="0 0 512 512" width="512" xmlns="http://www.w3.org/2000/svg"><g><g><path clip-rule="evenodd" d="m38.815 512h434.369c15.769 0 28.646-12.907 28.646-28.676v-314.302l-245.83-13.98-245.86 13.98v314.302c0 15.769 12.907 28.676 28.675 28.676z" fill="#eff6ff" fill-rule="evenodd"/></g><g><path clip-rule="evenodd" d="m10.14 169.022h491.691c5.519 0 10.045-4.439 10.162-9.9v-.234-27.362l-261.298-26.963-250.688 26.963v27.362.175c.088 5.52 4.614 9.959 10.133 9.959z" fill="#9fd4fe" fill-rule="evenodd"/></g><g><path clip-rule="evenodd" d="m.007 131.526h511.986v-69.793-.233c-.117-5.461-4.643-9.9-10.162-9.9h-491.691c-5.519 0-10.045 4.468-10.133 9.958v.175 69.793z" fill="#eb5468" fill-rule="evenodd"/></g><g><path clip-rule="evenodd" d="m367.038 51.6c13.549 23.975 25.318 50.841 35.012 79.926h109.943v-69.793-.233c-.117-5.461-4.643-9.9-10.162-9.9h-42.488v21.318c0 12.791-10.483 23.274-23.273 23.274s-23.273-10.484-23.273-23.274v-21.318z" fill="#e5384f" fill-rule="evenodd"/></g><g><path clip-rule="evenodd" d="m402.05 131.526c4.03 12.119 7.68 24.647 10.95 37.495h88.83c5.519 0 10.045-4.439 10.162-9.9v-.234-27.362h-109.942z" fill="#85beef" fill-rule="evenodd"/></g><g><path clip-rule="evenodd" d="m52.628 72.918c0 12.791 10.483 23.274 23.303 23.274 12.79 0 23.273-10.484 23.273-23.274v-21.318-28.326c0-12.82-10.484-23.274-23.274-23.274-12.819 0-23.302 10.454-23.302 23.274v28.326z" fill="#ffe07d" fill-rule="evenodd"/></g><g><path clip-rule="evenodd" d="m172.703 72.918c0 12.791 10.454 23.274 23.273 23.274 12.79 0 23.273-10.484 23.273-23.274v-21.318-28.326c.001-12.82-10.482-23.274-23.272-23.274-12.819 0-23.273 10.454-23.273 23.274v28.326 21.318z" fill="#ffe07d" fill-rule="evenodd"/></g><g><path clip-rule="evenodd" d="m292.75 72.918c0 12.791 10.454 23.274 23.273 23.274 12.79 0 23.273-10.484 23.273-23.274v-21.318-28.326c.001-12.82-10.483-23.274-23.273-23.274-12.819 0-23.273 10.454-23.273 23.274v28.326z" fill="#ffe07d" fill-rule="evenodd"/></g><g><path clip-rule="evenodd" d="m412.796 23.274v28.326 21.318c0 12.791 10.483 23.274 23.273 23.274s23.273-10.484 23.273-23.274v-21.318-28.326c.001-12.82-10.482-23.274-23.272-23.274s-23.274 10.454-23.274 23.274z" fill="#ffe07d" fill-rule="evenodd"/></g><g><path clip-rule="evenodd" d="m196.386 23.274v49.644c0 8.644-4.789 16.236-11.856 20.237 3.387 1.927 7.3 3.037 11.447 3.037 12.79 0 23.273-10.484 23.273-23.274v-21.318-28.326c0-12.82-10.483-23.274-23.273-23.274-4.147 0-8.06 1.08-11.447 3.008 7.067 4 11.856 11.593 11.856 20.266z" fill="#ffc250" fill-rule="evenodd"/></g><g><path clip-rule="evenodd" d="m76.339 23.274v49.644c0 8.644-4.789 16.236-11.856 20.237 3.387 1.927 7.3 3.037 11.447 3.037 12.79 0 23.273-10.484 23.273-23.274v-21.318-28.326c.001-12.82-10.483-23.274-23.273-23.274-4.147 0-8.06 1.08-11.447 3.008 7.067 4 11.856 11.593 11.856 20.266z" fill="#ffc250" fill-rule="evenodd"/></g><g><path clip-rule="evenodd" d="m316.432 23.274v49.644c0 8.644-4.789 16.236-11.826 20.237 3.358 1.927 7.271 3.037 11.418 3.037 12.79 0 23.273-10.484 23.273-23.274v-21.318-28.326c0-12.82-10.484-23.274-23.274-23.274-4.147 0-8.06 1.08-11.447 3.008 7.067 4 11.856 11.593 11.856 20.266z" fill="#ffc250" fill-rule="evenodd"/></g><g><path clip-rule="evenodd" d="m436.479 23.274v49.644c0 8.644-4.789 16.236-11.827 20.237 3.358 1.927 7.271 3.037 11.418 3.037 12.79 0 23.273-10.484 23.273-23.274v-21.318-28.326c0-12.82-10.483-23.274-23.273-23.274-4.147 0-8.06 1.08-11.418 3.008 7.038 4 11.827 11.593 11.827 20.266z" fill="#ffc250" fill-rule="evenodd"/></g><g><path clip-rule="evenodd" d="m298.064 300.781v46.957h54.314v-52.243h-49.058c-2.89.001-5.256 2.366-5.256 5.286z" fill="#9fd4fe" fill-rule="evenodd"/></g><g><path clip-rule="evenodd" d="m352.379 295.496h54.344v52.243h-54.344z" fill="#9fd4fe" fill-rule="evenodd"/></g><g><path clip-rule="evenodd" d="m406.722 295.496v52.243h54.314v-46.957c0-2.92-2.365-5.286-5.256-5.286z" fill="#9fd4fe" fill-rule="evenodd"/></g><g><path clip-rule="evenodd" d="m406.722 347.738h54.314v52.243h-54.314z" fill="#9fd4fe" fill-rule="evenodd"/></g><g><path clip-rule="evenodd" d="m352.379 347.738h54.344v52.243h-54.344z" fill="#9fd4fe" fill-rule="evenodd"/></g><g><path clip-rule="evenodd" d="m298.064 347.738h54.314v52.243h-54.314z" fill="#9fd4fe" fill-rule="evenodd"/></g><g><path clip-rule="evenodd" d="m298.064 399.981v46.986c0 2.891 2.365 5.286 5.256 5.286h49.058v-52.272z" fill="#9fd4fe" fill-rule="evenodd"/></g><g><path clip-rule="evenodd" d="m352.379 399.981h54.344v52.272h-54.344z" fill="#eb5468" fill-rule="evenodd"/></g><g><path clip-rule="evenodd" d="m406.722 399.981v52.272h49.058c2.891 0 5.256-2.395 5.256-5.286v-46.986z" fill="#9fd4fe" fill-rule="evenodd"/></g><g><path clip-rule="evenodd" d="m425.908 295.496c2.453 16.937 4.088 34.4 4.76 52.243h30.369v-46.957c0-2.92-2.365-5.286-5.256-5.286z" fill="#85beef" fill-rule="evenodd"/></g><g><path clip-rule="evenodd" d="m430.667 347.738c.263 6.6.38 13.258.38 19.974 0 10.892-.321 21.668-.993 32.268h30.983v-52.243h-30.37z" fill="#85beef" fill-rule="evenodd"/></g><g><path clip-rule="evenodd" d="m430.054 399.981c-1.139 17.901-3.183 35.364-6.103 52.272h31.829c2.891 0 5.256-2.395 5.256-5.286v-46.986z" fill="#85beef" fill-rule="evenodd"/></g><g><path clip-rule="evenodd" d="m417.06 250.262c3.621 14.601 6.599 29.699 8.848 45.234h29.873c2.891 0 5.256 2.365 5.256 5.286v46.957 52.243 46.986c0 2.891-2.365 5.286-5.256 5.286h-31.829c-3.563 20.821-8.439 40.824-14.484 59.747h63.717c15.769 0 28.646-12.907 28.646-28.676v-314.303h-88.83-25.464c12.206 24.442 22.193 51.775 29.523 81.24z" fill="#d9eeff" fill-rule="evenodd"/></g><g><path d="m406.722 407.707h-54.343c-4.268 0-7.726-3.459-7.726-7.726v-52.242c0-4.267 3.459-7.726 7.726-7.726h54.343c4.268 0 7.726 3.459 7.726 7.726v52.242c.001 4.267-3.458 7.726-7.726 7.726zm-46.616-15.452h38.89v-36.79h-38.89z"/></g><g fill="#2b4d66"><path d="m222.082 444.526h-142.181c-4.268 0-7.726 3.459-7.726 7.726s3.459 7.726 7.726 7.726h142.181c4.268 0 7.726-3.459 7.726-7.726.001-4.267-3.458-7.726-7.726-7.726z"/><path d="m455.781 287.77h-152.46c-7.159 0-12.983 5.837-12.983 13.012v146.186c0 7.175 5.824 13.012 12.983 13.012h152.46c7.159 0 12.983-5.837 12.983-13.012v-146.187c0-7.174-5.824-13.011-12.983-13.011zm-95.675 104.485v-36.79h38.89v36.79zm38.89 15.452v36.819h-38.89v-36.819zm-93.205-52.242h38.862v36.79h-38.862zm54.315-15.453v-36.79h38.89v36.79zm54.343 15.453h38.862v36.79h-38.862zm38.862-15.453h-38.862v-36.79h38.862zm-108.658-36.79v36.79h-38.862v-36.79zm-38.862 104.485h38.862v36.819h-38.862zm108.658 36.819v-36.819h38.862v36.819z"/><path d="m298.064 220.726h67.835c4.268 0 7.726-3.459 7.726-7.726s-3.459-7.726-7.726-7.726h-67.835c-4.268 0-7.726 3.459-7.726 7.726s3.459 7.726 7.726 7.726z"/><path d="m298.064 257.988h135.669c4.268 0 7.726-3.459 7.726-7.726s-3.459-7.726-7.726-7.726h-135.669c-4.268 0-7.726 3.459-7.726 7.726s3.459 7.726 7.726 7.726z"/></g><g><path clip-rule="evenodd" d="m149.225 382.576c35.45 22.982 75.836 22.982 98.876 4.76 3.504-2.803 3.183-3.212.672-8.907-7.271-16.441-23.799-34.05-46.226-36.795 26.252-11.36 39.568-31.713 39.101-53.936-.088-3.154-.467-3.504-2.278-4.088-16.528-5.344-38.458-4.059-49.701 2.862-4.526-29.874-16.966-48.943-32.618-62.054-8.322-7.009-7.3-7.009-15.652 0-15.652 13.112-28.062 32.181-32.589 62.054-11.272-6.921-33.173-8.206-49.701-2.862-1.84.584-2.219.934-2.278 4.088-.467 22.223 12.819 42.577 39.101 53.936-22.427 2.745-38.984 20.354-46.226 36.795-2.511 5.694-2.862 6.103.672 8.907 23.012 18.222 63.397 18.222 98.847-4.76z" fill="#95d6a4" fill-rule="evenodd"/></g><g><path clip-rule="evenodd" d="m149.225 382.576c35.45 22.982 75.836 22.982 98.876 4.76 3.504-2.803 3.183-3.212.672-8.907-7.271-16.441-23.799-34.05-46.226-36.795 26.252-11.36 39.568-31.713 39.101-53.936-.088-3.154-.467-3.504-2.278-4.088-16.528-5.344-38.458-4.059-49.701 2.862-4.526-29.874-16.966-48.943-32.618-62.054-4.147-3.504-5.986-5.256-7.826-5.256z" fill="#78c2a4" fill-rule="evenodd"/></g><g><path d="m149.225 427.769c-4.268 0-7.726-3.459-7.726-7.726v-140.492c0-4.267 3.459-7.726 7.726-7.726 4.268 0 7.726 3.459 7.726 7.726v140.491c.001 4.268-3.458 7.727-7.726 7.727z" fill="#b57f5f"/></g><g><path d="m149.232 346.646c-2.46 0-4.878-1.172-6.376-3.353-2.415-3.518-1.522-8.327 1.995-10.743l25.172-17.288c3.52-2.414 8.328-1.522 10.743 1.995 2.415 3.518 1.522 8.327-1.995 10.743l-25.171 17.289c-1.337.917-2.861 1.357-4.368 1.357z" fill="#b57f5f"/></g><g><path d="m149.218 346.646c-1.507 0-3.03-.44-4.367-1.358l-25.171-17.288c-3.517-2.415-4.41-7.225-1.995-10.743s7.223-4.411 10.743-1.994l25.171 17.288c3.517 2.415 4.41 7.225 1.995 10.743-1.497 2.18-3.916 3.352-6.376 3.352z" fill="#b57f5f"/></g></g></svg>