<svg id="Capa_1" enable-background="new 0 0 512 512" height="512" viewBox="0 0 512 512" width="512" xmlns="http://www.w3.org/2000/svg"><g><g><path clip-rule="evenodd" d="m38.815 512h434.369c15.769 0 28.646-12.907 28.646-28.676v-314.302l-244.327-13.979-247.363 13.979v314.302c0 15.769 12.907 28.676 28.675 28.676z" fill="#eff6ff" fill-rule="evenodd"/></g><g><path clip-rule="evenodd" d="m10.14 169.022h491.691c5.519 0 10.045-4.439 10.162-9.9v-.234-27.362l-254.489-21.215-257.497 21.215v27.362.175c.088 5.52 4.614 9.959 10.133 9.959z" fill="#9fd4fe" fill-rule="evenodd"/></g><g><path clip-rule="evenodd" d="m.007 131.526h511.986v-69.793-.233c-.117-5.461-4.643-9.9-10.162-9.9h-491.691c-5.519 0-10.045 4.468-10.133 9.958v.175 69.793z" fill="#eb5468" fill-rule="evenodd"/></g><g><path clip-rule="evenodd" d="m367.038 51.6c13.549 23.975 25.318 50.841 35.012 79.926h109.943v-69.793-.233c-.117-5.461-4.643-9.9-10.162-9.9h-42.488v21.318c0 12.791-10.483 23.274-23.273 23.274s-23.273-10.484-23.273-23.274v-21.318z" fill="#e5384f" fill-rule="evenodd"/></g><g><path clip-rule="evenodd" d="m402.05 131.526c4.03 12.119 7.68 24.647 10.95 37.495h88.83c5.519 0 10.045-4.439 10.162-9.9v-.234-27.362h-109.942z" fill="#85beef" fill-rule="evenodd"/></g><g><path clip-rule="evenodd" d="m52.628 72.918c0 12.791 10.483 23.274 23.303 23.274 12.79 0 23.273-10.484 23.273-23.274v-21.318-28.326c0-12.82-10.484-23.274-23.274-23.274-12.819 0-23.302 10.454-23.302 23.274v28.326z" fill="#ffe07d" fill-rule="evenodd"/></g><g><path clip-rule="evenodd" d="m172.703 72.918c0 12.791 10.454 23.274 23.273 23.274 12.79 0 23.273-10.484 23.273-23.274v-21.318-28.326c.001-12.82-10.482-23.274-23.272-23.274-12.819 0-23.273 10.454-23.273 23.274v28.326 21.318z" fill="#ffe07d" fill-rule="evenodd"/></g><g><path clip-rule="evenodd" d="m292.75 72.918c0 12.791 10.454 23.274 23.273 23.274 12.79 0 23.273-10.484 23.273-23.274v-21.318-28.326c.001-12.82-10.483-23.274-23.273-23.274-12.819 0-23.273 10.454-23.273 23.274v28.326z" fill="#ffe07d" fill-rule="evenodd"/></g><g><path clip-rule="evenodd" d="m412.796 23.274v28.326 21.318c0 12.791 10.483 23.274 23.273 23.274s23.273-10.484 23.273-23.274v-21.318-28.326c.001-12.82-10.482-23.274-23.272-23.274s-23.274 10.454-23.274 23.274z" fill="#ffe07d" fill-rule="evenodd"/></g><g><path clip-rule="evenodd" d="m196.386 23.274v49.644c0 8.644-4.789 16.236-11.856 20.237 3.387 1.927 7.3 3.037 11.447 3.037 12.79 0 23.273-10.484 23.273-23.274v-21.318-28.326c0-12.82-10.483-23.274-23.273-23.274-4.147 0-8.06 1.08-11.447 3.008 7.067 4 11.856 11.593 11.856 20.266z" fill="#ffc250" fill-rule="evenodd"/></g><g><path clip-rule="evenodd" d="m76.339 23.274v49.644c0 8.644-4.789 16.236-11.856 20.237 3.387 1.927 7.3 3.037 11.447 3.037 12.79 0 23.273-10.484 23.273-23.274v-21.318-28.326c.001-12.82-10.483-23.274-23.273-23.274-4.147 0-8.06 1.08-11.447 3.008 7.067 4 11.856 11.593 11.856 20.266z" fill="#ffc250" fill-rule="evenodd"/></g><g><path clip-rule="evenodd" d="m316.432 23.274v49.644c0 8.644-4.789 16.236-11.826 20.237 3.358 1.927 7.271 3.037 11.418 3.037 12.79 0 23.273-10.484 23.273-23.274v-21.318-28.326c0-12.82-10.484-23.274-23.274-23.274-4.147 0-8.06 1.08-11.447 3.008 7.067 4 11.856 11.593 11.856 20.266z" fill="#ffc250" fill-rule="evenodd"/></g><g><path clip-rule="evenodd" d="m436.479 23.274v49.644c0 8.644-4.789 16.236-11.827 20.237 3.358 1.927 7.271 3.037 11.418 3.037 12.79 0 23.273-10.484 23.273-23.274v-21.318-28.326c0-12.82-10.483-23.274-23.273-23.274-4.147 0-8.06 1.08-11.418 3.008 7.038 4 11.827 11.593 11.827 20.266z" fill="#ffc250" fill-rule="evenodd"/></g><g><path clip-rule="evenodd" d="m298.064 300.781v46.957h54.314v-52.243h-49.058c-2.89.001-5.256 2.366-5.256 5.286z" fill="#9fd4fe" fill-rule="evenodd"/></g><g><path clip-rule="evenodd" d="m352.379 295.496h54.344v52.243h-54.344z" fill="#9fd4fe" fill-rule="evenodd"/></g><g><path clip-rule="evenodd" d="m406.722 295.496v52.243h54.314v-46.957c0-2.92-2.365-5.286-5.256-5.286z" fill="#9fd4fe" fill-rule="evenodd"/></g><g><path clip-rule="evenodd" d="m406.722 347.738h54.314v52.243h-54.314z" fill="#9fd4fe" fill-rule="evenodd"/></g><g><path clip-rule="evenodd" d="m352.379 347.738h54.344v52.243h-54.344z" fill="#9fd4fe" fill-rule="evenodd"/></g><g><path clip-rule="evenodd" d="m298.064 347.738h54.314v52.243h-54.314z" fill="#9fd4fe" fill-rule="evenodd"/></g><g><path clip-rule="evenodd" d="m298.064 399.981v46.986c0 2.891 2.365 5.286 5.256 5.286h49.058v-52.272z" fill="#9fd4fe" fill-rule="evenodd"/></g><g><path clip-rule="evenodd" d="m352.379 399.981h54.344v52.272h-54.344z" fill="#eb5468" fill-rule="evenodd"/></g><g><path clip-rule="evenodd" d="m406.722 399.981v52.272h49.058c2.891 0 5.256-2.395 5.256-5.286v-46.986z" fill="#9fd4fe" fill-rule="evenodd"/></g><g><path clip-rule="evenodd" d="m425.908 295.496c2.453 16.937 4.088 34.4 4.76 52.243h30.369v-46.957c0-2.92-2.365-5.286-5.256-5.286z" fill="#85beef" fill-rule="evenodd"/></g><g><path clip-rule="evenodd" d="m430.667 347.738c.263 6.6.38 13.258.38 19.974 0 10.892-.321 21.668-.993 32.268h30.983v-52.243h-30.37z" fill="#85beef" fill-rule="evenodd"/></g><g><path clip-rule="evenodd" d="m430.054 399.981c-1.139 17.901-3.183 35.364-6.103 52.272h31.829c2.891 0 5.256-2.395 5.256-5.286v-46.986z" fill="#85beef" fill-rule="evenodd"/></g><g><path clip-rule="evenodd" d="m417.06 250.262c3.621 14.601 6.599 29.699 8.848 45.234h29.873c2.891 0 5.256 2.365 5.256 5.286v46.957 52.243 46.986c0 2.891-2.365 5.286-5.256 5.286h-31.829c-3.563 20.821-8.439 40.824-14.484 59.747h63.717c15.769 0 28.646-12.907 28.646-28.676v-314.303h-88.83-25.464c12.206 24.442 22.193 51.775 29.523 81.24z" fill="#d9eeff" fill-rule="evenodd"/></g><path d="m222.082 444.526h-142.181c-4.268 0-7.726 3.459-7.726 7.726s3.459 7.726 7.726 7.726h142.181c4.268 0 7.726-3.459 7.726-7.726.001-4.267-3.458-7.726-7.726-7.726z" fill="#2b4d66"/><path d="m246.324 263.861c-2.134-3.695-6.858-4.96-10.555-2.827l-16.253 9.386 1.156-14.064c.35-4.253-2.814-7.984-7.067-8.333-4.237-.356-7.983 2.813-8.333 7.067l-2.033 24.731-22.371 12.919c-5.673-6.47-13.402-11.091-22.163-12.824v-25.806l20.407-14.107c3.51-2.427 4.388-7.239 1.962-10.749s-7.24-4.388-10.748-1.962l-11.621 8.033v-18.79c0-4.267-3.459-7.726-7.726-7.726-4.268 0-7.726 3.459-7.726 7.726v18.78l-11.588-8.02c-3.509-2.428-8.322-1.553-10.751 1.956s-1.552 8.322 1.956 10.751l20.382 14.107v25.808c-8.755 1.732-16.481 6.348-22.153 12.812l-22.353-12.908-2.033-24.73c-.35-4.253-4.087-7.431-8.333-7.067-4.254.35-7.418 4.08-7.067 8.333l1.156 14.064-16.252-9.385c-3.698-2.136-8.422-.869-10.555 2.827-2.134 3.695-.868 8.421 2.827 10.554l16.255 9.387-12.744 6.02c-3.858 1.823-5.508 6.429-3.685 10.287 1.32 2.792 4.096 4.427 6.991 4.427 1.107-.001 2.23-.239 3.296-.743l22.417-10.594 22.331 12.896c-1.375 4.025-2.133 8.334-2.133 12.819 0 4.476.754 8.776 2.124 12.795l-22.322 12.891-22.418-10.594c-3.857-1.823-8.462-.175-10.287 3.684-1.823 3.858-.173 8.464 3.685 10.287l12.744 6.021-16.255 9.387c-3.695 2.134-4.961 6.859-2.827 10.554 1.432 2.478 4.028 3.864 6.698 3.864 1.311 0 2.64-.335 3.857-1.037l16.252-9.385-1.156 14.063c-.35 4.253 2.814 7.984 7.067 8.333.215.018.429.027.642.027 3.98 0 7.359-3.056 7.691-7.094l2.033-24.73 22.335-12.898c5.674 6.475 13.406 11.099 22.17 12.832v25.779l-20.382 14.108c-3.509 2.429-4.384 7.242-1.956 10.75s7.241 4.386 10.751 1.956l11.588-8.02v18.779c0 4.267 3.459 7.726 7.726 7.726 4.268 0 7.726-3.459 7.726-7.726v-18.79l11.621 8.034c1.341.927 2.871 1.371 4.386 1.371 2.452 0 4.863-1.164 6.362-3.333 2.427-3.51 1.548-8.323-1.962-10.75l-20.407-14.108v-25.776c8.769-1.734 16.505-6.363 22.18-12.844l22.354 12.909 2.033 24.73c.332 4.038 3.711 7.094 7.691 7.094.212 0 .427-.009.642-.027 4.254-.35 7.417-4.08 7.067-8.333l-1.156-14.064 16.253 9.386c1.217.703 2.546 1.037 3.857 1.037 2.67 0 5.267-1.386 6.698-3.864 2.134-3.695.868-8.421-2.827-10.554l-16.254-9.386 12.743-6.022c3.858-1.823 5.508-6.429 3.685-10.287-1.825-3.859-6.435-5.508-10.287-3.684l-22.417 10.594-22.347-12.905c1.367-4.014 2.119-8.309 2.119-12.78 0-4.48-.756-8.784-2.128-12.805l22.356-12.91 22.417 10.594c1.066.504 2.189.743 3.296.743 2.895-.001 5.671-1.635 6.991-4.427 1.823-3.858.173-8.464-3.685-10.287l-12.742-6.022 16.255-9.387c3.695-2.133 4.961-6.859 2.827-10.554zm-95.346 79.363c-13.403 0-24.308-10.905-24.308-24.308s10.904-24.308 24.308-24.308c13.402 0 24.307 10.905 24.307 24.308s-10.905 24.308-24.307 24.308z" fill="#85beef"/><g fill="#2b4d66"><path d="m455.781 287.77h-152.46c-7.159 0-12.983 5.837-12.983 13.012v146.186c0 7.175 5.824 13.012 12.983 13.012h152.46c7.159 0 12.983-5.837 12.983-13.012v-146.187c0-7.174-5.824-13.011-12.983-13.011zm-149.99 67.695h38.862v36.79h-38.862zm93.205 36.79h-38.89v-36.79h38.89zm0-52.243h-38.89v-36.79h38.89zm-38.89 67.695h38.89v36.819h-38.89zm54.343-52.242h38.862v36.79h-38.862zm38.862-15.453h-38.862v-36.79h38.862zm-108.658-36.79v36.79h-38.862v-36.79zm-38.862 104.485h38.862v36.819h-38.862zm108.658 36.819v-36.819h38.862v36.819z"/><path d="m298.064 220.726h67.835c4.268 0 7.726-3.459 7.726-7.726s-3.459-7.726-7.726-7.726h-67.835c-4.268 0-7.726 3.459-7.726 7.726s3.459 7.726 7.726 7.726z"/><path d="m298.064 257.988h135.669c4.268 0 7.726-3.459 7.726-7.726s-3.459-7.726-7.726-7.726h-135.669c-4.268 0-7.726 3.459-7.726 7.726s3.459 7.726 7.726 7.726z"/></g></g></svg>