<svg id="Capa_1" enable-background="new 0 0 497 497" height="512" viewBox="0 0 497 497" width="512" xmlns="http://www.w3.org/2000/svg"><g><g><path clip-rule="evenodd" d="m252.185 171.837v-31.238c0-14.684 12.047-12.728 26.758-12.728h16.044c26.163 0 47.479-21.288 47.479-47.452s-21.316-47.48-47.479-47.48h-52.241c-5.301 0-13.606-3.543-13.606-13.096v-19.843h-65.337v32.684c0 17.972 14.711 32.684 32.683 32.684h65.11c8.277 0 15.023 6.775 15.023 15.052s-6.775 15.052-15.023 15.052h-28.488c-43.312 0-44.701 38.806-44.701 48.359v28.006l32.711 7.342z" fill="#eff6ff" fill-rule="evenodd"/></g><g><path clip-rule="evenodd" d="m60.057 319.21c0 50.372 22.733 95.67 58.477 126.171l107.516 25.81 107.544-25.81c19.247-16.413 34.724-37.134 44.9-60.605 5.216-12.019 9.042-24.747 11.282-38.013 1.502-8.958 2.296-18.17 2.296-27.553v-84.076-38.013-17.121c0-4.479-3.685-8.164-8.164-8.164h-131.723-183.964c-4.479 0-8.164 3.685-8.164 8.164z" fill="#faf0b0" fill-rule="evenodd"/></g><g><path clip-rule="evenodd" d="m466.564 255.147c0-31.918-26.106-58.025-57.995-58.025h-18.709v31.805h18.708c14.343 0 26.191 11.849 26.191 26.221v40.961c0 14.343-11.849 26.221-26.191 26.221h-20.636c-1.899 11.083-5.074 21.742-9.439 31.776h30.075c31.889 0 57.995-26.107 57.995-57.997v-40.962z" fill="#ffc250" fill-rule="evenodd"/></g><g><path clip-rule="evenodd" d="m333.594 445.381h-215.059-88.099c0 19.984 14.06 51.619 58.222 51.619h274.812c44.163 0 58.222-31.635 58.222-51.619z" fill="#ffe07d" fill-rule="evenodd"/></g><g><path clip-rule="evenodd" d="m294.987 127.871c26.163 0 47.479-21.288 47.479-47.452s-21.316-47.48-47.479-47.48h-26.135c24.009 0 43.908 17.915 47.026 41.074-3.345 22.876-23.13 40.536-46.941 40.536h-16.072c-14.711 0-26.73-1.984-26.73 12.728 0 14.797-.085 29.65-.085 44.561h26.135v-31.238c0-10.035 5.641-12.302 13.889-12.728 1.729-.085 3.6-.085 5.556-.085 2.324.028 4.762.085 7.313.085h16.044z" fill="#d9eeff" fill-rule="evenodd"/></g><g><path clip-rule="evenodd" d="m226.05 205.087c-57.202 0-103.575 46.375-103.575 103.578s46.374 103.578 103.575 103.578 103.575-46.375 103.575-103.578-46.373-103.578-103.575-103.578z" fill="#eff6ff" fill-rule="evenodd"/></g><g><path clip-rule="evenodd" d="m392.071 235.135v-38.013-17.121c0-4.479-3.685-8.164-8.164-8.164h-37.303c4.507 0 8.164 3.685 8.164 8.164v17.121 38.013 84.076c0 9.383-.794 18.595-2.296 27.553-2.239 13.266-6.066 25.994-11.282 38.013-10.176 23.471-33.533 44.192-52.751 60.605h45.155c19.247-16.413 34.724-37.134 44.9-60.605 5.216-12.019 9.042-24.747 11.282-38.013 1.502-8.958 2.296-18.17 2.296-27.553v-84.076z" fill="#ffe07d" fill-rule="evenodd"/></g><g><path clip-rule="evenodd" d="m329.626 308.666c0-57.203-46.374-103.578-103.575-103.578-6.378 0-12.614.567-18.68 1.672 6.491 1.304 12.727 3.232 18.68 5.669 37.7 15.506 64.232 52.583 64.232 95.84 0 43.285-26.532 80.362-64.232 95.84-6.576 2.721-13.493 4.762-20.664 6.066 6.69 1.361 13.606 2.069 20.664 2.069 57.201 0 103.575-46.375 103.575-103.578z" fill="#d9eeff" fill-rule="evenodd"/></g><g><path clip-rule="evenodd" d="m369.055 445.381c0 19.984-14.06 51.619-58.222 51.619h52.638c44.163 0 58.222-31.635 58.222-51.619z" fill="#ffc250" fill-rule="evenodd"/></g><g fill="#2b4d66"><path d="m226.05 197.587c-61.248 0-111.076 49.83-111.076 111.079s49.828 111.078 111.076 111.078c61.247 0 111.075-49.829 111.075-111.078s-49.828-111.079-111.075-111.079zm85.718 118.38h10.082c-1.577 20.892-9.868 39.936-22.711 54.985l-7.182-7.182c-2.928-2.929-7.677-2.93-10.606-.001s-2.929 7.678 0 10.606l7.199 7.2c-15.034 12.907-34.087 21.256-54.999 22.878v-10.265c0-4.143-3.358-7.5-7.5-7.5s-7.5 3.357-7.5 7.5v10.265c-20.909-1.622-39.96-9.969-54.992-22.872l7.215-7.199c2.932-2.926 2.938-7.675.012-10.607-2.925-2.932-7.674-2.936-10.606-.012l-7.211 7.195c-12.846-15.05-21.139-34.096-22.716-54.991h10.111c4.142 0 7.5-3.357 7.5-7.5s-3.358-7.5-7.5-7.5h-10.077c1.66-20.837 9.997-39.821 22.865-54.808l7.029 7.014c1.464 1.461 3.38 2.19 5.297 2.19 1.922 0 3.844-.734 5.309-2.202 2.926-2.933 2.92-7.682-.012-10.607l-7-6.984c14.999-12.799 33.968-21.076 54.777-22.691v9.897c0 4.143 3.358 7.5 7.5 7.5s7.5-3.357 7.5-7.5v-9.897c20.813 1.615 39.784 9.894 54.784 22.697l-6.984 6.985c-2.929 2.929-2.929 7.678 0 10.606 1.464 1.464 3.384 2.196 5.303 2.196s3.839-.732 5.303-2.197l7-7.001c12.865 14.987 21.2 33.968 22.86 54.802h-10.049c-4.142 0-7.5 3.357-7.5 7.5s3.356 7.5 7.499 7.5z"/><path d="m206.555 243.361c-1.594-3.824-5.984-5.63-9.808-4.038-3.823 1.593-5.631 5.983-4.039 9.808l22.358 53.831c1.201 2.881 3.989 4.617 6.926 4.617.961 0 1.939-.187 2.882-.579 3.823-1.593 5.631-5.983 4.039-9.808z"/><path d="m268.739 300.967h-25.568c-4.142 0-7.5 3.357-7.5 7.5s3.358 7.5 7.5 7.5h25.568c4.142 0 7.5-3.357 7.5-7.5s-3.358-7.5-7.5-7.5z"/></g><g><path clip-rule="evenodd" d="m242.746 32.939c-5.301 0-13.606-3.543-13.606-13.096v-19.843h-26.135v19.843c0 9.553 8.305 13.096 13.606 13.096z" fill="#d9eeff" fill-rule="evenodd"/></g><g><path clip-rule="evenodd" d="m226.05 291.374c-9.439 0-17.093 7.654-17.093 17.093s7.653 17.093 17.093 17.093c9.467 0 17.121-7.654 17.121-17.093s-7.653-17.093-17.121-17.093z" fill="#ffe07d" fill-rule="evenodd"/></g></g></svg>