<svg id="Capa_1" enable-background="new 0 0 512 512" height="512" viewBox="0 0 512 512" width="512" xmlns="http://www.w3.org/2000/svg"><g><g><path clip-rule="evenodd" d="m36.094 479.431h403.806c14.659 0 26.661-11.973 26.661-26.633v-292.204l-228.564-17.434-228.565 17.434v292.204c0 14.66 12.002 26.633 26.662 26.633z" fill="#eff6ff" fill-rule="evenodd"/></g><g><path clip-rule="evenodd" d="m9.432 160.594h457.129c5.11 0 9.315-4.118 9.432-9.199v-.234-25.436l-241.851-28.373-234.142 28.374v25.436.175c.088 5.11 4.293 9.257 9.432 9.257z" fill="#9fd4fe" fill-rule="evenodd"/></g><g><path clip-rule="evenodd" d="m0 125.726h475.994v-64.86-.234c-.117-5.081-4.322-9.199-9.432-9.199h-457.13c-5.14 0-9.345 4.147-9.432 9.257v.175z" fill="#eb5468" fill-rule="evenodd"/></g><g><path clip-rule="evenodd" d="m341.226 51.434c12.586 22.282 23.537 47.25 32.531 74.292h102.236v-64.86-.234c-.117-5.081-4.322-9.199-9.432-9.199h-39.51v19.8c0 11.915-9.753 21.639-21.639 21.639-11.914 0-21.639-9.725-21.639-21.639v-19.8h-42.547z" fill="#e5384f" fill-rule="evenodd"/></g><g><path clip-rule="evenodd" d="m373.757 125.726c3.738 11.272 7.155 22.924 10.191 34.868h82.613c5.11 0 9.315-4.118 9.432-9.199v-.234-25.436h-102.236z" fill="#85beef" fill-rule="evenodd"/></g><g><path clip-rule="evenodd" d="m48.943 71.233c0 11.915 9.724 21.639 21.639 21.639 11.885 0 21.639-9.725 21.639-21.639v-19.8-26.34c0-11.915-9.753-21.639-21.639-21.639-11.914 0-21.639 9.725-21.639 21.639v26.341z" fill="#ffe07d" fill-rule="evenodd"/></g><g><path clip-rule="evenodd" d="m160.553 71.233c0 11.915 9.724 21.639 21.639 21.639 11.885 0 21.639-9.725 21.639-21.639v-19.8-26.34c0-11.915-9.753-21.639-21.639-21.639-11.914 0-21.639 9.725-21.639 21.639v26.341z" fill="#ffe07d" fill-rule="evenodd"/></g><g><path clip-rule="evenodd" d="m272.163 71.233c0 11.915 9.724 21.639 21.639 21.639 11.885 0 21.639-9.725 21.639-21.639v-19.8-26.34c0-11.915-9.753-21.639-21.639-21.639-11.914 0-21.639 9.725-21.639 21.639v26.341z" fill="#ffe07d" fill-rule="evenodd"/></g><g><path clip-rule="evenodd" d="m383.774 25.093v26.341 19.8c0 11.915 9.724 21.639 21.639 21.639 11.885 0 21.639-9.725 21.639-21.639v-19.8-26.341c0-11.915-9.753-21.639-21.639-21.639-11.915 0-21.639 9.724-21.639 21.639z" fill="#ffe07d" fill-rule="evenodd"/></g><g><path clip-rule="evenodd" d="m182.571 25.093v46.141c0 8.06-4.439 15.098-11.009 18.836 3.125 1.781 6.775 2.803 10.63 2.803 11.885 0 21.639-9.725 21.639-21.639v-19.8-26.341c0-11.915-9.753-21.639-21.639-21.639-3.855 0-7.505 1.022-10.63 2.803 6.571 3.709 11.009 10.776 11.009 18.836z" fill="#ffc250" fill-rule="evenodd"/></g><g><path clip-rule="evenodd" d="m70.961 25.093v46.141c0 8.06-4.439 15.098-11.009 18.836 3.154 1.781 6.775 2.803 10.63 2.803 11.885 0 21.639-9.725 21.639-21.639v-19.8-26.341c0-11.915-9.753-21.639-21.639-21.639-3.855 0-7.476 1.022-10.63 2.803 6.57 3.709 11.009 10.776 11.009 18.836z" fill="#ffc250" fill-rule="evenodd"/></g><g><path clip-rule="evenodd" d="m294.182 25.093v46.141c0 8.06-4.439 15.098-11.009 18.836 3.125 1.781 6.775 2.803 10.63 2.803 11.885 0 21.639-9.725 21.639-21.639v-19.8-26.341c0-11.915-9.753-21.639-21.639-21.639-3.855 0-7.505 1.022-10.63 2.803 6.57 3.709 11.009 10.776 11.009 18.836z" fill="#ffc250" fill-rule="evenodd"/></g><g><path clip-rule="evenodd" d="m405.792 25.093v46.141c0 8.06-4.468 15.098-11.009 18.836 3.125 1.781 6.775 2.803 10.63 2.803 11.885 0 21.639-9.725 21.639-21.639v-19.8-26.341c0-11.915-9.753-21.639-21.639-21.639-3.855 0-7.505 1.022-10.63 2.803 6.541 3.709 11.009 10.776 11.009 18.836z" fill="#ffc250" fill-rule="evenodd"/></g><g><path clip-rule="evenodd" d="m380.678 479.431h59.222c14.659 0 26.661-11.973 26.661-26.633v-292.204h-82.613-23.654c40.125 102.035 44.301 210.319 20.384 318.837z" fill="#d9eeff" fill-rule="evenodd"/></g><g><path clip-rule="evenodd" d="m378.722 241.953c-73.618 0-133.307 59.691-133.307 133.311s59.689 133.282 133.307 133.282c73.589 0 133.278-59.661 133.278-133.282s-59.689-133.311-133.278-133.311z" fill="#95d6a4" fill-rule="evenodd"/></g><g><path clip-rule="evenodd" d="m378.722 276.734c-54.433 0-98.528 44.126-98.528 98.53s44.095 98.501 98.528 98.501c54.403 0 98.499-44.096 98.499-98.501s-44.096-98.53-98.499-98.53z" fill="#eff6ff" fill-rule="evenodd"/></g><g><path clip-rule="evenodd" d="m338.131 357.451c-9.783 0-17.784 8.031-17.784 17.814s8.001 17.785 17.784 17.785h22.778v22.778c0 9.783 8.001 17.814 17.813 17.814 9.783 0 17.784-8.031 17.784-17.814v-22.778h22.778c9.783 0 17.784-8.002 17.784-17.785s-8.001-17.814-17.784-17.814h-22.778v-22.778c0-9.783-8.001-17.785-17.784-17.785-9.812 0-17.813 8.002-17.813 17.785v22.778z" fill="#95d6a4" fill-rule="evenodd"/></g><g><path clip-rule="evenodd" d="m370.808 318.757c5.11 23.888 7.914 49.674 7.914 76.599 0 12.995-.672 25.757-1.927 38.168.642.058 1.285.117 1.927.117 9.783 0 17.784-8.031 17.784-17.814v-22.778h22.778c9.783 0 17.784-8.002 17.784-17.785s-8.001-17.814-17.784-17.814h-22.778v-22.778c0-9.783-8.001-17.785-17.784-17.785-2.862.001-5.549.673-7.914 1.87z" fill="#78c2a4" fill-rule="evenodd"/></g><g><path clip-rule="evenodd" d="m378.722 316.888c9.783 0 17.784 8.002 17.784 17.785v22.778h22.778c9.783 0 17.784 8.031 17.784 17.814s-8.001 17.785-17.784 17.785h-22.778v22.778c0 9.783-8.001 17.814-17.784 17.814-.642 0-1.285-.058-1.927-.117-1.402 13.784-3.533 27.129-6.337 39.92 2.716.234 5.49.321 8.264.321 54.403 0 98.499-44.096 98.499-98.501s-44.095-98.53-98.499-98.53c-6.629 0-13.083.642-19.303 1.898 4.526 12.616 8.352 26.049 11.389 40.125 2.365-1.198 5.052-1.87 7.914-1.87z" fill="#d9eeff" fill-rule="evenodd"/></g><g><path clip-rule="evenodd" d="m378.722 241.953c-11.564 0-22.778 1.489-33.466 4.264 5.256 10.017 10.016 20.88 14.163 32.415 6.22-1.256 12.674-1.898 19.303-1.898 54.403 0 98.499 44.126 98.499 98.53s-44.095 98.501-98.499 98.501c-2.774 0-5.548-.088-8.264-.321-2.57 11.798-5.724 23.158-9.403 33.934 5.782.788 11.681 1.168 17.667 1.168 73.589 0 133.278-59.661 133.278-133.282s-59.689-133.311-133.278-133.311z" fill="#78c2a4" fill-rule="evenodd"/></g><g><path d="m291.437 220.068h-190.778c-4.267 0-7.726-3.459-7.726-7.726s3.459-7.726 7.726-7.726h190.777c4.267 0 7.726 3.459 7.726 7.726s-3.458 7.726-7.725 7.726z" fill="#2b4d66"/></g><g><path d="m234.142 272.487h-133.483c-4.267 0-7.726-3.459-7.726-7.726s3.459-7.726 7.726-7.726h133.483c4.267 0 7.726 3.459 7.726 7.726s-3.459 7.726-7.726 7.726z" fill="#2b4d66"/></g><g><path d="m203.947 324.906h-103.288c-4.267 0-7.726-3.459-7.726-7.726s3.459-7.726 7.726-7.726h103.288c4.267 0 7.726 3.459 7.726 7.726s-3.459 7.726-7.726 7.726z" fill="#2b4d66"/></g><g><path d="m203.947 377.326h-103.288c-4.267 0-7.726-3.459-7.726-7.726s3.459-7.726 7.726-7.726h103.288c4.267 0 7.726 3.459 7.726 7.726s-3.459 7.726-7.726 7.726z" fill="#2b4d66"/></g><g><path d="m185.024 429.744h-84.365c-4.267 0-7.726-3.459-7.726-7.726s3.459-7.726 7.726-7.726h84.365c4.267 0 7.726 3.459 7.726 7.726s-3.459 7.726-7.726 7.726z" fill="#2b4d66"/></g><g><path d="m68.596 220.068h-8.586c-4.267 0-7.726-3.459-7.726-7.726s3.459-7.726 7.726-7.726h8.586c4.267 0 7.726 3.459 7.726 7.726s-3.459 7.726-7.726 7.726z" fill="#78c2a4"/></g><g><path d="m68.596 272.487h-8.586c-4.267 0-7.726-3.459-7.726-7.726s3.459-7.726 7.726-7.726h8.586c4.267 0 7.726 3.459 7.726 7.726s-3.459 7.726-7.726 7.726z" fill="#2b4d66"/></g><g><path d="m68.596 324.906h-8.586c-4.267 0-7.726-3.459-7.726-7.726s3.459-7.726 7.726-7.726h8.586c4.267 0 7.726 3.459 7.726 7.726s-3.459 7.726-7.726 7.726z" fill="#78c2a4"/></g><g><path d="m68.596 377.326h-8.586c-4.267 0-7.726-3.459-7.726-7.726s3.459-7.726 7.726-7.726h8.586c4.267 0 7.726 3.459 7.726 7.726s-3.459 7.726-7.726 7.726z" fill="#2b4d66"/></g><g><path d="m68.596 429.744h-8.586c-4.267 0-7.726-3.459-7.726-7.726s3.459-7.726 7.726-7.726h8.586c4.267 0 7.726 3.459 7.726 7.726s-3.459 7.726-7.726 7.726z" fill="#78c2a4"/></g></g></svg>