<svg id="Capa_1" enable-background="new 0 0 512 512" height="512" viewBox="0 0 512 512" width="512" xmlns="http://www.w3.org/2000/svg"><g><g><path clip-rule="evenodd" d="m422 458.9h-26v19c0 14.4-11.6 26.2-26 26.5h26.1c14.3-.3 26-12.1 26-26.5z" fill="#2b4d66" fill-rule="evenodd"/></g><g><path d="m256 447.3-171 17.8v19.6c0 14.8 12 27 26.7 27.3h288.6c14.8-.3 26.7-12.5 26.7-27.3v-19.6z" fill="#375e7d"/><g><path clip-rule="evenodd" d="m427 465.1v-418.2l-163.8-27.8-178.2 27.8v418.2z" fill="#9fd4fe" fill-rule="evenodd"/></g><g><path clip-rule="evenodd" d="m165.7 70.7h180.7c3.2 0 5-1.7 6.3-4.5l8.8-19.2h65.5v-19.7c0-14.9-12-27-26.8-27.3h-288.5c-14.7.3-26.7 12.5-26.7 27.3v19.6h65.6l8.8 19.2c1.2 2.9 3.1 4.6 6.3 4.6z" fill="#375e7d" fill-rule="evenodd"/></g><g><path clip-rule="evenodd" d="m400.2 46.9h26.8v-19.6c0-14.9-12-27-26.8-27.3h-26.9c14.8.3 26.8 12.5 26.8 27.3v19.6z" fill="#2b4d66" fill-rule="evenodd"/></g><g><path clip-rule="evenodd" d="m400.2 46.9h26.9v418.1h-26.9z" fill="#85beef" fill-rule="evenodd"/></g><g><path d="m300.7 424.1c-8.6 0-16.7-4.1-21.9-11-2.5-3.4-1.8-8.3 1.6-10.8s8.3-1.8 10.8 1.6c2.2 3 5.7 4.8 9.5 4.8h.2c6.1-.1 11.1-5 11.4-11 .2-3.2-1-6.3-3.2-8.7-2.2-2.3-5.2-3.6-8.5-3.6-4.8 0-6.7.7-9.2 1.8-.3.1-.5.2-.6.3-2.6 1.3-5.7 1-8-.7s-3.5-4.6-3-7.5l4.7-28.5c.6-3.7 3.8-6.5 7.6-6.5h23.8c4.3 0 7.7 3.5 7.7 7.7s-3.5 7.7-7.7 7.7h-17.3l-1.6 10.3c1.1-.1 2.3-.1 3.6-.1 7.4 0 14.6 3.1 19.7 8.5 5.2 5.5 7.8 12.6 7.4 20.1-.7 14.1-12.4 25.4-26.5 25.7-.2-.1-.4-.1-.5-.1z" fill="#2b4d66"/></g><g><path d="m203.4 423c-12.3 0-13.2-.3-14.2-.6h-.1c-2.5-.9-4.4-2.8-5.2-5.3-1.3-4.2.6-6.7 4.7-12.1 3.2-4.2 9.2-12.1 19.2-26.4 2.8-4 4.7-7.7 5.5-10.7l.2-1.4c-.2-4.5-3.9-8.1-8.5-8.1-4.1 0-7.6 2.9-8.4 6.9-.8 4.2-4.9 6.9-9.1 6.1s-6.9-4.9-6.1-9.1c2.2-11.2 12.1-19.3 23.5-19.3 14.6-.2 26.5 13.7 23.4 28.2-1.2 5.1-3.9 10.6-7.9 16.4-6.3 8.9-11 15.4-14.4 20.1 5.4 0 11.7-.1 17.7-.1h.1c4.2 0 7.7 3.4 7.7 7.6.1 4.3-3.4 7.8-7.6 7.8-9 0-15.6 0-20.5 0z" fill="#2b4d66"/></g><g><path d="m142.9 424c-14.4 0-26.1-11.7-26.1-26.1v-29.3c0-14.4 11.7-26.1 26.1-26.1s26.1 11.7 26.1 26.1v29.3c0 14.4-11.7 26.1-26.1 26.1zm0-66c-5.9 0-10.6 4.8-10.6 10.6v29.3c0 5.9 4.8 10.6 10.6 10.6 5.9 0 10.6-4.8 10.6-10.6v-29.3c.1-5.9-4.7-10.6-10.6-10.6z" fill="#2b4d66"/></g><g><path d="m362.5 424.1c-8.6 0-16.8-4.1-21.9-11-2.5-3.4-1.8-8.3 1.6-10.8s8.3-1.8 10.8 1.6c2.2 3 5.8 4.8 9.6 4.7 6.1-.1 11.1-5 11.4-11 .2-3.2-1-6.3-3.2-8.7s-5.2-3.6-8.5-3.6c-4.8 0-6.7.7-9.2 1.8-.3.1-.5.2-.5.2-2.6 1.3-5.7 1-8-.7s-3.5-4.6-3-7.5l4.7-28.5c.6-3.7 3.8-6.5 7.6-6.5h23.8c4.3 0 7.7 3.5 7.7 7.7s-3.5 7.7-7.7 7.7h-17.3l-1.7 10.3c1.1-.1 2.3-.1 3.6-.1 7.4 0 14.6 3.1 19.7 8.5 5.2 5.4 7.8 12.6 7.4 20.1-.7 14.1-12.4 25.4-26.5 25.7-.1.1-.3.1-.4.1z" fill="#2b4d66"/></g><g><path d="m256 411.7c-.6 0-1.2-.1-1.9-.2-4.1-1-6.7-5.2-5.6-9.4v-.1c1-4.1 5.2-6.7 9.4-5.6 4.1 1 6.7 5.2 5.6 9.4v.1c-.9 3.4-4 5.8-7.5 5.8z" fill="#2b4d66"/></g><g><path d="m256 370.4c-.6 0-1.3-.1-1.9-.2-4.1-1-6.7-5.2-5.6-9.4v-.1c1-4.1 5.2-6.7 9.4-5.6 4.1 1 6.7 5.2 5.6 9.4v.1c-.9 3.5-4 5.8-7.5 5.8z" fill="#2b4d66"/></g><g><path clip-rule="evenodd" d="m256 316.3c57.1 0 103.4-46.3 103.4-103.4s-46.3-103.4-103.4-103.4-103.4 46.3-103.4 103.4 46.3 103.4 103.4 103.4zm17.1-103.6c0 9.4-7.7 17.1-17.1 17.1s-17.1-7.7-17.1-17.1 7.7-17.1 17.1-17.1 17.1 7.6 17.1 17.1z" fill="#eff6ff" fill-rule="evenodd"/></g><g><path clip-rule="evenodd" d="m321 199.3c0 57.1-46.3 103.4-103.4 103.4-5 0-9.8-.4-14.6-1 15.5 9.3 33.6 14.6 52.9 14.6 57.1 0 103.4-46.3 103.4-103.4 0-52.2-38.6-95.3-88.8-102.4 30.3 18 50.5 51.1 50.5 88.8z" fill="#d9eeff" fill-rule="evenodd"/></g><g fill="#375e7d"><path d="m241.9 200.1c1.2 3 4.1 4.8 7.1 4.8 1 0 2-.2 3-.6 3.9-1.6 5.8-6.2 4.2-10.1l-19.4-46.5c-1.6-3.9-6.2-5.8-10.1-4.2s-5.8 6.2-4.2 10.1z"/><path d="m273.1 220.4h25.6c4.3 0 7.7-3.5 7.7-7.7s-3.5-7.7-7.7-7.7h-25.6c-4.3 0-7.7 3.5-7.7 7.7s3.4 7.7 7.7 7.7z"/><path d="m231.2 262c0 4.3 3.5 7.7 7.7 7.7h34.1c4.3 0 7.7-3.5 7.7-7.7s-3.5-7.7-7.7-7.7h-34.1c-4.2 0-7.7 3.5-7.7 7.7z"/><path d="m256 324c61.3 0 111.2-49.9 111.2-111.1 0-61.3-49.8-111.1-111.1-111.1-61.3 0-111.1 49.9-111.1 111.1s49.7 111.1 111 111.1zm-85.6-119h-9.8c1.7-20.6 9.9-39.3 22.6-54.1l6.8 6.8c1.5 1.5 3.5 2.3 5.5 2.3s4-.8 5.5-2.3c3-3 3-7.9 0-10.9l-6.8-6.8c14.9-12.6 33.6-20.8 54.1-22.4v9.6c0 4.3 3.5 7.7 7.7 7.7 4.3 0 7.7-3.5 7.7-7.7v-9.6c20.5 1.7 39.2 9.8 54.1 22.4l-6.8 6.8c-3 3-3 7.9 0 10.9 1.5 1.5 3.5 2.3 5.5 2.3s3.9-.8 5.5-2.3l6.8-6.8c12.7 14.8 20.9 33.6 22.6 54.1h-9.8c-4.3 0-7.7 3.5-7.7 7.7s3.5 7.7 7.7 7.7h9.8c-1.6 20.6-9.8 39.4-22.4 54.3l-7-7c-3-3-7.9-3-10.9 0s-3 7.9 0 10.9l7 7c-14.9 12.7-33.7 20.9-54.3 22.6v-10c0-4.3-3.5-7.7-7.7-7.7s-7.7 3.5-7.7 7.7v10c-20.6-1.7-39.4-9.9-54.3-22.6l7-7c3-3 3-7.9 0-10.9s-7.9-3-10.9 0l-7 7c-12.6-14.9-20.8-33.7-22.4-54.3h9.8c4.3 0 7.7-3.5 7.7-7.7s-3.6-7.7-7.9-7.7z"/></g><g><path clip-rule="evenodd" d="m256 229.8c9.4 0 17.1-7.7 17.1-17.1s-7.7-17.1-17.1-17.1-17.1 7.6-17.1 17.1c0 9.4 7.7 17.1 17.1 17.1z" fill="#ffc250" fill-rule="evenodd"/></g><path d="m303.6 35.4c0-4.3-3.5-7.7-7.7-7.7h-79.7c-4.3 0-7.7 3.5-7.7 7.7s3.5 7.7 7.7 7.7h79.7c4.2 0 7.7-3.5 7.7-7.7z" fill="#2b4d66"/></g></g></svg>