<svg id="Capa_1" enable-background="new 0 0 512 512" height="512" viewBox="0 0 512 512" width="512" xmlns="http://www.w3.org/2000/svg"><g><g><path d="m402.212 149.386c-1.979 0-3.957-.756-5.466-2.266-3.016-3.019-3.014-7.91.005-10.927l29.844-29.815c3.018-3.016 7.91-3.013 10.927.005 3.016 3.019 3.014 7.91-.005 10.927l-29.844 29.815c-1.508 1.508-3.485 2.261-5.461 2.261z" fill="#d9eeff"/></g><g><path d="m109.759 149.386c-1.977 0-3.955-.755-5.463-2.263l-29.815-29.815c-3.018-3.018-3.018-7.909 0-10.928 3.017-3.016 7.909-3.016 10.927 0l29.815 29.815c3.018 3.018 3.018 7.909 0 10.928-1.509 1.509-3.487 2.263-5.464 2.263z" fill="#d9eeff"/></g><g><path d="m256 88.821c-4.267 0-7.726-3.459-7.726-7.726v-38.022c0-4.268 3.459-7.726 7.726-7.726 4.268 0 7.726 3.459 7.726 7.726v38.021c0 4.268-3.458 7.727-7.726 7.727z" fill="#d9eeff"/></g><g><path clip-rule="evenodd" d="m90.165 506.076 56.943-42.314c-1.84-23.391-14.134-40.62-48.621-41.847l-39.422 53.031c-7.242 9.724-8.556 22.573 0 31.13s21.376 7.213 31.1 0z" fill="#375e7d" fill-rule="evenodd"/></g><g><path clip-rule="evenodd" d="m413.513 421.915c69.266-81.27 65.499-203.452-11.301-280.254-40.386-40.358-93.299-60.566-146.212-60.566-52.942 0-105.855 20.208-146.241 60.566-76.8 76.802-80.567 198.984-11.272 280.254 3.563 4.176 7.33 8.264 11.272 12.207 11.535 11.535 24.062 21.405 37.349 29.64 66.492 41.263 151.293 41.263 217.785 0 13.257-8.235 25.814-18.105 37.32-29.64 3.97-3.943 7.737-8.031 11.3-12.207z" fill="#eb5468" fill-rule="evenodd"/></g><g><path clip-rule="evenodd" d="m452.935 474.946-39.422-53.031c-32.122-.088-45.292 17.054-48.621 41.847l56.943 42.314c9.695 7.213 22.544 8.556 31.1 0s7.213-21.405 0-31.13z" fill="#375e7d" fill-rule="evenodd"/></g><g><path clip-rule="evenodd" d="m256 448.635c88.773 0 160.725-71.954 160.725-160.729s-71.952-160.73-160.725-160.73-160.725 71.955-160.725 160.729 71.952 160.73 160.725 160.73z" fill="#eff6ff" fill-rule="evenodd"/></g><g><path clip-rule="evenodd" d="m311.541 312.26c13.404 0 24.354-10.951 24.354-24.355s-10.951-24.355-24.354-24.355h-111.082c-13.403 0-24.383 10.951-24.383 24.355s10.98 24.355 24.383 24.355z" fill="#eb5468" fill-rule="evenodd"/></g><g><path clip-rule="evenodd" d="m79.944 111.845 41.174-41.175c1.606-1.606 1.606-4.264 0-5.87l-11.564-11.564c-24.266-24.267-63.981-24.267-88.218 0-24.266 24.267-24.266 63.953 0 88.22l11.564 11.564c1.606 1.606 4.263 1.606 5.87 0z" fill="#eb5468" fill-rule="evenodd"/></g><g><path clip-rule="evenodd" d="m313.673 21.522c0-11.827-9.695-21.522-21.551-21.522h-72.274c-11.827 0-21.521 9.695-21.521 21.522 0 11.856 9.695 21.551 21.521 21.551h36.152 36.122c11.856 0 21.551-9.695 21.551-21.551z" fill="#375e7d" fill-rule="evenodd"/></g><g><path clip-rule="evenodd" d="m490.663 141.456c24.266-24.267 24.266-63.953 0-88.22s-63.951-24.267-88.218 0l-11.563 11.564c-1.635 1.606-1.635 4.264 0 5.87l41.174 41.175 41.174 41.175c1.606 1.606 4.234 1.606 5.84 0z" fill="#eb5468" fill-rule="evenodd"/></g><g><path clip-rule="evenodd" d="m256 138.098c55.366 25.406 93.824 81.299 93.824 146.187s-38.458 120.809-93.824 146.186c-13.141 6.016-27.216 10.338-41.963 12.615 13.374 3.621 27.449 5.548 41.963 5.548 9.899 0 19.594-.905 29.026-2.628 74.902-13.667 131.699-79.255 131.699-158.101 0-80.92-59.805-147.851-137.598-159.065-7.563-1.11-15.272-1.665-23.128-1.665-8.498 0-16.82.642-24.938 1.927 8.615 2.308 16.938 5.345 24.939 8.996z" fill="#d9eeff" fill-rule="evenodd"/></g><g><path clip-rule="evenodd" d="m221.571 83.957c40.97 6.892 80.217 26.136 111.813 57.704 3.942 3.942 7.651 7.972 11.184 12.119 43.481 28.764 72.157 78.087 72.157 134.126s-28.676 105.362-72.157 134.126c-3.533 4.147-7.242 8.177-11.184 12.09-11.505 11.535-24.033 21.405-37.32 29.64-23.128 14.338-48.475 23.712-74.493 28.063 48.796 8.206 99.957-1.168 143.321-28.063 13.257-8.235 25.814-18.105 37.32-29.64 3.971-3.942 7.738-8.031 11.301-12.207 69.266-81.27 65.499-203.452-11.301-280.254-40.386-40.358-93.299-60.566-146.212-60.566-11.535 0-23.04.963-34.429 2.862z" fill="#e5384f" fill-rule="evenodd"/></g><g><path clip-rule="evenodd" d="m7.758 73.619c24.383-17.989 59.162-15.974 81.209 6.074l11.564 11.564 20.587-20.588c1.606-1.606 1.606-4.264 0-5.87l-11.564-11.564c-24.266-24.267-63.981-24.267-88.218 0-6.015 6.016-10.541 12.967-13.578 20.384z" fill="#e5384f" fill-rule="evenodd"/></g><g><path clip-rule="evenodd" d="m471.04 40.007c19.594 24.413 18.076 60.478-4.555 83.11l-11.593 11.593 18.339 18.31c1.606 1.606 4.234 1.606 5.84 0l11.593-11.564c24.266-24.267 24.266-63.953 0-88.22-5.812-5.811-12.499-10.221-19.624-13.229z" fill="#e5384f" fill-rule="evenodd"/></g><g><path clip-rule="evenodd" d="m265.432 0c11.856 0 21.551 9.695 21.551 21.522 0 11.856-9.695 21.551-21.551 21.551h26.69c11.856 0 21.551-9.695 21.551-21.551 0-11.827-9.695-21.522-21.551-21.522z" fill="#2b4d66" fill-rule="evenodd"/></g><g><path clip-rule="evenodd" d="m129.879 451.818-48.299 35.89c-8.731 6.483-20.003 8.206-28.384 2.278-.438 5.84 1.343 11.564 5.87 16.09 8.556 8.556 21.376 7.213 31.1 0l56.943-42.314c-5.9-3.651-11.653-7.651-17.23-11.944z" fill="#2b4d66" fill-rule="evenodd"/></g><g><path clip-rule="evenodd" d="m397.481 438.706 32.092 43.19c6.658 8.965 8.322 20.558 1.84 29.027 7.592 2.249 15.594 1.08 21.522-4.848 8.556-8.556 7.213-21.405 0-31.13l-39.422-53.031c-3.563 4.176-7.33 8.264-11.301 12.207-1.548 1.577-3.125 3.096-4.731 4.585z" fill="#2b4d66" fill-rule="evenodd"/></g><path d="m256 119.45c-46.352 0-88.39 18.821-118.878 49.22-.01.01-.022.019-.033.029-.006.007-.012.014-.018.02-30.577 30.513-49.522 72.678-49.522 119.186 0 92.887 75.567 168.456 168.452 168.456 92.884 0 168.452-75.568 168.452-168.456s-75.569-168.455-168.453-168.455zm132.984 175.89h19.832c-1.751 36.416-16.293 69.532-39.219 94.947l-14.104-14.105c-3.017-3.017-7.909-3.018-10.927-.001s-3.018 7.909-.001 10.927l14.122 14.123c-25.386 23.026-58.514 37.662-94.961 39.484v-20.114c0-4.268-3.459-7.726-7.726-7.726s-7.726 3.459-7.726 7.726v20.114c-36.454-1.822-69.588-16.463-94.976-39.497l14.108-14.109c3.018-3.018 3.018-7.909 0-10.928-3.017-3.016-7.909-3.017-10.927.001l-14.089 14.09c-22.919-25.413-37.455-58.523-39.206-94.932h19.832c4.267 0 7.726-3.459 7.726-7.726s-3.459-7.726-7.726-7.726h-19.806c1.885-36.333 16.503-69.353 39.467-94.672l13.801 13.802c1.509 1.508 3.486 2.263 5.463 2.263s3.955-.755 5.463-2.263c3.018-3.018 3.018-7.909 0-10.927l-13.784-13.785c25.346-22.866 58.352-37.395 94.652-39.209v19.529c0 4.268 3.459 7.726 7.726 7.726 4.268 0 7.726-3.459 7.726-7.726v-19.529c36.293 1.814 69.293 16.337 94.637 39.195l-13.798 13.799c-3.017 3.017-3.017 7.909.001 10.927 1.508 1.508 3.485 2.263 5.463 2.263 1.977 0 3.955-.755 5.464-2.264l13.816-13.816c22.972 25.321 37.595 58.347 39.481 94.688h-19.806c-4.268 0-7.726 3.459-7.726 7.726s3.46 7.725 7.728 7.725z" fill="#2b4d66"/></g></svg>