<svg id="Capa_1" enable-background="new 0 0 512 512" height="512" viewBox="0 0 512 512" width="512" xmlns="http://www.w3.org/2000/svg"><g><g><path d="m457.454 339.352h-39.733c-4.143 0-7.5-3.357-7.5-7.5s3.357-7.5 7.5-7.5h39.733c21.437 0 39.546-18.11 39.546-39.547v-36.698c0-21.821-17.74-39.574-39.546-39.574h-26.151c-4.143 0-7.5-3.357-7.5-7.5s3.357-7.5 7.5-7.5h26.151c30.077 0 54.546 24.481 54.546 54.574v36.698c0 30.078-24.469 54.547-54.546 54.547z" fill="#ffc250"/></g><g><path clip-rule="evenodd" d="m303.523 174.768h-69.767c-101.796-10.152-155.281 36.136-177.046 60.179v27.109c0 18.897 2.84 37.148 8.099 54.386l49.351 87.991 112.313 15.945 138.859-15.945c22.834-19.488 40.971-44.347 52.388-72.581 8.774-21.597 13.582-45.163 13.582-69.797v-61.023-17.07c0-5.062-4.134-9.196-9.195-9.196h-118.584z" fill="#ffe07d" fill-rule="evenodd"/></g><g><path clip-rule="evenodd" d="m75.045 404.433c11.051-11.698 24.521-28.852 17.716-64.201-7.396-10.292-17.013-18.279-27.952-23.791-6.383-3.234-13.217-5.596-20.331-7.115-6.468-1.35-7.593-.675-9.223 5.765-5.259 20.641-2.7 42.604 8.942 61.304 7.705 12.375 18.419 21.795 30.848 28.038z" fill="#95d6a4" fill-rule="evenodd"/></g><g><path clip-rule="evenodd" d="m373.065 449.343-130.141-12.879-127.976 12.879v20.388c0 11.052 8.914 20.135 19.909 20.416h218.299c10.995-.281 19.909-9.364 19.909-20.416z" fill="#ffe07d" fill-rule="evenodd"/></g><g><path clip-rule="evenodd" d="m122.119 258.597c63.13 0 114.619-51.49 114.619-114.622s-51.489-114.622-114.619-114.622-114.619 51.49-114.619 114.622 51.488 114.622 114.619 114.622z" fill="#eff6ff" fill-rule="evenodd"/></g><g><path clip-rule="evenodd" d="m189.973 135.117c0 46.653-27.867 86.782-67.855 104.667-13.582 6.074-28.57 9.589-44.318 9.927 1.968.816 3.937 1.603 5.962 2.306 11.979 4.246 24.887 6.58 38.356 6.58 40.325 0 75.784-20.838 96.2-52.305 11.642-17.941 18.419-39.342 18.419-62.317 0-62.963-50.785-114.088-113.606-114.622h-2.053c-.478 0-.928 0-1.406.028.815.337 1.631.675 2.446 1.04 39.988 17.886 67.855 58.043 67.855 104.696z" fill="#d9eeff" fill-rule="evenodd"/></g><g><path clip-rule="evenodd" d="m382.936 201.033v61.023c0 24.634-4.809 48.2-13.554 69.797-11.445 28.234-29.583 53.093-52.388 72.581h48.339c22.834-19.488 40.971-44.347 52.388-72.581 8.774-21.597 13.582-45.163 13.582-69.797v-61.023-17.07c0-5.062-4.134-9.196-9.195-9.196h-48.368c5.062 0 9.195 4.134 9.195 9.196v17.07z" fill="#ffc250" fill-rule="evenodd"/></g><g><path clip-rule="evenodd" d="m93.914 368.326c1.125-7.846.956-17.098-1.153-28.093-2.165-3.037-4.556-5.877-7.086-8.493-6.074-6.299-13.16-11.417-20.865-15.298-6.383-3.234-13.217-5.596-20.331-7.115-6.468-1.35-7.593-.675-9.223 5.765-.45 1.772-.844 3.6-1.181 5.399.534.084 1.097.197 1.743.337 7.086 1.49 13.948 3.881 20.331 7.087 7.705 3.881 14.735 8.999 20.809 15.27-10.236 15.467-16.113 32.789-17.885 50.618 4.865 4.19 10.236 7.761 15.972 10.63 7.621-8.07 16.366-18.7 18.869-36.107z" fill="#78c2a4" fill-rule="evenodd"/></g><g><path clip-rule="evenodd" d="m141.241 381.486c13.92-18.504 18.616-41.282 15.016-63.413-1.125-6.862-2.222-7.677-9.139-6.862-21.006 2.531-40.522 12.345-54.357 29.021-.815.984-1.603 1.997-2.39 3.009-13.442 17.885-18.278 39.763-15.326 61.192l19.555 15.945 19.561-15.945c10.404-5.427 19.684-13.104 27.08-22.947z" fill="#95d6a4" fill-rule="evenodd"/></g><g><path clip-rule="evenodd" d="m131.37 320.632c3.599 22.103-1.097 44.881-15.016 63.413-2.559 3.403-5.343 6.552-8.352 9.449-4.331 4.218-9.111 7.846-14.201 10.939h20.359c10.405-5.427 19.684-13.104 27.08-22.947 13.92-18.504 18.616-41.282 15.016-63.413-1.125-6.862-2.222-7.677-9.139-6.862-5.933.731-11.782 2.025-17.378 3.881.76 1.125 1.21 2.869 1.631 5.54z" fill="#78c2a4" fill-rule="evenodd"/></g><g><path d="m303.523 239.438c-4.143 0-7.5-3.357-7.5-7.5v-69.234c0-4.143 3.357-7.5 7.5-7.5s7.5 3.357 7.5 7.5v69.234c0 4.143-3.357 7.5-7.5 7.5z" fill="#d9eeff"/></g><path d="m122.119 21.853c-67.337 0-122.119 54.785-122.119 122.122s54.782 122.121 122.119 122.121c67.336 0 122.118-54.783 122.118-122.121s-54.782-122.122-122.118-122.122zm80.721 192.462-8.378-8.378c-2.93-2.928-7.678-2.928-10.607 0-2.929 2.93-2.929 7.678 0 10.607l8.365 8.365c-17.031 14.772-38.753 24.27-62.6 25.927v-11.812c0-4.143-3.357-7.5-7.5-7.5s-7.5 3.357-7.5 7.5v11.812c-23.854-1.658-45.582-11.161-62.615-25.94l8.352-8.352c2.929-2.93 2.929-7.678 0-10.607-2.93-2.928-7.678-2.928-10.607 0l-8.363 8.363c-14.843-17.018-24.406-38.754-26.109-62.629h11.993c4.143 0 7.5-3.357 7.5-7.5s-3.357-7.5-7.5-7.5h-12.023c1.619-23.931 11.132-45.733 25.952-62.813l8.548 8.548c1.465 1.464 3.385 2.196 5.304 2.196s3.839-.732 5.304-2.196c2.929-2.93 2.929-7.678 0-10.607l-8.56-8.56c17.064-14.884 38.871-24.454 62.823-26.119v12.228c0 4.143 3.357 7.5 7.5 7.5s7.5-3.357 7.5-7.5v-12.228c23.948 1.665 45.752 11.232 62.815 26.111l-8.557 8.574c-2.926 2.932-2.921 7.681.011 10.606 1.464 1.461 3.381 2.191 5.298 2.191 1.922 0 3.844-.734 5.309-2.202l8.535-8.552c14.824 17.082 24.34 38.887 25.96 62.823h-12.05c-4.143 0-7.5 3.357-7.5 7.5s3.357 7.5 7.5 7.5h12.021c-1.703 23.883-11.271 45.624-26.121 62.644z" fill="#375e7d"/><g><path d="m165.199 151.672h-25.196c-4.143 0-7.5-3.357-7.5-7.5s3.357-7.5 7.5-7.5h25.196c4.143 0 7.5 3.357 7.5 7.5s-3.357 7.5-7.5 7.5z" fill="#375e7d"/></g><g><path d="m122.119 133.787c-4.143 0-7.5-3.357-7.5-7.5v-40.037c0-4.143 3.357-7.5 7.5-7.5s7.5 3.357 7.5 7.5v40.037c0 4.143-3.357 7.5-7.5 7.5z" fill="#375e7d"/></g><g><path clip-rule="evenodd" d="m140.003 144.172c0-9.871-8.014-17.885-17.885-17.885-9.898 0-17.913 8.015-17.913 17.885 0 9.899 8.014 17.913 17.913 17.913 9.871 0 17.885-8.014 17.885-17.913z" fill="#ffe07d" fill-rule="evenodd"/></g><g><path clip-rule="evenodd" d="m327.201 449.343v20.388c0 11.08-8.914 20.135-19.937 20.416h45.893c10.995-.281 19.909-9.364 19.909-20.416v-20.388h-19.431z" fill="#ffc250" fill-rule="evenodd"/></g><g><path clip-rule="evenodd" d="m339.124 329.294v-60.545c0-7.48-.675-10.377-6.496-14.792l-29.105-22.019-29.076 22.019c-5.821 4.415-6.524 7.312-6.524 14.792v60.545c0 3.403 2.784 6.215 6.215 6.215h29.386 29.414c3.402-.001 6.186-2.813 6.186-6.215z" fill="#eff6ff" fill-rule="evenodd"/></g><g><path clip-rule="evenodd" d="m365.332 404.433h-251.171-39.116-34.071c-1.758 0-3.14 1.501-2.995 3.252 1.436 17.352 14.416 41.657 50.508 41.657h26.461 258.117 26.433c36.118 0 49.099-24.305 50.536-41.657.145-1.752-1.237-3.252-2.995-3.252z" fill="#faf0b0" fill-rule="evenodd"/></g><g><path clip-rule="evenodd" d="m404.307 404.433c0 15.579-9.842 39.341-39.65 44.066-3.403.534-7.086.844-11.023.844h19.431 26.433c36.118 0 49.099-24.305 50.536-41.657.145-1.752-1.237-3.252-2.995-3.252h-42.732z" fill="#ffe07d" fill-rule="evenodd"/></g></g></svg>