<svg id="Capa_1" enable-background="new 0 0 512 512" height="512" viewBox="0 0 512 512" width="512" xmlns="http://www.w3.org/2000/svg"><g><g><path clip-rule="evenodd" d="m186.881 197.844v-90.03c0-37.933 31.187-69.121 69.119-69.121s69.09 31.188 69.09 69.121v90.03h38.721v-90.03c0-59.309-48.532-107.814-107.811-107.814-59.308 0-107.811 48.505-107.811 107.814v90.03z" fill="#eff6ff" fill-rule="evenodd"/></g><g><path clip-rule="evenodd" d="m207.818 227.397v-22.135c0-9.841-8.06-17.872-17.871-17.872h-3.066-38.692-3.066c-9.812 0-17.871 8.031-17.871 17.872v22.135l38.37 14.696z" fill="#ffe07d" fill-rule="evenodd"/></g><g><path clip-rule="evenodd" d="m384.719 205.261c0-9.841-8.03-17.872-17.871-17.872h-3.037-38.721-3.037c-9.841 0-17.871 8.031-17.871 17.872v22.135l40.269 14.696 40.269-14.696v-22.135z" fill="#ffe07d" fill-rule="evenodd"/></g><g><path clip-rule="evenodd" d="m435.004 273.185c0-25.172-20.616-45.789-45.817-45.789h-4.468-80.537-96.364-80.566-4.439c-25.201 0-45.817 20.617-45.817 45.789v11.097 41.146 7.563c0 98.44 80.537 179.009 179.004 179.009 98.438 0 179.004-80.569 179.004-179.009v-7.563-41.146z" fill="#375e7d" fill-rule="evenodd"/></g><g><path clip-rule="evenodd" d="m359.168 365.61c0-56.973-46.196-103.171-103.168-103.171-57.001 0-103.197 46.198-103.197 103.171 0 57.002 46.196 103.2 103.197 103.2 56.972 0 103.168-46.198 103.168-103.2z" fill="#eff6ff" fill-rule="evenodd"/></g><g><path clip-rule="evenodd" d="m321.06 227.397c8.527 8.323 13.841 19.945 13.841 32.736v11.097 27.917c15.155 17.959 24.266 41.146 24.266 66.464 0 57.002-46.196 103.2-103.168 103.2-.35 0-.672 0-.993 0-21.054 14.075-45.174 23.8-71.134 27.917 22.106 9.811 46.489 15.272 72.128 15.272 98.438 0 179.004-80.569 179.004-179.009v-7.563-41.146-11.097c0-25.172-20.616-45.789-45.817-45.789h-4.468-63.659z" fill="#2b4d66" fill-rule="evenodd"/></g><g><path clip-rule="evenodd" d="m256 265.009c39.071 14.689 66.871 52.388 66.871 96.6s-27.8 81.941-66.871 96.63c-9.228 3.475-19.098 5.636-29.376 6.337 9.023 2.657 18.543 4.118 28.384 4.234h.992c56.972 0 103.168-46.198 103.168-103.2 0-25.318-9.111-48.505-24.266-66.464-18.922-22.427-47.248-36.707-78.902-36.707-2.336 0-4.643.088-6.95.234 2.365.701 4.672 1.46 6.95 2.336z" fill="#d9eeff" fill-rule="evenodd"/></g><g><path clip-rule="evenodd" d="m234.508 2.161c57.614 1.927 104.161 49.673 104.161 107.756v77.473h25.142v-79.576c0-59.309-48.532-107.814-107.811-107.814-7.359 0-14.542.73-21.492 2.161z" fill="#d9eeff" fill-rule="evenodd"/></g><g><path clip-rule="evenodd" d="m207.818 205.261c0-9.841-8.06-17.872-17.871-17.872h-3.066-21.259c9.841 0 17.871 8.031 17.871 17.872v22.135h24.325z" fill="#ffc250" fill-rule="evenodd"/></g><g><path clip-rule="evenodd" d="m342.553 187.39c9.812 0 17.871 8.031 17.871 17.872v22.135h24.295v-22.135c0-9.841-8.03-17.872-17.871-17.872h-3.037z" fill="#ffc250" fill-rule="evenodd"/></g><g><path d="m256 476.157c-4.268 0-7.726-3.459-7.726-7.726v-17.609c0-4.268 3.459-7.726 7.726-7.726s7.726 3.459 7.726 7.726v17.609c0 4.267-3.458 7.726-7.726 7.726zm102.993-102.996h-17.638c-4.268 0-7.726-3.459-7.726-7.726s3.459-7.726 7.726-7.726h17.638c4.268 0 7.726 3.459 7.726 7.726s-3.458 7.726-7.726 7.726zm-188.377 0h-17.609c-4.268 0-7.726-3.459-7.726-7.726s3.459-7.726 7.726-7.726h17.609c4.268 0 7.726 3.459 7.726 7.726s-3.459 7.726-7.726 7.726zm85.384-85.386c-4.268 0-7.726-3.459-7.726-7.726v-17.61c0-4.268 3.459-7.726 7.726-7.726s7.726 3.459 7.726 7.726v17.61c0 4.267-3.458 7.726-7.726 7.726z" fill="#2b4d66"/></g><g><path d="m328.828 445.991c-1.977 0-3.955-.755-5.464-2.263l-12.469-12.469c-3.017-3.018-3.017-7.909 0-10.928 3.018-3.016 7.909-3.016 10.928 0l12.469 12.469c3.017 3.018 3.017 7.909 0 10.928-1.509 1.508-3.487 2.263-5.464 2.263zm-145.656 0c-1.975 0-3.949-.751-5.457-2.257-3.021-3.014-3.027-7.905-.013-10.927l12.44-12.469c3.014-3.023 7.906-3.028 10.927-.013 3.021 3.014 3.027 7.905.013 10.927l-12.44 12.469c-1.509 1.513-3.49 2.27-5.47 2.27zm133.187-133.19c-1.977 0-3.955-.755-5.463-2.263-3.018-3.017-3.018-7.909-.001-10.927l12.469-12.47c3.018-3.018 7.91-3.017 10.927-.001 3.018 3.017 3.018 7.909.001 10.927l-12.469 12.47c-1.509 1.509-3.487 2.264-5.464 2.264zm-120.747 0c-1.981 0-3.961-.757-5.47-2.27l-12.44-12.47c-3.014-3.021-3.008-7.913.013-10.927s7.913-3.007 10.927.013l12.44 12.47c3.014 3.021 3.008 7.913-.013 10.927-1.509 1.504-3.483 2.257-5.457 2.257z" fill="#2b4d66"/></g><path d="m281.464 357.708h-20.809l-19.687-47.255c-1.641-3.939-6.161-5.801-10.104-4.16-3.939 1.641-5.802 6.164-4.16 10.104l21.668 52.009c1.309 3.143 4.333 4.755 7.628 4.755h25.464c4.268 0 7.726-3.459 7.726-7.726s-3.459-7.727-7.726-7.727z" fill="#2b4d66"/><g><path d="m133.325 292.009h-56.329c-4.268 0-7.726-3.459-7.726-7.726s3.459-7.726 7.726-7.726h56.329c4.268 0 7.726 3.459 7.726 7.726s-3.458 7.726-7.726 7.726z" fill="#eff6ff"/></g><g><path d="m111.366 333.154h-34.37c-4.268 0-7.726-3.459-7.726-7.726 0-4.268 3.459-7.726 7.726-7.726h34.37c4.268 0 7.726 3.459 7.726 7.726.001 4.267-3.458 7.726-7.726 7.726z" fill="#eff6ff"/></g><g><path d="m435.004 292.009h-56.358c-4.268 0-7.726-3.459-7.726-7.726s3.459-7.726 7.726-7.726h56.358c4.268 0 7.726 3.459 7.726 7.726s-3.458 7.726-7.726 7.726z" fill="#eff6ff"/></g><g><path d="m435.004 333.154h-34.399c-4.268 0-7.726-3.459-7.726-7.726 0-4.268 3.459-7.726 7.726-7.726h34.399c4.268 0 7.726 3.459 7.726 7.726s-3.458 7.726-7.726 7.726z" fill="#eff6ff"/></g><g><path d="m256 476.536c-61.163 0-110.924-49.762-110.924-110.927 0-61.149 49.761-110.897 110.924-110.897 61.147 0 110.894 49.748 110.894 110.897 0 61.166-49.747 110.927-110.894 110.927zm0-206.371c-52.643 0-95.471 42.816-95.471 95.445 0 52.645 42.828 95.474 95.471 95.474 52.627 0 95.442-42.829 95.442-95.474 0-52.629-42.815-95.445-95.442-95.445z" fill="#ffe07d"/></g></g></svg>