<svg id="Capa_1" enable-background="new 0 0 512 512" height="512" viewBox="0 0 512 512" width="512" xmlns="http://www.w3.org/2000/svg"><g><g><path clip-rule="evenodd" d="m229.543 512c-45.756 0-91.482-17.475-126.372-52.365s-52.334-80.618-52.334-126.346c0-30.896 6.99-62.351 23.876-89.341 24.787-39.648 33.039-60.647 12.247-110.986-5.051-12.218-9.633-13.099 3.436-14.391 39.589-3.877 72.51 20.852 88.281 49.252-13.862-85.494 66.255-51.455 46.343-160.326-1.85-10.074 6.755-8.165 12.57-4.787 136.563 79.62 45.051 118.563 118.296 204.204 34.89 34.891 52.334 80.618 52.334 126.375 0 45.728-17.445 91.455-52.334 126.346s-80.616 52.365-126.343 52.365z" fill="#eb5468" fill-rule="evenodd"/></g><g><path clip-rule="evenodd" d="m357.883 333.524c0-70.897-57.474-128.372-128.34-128.372-70.895 0-128.369 57.475-128.369 128.372 0 70.868 57.474 128.343 128.369 128.343 70.866 0 128.34-57.475 128.34-128.343z" fill="#eff6ff" fill-rule="evenodd"/></g><g><path clip-rule="evenodd" d="m411.363 48.408c-12.599 18.326-41.732 58.503-41.732 81.382 0 29.722 22.731 49.546 45.433 49.546 35.418 0 61.204-42.027 36.035-68.606-14.156-14.949-33.48-32.776-32.511-59.414.234-6.226-4.053-7.519-7.225-2.908z" fill="#ffe07d" fill-rule="evenodd"/></g><g><path clip-rule="evenodd" d="m229.543 215.372c46.255 19.384 78.766 65.111 78.766 118.446 0 53.305-32.511 99.033-78.766 118.416-7.665 3.231-15.712 5.698-24.053 7.401 7.783 1.468 15.83 2.232 24.053 2.232 18.355 0 35.829-3.847 51.63-10.808 45.168-19.883 76.71-65.023 76.71-117.535 0-47.49-25.785-88.959-64.111-111.162-18.884-10.925-40.822-17.21-64.229-17.21-8.752 0-17.298.881-25.55 2.555 8.869 1.674 17.415 4.258 25.55 7.665z" fill="#d9eeff" fill-rule="evenodd"/></g><g><path clip-rule="evenodd" d="m355.886 206.914c-73.245-85.641 18.267-124.584-118.296-204.204-5.815-3.377-14.42-5.286-12.57 4.787 4.17 22.82 3.965 39.355 1.145 52.042 34.743 48.342-2.584 86.287 52.188 150.311 2.761 2.79 5.433 5.61 7.988 8.517 2.526 1.263 4.993 2.584 7.43 3.994 38.326 22.203 64.111 63.672 64.111 111.162 0 47.284-25.55 88.577-63.612 110.868-4.846 6.314-10.132 12.394-15.918 18.179-23.26 23.26-51.306 38.767-80.968 46.521 10.631 1.938 21.38 2.908 32.158 2.908 45.726 0 91.453-17.475 126.343-52.365s52.334-80.618 52.334-126.346c.001-45.756-17.443-91.484-52.333-126.374z" fill="#e5384f" fill-rule="evenodd"/></g><g fill="#2b4d66"><path d="m203.93 253.195c-1.641-3.94-6.164-5.807-10.104-4.161-3.939 1.641-5.802 6.164-4.161 10.103l24.053 57.739c1.236 2.968 4.109 4.758 7.135 4.758.99 0 1.997-.191 2.968-.597 3.939-1.641 5.802-6.164 4.161-10.103z"/><path d="m282.436 325.562h-31.718c-4.267 0-7.726 3.459-7.726 7.726s3.459 7.726 7.726 7.726h31.718c4.267 0 7.726-3.459 7.726-7.726s-3.459-7.726-7.726-7.726z"/><path d="m229.543 197.425c-75.043 0-136.095 61.054-136.095 136.1 0 75.029 61.052 136.069 136.095 136.069 75.027 0 136.066-61.04 136.066-136.069.001-75.046-61.039-136.1-136.066-136.1zm106.196 143.59h14.178c-1.693 27.485-12.627 52.507-29.733 71.991l-10.083-10.083c-3.017-3.017-7.909-3.018-10.927-.001-3.017 3.017-3.018 7.909 0 10.927l10.098 10.099c-19.463 17.183-44.494 28.192-72.003 29.94v-14.398c0-4.268-3.459-7.726-7.726-7.726s-7.726 3.459-7.726 7.726v14.399c-27.519-1.748-52.558-12.759-72.028-29.945l10.093-10.094c3.018-3.017 3.018-7.908 0-10.927-3.017-3.016-7.909-3.017-10.927.001l-10.08 10.08c-17.107-19.483-28.043-44.504-29.736-71.987h14.178c4.267 0 7.726-3.459 7.726-7.726s-3.459-7.726-7.726-7.726h-14.147c1.796-27.426 12.794-52.377 29.932-71.791l9.854 9.854c1.509 1.509 3.486 2.264 5.463 2.264s3.955-.755 5.463-2.263c3.018-3.018 3.018-7.909 0-10.927l-9.841-9.841c19.433-17.062 44.375-27.987 71.775-29.727v13.929c0 4.268 3.459 7.726 7.726 7.726s7.726-3.459 7.726-7.726v-13.929c27.39 1.741 52.323 12.663 71.75 29.723l-9.845 9.846c-3.017 3.017-3.017 7.909 0 10.927 1.509 1.508 3.486 2.263 5.463 2.263s3.955-.755 5.464-2.264l9.857-9.858c17.137 19.414 28.133 44.367 29.928 71.795h-14.148c-4.267 0-7.726 3.459-7.726 7.726s3.461 7.723 7.728 7.723z"/></g><g><path clip-rule="evenodd" d="m390.805 79.07c4.787 18.884 19.559 32.805 30.984 44.876 16.211 17.152 11.248 40.735-3.847 55.302 33.92-2.173 57.621-42.673 33.157-68.518-14.156-14.949-33.48-32.776-32.511-59.414.235-6.226-4.053-7.519-7.225-2.908-5.14 7.49-13.01 18.591-20.558 30.662z" fill="#ffc250" fill-rule="evenodd"/></g><g><path clip-rule="evenodd" d="m229.543 354.464c11.689 0 21.175-9.486 21.175-21.175 0-11.718-9.486-21.204-21.175-21.204-11.718 0-21.204 9.486-21.204 21.204.001 11.689 9.487 21.175 21.204 21.175z" fill="#ffe07d" fill-rule="evenodd"/></g></g></svg>