<svg id="Capa_1" enable-background="new 0 0 512 512" height="512" viewBox="0 0 512 512" width="512" xmlns="http://www.w3.org/2000/svg"><g><g><path clip-rule="evenodd" d="m502.393 173.765v297.198c0 14.923-12.206 27.129-27.129 27.129h-410.727c-14.922 0-27.129-12.207-27.129-27.129v-297.198l221.965-17.726z" fill="#eff6ff" fill-rule="evenodd"/></g><g><path clip-rule="evenodd" d="m236.04 306.083v59.691c0 5.286-4.322 9.608-9.607 9.608h-96.338v42.607c0 9.52-8.352 12.382-15.389 7.155l-77.298-57.267-32.998-24.444c-2.891-2.161-4.38-4.76-4.41-7.388v-.263c.029-2.599 1.519-5.227 4.41-7.359l32.998-24.472 77.298-57.267c7.038-5.227 15.389-2.336 15.389 7.155v42.607h96.338c5.285 0 9.607 4.351 9.607 9.637z" fill="#375e7d" fill-rule="evenodd"/></g><g><path clip-rule="evenodd" d="m278.851 365.774v-59.691c0-5.286 4.322-9.637 9.637-9.637h34.867c5.286 0 9.607 4.351 9.607 9.637v59.691c0 5.286-4.322 9.608-9.607 9.608h-34.867c-5.315-.001-9.637-4.323-9.637-9.608z" fill="#375e7d" fill-rule="evenodd"/></g><g><path clip-rule="evenodd" d="m375.772 365.774v-59.691c0-5.286 4.351-9.637 9.637-9.637h34.867c5.286 0 9.637 4.351 9.637 9.637v59.691c0 5.286-4.322 9.608-9.637 9.608h-34.867c-5.286-.001-9.637-4.323-9.637-9.608z" fill="#375e7d" fill-rule="evenodd"/></g><g><path clip-rule="evenodd" d="m502.393 173.765h-464.985c-5.286 0-9.578-4.322-9.578-9.608v-25.874l242.085-20.062 242.085 20.062v25.874c0 5.286-4.322 9.608-9.607 9.608z" fill="#9fd4fe" fill-rule="evenodd"/></g><g><path clip-rule="evenodd" d="m512 138.283h-484.17v-65.998c0-5.257 4.293-9.579 9.578-9.579h464.985c5.286 0 9.607 4.322 9.607 9.579z" fill="#eb5468" fill-rule="evenodd"/></g><g><path clip-rule="evenodd" d="m462.21 35.927v26.779 20.15c0 12.09-9.9 22.019-22.018 22.019s-22.018-9.929-22.018-22.019v-20.15-26.779c0-12.119 9.9-22.019 22.018-22.019s22.018 9.9 22.018 22.019z" fill="#ffe07d" fill-rule="evenodd"/></g><g><path clip-rule="evenodd" d="m348.673 35.927v26.779 20.15c0 12.09-9.9 22.019-22.018 22.019-12.09 0-21.989-9.929-21.989-22.019v-20.15-26.779c0-12.119 9.9-22.019 21.989-22.019 12.118 0 22.018 9.9 22.018 22.019z" fill="#ffe07d" fill-rule="evenodd"/></g><g><path clip-rule="evenodd" d="m235.164 35.927v26.779 20.15c0 12.09-9.929 22.019-22.018 22.019-12.119 0-22.018-9.929-22.018-22.019v-20.15-26.779c0-12.119 9.9-22.019 22.018-22.019 12.09 0 22.018 9.9 22.018 22.019z" fill="#ffe07d" fill-rule="evenodd"/></g><g><path clip-rule="evenodd" d="m121.627 35.927v26.779 20.15c0 12.09-9.899 22.019-22.018 22.019s-22.019-9.929-22.019-22.019v-20.15-26.779c0-12.119 9.9-22.019 22.018-22.019s22.019 9.9 22.019 22.019z" fill="#ffe07d" fill-rule="evenodd"/></g><g><path clip-rule="evenodd" d="m502.393 173.765h-162.48c26.282 33.788 45.468 75.869 54.608 122.681h25.756c5.286 0 9.637 4.351 9.637 9.637v59.691c0 5.286-4.322 9.608-9.637 9.608h-20.149c-2.19 44.71-13.316 86.499-31.217 122.71h106.354c14.922 0 27.129-12.207 27.129-27.129v-297.198z" fill="#d9eeff" fill-rule="evenodd"/></g><g><path clip-rule="evenodd" d="m420.276 296.446h-25.756c3.942 20.121 6.016 41.088 6.016 62.669 0 5.461-.146 10.893-.409 16.266h20.149c5.315 0 9.637-4.322 9.637-9.608v-59.691c0-5.285-4.351-9.636-9.637-9.636z" fill="#2b4d66" fill-rule="evenodd"/></g><g><path clip-rule="evenodd" d="m398.404 138.283h113.596v-65.998c0-5.257-4.322-9.579-9.607-9.579h-40.183v20.15c0 12.09-9.9 22.019-22.018 22.019s-22.018-9.929-22.018-22.019v-20.15h-53.907c11.36 19.858 21.639 41.935 30.604 65.882 1.197 3.212 2.365 6.425 3.533 9.695z" fill="#e5384f" fill-rule="evenodd"/></g><g><path clip-rule="evenodd" d="m512 138.283h-113.596c3.271 9.287 6.337 18.807 9.199 28.56.701 2.278 1.343 4.585 2.015 6.921h92.775c5.286 0 9.607-4.322 9.607-9.608z" fill="#85beef" fill-rule="evenodd"/></g><g><path clip-rule="evenodd" d="m100.28 35.927v26.779 20.15c0 8.235-4.585 15.478-11.33 19.245 3.154 1.752 6.804 2.774 10.659 2.774 12.119 0 22.018-9.929 22.018-22.019v-20.15-26.779c0-5.957-2.395-11.36-6.249-15.332-4.001-4.118-9.607-6.687-15.769-6.687-3.855 0-7.505.993-10.659 2.774 1.869 1.051 3.592 2.365 5.11 3.913 3.855 3.972 6.22 9.375 6.22 15.332z" fill="#ffc250" fill-rule="evenodd"/></g><g><path clip-rule="evenodd" d="m213.818 35.927v26.779 20.15c0 8.235-4.585 15.478-11.36 19.245 3.183 1.752 6.804 2.774 10.688 2.774 12.09 0 22.018-9.929 22.018-22.019v-20.15-26.779c0-5.957-2.395-11.36-6.249-15.332-4.001-4.118-9.607-6.687-15.769-6.687-3.884 0-7.505.993-10.659 2.774 1.869 1.051 3.592 2.365 5.081 3.913 3.855 3.972 6.25 9.375 6.25 15.332z" fill="#ffc250" fill-rule="evenodd"/></g><g><path clip-rule="evenodd" d="m327.355 35.927v26.779 20.15c0 8.235-4.614 15.478-11.36 19.245 3.183 1.752 6.804 2.774 10.659 2.774 12.119 0 22.018-9.929 22.018-22.019v-20.15-26.779c0-5.957-2.365-11.36-6.249-15.332-4.001-4.118-9.578-6.687-15.769-6.687-3.855 0-7.476.993-10.659 2.774 1.898 1.051 3.621 2.365 5.11 3.913 3.856 3.972 6.25 9.375 6.25 15.332z" fill="#ffc250" fill-rule="evenodd"/></g><g><path clip-rule="evenodd" d="m434.644 20.596c3.855 3.972 6.22 9.374 6.22 15.332v26.779 20.15c0 8.235-4.585 15.478-11.33 19.245 3.154 1.752 6.804 2.774 10.659 2.774 12.119 0 22.018-9.929 22.018-22.019v-20.15-26.78c0-5.957-2.395-11.36-6.249-15.332-4.001-4.118-9.607-6.687-15.769-6.687-3.855 0-7.505.993-10.659 2.774 1.868 1.052 3.591 2.366 5.11 3.914z" fill="#ffc250" fill-rule="evenodd"/></g></g></svg>