<svg id="Capa_1" enable-background="new 0 0 512 512" height="512" viewBox="0 0 512 512" width="512" xmlns="http://www.w3.org/2000/svg"><g><g><path clip-rule="evenodd" d="m31.255 412.909h349.751c12.7 0 23.07-10.399 23.07-23.1v-253.079l-186.41-12.548-209.51 12.548v253.079c0 12.7 10.399 23.1 23.099 23.1z" fill="#eff6ff" fill-rule="evenodd"/></g><g><path clip-rule="evenodd" d="m8.156 136.73h395.921c4.428 0 8.069-3.554 8.185-7.982v-.175-22.022l-196.595-16.218-215.667 16.218v22.022.146c.087 4.428 3.729 8.011 8.156 8.011z" fill="#9fd4fe" fill-rule="evenodd"/></g><g><path clip-rule="evenodd" d="m0 106.551h412.262v-56.191-.204c-.117-4.399-3.758-7.982-8.185-7.982h-395.921c-4.428 0-8.069 3.612-8.156 8.011v.175z" fill="#eb5468" fill-rule="evenodd"/></g><g><path clip-rule="evenodd" d="m252.956 136.73c68.686 74.805 70.958 198.111 6.292 276.179h121.759c12.7 0 23.07-10.399 23.07-23.1v-253.079z" fill="#d9eeff" fill-rule="evenodd"/></g><g><path clip-rule="evenodd" d="m295.542 42.175c10.894 19.313 20.39 40.927 28.168 64.377h88.552v-56.192-.204c-.117-4.399-3.758-7.982-8.185-7.982h-34.197v17.157c0 10.312-8.447 18.76-18.759 18.76s-18.73-8.448-18.73-18.76v-17.156z" fill="#e5384f" fill-rule="evenodd"/></g><g><path clip-rule="evenodd" d="m323.71 106.551c3.262 9.758 6.204 19.837 8.855 30.178h71.512c4.428 0 8.069-3.554 8.185-7.982v-.175-22.022h-88.552z" fill="#85beef" fill-rule="evenodd"/></g><g><path clip-rule="evenodd" d="m64.025 255.259h53.306c7.515 0 13.691-6.146 13.691-13.662v-53.307c0-7.545-6.175-13.691-13.691-13.691h-53.306c-7.515 0-13.691 6.146-13.691 13.691v53.307c.001 7.515 6.176 13.662 13.691 13.662z" fill="#95d6a4" fill-rule="evenodd"/></g><g><path clip-rule="evenodd" d="m64.025 371.428h53.306c7.515 0 13.691-6.146 13.691-13.662v-53.337c0-7.515-6.175-13.662-13.691-13.662h-53.306c-7.515 0-13.691 6.146-13.691 13.662v53.337c.001 7.515 6.176 13.662 13.691 13.662z" fill="#95d6a4" fill-rule="evenodd"/></g><g><path clip-rule="evenodd" d="m42.383 59.332c0 10.312 8.418 18.76 18.73 18.76s18.759-8.448 18.759-18.76v-17.157-22.809c0-10.312-8.447-18.73-18.759-18.73s-18.73 8.419-18.73 18.73v22.809z" fill="#ffe07d" fill-rule="evenodd"/></g><g><path clip-rule="evenodd" d="m139.032 59.332c0 10.312 8.447 18.76 18.759 18.76s18.73-8.448 18.73-18.76v-17.157-22.809c0-10.312-8.418-18.73-18.73-18.73s-18.759 8.419-18.759 18.73v22.809z" fill="#ffe07d" fill-rule="evenodd"/></g><g><path clip-rule="evenodd" d="m235.711 59.332c0 10.312 8.447 18.76 18.759 18.76 10.283 0 18.73-8.448 18.73-18.76v-17.157-22.809c0-10.312-8.447-18.73-18.73-18.73-10.312 0-18.759 8.419-18.759 18.73v22.809z" fill="#ffe07d" fill-rule="evenodd"/></g><g><path clip-rule="evenodd" d="m332.39 19.366v22.809 17.157c0 10.312 8.418 18.76 18.73 18.76s18.759-8.448 18.759-18.76v-17.157-22.809c0-10.312-8.447-18.73-18.759-18.73s-18.73 8.418-18.73 18.73z" fill="#ffe07d" fill-rule="evenodd"/></g><g><path clip-rule="evenodd" d="m88.028 174.598c8.564 13.895 13.632 30.994 13.632 49.491 0 11.011-1.806 21.527-5.068 31.169h20.74c7.515 0 13.691-6.146 13.691-13.662v-53.307c0-7.545-6.175-13.691-13.691-13.691z" fill="#78c2a4" fill-rule="evenodd"/></g><g><path clip-rule="evenodd" d="m88.028 290.768c8.564 13.866 13.632 30.965 13.632 49.462 0 11.011-1.806 21.556-5.068 31.198h20.74c7.515 0 13.691-6.146 13.691-13.662v-53.337c0-7.515-6.175-13.662-13.691-13.662h-29.304z" fill="#78c2a4" fill-rule="evenodd"/></g><g><path clip-rule="evenodd" d="m158.141 19.366v39.966c0 6.991-3.874 13.079-9.554 16.313 2.738 1.544 5.855 2.447 9.205 2.447 10.312 0 18.73-8.448 18.73-18.76v-17.157-22.809c0-10.312-8.418-18.73-18.73-18.73-3.35 0-6.496.874-9.205 2.418 5.68 3.233 9.554 9.35 9.554 16.312z" fill="#ffc250" fill-rule="evenodd"/></g><g><path clip-rule="evenodd" d="m61.462 19.366v39.966c0 6.991-3.845 13.079-9.554 16.313 2.738 1.544 5.884 2.447 9.205 2.447 10.312 0 18.759-8.448 18.759-18.76v-17.157-22.809c0-10.312-8.447-18.73-18.759-18.73-3.321 0-6.467.874-9.205 2.418 5.709 3.233 9.554 9.35 9.554 16.312z" fill="#ffc250" fill-rule="evenodd"/></g><g><path clip-rule="evenodd" d="m254.791 19.366v39.966c0 6.991-3.845 13.079-9.525 16.313 2.709 1.544 5.855 2.447 9.205 2.447 10.283 0 18.73-8.448 18.73-18.76v-17.157-22.809c0-10.312-8.447-18.73-18.73-18.73-3.35 0-6.496.874-9.205 2.418 5.68 3.233 9.525 9.35 9.525 16.312z" fill="#ffc250" fill-rule="evenodd"/></g><g><path clip-rule="evenodd" d="m351.47 19.366v39.966c0 6.991-3.874 13.079-9.554 16.313 2.738 1.544 5.884 2.447 9.205 2.447 10.312 0 18.759-8.448 18.759-18.76v-17.157-22.809c0-10.312-8.447-18.73-18.759-18.73-3.321 0-6.467.874-9.205 2.418 5.68 3.233 9.554 9.35 9.554 16.312z" fill="#ffc250" fill-rule="evenodd"/></g><g><path clip-rule="evenodd" d="m178.997 255.259h53.335c7.515 0 13.661-6.146 13.661-13.662v-53.307c0-7.545-6.146-13.691-13.661-13.691h-53.335c-7.515 0-13.661 6.146-13.661 13.691v53.307c0 7.515 6.146 13.662 13.661 13.662z" fill="#95d6a4" fill-rule="evenodd"/></g><g><path clip-rule="evenodd" d="m178.997 371.428h53.335c7.515 0 13.661-6.146 13.661-13.662v-53.337c0-7.515-6.146-13.662-13.661-13.662h-53.335c-7.515 0-13.661 6.146-13.661 13.662v53.337c0 7.515 6.146 13.662 13.661 13.662z" fill="#95d6a4" fill-rule="evenodd"/></g><g><path clip-rule="evenodd" d="m203.029 174.598c8.564 13.895 13.603 30.994 13.603 49.491 0 11.011-1.806 21.527-5.068 31.169h20.769c7.515 0 13.661-6.146 13.661-13.662v-53.307c0-7.545-6.146-13.691-13.661-13.691z" fill="#78c2a4" fill-rule="evenodd"/></g><g><path clip-rule="evenodd" d="m203.029 290.768c8.564 13.866 13.603 30.965 13.603 49.462 0 11.011-1.806 21.556-5.068 31.198h20.769c7.515 0 13.661-6.146 13.661-13.662v-53.337c0-7.515-6.146-13.662-13.661-13.662h-29.304z" fill="#78c2a4" fill-rule="evenodd"/></g><g><path clip-rule="evenodd" d="m293.969 255.259h53.335c7.515 0 13.661-6.146 13.661-13.662v-53.307c0-7.545-6.146-13.691-13.661-13.691h-53.335c-7.515 0-13.661 6.146-13.661 13.691v53.307c0 7.515 6.146 13.662 13.661 13.662z" fill="#95d6a4" fill-rule="evenodd"/></g><g><path clip-rule="evenodd" d="m318.001 174.598c8.564 13.895 13.603 30.994 13.603 49.491 0 11.011-1.777 21.527-5.039 31.169h20.74c7.515 0 13.661-6.146 13.661-13.662v-53.307c0-7.545-6.146-13.691-13.661-13.691z" fill="#78c2a4" fill-rule="evenodd"/></g><g><path clip-rule="evenodd" d="m238.741 347.745c-1.369-54.968 42.062-100.643 97.028-102.041 54.966-1.369 100.64 42.092 102.039 97.06 1.369 54.968-42.062 100.643-97.029 102.012-54.966 1.37-100.64-42.063-102.038-97.031z" fill="#375e7d" fill-rule="evenodd"/></g><g><path d="m436.38 445.949c-1.912 0-3.828-.705-5.323-2.128l-26.682-25.372c-3.092-2.94-3.215-7.831-.275-10.923 2.941-3.094 7.831-3.216 10.924-.275l26.682 25.372c3.092 2.94 3.215 7.831.275 10.923-1.52 1.598-3.559 2.403-5.601 2.403z" fill="#d9eeff"/></g><g><path clip-rule="evenodd" d="m290.357 299.652c25.167-26.45 67.026-27.498 93.504-2.33 26.449 25.168 27.498 67.027 2.33 93.506-25.167 26.479-67.026 27.528-93.504 2.33-26.449-25.167-27.497-67.027-2.33-93.506z" fill="#9fd4fe" fill-rule="evenodd"/></g><g><path clip-rule="evenodd" d="m333.555 245.791c3.437 2.884 6.729 6.059 9.846 9.467 7.428 8.156 13.865 17.74 19.109 28.431 7.719 3.029 14.972 7.574 21.352 13.633 11.943 11.361 18.701 26.129 20.215 41.364.437 4.369.437 8.768 0 13.138-1.398 14.128-7.34 27.906-17.885 39.005-5.243 5.535-11.244 9.962-17.681 13.254-1.078 3-2.243 5.942-3.495 8.826-5.214 11.914-11.914 22.605-19.72 31.664 25.721-1.806 48.674-13.341 65.278-30.878 17.477-18.468 27.906-43.549 27.236-70.931-.728-28.868-13.661-54.531-33.731-72.213-12.525-11.04-27.818-18.963-44.655-22.634-7.603-1.631-15.526-2.418-23.653-2.214-.73.03-1.487.059-2.216.088z" fill="#2b4d66" fill-rule="evenodd"/></g><g><path clip-rule="evenodd" d="m362.51 283.689c9.525 19.43 15.06 42.5 15.06 67.29 0 18.993-3.262 36.995-9.059 53.104 6.438-3.292 12.438-7.719 17.681-13.254 10.545-11.098 16.487-24.877 17.885-39.005.437-4.369.437-8.768 0-13.138-1.515-15.235-8.273-30.004-20.215-41.364-6.38-6.059-13.633-10.603-21.352-13.633z" fill="#85beef" fill-rule="evenodd"/></g><g><path clip-rule="evenodd" d="m471.656 437.319c-9.962-9.438-25.837-9.059-35.275.903-9.467 9.933-9.059 25.809.874 35.276l32.624 31.023c9.933 9.467 25.808 9.059 35.275-.903 9.467-9.933 9.059-25.809-.874-35.276z" fill="#c38c66" fill-rule="evenodd"/></g><g><path clip-rule="evenodd" d="m471.656 437.319c-9.962-9.438-25.837-9.059-35.275.903-2.097 2.185-3.699 4.632-4.806 7.253 8.185-2.272 17.361-.32 23.944 5.942l32.595 31.023c7.777 7.37 9.729 18.672 5.709 27.994 4.195-1.165 8.127-3.437 11.331-6.816 9.467-9.933 9.059-25.809-.874-35.276z" fill="#b57f5f" fill-rule="evenodd"/></g></g></svg>