<svg id="Capa_1" enable-background="new 0 0 512 512" height="512" viewBox="0 0 512 512" width="512" xmlns="http://www.w3.org/2000/svg"><g><g><path clip-rule="evenodd" d="m449.006 455.085c14.017 0 25.493-11.447 25.493-25.464v-289.626h-437.027v239.194 50.432c0 14.017 11.476 25.464 25.493 25.464z" fill="#eff6ff" fill-rule="evenodd"/></g><g><path clip-rule="evenodd" d="m37.472 150.274h437.026.088c4.935 0 8.994-4.059 8.994-8.994l.029-24.325-227.624-18.865-227.594 18.864v24.325c0 4.935 4.059 8.994 9.023 8.994h.058z" fill="#9fd4fe" fill-rule="evenodd"/></g><g><path clip-rule="evenodd" d="m28.391 116.954h455.19v-.292-61.762c0-4.964-4.059-9.023-8.994-9.023-150.912 0-286.289 0-437.172 0-4.964 0-9.023 4.059-9.023 9.023v62.054z" fill="#eb5468" fill-rule="evenodd"/></g><g><path clip-rule="evenodd" d="m116.578 45.876v-25.201c0-11.36-9.315-20.675-20.703-20.675s-20.704 9.315-20.704 20.675v25.201 18.952c0 11.389 9.315 20.675 20.704 20.675s20.704-9.286 20.704-20.675v-18.952z" fill="#ffe07d" fill-rule="evenodd"/></g><g><path clip-rule="evenodd" d="m181.931 20.675v25.201 18.952c0 11.389 9.315 20.675 20.674 20.675 11.389 0 20.704-9.286 20.704-20.675v-18.952-25.201c0-11.36-9.315-20.675-20.704-20.675-11.359 0-20.674 9.315-20.674 20.675z" fill="#ffe07d" fill-rule="evenodd"/></g><g><path clip-rule="evenodd" d="m288.662 20.675v25.201 18.952c0 11.389 9.315 20.675 20.704 20.675 11.388 0 20.674-9.286 20.674-20.675v-18.952-25.201c0-11.36-9.286-20.675-20.675-20.675-11.388 0-20.703 9.315-20.703 20.675z" fill="#ffe07d" fill-rule="evenodd"/></g><g><path clip-rule="evenodd" d="m395.392 20.675v25.201 18.952c0 11.389 9.315 20.675 20.704 20.675s20.704-9.286 20.704-20.674v-18.953-25.201c0-11.36-9.315-20.675-20.704-20.675s-20.704 9.315-20.704 20.675z" fill="#ffe07d" fill-rule="evenodd"/></g><g><path clip-rule="evenodd" d="m436.8 64.829c0 11.389-9.315 20.675-20.704 20.675s-20.704-9.286-20.704-20.675v-18.953h-43.013c9.987 18.66 15.506 39.248 15.506 60.886 0 3.417-.117 6.804-.409 10.192h116.104v-.292-61.762c0-4.964-4.059-9.023-8.994-9.023h-37.786z" fill="#e5384f" fill-rule="evenodd"/></g><g><path clip-rule="evenodd" d="m483.58 116.954h-116.104c-.613 7.855-1.986 15.535-4.03 23.04-.964 3.475-2.044 6.921-3.3 10.279h114.352.088c4.935 0 8.994-4.059 8.994-8.994z" fill="#85beef" fill-rule="evenodd"/></g><g><path clip-rule="evenodd" d="m226.609 231.397c7.914 14.301 16.993 16.353 27.331 16.353s26.27-2.567 31.451-16.353v-13.579c0-16.178-13.228-29.436-29.406-29.436s-29.435 13.258-29.406 29.436z" fill="#faf0b0" fill-rule="evenodd"/></g><g><path clip-rule="evenodd" d="m474.499 150.274h-114.353-50.431c8.614 34.546 13.783 72.158 14.747 111.61 9.461 13.55 15.039 29.961 15.039 47.629v38.079c0 28.18 13.929 55.28 44.59 83.81v23.683h64.914c14.017 0 25.493-11.447 25.493-25.464v-279.347z" fill="#d9eeff" fill-rule="evenodd"/></g><g><path clip-rule="evenodd" d="m339.501 347.592v-38.079c0-35.568-22.573-66.143-54.11-78.116-9.14-3.475-19.068-5.373-29.406-5.373-10.337 0-20.236 1.898-29.376 5.373-31.537 11.944-54.11 42.518-54.11 78.116v38.079c0 28.18-13.958 55.28-44.62 83.81l132.223 16.266 123.989-16.266c-30.661-28.53-44.59-55.63-44.59-83.81z" fill="#ffe07d" fill-rule="evenodd"/></g><g><path clip-rule="evenodd" d="m286.063 472.198-30.077-17.112-30.077 17.112v9.724c0 16.528 13.549 30.078 30.077 30.078s30.077-13.55 30.077-30.078z" fill="#ffe07d" fill-rule="evenodd"/></g><g><path clip-rule="evenodd" d="m300.196 308.958v38.05c0 28.18 13.929 55.28 44.59 83.81v.584h39.305c-30.661-28.53-44.59-55.63-44.59-83.81v-38.079c0-35.568-22.573-66.143-54.11-78.116-9.14-3.475-19.068-5.373-29.406-5.373-6.337 0-12.527.701-18.455 2.073 2.92.759 5.782 1.665 8.585 2.716 31.509 11.973 54.081 42.548 54.081 78.145z" fill="#ffc250" fill-rule="evenodd"/></g><g><path clip-rule="evenodd" d="m286.063 481.922v-9.724h-22.339v9.724c0 12.586-7.855 23.449-18.922 27.917 3.475 1.372 7.242 2.161 11.184 2.161 16.527 0 30.077-13.55 30.077-30.078z" fill="#ffc250" fill-rule="evenodd"/></g><g><path clip-rule="evenodd" d="m240.421 197.143c16.148 0 29.406 13.229 29.406 29.406v.613c5.373.905 10.571 2.336 15.564 4.234v-13.579c0-16.178-13.228-29.436-29.406-29.436-8.439 0-16.09 3.621-21.463 9.374 1.899-.407 3.884-.612 5.899-.612z" fill="#ffe07d" fill-rule="evenodd"/></g><g><path clip-rule="evenodd" d="m116.578 20.675c0-11.36-9.315-20.675-20.703-20.675-3.738 0-7.242.993-10.308 2.745 6.22 3.592 10.396 10.308 10.396 17.93v25.201 18.952c0 7.622-4.176 14.338-10.396 17.93 3.066 1.752 6.57 2.745 10.308 2.745 11.389 0 20.704-9.286 20.704-20.675v-18.952-25.201z" fill="#ffc250" fill-rule="evenodd"/></g><g><path clip-rule="evenodd" d="m192.327 2.745c6.191 3.592 10.396 10.308 10.396 17.93v25.201 18.952c0 7.622-4.205 14.338-10.396 17.93 3.037 1.752 6.541 2.745 10.279 2.745 11.389 0 20.704-9.286 20.704-20.675v-18.952-25.201c-.001-11.36-9.316-20.675-20.705-20.675-3.737 0-7.241.993-10.278 2.745z" fill="#ffc250" fill-rule="evenodd"/></g><g><path clip-rule="evenodd" d="m299.057 2.745c6.191 3.592 10.396 10.308 10.396 17.93v25.201 18.952c0 7.622-4.205 14.338-10.396 17.93 3.037 1.752 6.541 2.745 10.308 2.745 11.388 0 20.674-9.286 20.674-20.675v-18.952-25.201c.001-11.36-9.285-20.675-20.674-20.675-3.767 0-7.271.993-10.308 2.745z" fill="#ffc250" fill-rule="evenodd"/></g><g><path clip-rule="evenodd" d="m405.788 2.745c6.191 3.592 10.396 10.308 10.396 17.93v25.201 18.952c0 7.622-4.205 14.338-10.396 17.93 3.037 1.752 6.57 2.745 10.308 2.745 11.388 0 20.704-9.286 20.704-20.675v-18.952-25.201c0-11.36-9.315-20.675-20.704-20.675-3.738 0-7.271.993-10.308 2.745z" fill="#ffc250" fill-rule="evenodd"/></g><g><path clip-rule="evenodd" d="m127.879 431.402v23.683 6.6c0 5.782 4.731 10.513 10.512 10.513h235.187c5.782 0 10.513-4.731 10.513-10.513v-6.6-23.683z" fill="#faf0b0" fill-rule="evenodd"/></g><g><path clip-rule="evenodd" d="m344.786 436.571v18.514 6.6c0 5.782-4.731 10.513-10.512 10.513h39.305c5.782 0 10.513-4.731 10.513-10.513v-6.6-23.683h-39.305v5.169z" fill="#ffe07d" fill-rule="evenodd"/></g><g><path d="m410.724 311.196c-.82 0-1.653-.131-2.472-.407-4.043-1.365-6.214-5.749-4.85-9.792 14.146-41.906-8.424-87.503-50.312-101.643-4.043-1.365-6.214-5.749-4.85-9.792 1.365-4.043 5.753-6.216 9.792-4.85 49.962 16.865 76.882 71.247 60.012 121.226-1.088 3.224-4.096 5.258-7.32 5.258zm-30.662-10.337c-.821 0-1.655-.132-2.475-.408-4.042-1.367-6.212-5.752-4.846-9.794 4.1-12.127 3.236-25.109-2.43-36.555s-15.462-19.999-27.585-24.085c-4.043-1.363-6.216-5.745-4.854-9.79 1.364-4.044 5.747-6.214 9.79-4.854 16.037 5.405 29 16.725 36.498 31.873 7.497 15.147 8.641 32.321 3.22 48.358-1.088 3.223-4.095 5.255-7.318 5.255z" fill="#375e7d"/></g><g><path d="m101.247 311.196c-3.224 0-6.231-2.033-7.319-5.258-8.175-24.216-6.436-50.16 4.897-73.049 11.336-22.895 30.919-40.005 55.144-48.177 4.045-1.366 8.428.809 9.791 4.851 1.364 4.043-.808 8.427-4.851 9.791-20.312 6.852-36.732 21.197-46.235 40.392-9.502 19.19-10.959 40.944-4.104 61.251 1.365 4.042-.806 8.427-4.849 9.792-.821.276-1.655.407-2.474.407zm30.661-10.337c-3.223 0-6.229-2.032-7.318-5.255-5.421-16.037-4.277-33.211 3.22-48.358 7.498-15.149 20.46-26.468 36.498-31.873 4.042-1.364 8.427.81 9.79 4.854s-.811 8.427-4.854 9.79c-12.123 4.086-21.919 12.639-27.585 24.085-5.666 11.447-6.529 24.43-2.431 36.555 1.367 4.042-.803 8.428-4.846 9.794-.819.276-1.654.408-2.474.408z" fill="#375e7d"/></g></g></svg>