<svg height="512pt" viewBox="0 -20 512 512" width="512pt" xmlns="http://www.w3.org/2000/svg"><g fill-rule="evenodd"><path d="m279.34375 272.457031c.339844-79.601562-23.160156-191.566406-119.851562-153.074219l-37.019532 19.632813c-71.347656 47.0625-21.910156 117.101563 53.378906 170.316406 2.605469.085938 13.6875 6.574219 16.148438 7.417969 46 15.75 89-2.25 87.34375-44.292969zm0 0" fill="#e6e6e6"/><path d="m103.59375 154.871094c-41.554688 46.011718 5.015625 106.945312 72.257812 154.460937 2.605469.085938 5.214844.285157 7.792969.625 3.515625-4.90625 7.511719-9.445312 11.878907-13.585937-57.628907-42.042969-102.730469-96.195313-91.929688-141.5zm0 0" fill="#b3adad"/><path d="m168.820312 136.574219-9.328124-17.191407-12.328126-22.691406h-28.09375l-8.050781 21.246094 11.453125 21.078125 9.554688 17.558594c2.324218 4.339843 7.765625 5.929687 12.101562 3.601562l21.117188-11.488281c4.3125-2.355469 5.925781-7.800781 3.574218-12.113281zm0 0" fill="#b3adad"/><path d="m147.21875 71.640625-29.3125-53.980469c-8.871094-16.339844-29.507812-22.46875-45.863281-13.5625-16.355469 8.878906-22.449219 29.5625-13.578125 45.902344l29.3125 53.953125c5.300781 9.789063 14.796875 15.886719 25.058594 17.332031 6.945312.996094 14.230468-.167968 20.835937-3.742187 7.285156-3.972657 12.527344-10.269531 15.304687-17.476563 3.488282-8.964844 3.175782-19.375-1.757812-28.425781zm0 0" fill="#f5df87"/><path d="m121.847656 121.371094c-3.003906.367187-6.035156.339844-9.011718-.085938l9.636718 17.730469 9.554688 17.558594c2.324218 4.339843 7.765625 5.929687 12.101562 3.601562l6.890625-3.769531c-4.308593 2.324219-9.722656.707031-12.078125-3.574219l-9.496094-17.53125-.054687-.058593zm0 0" fill="#757a85"/><path d="m77.0625 45.882812c-8.84375-16.28125-2.835938-36.847656 13.347656-45.8124995-6.179687-.3945315-12.554687.8515625-18.367187 4.0273435-16.355469 8.878906-22.449219 29.5625-13.578125 45.902344l29.3125 53.953125c5.300781 9.789063 14.796875 15.886719 25.058594 17.332031 2.976562.425782 6.007812.457032 9.011718.085938 4.027344-.511719 8.050782-1.785156 11.824219-3.828125.054687-.03125.140625-.085938.226563-.113281-.824219-.058594-1.644532-.144532-2.46875-.257813-6.292969-.90625-12.273438-3.515625-17.203126-7.6875-3.121093-2.636719-5.8125-5.871094-7.855468-9.644531zm0 0" fill="#d9a13f"/><path d="m21.445312 465.496094h469.082032c0-38.949219-30.386719-70.804688-68.742188-73.105469v-.140625c0-45.8125-37.105468-82.976562-82.886718-82.976562l-2.066407.03125c-11.707031-15.945313-28.261719-28.113282-47.539062-34.269532-9.070313-2.921875-18.765625-4.480468-28.828125-4.480468-10.234375 0-20.097656 1.617187-29.3125 4.652343-19.304688 6.265625-35.886719 18.605469-47.507813 34.75-3.457031-.457031-6.972656-.683593-10.546875-.683593-45.808594 0-82.914062 37.160156-82.914062 82.976562v.140625c-38.351563 2.300781-68.738282 34.15625-68.738282 73.105469zm0 0" fill="#a66d30"/><path d="m182.851562 465.496094h-161.40625c0-38.949219 30.386719-70.804688 68.742188-73.105469v-.140625c0-45.8125 37.105469-82.976562 82.914062-82.976562 3.570313 0 7.085938.230468 10.542969.683593 17.179688-23.859375 45.183594-39.402343 76.820313-39.402343 19.898437 0 38.351562 6.15625 53.605468 16.652343-76.933593 22.582031-132.351562 85.78125-132.351562 160.21875 0 6.097657.394531 12.140625 1.132812 18.070313zm0 0" fill="#6e3e0b"/><path d="m153.457031 395.710938c5.808594 19.746093 33.390625 20.652343 52.300781-9.417969 2.664063-4.792969 2.011719-8.253907-2.355468-11.007813-24.121094-13.613281-56.496094-2.183594-49.972656 20.3125zm0 0" fill="#f5df87"/><path d="m203.402344 375.289062c-24.121094-13.617187-56.496094-2.1875-49.972656 20.308594l.027343.113282c2.183594 7.375 7.398438 12.113281 14.058594 13.617187-1.359375-1.871094-2.4375-4.058594-3.175781-6.554687l-.027344-.113282c-5.867188-20.253906 19.816406-31.542968 42.605469-23.628906-.597657-1.390625-1.757813-2.636719-3.515625-3.742188zm0 0" fill="#d9a13f"/><path d="m243.710938 372.136719c12.898437 16.03125 38.75 6.328125 44.761718-28.679688.652344-5.445312-1.304687-8.367187-6.378906-9.273437-27.496094-3.347656-53.035156 19.574218-38.4375 37.871094zm0 0" fill="#f5df87"/><path d="m282.09375 334.183594c-27.496094-3.347656-53.039062 19.574218-38.4375 37.871094l.054688.082031c4.820312 5.988281 11.453124 8.398437 18.199218 7.207031-1.984375-1.191406-3.824218-2.808594-5.441406-4.824219l-.058594-.082031c-13.152344-16.484375 6.265625-36.738281 30.359375-38.128906-1.078125-1.046875-2.609375-1.757813-4.675781-2.125zm0 0" fill="#d9a13f"/><path d="m297.9375 426.859375c12.925781 16.027344 38.78125 6.296875 44.761719-28.707031.652343-5.417969-1.304688-8.367188-6.351563-9.25-27.496094-3.375-53.0625 19.574218-38.464844 37.871094zm0 0" fill="#f5df87"/><path d="m336.347656 388.902344c-27.496094-3.375-53.0625 19.574218-38.464844 37.871094l.054688.085937c4.847656 5.984375 11.480469 8.367187 18.199219 7.203125-1.984375-1.21875-3.796875-2.804688-5.414063-4.847656l-.082031-.085938c-13.15625-16.484375 6.292969-36.707031 30.355469-38.097656-1.046875-1.078125-2.605469-1.785156-4.648438-2.128906zm0 0" fill="#d9a13f"/></g><path d="m504.503906 473h-497.007812c-4.140625 0-7.496094-3.359375-7.496094-7.503906 0-4.144532 3.355469-7.503906 7.496094-7.503906h497.007812c4.140625 0 7.496094 3.359374 7.496094 7.503906 0 4.144531-3.355469 7.503906-7.496094 7.503906zm0 0" fill="#6e3e0b"/></svg>