<svg height="512pt" viewBox="-42 0 512 512.00141" width="512pt" xmlns="http://www.w3.org/2000/svg"><path d="m158.777344 115.113281c37.410156-56.566406-18.835938-128.34375-135.300782-113.015625-17.871093 3.273438-25.273437 12.324219-23.109374 29.234375 16.378906 90.378907 114.214843 148.785157 157.855468 84.628907l.203125-.324219c.117188-.171875.234375-.347657.351563-.523438zm0 0" fill="#8fde56" fill-rule="evenodd"/><path d="m146.582031 129.21875c-48.027343 16.441406-114.390625-35.6875-127.609375-108.691406-.996094-7.535156-.058594-13.523438 2.863282-18.105469-16.671876 3.53125-23.574219 12.527344-21.46875 28.910156 15.035156 83.019531 98.832031 139.089844 146.214843 97.886719zm0 0" fill="#47a831" fill-rule="evenodd"/><path d="m269.21875 115.113281c-37.410156-56.566406 18.835938-128.34375 135.300781-113.015625 17.871094 3.273438 25.300781 12.324219 23.105469 29.234375-16.378906 90.378907-114.210938 148.785157-157.851562 84.625l-.203126-.320312c-.117187-.171875-.234374-.347657-.351562-.523438zm0 0" fill="#8fde56" fill-rule="evenodd"/><path d="m281.445312 129.21875c48.027344 16.441406 114.359376-35.6875 127.582032-108.691406.992187-7.535156.058594-13.523438-2.867188-18.105469 16.671875 3.53125 23.574219 12.527344 21.46875 28.910156-15.035156 83.019531-98.832031 139.089844-146.183594 97.886719zm0 0" fill="#47a831" fill-rule="evenodd"/><path d="m203.878906 135.992188-64.746094-43.292969-3.019531-29.304688c-.4375-4.246093-4.242187-7.332031-8.488281-6.894531s-7.339844 4.230469-6.898438 8.476562l1.707032 16.566407-22.75-15.195313-2.324219-22.746094c-.4375-4.246093-4.230469-7.34375-8.480469-6.902343-4.25.433593-7.34375 4.226562-6.910156 8.46875l1.023438 10.027343-15-10.019531c-3.550782-2.371093-8.355469-1.417969-10.730469 2.125-2.375 3.546875-1.421875 8.347657 2.128906 10.71875l14.492187 9.679688-7.613281 2.050781c-4.125 1.109375-6.566406 5.347656-5.453125 9.46875.929688 3.445312 4.050782 5.714844 7.460938 5.714844.667968 0 1.34375-.085938 2.019531-.265625l20.65625-5.566407 22.375 14.949219-13.589844 3.640625c-4.125 1.105469-6.574219 5.34375-5.464843 9.464844.925781 3.449219 4.050781 5.726562 7.464843 5.726562.664063 0 1.335938-.085937 2.007813-.265624l26.671875-7.152344 64.859375 43.371094c1.320312.882812 2.816406 1.304687 4.292968 1.304687 2.496094 0 4.945313-1.207031 6.4375-3.433594 2.375-3.542969 1.421876-8.34375-2.128906-10.714843zm0 0" fill="#178035"/><path d="m370.734375 47.304688c-2.375-3.546876-7.179687-4.5-10.730469-2.128907l-14.984375 10.007813 1.035157-10.007813c.4375-4.242187-2.652344-8.039062-6.902344-8.476562-4.25-.433594-8.046875 2.648437-8.484375 6.894531l-2.351563 22.75-22.753906 15.199219 1.710938-16.566407c.4375-4.246093-2.652344-8.039062-6.902344-8.476562-4.261719-.441406-8.046875 2.648438-8.488282 6.894531l-3.019531 29.304688-64.746093 43.292969c-3.550782 2.375-4.503907 7.171874-2.128907 10.71875 1.492188 2.226562 3.941407 3.429687 6.4375 3.429687 1.476563 0 2.972657-.421875 4.289063-1.304687l64.859375-43.367188 26.671875 7.148438c.671875.179687 1.347656.265624 2.011718.265624 3.410157 0 6.539063-2.273437 7.464844-5.722656 1.105469-4.121094-1.339844-8.359375-5.46875-9.464844l-13.589844-3.644531 22.375-14.945312 20.660157 5.5625c.671875.183593 1.351562.269531 2.015625.269531 3.410156 0 6.535156-2.269531 7.464844-5.71875 1.113281-4.117188-1.332032-8.359375-5.453126-9.46875l-7.613281-2.050781 14.488281-9.679688c3.554688-2.371093 4.507813-7.171875 2.132813-10.714843zm0 0" fill="#178035"/><g fill-rule="evenodd"><path d="m232.714844 139.496094v-101.332032c0-10.277343-8.421875-18.6875-18.71875-18.6875-10.292969 0-18.71875 8.410157-18.71875 18.6875v199.1875c5.9375-1.925781 12.34375-2.976562 18.867187-2.976562 6.550781 0 12.722657 1.019531 18.570313 2.890625zm0 0" fill="#47a831"/><path d="m371.585938 380.5625-159.984376-23.945312-159.988281 23.945312 17.136719 101.621094c2.722656 16.09375 15.0625 29.816406 34.367188 29.816406h216.964843c19.273438 0 31.644531-13.722656 34.367188-29.816406zm0 0" fill="#b3adad"/><path d="m317.976562 271.316406c0-29.4375-23.867187-53.296875-53.351562-53.296875l-1.3125.03125c-7.546875-10.25-18.195312-18.046875-30.597656-22.019531-5.847656-1.867188-12.078125-2.863281-18.570313-2.863281-6.582031 0-12.929687 1.050781-18.867187 2.980469-12.429688 4.03125-23.074219 11.945312-30.5625 22.3125-2.222656-.292969-4.503906-.441407-6.785156-.441407-29.484376 0-53.378907 23.859375-53.378907 53.296875l.027344.085938c-24.683594 1.488281-44.25 21.933594-44.25 46.929687l145.273437 27.828125 156.625-27.828125c0-24.996093-19.566406-45.441406-44.253906-46.929687v-.085938zm0 0" fill="#a66d30"/><path d="m150.382812 318.332031c2.398438-39.101562 19.097657-74.378906 44.894532-100.660156 8.835937-8.996094 18.691406-16.910156 29.453125-23.59375-3.449219-.585937-6.960938-.90625-10.585938-.90625-6.582031 0-12.929687 1.050781-18.867187 2.980469-12.429688 4.027344-23.074219 11.941406-30.5625 22.308594-2.222656-.292969-4.503906-.4375-6.785156-.4375-29.484376 0-53.378907 23.859374-53.378907 53.292968l.027344.089844c-24.683594 1.488281-44.25 21.929688-44.25 46.925781zm0 0" fill="#6e3e0b"/><path d="m227.539062 25.285156c-3.421874-3.5625-8.21875-5.808594-13.542968-5.808594-10.292969 0-18.71875 8.410157-18.71875 18.6875v157.984376c5.179687-1.695313 10.648437-2.6875 16.324218-2.921876v-149.457031c0-9.34375 6.929688-17.109375 15.9375-18.484375zm0 0" fill="#178035"/><path d="m362.226562 318.332031h-315.96875c-9.417968 0-17.136718 7.707031-17.136718 17.113281v28.03125c0 9.40625 7.71875 17.085938 17.136718 17.085938h330.039063c9.417969 0 17.136719-7.679688 17.136719-17.085938v-28.03125c0-9.402343-7.722656-17.113281-17.136719-17.113281zm0 0" fill="#e6e6e6"/><path d="m50.996094 363.476562v-28.03125c0-9.40625 7.695312-17.113281 17.113281-17.113281h-21.851563c-9.417968 0-17.136718 7.707031-17.136718 17.113281v28.03125c0 9.402344 7.71875 17.082032 17.136718 17.082032h15.296876c-6.054688-2.65625-10.558594-10.132813-10.558594-17.082032zm0 0" fill="#adafb3"/><path d="m51.613281 380.5625 17.136719 101.621094c2.722656 16.09375 15.0625 29.816406 34.367188 29.816406h28.488281c-19.273438 0-31.648438-13.722656-34.367188-29.816406l-11.171875-66.257813c0-5.167969 3.859375-9.460937 8.804688-10.191406h272.476562l4.238282-25.171875zm0 0" fill="#757a85"/></g></svg>