<svg height="512pt" viewBox="-32 0 512 512" width="512pt" xmlns="http://www.w3.org/2000/svg"><path d="m168.609375 346.769531c40.578125-60.269531-19.25-137.195312-143.632813-120.855469-19.019531 3.511719-26.886718 13.148438-24.582031 31.128907 17.4375 96.171875 121.558594 158.339843 168.015625 90.042969.054688-.117188.144532-.203126.199219-.316407zm0 0" fill="#8fde56" fill-rule="evenodd"/><path d="m.394531 257.039062c17.003907 93.871094 116.628907 155.347657 164.554688 94.734376-51.382813 22.988281-126.167969-33.570313-140.691407-113.71875-.578124-4.546876-.519531-8.542969.203126-12.027344-18.648438 3.570312-26.371094 13.175781-24.066407 31.011718zm0 0" fill="#47a831" fill-rule="evenodd"/><path d="m279.390625 346.769531c-40.578125-60.269531 19.25-137.195312 143.632813-120.855469 19.019531 3.511719 26.886718 13.148438 24.582031 31.128907-17.4375 96.171875-121.558594 158.339843-168.015625 90.042969-.054688-.117188-.144532-.203126-.199219-.316407zm0 0" fill="#8fde56" fill-rule="evenodd"/><path d="m447.605469 257.039062c-17.003907 93.871094-116.601563 155.347657-164.554688 94.734376 51.382813 22.988281 126.167969-33.570313 140.691407-113.71875.578124-4.546876.519531-8.542969-.199219-12.027344 18.644531 3.570312 26.367187 13.175781 24.0625 31.011718zm0 0" fill="#47a831" fill-rule="evenodd"/><path d="m221.910156 372.785156-74.386718-50.089844-3.265626-31.484374c-.433593-4.183594-4.179687-7.21875-8.363281-6.789063-4.1875.433594-7.226562 4.175781-6.792969 8.355469l1.960938 18.925781-25.53125-17.046875-2.542969-24.503906c-.433593-4.183594-4.179687-7.226563-8.363281-6.789063-4.1875.433594-7.226562 4.175781-6.792969 8.359375l1.238281 11.941406-17.035156-11.375c-3.496094-2.335937-8.230468-1.398437-10.566406 2.097657-2.339844 3.496093-1.398438 8.222656 2.101562 10.558593l16.539063 11.042969-9.382813 2.519531c-4.066406 1.089844-6.476562 5.265626-5.382812 9.328126.914062 3.398437 3.992188 5.636718 7.351562 5.636718.65625 0 1.320313-.085937 1.984376-.261718l22.269531-5.976563 25.128906 16.78125-15.765625 4.238281c-4.0625 1.09375-6.46875 5.269532-5.375 9.328125.914062 3.398438 3.992188 5.636719 7.351562 5.636719.65625 0 1.320313-.085938 1.984376-.265625l28.636718-7.699219 74.53125 50.183594c1.300782.871094 2.773438 1.285156 4.226563 1.285156 2.460937 0 4.875-1.1875 6.34375-3.382812 2.339843-3.492188 1.398437-8.21875-2.101563-10.554688zm0 0" fill="#178035"/><path d="m386.53125 274.386719c-2.339844-3.496094-7.070312-4.4375-10.566406-2.097657l-17.035156 11.375 1.238281-11.941406c.433593-4.183594-2.605469-7.925781-6.792969-8.359375-4.1875-.433593-7.929688 2.605469-8.363281 6.789063l-2.542969 24.503906-25.515625 17.035156 1.949219-18.917968c.429687-4.183594-2.617188-7.921876-6.800782-8.351563-4.199218-.433594-7.929687 2.609375-8.359374 6.792969l-3.238282 31.460937-68.832031 46.296875c-3.5 2.335938-4.441406 7.0625-2.101563 10.558594 1.46875 2.195312 3.882813 3.382812 6.339844 3.382812 1.457032 0 2.929688-.417968 4.230469-1.285156l68.949219-46.371094 28.636718 7.699219c.664063.179688 1.328126.265625 1.984376.265625 3.363281 0 6.4375-2.238281 7.355468-5.636718 1.09375-4.058594-1.3125-8.234376-5.378906-9.328126l-15.765625-4.238281 25.132813-16.785156 22.296874 5.980469c.664063.175781 1.328126.261718 1.980469.261718 3.363281 0 6.441407-2.242187 7.355469-5.640624 1.089844-4.0625-1.320312-8.234376-5.382812-9.324219l-9.40625-2.523438 16.535156-11.042969c3.496094-2.335937 4.4375-7.0625 2.097656-10.558593zm0 0" fill="#178035"/><g fill-rule="evenodd"><path d="m240.136719 368.144531v-170.277343c-6.109375-2.90625-11.613281-6.90625-16.253907-11.738282-3.746093 3.910156-8.066406 7.277344-12.824218 9.953125-1.066406.605469-2.132813 1.152344-3.199219 1.671875v234.371094c5.132813-1.726562 10.75-2.675781 16.398437-2.675781 5.648438 0 10.894532.890625 15.878907 2.503906zm0 0" fill="#47a831"/><path d="m225.296875 399.011719v-191.191407c-.488281-.460937-.949219-.921874-1.410156-1.410156-3.746094 3.910156-8.070313 7.277344-12.824219 9.980469-1.066406.574219-2.132812 1.121094-3.199219 1.667969v183.628906c5.128907-1.726562 10.660157-2.675781 16.398438-2.675781zm0 0" fill="#178035"/><path d="m265.644531 419.953125c-6.285156-8.542969-15.160156-15.074219-25.507812-18.4375-4.984375-1.640625-10.316407-2.503906-15.878907-2.503906-5.734374 0-11.265624.949219-16.398437 2.675781-10.257813 3.449219-19.019531 10.039062-25.214844 18.613281-1.871093-.230469-3.773437-.347656-5.734375-.347656-24.8125 0-44.898437 20.050781-44.898437 44.820313v.085937c-20.777344 1.238281-37.265625 18.46875-37.265625 39.527344h254.183594c0-21.058594-16.457032-38.289063-37.234376-39.527344v-.085937c0-24.769532-20.117187-44.820313-44.929687-44.820313zm0 0" fill="#a66d30"/><path d="m277.113281 40.246094c-6.511719-23.214844-27.867187-40.246094-53.226562-40.246094-24.84375 0-45.851563 16.339844-52.828125 38.863281-2.160156-.257812-4.378906-.402343-6.625-.402343-30.519532 0-55.277344 24.714843-55.277344 55.179687 0 20.050781 10.75 37.625 26.773438 47.292969-4.609376 8.054687-7.261719 17.40625-7.261719 27.355468 0 30.46875 24.757812 55.179688 55.273437 55.179688 8.5625 0 16.6875-1.957031 23.921875-5.410156 6.023438-2.90625 11.441407-6.875 16.023438-11.648438 4.636719 4.832032 10.140625 8.832032 16.253906 11.734375 7.203125 3.425781 15.214844 5.324219 23.6875 5.324219 30.519531 0 55.273437-24.710938 55.273437-55.179688 0-9.492187-2.390624-18.410156-6.628906-26.207031 15.824219-9.722656 26.371094-27.15625 26.371094-47.035156 0-30.492187-24.753906-55.175781-55.273438-55.175781-2.191406 0-4.351562.117187-6.457031.375zm0 0" fill="#ff698f"/><path d="m223.886719 0c-24.84375 0-45.851563 16.339844-52.828125 38.863281-2.160156-.257812-4.378906-.402343-6.625-.402343-30.519532 0-55.277344 24.714843-55.277344 55.179687 0 20.050781 10.75 37.625 26.773438 47.292969-4.609376 8.054687-7.261719 17.40625-7.261719 27.355468 0 30.46875 24.757812 55.179688 55.273437 55.179688 8.5625 0 16.6875-1.957031 23.921875-5.410156 1.066407-.546875 2.132813-1.089844 3.199219-1.667969-35.96875-18.613281-60.320312-54.542969-60.320312-95.796875 0-57.421875 47.179687-104.484375 107.121093-108.972656-9.394531-7.277344-21.183593-11.621094-33.976562-11.621094zm0 0" fill="#cf4b82"/><path d="m221.839844 68.121094c-28.589844 0-51.757813 23.128906-51.757813 51.667968 0 28.539063 23.167969 51.667969 51.757813 51.667969 28.585937 0 51.757812-23.128906 51.757812-51.667969 0-28.535156-23.171875-51.667968-51.757812-51.667968zm0 0" fill="#f5df87"/><path d="m221.839844 68.121094c-28.589844 0-51.757813 23.128906-51.757813 51.667968 0 28.539063 23.167969 51.667969 51.757813 51.667969 2.792968 0 5.5625-.230469 8.242187-.664062-24.671875-3.910157-43.546875-25.257813-43.546875-51.003907 0-25.75 18.875-47.09375 43.546875-51.007812-2.679687-.429688-5.449219-.660156-8.242187-.660156zm0 0" fill="#d9a13f"/><path d="m94.746094 504.386719h103.433594c-5.1875-10.152344-8.128907-21.632813-8.128907-33.773438 0-18.410156 6.714844-35.242187 17.808594-48.242187 8.101563-9.492188 18.589844-16.945313 30.492187-21.402344-4.152343-1.183594-8.53125-1.871094-13.054687-1.957031h-1.039063c-5.734374 0-11.265624.949219-16.398437 2.675781-10.257813 3.449219-19.019531 10.039062-25.214844 18.613281-1.871093-.230469-3.773437-.347656-5.734375-.347656-24.8125 0-44.898437 20.050781-44.898437 44.820313v.085937c-20.777344 1.238281-37.265625 18.46875-37.265625 39.527344zm0 0" fill="#6e3e0b"/></g><path d="m383.941406 512h-324.207031c-4.207031 0-7.621094-3.40625-7.621094-7.613281 0-4.203125 3.410157-7.609375 7.621094-7.609375h324.210937c4.207032 0 7.617188 3.40625 7.617188 7.609375 0 4.207031-3.410156 7.613281-7.621094 7.613281zm0 0" fill="#6e3e0b"/></svg>