<svg height="511pt" viewBox="0 -2 511.99941 511" width="511pt" xmlns="http://www.w3.org/2000/svg"><g fill-rule="evenodd"><path d="m375.019531 1.484375c-77.652343 30.523437-118.972656 147.5-138.480469 226.207031l35.160157 5.203125 40.125-33.824219 75.722656-184.019531c3.238281-7.894531-1.957031-17.71875-12.527344-13.566406zm0 0" fill="#adafb3"/><path d="m281.160156 273.621094-29.316406-8.5625-27.191406 18.886718c-1.984375 11.429688-2.859375 18.125-2.859375 18.125l-17.699219 42.980469c6.835938-1.726562 14.222656-1.347656 21.203125 1.519531 8.585937 3.535157 14.949219 10.261719 18.339844 18.242188zm0 0" fill="#adafb3"/><path d="m249.125 351.453125c-3.355469-7.984375-9.753906-14.707031-18.339844-18.246094-6.949218-2.863281-14.367187-3.242187-21.171875-1.519531-10.132812 2.542969-19.007812 9.675781-23.273437 20.058594l-44.707032 108.703125c-7.15625 17.335937 1.195313 37.363281 18.484376 44.496093 17.316406 7.136719 37.320312-1.199218 44.445312-18.535156l44.738281-108.703125c3.59375-8.742187 3.242188-18.15625-.175781-26.253906zm0 0" fill="#349ecf"/><path d="m497.699219 128.460938-185.875 70.609374-75.285157 28.621094-101.039062 38.386719c7.855469 3.597656 14.394531 10.175781 17.695312 18.859375 2.65625 7.046875 2.832032 14.472656.933594 21.253906l52.332032-19.878906s6.71875-.703125 18.191406-2.367188c5.171875-.761718 11.300781-1.726562 18.222656-2.894531 11.011719-1.871093 24.003906-4.328125 38.285156-7.425781 79.109375-17.308594 197.058594-55.40625 229.707032-132.238281 4.46875-10.46875-5.195313-15.964844-13.167969-12.925781zm0 0" fill="#e6e6e6"/><path d="m175.625 276.429688c-3.273438-8.710938-9.8125-15.289063-17.699219-18.886719-7.972656-3.65625-17.375-4.238281-26.195312-.90625l-109.800781 41.722656c-13.519532 5.144531-21.9023442 18.125-21.929688 31.835937v.234376c0 3.976562.699219 7.984374 2.191406 11.898437 6.65625 17.515625 26.398438 26.402344 43.890625 19.765625l109.800781-41.722656c10.453126-3.972656 17.84375-12.628906 20.675782-22.714844 1.898437-6.785156 1.75-14.179688-.933594-21.226562zm0 0" fill="#349ecf"/><path d="m131.730469 256.636719-109.800781 41.722656c-13.519532 5.144531-21.9023442 18.125-21.929688 31.835937v.234376c0 3.976562.699219 7.984374 2.191406 11.898437 1.519532 4.007813 3.738282 7.542969 6.421875 10.585937-.117187-1.226562-.203125-2.425781-.203125-3.597656v-.261718c.058594-13.710938 8.441406-26.691407 21.960938-31.808594l46.695312-17.75 63.105469-23.972656c2.015625-.757813 4.058594-1.316407 6.105469-1.695313 6.917968-1.226563 13.929687-.234375 20.089844 2.601563 4.234374 1.929687 8.089843 4.734374 11.273437 8.273437-.324219-2.777344-.964844-5.554687-2.015625-8.273437-3.273438-8.710938-9.8125-15.289063-17.699219-18.886719-7.972656-3.65625-17.375-4.238281-26.195312-.90625zm0 0" fill="#4275ab"/><path d="m230.785156 333.207031c-6.949218-2.863281-14.367187-3.242187-21.171875-1.519531-10.132812 2.542969-19.007812 9.675781-23.273437 20.058594l-44.707032 108.703125c-7.15625 17.335937 1.195313 37.363281 18.484376 44.496093 2.980468 1.230469 6.042968 1.988282 9.109374 2.339844-8.640624-9.472656-11.589843-23.445312-6.421874-36.019531l20.234374-49.207031 24.5-59.527344c3.066407-7.484375 8.558594-13.300781 15.1875-16.898438 2.539063-1.371093 5.253907-2.425781 8.058594-3.15625 3.914063-.964843 8-1.257812 12.089844-.820312-3.269531-3.566406-7.328125-6.488281-12.089844-8.449219zm0 0" fill="#4275ab"/><path d="m375.019531 1.484375c-77.652343 30.523437-118.972656 147.5-138.480469 226.207031l25.113282-9.53125c20.851562-73.0625 58.757812-164.078125 122.769531-195.507812l3.125-7.601563c3.238281-7.894531-1.957031-17.71875-12.527344-13.566406zm0 0" fill="#757a85"/><path d="m242.878906 281.050781c-6.921875 1.167969-13.054687 2.132813-18.222656 2.890625-1.988281 11.433594-2.863281 18.128906-2.863281 18.128906l-12.175781 29.617188c6.597656-1.667969 13.722656-1.375 20.5 1.257812l17.199218-41.78125s.527344-4.035156 1.695313-11.167968c-2.105469.351562-4.148438.703125-6.132813 1.054687zm0 0" fill="#757a85"/></g><path d="m261.15625 255.390625c-4.265625 0-7.726562-3.460937-7.726562-7.730469v-.292968c0-4.269532 3.460937-7.730469 7.726562-7.730469 4.269531 0 7.730469 3.460937 7.730469 7.730469v.292968c0 4.269532-3.460938 7.730469-7.730469 7.730469zm0 0" fill="#757a85"/></svg>