<svg height="512pt" viewBox="-110 0 512 512" width="512pt" xmlns="http://www.w3.org/2000/svg"><g fill-rule="evenodd"><path d="m148.855469 195.792969-49.027344-23.699219-48.46875 23.699219-26.773437 61.175781c-6.253907 14.324219-8.691407 15.527344-8.691407 31.582031v187.148438c0 19.953125 14.152344 36.300781 31.414063 36.300781h186.917968c17.292969 0 31.441407-16.320312 31.441407-36.300781v-132.773438c0-29.621093-.027344-44.445312-26.539063-54.582031l-65.582031-25.046875c-12.949219-4.953125-24.691406-20.980469-24.75-41.839844zm0 0" fill="#349ecf"/><path d="m272.449219 162.015625c-16.203125-24.550781-26.15625-52.589844-28.476563-84.90625h-55.75c-1.613281 36.09375 35.90625 92.609375 74.628906 99.992187 16.789063 3.222657 18.554688-1.523437 9.597657-15.085937zm0 0" fill="#b3adad"/><path d="m293 18.546875c0-10.195313-7.074219-18.546875-15.734375-18.546875h-15.941406l-15.53125 36.59375 15.53125 40.515625h15.941406c8.660156 0 15.734375-8.347656 15.734375-18.574219zm0 0" fill="#349ecf"/><path d="m129.507812 328.65625c-15.03125-7.410156-33.230468-1.257812-40.660156 13.742188-4.902344 9.902343-3.875 21.152343 1.671875 29.792968-4.253906 2.84375-7.835937 6.796875-10.242187 11.71875-7.429688 15-1.265625 33.164063 13.765625 40.578125 7.75 3.808594 16.324219 4.015625 23.839843 1.289063 2.378907 7.617187 7.78125 14.296875 15.53125 18.105468 15.03125 7.414063 33.230469 1.230469 40.660157-13.769531 2.316406-4.660156 3.285156-9.640625 3.109375-14.503906 10.160156-.964844 19.613281-6.972656 24.457031-16.757813 7.425781-15.027343 1.230469-33.191406-13.800781-40.605468-1.054688-.527344-2.171875-.964844-3.257813-1.375 2.4375-13.007813-3.933593-26.574219-16.410156-32.726563-12.242187-6.035156-26.570313-3.074219-35.492187 6.300781-1-.644531-2.054688-1.261718-3.171876-1.789062zm0 0" fill="#ff698f"/><path d="m158.308594 393.695312c5.34375-10.808593.910156-23.933593-9.953125-29.265624-10.832031-5.363282-23.984375-.910157-29.328125 9.902343-5.371094 10.839844-.910156 23.964844 9.925781 29.296875 10.859375 5.363282 23.980469.90625 29.355469-9.933594zm0 0" fill="#e6e6e6"/><path d="m129.507812 328.65625c-15.03125-7.410156-33.230468-1.257812-40.660156 13.742188-4.902344 9.902343-3.875 21.152343 1.671875 29.792968-4.253906 2.84375-7.835937 6.796875-10.242187 11.71875-7.429688 15-1.265625 33.164063 13.765625 40.578125 7.195312 3.542969 15.121093 3.984375 22.253906 1.816407-7.425781-10.136719-12.242187-22.382813-13.328125-35.800782-1.964844-24.699218 9.070312-47.402344 27.390625-61.40625-.265625-.148437-.558594-.292968-.851563-.441406zm0 0" fill="#cf4b82"/><path d="m140.222656 362.203125c-8.628906-.613281-17.144531 3.925781-21.195312 12.128906-5.371094 10.839844-.910156 23.964844 9.925781 29.296875 6.105469 2.988282 12.886719 2.929688 18.640625.351563-2.730469-.175781-5.492188-.90625-8.132812-2.195313-10.832032-5.363281-15.292969-18.457031-9.953126-29.296875 2.351563-4.75 6.226563-8.265625 10.714844-10.285156zm0 0" fill="#adafb3"/><path d="m261.324219 0h-231.777344c-11.304687 0-16.175781 8.816406-18.789063 18.546875l-9.835937 36.621094c-4.082031 15.292969 6.195313 21.941406 14.855469 21.941406h29.535156c5.578125 0 10.15625 4.570313 10.15625 10.136719v61.175781l44.359375 23.671875 47.324219-23.671875v-61.175781c0-5.566406 4.550781-10.136719 10.128906-10.136719h104.042969zm0 0" fill="#e6e6e6"/><path d="m10.757812 18.546875-9.835937 36.621094c-4.082031 15.292969 6.195313 21.941406 14.855469 21.941406h26.714844c-8.660157 0-18.9375-6.648437-14.824219-21.941406l9.804687-36.621094c2.613282-9.730469 7.488282-18.546875 18.789063-18.546875h-26.714844c-11.304687 0-16.175781 8.816406-18.789063 18.546875zm0 0" fill="#adafb3"/><path d="m188.222656 77.109375c-1.613281 36.09375 35.90625 92.609375 74.628906 99.992187.4375.089844.851563.175782 1.289063.234376-29.855469-25.691407-52.605469-68.378907-53.019531-100.226563zm0 0" fill="#757a85"/><path d="m147.152344 148.421875h-102.015625c-6.285157 0-11.421875 5.125-11.421875 11.394531v24.550782c0 6.269531 5.136718 11.425781 11.421875 11.425781h110.882812c6.28125 0 11.417969-5.15625 11.417969-11.425781v-24.550782c0-6.269531-5.136719-11.394531-11.417969-11.394531zm0 0" fill="#ff698f"/><path d="m33.714844 159.816406v24.550782c0 6.269531 5.136718 11.425781 11.421875 11.425781h27.242187c-6.28125 0-11.417968-5.15625-11.417968-11.425781v-24.550782c0-6.269531 5.136718-11.394531 11.417968-11.394531h-27.242187c-6.285157 0-11.421875 5.125-11.421875 11.394531zm0 0" fill="#cf4b82"/><path d="m80.363281 195.792969h-29.003906l-26.773437 61.175781c-6.253907 14.324219-8.691407 15.527344-8.691407 31.582031v187.148438c0 19.953125 14.148438 36.300781 31.414063 36.300781h29.035156c-17.292969 0-31.441406-16.347656-31.441406-36.300781v-187.148438c0-16.058593 2.433594-17.257812 8.6875-31.585937l12.949218-29.558594c4.371094-10.167969 4.785157-8.320312 17.378907-8.320312h64.9375v-23.292969zm0 0" fill="#4275ab"/></g></svg>