<svg height="512pt" viewBox="0 0 512.00049 512" width="512pt" xmlns="http://www.w3.org/2000/svg"><g fill-rule="evenodd"><path d="m456.652344.953125c-113.945313 11.132813-426.265625 110.832031-287.847656 291.5625l50.519531 52.945313c139.558593 120.652343 250.5-85.644532 291.617187-281.769532 6.570313-44.972656-18.136718-68.875-54.289062-62.738281zm0 0" fill="#e6e6e6"/><path d="m215.265625 268.933594c-5.984375-6.136719-15.886719-6.253906-22.019531-.261719l-24.441406 23.84375-40.855469 39.882813c12.09375 1.171874 23.890625 5.992187 33.496093 14.523437 1.050782.933594 2.105469 1.929687 3.125 2.980469 9.140626 9.378906 14.515626 21.097656 16.179688 33.222656l38.574219-37.664062 24.996093-24.398438c6.136719-5.992188 6.25-15.925781.265626-22.0625zm0 0" fill="#b3adad"/><path d="m94.457031 335.789062-76.714843 74.863282c-23.246094 22.703125-23.714844 60.308594-1.023438 83.570312 22.691406 23.289063 60.273438 23.753906 83.519531 1.050782l76.714844-74.890626c13.871094-13.53125 19.625-32.40625 17.199219-50.347656-1.632813-12.128906-7.039063-23.84375-16.175782-33.226562-1.023437-1.050782-2.046874-2.042969-3.125-2.980469-.148437-.144531-.324218-.261719-.46875-.40625-9.519531-8.269531-21.113281-12.976563-33.027343-14.113281-16.703125-1.578125-34.019531 3.886718-46.898438 16.480468zm0 0" fill="#f5df87"/><path d="m94.457031 335.789062-76.714843 74.863282c-23.246094 22.703125-23.714844 60.308594-1.023438 83.570312 5.78125 5.960938 12.558594 10.398438 19.800781 13.382813-16.121093-23.261719-13.609375-55.667969 7.269531-76.03125l76.714844-74.894531c9.171875-8.941407 20.558594-14.289063 32.386719-16.070313 4.816406-.699219 9.695313-.847656 14.511719-.378906 5.753906.554687 11.417968 1.929687 16.820312 4.148437-1.839844-2.660156-3.910156-5.199218-6.246094-7.566406-1.023437-1.054688-2.046874-2.046875-3.125-2.980469l-.46875-.410156c0-.027344-.027343-.027344-.058593-.058594-2.1875-1.871093-4.46875-3.59375-6.832031-5.082031-8-5.085938-16.96875-8.09375-26.105469-8.972656 0 0 0 0-.03125 0-16.703125-1.578125-34.019531 3.886718-46.898438 16.480468zm0 0" fill="#d9a13f"/><path d="m141.355469 319.308594h.027343s0 0-.027343 0zm51.894531-50.636719-24.445312 23.84375-27.449219 26.792969h.03125c9.109375.878906 18.046875 3.855468 26.015625 8.914062l18.371094-17.941406 10.132812-9.90625 24.441406-23.84375c.410156-.410156.816406-.761719 1.253906-1.109375l-6.335937-6.488281c-5.984375-6.136719-15.886719-6.253906-22.015625-.261719zm0 0" fill="#757a85"/><path d="m456.652344.953125c-113.945313 11.132813-426.265625 110.832031-287.847656 291.5625-85.738282-162.320313 199.074218-251.910156 306.742187-262.457031 13.695313-2.308594 25.757813-.324219 35.101563 5.492187-5.402344-26.414062-26.339844-39.300781-53.996094-34.597656zm0 0" fill="#b3adad"/></g></svg>