<svg height="512pt" viewBox="0 -47 512.00095 512" width="512pt" xmlns="http://www.w3.org/2000/svg"><g fill-rule="evenodd"><path d="m211.605469 364.539062c-20.839844 13.226563-34.167969 8.652344-34.054688-6.335937l.03125-49.191406-13.390625-10.445313-14.808594 5.265625v62.359375c-.03125 24.246094 33.53125 47.65625 62.308594 31.019532 5.679688-3.269532 85.003906-51.160157 106.539063-63.863282l-18.578125-12.472656-24.402344 5.152344zm0 0" fill="#d9a13f"/><path d="m421.316406 70.546875c0-26.5625-21.5625-48.089844-48.167968-48.089844h-1.21875c-9.996094-13.628906-26.140626-22.457031-44.371094-22.457031-18.371094 0-34.660156 9-44.628906 22.832031-2.03125-.257812-4.058594-.375-6.144532-.375-26.605468 0-48.167968 21.527344-48.167968 48.089844v.089844c-22.289063 1.328125-39.9375 19.789062-39.9375 42.390625l131.488281 27.664062 141.082031-27.664062c0-22.597656-17.648438-41.0625-39.933594-42.390625zm0 0" fill="#a66d30"/><path d="m287.566406 101.945312c0-42.625 23.851563-79.664062 58.917969-98.617187-5.882813-2.167969-12.257813-3.328125-18.921875-3.328125-18.375 0-34.664062 9-44.632812 22.832031-2.03125-.261719-4.058594-.375-6.144532-.375-26.605468 0-48.167968 21.527344-48.167968 48.089844v.085937c-22.289063 1.332032-39.9375 19.792969-39.9375 42.394532h99.4375c-.347657-3.648438-.550782-7.351563-.550782-11.082032zm0 0" fill="#6e3e0b"/><path d="m320.171875 131.488281-163.34375 18.460938 21.332031 133.25 170.035156 39.3125s92.105469-51.0625 106.160157-54.707031l27.273437-117.855469zm0 0" fill="#349ecf"/><path d="m188.679688 113.027344h-41.820313c-10.171875 0-18.492187 8.304687-18.492187 18.460937s8.320312 18.460938 18.492187 18.460938h346.652344c10.171875 0 18.488281-8.304688 18.488281-18.460938s-8.316406-18.460937-18.488281-18.460937zm0 0" fill="#e6e6e6"/><path d="m146.859375 113.027344c-10.171875 0-18.492187 8.304687-18.492187 18.460937s8.320312 18.460938 18.492187 18.460938h32.574219c-10.171875 0-18.488282-8.304688-18.488282-18.460938s8.316407-18.460937 18.488282-18.460937zm0 0" fill="#adafb3"/><path d="m421.867188 260.773438c43.210937 0 78.222656 34.957031 78.222656 78.101562 0 43.140625-35.011719 78.125-78.222656 78.125-43.210938 0-78.25-34.984375-78.25-78.125 0-43.144531 35.039062-78.101562 78.25-78.101562zm0 34.898437c23.878906 0 43.269531 19.359375 43.269531 43.203125 0 23.871094-19.390625 43.199219-43.269531 43.199219-23.910157 0-43.269532-19.328125-43.269532-43.199219 0-23.84375 19.359375-43.203125 43.269532-43.203125zm0 0" fill="#b3adad"/><path d="m369.785156 338.875c0-9.261719 1.625-18.144531 4.582032-26.390625 2.171874-6.050781 5.101562-11.777344 8.636718-17.042969 11.707032-17.476562 30.3125-29.949218 51.933594-33.597656-4.257812-.691406-8.636719-1.070312-13.070312-1.070312-32.34375 0-60.078126 19.5625-71.992188 47.484374-3.882812 9.058594-6.085938 18.984376-6.230469 29.429688-.027343.402344-.027343.78125-.027343 1.183594 0 43.144531 35.039062 78.128906 78.25 78.128906 4.433593 0 8.808593-.375 13.070312-1.097656-35.9375-6.050782-63.527344-36.519532-65.09375-73.730469-.027344-1.097656-.058594-2.199219-.058594-3.296875zm0 0" fill="#757a85"/><path d="m71.796875 201.457031v-68.636719c0-19.214843-.578125-26.304687-13.910156-29.371093l-46.371094-10.648438c-7.96875-1.824219-12.984375-9.839843-11.128906-17.796875 1.824219-7.957031 9.824219-12.964844 17.792969-11.140625l56.226562 12.933594c6.636719 1.535156 25.300781 9.578125 25.300781 36.664063v138.890624c-.8125 16.726563 9.507813 18.984376 36.285157 23.585938l277.933593 47.886719c24.953125 5.035156 17.359375 32.0625-2.402343 30.039062-189.773438-32.699219-171.515626-28.648437-309.699219-54.230469-21.128907-3.90625-30.027344-24.625-30.027344-37.269531zm0 0" fill="#f5df87"/><path d="m200.503906 171.1875h276.226563l4.898437-21.238281h-324.800781l21.332031 133.25 26.808594 4.632812-16.695312-104.289062v-.144531c0-6.710938 5.507812-12.210938 12.230468-12.210938zm0 0" fill="#4275ab"/></g></svg>