<svg height="512pt" viewBox="0 -31 512.00015 512" width="512pt" xmlns="http://www.w3.org/2000/svg"><g fill-rule="evenodd"><path d="m336.902344 195.570312c0-28.003906-63.367188-28.910156-63.367188 0v17.171876l31.683594 23.683593 31.683594-23.683593zm0 0" fill="#e6e6e6"/><path d="m225.265625 236.425781v23.683594l81.355469 27.832031 78.554687-27.832031v-23.683594c0-13.023437-12.5-23.683593-27.769531-23.683593h-104.367188c-15.277343 0-27.773437 10.660156-27.773437 23.683593zm0 0" fill="#b3adad"/><path d="m225.265625 236.425781v23.683594h21.578125v-23.683594c0-12.730469 11.914062-23.1875 26.722656-23.652343l-.03125-.03125h-20.5c-15.273437 0-27.769531 10.660156-27.769531 23.683593zm0 0" fill="#757a85"/><path d="m273.535156 195.570312v17.171876h16.589844v-17.171876c0-11.796874 10.539062-18.628906 23.039062-20.675781-17.988281-2.917969-39.628906 3.796875-39.628906 20.675781zm0 0" fill="#b3adad"/><path d="m110.324219 103.4375v153.375c0 14.980469 10.515625 39.507812 35.511719 44.125 34.75 16.644531 51.425781-16.910156 23.566406-31.160156-19.214844-4.117188-26.835938-8.992188-26.078125-24.820313v-164.445312c0-32.0625-22.074219-41.582031-29.902344-43.394531l-41.703125-9.605469c-25.988281-1.609375-31.652344 22.660156-8.933594 33.992187l31.097656 7.183594c15.742188 3.621094 16.441407 12.03125 16.441407 34.75zm0 0" fill="#e6e6e6"/><path d="m0 36.5625c.0585938 20.035156 16.351562 36.269531 36.414062 36.269531 10.367188 0 19.742188-4.351562 26.371094-11.328125 6.21875-6.515625 10.046875-15.363281 10.046875-25.085937 0-3.066407-.382812-6.046875-1.113281-8.90625-3.96875-15.800781-18.277344-27.511719-35.304688-27.511719-20.207031 0-36.4726558 16.382812-36.414062 36.5625zm0 0" fill="#349ecf"/><path d="m0 36.5625c.0585938 20.035156 16.351562 36.269531 36.414062 36.269531 3.039063 0 6.015626-.378906 8.847657-1.109375-15.765625-3.941406-27.449219-18.191406-27.535157-35.160156-.03125-17.140625 11.652344-31.507812 27.535157-35.480469-2.832031-.703125-5.808594-1.082031-8.847657-1.082031-10.980468 0-20.761718 4.816406-27.449218 12.441406-5.578125 6.425782-8.964844 14.804688-8.964844 23.976563zm0 0" fill="#4275ab"/><path d="m336.175781 400.519531c49.554688-9.289062 135.234375-21.671875 152.289063-58.554687l-10.863282-24.761719c-8.089843-18.371094-22.78125-57.09375-71.488281-57.09375h-205.058593c-11.679688 0-22.570313 3.5625-31.652344 9.667969-10.953125 7.328125-19.246094 18.367187-23.101563 31.246094-1.519531 5.140624-2.335937 10.570312-2.335937 16.175781v16.96875c3.15625 34.984375 144.609375 66.351562 192.210937 66.351562zm0 0" fill="#349ecf"/><path d="m207.949219 389.917969c0 6.773437-1.605469 15.914062-4.527344 23.011719h212.355469c-2.890625-7.097657-4.496094-16.238282-4.496094-23.011719 0-6.777344.703125-10.632813 2.015625-15.625h-207.394531c1.34375 4.996093 2.046875 8.847656 2.046875 15.625zm0 0" fill="#757a85"/><path d="m392.710938 374.292969c-1.34375 4.996093-2.042969 10.222656-2.042969 15.625 0 8.148437 1.605469 15.917969 4.523437 23.011719 9.054688 22.105468 30.78125 37.671874 56.125 37.671874 33.527344 0 60.683594-27.160156 60.683594-60.683593 0-19.507813-9.226562-36.855469-23.535156-47.949219-10.25-7.972656-23.128906-12.703125-37.148438-12.703125-28.089844-.003906-51.714844 19.097656-58.605468 45.027344zm0 0" fill="#e6e6e6"/><path d="m421.941406 389.917969c0 9.34375 4.351563 17.636719 11.125 23.011719 5.023438 4 11.359375 6.367187 18.25 6.367187 16.238282 0 29.378906-13.144531 29.378906-29.378906 0-5.726563-1.636718-11.097657-4.496093-15.625-5.199219-8.265625-14.398438-13.753907-24.882813-13.753907-10.480468 0-19.679687 5.488282-24.878906 13.753907-2.832031 4.527343-4.496094 9.902343-4.496094 15.625zm0 0" fill="#b3adad"/><path d="m107.230469 389.917969c0 33.523437 27.15625 60.683593 60.652343 60.683593 25.347657 0 47.074219-15.566406 56.15625-37.671874 2.890626-7.097657 4.496094-14.863282 4.496094-23.011719 0-5.402344-.699218-10.632813-2.015625-15.625-6.890625-25.933594-30.542969-45.03125-58.636719-45.03125-8.496093 0-16.585937 1.753906-23.917968 4.90625-21.609375 9.257812-36.734375 30.753906-36.734375 55.75zm0 0" fill="#e6e6e6"/><path d="m138.507812 389.917969c0 16.234375 13.140626 29.378906 29.375 29.378906 10.28125 0 19.304688-5.257813 24.558594-13.261719 3.039063-4.613281 4.820313-10.160156 4.820313-16.117187 0-3.972657-.789063-7.796875-2.25-11.273438-.613281-1.519531-1.371094-2.976562-2.25-4.351562-5.199219-8.261719-14.398438-13.753907-24.878907-13.753907-9.871093 0-18.601562 4.878907-23.917968 12.324219-3.445313 4.820313-5.457032 10.6875-5.457032 17.054688zm0 0" fill="#b3adad"/><path d="m146.304688 301.023438c-1.519532 5.140624-2.335938 10.570312-2.335938 16.179687v16.964844c7.328125-3.152344 15.417969-4.90625 23.914062-4.90625h.292969v-12.058594c0-5.609375.820313-11.039063 2.367188-16.179687 3.824219-12.878907 12.117187-23.917969 23.066406-31.246094 9.082031-6.101563 19.976563-9.667969 31.65625-9.667969h-24.207031c-11.683594 0-22.574219 3.566406-31.65625 9.667969-10.953125 7.328125-19.246094 18.367187-23.097656 31.246094zm0 0" fill="#4275ab"/><path d="m143.964844 334.167969c-21.609375 9.257812-36.734375 30.753906-36.734375 55.75 0 33.523437 27.15625 60.683593 60.652343 60.683593 2.980469 0 5.871094-.234374 8.730469-.640624-29.375-4.234376-51.949219-29.496094-51.949219-60.042969 0-18.398438 8.207032-34.867188 21.140626-45.992188 4.644531-4.003906 9.902343-7.300781 15.625-9.753906 4.757812-2.074219 9.871093-3.535156 15.183593-4.292969-2.742187-.382812-5.578125-.613281-8.4375-.613281h-.292969c-8.496093-.003906-16.585937 1.75-23.917968 4.902344zm0 0" fill="#b3adad"/><path d="m143.964844 372.863281c-3.445313 4.816407-5.460938 10.6875-5.460938 17.054688 0 16.234375 13.140625 29.378906 29.378906 29.378906 2.976563 0 5.871094-.441406 8.585938-1.257813-12.03125-3.679687-20.792969-14.863281-20.792969-28.121093 0-6.367188 2.015625-12.238281 5.460938-17.054688 1.664062-2.335937 3.648437-4.410156 5.898437-6.132812 2.773438-2.191407 5.984375-3.855469 9.433594-4.90625-2.71875-.847657-5.609375-1.285157-8.585938-1.285157-3.242187 0-6.335937.527344-9.257812 1.488282-5.957031 1.988281-11.066406 5.8125-14.660156 10.835937zm0 0" fill="#757a85"/><path d="m427.402344 334.167969c-21.609375 9.257812-36.734375 30.753906-36.734375 55.75 0 33.523437 27.15625 60.683593 60.652343 60.683593 2.976563 0 5.898438-.234374 8.730469-.640624-29.378906-4.234376-51.921875-29.496094-51.921875-60.042969 0-18.398438 8.175782-34.867188 21.113282-45.992188 4.644531-4.003906 9.898437-7.300781 15.621093-9.753906 4.789063-2.074219 9.871094-3.535156 15.1875-4.292969-2.746093-.382812-5.546875-.613281-8.410156-.613281h-.320313c-8.46875-.003906-16.558593 1.75-23.917968 4.902344zm0 0" fill="#b3adad"/><path d="m427.402344 372.863281c-3.417969 4.816407-5.460938 10.6875-5.460938 17.054688 0 16.234375 13.167969 29.378906 29.375 29.378906 3.007813 0 5.871094-.441406 8.585938-1.257813-12.03125-3.679687-20.792969-14.863281-20.792969-28.121093 0-6.367188 2.015625-12.238281 5.460937-17.054688 1.667969-2.335937 3.652344-4.410156 5.902344-6.132812 2.800782-2.191407 5.984375-3.855469 9.429688-4.90625-2.714844-.847657-5.578125-1.285157-8.585938-1.285157-3.210937 0-6.335937.527344-9.253906 1.488282-5.957031 1.988281-11.070312 5.8125-14.660156 10.835937zm0 0" fill="#757a85"/></g><path d="m336.902344 308.75h-53.144532c-4.269531 0-7.726562-3.460938-7.726562-7.726562 0-4.265626 3.460938-7.722657 7.726562-7.722657h53.144532c4.269531 0 7.726562 3.457031 7.726562 7.722657 0 4.265624-3.457031 7.726562-7.726562 7.726562zm0 0" fill="#757a85"/><path d="m336.902344 340.578125h-53.144532c-4.269531 0-7.726562-3.457031-7.726562-7.722656s3.460938-7.722657 7.726562-7.722657h53.144532c4.269531 0 7.726562 3.457032 7.726562 7.722657s-3.457031 7.722656-7.726562 7.722656zm0 0" fill="#757a85"/></svg>