<svg height="512pt" viewBox="-1 0 512 512.001" width="512pt" xmlns="http://www.w3.org/2000/svg"><g fill-rule="evenodd"><path d="m207.738281 275.800781-.089843 23.332031 28.496093 5.082032 170.089844-170.132813 2.949219-30.253906-31.355469 1.839844zm0 0" fill="#f5df87"/><path d="m248.992188 362.792969 13.136718-13.140625c5.34375-5.34375 5.34375-14.105469 0-19.449219l-25.984375-25.992187-28.40625-28.414063-25.984375-25.960937c-5.34375-5.34375-14.074218-5.34375-19.445312 0l-13.109375 13.140624 34.742187 58.320313zm0 0" fill="#a66d30"/><path d="m149.203125 262.980469 10.976563 10.980469 13.136718-13.144532c5.34375-5.34375 14.101563-5.34375 19.445313 0l-11.007813-10.976562c-5.34375-5.34375-14.074218-5.34375-19.445312 0zm0 0" fill="#6e3e0b"/><path d="m377.828125 105.667969-170.089844 170.132812 11.007813 11.007813 170.089844-170.132813-3.59375-3.589843zm0 0" fill="#d9a13f"/><path d="m280.199219 408.84375c4.085937-4.085938 4.085937-10.746094 0-14.835938l-31.207031-31.214843-99.789063-99.8125-31.210937-31.21875c-4.085938-4.085938-10.773438-4.085938-14.859376 0l-98.007812 98.03125c-6.832031 6.804687-6.832031 17.988281 0 24.824219 6.832031 6.804687 17.984375 6.804687 24.816406 0l67.292969-67.339844c2.859375-2.835938 7.53125-2.835938 10.363281 0l15.5625 15.5625c2.859375 2.863281 2.859375 7.535156 0 10.398437l-67.292968 67.308594c-.820313.820313-2.746094 3.476563-3.300782 4.617187-3.355468 6.800782-2.015625 14.863282 3.300782 20.207032 6.832031 6.832031 17.980468 6.832031 24.8125 0l67.296874-67.3125c2.859376-2.863282 7.53125-2.863282 10.390626 0l15.5625 15.566406c2.832031 2.832031 2.832031 7.503906 0 10.367188l-67.292969 67.308593c-6.832031 6.832031-6.832031 17.988281 0 24.820313 6.800781 6.835937 17.984375 6.835937 24.785156 0l67.324219-67.308594c2.832031-2.863281 7.503906-2.863281 10.363281 0l15.5625 15.5625c2.859375 2.863281 2.859375 7.535156 0 10.367188l-67.292969 67.339843c-6.832031 6.804688-6.832031 17.988281 0 24.792969 6.832032 6.835938 17.984375 6.835938 24.816406 0zm0 0" fill="#e6e6e6"/><path d="m103.132812 231.761719-98.007812 98.03125c-6.832031 6.804687-6.832031 17.988281 0 24.824219 1.957031 1.957031 4.292969 3.355468 6.800781 4.203124-2.074219-6.132812-.671875-13.199218 4.203125-18.046874l98.007813-98.03125c4.058593-4.058594 10.714843-4.085938 14.804687-.027344l-10.949218-10.953125c-4.085938-4.085938-10.773438-4.085938-14.859376 0zm0 0" fill="#adafb3"/><path d="m408.949219 136.796875c17.78125 17.785156 46.886719 17.785156 64.667969 0l32.960937-32.96875c5.894531-5.898437 5.894531-15.566406 0-21.464844l-77.921875-77.9375c-5.898438-5.902343-15.5625-5.902343-21.457031 0l-32.960938 32.96875c-17.78125 17.78125-17.78125 46.898438 0 64.683594l3.589844 3.589844 28.40625 28.414062zm44.609375-28.265625c-7.152344 7.152344-18.832032 7.152344-25.984375 0l-23.96875-23.976562c-7.152344-7.152344-7.152344-18.863282 0-25.988282l13.226562-13.257812c2.394531-2.367188 6.246094-2.367188 8.640625 0l41.339844 41.347656c2.367188 2.367188 2.367188 6.25 0 8.617188zm0 0" fill="#a66d30"/><path d="m374.238281 37.394531c-17.78125 17.78125-17.78125 46.898438 0 64.683594l3.589844 3.589844 7.414063 7.417969c-2.335938-2.335938-4.347657-4.847657-6.042969-7.503907-11.441407-17.699219-9.429688-41.730469 6.042969-57.179687l32.960937-32.96875c5.898437-5.898438 15.535156-5.898438 21.429687 0l-10.976562-11.007813c-5.898438-5.902343-15.5625-5.902343-21.457031 0zm0 0" fill="#6e3e0b"/></g></svg>