<svg height="512pt" viewBox="0 0 512.0004 512" width="512pt" xmlns="http://www.w3.org/2000/svg"><g fill-rule="evenodd"><path d="m204.320312 279.265625 1.488282 27.714844 27.324218 1.050781 172.589844-172.265625-.117187-28.796875h-28.722657zm0 0" fill="#f5df87"/><path d="m376.882812 106.96875 28.839844 28.796875 2.75 2.742187c18.023438 17.988282 47.566406 17.988282 65.585938 0l33.464844-33.40625c5.96875-5.957031 5.96875-15.742187 0-21.699218l-79.070313-78.933594c-5.996094-5.957031-15.765625-5.957031-21.761719 0l-33.4375 33.378906c-18.046875 18.015625-18.046875 47.484375 0 65.5zm76.84375 2.921875c-7.253906 7.210937-19.128906 7.210937-26.382812 0l-24.308594-24.296875c-7.257812-7.242188-7.257812-19.070312 0-26.3125l13.425782-13.433594c2.398437-2.394531 6.347656-2.394531 8.746093 0l41.949219 41.878906c2.398438 2.421876 2.398438 6.335938 0 8.730469zm0 0" fill="#a66d30"/><path d="m144.90625 266.273438 27.085938 62.523437 74.15625 38.546875 13.339843-13.316406c5.414063-5.402344 5.414063-14.28125 0-19.683594l-26.355469-26.3125-28.816406-28.765625-26.355468-26.3125c-5.414063-5.402344-14.304688-5.402344-19.714844 0zm0 0" fill="#a66d30"/><path d="m10.722656 385.476562c-18.515625 35.628907-13.046875 70 16.382813 99.464844 29.515625 29.378906 63.945312 34.839844 99.632812 16.355469l115.960938-60.042969c20.242187-10.746094 39.664062-37.785156 10.851562-66.550781l-7.402343-7.359375-50.605469-50.550781-50.636719-50.519531-7.371094-7.390626c-28.816406-28.765624-55.902344-9.371093-66.667968 10.835938zm0 0" fill="#e6e6e6"/><path d="m144.90625 266.273438 8.191406 8.148437 7.398438 7.386719 13.3125-13.316406c5.410156-5.402344 14.273437-5.402344 19.6875-.027344l-15.535156-15.507813c-5.410157-5.402343-14.304688-5.402343-19.714844 0zm0 0" fill="#6e3e0b"/><path d="m373.253906 37.847656c-18.046875 18.015625-18.046875 47.484375 0 65.5l3.628906 3.621094 11.933594 11.917969c-3.570312-3.566407-6.464844-7.59375-8.601562-11.917969-8.714844-17.34375-5.847656-39.128906 8.601562-53.585938l33.4375-33.378906c5.996094-5.957031 15.765625-5.957031 21.761719 0l-15.5625-15.535156c-5.996094-5.957031-15.765625-5.957031-21.761719 0zm0 0" fill="#6e3e0b"/><path d="m376.882812 106.96875-172.5625 172.296875 15.5625 15.539063 172.589844-172.269532-3.65625-3.648437zm0 0" fill="#d9a13f"/><path d="m70.867188 269.71875-60.144532 115.757812c-18.515625 35.628907-13.046875 70 16.382813 99.464844 2.691406 2.65625 5.410156 5.140625 8.160156 7.417969-22.816406-27.566406-25.800781-58.960937-8.980469-91.34375l60.144532-115.734375c6.960937-13.082031 21.414062-34.105469 48.882812-28.53125-27.996094-25.640625-53.945312-6.714844-64.445312 12.96875zm0 0" fill="#adafb3"/></g></svg>