<svg height="512pt" viewBox="-19 0 512 512.00029" width="512pt" xmlns="http://www.w3.org/2000/svg"><g fill-rule="evenodd"><path d="m175.160156.00390625c-43.78125-.26171825-87.710937 24.91796875-101.078125 62.42968775-30.066406-1.417969-55.242187 21.796875-55.242187 51.027344 0 9.8125 2.835937 18.988281 7.785156 26.773437-15.917969 8.769531-26.625 25.382813-26.625 44.398437 0 14.242188 5.988281 27.121094 15.683594 36.382813-3.296875 8.421875-5.121094 17.511719-5.121094 26.976563 0 28.480468 16.4375 53.546874 40.859375 67.292968 12.558594 7.09375 27.257813 11.171875 42.945313 11.171875h46.648437c133.457031-23.789062 170.703125-237.078125 97.808594-308.308593-18.464844-11.632813-41.0625-18.289063-63.664063-18.14453175zm0 0" fill="#178035"/><path d="m379.632812 374.15625c46.097657 0 83.804688-35.308594 83.804688-78.464844 0-9.464844-1.824219-18.554687-5.121094-26.976562 9.664063-9.261719 15.683594-22.140625 15.683594-36.382813 0-19.015625-10.734375-35.628906-26.621094-44.398437 4.945313-7.785156 7.78125-16.960938 7.78125-26.773438 0-23.53125-16.320312-43.125-38.339844-49.175781.171876-104.253906-109.761718-128.25-177.996093-93.863281-30.617188 15.457031-52.839844 42.664062-52.957031 79.652344 0 4.457031.664062 8.769531 1.9375 12.824218-25.464844 3.441406-45.285157 24.628906-45.285157 50.5625 0 9.8125 2.863281 18.988282 7.8125 26.773438-15.917969 8.769531-26.652343 25.382812-26.652343 44.402344 0 14.238281 6.019531 27.117187 15.710937 36.378906-3.328125 8.425781-5.121094 17.511718-5.121094 26.976562 0 10.914063 2.402344 21.304688 6.742188 30.769532 3.5 7.640624 8.277343 14.671874 14.0625 20.867187 9.871093 10.507813 22.660156 18.582031 37.15625 23.007813 8.132812 2.492187 16.816406 3.824218 25.8125 3.824218h154.382812 7.207031zm0 0" fill="#8fde56"/><path d="m315.914062 503.390625v-128.886719l.257813-.34375 27.175781-38.003906c15.507813-21.738281-13.890625-38.613281-26.101562-21.21875l-19.882813 28.425781-29.371093-41.910156c-11.691407-16.671875-39.527344 2.285156-26.074219 21.214844l36.636719 51.492187.230468.347656v129.839844h37.128906zm0 0" fill="#a66d30"/><path d="m231.472656 223.96875c11.199219 5.527344 24.773438.925781 30.296875-10.273438 5.527344-11.203124.925781-24.746093-10.269531-30.277343-11.199219-5.527344-24.742188-.925781-30.269531 10.277343-5.558594 11.199219-.957031 24.746094 10.242187 30.273438zm0 0" fill="#ff698f"/><path d="m346.355469 143.332031c11.199219 5.527344 24.742187.953125 30.269531-10.246093 5.527344-11.203126.925781-24.777344-10.242188-30.304688-11.199218-5.527344-24.773437-.925781-30.300781 10.273438-5.527343 11.203124-.925781 24.75 10.273438 30.277343zm0 0" fill="#ff698f"/><path d="m192.234375 457.542969v-87.207031c-.261719-.085938-.523437-.171876-.78125-.230469-14.179687-4.484375-26.683594-12.445313-36.375-22.777344v110.1875l18.691406.027344zm0 0" fill="#a66d30"/><path d="m265.53125 298.671875c-12.644531-11.460937-36.199219 6.28125-23.609375 23.996094l36.632813 51.488281.234374.347656v129.839844h18.574219v-128.914062l-.230469-.316407-.695312-.953125-35.9375-50.566406c-7.207031-10.132812-2.605469-20.261719 5.03125-24.921875zm0 0" fill="#6e3e0b"/><path d="m155.078125 347.328125v110.1875l14.929687.03125v-97.65625c-5.496093-3.621094-10.503906-7.847656-14.929687-12.5625zm0 0" fill="#6e3e0b"/><path d="m238.824219 18.148438c-30.644531 15.429687-52.839844 42.636718-52.957031 79.625 0 4.457031.664062 8.769531 1.9375 12.824218-25.464844 3.441406-45.285157 24.628906-45.285157 50.5625 0 9.8125 2.863281 18.988282 7.8125 26.773438-15.917969 8.769531-26.652343 25.382812-26.652343 44.402344 0 14.238281 6.019531 27.117187 15.710937 36.378906-3.328125 8.425781-5.121094 17.511718-5.121094 26.976562 0 10.914063 2.402344 21.304688 6.742188 30.769532 3.5 7.640624 8.277343 14.671874 14.0625 20.867187 9.871093 10.507813 22.660156 18.550781 37.15625 23.007813 5.789062 1.765624 11.867187 2.953124 18.117187 3.503906-9.867187-20.722656-17.101562-42.894532-21.296875-66.109375-2.78125-15.28125-4.199219-31.027344-4.199219-47.117188 0-75.371093 31.71875-143.445312 82.734376-192.070312 24.65625-23.472657 53.796874-42.402344 86.0625-55.398438-36.027344-14.820312-80.648438-12.246093-114.824219 4.976563zm0 0" fill="#47a831"/></g><path d="m209.855469 465.199219h-72.371094c-4.226563 0-7.65625-3.429688-7.65625-7.65625 0-4.226563 3.429687-7.652344 7.65625-7.652344h72.371094c4.230469 0 7.65625 3.425781 7.65625 7.652344 0 4.226562-3.425781 7.65625-7.65625 7.65625zm0 0" fill="#6e3e0b"/><path d="m341.292969 512h-87.886719c-4.226562 0-7.65625-3.425781-7.65625-7.652344 0-4.226562 3.429688-7.65625 7.65625-7.65625h87.886719c4.226562 0 7.652343 3.429688 7.652343 7.65625 0 4.226563-3.425781 7.652344-7.652343 7.652344zm0 0" fill="#6e3e0b"/></svg>