<svg height="512pt" viewBox="0 -19 512 512" width="512pt" xmlns="http://www.w3.org/2000/svg"><g fill-rule="evenodd"><path d="m216.972656 199.378906c0 3.917969 3.179688 7.132813 7.125 7.132813h63.804688c3.914062 0 7.125-3.214844 7.125-7.132813v-34.371094l-39.042969-18.558593-39.015625 18.558593v34.371094zm0 0" fill="#f5df87"/><path d="m216.972656 165.007812v34.371094c0 3.917969 3.179688 7.132813 7.125 7.132813h19.503906c-1.867187 0-3.5625-.703125-4.816406-1.871094-1.429687-1.316406-2.308594-3.1875-2.308594-5.261719v-34.371094zm0 0" fill="#d9a13f"/><path d="m236.421875 206.511719v217.859375l19.5625 34.109375 19.566406-34.109375v-217.859375zm0 0" fill="#e6e6e6"/><path d="m191.859375 138.996094c-10.894531 26.890625 7.09375 26.011718 15.359375 26.011718h97.535156c8.261719 0 26.28125.878907 15.386719-26.011718-10.277344-25.339844-35.128906-43.226563-64.15625-43.226563s-53.875 17.886719-64.125 43.226563zm0 0" fill="#b3adad"/><path d="m228.507812 57.246094c32.089844-93.144532-87.492187-58.25-12.296874 3.011718 5.636718 4.589844 9.230468 5.40625 12.296874-3.011718zm0 0" fill="#81c6e6"/><path d="m222.433594 2.769531c-20.414063-12.042969-55.980469 16.949219-6.222656 57.488281 5.171874 4.210938 8.644531 5.261719 11.535156-1.167968-33.492188-29.550782-21.636719-52.316406-5.3125-56.320313zm0 0" fill="#349ecf"/><path d="m236.421875 206.511719v217.859375h14.65625v-217.859375zm0 0" fill="#adafb3"/><path d="m191.859375 138.996094c-10.894531 26.890625 7.09375 26.011718 15.359375 26.011718h21.898438c-2.917969-.027343-6.394532-.203124-9.371094-1.3125-6.074219-2.25-10.132813-8.332031-3.503906-24.699218 8.789062-21.714844 28.296874-37.9375 51.949218-42.144532-3.96875-.730468-8.03125-1.082031-12.207031-1.082031-29.023437 0-53.875 17.886719-64.125 43.226563zm0 0" fill="#757a85"/><path d="m291.785156 61.691406c82.789063-53.28125-32.734375-99.929687-11.503906-5.234375 1.578125 7.074219 3.882812 9.96875 11.503906 5.234375zm0 0" fill="#81c6e6"/><path d="m320.695312 15.132812c-8.613281-22.097656-54.460937-21.367187-40.414062 41.324219 1.460938 6.519531 3.503906 9.472657 9.753906 6.226563-8.03125-43.957032 15.359375-54.507813 30.660156-47.550782zm0 0" fill="#349ecf"/><path d="m335.445312 99.304688c94.730469 26.800781 53.148438-90.691407-3.710937-12.097657-4.234375 5.875-4.847656 9.527344 3.710937 12.097657zm0 0" fill="#81c6e6"/><path d="m389.46875 90.15625c10.832031-21.070312-20.089844-54.976562-57.734375-2.949219-3.882813 5.40625-4.730469 8.914063 1.8125 11.457031 27.59375-35.160156 50.984375-24.582031 55.921875-8.507812zm0 0" fill="#349ecf"/><path d="m171.738281 91.824219c-26.839843-94.785157-105.042969 2.25-8.351562 9.46875 7.210937.554687 10.628906-.816407 8.351562-9.46875zm0 0" fill="#81c6e6"/><path d="m135.644531 50.582031c-23.65625 1.785157-36.269531 45.917969 27.742188 50.710938 6.628906.496093 10.074219-.613281 8.789062-7.511719-44.386719-5.113281-47.65625-30.570312-36.53125-43.199219zm0 0" fill="#349ecf"/><path d="m19.625 324.882812c4.320312 37.878907 43.160156 64.738282 62.929688 39.339844l.085937-.117187c.847656-1.113281 1.605469-2.222657 2.28125-3.390625 12.730469-21.863282-8.292969-49.890625-53.820313-47.375-7.449218.378906-11.972656 3.59375-11.476562 11.542968zm0 0" fill="#8fde56"/><path d="m19.625 324.882812c4.320312 37.878907 43.160156 64.738282 62.929688 39.339844l.085937-.117187c.671875-.878907 1.285156-1.753907 1.839844-2.628907-20.5 7.1875-47.773438-16.632812-51.335938-48.023437 0-.054687 0-.144531-.027343-.203125-.644532 0-1.316407.027344-2.015626.089844-7.449218.378906-11.972656 3.59375-11.476562 11.542968zm0 0" fill="#47a831"/><path d="m194.953125 324.882812c-4.292969 37.878907-43.132813 64.738282-62.902344 39.339844l-.117187-.117187c-.84375-1.113281-1.605469-2.222657-2.277344-3.390625-12.730469-21.863282 8.324219-49.890625 53.820312-47.375 7.445313.378906 11.972657 3.59375 11.476563 11.542968zm0 0" fill="#8fde56"/><path d="m194.953125 324.882812c-4.292969 37.878907-43.132813 64.738282-62.902344 39.339844l-.117187-.117187c-.671875-.878907-1.253906-1.753907-1.808594-2.628907 20.46875 7.1875 47.773438-16.632812 51.335938-48.023437 0-.054687 0-.144531 0-.203125.671874 0 1.34375.027344 2.015624.089844 7.445313.378906 11.972657 3.59375 11.476563 11.542968zm0 0" fill="#47a831"/></g><path d="m159.21875 342.960938c-2.203125-3.664063-6.957031-4.851563-10.625-2.648438l-33.566406 20.164062v-68.945312c0-4.273438-3.464844-7.742188-7.738282-7.742188-4.277343 0-7.742187 3.46875-7.742187 7.742188v68.945312l-33.566406-20.164062c-3.664063-2.203125-8.417969-1.015625-10.621094 2.648438-2.203125 3.667968-1.015625 8.425781 2.652344 10.625l41.535156 24.953124v45.832032c0 4.277344 3.464844 7.742187 7.742187 7.742187 4.273438 0 7.738282-3.464843 7.738282-7.742187v-45.832032l41.539062-24.953124c3.664063-2.199219 4.851563-6.957032 2.652344-10.625zm0 0" fill="#178035"/><path d="m317.953125 324.882812c4.292969 37.878907 43.160156 64.738282 62.929687 39.339844l.085938-.117187c.847656-1.113281 1.605469-2.222657 2.277344-3.390625 12.734375-21.863282-8.292969-49.890625-53.816406-47.375-7.449219.378906-11.972657 3.59375-11.476563 11.542968zm0 0" fill="#8fde56" fill-rule="evenodd"/><path d="m317.953125 324.882812c4.292969 37.878907 43.160156 64.738282 62.929687 39.339844l.085938-.117187c.671875-.878907 1.285156-1.753907 1.839844-2.628907-20.5 7.1875-47.773438-16.632812-51.335938-48.023437-.027344-.054687-.027344-.144531-.027344-.203125-.671874 0-1.34375.027344-2.015624.089844-7.449219.378906-11.972657 3.59375-11.476563 11.542968zm0 0" fill="#47a831" fill-rule="evenodd"/><path d="m493.28125 324.882812c-4.292969 37.878907-43.160156 64.738282-62.929688 39.339844l-.089843-.117187c-.847657-1.113281-1.605469-2.222657-2.277344-3.390625-12.730469-21.863282 8.292969-49.890625 53.820313-47.375 7.449218.378906 11.972656 3.59375 11.476562 11.542968zm0 0" fill="#8fde56" fill-rule="evenodd"/><path d="m493.28125 324.882812c-4.292969 37.878907-43.160156 64.738282-62.929688 39.339844l-.089843-.117187c-.671875-.878907-1.285157-1.753907-1.839844-2.628907 20.5 7.1875 47.777344-16.632812 51.339844-48.023437.027343-.054687.027343-.144531.027343-.203125.671876 0 1.34375.027344 2.015626.089844 7.449218.378906 11.972656 3.59375 11.476562 11.542968zm0 0" fill="#47a831" fill-rule="evenodd"/><path d="m457.546875 342.960938c-2.203125-3.664063-6.957031-4.851563-10.621094-2.648438l-33.566406 20.164062v-68.945312c0-4.273438-3.46875-7.742188-7.742187-7.742188-4.273438 0-7.742188 3.46875-7.742188 7.742188v68.945312l-33.5625-20.164062c-3.667969-2.203125-8.421875-1.015625-10.625 2.648438-2.199219 3.667968-1.011719 8.425781 2.652344 10.625l41.535156 24.953124v45.832032c0 4.277344 3.46875 7.742187 7.742188 7.742187 4.273437 0 7.742187-3.464843 7.742187-7.742187v-45.832032l41.535156-24.953124c3.664063-2.199219 4.851563-6.957032 2.652344-10.625zm0 0" fill="#178035"/><path d="m130.941406 216.304688c-2.890625-10.347657-12.382812-17.917969-23.625-17.917969-11.035156 0-20.382812 7.277343-23.476562 17.304687-.964844-.117187-1.925782-.175781-2.917969-.175781-13.582031 0-24.5625 10.988281-24.5625 24.550781 0 8.945313 4.761719 16.746094 11.886719 21.042969-2.042969 3.59375-3.210938 7.773437-3.210938 12.1875 0 13.5625 10.980469 24.582031 24.527344 24.582031 3.796875 0 7.417969-.878906 10.632812-2.425781 2.6875-1.289063 5.078126-3.042969 7.125-5.175781 2.042969 2.164062 4.496094 3.949218 7.210938 5.234375 3.183594 1.519531 6.746094 2.367187 10.515625 2.367187 13.546875 0 24.527344-11.019531 24.527344-24.582031 0-4.207031-1.050781-8.183594-2.917969-11.660156 7.007812-4.328125 11.707031-12.101563 11.707031-20.957031 0-13.5625-11.007812-24.550782-24.558593-24.550782-.964844 0-1.925782.058594-2.863282.175782zm0 0" fill="#ff698f" fill-rule="evenodd"/><path d="m106.410156 228.695312c-12.699218 0-22.980468 10.316407-22.980468 23 0 12.714844 10.28125 23.003907 22.980468 23.003907 12.675782 0 22.984375-10.289063 22.984375-23.003907 0-12.683593-10.308593-23-22.984375-23zm0 0" fill="#f5df87" fill-rule="evenodd"/><path d="m107.316406 198.386719c-11.035156 0-20.382812 7.277343-23.476562 17.304687-.964844-.117187-1.925782-.175781-2.917969-.175781-13.582031 0-24.5625 10.988281-24.5625 24.550781 0 8.945313 4.761719 16.746094 11.886719 21.042969-2.042969 3.59375-3.210938 7.773437-3.210938 12.1875 0 13.5625 10.980469 24.582031 24.527344 24.582031 3.796875 0 7.417969-.878906 10.632812-2.425781.464844-.234375.960938-.46875 1.402344-.730469-15.945312-8.304687-26.75-24.289062-26.75-42.644531 0-25.574219 20.9375-46.53125 47.539063-48.515625-4.148438-3.246094-9.402344-5.175781-15.070313-5.175781zm0 0" fill="#cf4b82" fill-rule="evenodd"/><path d="m106.410156 228.695312c-12.699218 0-22.980468 10.316407-22.980468 23 0 12.714844 10.28125 23.003907 22.980468 23.003907 2.570313 0 5.082032-.410157 7.390625-1.199219-9.054687-3.097656-15.566406-11.691406-15.566406-21.804688 0-10.082031 6.511719-18.675781 15.566406-21.773437-2.308593-.789063-4.820312-1.226563-7.390625-1.226563zm0 0" fill="#d9a13f" fill-rule="evenodd"/><path d="m429.269531 216.304688c-2.917969-10.347657-12.378906-17.917969-23.652343-17.917969-11.007813 0-20.355469 7.277343-23.449219 17.304687-.964844-.117187-1.957031-.175781-2.949219-.175781-13.550781 0-24.53125 10.988281-24.53125 24.550781 0 8.945313 4.761719 16.746094 11.886719 21.042969-2.042969 3.59375-3.242188 7.773437-3.242188 12.1875 0 13.5625 11.011719 24.582031 24.558594 24.582031 3.796875 0 7.390625-.878906 10.601563-2.425781 2.6875-1.289063 5.109374-3.042969 7.125-5.175781 2.074218 2.164062 4.496093 3.949218 7.242187 5.234375 3.183594 1.519531 6.746094 2.367187 10.511719 2.367187 13.550781 0 24.53125-11.019531 24.53125-24.582031 0-4.207031-1.050782-8.183594-2.949219-11.660156 7.039063-4.328125 11.710937-12.101563 11.710937-20.957031 0-13.5625-10.980468-24.550782-24.53125-24.550782-.964843 0-1.929687.058594-2.863281.175782zm0 0" fill="#ff698f" fill-rule="evenodd"/><path d="m404.710938 228.695312c-12.671876 0-22.980469 10.316407-22.980469 23 0 12.714844 10.308593 23.003907 22.980469 23.003907 12.703124 0 22.984374-10.289063 22.984374-23.003907 0-12.683593-10.28125-23-22.984374-23zm0 0" fill="#f5df87" fill-rule="evenodd"/><path d="m405.617188 198.386719c-11.007813 0-20.355469 7.277343-23.449219 17.304687-.964844-.117187-1.957031-.175781-2.949219-.175781-13.550781 0-24.53125 10.988281-24.53125 24.550781 0 8.945313 4.761719 16.746094 11.886719 21.042969-2.042969 3.59375-3.242188 7.773437-3.242188 12.1875 0 13.5625 11.011719 24.582031 24.558594 24.582031 3.796875 0 7.390625-.878906 10.601563-2.425781.496093-.234375.964843-.46875 1.429687-.730469-15.972656-8.304687-26.777344-24.289062-26.777344-42.644531 0-25.574219 20.9375-46.53125 47.570313-48.515625-4.175782-3.246094-9.402344-5.175781-15.097656-5.175781zm0 0" fill="#cf4b82" fill-rule="evenodd"/><path d="m404.710938 228.695312c-12.671876 0-22.980469 10.316407-22.980469 23 0 12.714844 10.308593 23.003907 22.980469 23.003907 2.601562 0 5.082031-.410157 7.417968-1.199219-9.054687-3.097656-15.566406-11.691406-15.566406-21.804688 0-10.082031 6.511719-18.675781 15.566406-21.773437-2.335937-.789063-4.816406-1.226563-7.417968-1.226563zm0 0" fill="#d9a13f" fill-rule="evenodd"/><path d="m24.792969 474h462.414062c13.636719 0 24.792969-11.164062 24.792969-24.8125 0-13.652344-11.15625-24.816406-24.792969-24.816406h-462.414062c-13.636719 0-24.792969 11.164062-24.792969 24.816406 0 13.648438 11.15625 24.8125 24.792969 24.8125zm0 0" fill="#a66d30" fill-rule="evenodd"/><path d="m0 449.1875c0 13.648438 11.15625 24.8125 24.792969 24.8125h44.417969c-13.640626 0-24.796876-11.164062-24.796876-24.8125 0-13.652344 11.15625-24.816406 24.796876-24.816406h-44.417969c-13.636719 0-24.792969 11.164062-24.792969 24.816406zm0 0" fill="#6e3e0b" fill-rule="evenodd"/></svg>