<svg height="512pt" viewBox="-67 0 512 512" width="512pt" xmlns="http://www.w3.org/2000/svg"><g fill-rule="evenodd"><path d="m378 255.984375c-.851562 48.386719-6.769531 96.308594-15.296875 153.925781-4.671875 31.652344-5.945313 24.9375 7.703125 53.730469 9.574219 20.207031 1.53125 48.359375-27.273438 48.359375h-310.046874c-28.808594 0-36.851563-28.152344-27.277344-48.359375 13.679687-28.820313 12.292968-22.078125 7.789062-53.730469-7.820312-55.046875-12.832031-104.75-13.597656-153.925781.765625-49.175781 5.777344-98.847656 13.597656-153.921875 4.503906-31.65625 5.890625-24.910156-7.789062-53.734375-9.574219-20.175781-1.53125-48.328125 27.277344-48.328125h310.046874c28.804688 0 36.851563 28.152344 27.277344 48.328125-13.652344 28.824219-12.378906 22.078125-7.707031 53.734375 8.527344 57.613281 14.445313 105.535156 15.296875 153.921875zm0 0" fill="#e6e6e6"/><path d="m13.992188 99.316406h348.289062c-2.578125-17.054687-3.910156-21.960937-1.730469-29.113281h-344.914062c2.179687 7.152344.847656 12.03125-1.644531 29.113281zm0 0" fill="#f5df87"/><path d="m13.597656 409.910156c2.265625 15.828125 3.710938 22.078125 2.914063 27.945313h343.160156c-.792969-5.898438.710937-12.117188 3.03125-27.945313.058594-.378906.113281-.789062.171875-1.195312h-349.449219c.058594.40625.113281.816406.171875 1.195312zm0 0" fill="#f5df87"/><path d="m33.085938 0c-28.808594 0-36.851563 28.152344-27.277344 48.328125 5.324218 11.242187 8.382812 17.054687 9.828125 21.871094h33.507812c-.113281-.40625-.226562-.785157-.339843-1.195313-1.472657-4.816406-4.503907-10.660156-9.828126-21.871094-8.386718-17.726562-3.230468-41.554687 17.589844-47.132812zm0 0" fill="#b3adad"/><path d="m15.636719 70.203125c2.179687 7.152344.847656 12.03125-1.644531 29.113281h33c.058593-.410156.113281-.789062.167968-1.199218 2.351563-16.117188 3.683594-21.375 1.984375-27.914063zm0 0" fill="#d9a13f"/><path d="m13.597656 102.0625c-7.820312 55.074219-12.832031 104.746094-13.597656 153.921875.765625 48.828125 5.722656 98.148437 13.425781 152.726563h33.339844c-.058594-.40625-.113281-.785157-.171875-1.195313-7.703125-54.578125-12.660156-103.902344-13.425781-152.726563.765625-49.175781 5.777343-98.851562 13.597656-153.925781.085937-.523437.140625-1.050781.226563-1.546875h-33c-.113282.875-.253907 1.8125-.394532 2.746094zm0 0" fill="#b3adad"/><path d="m5.808594 463.640625c-9.574219 20.207031-1.53125 48.359375 27.277344 48.359375h310.046874c3.539063 0 6.769532-.4375 9.6875-1.226562h-286.566406c-28.808594 0-36.851562-28.152344-27.277344-48.328126 6.371094-13.433593 9.460938-19.128906 10.507813-24.589843h-32.96875c-.796875 5.871093-3.882813 11.390625-10.707031 25.785156zm0 0" fill="#b3adad"/><path d="m13.597656 409.910156c2.265625 15.828125 3.710938 22.078125 2.914063 27.945313h32.972656c.085937-.410157.140625-.816407.199219-1.226563.792968-5.871094-.652344-12.089844-2.917969-27.917968h-33.339844zm0 0" fill="#d9a13f"/><path d="m96.730469 269.476562c4.558593 41.234376 45.632812 70.496094 66.535156 42.839844l.085937-.144531c.90625-1.199219 1.726563-2.425781 2.410157-3.679687 13.480469-23.832032-8.753907-54.347657-56.878907-51.601563-7.875.4375-12.660156 3.914063-12.152343 12.585937zm0 0" fill="#8fde56"/><path d="m96.730469 269.476562c4.558593 41.234376 45.632812 70.496094 66.535156 42.839844l.085937-.144531c.707032-.9375 1.359376-1.898437 1.953126-2.863281-21.667969 7.824218-50.503907-18.105469-54.269532-52.300782-.027344-.058593-.027344-.148437-.027344-.234374-.707031.027343-1.417968.058593-2.125.117187-7.875.4375-12.660156 3.914063-12.152343 12.585937zm0 0" fill="#47a831"/><path d="m282.117188 269.476562c-4.558594 41.234376-45.628907 70.496094-66.535157 42.839844l-.113281-.144531c-.875-1.199219-1.699219-2.425781-2.40625-3.679687-13.453125-23.832032 8.78125-54.347657 56.90625-51.601563 7.875.4375 12.660156 3.914063 12.148438 12.585937zm0 0" fill="#8fde56"/><path d="m282.117188 269.476562c-4.558594 41.234376-45.628907 70.496094-66.535157 42.839844l-.113281-.144531c-.707031-.9375-1.328125-1.898437-1.925781-2.863281 21.671875 7.824218 50.503906-18.105469 54.273437-52.300782 0-.058593.027344-.148437.027344-.234374.707031.027343 1.414062.058593 2.125.117187 7.875.4375 12.660156 3.914063 12.148438 12.585937zm0 0" fill="#47a831"/></g><path d="m243.730469 289.503906c-2.132813-3.65625-6.734375-4.835937-10.285157-2.640625l-36.539062 22.632813v-76.347656c0-4.261719-3.355469-7.71875-7.496094-7.71875s-7.496094 3.457031-7.496094 7.71875v76.34375l-36.507812-22.628907c-3.550781-2.199219-8.152344-1.019531-10.289062 2.636719-2.132813 3.652344-.988282 8.398438 2.558593 10.597656l44.238281 27.417969v50.269531c0 4.265625 3.355469 7.722656 7.496094 7.722656s7.496094-3.457031 7.496094-7.722656v-50.269531l44.265625-27.417969c3.546875-2.199218 4.691406-6.941406 2.558594-10.59375zm0 0" fill="#178035"/><path d="m214.421875 151.207031c-3.058594-11.269531-13.085937-19.507812-24.984375-19.507812-11.667969 0-21.527344 7.914062-24.8125 18.835937-1.019531-.117187-2.039062-.203125-3.113281-.203125-14.304688 0-25.949219 12.003907-25.949219 26.75 0 9.753907 5.042969 18.25 12.578125 22.953125-2.152344 3.882813-3.398437 8.410156-3.398437 13.257813 0 14.773437 11.613281 26.746093 25.945312 26.746093 4.023438 0 7.816406-.933593 11.214844-2.625 2.835937-1.402343 5.382812-3.328124 7.535156-5.636718 2.183594 2.335937 4.761719 4.292968 7.621094 5.695312 3.371094 1.632813 7.136718 2.566406 11.132812 2.566406 14.332032 0 25.945313-11.972656 25.945313-26.746093 0-4.613281-1.132813-8.9375-3.117188-12.703125 7.421875-4.730469 12.378907-13.171875 12.378907-22.808594 0-14.773438-11.613282-26.75-25.945313-26.75-1.019531 0-2.039063.0625-3.03125.175781zm0 0" fill="#ff698f" fill-rule="evenodd"/><path d="m188.476562 164.730469c-13.425781 0-24.304687 11.210937-24.304687 25.054687 0 13.8125 10.878906 25.023438 24.304687 25.023438 13.425782 0 24.300782-11.210938 24.300782-25.023438 0-13.84375-10.875-25.054687-24.300782-25.054687zm0 0" fill="#f5df87" fill-rule="evenodd"/><path d="m189.4375 131.699219c-11.667969 0-21.527344 7.914062-24.8125 18.835937-1.019531-.117187-2.039062-.203125-3.113281-.203125-14.304688 0-25.949219 12.003907-25.949219 26.75 0 9.753907 5.042969 18.25 12.578125 22.953125-2.152344 3.882813-3.398437 8.410156-3.398437 13.257813 0 14.773437 11.613281 26.746093 25.945312 26.746093 4.023438 0 7.816406-.933593 11.214844-2.625.511718-.265624 1.023437-.527343 1.503906-.820312-16.882812-9.023438-28.296875-26.425781-28.296875-46.429688 0-27.828124 22.121094-50.667968 50.277344-52.828124-4.417969-3.53125-9.941407-5.636719-15.949219-5.636719zm0 0" fill="#cf4b82" fill-rule="evenodd"/><path d="m188.476562 164.730469c-13.425781 0-24.304687 11.210937-24.304687 25.054687 0 13.8125 10.878906 25.023438 24.304687 25.023438 2.746094 0 5.382813-.464844 7.816407-1.3125-9.574219-3.359375-16.457031-12.703125-16.457031-23.710938 0-11.011718 6.882812-20.382812 16.457031-23.742187-2.433594-.847657-5.070313-1.3125-7.816407-1.3125zm0 0" fill="#d9a13f" fill-rule="evenodd"/></svg>