<svg height="512pt" viewBox="0 -53 512.001 512" width="512pt" xmlns="http://www.w3.org/2000/svg"><g fill-rule="evenodd"><g fill="#a66d30"><path d="m27.714844 299.863281v99.621094c0 3.035156 2.480468 5.515625 5.515625 5.515625h49.46875c3.039062 0 5.519531-2.480469 5.519531-5.515625v-99.621094l-32.910156-18.53125zm0 0"/><path d="m423.78125 299.863281v99.621094c0 3.035156 2.480469 5.515625 5.519531 5.515625h49.46875c3.035157 0 5.515625-2.480469 5.515625-5.515625v-99.621094l-35.449218-18.53125zm0 0"/><path d="m52.769531 182.789062v32.710938l40.558594 9.628906 43.980469-9.628906v-32.710938l-43.980469-9.628906zm0 0"/><path d="m371.917969 182.789062v33.0625l40.128906 13.394532 44.410156-13.394532v-33.0625l-43.316406-20.515624zm0 0"/><path d="m371.917969 110.945312v32.710938l42.253906 17.1875 42.257813-17.1875v-32.710938l-42.257813-19.257812zm0 0"/><path d="m52.769531 110.945312v32.710938l40.558594 19.261719 43.980469-19.261719v-32.710938l-45.03125-14.445312zm0 0"/><path d="m52.769531 39.132812v32.683594l40.558594 14.472656 43.980469-14.472656v-32.683594l-45.585938-19.289062zm0 0"/><path d="m371.917969 39.132812v32.683594l42.808593 14.996094 41.703126-14.996094v-32.683594l-42.257813-19.582031zm0 0"/></g><path d="m52.769531 39.132812h27.683594v32.679688h-27.683594zm0 0" fill="#6e3e0b"/><path d="m52.769531 110.945312h27.683594v32.710938h-27.683594zm0 0" fill="#6e3e0b"/><path d="m52.769531 182.789062h27.683594v32.710938h-27.683594zm0 0" fill="#6e3e0b"/><path d="m371.917969 182.789062h27.652343v33.0625h-27.652343zm0 0" fill="#6e3e0b"/><path d="m371.917969 110.945312h27.652343v32.710938h-27.652343zm0 0" fill="#6e3e0b"/><path d="m371.917969 39.132812h27.652343v32.679688h-27.652343zm0 0" fill="#6e3e0b"/><path d="m52.796875 143.65625h-47.570313c-2.863281 0-5.226562 2.335938-5.226562 5.222656v28.6875c0 2.859375 2.308594 5.191406 5.167969 5.222656h498.917969c2.832031-.03125 5.140624-2.363281 5.140624-5.222656v-28.6875c0-2.886718-2.335937-5.222656-5.199218-5.222656zm0 0" fill="#d9a13f"/><path d="m0 77.039062v28.710938c0 2.863281 2.335938 5.195312 5.199219 5.195312h498.796875c2.894531 0 5.230468-2.332031 5.230468-5.195312v-28.710938c0-2.863281-2.335937-5.222656-5.230468-5.222656h-498.796875c-2.863281 0-5.199219 2.363282-5.199219 5.222656zm0 0" fill="#d9a13f"/><path d="m0 5.195312v28.714844c0 2.859375 2.335938 5.222656 5.199219 5.222656h498.796875c2.894531 0 5.230468-2.367187 5.230468-5.222656v-28.714844c0-2.859374-2.335937-5.195312-5.230468-5.195312h-498.796875c-2.863281 0-5.199219 2.335938-5.199219 5.195312zm0 0" fill="#d9a13f"/><path d="m0 5.195312v28.714844c0 2.859375 2.335938 5.222656 5.199219 5.222656h28.003906c-2.863281 0-5.226563-2.367187-5.226563-5.222656v-28.714844c0-2.859374 2.363282-5.195312 5.226563-5.195312h-28.003906c-2.863281 0-5.199219 2.335938-5.199219 5.195312zm0 0" fill="#a66d30"/><path d="m0 77.039062v28.710938c0 2.863281 2.335938 5.195312 5.199219 5.195312h28.003906c-2.863281 0-5.226563-2.332031-5.226563-5.195312v-28.710938c0-2.863281 2.363282-5.222656 5.226563-5.222656h-28.003906c-2.863281 0-5.199219 2.363282-5.199219 5.222656zm0 0" fill="#a66d30"/><path d="m0 148.878906v28.6875c0 2.859375 2.308594 5.191406 5.140625 5.222656h28.003906c-2.832031-.03125-5.167969-2.363281-5.167969-5.222656v-28.6875c0-2.859375 2.335938-5.191406 5.195313-5.222656h-27.972656c-2.863281 0-5.199219 2.335938-5.199219 5.222656zm0 0" fill="#a66d30"/><path d="m0 257.8125v.027344zm11.15625-36.445312-11.15625 36.445312v.027344c.0273438 2.042968 2.628906 10.097656 5.636719 10.390625l236.246093 22.148437 266.203126-22.792968c3.007812-.261719 3.914062-7.730469 3.914062-9.773438l-11.15625-36.449219c-.902344-2.886719-2.480469-5.515625-5.519531-5.515625h-478.648438c-3.039062.003906-4.644531 2.628906-5.519531 5.519532zm0 0" fill="#f5df87"/><path d="m0 257.839844v36.566406c.0273438 3.003906 2.480469 5.457031 5.519531 5.457031h500.960938c3.039062 0 5.519531-2.480469 5.519531-5.515625v-36.535156c0 2.042969-2.597656 4.113281-5.636719 4.113281h-500.726562c-3.007813 0-5.6093752-2.042969-5.636719-4.085937zm0 0" fill="#d9a13f"/><path d="m27.714844 299.863281v99.621094c0 3.035156 2.480468 5.515625 5.515625 5.515625h21.640625c-3.035156 0-5.519532-2.480469-5.519532-5.515625v-99.621094zm0 0" fill="#6e3e0b"/><path d="m423.78125 299.863281v99.621094c0 3.035156 2.480469 5.515625 5.519531 5.515625h21.636719c-3.035156 0-5.515625-2.480469-5.515625-5.515625v-99.621094zm0 0" fill="#6e3e0b"/></g></svg>