<svg height="512pt" viewBox="0 -30 512 512" width="512pt" xmlns="http://www.w3.org/2000/svg"><path d="m36.515625 146.773438c4.992187 43.941406 50.113281 75.101562 73.089844 45.625l.089843-.117188c.996094-1.292969 1.867188-2.617188 2.648438-3.941406 14.800781-25.386719-9.625-57.867188-62.472656-54.980469-8.664063.480469-13.925782 4.179687-13.355469 13.414063zm0 0" fill="#8fde56" fill-rule="evenodd"/><path d="m36.515625 146.773438c4.992187 43.941406 50.113281 75.101562 73.089844 45.625l.089843-.117188c.785157-1.023438 1.503907-2.046875 2.136719-3.070312-23.792969 8.363281-55.464843-19.277344-59.613281-55.699219 0-.089844 0-.183594-.03125-.273438-.753906.03125-1.535156.089844-2.316406.121094-8.664063.480469-13.925782 4.179687-13.355469 13.414063zm0 0" fill="#47a831" fill-rule="evenodd"/><path d="m240.148438 146.773438c-5.023438 43.941406-50.109376 75.101562-73.089844 45.625l-.089844-.117188c-.992188-1.292969-1.894531-2.617188-2.648438-3.941406-14.796874-25.386719 9.625-57.867188 62.472657-54.980469 8.664062.480469 13.925781 4.179687 13.355469 13.414063zm0 0" fill="#8fde56" fill-rule="evenodd"/><path d="m240.148438 146.773438c-5.023438 43.941406-50.109376 75.101562-73.089844 45.625l-.089844-.117188c-.78125-1.023438-1.503906-2.046875-2.136719-3.070312 23.792969 8.363281 55.464844-19.277344 59.617188-55.699219 0-.089844 0-.183594 0-.273438.78125.03125 1.5625.089844 2.34375.121094 8.664062.480469 13.925781 4.179687 13.355469 13.414063zm0 0" fill="#47a831" fill-rule="evenodd"/><path d="m273.234375 146.773438c5.023437 43.941406 50.113281 75.101562 73.089844 45.625l.089843-.117188c.996094-1.292969 1.898438-2.617188 2.648438-3.941406 14.800781-25.386719-9.625-57.867188-62.472656-54.980469-8.664063.453125-13.925782 4.179687-13.355469 13.414063zm0 0" fill="#8fde56" fill-rule="evenodd"/><path d="m273.234375 146.773438c5.023437 43.941406 50.113281 75.101562 73.089844 45.625l.089843-.117188c.785157-1.023438 1.507813-2.046875 2.136719-3.070312-23.789062 8.363281-55.464843-19.277344-59.613281-55.699219 0-.089844 0-.183594 0-.273438-.785156.03125-1.566406.089844-2.347656.121094-8.664063.453125-13.925782 4.179687-13.355469 13.414063zm0 0" fill="#47a831" fill-rule="evenodd"/><path d="m476.867188 146.773438c-5.023438 43.941406-50.109376 75.101562-73.089844 45.625l-.089844-.117188c-.992188-1.292969-1.894531-2.617188-2.648438-3.941406-14.796874-25.386719 9.625-57.867188 62.476563-54.980469 8.660156.453125 13.925781 4.179687 13.351563 13.414063zm0 0" fill="#8fde56" fill-rule="evenodd"/><path d="m476.867188 146.773438c-5.023438 43.941406-50.109376 75.101562-73.089844 45.625l-.089844-.117188c-.78125-1.023438-1.503906-2.046875-2.136719-3.070312 23.792969 8.363281 55.464844-19.277344 59.617188-55.699219 0-.089844 0-.183594 0-.273438.78125.03125 1.5625.089844 2.34375.121094 8.664062.453125 13.929687 4.179687 13.355469 13.414063zm0 0" fill="#47a831" fill-rule="evenodd"/><path d="m186.8125 165.550781-40.523438 24.339844v-81.796875c0-4.390625-3.5625-7.953125-7.957031-7.953125s-7.957031 3.5625-7.957031 7.953125v81.800781l-40.554688-24.34375c-3.769531-2.261719-8.65625-1.042969-10.917968 2.722657-2.261719 3.765624-1.042969 8.652343 2.726562 10.914062l48.746094 29.261719v53.730469c0 4.390624 3.5625 7.953124 7.957031 7.953124s7.957031-3.5625 7.957031-7.953124v-53.730469l48.71875-29.261719c3.765626-2.261719 4.984376-7.148438 2.722657-10.914062-2.265625-3.765626-7.15625-4.984376-10.917969-2.722657zm0 0" fill="#178035"/><path d="m434.480469 168.273438c-2.261719-3.765626-7.152344-4.980469-10.917969-2.722657l-40.554688 24.34375v-81.800781c0-4.390625-3.5625-7.953125-7.957031-7.953125s-7.957031 3.5625-7.957031 7.953125v81.800781l-40.554688-24.34375c-3.765624-2.261719-8.652343-1.039062-10.917968 2.722657-2.261719 3.765624-1.042969 8.652343 2.722656 10.914062l48.75 29.261719v53.730469c0 4.390624 3.558594 7.953124 7.957031 7.953124 4.394531 0 7.957031-3.5625 7.957031-7.953124v-53.730469l48.746094-29.261719c3.769532-2.261719 4.988282-7.148438 2.726563-10.914062zm0 0" fill="#178035"/><g fill-rule="evenodd"><path d="m58.050781 306.660156v94.742188l197.949219 24.785156 207.121094-24.785156v-94.742188l-202.519532-25.472656zm0 0" fill="#b3adad"/><path d="m58.050781 306.660156h411.117188c12.242187 0 22.226562-10.015625 22.226562-22.253906 0-12.210938-9.984375-22.226562-22.226562-22.226562h-417.160157c-12.242187 0-22.230468 10.015624-22.230468 22.226562 0 12.238281 9.988281 22.253906 22.230468 22.253906zm0 0" fill="#e6e6e6"/><path d="m29.777344 284.40625c0 12.238281 9.988281 22.253906 22.230468 22.253906h44.816407c-4.0625 0-7.882813-1.109375-11.160157-3.035156-6.617187-3.882812-11.070312-11.039062-11.070312-19.21875 0-12.210938 10.015625-22.226562 22.230469-22.226562h-44.816407c-12.242187 0-22.230468 10.015624-22.230468 22.226562zm0 0" fill="#b3adad"/><path d="m24.785156 451h462.429688c13.625 0 24.785156-11.15625 24.785156-24.8125 0-13.625-11.160156-24.785156-24.785156-24.785156h-462.429688c-13.625 0-24.785156 11.160156-24.785156 24.785156 0 13.65625 11.160156 24.8125 24.785156 24.8125zm0 0" fill="#a66d30"/><path d="m0 426.1875c0 13.65625 11.160156 24.8125 24.785156 24.8125h44.425782c-13.625 0-24.785157-11.15625-24.785157-24.8125 0-13.625 11.160157-24.785156 24.785157-24.785156h-44.425782c-13.625 0-24.785156 11.160156-24.785156 24.785156zm0 0" fill="#6e3e0b"/><path d="m58.050781 306.660156h405.070313v27.128906h-367.441406c-5.292969 0-9.714844 3.941407-10.496094 9.023438v58.589844h-27.132813zm0 0" fill="#757a85"/><path d="m165.792969 20.78125c-3.367188-12-14.378907-20.78125-27.460938-20.78125-12.8125 0-23.640625 8.453125-27.222656 20.0625-1.140625-.121094-2.253906-.210938-3.425781-.210938-15.734375 0-28.515625 12.78125-28.515625 28.511719 0 10.375 5.53125 19.429688 13.835937 24.421875-2.40625 4.152344-3.761718 8.992188-3.761718 14.136719 0 15.730469 12.753906 28.480469 28.484374 28.480469 4.421876 0 8.605469-.992188 12.332032-2.796875 3.128906-1.472657 5.925781-3.515625 8.273437-5.984375 2.40625 2.496094 5.234375 4.542968 8.390625 6.046875 3.703125 1.773437 7.851563 2.734375 12.214844 2.734375 15.730469 0 28.511719-12.75 28.511719-28.480469 0-4.902344-1.261719-9.503906-3.425781-13.535156 8.148437-5.023438 13.59375-14.015625 13.59375-24.300781 0-15.730469-12.753907-28.515626-28.515626-28.515626-1.113281 0-2.222656.09375-3.308593.210938zm0 0" fill="#ff698f"/><path d="m137.277344 35.191406c-14.738282 0-26.679688 11.9375-26.679688 26.675782 0 14.738281 11.941406 26.679687 26.679688 26.679687 14.742187 0 26.683594-11.941406 26.683594-26.679687 0-14.738282-11.941407-26.675782-26.683594-26.675782zm0 0" fill="#f5df87"/><path d="m138.332031 0c-12.8125 0-23.640625 8.453125-27.222656 20.0625-1.140625-.121094-2.253906-.210938-3.425781-.210938-15.734375 0-28.515625 12.78125-28.515625 28.511719 0 10.375 5.53125 19.429688 13.835937 24.421875-2.40625 4.152344-3.761718 8.992188-3.761718 14.136719 0 15.730469 12.753906 28.480469 28.484374 28.480469 4.421876 0 8.605469-.992188 12.332032-2.796875.574218-.238281 1.113281-.539063 1.65625-.839844-18.527344-9.625-31.101563-28.183594-31.101563-49.476563 0-29.65625 24.332031-53.988281 55.226563-56.273437-4.816406-3.789063-10.890625-6.015625-17.507813-6.015625zm0 0" fill="#cf4b82"/><path d="m137.277344 35.191406c-14.738282 0-26.679688 11.9375-26.679688 26.675782 0 14.738281 11.941406 26.679687 26.679688 26.679687 3.007812 0 5.898437-.480469 8.605468-1.414063-10.527343-3.578124-18.078124-13.535156-18.078124-25.265624 0-11.726563 7.550781-21.683594 18.078124-25.261719-2.707031-.933594-5.597656-1.414063-8.605468-1.414063zm0 0" fill="#d9a13f"/><path d="m402.511719 20.78125c-3.367188-12-14.375-20.78125-27.460938-20.78125-12.8125 0-23.640625 8.453125-27.21875 20.0625-1.113281-.121094-2.257812-.210938-3.429687-.210938-15.730469 0-28.484375 12.78125-28.484375 28.511719 0 10.375 5.535156 19.429688 13.804687 24.421875-2.40625 4.152344-3.757812 8.992188-3.757812 14.136719 0 15.730469 12.753906 28.480469 28.515625 28.480469 4.390625 0 8.570312-.992188 12.300781-2.796875 3.128906-1.472657 5.925781-3.515625 8.273438-5.984375 2.40625 2.496094 5.230468 4.542968 8.390624 6.046875 3.699219 1.773437 7.851563 2.734375 12.210938 2.734375 15.730469 0 28.515625-12.75 28.515625-28.480469 0-4.902344-1.234375-9.503906-3.429687-13.535156 8.152343-5.023438 13.597656-14.015625 13.597656-24.300781 0-15.730469-12.753906-28.515626-28.515625-28.515626-1.113281 0-2.226563.09375-3.3125.210938zm0 0" fill="#ff698f"/><path d="m374 35.191406c-14.738281 0-26.679688 11.9375-26.679688 26.675782 0 14.738281 11.941407 26.679687 26.679688 26.679687s26.710938-11.941406 26.710938-26.679687c0-14.738282-11.972657-26.675782-26.710938-26.675782zm0 0" fill="#f5df87"/><path d="m375.050781 0c-12.8125 0-23.640625 8.453125-27.21875 20.0625-1.113281-.121094-2.257812-.210938-3.429687-.210938-15.730469 0-28.484375 12.78125-28.484375 28.511719 0 10.375 5.535156 19.429688 13.804687 24.421875-2.40625 4.152344-3.757812 8.992188-3.757812 14.136719 0 15.730469 12.753906 28.480469 28.515625 28.480469 4.390625 0 8.570312-.992188 12.300781-2.796875.570312-.238281 1.113281-.539063 1.652344-.839844-18.527344-9.625-31.070313-28.183594-31.070313-49.476563 0-29.65625 24.304688-53.988281 55.226563-56.273437-4.84375-3.789063-10.921875-6.015625-17.539063-6.015625zm0 0" fill="#cf4b82"/><path d="m374 35.191406c-14.738281 0-26.679688 11.9375-26.679688 26.675782 0 14.738281 11.941407 26.679687 26.679688 26.679687 3.007812 0 5.925781-.480469 8.601562-1.414063-10.496093-3.578124-18.078124-13.535156-18.078124-25.265624 0-11.726563 7.582031-21.683594 18.078124-25.261719-2.675781-.933594-5.59375-1.414063-8.601562-1.414063zm0 0" fill="#d9a13f"/></g></svg>