<svg height="512pt" viewBox="-17 0 511 512" width="512pt" xmlns="http://www.w3.org/2000/svg"><g fill-rule="evenodd"><path d="m35.898438 221.949219v209.425781c0 22.097656 17.59375 35.0625 34.65625 35.0625h31.382812l8.382812-16.832031-8.382812-19.804688h-19.019531c-5.707031 0-10.402344-4.671875-10.402344-10.378906v-197.472656l-19.289063-18.886719zm0 0" fill="#b3adad"/><path d="m37.085938 110.839844v35.449218l15.335937 22.304688 20.09375-22.304688v-47.019531c0-21.382812-17-33.929687-33.527344-33.929687h-20.773437c-9.75 0-17.714844 7.96875-17.714844 17.722656s7.964844 17.726562 17.714844 17.726562h8.855468c5.5 0 10.015626 4.519532 10.015626 10.050782zm0 0" fill="#b3adad"/><path d="m25.140625 155.449219v57.339843c0 5.054688 4.101563 9.160157 9.152344 9.160157h39.855469c5.023437 0 9.15625-4.105469 9.15625-9.160157v-57.339843c0-5.023438-4.132813-9.160157-9.15625-9.160157h-39.855469c-5.050781 0-9.152344 4.136719-9.152344 9.160157zm0 0" fill="#8fde56"/><path d="m35.898438 221.949219v209.425781c0 22.097656 17.59375 35.0625 34.65625 35.0625h31.382812l5.558594-11.121094h-18.632813c-17.0625 0-34.65625-12.996094-34.65625-35.09375v-198.273437zm0 0" fill="#757a85"/><path d="m25.140625 155.449219v57.339843c0 5.054688 4.101563 9.160157 9.152344 9.160157h24.015625c-4.339844 0-7.996094-3.0625-8.917969-7.167969-.148437-.625-.207031-1.308594-.207031-1.992188v-57.339843c0-.503907.03125-1.011719.121094-1.484375.710937-4.34375 4.484374-7.675782 9.003906-7.675782h-24.015625c-5.050781 0-9.152344 4.136719-9.152344 9.160157zm0 0" fill="#47a831"/><path d="m.5 83.0625c0 9.753906 7.964844 17.726562 17.714844 17.726562h8.855468c5.5 0 10.015626 4.519532 10.015626 10.050782v35.449218h17.121093v-28.164062c0-21.441406-8.648437-31.226562-18.308593-31.078125-24.519532 2.589844-30.253907-16.445313-17.832032-21.707031-9.691406.089844-17.566406 8.027344-17.566406 17.722656zm0 0" fill="#757a85"/><path d="m174.757812 61.621094v28.015625l12.363282 10.410156 10.34375-10.410156v-28.015625h-1.726563l-8.765625-5.53125-10.492187 5.53125zm0 0" fill="#b3adad"/><path d="m101.9375 406.691406v72.535156c0 5.710938 4.667969 10.378907 10.375 10.378907h27.820312l18.691407-46.1875-18.691407-47.105469h-27.820312c-5.707031 0-10.375 4.667969-10.375 10.378906zm0 0" fill="#f5df87"/><path d="m101.9375 406.691406v72.535156c0 5.710938 4.667969 10.378907 10.375 10.378907h13.910156c-5.707031 0-10.375-4.667969-10.375-10.378907v-72.535156c0-5.710937 4.667969-10.378906 10.375-10.378906h-13.910156c-5.707031 0-10.375 4.667969-10.375 10.378906zm0 0" fill="#d9a13f"/><path d="m279.882812 25.605469v25.367187l32.515626 10.113282 31.324218-10.113282v-25.367187l-31.296875-7.167969zm0 0" fill="#e6e6e6"/><path d="m229.921875 57.101562v32.535157l71.984375 20.371093 91.808594-20.371093v-32.535157c0-3.390624-2.765625-6.128906-6.152344-6.128906h-151.519531c-3.390625 0-6.121094 2.738282-6.121094 6.128906zm0 0" fill="#8fde56"/><path d="m229.890625 57.101562v32.535157h36.257813v-32.535157c0-3.390624 2.765624-6.128906 6.125-6.128906h-36.230469c-3.390625 0-6.152344 2.738282-6.152344 6.128906zm0 0" fill="#47a831"/><path d="m140.132812 443.421875v23.789063l174.046876 16.507812 163.320312-16.507812v-23.789063l-163.320312-19.035156zm0 0" fill="#8fde56"/><path d="m140.132812 467.210938v33.488281c0 6.214843 5.109376 11.300781 11.324219 11.300781h314.71875c6.242188 0 11.324219-5.085938 11.324219-11.300781v-33.488281zm0 0" fill="#e6e6e6"/><path d="m140.132812 100.96875v31.3125l174.046876 11.628906 163.320312-11.628906v-31.3125c0-6.246094-5.082031-11.332031-11.324219-11.332031h-314.722656c-6.210937 0-11.320313 5.085937-11.320313 11.332031zm0 0" fill="#e6e6e6"/><path d="m140.132812 132.28125v23.792969l173.929688 19.003906 163.4375-19.003906v-23.792969zm0 0" fill="#8fde56"/><path d="m140.132812 156.074219h337.367188v287.347656h-337.367188zm0 0" fill="#e6e6e6"/><path d="m140.132812 100.96875v31.3125h26.984376v-31.3125c0-6.246094 5.082031-11.332031 11.296874-11.332031h-26.957031c-6.214843 0-11.324219 5.085937-11.324219 11.332031zm0 0" fill="#b3adad"/><path d="m140.132812 467.210938v33.488281c0 6.214843 5.109376 11.300781 11.324219 11.300781h26.957031c-6.214843 0-11.296874-5.085938-11.296874-11.300781v-33.488281zm0 0" fill="#b3adad"/><path d="m140.132812 443.421875h26.984376v23.789063h-26.984376zm0 0" fill="#47a831"/><path d="m140.132812 156.074219v287.347656h26.984376v-287.347656zm0 0" fill="#b3adad"/><path d="m140.132812 132.28125v23.792969h26.984376v-23.792969zm0 0" fill="#47a831"/><path d="m232 217.902344c-20.597656 20.371094-33.375 48.683594-33.375 79.96875 0 62.097656 50.316406 112.449218 112.40625 112.449218 30.433594 0 58.074219-12.105468 78.316406-31.792968 21.011719-20.429688 34.058594-49.011719 34.058594-80.65625 0-62.125-50.316406-112.472656-112.375-112.472656-30.820312 0-58.730469 12.402343-79.03125 32.503906zm0 0" fill="#8fde56"/><path d="m232 217.902344c-20.597656 20.371094-33.375 48.683594-33.375 79.96875 0 53.832031 37.804688 98.828125 88.300781 109.859375 7.757813 1.695312 15.8125 2.589843 24.105469 2.589843 7.9375 0 15.691406-.835937 23.152344-2.378906-10.460938-.921875-20.539063-3.242187-29.988282-6.839844-42.441406-16.0625-72.640624-57.101562-72.640624-105.21875 0-22.246093 6.480468-43.003906 17.625-60.460937 4.519531-7.078125 9.808593-13.621094 15.753906-19.511719 15.070312-14.898437 34.328125-25.574218 55.847656-30.066406-3.210938-.296875-6.480469-.445312-9.75-.445312-30.820312 0-58.730469 12.402343-79.03125 32.503906zm0 0" fill="#47a831"/><path d="m260.652344 9.933594v5.738281c0 5.441406 4.457031 9.933594 9.925781 9.933594h82.449219c5.46875 0 9.925781-4.492188 9.925781-9.933594v-5.738281c0-5.472656-4.457031-9.933594-9.925781-9.933594h-82.449219c-5.46875 0-9.925781 4.460938-9.925781 9.933594zm0 0" fill="#f5df87"/><path d="m260.652344 9.933594v5.738281c0 5.441406 4.457031 9.933594 9.925781 9.933594h32.8125c.625 0-1.21875-.058594-1.78125-.175781-4.609375-.863282-8.117187-4.910157-8.117187-9.757813v-5.738281c0-5.472656 4.460937-9.933594 9.898437-9.933594h-32.8125c-5.46875 0-9.925781 4.460938-9.925781 9.933594zm0 0" fill="#d9a13f"/><path d="m279.882812 25.605469h22.230469v25.367187h-22.230469zm0 0" fill="#b3adad"/><path d="m165.988281 29.414062v21.707032c0 5.773437 4.695313 10.5 10.492188 10.5h19.261719c5.765624 0 10.492187-4.730469 10.492187-10.5v-21.707032c0-5.769531-4.726563-10.5-10.492187-10.5h-19.261719c-5.796875 0-10.492188 4.730469-10.492188 10.5zm0 0" fill="#f5df87"/><path d="m165.988281 29.414062v21.707032c0 5.773437 4.726563 10.5 10.492188 10.5h19.261719c-2.261719 0-4.3125-.714844-6.035157-1.902344-2.703125-1.902344-4.488281-5.058594-4.488281-8.597656v-21.707032c0-5.769531 4.726562-10.5 10.523438-10.5h-19.261719c-5.765625 0-10.492188 4.730469-10.492188 10.5zm0 0" fill="#d9a13f"/></g><path d="m371.800781 293.320312v14.25c0 4.339844-3.519531 7.871094-7.871093 7.871094h-12.019532c-.621094 3.539063-1.449218 6.9375-2.460937 10.199219h10.289062c4.351563 0 7.871094 3.519531 7.871094 7.859375v14.25c0 4.339844-3.519531 7.859375-7.871094 7.859375-4.339843 0-7.859375-3.519531-7.859375-7.859375v-6.378906h-9.550781c-6.019531 9.589844-14.167969 16.289062-23.457031 18.699218-.042969.007813-.082032.019532-.121094.03125-2.460938.628907-5 .957032-7.601562.957032-2.6875 0-5.320313-.347656-7.847657-1.019532-.050781-.007812-.089843-.019531-.140625-.039062-9.171875-2.46875-17.210937-9.140625-23.171875-18.628906h-9.566406v6.378906c0 4.339844-3.523437 7.859375-7.871094 7.859375-4.339843 0-7.859375-3.519531-7.859375-7.859375v-14.25c0-4.339844 3.519532-7.859375 7.859375-7.859375h10.328125c-1.019531-3.261719-1.847656-6.660156-2.457031-10.199219h-12.0625c-4.339844 0-7.859375-3.53125-7.859375-7.871094v-14.25c0-4.339843 3.519531-7.859374 7.859375-7.859374s7.871094 3.519531 7.871094 7.859374v6.378907h2.878906c.011719-4.097657.28125-8.097657.800781-11.949219.738282-5.570312 1.988282-10.859375 3.679688-15.738281 2.910156-8.433594 7.128906-15.671875 12.289062-21.230469l-10.417968-4.910156c-2.75-1.300782-4.511719-4.082032-4.511719-7.121094v-14.238281c0-4.351563 3.519531-7.871094 7.859375-7.871094s7.863281 3.519531 7.863281 7.871094v9.25l14.359375 6.777343c3.238281-1.117187 6.617188-1.710937 10.117188-1.710937s6.902343.601563 10.132812 1.722656l14.367188-6.789062v-9.25c0-4.351563 3.523437-7.871094 7.871093-7.871094 4.339844 0 7.859375 3.519531 7.859375 7.871094v14.238281c0 3.039062-1.757812 5.820312-4.507812 7.121094l-10.429688 4.917968c5.160156 5.550782 9.367188 12.789063 12.289063 21.222657 1.691406 4.878906 2.941406 10.167969 3.691406 15.738281.519531 3.851562.789063 7.851562.796875 11.949219h2.851562v-6.378907c0-4.339843 3.519532-7.859374 7.859376-7.859374 4.351562 0 7.871093 3.519531 7.871093 7.859374zm0 0" fill="#a66d30"/><path d="m352.421875 287.75h-33.542969v72.03125c0 .097656 0 .199219-.007812.289062-.042969.007813-.082032.019532-.121094.03125-2.460938.628907-5 .957032-7.601562.957032-2.6875 0-5.320313-.347656-7.847657-1.019532-.050781-.007812-.089843-.019531-.140625-.039062-.011718-.058594-.011718-.128906-.011718-.191406v-72.058594h-33.238282c.738282-5.570312 1.988282-10.859375 3.679688-15.738281h75.140625c1.691406 4.878906 2.941406 10.167969 3.691406 15.738281zm0 0" fill="#6e3e0b"/></svg>