<svg height="512pt" viewBox="-11 0 512 512" width="512pt" xmlns="http://www.w3.org/2000/svg"><g fill-rule="evenodd"><path d="m454.867188 475.679688v-262.285157l-212.273438-18.160156-207.460938 18.160156v262.285157l192.777344 18.875zm0 0" fill="#ff698f"/><path d="m208.648438 475.679688v-159.003907c0-10.550781-8.617188-19.171875-19.140626-19.171875h-88.691406c-10.519531 0-19.140625 8.621094-19.140625 19.171875v159.003907zm0 0" fill="#c9eeff"/><path d="m294.636719 400.636719c45.324219 0 33.644531-52.308594 13.640625-74.988281-10.9375-12.390626-13.613282-11.707032-24.550782.0625-17.652343 18.992187-34.269531 74.925781 10.910157 74.925781zm0 0" fill="#8fde56"/><path d="m382.734375 400.636719c45.324219 0 33.644531-52.308594 13.640625-74.988281-10.9375-12.390626-13.613281-11.707032-24.550781.0625-17.652344 18.992187-34.269531 74.925781 10.910156 74.925781zm0 0" fill="#8fde56"/><path d="m108.101562 123.726562-18.875-61.996093h-25.382812c-15.039062 0-27.375 12.304687-27.375 27.371093v87.976563l25.679688 17.980469 27.941406-17.980469zm0 0" fill="#f5df87"/><path d="m453.53125 177.074219v-87.972657c0-15.066406-12.335938-27.371093-27.375-27.371093h-25.382812l-18.875 61.460937 18.875 53.886719 27.492187 12.988281zm0 0" fill="#f5df87"/><path d="m400.773438 177.074219v-137.960938c0-21.519531-17.625-39.113281-39.144532-39.113281h-233.257812c-21.519532 0-39.144532 17.59375-39.144532 39.113281v137.875l157.707032 20.179688 153.839844-19.972657zm0 0" fill="#e6e6e6"/><path d="m35.132812 213.394531h436.707032c9.988281 0 18.160156-8.171875 18.160156-18.160156 0-9.984375-8.175781-18.15625-18.160156-18.15625h-18.308594c-138.921875 0-278.019531 0-417.0625 0h-18.308594c-9.988281 0-18.160156 8.171875-18.160156 18.15625 0 9.988281 8.175781 18.160156 18.160156 18.160156zm0 0" fill="#cf4b82"/><path d="m275.109375 51.773438c-3.359375-11.949219-14.355469-20.714844-27.375-20.714844-12.78125 0-23.570313 8.410156-27.164063 20.003906-1.101562-.121094-2.261718-.210938-3.417968-.210938-15.695313 0-28.414063 12.722657-28.414063 28.414063 0 10.34375 5.527344 19.410156 13.789063 24.371094-2.378906 4.160156-3.746094 8.945312-3.746094 14.089843 0 15.691407 12.722656 28.410157 28.414062 28.410157 4.402344 0 8.5625-.980469 12.308594-2.792969 3.089844-1.484375 5.882813-3.507812 8.230469-5.972656 2.378906 2.496094 5.203125 4.546875 8.351563 6.03125 3.6875 1.753906 7.816406 2.734375 12.1875 2.734375 15.691406 0 28.414062-12.71875 28.414062-28.414063 0-4.871094-1.21875-9.480468-3.417969-13.492187 8.144531-4.992188 13.550781-13.996094 13.550781-24.222657 0-15.691406-12.71875-28.410156-28.414062-28.410156-1.097656-.003906-2.226562.058594-3.296875.175782zm0 0" fill="#ff698f"/><path d="m246.695312 66.128906c-14.714843 0-26.632812 11.917969-26.632812 26.628906 0 14.683594 11.917969 26.601563 26.632812 26.601563 14.683594 0 26.601563-11.917969 26.601563-26.601563 0-14.710937-11.917969-26.628906-26.601563-26.628906zm0 0" fill="#f5df87"/><path d="m247.734375 31.058594c-12.78125 0-23.570313 8.410156-27.167969 20-1.097656-.117188-2.257812-.207032-3.417968-.207032-15.691407 0-28.414063 12.722657-28.414063 28.414063 0 10.34375 5.53125 19.40625 13.792969 24.371094-2.378906 4.160156-3.746094 8.945312-3.746094 14.085937 0 15.695313 12.722656 28.414063 28.414062 28.414063 4.398438 0 8.5625-.980469 12.304688-2.792969.535156-.269531 1.101562-.535156 1.636719-.863281-18.488281-9.570313-31-28.054688-31-49.304688 0-29.574219 24.253906-53.824219 55.046875-56.144531-4.816406-3.746094-10.878906-5.972656-17.449219-5.972656zm0 0" fill="#cf4b82"/><path d="m246.695312 66.128906c-14.714843 0-26.632812 11.917969-26.632812 26.628906 0 14.683594 11.917969 26.601563 26.632812 26.601563 3 0 5.882813-.503906 8.558594-1.425781-10.492187-3.566406-18.039062-13.496094-18.039062-25.175782 0-11.707031 7.546875-21.636718 18.039062-25.203124-2.675781-.921876-5.558594-1.425782-8.558594-1.425782zm0 0" fill="#d9a13f"/><path d="m35.132812 213.394531h419.734376v19.46875h-419.734376zm0 0" fill="#9e1b69"/><path d="m294.636719 398.167969c-23.628907-12.539063-9.394531-55.28125 5.585937-71.386719 1.726563-1.902344 3.269532-3.476562 4.667969-4.785156-8.261719-8.441406-11.445313-6.75-21.164063 3.714844-17.652343 18.992187-34.269531 74.925781 10.910157 74.925781 1.929687 0 3.773437-.089844 5.5-.296875-2.023438-.566406-3.867188-1.277344-5.5-2.171875zm0 0" fill="#47a831"/><path d="m382.734375 398.167969c-23.628906-12.539063-9.394531-55.28125 5.585937-71.386719 1.726563-1.902344 3.269532-3.476562 4.667969-4.785156-8.265625-8.441406-11.445312-6.75-21.164062 3.714844-17.652344 18.992187-34.269531 74.925781 10.910156 74.925781 1.929687 0 3.773437-.089844 5.496094-.296875-2.019531-.566406-3.863281-1.277344-5.496094-2.171875zm0 0" fill="#47a831"/><path d="m189.507812 297.503906h-88.691406c-10.519531 0-19.140625 8.621094-19.140625 19.171875v32.097657c0-10.550782 8.621094-19.171876 19.140625-19.171876h88.691406c10.523438 0 19.140626 8.621094 19.140626 19.171876v-32.097657c0-10.550781-8.617188-19.171875-19.140626-19.171875zm0 0" fill="#81c6e6"/><path d="m89.226562 157.640625h311.546876v19.433594h-311.546876zm0 0" fill="#adafb3"/><path d="m400.773438 61.847656h19.050781v115.347656h-19.050781zm0 0" fill="#d9a13f"/><path d="m70.175781 61.609375h19.050781v115.378906h-19.050781zm0 0" fill="#d9a13f"/></g><path d="m382.734375 435.367188c-4.339844 0-7.859375-3.519532-7.859375-7.863282v-51.625c0-4.34375 3.519531-7.863281 7.859375-7.863281s7.855469 3.519531 7.855469 7.863281v51.625c0 4.34375-3.515625 7.863282-7.855469 7.863282zm0 0" fill="#178035"/><path d="m294.636719 435.367188c-4.339844 0-7.859375-3.519532-7.859375-7.863282v-51.625c0-4.34375 3.519531-7.863281 7.859375-7.863281 4.339843 0 7.855469 3.519531 7.855469 7.863281v51.625c0 4.34375-3.515626 7.863282-7.855469 7.863282zm0 0" fill="#178035"/><path d="m415.484375 475.679688v-33.492188c0-8.054688-6.597656-14.683594-14.679687-14.683594h-132.058594c-8.082032 0-14.683594 6.628906-14.683594 14.683594v33.492188l75.691406 18.160156zm0 0" fill="#a66d30" fill-rule="evenodd"/><path d="m254.066406 454.609375h161.417969v21.070313h-161.417969zm0 0" fill="#6e3e0b" fill-rule="evenodd"/><path d="m471.839844 512c9.988281 0 18.160156-8.171875 18.160156-18.160156 0-10.015625-8.175781-18.15625-18.160156-18.15625h-453.679688c-9.988281 0-18.160156 8.140625-18.160156 18.15625 0 9.988281 8.175781 18.160156 18.160156 18.160156zm0 0" fill="#e6e6e6" fill-rule="evenodd"/></svg>