<svg height="512pt" viewBox="-3 0 512 512.00032" width="512pt" xmlns="http://www.w3.org/2000/svg"><path d="m378.003906 341.230469c-4.214844 0-7.632812-3.417969-7.632812-7.632813v-27.441406c0-18.308594-15.632813-33.203125-34.847656-33.203125-4.214844 0-7.632813-3.417969-7.632813-7.632813 0-4.214843 3.417969-7.632812 7.632813-7.632812 27.632812 0 50.113281 21.742188 50.113281 48.464844v27.445312c0 4.214844-3.417969 7.632813-7.632813 7.632813zm0 0" fill="#81c6e6"/><path d="m407.4375 334.539062c-4.214844 0-7.632812-3.417968-7.632812-7.632812v-22.597656c0-22.074219-10.335938-48.546875-39.351563-56.65625-6.746094-1.882813-15.628906-2.34375-24.839844-2.34375-4.214843 0-4.140625-3.59375-4.140625-7.808594s-.074218-7.632812 4.140625-7.632812c9.128907 0 19.710938.503906 28.945313 3.082031 16.734375 4.675781 30.257812 14.777343 39.117187 29.214843 7.347657 11.976563 11.394531 26.945313 11.394531 42.144532v22.597656c0 4.214844-3.417968 7.632812-7.632812 7.632812zm0 0" fill="#81c6e6"/><g fill-rule="evenodd"><path d="m253.109375 222.175781-58.148437 36.390625-9.867188 50.648438 117.273438-29.175782.695312-58.179687zm0 0" fill="#349ecf"/><path d="m77.308594 24.929688-46.632813 59.652343c-21.933593 33.53125-14.832031 79.214844 17.285157 104.320313.433593.347656.835937.664062 1.269531.980468l.171875-.230468 19.480468-3.433594-1.527343-19.535156c-.433594-.316406-.867188-.636719-1.269531-.953125-21.125-16.507813-24.90625-47.269531-8.398438-68.394531l38.523438-49.289063c16.507812-21.09375 47.269531-24.875 68.390624-8.371094 16.394532 12.816407 22.335938 34.226563 16.421876 53.070313l4.820312 18.039062 19.101562.632813.230469.171875c15.296875-32.289063 6.785157-72.230469-22.449219-95.117188-32.121093-25.074218-78.175781-20.949218-105.417968 8.457032zm0 0" fill="#349ecf"/><path d="m303.0625 221.859375-.695312 58.179687c4.9375 5.683594 11.285156 10.097657 18.527343 12.667969 7.070313 1.671875 10.9375.171875 12.898438-2.339843 1.355469-1.757813 1.816406-4.011719 1.816406-5.972657l-.054687-33.070312-.03125-33.074219c-.027344-4.789062-2.742188-11.167969-14.746094-8.253906-6.867188 2.457031-12.925782 6.554687-17.714844 11.863281zm0 0" fill="#e6e6e6"/><path d="m35.609375 207.316406 57.339844 62.824219 84.871093 48.335937 7.273438-9.261718 68.015625-87.035156 29-37.140626c2.484375-3.148437 3.984375-4.300781 6.523437-12.699218l11.917969-39.191406c.953125-3.171876 1.558594-6.433594-1.039062-8.480469l-29.375-22.945313c-2.597657-2.046875-5.511719-.460937-8.457031 1.039063l-29.144532 14.660156c-12.121094 6.121094-12.179687 6.03125-21.269531-1.066406l-6.320313-4.933594-23.921874-18.671875-18.066407-14.140625c-9.148437-7.15625-22.710937-5.167969-30.183593 4.386719l-65.421876 83.6875-17.949218 22.972656zm0 0" fill="#e6e6e6"/><path d="m112.804688 203.304688c-1.355469 12.207031 3.695312 25.078124 14.457031 33.476562 16.132812 12.609375 38.988281 10.359375 51.019531-5.050781 3.664062-4.675781 5.917969-10.042969 6.8125-15.582031l4.441406-31.570313c.894532-7.707031 0 0 2.078125-16.394531.347657-7.15625-5.191406-12.695313-14.140625-9.808594l-9.664062 3.632812-4.820313 1.820313-29.695312 11.832031c-5.164063 2.222656-9.8125 5.683594-13.476563 10.359375-4.039062 5.164063-6.347656 11.136719-7.011718 17.285157zm0 0" fill="#349ecf"/><path d="m34.746094 242.636719 109.167968 85.304687.058594.058594 19.5625 15.296875c3.492188 2.742187 8.601563 2.105469 11.34375-1.386719l7.5-9.640625c2.742188-3.488281 2.109375-8.597656-1.382812-11.339843l-3.03125-2.367188-142.355469-111.246094-3.027344-2.367187c-3.492187-2.742188-8.601562-2.105469-11.34375 1.386719l-7.503906 9.636718c-2.738281 3.492188-2.105469 8.601563 1.386719 11.339844l19.566406 15.269531zm0 0" fill="#349ecf"/><path d="m112.746094 203.59375c-1.242188 12.117188 3.839844 24.84375 14.515625 33.1875 6.808593 5.308594 14.832031 7.992188 22.710937 8.136719-.40625-.289063-.808594-.578125-1.183594-.894531-10.765624-8.398438-15.8125-21.269532-14.484374-33.476563.691406-6.148437 3-12.121094 7.039062-17.285156 3.664062-4.675781 8.3125-8.140625 13.476562-10.332031l29.695313-11.863282 4.816406-1.816406 2.222657-.835938c.03125-.085937.03125-.144531.058593-.230468.347657-7.160156-5.195312-12.699219-14.140625-9.8125l-9.175781 3.460937-.492187.175781-4.820313 1.816407-29.691406 11.832031c-5.164063 2.222656-9.8125 5.683594-13.476563 10.359375-4.039062 5.167969-6.347656 11.140625-7.011718 17.285156-.03125.089844-.03125.207031-.058594.292969zm0 0" fill="#4275ab"/><path d="m45.652344 215.164062-10.042969-7.847656-3.027344-2.367187c-3.492187-2.742188-8.601562-2.105469-11.34375 1.386719l-7.5 9.636718c-2.742187 3.492188-2.109375 8.601563 1.382813 11.339844l13.074218 10.1875c-3.523437-2.742188-4.128906-7.820312-1.414062-11.339844l7.53125-9.609375c1.703125-2.195312 4.328125-3.261719 6.925781-3.089843 1.558594.117187 3.085938.664062 4.414063 1.703124zm0 0" fill="#4275ab"/><path d="m253.109375 222.175781-68.015625 87.039063.34375-.117188 18.671875-4.617187 64.265625-82.21875.144531-.199219-15.121093.113281zm0 0" fill="#4275ab"/><path d="m74.800781 28.105469-41.671875 53.328125-2.453125 3.148437c-19.332031 29.550781-16.101562 68.539063 6.898438 94.539063v.027344c1.269531 1.414062 2.597656 2.800781 3.980469 4.15625-17.140626-25.566407-18.007813-59.792969-.605469-86.398438l46.605469-59.652344c27.269531-29.375 73.296874-33.53125 105.414062-8.425781 2.28125 1.761719 4.417969 3.636719 6.4375 5.597656-1.847656-2.769531-3.898438-5.425781-6.117188-7.964843-3.148437-3.578126-6.667968-6.925782-10.5625-9.984376-32.121093-25.078124-78.175781-20.953124-105.417968 8.453126zm0 0" fill="#4275ab"/><path d="m67.324219 166.742188-17.917969 22.910156-.175781.230468-.027344.03125-13.59375 17.398438.175781.144531 9.867188 7.707031 3.664062 2.886719 13.765625-17.632812 17.980469-22.972657 69.921875-89.488281c3.460937-4.445312 8.25-7.242187 13.300781-8.253906h.058594l-1.382812-1.097656c-9.148438-7.15625-22.710938-5.164063-30.1875 4.386719l-65.417969 83.691406zm0 0" fill="#adafb3"/><path d="m90.09375 383.984375c3.433594 30.070313 34.308594 51.425781 50.039062 31.226563l.058594-.085938c.691406-.867188 1.296875-1.761719 1.816406-2.6875 10.128907-17.371094-6.609374-39.621094-42.765624-37.628906-5.917969.316406-9.523438 2.855468-9.148438 9.175781zm0 0" fill="#8fde56"/><path d="m90.09375 383.984375c3.433594 30.070313 34.308594 51.425781 50.039062 31.226563l.058594-.085938c.546875-.695312 1.007813-1.386719 1.472656-2.109375-16.304687 5.742187-37.976562-13.1875-40.835937-38.121094 0-.058593 0-.113281 0-.171875-.519531.027344-1.066406.058594-1.585937.085938-5.917969.316406-9.523438 2.855468-9.148438 9.175781zm0 0" fill="#47a831"/><path d="m229.476562 383.984375c-3.433593 30.070313-34.3125 51.425781-50.011718 31.226563l-.085938-.085938c-.664062-.867188-1.269531-1.761719-1.820312-2.6875-10.128906-17.371094 6.609375-39.621094 42.769531-37.628906 5.941406.316406 9.550781 2.855468 9.148437 9.175781zm0 0" fill="#8fde56"/><path d="m229.476562 383.984375c-3.433593 30.070313-34.3125 51.425781-50.011718 31.226563l-.085938-.085938c-.519531-.695312-1.011718-1.386719-1.472656-2.109375 16.304688 5.742187 37.976562-13.1875 40.832031-38.121094 0-.058593 0-.113281 0-.171875.519531.027344 1.070313.058594 1.585938.085938 5.945312.316406 9.554687 2.855468 9.152343 9.175781zm0 0" fill="#47a831"/></g><path d="m202.34375 397.574219c-2.171875-3.617188-6.859375-4.785157-10.472656-2.617188l-32.085938 19.257813-32.054687-19.257813c-3.617188-2.171875-8.304688-1-10.476563 2.613281-2.167968 3.613282-1 8.304688 2.613282 10.476563l32.28125 19.390625v35.5625c0 4.214844 3.417968 7.632812 7.632812 7.632812 4.21875 0 7.636719-3.417968 7.636719-7.632812v-35.5625l32.308593-19.390625c3.613282-2.167969 4.785157-6.859375 2.617188-10.472656zm0 0" fill="#178035"/><path d="m291.71875 362.542969c4.617188 40.632812 46.316406 69.460937 67.554688 42.191406l.089843-.113281c.921875-1.183594 1.730469-2.398438 2.453125-3.636719 13.675782-23.464844-8.917968-53.53125-57.773437-50.847656-7.992188.429687-12.871094 3.863281-12.324219 12.40625zm0 0" fill="#8fde56" fill-rule="evenodd"/><path d="m291.71875 362.542969c4.617188 40.632812 46.316406 69.460937 67.554688 42.191406l.089843-.113281c.71875-.925782 1.382813-1.878906 1.988281-2.828125-22.015624 7.703125-51.308593-17.835938-55.144531-51.511719 0-.089844 0-.175781 0-.234375-.722656.03125-1.445312.058594-2.164062.089844-7.992188.429687-12.871094 3.863281-12.324219 12.40625zm0 0" fill="#47a831" fill-rule="evenodd"/><path d="m479.957031 362.542969c-4.617187 40.632812-46.316406 69.460937-67.554687 42.191406l-.085938-.113281c-.925781-1.183594-1.730468-2.398438-2.453125-3.636719-13.679687-23.464844 8.914063-53.53125 57.773438-50.847656 7.992187.429687 12.867187 3.863281 12.320312 12.40625zm0 0" fill="#8fde56" fill-rule="evenodd"/><path d="m479.957031 362.542969c-4.617187 40.632812-46.316406 69.460937-67.554687 42.191406l-.085938-.113281c-.722656-.925782-1.386718-1.878906-1.992187-2.828125 22.019531 7.703125 51.308593-17.835938 55.148437-51.511719 0-.089844 0-.175781 0-.234375.71875.03125 1.441406.058594 2.164063.089844 7.992187.429687 12.867187 3.863281 12.320312 12.40625zm0 0" fill="#47a831" fill-rule="evenodd"/><path d="m441.019531 382.277344c-2.167969-3.613282-6.863281-4.785156-10.472656-2.613282l-44.695313 26.84375-44.722656-26.84375c-3.617187-2.171874-8.304687-1-10.472656 2.617188-2.171875 3.613281-1 8.300781 2.613281 10.472656l44.949219 26.976563v43.269531c0 4.214844 3.417969 7.632812 7.632812 7.632812 4.214844 0 7.632813-3.417968 7.632813-7.632812v-43.269531l44.921875-26.980469c3.617188-2.167969 4.785156-6.859375 2.613281-10.472656zm0 0" fill="#178035"/><path d="m24.5 512h456.957031c13.476563 0 24.5-11.023438 24.5-24.5s-11.023437-24.5-24.5-24.5h-456.957031c-13.476562 0-24.5 11.023438-24.5 24.5s11.023438 24.5 24.5 24.5zm0 0" fill="#a66d30" fill-rule="evenodd"/><path d="m0 487.5c0 13.476562 11.023438 24.5 24.5 24.5h43.890625c-13.472656 0-24.5-11.023438-24.5-24.5s11.027344-24.5 24.5-24.5h-43.890625c-13.476562 0-24.5 11.023438-24.5 24.5zm0 0" fill="#6e3e0b" fill-rule="evenodd"/></svg>