<svg height="512pt" viewBox="-109 0 512 512" width="512pt" xmlns="http://www.w3.org/2000/svg"><path d="m242.816406 85.574219c-10.242187-15.449219-24.480468-28.25-41.132812-37.195313-16.425782-8.832031-35.210938-13.867187-54.683594-13.867187s-38.257812 5.035156-54.683594 13.867187c-16.652344 8.945313-30.890625 21.746094-41.132812 37.195313-9.464844 14.269531-15.476563 30.78125-16.683594 48.53125-.289062 4.257812-.289062 8.574219-.027344 12.945312l2.558594 40.449219 3.335938 52.613281 3.539062 55.464844 103.09375 18.269531 103.09375-18.269531 3.539062-55.464844 3.335938-52.613281 2.558594-40.449219c.261718-4.371093.261718-8.6875-.027344-12.945312-1.207031-17.75-7.21875-34.261719-16.683594-48.53125zm0 0" fill="#47a831" fill-rule="evenodd"/><g fill="#178035"><path d="m147 34.511719c-19.472656 0-38.257812 5.035156-54.683594 13.867187-16.652344 8.945313-30.890625 21.746094-41.132812 37.195313-9.464844 14.269531-15.476563 30.78125-16.683594 48.53125-.289062 4.257812-.289062 8.574219-.027344 12.945312l2.558594 40.449219 3.335938 52.613281 3.539062 55.464844h39.523438l-3.507813-55.464844-3.339844-52.613281-2.558593-40.449219c-.289063-4.371093-.257813-8.6875.027343-12.945312 1.210938-17.75 7.222657-34.261719 16.683594-48.53125 10.214844-15.449219 24.480469-28.25 41.136719-37.195313 10.785156-5.785156 22.550781-9.957031 34.890625-12.140625-6.445313-1.125-13.058594-1.726562-19.761719-1.726562zm0 0" fill-rule="evenodd"/><path d="m147 303.191406c-4.199219 0-7.605469-3.410156-7.605469-7.613281v-93.8125c0-4.203125 3.40625-7.613281 7.605469-7.613281s7.605469 3.410156 7.605469 7.613281v93.8125c0 4.203125-3.40625 7.613281-7.605469 7.613281zm0 0"/><path d="m179.339844 303.191406c-.234375 0-.476563-.011718-.714844-.03125-4.183594-.394531-7.253906-4.101562-6.863281-8.289062l15.070312-161.472656c.390625-4.1875 4.109375-7.257813 8.28125-6.875 4.179688.394531 7.253907 4.105468 6.863281 8.289062l-15.074218 161.472656c-.367188 3.945313-3.679688 6.90625-7.5625 6.90625zm0 0"/><path d="m114.660156 303.191406c-3.882812 0-7.195312-2.957031-7.5625-6.90625l-15.074218-161.472656c-.390626-4.183594 2.683593-7.894531 6.863281-8.289062 4.175781-.386719 7.890625 2.6875 8.28125 6.875l15.070312 161.472656c.394531 4.1875-2.679687 7.894531-6.863281 8.289062-.238281.019532-.480469.03125-.714844.03125zm0 0"/><path d="m280.527344 195.109375h-23.816406c-4.199219 0-7.605469-3.40625-7.605469-7.613281 0-4.203125 3.40625-7.609375 7.605469-7.609375h23.816406c4.199218 0 7.605468 3.40625 7.605468 7.609375 0 4.207031-3.40625 7.613281-7.605468 7.613281zm0 0"/><path d="m280.527344 247.726562h-26.894532c-4.203124 0-7.605468-3.410156-7.605468-7.613281s3.402344-7.613281 7.605468-7.613281h26.894532c4.199218 0 7.605468 3.410156 7.605468 7.613281s-3.40625 7.613281-7.605468 7.613281zm0 0"/><path d="m286.394531 141.71875h-26.894531c-4.199219 0-7.605469-3.410156-7.605469-7.613281s3.402344-7.613281 7.605469-7.613281h26.894531c4.199219 0 7.605469 3.410156 7.605469 7.613281s-3.40625 7.613281-7.605469 7.613281zm0 0"/><path d="m242.820312 93.1875c-2.28125 0-4.535156-1.023438-6.035156-2.972656-2.558594-3.335938-1.933594-8.113282 1.394532-10.675782l21.34375-16.429687c3.328124-2.5625 8.105468-1.9375 10.664062 1.398437 2.558594 3.332032 1.9375 8.109376-1.394531 10.671876l-21.34375 16.429687c-1.378907 1.0625-3.011719 1.578125-4.628907 1.578125zm0 0"/><path d="m37.289062 195.109375h-23.816406c-4.199218 0-7.605468-3.40625-7.605468-7.613281 0-4.203125 3.40625-7.609375 7.605468-7.609375h23.816406c4.199219 0 7.605469 3.40625 7.605469 7.609375 0 4.207031-3.40625 7.613281-7.605469 7.613281zm0 0"/><path d="m40.367188 247.726562h-26.894532c-4.199218 0-7.605468-3.410156-7.605468-7.613281s3.40625-7.613281 7.605468-7.613281h26.894532c4.199218 0 7.605468 3.410156 7.605468 7.613281s-3.40625 7.613281-7.605468 7.613281zm0 0"/><path d="m34.5 141.71875h-26.894531c-4.199219 0-7.605469-3.410156-7.605469-7.613281s3.402344-7.613281 7.605469-7.613281h26.894531c4.199219 0 7.605469 3.410156 7.605469 7.613281s-3.40625 7.613281-7.605469 7.613281zm0 0"/><path d="m51.179688 93.1875c-1.621094 0-3.25-.515625-4.632813-1.578125l-21.34375-16.429687c-3.328125-2.5625-3.953125-7.339844-1.390625-10.671876 2.558594-3.335937 7.332031-3.960937 10.664062-1.398437l21.339844 16.429687c3.332032 2.5625 3.957032 7.339844 1.394532 10.675782-1.496094 1.949218-3.75 2.972656-6.03125 2.972656zm0 0"/><path d="m147 42.121094c-4.199219 0-7.605469-3.40625-7.605469-7.609375v-26.898438c0-4.203125 3.40625-7.613281 7.605469-7.613281s7.605469 3.410156 7.605469 7.613281v26.898438c0 4.203125-3.40625 7.609375-7.605469 7.609375zm0 0"/><path d="m201.675781 55.988281c-1.324219 0-2.667969-.34375-3.890625-1.074219-3.605468-2.152343-4.785156-6.824218-2.636718-10.4375l13.78125-23.128906c2.148437-3.609375 6.816406-4.792968 10.425781-2.640625 3.605469 2.15625 4.789062 6.828125 2.636719 10.4375l-13.777344 23.128907c-1.425782 2.390624-3.949219 3.714843-6.539063 3.714843zm0 0"/><path d="m92.324219 55.988281c-2.589844 0-5.113281-1.324219-6.539063-3.710937l-13.777344-23.128906c-2.152343-3.613282-.972656-8.285157 2.636719-10.4375 3.609375-2.152344 8.277344-.972657 10.425781 2.636718l13.78125 23.128906c2.148438 3.613282.96875 8.285157-2.636718 10.4375-1.222656.730469-2.566406 1.074219-3.890625 1.074219zm0 0"/></g><path d="m268.617188 342.613281-120.925782-23.503906-120.46875 23.503906 12.941406 146.832031c1.066407 12.3125 11.363282 22.554688 25.921876 22.554688h163.671874c14.554688 0 24.851563-10.242188 25.945313-22.554688zm0 0" fill="#b3adad" fill-rule="evenodd"/><path d="m43.90625 295.578125h-20.710938c-7.105468 0-12.914062 5.839844-12.914062 12.945313v21.175781c0 7.105469 5.808594 12.914062 12.914062 12.914062h248.960938c7.132812 0 12.945312-5.808593 12.945312-12.914062v-21.175781c0-7.105469-5.8125-12.945313-12.945312-12.945313h-22.0625c-68.71875 0-137.46875 0-206.1875 0zm0 0" fill="#e6e6e6" fill-rule="evenodd"/><path d="m35.277344 295.578125h-12.082032c-7.105468 0-12.914062 5.839844-12.914062 12.945313v21.175781c0 7.105469 5.808594 12.914062 12.914062 12.914062h23.988282c3.539062 0-6.789063-1.464843-9.144532-3.796875-2.332031-2.328125-3.796874-5.578125-3.796874-9.117187v-21.171875c0-5.207032 3.132812-9.726563 7.59375-11.765625 1.640624-.75 3.421874-1.183594 5.347656-1.183594zm0 0" fill="#adafb3" fill-rule="evenodd"/><path d="m27.222656 342.613281 12.941406 146.832031c1.066407 12.3125 11.363282 22.554688 25.921876 22.554688h32.589843c-14.527343 0-24.824219-10.242188-25.917969-22.554688l-9.722656-110.613281c.289063-5.320312 4.71875-9.578125 10.125-9.578125h193.097656l2.359376-26.640625zm0 0" fill="#757a85" fill-rule="evenodd"/></svg>