<svg height="512pt" viewBox="0 -52 512 512" width="512pt" xmlns="http://www.w3.org/2000/svg"><g fill-rule="evenodd"><path d="m15.855469 323.789062h480.257812c8.730469 0 15.886719-7.117187 15.886719-15.839843v-40.691407c0-8.722656-7.15625-15.867187-15.886719-15.867187h-480.257812c-8.730469 0-15.855469 7.144531-15.855469 15.867187v40.691407c0 8.722656 7.125 15.839843 15.855469 15.839843zm0 0" fill="#a66d30"/><path d="m15.855469 184.882812h480.257812c8.730469 0 15.886719-7.144531 15.886719-15.867187v-40.660156c0-8.722657-7.15625-15.871094-15.886719-15.871094h-480.257812c-8.730469 0-15.855469 7.148437-15.855469 15.871094v40.660156c0 8.722656 7.125 15.867187 15.855469 15.867187zm0 0" fill="#a66d30"/><g fill="#f5df87"><path d="m146.566406 49.011719c0-63.761719-90.9375-63.761719-90.9375 0v334.28125c0 13.59375 9.871094 24.707031 21.960938 24.707031h47.015625c12.058593 0 21.960937-11.113281 21.960937-24.707031zm0 0"/><path d="m301.453125 47.84375c0-63.792969-90.933594-63.792969-90.933594 0v334.25c0 13.59375 9.898438 24.707031 21.957031 24.707031h47.015626c12.089843 0 21.960937-11.113281 21.960937-24.707031zm0 0"/><path d="m456.339844 49.011719c0-63.761719-90.90625-63.761719-90.90625 0v334.28125c0 13.589843 9.871094 24.703125 21.960937 24.703125h47.015625c12.058594 0 21.929688-11.113282 21.929688-24.703125zm0 0"/></g><path d="m117.128906 3.945312c-26.542968-9.480468-61.5 5.542969-61.5 45.070313v334.277344c0 13.59375 9.871094 24.707031 21.960938 24.707031h32.09375c-12.089844 0-21.960938-11.113281-21.960938-24.707031v-334.277344c0-24.242187 13.140625-39.265625 29.40625-45.070313zm0 0" fill="#d9a13f"/><path d="m272.046875 2.75c-26.574219-9.480469-61.527344 5.542969-61.527344 45.097656v334.25c0 13.59375 9.898438 24.703125 21.957031 24.703125h32.09375c-12.058593 0-21.960937-11.109375-21.960937-24.703125v-334.253906c0-24.238281 13.144531-39.289062 29.4375-45.09375zm0 0" fill="#d9a13f"/><path d="m426.933594 3.945312c-26.542969-9.480468-61.5 5.542969-61.5 45.070313v334.277344c0 13.59375 9.871094 24.707031 21.960937 24.707031h32.09375c-12.089843 0-21.960937-11.117188-21.960937-24.707031v-334.277344c0-24.242187 13.140625-39.265625 29.40625-45.070313zm0 0" fill="#d9a13f"/><path d="m15.855469 112.484375c-8.730469 0-15.855469 7.148437-15.855469 15.871094v40.660156c0 8.722656 7.125 15.867187 15.855469 15.867187h19.886719c-8.730469 0-15.882813-7.144531-15.882813-15.867187v-40.660156c0-8.722657 7.152344-15.871094 15.882813-15.871094zm0 0" fill="#6e3e0b"/><path d="m35.742188 251.390625h-19.886719c-8.730469 0-15.855469 7.144531-15.855469 15.867187v40.691407c0 8.722656 7.125 15.839843 15.855469 15.839843h19.886719c-8.730469 0-15.882813-7.117187-15.882813-15.839843v-40.691407c-.003906-8.722656 7.152344-15.867187 15.882813-15.867187zm0 0" fill="#6e3e0b"/></g></svg>