<svg height="512pt" viewBox="-52 0 512 512.00032" width="512pt" xmlns="http://www.w3.org/2000/svg"><g fill-rule="evenodd"><path d="m203.984375.00390625c50.996094-.28906225 102.167969 29.02734375 117.726563 72.72265575 35.003906-1.667968 64.34375 25.375 64.34375 59.40625 0 11.449219-3.308594 22.125-9.058594 31.183594 18.519531 10.242188 31.003906 29.574219 31.003906 51.726563 0 16.597656-6.988281 31.585937-18.292969 42.375 3.882813 9.808593 5.984375 20.367187 5.984375 31.386719 0 50.285156-43.921875 91.425781-97.59375 91.425781h-188.195312c-53.671875 0-97.589844-41.140625-97.589844-91.425781 0-11.019532 2.097656-21.578126 5.953125-31.386719-11.277344-10.789063-18.265625-25.777344-18.265625-42.375 0-22.152344 12.484375-41.484375 31.007812-51.726563-5.753906-9.058594-9.089843-19.734375-9.089843-31.183594 0-34.03125 29.367187-61.074218 64.371093-59.40625 15.558594-43.695312 66.730469-73.011718 117.695313-72.72265575zm0 0" fill="#47a831"/><path d="m203.984375.00390625c-50.964844-.28906225-102.136719 29.02734375-117.695313 72.72265575-35.003906-1.667968-64.371093 25.375-64.371093 59.40625 0 11.449219 3.335937 22.125 9.089843 31.183594-18.523437 10.242188-31.007812 29.574219-31.007812 51.726563 0 16.597656 6.988281 31.585937 18.265625 42.375-3.855469 9.808593-5.957031 20.367187-5.957031 31.386719 0 50.285156 43.921875 91.425781 97.59375 91.425781h20.421875c-23.785157-38.347657-37.5625-83.886719-37.5625-132.734375 0-110.386719 70.382812-203.878906 167.570312-235.785156-17.488281-7.652344-36.933593-11.824219-56.347656-11.70703175zm0 0" fill="#178035"/><path d="m147.640625 192.777344c-11.160156-5.523438-24.679687-.949219-30.203125 10.242187-5.519531 11.160157-.917969 24.683594 10.242188 30.203125 11.160156 5.496094 24.675781.921875 30.199218-10.238281 5.523438-11.164063.921875-24.683594-10.238281-30.207031zm0 0" fill="#349ecf"/><path d="m240.542969 117.058594c-8.054688-3.96875-17.804688-.660156-21.773438 7.394531s-.660156 17.804687 7.394531 21.777344c8.050782 3.996093 17.800782.6875 21.769532-7.367188 3.96875-8.054687.664062-17.832031-7.390625-21.804687zm0 0" fill="#349ecf"/><path d="m308.078125 205.636719c-11.160156-5.523438-24.679687-.921875-30.199219 10.242187-5.496094 11.160156-.921875 24.679688 10.238282 30.203125 11.160156 5.523438 24.707031.921875 30.199218-10.238281 5.523438-11.164062.949219-24.683594-10.238281-30.207031zm0 0" fill="#349ecf"/><path d="m202.460938 469.035156c-9.777344 0-17.773438-7.996094-17.773438-17.75v-85.726562l-41.910156-59.121094c-12.855469-18.09375 13.75-36.21875 24.9375-20.25l34.746094 49.59375 19.011718-27.15625c11.648438-16.628906 39.78125-.519531 24.9375 20.28125l-26.203125 36.648438v85.730468c0 9.753906-7.996093 17.75-17.746093 17.75zm0 0" fill="#f5df87"/><path d="m184.6875 412.707031c-22.867188 2.476563-44.179688 10.042969-56.40625 23.675781-21.628906-2.730468-40.871094 14.070313-40.871094 35.992188v.054688c-16.769531 1.007812-30.058594 14.933593-30.058594 31.960937h285.875c0-17.03125-13.289062-30.953125-30.058593-31.960937.316406-20.335938-17.027344-36.792969-37.160157-36.332032-9.117187-12.429687-31.066406-20.65625-55.800781-23.359375-11.5625-1.265625-23.757812-1.324219-35.519531-.03125zm0 0" fill="#a66d30"/><path d="m128.28125 436.382812c-21.628906-2.730468-40.871094 14.070313-40.871094 35.992188v.054688c-16.769531 1.007812-30.058594 14.933593-30.058594 31.960937h90.316407c-3.769531-7.507813-5.839844-15.621094-5.839844-24.105469 0-24.453125 17.113281-45.914062 42.859375-58.054687 10.238281-4.804688 21.828125-8.140625 34.253906-9.636719-11.1875-1.121094-22.894531-1.121094-34.253906.113281-22.867188 2.476563-44.179688 10.042969-56.40625 23.675781zm0 0" fill="#6e3e0b"/></g><path d="m365.488281 512h-330.398437c-4.203125 0-7.609375-3.40625-7.609375-7.609375s3.40625-7.609375 7.609375-7.609375h330.398437c4.203125 0 7.609375 3.40625 7.609375 7.609375s-3.40625 7.609375-7.609375 7.609375zm0 0" fill="#6e3e0b"/></svg>