<svg height="512pt" viewBox="0 -9 512.00011 512" width="512pt" xmlns="http://www.w3.org/2000/svg"><path d="m230.136719 107.628906c-3.71875 0-7-2.691406-7.621094-6.480468-6.539063-39.929688-22.761719-67.867188-49.601563-85.398438-3.570312-2.335938-4.574218-7.125-2.242187-10.699219 2.335937-3.574219 7.125-4.574219 10.695313-2.242187 30.246093 19.761718 49.222656 52.007812 56.402343 95.839844.691407 4.214843-2.164062 8.1875-6.375 8.875-.425781.070312-.84375.105468-1.257812.105468zm0 0" fill="#f5df87"/><path d="m276.964844 106.082031c-.414063 0-.832032-.035156-1.253906-.105469-4.210938-.6875-7.070313-4.65625-6.382813-8.871093 7.148437-43.839844 26.128906-76.085938 56.40625-95.847657 3.570313-2.332031 8.359375-1.3281245 10.695313 2.25 2.332031 3.574219 1.324218 8.363282-2.25 10.695313-26.863282 17.53125-43.085938 45.464844-49.597657 85.390625-.617187 3.792969-3.898437 6.488281-7.617187 6.488281zm0 0" fill="#f5df87"/><g fill-rule="evenodd"><path d="m7.566406 176.226562c0 51.097657 16.90625 84.332032 40.414063 106.054688 9.988281 9.234375 8.996093 4.441406.117187 15.113281-150.011718 180.714844 91.839844 283.933594 168.992188 98.980469 59.808594-83.019531 18.515625-235.789062-16.9375-265.226562l-92.746094-62.5-28.121094-18.941407c-48.066406-32.359375-71.71875-5.085937-71.71875 16.078125zm0 0" fill="#ff698f"/><path d="m294.914062 396.375c77.152344 184.953125 319.003907 81.734375 168.992188-98.980469-8.875-10.671875-9.867188-5.878906.117188-15.113281 23.507812-21.722656 40.417968-54.957031 40.417968-106.054688v-110.441406c0-21.164062-23.65625-48.4375-71.722656-16.078125l-28.121094 18.941407-92.773437 62.5c-50.753907 37.15625-86.207031 199.453124-16.910157 265.226562zm0 0" fill="#ff698f"/><path d="m114.09375 218.144531c-10.074219 4.96875-14.191406 17.1875-9.226562 27.246094 4.964843 10.054687 17.140624 14.207031 27.1875 9.234375 10.074218-4.96875 14.191406-17.15625 9.226562-27.242188-4.964844-10.054687-17.140625-14.207031-27.1875-9.238281zm0 0" fill="#f5df87"/><path d="m81.710938 127c-12.648438 6.253906-17.816407 21.574219-11.59375 34.230469 6.25 12.625 21.550781 17.832031 34.195312 11.574219 12.613281-6.226563 17.8125-21.542969 11.5625-34.203126-6.21875-12.65625-21.519531-17.832031-34.164062-11.601562zm0 0" fill="#f5df87"/><path d="m86.617188 374.214844c-12.5 6.199218-17.640626 21.371094-11.449219 33.882812 6.164062 12.507813 21.316406 17.65625 33.816406 11.488282 12.527344-6.199219 17.636719-21.371094 11.476563-33.882813-6.191407-12.507813-21.316407-17.65625-33.84375-11.488281zm0 0" fill="#f5df87"/><path d="m391.542969 385.703125c-6.191407 12.511719-1.050781 27.683594 11.449219 33.882813 12.527343 6.167968 27.683593 1.019531 33.84375-11.488282 6.191406-12.511718 1.050781-27.683594-11.476563-33.882812-12.496094-6.167969-27.652344-1.019532-33.816406 11.488281zm0 0" fill="#f5df87"/><path d="m370.722656 227.382812c-4.964844 10.085938-.847656 22.273438 9.199219 27.246094 10.074219 4.96875 22.253906.816406 27.214844-9.238281 4.964843-10.054687.847656-22.273437-9.226563-27.246094-10.042968-4.96875-22.222656-.816406-27.1875 9.238281zm0 0" fill="#f5df87"/><path d="m396.128906 138.601562c-6.25 12.660157-1.078125 27.976563 11.5625 34.203126 12.648438 6.257812 27.949219 1.050781 34.199219-11.574219 6.21875-12.660157 1.050781-27.976563-11.59375-34.230469-12.644531-6.230469-27.949219-1.054688-34.167969 11.601562zm0 0" fill="#f5df87"/><path d="m254.265625 96.160156c1.136719-.03125 2.335937-.03125 3.445313 0 110.589843-1.054687 37.203124 198.019532 37.203124 232.863282v65.890624c0 33.207032-19.769531 47.503907-38.925781 45.835938-19.15625 1.664062-38.925781-12.628906-38.925781-45.835938v-65.890624c0-34.84375-73.355469-233.917969 37.203125-232.863282zm0 0" fill="#a66d30"/><path d="m200.152344 131.148438c-22.515625 58.496093 16.910156 172.324218 16.910156 197.875v7.921874c7.855469.90625 16.292969 1.492188 24.851562 1.753907v-7.921875c0-22.273438-29.960937-111.640625-22.722656-172.96875 3.972656-33.5 19.011719-58.609375 56.128906-59.867188-5.285156-1.226562-11.125-1.84375-17.609374-1.78125-1.109376-.03125-2.308594-.03125-3.445313 0-9.285156-.089844-17.289063 1.226563-24.121094 3.738282-14.894531 5.496093-24.355469 16.664062-29.992187 31.25zm0 0" fill="#6e3e0b"/><path d="m217.0625 336.945312v46.976563c12.351562 2.074219 56.445312 3.273437 77.851562-1.375v-46.363281c-22.601562 3.1875-53.089843 3.65625-77.851562.761718zm0 0" fill="#f5df87"/><path d="m217.0625 336.945312v46.976563c1.839844.320313 4.410156.613281 7.476562.847656 4.757813.410157 10.773438.703125 17.375.875v-46.945312c-8.558593-.261719-16.996093-.847657-24.851562-1.753907zm0 0" fill="#d9a13f"/><path d="m217.0625 383.921875v10.992187c0 .496094 0 .964844.027344 1.460938.554687 32.15625 20.035156 46.011719 38.898437 44.375 3.183594.292969 6.363281.117188 9.488281-.496094-13.082031-5.292968-23.5625-19.441406-23.5625-43.585937v-11.019531c-6.601562-.175782-12.617187-.46875-17.375-.878907-3.066406-.234375-5.636718-.527343-7.476562-.847656zm0 0" fill="#6e3e0b"/><path d="m5.171875 372.785156c-7.300781 24.730469-6.484375 46.566406.027344 64.691406 27.683593 76.996094 158.800781 86.175782 211.890625-41.101562-.027344-.496094-.027344-.964844-.027344-1.460938v-36.160156c-59.515625 125.640625-199.070312 104.328125-211.863281 14.292969-.027344-.085937-.027344-.175781-.027344-.261719zm0 0" fill="#cf4b82"/><path d="m294.914062 396.375c62.433594 149.667969 232.742188 110.613281 215.921876-5.496094-28.179688 76.441406-158.714844 85.242188-211.65625-41.683594-1.460938-1.40625-2.890626-2.808593-4.265626-4.300781v50.019531zm0 0" fill="#cf4b82"/></g></svg>