<svg height="512pt" viewBox="-18 0 512 512" width="512pt" xmlns="http://www.w3.org/2000/svg"><g fill-rule="evenodd"><path d="m213.710938 251.378906h-88.929688c-4.648438 0-8.46875-3.789062-8.46875-8.46875v-22.820312l-18.742188-21.128906-19.378906 21.128906v40.300781c0 10.480469 8.585938 19.0625 19.0625 19.0625h86.945313c5.742187 0 10.449219 4.679687 10.449219 10.417969v52.675781h38.09375v-31.804687c0-5.742188 4.707031-10.421876 10.449218-10.421876h74.316406c8.09375 0 14.726563-6.628906 14.726563-14.753906v-67.804687l-.03125-.800781-17.507813-18.777344-11.882812 18.777344-.03125.800781v42.660156c0 5.738281-4.707031 10.417969-10.417969 10.417969h-51.269531c-7.03125 0-7.546875 1.121094-8.871094-4.421875-1.980468-8.464844-9.558594-15.039063-18.511718-15.039063zm0 0" fill="#a66d30"/><path d="m78.191406 220.089844v40.300781c0 10.480469 8.585938 19.0625 19.0625 19.0625h17.539063c-10.476563 0-19.0625-8.582031-19.0625-19.0625v-40.300781zm0 0" fill="#6e3e0b"/><path d="m353.761719 396.976562-139.792969-20.957031-139.765625 20.957031 14.984375 88.929688c2.351562 14.09375 13.148438 26.09375 29.996094 26.09375h189.570312c16.851563 0 27.644532-12 30.027344-26.09375zm0 0" fill="#b3adad"/><path d="m345.582031 342.550781h-276.058593c-8.238282 0-14.953126 6.714844-14.953126 14.953125v24.515625c0 8.238281 6.714844 14.957031 14.953126 14.957031h288.34375c8.238281 0 14.984374-6.71875 14.984374-14.957031v-24.515625c0-8.238281-6.746093-14.953125-14.984374-14.953125zm0 0" fill="#e6e6e6"/><path d="m73.65625 382.019531v-24.515625c0-8.238281 6.746094-14.957031 14.957031-14.957031h-19.089843c-8.238282 0-14.953126 6.71875-14.953126 14.957031v24.515625c0 8.238281 6.714844 14.957031 14.953126 14.957031h13.347656c-5.253906-2.296874-9.214844-8.84375-9.214844-14.957031zm0 0" fill="#adafb3"/><path d="m95.328125 47.105469c-32.464844 0-59.046875 26.554687-59.046875 59.046875 0 7.175781 1.292969 14.066406 3.675781 20.441406 4.21875 58.273438 46.988281 68.003906 100.527344 68.203125l102.851563.375c10.074218 13.175781 24.167968 21.789063 41.160156 21.789063h73.972656c15.417969 0 29.28125-6.921876 38.636719-17.800782 6.117187-7.117187 8.929687-5.308594 19.175781-5.308594h25.921875c19.144531 0 34.789063-15.648437 34.789063-34.792968 0-19.117188-15.640626-34.792969-34.789063-34.792969 0 0-8.667969.601563-8.667969-15.300781 0-25.746094-21.070312-46.816406-46.847656-46.816406h-6.429688c-24.773437 0-35.625 3.300781-40.246093-17.367188-7.460938-33.386719-38.347657-44.78125-69.351563-44.78125h-55.371094c-41.765624 0-50.003906 8.839844-57.898437 30.542969-5.742187 15.816406-25.375 16.5625-34.847656 16.5625zm0 0" fill="#47a831"/><path d="m95.328125 47.105469c-32.464844 0-59.046875 26.554687-59.046875 59.046875 0 7.175781 1.292969 14.066406 3.675781 20.441406h92.257813c.601562-3.300781 1.40625-6.632812 2.410156-9.933594 18.601562-62.605468 98.03125-105.121094 185.324219-103.082031-13.378907-9.761719-31.316407-13.578125-49.289063-13.578125h-55.371094c-41.765624 0-50.003906 8.839844-57.898437 30.542969-5.742187 15.816406-25.375 16.5625-34.847656 16.5625zm0 0" fill="#178035"/><path d="m46.730469 126.59375c-25.691407 0-46.730469 21.039062-46.730469 46.761719 0 25.691406 21.039062 46.734375 46.730469 46.734375h155.296875c17.828125 0 33.414062-10.136719 41.308594-24.917969 3.472656-6.546875 5.425781-13.953125 5.425781-21.816406 0-25.722657-21.042969-46.761719-46.734375-46.761719zm0 0" fill="#8fde56"/><path d="m46.730469 126.59375c-25.691407 0-46.730469 21.039062-46.730469 46.761719 0 25.691406 21.039062 46.734375 46.730469 46.734375h23.195312c-12.832031-16.59375-17.652343-36.402344-11.710937-56.378906 4.246094-14.238282 13.460937-26.871094 26.09375-37.117188zm0 0" fill="#47a831"/><path d="m114.074219 485.90625-9.414063-55.976562v-.34375c0-5.570313 4.535156-10.132813 10.101563-10.132813h235.210937l3.789063-22.476563h-279.558594l14.984375 88.929688c2.351562 14.09375 13.148438 26.09375 29.996094 26.09375h24.917968c-16.851562 0-27.644531-12-30.027343-26.09375zm0 0" fill="#757a85"/></g></svg>