<svg height="512pt" viewBox="0 -90 512.00009 512" width="512pt" xmlns="http://www.w3.org/2000/svg"><g fill-rule="evenodd"><path d="m427.929688 75.453125c-125.59375 0-215.15625 0-341.191407 0-34.457031.523437-58.546875 23.34375-72.449219 55.207031-19.707031 45.082032-18.949218 108.316406 1.78125 152.054688 14.222657 29.9375 37.816407 50.714844 70.667969 50.277344h341.191407zm0 0" fill="#6e3e0b"/><path d="m512 204.222656c0-71.140625-37.640625-128.769531-84.070312-128.769531-36.503907 0-67.574219 35.597656-79.195313 85.378906-3.152344 13.539063-4.875 28.160157-4.875 43.390625 0 71.109375 37.640625 128.769532 84.070313 128.769532 46.429687 0 84.070312-57.660157 84.070312-128.769532zm0 0" fill="#a66d30"/><path d="m476.519531 201.710938c0-45.695313-20.644531-82.753907-46.109375-82.753907s-46.109375 37.058594-46.109375 82.753907c0 45.726562 20.644531 82.785156 46.109375 82.785156s46.109375-37.058594 46.109375-82.785156zm0 0" fill="#f5df87"/><path d="m306.246094 75.453125 19.859375-51.183594c-5.609375 14.386719-81.503907 13.746094-78.582031-7.410156l-23.886719 58.59375c-3.710938 25.210937 60.679687 43.507813 82.609375 0zm0 0" fill="#d9a13f"/><path d="m326.105469 24.269531c11.386719-26.816406-74.84375-34.371093-78.582031-7.410156-2.921876 21.15625 72.972656 21.796875 78.582031 7.410156zm0 0" fill="#f5df87"/><path d="m259.960938 21.675781c2.277343-16.519531 35.539062-20.078125 58.34375-14.183593-20.148438-11.640626-68.007813-10.589844-70.78125 9.367187-.996094 7.089844 6.917968 11.875 18.074218 14.5625-4-2.539063-6.191406-5.777344-5.636718-9.746094zm0 0" fill="#d9a13f"/><path d="m247.667969 75.453125 17.929687-44.035156c-11.152344-2.683594-19.066406-7.46875-18.074218-14.558594l-23.886719 58.59375c-1.257813 8.546875 5.3125 16.308594 15.417969 21.125zm0 0" fill="#a66d30"/><path d="m53.304688 282.714844c-20.761719-43.738282-21.492188-106.972656-1.8125-152.054688 13.902343-31.863281 38.023437-54.683594 72.480468-55.207031h-37.234375c-34.457031.523437-58.546875 23.34375-72.445312 55.207031-19.710938 45.082032-18.953125 108.316406 1.777343 152.054688 14.222657 29.9375 37.816407 50.714844 70.667969 50.277344h35.101563c-31.742188-.464844-54.636719-21.007813-68.535156-50.277344zm0 0" fill="#4f2007"/><path d="m409.738281 198.910156c0-26.875 7.125-50.742187 18.191407-65.855468 3.738281-5.136719 7.945312-9.25 12.46875-12.140626-3.210938-1.285156-6.570313-1.957031-9.988282-1.957031-.84375 0-1.660156.03125-2.480468.117188-24.324219 2.335937-43.625 38.429687-43.625 82.636719 0 44.207031 19.300781 80.332031 43.625 82.667968.820312.058594 1.636718.117188 2.480468.117188 5.402344 0 10.632813-1.691406 15.449219-4.785156-6.628906-2.625-12.730469-7.820313-17.929687-14.941407-11.066407-15.144531-18.191407-39.011719-18.191407-65.859375zm0 0" fill="#d9a13f"/><path d="m214.640625 263.339844c-17.375 1.898437-33.582031 7.644531-42.867187 18.003906-16.4375-2.070312-31.070313 10.679688-31.070313 27.3125v.058594c-12.761719.757812-22.863281 11.320312-22.863281 24.277344h217.316406c0-12.957032-10.105469-23.519532-22.835938-24.277344.203126-15.4375-12.964843-27.953125-28.269531-27.574219-6.917969-9.453125-23.59375-15.699219-42.398437-17.742187-8.789063-.960938-18.046875-1.019532-27.011719-.058594zm0 0" fill="#47a831"/><path d="m171.773438 281.34375c-16.4375-2.070312-31.070313 10.679688-31.070313 27.3125v.058594c-12.761719.757812-22.863281 11.320312-22.863281 24.277344h68.652344c-2.863282-5.71875-4.410157-11.875-4.410157-18.324219 0-18.558594 12.996094-34.871094 32.558594-44.0625 7.796875-3.675781 16.585937-6.214844 26.050781-7.324219-8.527344-.84375-17.433594-.875-26.050781.058594-17.375 1.898437-33.582031 7.644531-42.867187 18.003906zm0 0" fill="#178035"/></g><path d="m273.367188 231.285156h-53.148438c-4.265625 0-7.722656-3.453125-7.722656-7.714844 0-4.265624 3.457031-7.71875 7.722656-7.71875h53.148438c4.265624 0 7.722656 3.453126 7.722656 7.71875 0 4.261719-3.457032 7.714844-7.722656 7.714844zm0 0" fill="#4f2007"/><path d="m164.152344 196.417969h-81.414063c-4.265625 0-7.722656-3.457031-7.722656-7.71875s3.457031-7.71875 7.722656-7.71875h81.414063c4.265625 0 7.722656 3.457031 7.722656 7.71875s-3.457031 7.71875-7.722656 7.71875zm0 0" fill="#4f2007"/><path d="m117.136719 261.835938h-37.902344c-4.265625 0-7.722656-3.453126-7.722656-7.714844 0-4.265625 3.457031-7.71875 7.722656-7.71875h37.902344c4.265625 0 7.726562 3.453125 7.726562 7.71875 0 4.261718-3.460937 7.714844-7.726562 7.714844zm0 0" fill="#4f2007"/><path d="m198.816406 137.152344h-53.148437c-4.265625 0-7.722657-3.453125-7.722657-7.71875 0-4.261719 3.457032-7.714844 7.722657-7.714844h53.148437c4.265625 0 7.722656 3.453125 7.722656 7.714844 0 4.265625-3.457031 7.71875-7.722656 7.71875zm0 0" fill="#4f2007"/><path d="m347.113281 168.550781h-45.1875c-4.269531 0-7.726562-3.457031-7.726562-7.71875s3.457031-7.71875 7.726562-7.71875h48.796875zm0 0" fill="#4f2007"/></svg>