<svg height="511pt" viewBox="1 -67 511.999 511" width="511pt" xmlns="http://www.w3.org/2000/svg"><g fill-rule="evenodd"><path d="m364.148438 166.699219-32.761719 90.28125 32.761719 64.359375 104.28125-133.304688-49.4375-64.769531zm0 0" fill="#349ecf"/><path d="m0 100.675781v105.984375c4.730469 55.921875 51.980469 100.203125 109.070312 100.203125.730469 0 1.488282-.03125 2.25-.03125v-.40625l18.542969-20.578125-18.542969-20.230468c-.761718.03125-1.519531.03125-2.25.03125-37.554687 0-68.246093-30.679688-68.246093-68.1875v-87.5625c0-37.539063 30.691406-68.214844 68.246093-68.214844 29.144532 0 54.167969 18.503906 63.894532 44.367187l20.878906 15.730469 21.636719-15.730469h.410156c-10.980469-48.804687-54.8125-85.550781-106.820313-85.550781-57.089843 0-104.339843 44.277344-109.070312 100.175781zm0 0" fill="#349ecf"/><path d="m418.992188 123.265625 49.4375 64.769531c10.339843 2.015625 21.171874 1.402344 31.363281-2.011718 9.257812-4.234376 12.207031-9.226563 12.207031-13.660157v-.03125c0-3.121093-1.433594-5.953125-3.125-8.140625l-28.589844-36.429687-28.589844-36.457031c-4.117187-5.253907-12.613281-9.953126-23.359374 3.621093-5.460938 8.609375-8.613282 18.359375-9.34375 28.339844zm0 0" fill="#e6e6e6"/><path d="m111.316406 337.800781 117.453125 19.851563 135.378907-19.851563v-237.097656c0-5.574219.671874-8.171875-3.765626-19.613281l-20.675781-53.503906c-1.664062-4.347657-3.796875-8.464844-8.46875-8.464844h-52.183593c-4.644532 0-6.453126 4.261718-8.4375 8.464844l-19.507813 41.273437c-8.117187 17.191406-8.265625 17.191406-24.382813 17.191406h-85.914062c-16.234375 0-29.492188 13.894531-29.492188 30.851563v220.898437zm0 0" fill="#e6e6e6"/><path d="m193.027344 266.84375c9.023437 14.625 25.726562 24.433594 44.824218 24.433594 28.707032 0 51.980469-22.183594 51.980469-49.5625 0-8.320313-2.160156-16.171875-5.957031-23.03125l-22.3125-38.675782c-5.664062-9.25 0 0-11.855469-19.847656-5.78125-8.199218-16.703125-9.542968-24.0625 1.34375l-7.535156 12.347656-3.738281 6.160157-22.542969 38.671875c-3.796875 6.859375-5.957031 14.714844-5.957031 23.03125 0 9.164062 2.597656 17.746094 7.15625 25.128906zm0 0" fill="#349ecf"/><path d="m140.8125 377.5h228.945312c6.21875 0 11.300782-5.078125 11.300782-11.296875v-17.105469c0-6.214844-5.082032-11.296875-11.300782-11.296875h-263.8125c-6.21875 0-11.332031 5.082031-11.332031 11.296875v17.105469c0 6.21875 5.113281 11.296875 11.332031 11.296875zm0 0" fill="#349ecf"/><g fill="#4275ab"><path d="m193.230469 267.167969c9.082031 14.445312 25.667969 24.109375 44.621093 24.109375 12.117188 0 23.273438-3.941406 32.121094-10.597656-.699218.03125-1.402344.058593-2.101562.058593-19.097656 0-35.804688-9.835937-44.824219-24.457031-4.558594-7.359375-7.15625-15.9375-7.15625-25.105469 0-8.316406 2.132813-16.167969 5.957031-23.058593l22.542969-38.671876 3.738281-6.132812 1.753906-2.859375c-.058593-.117187-.117187-.203125-.175781-.292969-5.78125-8.199218-16.703125-9.542968-24.0625 1.34375l-7.125 11.734375-.410156.613281-3.738281 6.160157-22.542969 38.671875c-3.796875 6.859375-5.957031 14.714844-5.957031 23.03125 0 9.164062 2.597656 17.746094 7.152344 25.132812.0625.113282.148437.230469.207031.320313zm0 0"/><path d="m129.160156 337.800781h-23.214844c-6.21875 0-11.328124 5.082031-11.328124 11.296875v17.105469c0 6.21875 5.109374 11.296875 11.328124 11.296875h23.214844c-6.21875 0-11.328125-5.078125-11.328125-11.296875v-17.105469c0-3.882812 1.984375-7.296875 4.992188-9.339844 1.808593-1.226562 4-1.957031 6.335937-1.957031zm0 0"/><path d="m364.148438 166.699219v154.640625l.324218-.4375 16.585938-21.191406v-146.410157l-16.585938 13.136719zm0 0"/><path d="m0 106.335938v100.324218c4.175781 49.269532 41.320312 89.492188 89.152344 98.363282h.03125c2.628906.496093 5.285156.878906 7.972656 1.167968-40.941406-13.425781-71.429688-50.4375-75.195312-94.773437v-105.984375c4.730468-55.898438 51.980468-100.207032 109.070312-100.207032 4.027344 0 8 .234376 11.914062.671876-4.410156-1.457032-8.964843-2.625-13.609374-3.5-6.570313-1.257813-13.34375-1.898438-20.265626-1.898438-57.089843 0-104.339843 44.277344-109.070312 100.175781zm0 0"/></g><path d="m111.316406 265.707031v72.097657h24.382813v-231.144532c0-7.882812 2.863281-15.09375 7.566406-20.550781 0-.027344.027344-.058594.027344-.058594h-2.480469c-16.238281 0-29.496094 13.894531-29.496094 30.851563zm0 0" fill="#adafb3"/></g></svg>