<svg height="512pt" viewBox="0 -33 512.00047 512" width="512pt" xmlns="http://www.w3.org/2000/svg"><path d="m189.503906 142.265625c45.585938-67.707031-21.636718-154.183594-161.429687-135.792969-21.375 3.933594-30.253907 14.75-27.625 34.976563 19.566406 108.074219 136.636719 177.9375 188.824219 101.195312.085937-.113281.144531-.261719.230468-.378906zm0 0" fill="#8fde56" fill-rule="evenodd"/><path d="m.449219 41.449219c19.097656 105.480469 131.058593 174.558593 184.941406 106.472656-57.734375 25.792969-141.808594-37.746094-158.132813-127.835937-.644531-5.070313-.585937-9.5625.234376-13.496094-20.96875 4.023437-29.640626 14.835937-27.042969 34.859375zm0 0" fill="#47a831" fill-rule="evenodd"/><g fill="#178035"><path d="m240.871094 183.15625c-1.46875 0-2.957032-.417969-4.273438-1.296875l-164.679687-109.765625c-3.542969-2.367188-4.496094-7.160156-2.132813-10.707031 2.363282-3.546875 7.152344-4.503907 10.695313-2.140625l164.679687 109.769531c3.542969 2.367187 4.5 7.160156 2.132813 10.707031-1.484375 2.230469-3.929688 3.433594-6.421875 3.433594zm0 0"/><path d="m110.472656 96.300781c-3.902344 0-7.253906-2.957031-7.660156-6.929687l-3.242188-31.507813c-.4375-4.242187 2.644532-8.035156 6.882813-8.472656s8.023437 2.648437 8.460937 6.890625l3.242188 31.507812c.433594 4.242188-2.648438 8.03125-6.882812 8.46875-.269532.027344-.535157.042969-.800782.042969zm0 0"/><path d="m81.683594 104.027344c-3.402344 0-6.519532-2.277344-7.445313-5.726563-1.101562-4.117187 1.339844-8.351562 5.453125-9.453125l28.796875-7.726562c4.113281-1.105469 8.34375 1.339844 9.445313 5.460937 1.101562 4.117188-1.339844 8.351563-5.453125 9.453125l-28.792969 7.726563c-.667969.179687-1.339844.265625-2.003906.265625zm0 0"/><path d="m157.664062 127.808594c-3.902343 0-7.253906-2.957032-7.660156-6.929688l-4.058594-39.347656c-.441406-4.242188 2.640626-8.035156 6.878907-8.472656 4.226562-.4375 8.027343 2.644531 8.464843 6.886718l4.058594 39.347657c.4375 4.242187-2.644531 8.035156-6.882812 8.472656-.265625.027344-.535156.042969-.800782.042969zm0 0"/><path d="m121.722656 137.457031c-3.40625 0-6.523437-2.273437-7.445312-5.722656-1.105469-4.121094 1.335937-8.351563 5.453125-9.457031l35.949219-9.648438c4.109374-1.101562 8.34375 1.339844 9.445312 5.460938 1.101562 4.117187-1.339844 8.351562-5.453125 9.453125l-35.949219 9.648437c-.667968.179688-1.339844.265625-2 .265625zm0 0"/></g><path d="m322.492188 138.304688c-45.613282-67.707032 21.640624-154.1875 161.433593-135.792969 21.375 3.933593 30.253907 14.746093 27.625 34.972656-19.566406 108.078125-136.636719 177.941406-188.820312 101.199219-.089844-.117188-.148438-.261719-.238281-.378906zm0 0" fill="#8fde56" fill-rule="evenodd"/><path d="m511.550781 37.484375c-19.097656 105.480469-131.0625 174.558594-184.941406 106.472656 57.734375 25.796875 141.808594-37.714843 158.132813-127.835937.640624-5.070313.585937-9.5625-.234376-13.496094 20.96875 4.023438 29.640626 14.835938 27.042969 34.859375zm0 0" fill="#47a831" fill-rule="evenodd"/><path d="m271.128906 179.550781c-2.492187 0-4.9375-1.207031-6.425781-3.4375-2.363281-3.546875-1.40625-8.34375 2.136719-10.710937l164.679687-110.117188c3.542969-2.367187 8.332031-1.410156 10.695313 2.136719 2.363281 3.546875 1.410156 8.339844-2.132813 10.707031l-164.679687 110.121094c-1.316406.878906-2.804688 1.300781-4.273438 1.300781zm0 0" fill="#178035"/><path d="m401.527344 92.335938c-.265625 0-.53125-.011719-.800782-.039063-4.238281-.4375-7.320312-4.230469-6.882812-8.472656l3.242188-31.507813c.4375-4.238281 4.234374-7.320312 8.460937-6.886718 4.238281.4375 7.316406 4.226562 6.882813 8.46875l-3.242188 31.507812c-.40625 3.972656-3.757812 6.929688-7.660156 6.929688zm0 0" fill="#178035"/><path d="m430.316406 100.0625c-.664062 0-1.332031-.085938-2.003906-.265625l-28.792969-7.722656c-4.113281-1.105469-6.554687-5.339844-5.453125-9.457031 1.101563-4.117188 5.332032-6.5625 9.445313-5.460938l28.796875 7.726562c4.113281 1.101563 6.554687 5.335938 5.449218 9.457032-.921874 3.445312-4.039062 5.722656-7.441406 5.722656zm0 0" fill="#178035"/><path d="m354.335938 123.84375c-.265626 0-.53125-.015625-.804688-.039062-4.234375-.441407-7.316406-4.234376-6.878906-8.476563l4.058594-39.347656c.4375-4.238281 4.222656-7.324219 8.464843-6.886719 4.238281.4375 7.316407 4.230469 6.878907 8.472656l-4.058594 39.347656c-.410156 3.972657-3.757813 6.929688-7.660156 6.929688zm0 0" fill="#178035"/><path d="m390.277344 133.492188c-.660156 0-1.332032-.085938-2-.265626l-35.949219-9.644531c-4.117187-1.105469-6.554687-5.339843-5.453125-9.457031 1.105469-4.117188 5.335938-6.5625 9.445312-5.457031l35.949219 9.644531c4.113281 1.105469 6.554688 5.339844 5.453125 9.457031-.925781 3.449219-4.039062 5.722657-7.445312 5.722657zm0 0" fill="#178035"/><path d="m233.601562 110.46875v216.734375c7.125-2.332031 14.777344-3.558594 22.574219-3.558594 7.824219 0 15.214844 1.195313 22.222657 3.410157v-277.414063c0-12.300781-10.074219-22.355469-22.398438-22.355469-12.320312 0-22.398438 10.054688-22.398438 22.355469zm0 0" fill="#47a831" fill-rule="evenodd"/><path d="m233.601562 110.46875v181.667969c4.703126-1.515625 9.609376-2.59375 14.660157-3.117188v-238.097656c0-10.40625 7.214843-19.207031 16.90625-21.65625-2.800781-1.28125-5.898438-1.980469-9.167969-1.980469-12.324219 0-22.398438 10.054688-22.398438 22.355469zm0 0" fill="#178035" fill-rule="evenodd"/><path d="m72.167969 438.277344h361.148437c0-29.902344-23.390625-54.355469-52.914062-56.132813v-.117187c0-35.179688-28.589844-63.714844-63.835938-63.714844l-1.578125.027344c-9.023437-12.269532-21.785156-21.597656-36.589843-26.316406-7.011719-2.246094-14.457032-3.441407-22.226563-3.441407-7.851563 0-15.445313 1.253907-22.570313 3.558594-14.867187 4.835937-27.628906 14.308594-36.5625 26.695313-2.660156-.347657-5.375-.523438-8.121093-.523438-35.273438 0-63.835938 28.535156-63.835938 63.714844v.117187c-29.519531 1.777344-52.914062 26.230469-52.914062 56.132813zm0 0" fill="#a66d30" fill-rule="evenodd"/><path d="m196.425781 438.277344h-124.257812c0-29.902344 23.394531-54.355469 52.917969-56.132813v-.117187c0-35.179688 28.558593-63.714844 63.835937-63.714844 2.746094 0 5.460937.175781 8.117187.523438 13.230469-18.332032 34.78125-30.253907 59.136719-30.253907 15.328125 0 29.550781 4.722657 41.289063 12.765625-59.25 17.34375-101.914063 65.871094-101.914063 123.058594 0 4.691406.292969 9.296875.875 13.871094zm0 0" fill="#6e3e0b" fill-rule="evenodd"/><path d="m459.042969 446h-412.601563c-4.257812 0-7.710937-3.457031-7.710937-7.722656 0-4.261719 3.453125-7.71875 7.710937-7.71875h412.605469c4.257813 0 7.710937 3.457031 7.710937 7.71875 0 4.265625-3.453124 7.722656-7.714843 7.722656zm0 0" fill="#6e3e0b"/></svg>