<svg height="512pt" viewBox="-62 0 512 512" width="512pt" xmlns="http://www.w3.org/2000/svg"><g fill-rule="evenodd"><path d="m369.515625 438.351562c21.253906-134.765624 27.820313-234.84375 0-364.734374l-175.515625-36.820313-175.515625 36.820313c-27.820313 129.890624-21.253906 229.96875 0 364.734374l170.609375 36.824219zm0 0" fill="#f5df87"/><path d="m353.777344 0h-319.554688c-29.691406 0-37.984375 28.152344-28.117187 48.328125l12.378906 25.289063h351.03125l12.378906-25.289063c9.867188-20.175781 1.574219-48.328125-28.117187-48.328125zm0 0" fill="#a66d30"/><path d="m369.515625 438.351562h-351.03125l-12.378906 25.289063c-9.867188 20.207031-1.574219 48.359375 28.117187 48.359375h319.554688c29.691406 0 37.984375-28.152344 28.117187-48.359375zm0 0" fill="#a66d30"/><path d="m86.242188 0h-52.019532c-29.691406 0-37.984375 28.152344-28.117187 48.328125l12.378906 25.289063h52.023437c-18.246093-11.386719-34.417968-73.617188 15.734376-73.617188zm0 0" fill="#6e3e0b"/><path d="m86.242188 512h-52.019532c-29.691406 0-37.984375-28.179688-28.117187-48.359375l12.378906-25.289063h52.023437c-18.246093 11.417969-34.417968 73.648438 15.734376 73.648438zm0 0" fill="#6e3e0b"/><path d="m258.546875 308.023438c51.410156-53.878907 4.671875-142.507813-124.101563-148.609376-19.941406.089844-29.722656 8.4375-30.65625 27.15625.058594 100.984376 94.355469 183.214844 153.972657 122.269532l.289062-.289063c.175781-.175781.320313-.351562.496094-.527343zm0 0" fill="#8fde56"/><path d="m242.609375 320.929688c-55.089844 8.441406-116.574219-60.882813-116.632813-142.417969.410157-8.351563 2.597657-14.660157 6.65625-19.070313-18.742187.585938-27.9375 8.996094-28.84375 27.128906.058594 92.746094 79.644532 169.726563 138.820313 134.359376zm0 0" fill="#47a831"/><path d="m375.675781 105.070312c-1.8125-10.308593-3.855469-20.765624-6.160156-31.453124h-351.03125c-27.820313 129.890624-21.253906 229.96875 0 364.734374h34.769531c-19.003906-120.691406-26.273437-213.554687-7.589844-324.929687 1.664063-4.847656 6.25-8.351563 11.648438-8.351563zm0 0" fill="#d9a13f"/></g><path d="m298.5625 335.957031-57.671875-55.703125 2.496094-32.644531c.324219-4.253906-2.859375-7.96875-7.109375-8.292969-4.253906-.332031-7.960938 2.859375-8.285156 7.113282l-1.519532 19.894531-23.042968-22.253907 1.917968-25.40625c.320313-4.257812-2.867187-7.964843-7.117187-8.285156-4.265625-.328125-7.957031 2.867188-8.28125 7.121094l-.953125 12.628906-15.386719-14.863281c-3.066406-2.960937-7.953125-2.875-10.914063.195313-2.960937 3.070312-2.875 7.960937.195313 10.925781l14.964844 14.457031-10.316407.875c-4.246093.355469-7.398437 4.097656-7.039062 8.347656.339844 4.03125 3.714844 7.078125 7.683594 7.078125.21875 0 .4375-.011719.660156-.03125l23.777344-2.011719 22.699218 21.929688-17.070312 1.449219c-4.246094.363281-7.398438 4.101562-7.035156 8.355469.339844 4.027343 3.714844 7.070312 7.683594 7.070312.21875 0 .4375-.007812.660156-.027344l30.523437-2.59375 57.761719 55.792969c1.5 1.445313 3.429688 2.167969 5.359375 2.167969 2.023437 0 4.039063-.792969 5.554687-2.363282 2.960938-3.070312 2.871094-7.960937-.195312-10.925781zm0 0" fill="#178035"/></svg>