<svg height="512pt" viewBox="0 -19 512.00112 512" width="512pt" xmlns="http://www.w3.org/2000/svg"><path d="m142.15625 0c-22.425781.175781-30.457031 13.546875-30.105469 34.511719 2.128907 134.539062 93.09375 186.800781 152.113281 135.0625.175782-.144531.378907-.320313.554688-.496094l.320312-.289063c67.3125-60.554687-15.738281-164.234374-122.882812-168.789062zm0 0" fill="#8fde56" fill-rule="evenodd"/><path d="m139.617188.0585938c-20.5 1.1679682-27.917969 14.3046872-27.566407 34.4531252 2.070313 131.09375 88.480469 184.054687 147.5 138.859375-56.125 18.453125-122.589843-36.4375-124.433593-151.210938-.144532-8.84375 1.199218-16.347656 4.5-22.1015622zm0 0" fill="#47a831" fill-rule="evenodd"/><path d="m491.535156 65.3125c18.542969 3.882812 23.011719 16.265625 19.214844 33.578125-24.0625 111.003906-108.050781 139.207031-148.289062 86.597656-.148438-.175781-.265626-.351562-.410157-.527343l-.203125-.261719c-45.671875-61.285157 40.269532-133.371094 129.6875-119.386719zm0 0" fill="#8fde56" fill-rule="evenodd"/><path d="m493.636719 65.8125c16.792969 4.347656 20.765625 16.4375 17.113281 33.078125-23.449219 108.144531-103.753906 137.691406-145.105469 90.480469 43.394531 24.585937 107.523438-9.839844 128.050781-104.523438 1.605469-7.332031 1.722657-13.753906-.058593-19.035156zm0 0" fill="#47a831" fill-rule="evenodd"/><path d="m247.148438 138.835938 4.121093-32.550782c.535157-4.234375-2.460937-8.097656-6.695312-8.632812-4.222657-.539063-8.09375 2.460937-8.628907 6.691406l-2.421874 19.140625-23.109376-26.03125 3.210938-25.359375c.535156-4.230469-2.457031-8.097656-6.6875-8.632812-4.234375-.539063-8.097656 2.457031-8.632812 6.691406l-1.515626 11.953125-15.390624-17.339844c-2.828126-3.1875-7.714844-3.476563-10.902344-.644531-3.1875 2.832031-3.476563 7.714844-.644532 10.90625l15.761719 17.753906-14.457031.492188c-4.261719.144531-7.601562 3.71875-7.457031 7.980468.144531 4.171875 3.570312 7.460938 7.714843 7.460938.089844 0 .179688 0 .269532-.003906l27.246094-.925782 23.398437 26.355469-22.140625.734375c-4.261719.144531-7.601562 3.714844-7.460938 7.976562.140626 4.175782 3.566407 7.46875 7.714844 7.46875.085938 0 .171875 0 .261719-.003906l34.953125-1.164062 62.367188 70.253906c1.523437 1.71875 3.644531 2.59375 5.777343 2.59375 1.820313 0 3.652344-.640625 5.125-1.949219 3.1875-2.832031 3.476563-7.714843.644531-10.902343zm0 0" fill="#178035"/><path d="m452.363281 136.570312-9.421875-2.222656 13.972656-10.550781c3.402344-2.570313 4.078126-7.414063 1.507813-10.816406-2.570313-3.40625-7.414063-4.078125-10.820313-1.507813l-13.492187 10.191406.535156-7.476562c.304688-4.253906-2.898437-7.953125-7.152343-8.257812-4.269532-.304688-7.949219 2.898437-8.257813 7.152343l-1.5 20.941407-20.890625 15.777343.972656-13.570312c.304688-4.253907-2.894531-7.949219-7.152344-8.257813-4.277343-.3125-7.949218 2.898438-8.253906 7.152344l-1.9375 27.035156-63.949218 48.292969c-3.40625 2.570313-4.078126 7.414063-1.507813 10.820313 1.515625 2.007812 3.828125 3.066406 6.167969 3.066406 1.621094 0 3.253906-.507813 4.648437-1.558594l63.816407-48.191406 28.21875 6.648437c.597656.140625 1.191406.210938 1.777343.210938 3.5 0 6.671875-2.398438 7.511719-5.957031.976562-4.152344-1.597656-8.308594-5.746094-9.289063l-15.742187-3.707031 21.253906-16.050782 21.902344 5.160157c.59375.140625 1.191406.207031 1.777343.207031 3.5 0 6.671876-2.398438 7.507813-5.953125.980469-4.152344-1.59375-8.3125-5.746094-9.289063zm0 0" fill="#178035"/><g fill-rule="evenodd"><path d="m435.789062 307.617188c0-37.75-30.605468-68.351563-68.363281-68.351563l-1.722656.03125c-12.207031-16.640625-30.867187-28.292969-52.304687-31.210937-3.472657-.46875-7.035157-.730469-10.65625-.730469-3.007813 0-5.988282.175781-8.90625.496093-22.398438 2.539063-41.90625 14.570313-54.464844 31.96875-2.832032-.378906-5.753906-.554687-8.699219-.554687-33.085937 0-60.683594 23.503906-66.992187 54.714844-36.414063 23.710937 93.59375 174.480469 328.789062 73.984375 0-32.085938-25.054688-58.332032-56.679688-60.230469zm0 0" fill="#a66d30"/><path d="m104.253906 426.828125v-117.75c0-1.78125-.175781-3.535156-.46875-5.253906l87.230469-14.335938c45.789063-7.535156 66.753906-14.277343 96.277344-8.847656l45.527343 8.347656c42.8125 13.636719 35.101563 61.488281-9.605468 56.964844-16.996094-1.722656-37.058594-4.4375-51.980469-6.335937-21.613281-3.269532-31.25 29.867187-6.484375 37.78125l71.371094 12.992187c18.457031 2.890625 20.996094 1.402344 39.335937-2.160156l87.929688-17.199219c56.796875-18.246094 62.609375 35.15625 23.796875 47.59375l-135.207032 43.328125c-36.910156 11.824219-54.578124 18.976563-94.703124 6.507813zm0 0" fill="#f5df87"/><path d="m0 428.230469v-119.152344c0-16.703125 13.695312-30.394531 30.398438-30.394531h43.425781c14.921875 0 27.449219 10.890625 29.960937 25.136718.292969 1.722657.46875 3.476563.46875 5.257813v119.152344c0 16.726562-13.695312 30.421875-30.429687 30.421875h-43.425781c-16.730469 0-30.398438-13.691406-30.398438-30.421875zm0 0" fill="#349ecf"/><path d="m0 428.230469v-119.152344c0-16.703125 13.695312-30.394531 30.398438-30.394531h28.796874c-.03125 0-.03125 0-.03125 0-16.675781.089844-30.28125 13.722656-30.253906 30.394531v119.152344c0 16.730469 13.667969 30.421875 30.402344 30.421875h-28.914062c-16.730469 0-30.398438-13.691406-30.398438-30.421875zm0 0" fill="#4275ab"/><path d="m191.011719 289.488281c17.726562-2.921875 31.746093-5.695312 43.953125-7.738281 16.554687-36.378906 51.21875-63.328125 93.007812-70.21875-4.671875-1.605469-9.546875-2.746094-14.570312-3.445312-3.476563-.464844-7.039063-.730469-10.660156-.730469-1.664063 0-3.269532.058593-4.90625.148437-1.34375.085938-2.65625.203125-4 .347656-22.398438 2.539063-41.90625 14.570313-54.464844 31.972657-2.832032-.382813-5.75-.558594-8.699219-.558594-33.085937 0-60.683594 23.503906-66.992187 54.71875zm0 0" fill="#6e3e0b"/><path d="m104.253906 309.078125v18.042969l55.949219-9.195313 29.582031-4.878906c45.820313-7.53125 66.789063-14.246094 96.3125-8.84375l45.527344 8.347656c13.550781 4.320313 22.019531 12.058594 25.871094 20.46875 8.9375-14.101562 1.78125-35.59375-24.675782-44.03125l-45.527343-8.347656c-18.105469-3.328125-32.96875-2.074219-52.328125 1.109375-12.207032 2.042969-26.226563 4.816406-43.953125 7.734375l-27.332031 4.496094-59.894532 9.839843c.292969 1.722657.46875 3.476563.46875 5.257813zm0 0" fill="#d9a13f"/></g></svg>