<svg height="512pt" viewBox="-28 0 512 512" width="512pt" xmlns="http://www.w3.org/2000/svg"><g fill-rule="evenodd"><path d="m428.253906 464.351562v-415.527343l-96.726562-24.414063-96.722656 24.414063v208.585937 9.621094c0 7.824219 3.761718 67.144531-46.703126 71.734375h-32.476562c-76.300781 0-133.582031 31.175781-133.550781 120.144531v.914063c.058593.207031.117187 1.351562.234375 4.527343l187.6875 23.824219zm0 0" fill="#a66d30"/><path d="m427.929688 464.351562h-413.734376c-7.816406 0-14.195312 6.382813-14.195312 14.207032v19.234375c0 7.824219 6.378906 14.207031 14.195312 14.207031h414.441407c7.789062 0 14.195312-6.382812 14.195312-14.207031v-19.234375c0-7.824219-6.40625-14.207032-14.195312-14.207032zm0 0" fill="#b3adad"/><path d="m455 24.410156c0-8.527344-4.410156-16.058594-11.078125-20.4375-3.824219-2.5-8.40625-3.972656-13.316406-3.972656h-198.183594c-13.402344 0-24.394531 10.972656-24.394531 24.410156 0 13.414063 10.992187 24.414063 24.394531 24.414063h198.183594c4.910156 0 9.492187-1.472657 13.316406-4 6.667969-4.351563 11.078125-11.914063 11.078125-20.414063zm0 0" fill="#f5df87"/><path d="m299.964844 138.027344c0-11.878906-9.699219-21.585938-21.542969-21.585938h-54.492187c-6.730469 0-12.226563 5.5-12.226563 12.234375v18.707031c0 6.707032 5.496094 12.234376 12.226563 12.234376h54.492187c11.84375 0 21.542969-9.734376 21.542969-21.589844zm0 0" fill="#e6e6e6"/><path d="m299.964844 235.851562c0-11.878906-9.699219-21.585937-21.542969-21.585937h-54.492187c-6.730469 0-12.226563 5.5-12.226563 12.234375v18.707031c0 6.703125 5.496094 12.203125 12.226563 12.203125h54.492187c11.84375 0 21.542969-9.703125 21.542969-21.558594zm0 0" fill="#e6e6e6"/><path d="m133.433594 339.734375c-64.953125 5.824219-111.390625 39.058594-111.359375 119.175781v.914063c.058593.203125.117187 1.351562.234375 4.527343h43.46875c-1.851563-52.761718 17.398437-101.5 67.65625-124.617187zm0 0" fill="#6e3e0b"/><path d="m233.714844 147.382812v-18.707031c0-1.792969.382812-3.472656 1.089844-5 1.910156-4.265625 6.199218-7.234375 11.136718-7.234375h-22.011718c-6.734376 0-12.230469 5.5-12.230469 12.234375v18.707031c0 6.707032 5.496093 12.234376 12.230469 12.234376h22.011718c-4.9375 0-9.226562-3-11.136718-7.234376-.707032-1.53125-1.089844-3.234374-1.089844-5zm0 0" fill="#adafb3"/><path d="m233.714844 226.5c0-1.792969.382812-3.5 1.089844-5.027344 1.910156-4.238281 6.199218-7.207031 11.136718-7.207031h-22.011718c-6.734376 0-12.230469 5.5-12.230469 12.234375v18.707031c0 6.703125 5.496093 12.203125 12.230469 12.203125h22.011718c-4.9375 0-9.226562-2.96875-11.136718-7.203125-.707032-1.53125-1.089844-3.234375-1.089844-5zm0 0" fill="#adafb3"/><path d="m253.144531 24.410156c0-13.4375 10.992188-24.410156 24.394531-24.410156h-45.117187c-13.402344 0-24.394531 10.972656-24.394531 24.410156 0 13.414063 10.992187 24.414063 24.394531 24.414063h45c-6.347656-.027344-12.167969-2.527344-16.519531-6.589844-4.761719-4.46875-7.757813-10.824219-7.757813-17.824219zm0 0" fill="#d9a13f"/><path d="m234.804688 48.824219h193.421874v22.765625h-193.421874zm0 0" fill="#6e3e0b"/><path d="m0 497.792969c0 7.824219 6.378906 14.207031 14.195312 14.207031h414.441407c7.789062 0 14.195312-6.382812 14.195312-14.207031v-5.027344h-442.832031zm0 0" fill="#757a85"/></g></svg>