<svg height="511pt" viewBox="1 1 511.99994 511" width="511pt" xmlns="http://www.w3.org/2000/svg"><g fill-rule="evenodd"><path d="m290.375 254.847656 214.890625-214.894531c8.980469-9.003906 8.980469-23.714844 0-32.71875-9.003906-8.980469-23.714844-8.980469-32.691406 0l-214.890625 214.890625 4.414062 30.703125zm0 0" fill="#a66d30"/><path d="m290.375 254.847656-32.691406-32.722656-4.035156-4.003906c-6.289063-6.289063-16.582032-6.289063-22.867188 0l-17.574219 17.574218 8.273438 47.660157 55.324219 15.9375 17.574218-17.574219c6.289063-6.285156 6.289063-16.578125 0-22.867188zm0 0" fill="#d9a13f"/><path d="m291.191406 343.796875-12.515625 16.460937-12.210937 16.070313-12.855469 16.90625-85.402344 112.382813c-7.078125 9.300781-21.375 8.714843-29.101562 1l-133.222657-133.222657c-7.714843-7.726562-8.300781-22.027343 1-29.105469l112.371094-85.378906 49.480469-37.601562c9.289063-7.078125 21.375-8.714844 29.089844-1l94.367187 94.367187c7.714844 7.746094 6.078125 19.796875-1 29.121094zm0 0" fill="#f5df87"/><path d="m278.675781 360.261719-126.4375-126.410157-32.984375 25.058594 134.363282 134.335938zm0 0" fill="#ff698f"/><path d="m230.78125 218.121094-17.574219 17.574218 12.339844 12.339844 17.574219-17.574218c4.09375-4.09375 9.851562-5.527344 15.117187-4.300782 2.867188.675782 5.554688 2.105469 7.75 4.300782l-8.304687-8.335938-4.035156-4.003906c-6.289063-6.289063-16.582032-6.289063-22.867188 0zm0 0" fill="#a66d30"/><path d="m472.578125 7.234375-214.894531 214.890625 8.300781 8.335938 4.152344 4.121093 214.894531-214.894531c6.785156-6.78125 16.84375-8.449219 25.234375-4.96875-1.136719-2.71875-2.804687-5.265625-5-7.488281-9.003906-8.976563-23.710937-8.976563-32.6875.003906zm0 0" fill="#6e3e0b"/><path d="m119.253906 258.910156-112.371094 85.386719c-9.300781 7.074219-8.714843 21.375-.996093 29.09375l17.894531 17.894531c-7.71875-7.71875-8.300781-22.015625.996094-29.09375l112.375-85.414062zm0 0" fill="#d9a13f"/><path d="m152.238281 233.851562-32.984375 25.058594 17.894532 17.867188 32.984374-25.058594zm0 0" fill="#cf4b82"/><path d="m168.730469 221.308594-16.492188 12.542968 17.898438 17.867188 16.460937-12.515625c8.390625-6.375 19.035156-8.335937 26.699219-3.011719.816406.554688 1.605469 1.199219 2.335937 1.957032l-2.425781-2.457032-15.378906-15.378906c-7.722656-7.71875-19.800781-6.082031-29.097656.996094zm0 0" fill="#d9a13f"/></g><path d="m125.300781 398.160156-47.335937 47.316406-10.929688-10.933593v-.007813l47.335938-47.316406c3.019531-3.019531 7.921875-3.019531 10.941406 0 3.019531 3.027344 3.019531 7.921875-.011719 10.941406zm0 0" fill="#d9a13f"/><path d="m176.554688 404.277344-61.472657 76.699218c-.246093.308594-.503906.585938-.78125.832032l-10.929687-10.929688 61.109375-76.273437c2.667969-3.328125 7.539062-3.863281 10.867187-1.195313 3.339844 2.667969 3.875 7.539063 1.207032 10.867188zm0 0" fill="#d9a13f"/><path d="m119.296875 349.832031-76.039063 60.9375-10.960937-10.960937c.195313-.207032.402344-.402344.628906-.578125l76.695313-61.46875c3.339844-2.667969 8.199218-2.132813 10.867187 1.203125 2.679688 3.328125 2.144531 8.199218-1.191406 10.867187zm0 0" fill="#d9a13f"/></svg>