<svg height="512pt" viewBox="-23 0 512 512.00032" width="512pt" xmlns="http://www.w3.org/2000/svg"><g fill-rule="evenodd"><path d="m177.859375 368.261719c1.632813-62.0625 12.980469-99.839844 36.679687-136.578125l-12.058593-29.066406-30.175781 6.921874c-33.359376 49.726563-43.753907 103.824219-42.773438 158.722657l24.269531 21.398437zm0 0" fill="#ff698f"/><path d="m203.28125 204.546875-.800781-1.929687-30.175781 6.921874c-33.359376 49.726563-43.753907 103.824219-42.773438 158.722657l16.070312 14.175781c.5625-60.988281 13.78125-120.941406 50.878907-176.34375zm0 0" fill="#cf4b82"/><path d="m442.058594 464.085938c13.160156 0 23.941406-10.789063 23.941406-23.957032 0-13.164062-10.78125-23.957031-23.941406-23.957031h-43.691406c13.160156 0 23.941406-10.789063 23.941406-23.957031 0-13.195313-10.78125-23.957032-23.941406-23.957032h-318.792969c-13.160157 0-23.941407 10.761719-23.941407 23.957032 0 13.167968 10.78125 23.957031 23.941407 23.957031h-55.632813c-13.1875 0-23.941406 10.789063-23.941406 23.957031 0 13.167969 10.753906 23.957032 23.941406 23.957032-13.1875 0-23.941406 10.789062-23.941406 23.957031 0 13.199219 10.753906 23.957031 23.941406 23.957031h418.117188c13.160156 0 23.941406-10.757812 23.941406-23.957031 0-13.167969-10.78125-23.957031-23.941406-23.957031zm0 0" fill="#ff698f"/><g fill="#81c6e6"><path d="m216.234375 80.960938c52.601563-79.183594-67.542969-75.675782-12.179687-.179688 4.128906 5.648438 7.277343 7.28125 12.179687.179688zm0 0"/><path d="m275.578125 78.195312c123.117187-52.046874-20.613281-141.273437-14.199219-9.660156.507813 9.839844 2.914063 14.207032 14.199219 9.660156zm0 0"/><path d="m291.617188 118.230469c-4.304688 7.492187-1.453126 9.632812 5.4375 10.941406 91.957031 17.355469 43.183593-92.617187-5.4375-10.941406zm0 0"/></g><path d="m183.796875 172.238281 18.683594 30.378907 36.355469-1.488282 18.210937-67.917968c5.433594-13.96875-13.84375-29.394532-26.675781-11.5625zm0 0" fill="#e6e6e6"/><path d="m53.019531 416.175781h-29.078125c-13.1875 0-23.941406 10.789063-23.941406 23.957031 0 13.164063 10.753906 23.957032 23.941406 23.957032h418.117188c7.933594 0 15-3.894532 19.335937-9.898438h-405.523437c-34.960938-.003906-31.929688-38.015625-2.851563-38.015625zm0 0" fill="#cf4b82"/><path d="m108.679688 368.261719h-29.105469c-13.160157 0-23.941407 10.757812-23.941407 23.957031 0 13.164062 10.78125 23.957031 23.941407 23.957031h318.792969c7.933593 0 14.972656-3.925781 19.335937-9.898437h-306.199219c-34.929687 0-31.929687-38.015625-2.824218-38.015625zm0 0" fill="#cf4b82"/><path d="m221.996094 26.984375c-17.109375-13.257813-53.285156 5.617187-17.941406 53.796875 4.039062 5.527344 7.160156 7.222656 11.882812.625-23.554688-34.480469-9.445312-52.96875 6.058594-54.421875zm0 0" fill="#349ecf"/><path d="m347.191406 116.179688c9.625-21.398438-23.019531-52.636719-55.574218 2.050781-4.304688 7.492187-1.453126 9.632812 5.4375 10.941406.472656.085937.980468.175781 1.484374.265625 20.9375-29.457031 40.929688-25.292969 48.652344-13.257812zm0 0" fill="#349ecf"/><path d="m323.132812 16.699219c-12.269531-26.484375-65.734374-29.542969-61.75 51.835937.503907 9.839844 2.910157 14.207032 14.195313 9.660156.148437-.058593.269531-.117187.417969-.179687-1.277344-57.542969 27.621094-69.816406 47.136718-61.316406zm0 0" fill="#349ecf"/><path d="m172.304688 209.539062 42.234374 22.144532 4.339844 2.289062c4.75 2.496094 10.691406.65625 13.1875-4.101562l10.632813-20.328125c1.453125-2.765625.386719-6.183594-2.378907-7.640625l-1.484374-.773438-55.035157-28.890625-2.792969-1.457031c-2.761718-1.453125-6.207031-.386719-7.632812 2.378906l-10.664062 20.300782c-2.496094 4.785156-.625 10.699218 4.128906 13.199218zm0 0" fill="#b3adad"/><path d="m162.710938 193.460938c-2.496094 4.785156-.625 10.699218 4.128906 13.195312l21.949218 11.53125c-2.585937-1.394531-4.308593-3.804688-4.933593-6.476562-.472657-2.199219-.234375-4.550782.863281-6.691407l10.664062-20.328125c.058594-.117187.117188-.238281.207032-.328125 1.542968-2.496093 4.78125-3.417969 7.425781-2.050781l-19.21875-10.074219-2.789063-1.457031c-2.761718-1.457031-6.210937-.386719-7.632812 2.378906zm0 0" fill="#757a85"/><path d="m183.796875 172.238281 12.804687 6.71875 2.820313 1.484375 46.574219-50.589844c3.265625-4.574218 6.980468-6.953124 10.574218-7.726562-4.1875-8.828125-16.902343-13.40625-26.199218-.476562zm0 0" fill="#b3adad"/><path d="m53.019531 464.085938h-29.078125c-13.1875 0-23.941406 10.789062-23.941406 23.957031 0 13.199219 10.753906 23.957031 23.941406 23.957031h418.117188c7.933594 0 15-3.894531 19.335937-9.898438h-405.523437c-34.960938 0-31.929688-38.015624-2.851563-38.015624zm0 0" fill="#cf4b82"/></g></svg>