<svg height="512pt" viewBox="-76 0 512 512.00006" width="512pt" xmlns="http://www.w3.org/2000/svg"><g fill-rule="evenodd"><path d="m265.136719 512c15.460937 0 18-24.148438.585937-31.449219-12.488281-5.226562-12.953125-1.898437-14.207031-7.914062-2.917969-14.164063-15.027344-25.054688-29.464844-27.214844-8.929687-1.34375-4.085937.496094-10.765625-5.402344-14.0625-12.5-42.621094-19.421875-71.09375-18.808593-28.503906-.613282-57.03125 6.308593-71.125 18.808593-6.679687 5.898438-1.808594 4.058594-10.761718 5.402344-14.414063 2.160156-26.519532 13.050781-29.464844 27.214844-1.253906 6.015625-1.691406 2.6875-14.207032 7.914062-17.414062 7.300781-14.878906 31.449219.585938 31.449219zm0 0" fill="#47a831"/><path d="m78.871094 488.523438c0-25.054688 12.660156-47.980469 33.578125-65.53125-18.027344 2.804687-33.957031 8.644531-43.378907 17.027343-6.683593 5.898438-1.808593 4.058594-10.765624 5.402344-14.410157 2.160156-26.519532 13.050781-29.464844 27.214844-1.253906 6.015625-1.691406 2.6875-14.207032 7.914062-17.414062 7.300781-14.878906 31.449219.585938 31.449219h67.472656c-2.476562-7.535156-3.820312-15.390625-3.820312-23.476562zm0 0" fill="#178035"/><path d="m160.292969 317.835938 17.355469-18.804688 20.160156 18.804688v194.164062h-37.515625zm0 0" fill="#a66d30"/><path d="m244.367188 250.292969 17.445312-128.253907-82.761719-24.96875-82.765625 24.96875 17.445313 128.253907c.058593.292969.089843.585937.148437.875 4.199219-.4375 56.507813 12.96875 65.171875 15.011719 8.664063-2.042969 60.96875-15.449219 65.171875-15.011719.058594-.289063.117188-.582031.144532-.875zm0 0" fill="#f5df87"/><path d="m199.0625 15.714844c0-20.675782-40.027344-21.230469-40.027344 0v10.835937l20.015625 11.824219 20.011719-11.824219zm0 0" fill="#b3adad"/><path d="m216.800781 38.375c0-6.511719-6.214843-11.824219-13.828125-11.824219h-47.84375c-7.585937 0-13.828125 5.3125-13.828125 11.824219v11.800781l37.75 12.964844 37.746094-12.964844v-11.800781zm0 0" fill="#f5df87"/><path d="m165.046875 38.375c0-2.511719.933594-4.875 2.507813-6.773438 2.511718-3.039062 6.59375-5.023437 11.230468-5.050781h-23.65625c-7.585937 0-13.828125 5.3125-13.828125 11.824219v11.800781h23.746094zm0 0" fill="#d9a13f"/><path d="m216.800781 283-38.015625-12.96875-37.484375 12.96875v23.039062c0 6.484376 6.242188 11.796876 13.828125 11.796876h47.84375c7.613282 0 13.828125-5.3125 13.828125-11.796876zm0 0" fill="#b3adad"/><path d="m145.003906 250.292969-17.472656-128.253907h-31.242188l17.445313 128.253907.144531.875c.46875-.058594.964844-.085938 1.429688-.085938h29.8125zm0 0" fill="#d9a13f"/><path d="m136.195312 251.082031h-20.886718c-.46875 0-.964844.027344-1.429688.089844-7.175781.726563-12.808594 6.832031-12.808594 14.191406v3.386719c0 7.855469 6.417969 14.25 14.238282 14.25h127.484375c.464843 0 .960937-.03125 1.425781-.058594h-106.59375c-7.847656 0-14.238281-6.425781-14.238281-14.28125v-3.386718c0-.144532 0-.320313 0-.464844.148437-4.382813 2.277343-8.292969 5.542969-10.804688 2.042968-1.578125 4.550781-2.628906 7.265624-2.921875zm0 0" fill="#178035"/><path d="m163.558594 306.039062v-23.039062h-22.257813v23.039062c0 6.484376 6.242188 11.796876 13.828125 11.796876h22.230469c-7.585937 0-13.800781-5.3125-13.800781-11.796876zm0 0" fill="#757a85"/><path d="m173.855469 512v-194.164062h-13.5625v194.164062zm0 0" fill="#6e3e0b"/></g><path d="m277.449219 93.945312-60.648438-43.773437h-75.5l-60.652343 43.773437c-17.238282 13.753907-3.46875 28.09375 5.164062 28.09375h85.515625v129.042969h-56.019531c-.46875 0-.964844.027344-1.429688.089844-7.175781.726563-12.808594 6.832031-12.808594 14.191406v3.386719c0 7.855469 6.417969 14.25 14.238282 14.25h127.484375c7.816406 0 14.234375-6.394531 14.234375-14.25v-3.386719c0-7.359375-5.628906-13.464843-12.808594-14.191406-.464844-.058594-.960938-.089844-1.425781-.089844h-56.023438v-129.042969h85.542969c8.609375 0 22.40625-14.339843 5.136719-28.09375zm0 0" fill="#47a831"/><path d="m348.28125 512c14.324219 0 16.6875-22.398438.523438-29.144531-11.582032-4.84375-12.019532-1.78125-13.15625-7.355469-2.714844-13.144531-13.945313-23.246094-27.335938-25.261719-8.285156-1.226562-3.792969.464844-9.976562-5.023437-13.070313-11.5625-39.527344-17.988282-65.957032-17.433594-26.402344-.554688-52.890625 5.871094-65.960937 17.433594-6.183594 5.488281-1.664063 3.796875-9.976563 5.023437-13.363281 2.015625-24.59375 12.117188-27.335937 25.261719-1.136719 5.574219-1.574219 2.507812-13.15625 7.355469-16.160157 6.746093-13.796875 29.144531.554687 29.144531zm0 0" fill="#47a831" fill-rule="evenodd"/><path d="m175.519531 490.214844c0-23.246094 11.757813-44.472656 31.128907-60.769532-16.71875 2.601563-31.476563 8.03125-40.230469 15.769532-6.183594 5.488281-1.664063 3.796875-9.976563 5.023437-13.363281 2.015625-24.59375 12.117188-27.335937 25.261719-1.136719 5.574219-1.574219 2.507812-13.15625 7.355469-16.160157 6.746093-13.796875 29.144531.554687 29.144531h62.546875c-2.304687-7.007812-3.53125-14.28125-3.53125-21.785156zm0 0" fill="#178035" fill-rule="evenodd"/><path d="m141.300781 50.171875-60.652343 43.773437c-17.238282 13.753907-3.46875 28.09375 5.164062 28.09375h23.71875c-1.984375 0-4.230469-.757812-6.332031-2.101562-6.96875-4.46875-12.105469-15.390625 1.199219-25.992188l52.976562-38.253906 7.671875-5.519531zm0 0" fill="#178035" fill-rule="evenodd"/><path d="m345.1875 195.230469h-28.734375c-4.261719 0-7.71875-3.457031-7.71875-7.722657 0-4.261718 3.457031-7.71875 7.71875-7.71875h28.734375c4.261719 0 7.71875 3.457032 7.71875 7.71875 0 4.265626-3.457031 7.722657-7.71875 7.722657zm0 0" fill="#f5df87"/><path d="m344.488281 249.050781c-.773437 0-1.5625-.117187-2.34375-.367187l-28.035156-8.933594c-4.0625-1.296875-6.304687-5.640625-5.011719-9.703125 1.292969-4.0625 5.636719-6.304687 9.699219-5.011719l28.035156 8.9375c4.0625 1.292969 6.304688 5.636719 5.011719 9.699219-1.046875 3.285156-4.082031 5.378906-7.355469 5.378906zm0 0" fill="#f5df87"/><path d="m316.449219 151.195312c-3.269531 0-6.304688-2.09375-7.351563-5.378906-1.292968-4.0625.949219-8.40625 5.011719-9.699218l28.035156-8.9375c4.066407-1.292969 8.40625.953124 9.699219 5.011718 1.296875 4.066406-.949219 8.40625-5.011719 9.703125l-28.035156 8.933594c-.78125.25-1.570313.367187-2.347656.367187zm0 0" fill="#f5df87"/><path d="m36.425781 195.230469h-28.707031c-4.265625 0-7.71875-3.457031-7.71875-7.722657 0-4.261718 3.457031-7.71875 7.71875-7.71875h28.707031c4.261719 0 7.71875 3.457032 7.71875 7.71875 0 4.265626-3.457031 7.722657-7.71875 7.722657zm0 0" fill="#f5df87"/><path d="m8.386719 249.050781c-3.269531 0-6.304688-2.097656-7.351563-5.378906-1.296875-4.0625.949219-8.40625 5.011719-9.699219l28.035156-8.9375c4.0625-1.292968 8.402344.949219 9.699219 5.011719 1.292969 4.0625-.949219 8.40625-5.011719 9.703125l-28.035156 8.933594c-.78125.25-1.570313.367187-2.347656.367187zm0 0" fill="#f5df87"/><path d="m36.425781 151.195312c-.777343 0-1.566406-.117187-2.34375-.367187l-28.035156-8.933594c-4.0625-1.296875-6.308594-5.640625-5.011719-9.703125 1.292969-4.0625 5.636719-6.304687 9.699219-5.011718l28.035156 8.9375c4.0625 1.292968 6.304688 5.636718 5.011719 9.699218-1.046875 3.285156-4.085938 5.378906-7.355469 5.378906zm0 0" fill="#f5df87"/></svg>