<svg height="512pt" viewBox="-65 0 512 512" width="512pt" xmlns="http://www.w3.org/2000/svg"><g fill-rule="evenodd"><path d="m32.808594 456.632812 114.71875 27.800782 131.757812-27.800782-1.226562-17.667968c-2.828125-40.328125 48.40625-91.839844 74.515625-118.035156 61.125-63.191407 15.582031-114.265626-33.113281-80.101563-11.730469 8.238281-26.929688 3.476563-27.6875-17.257813l.117187-154.945312c0-13.636719-7.324219-22.308594-16.71875-26.046875-3.734375-1.488281-7.878906-2.25-12.078125-2.25-4.203125 0-8.375.761719-12.109375 2.25-9.394531 3.738281-16.71875 12.410156-16.71875 26.046875v103.902344c-.699219 18.367187-26.082031 18.367187-25.410156 0v-144.230469c0-13.636719-7.351563-22.308594-16.71875-26.046875-3.765625-1.519531-7.90625-2.25-12.109375-2.25-4.199219 0-8.34375.730469-12.105469 2.25-9.367187 3.738281-16.691406 12.410156-16.691406 26.046875v151.324219c-1.75 14.894531-25.761719 17.8125-25.441407 0v-112.71875c0-7.941406-3.234374-15.128906-8.460937-20.382813-5.21875-5.226562-12.425781-8.46875-20.363281-8.46875-7.90625 0-15.113282 3.238281-20.335938 8.46875-5.222656 5.253907-8.460937 12.441407-8.460937 20.382813v122.707031c0 18.308594-25.441407 17.34375-25.441407 2.453125v-66.320312c1.167969-21.199219-40.816406-27.914063-40.175781 12.03125 0 18.953124-.261719 38.050781-.523437 57.207031-1.195313 87.082031 7.761718 195.101562 30.78125 261.652343zm0 0" fill="#f5df87"/><path d="m30.679688 512h250.765624c40.875 0 40.875-55.367188 0-55.367188h-250.765624c-40.90625 0-40.90625 55.367188 0 55.367188zm0 0" fill="#e6e6e6"/><path d="m111.144531 366.105469h98.496094c6.59375 0 12.019531-5.402344 12.019531-12.03125v-91.546875c0-6.628906-5.425781-12.03125-12.019531-12.03125h-98.496094c-6.621093 0-12.019531 5.402344-12.019531 12.03125v91.546875c0 6.628906 5.398438 12.03125 12.019531 12.03125zm0 0" fill="#d9a13f"/><path d="m82.96875 456.632812c-23.046875-66.550781-62.003906-174.570312-60.808594-261.652343.261719-19.15625.554688-38.253907.554688-57.207031-.234375-14.21875 4.929687-22.542969 11.640625-26.367188-11.90625-6.660156-32.242188-1.519531-31.804688 26.367188 0 18.953124-.261719 38.050781-.523437 57.207031-1.195313 87.082031 7.761718 195.101562 30.78125 261.652343zm0 0" fill="#d9a13f"/><path d="m111.144531 366.105469h29.820313c-6.625 0-12.023438-5.402344-12.023438-12.03125v-91.546875c0-6.628906 5.398438-12.03125 12.023438-12.03125h-29.820313c-6.621093 0-12.019531 5.402344-12.019531 12.03125v91.546875c0 6.628906 5.398438 12.03125 12.019531 12.03125zm0 0" fill="#a66d30"/><path d="m30.679688 456.632812c-40.90625 0-40.90625 55.367188 0 55.367188h20.128906c-36.703125 0-40.4375-44.59375-11.289063-53.761719 3.324219-1.019531 7.089844-1.605469 11.289063-1.605469zm0 0" fill="#b3adad"/></g></svg>