<svg height="512pt" viewBox="-17 0 512 512" width="512pt" xmlns="http://www.w3.org/2000/svg"><path d="m280.339844 0c-27.101563 0-50.625 15.542969-62.183594 38.171875-11.554688-22.628906-35.078125-38.171875-62.179688-38.171875-38.484374 0-69.792968 31.3125-69.792968 69.804688v106.617187c0 4.199219 3.40625 7.605469 7.609375 7.605469s7.609375-3.40625 7.609375-7.605469v-106.617187c0-30.101563 24.480468-54.585938 54.574218-54.585938 30.089844 0 54.574219 24.484375 54.574219 54.585938v35.644531c0 4.203125 3.40625 7.609375 7.609375 7.609375 4.199219 0 7.609375-3.40625 7.609375-7.609375v-35.644531c0-30.101563 24.480469-54.585938 54.574219-54.585938 30.089844 0 54.574219 24.484375 54.574219 54.585938v76.148437c0 4.203125 3.40625 7.609375 7.609375 7.609375 4.199218 0 7.609375-3.40625 7.609375-7.609375v-76.148437c-.003907-38.492188-31.3125-69.804688-69.796875-69.804688zm0 0" fill="#81c6e6"/><g fill-rule="evenodd"><path d="m186.40625 157v62.742188l30.945312 16.054687 32.558594-16.054687v-62.625c-8.886718 2.386718-19.414062 3.796874-31.753906 3.796874-12.222656 0-22.777344-1.4375-31.75-3.914062zm0 0" fill="#b3adad"/><path d="m157.757812 105.449219c-23.496093 0-22.921874 47.582031 28.648438 61.707031 8.972656 2.445312 19.527344 3.914062 31.753906 3.914062 12.335938 0 22.863282-1.410156 31.75-3.796874 52.03125-13.953126 48.09375-61.824219 28.648438-61.824219zm0 0" fill="#e6e6e6"/><path d="m186.40625 253.488281v82.738281l32.558594 17.175782 30.945312-17.175782v-82.738281l-31.753906-16.886719zm0 0" fill="#b3adad"/><path d="m154.652344 236.601562c0 9.292969 7.59375 16.886719 16.855468 16.886719h93.273438c9.289062 0 16.882812-7.59375 16.882812-16.886719 0-9.261718-7.59375-16.855468-16.882812-16.855468h-93.273438c-9.261718 0-16.855468 7.59375-16.855468 16.855468zm0 0" fill="#e6e6e6"/><path d="m157.757812 105.449219c-23.496093 0-22.921874 47.582031 28.648438 61.707031 7.421875 2.015625 15.90625 3.367188 25.511719 3.769531 0 0-16.882813-5.121093-22.664063-8.804687-30.199218-19.101563-25.714844-56.671875-5.980468-56.671875zm0 0" fill="#b3adad"/><path d="m186.40625 167.15625v52.589844h25.511719v-48.820313c-.117188 0-.230469 0-.347657 0-9.460937-.433593-17.832031-1.753906-25.164062-3.769531zm0 0" fill="#757a85"/><path d="m171.507812 219.746094c-9.261718 0-16.855468 7.59375-16.855468 16.855468 0 9.292969 7.59375 16.886719 16.855468 16.886719h25.511719c-22.320312 0-22.089843-33.742187 0-33.742187zm0 0" fill="#b3adad"/><path d="m186.40625 253.488281v82.738281h25.511719v-82.738281zm0 0" fill="#757a85"/><path d="m62.441406 370.574219v72.667969l154.453125 17.207031 158.5625-17.207031v-72.667969l-156.492187-17.171875zm0 0" fill="#b3adad"/><path d="m62.441406 370.574219h317.703125c9.460938 0 17.171875-7.707031 17.171875-17.171875s-7.710937-17.175782-17.171875-17.175782h-322.390625c-9.433594 0-17.171875 7.710938-17.171875 17.175782s7.738281 17.171875 17.171875 17.171875zm0 0" fill="#e6e6e6"/><path d="m57.753906 477.621094 161.210938 17.175781 161.179687-17.175781c9.40625-1.007813 17.171875-7.738282 17.171875-17.175782 0-9.464843-7.710937-17.203124-17.171875-17.203124h-322.390625c-9.433594 0-17.171875 7.742187-17.171875 17.203124 0 9.4375 7.796875 16.167969 17.171875 17.175782zm0 0" fill="#e6e6e6"/><path d="m17.171875 512h403.554687c9.464844 0 17.199219-7.738281 17.199219-17.203125 0-9.4375-7.738281-17.175781-17.199219-17.175781h-403.554687c-9.464844 0-17.171875 7.738281-17.171875 17.175781 0 9.464844 7.710938 17.203125 17.171875 17.203125zm0 0" fill="#a66d30"/><path d="m40.582031 460.449219c0 9.433593 7.796875 16.167969 17.171875 17.171875h34.65625c-9.402344-1.003906-17.167968-7.738282-17.167968-17.171875 0-6.300781 3.421874-11.824219 8.484374-14.816407 2.558594-1.527343 5.519532-2.390624 8.683594-2.390624h-34.65625c-9.433594 0-17.171875 7.742187-17.171875 17.207031zm0 0" fill="#b3adad"/><path d="m40.582031 353.402344c0 9.464844 7.738281 17.171875 17.171875 17.171875h34.65625c-3.132812 0-6.09375-.832031-8.628906-2.328125-5.117188-2.992188-8.539062-8.542969-8.539062-14.84375 0-9.464844 7.707031-17.175782 17.167968-17.175782h-34.65625c-9.433594 0-17.171875 7.710938-17.171875 17.175782zm0 0" fill="#b3adad"/><path d="m0 494.796875c0 5.207031 2.332031 9.894531 6.011719 13.03125 2.992187 2.589844 6.902343 4.171875 11.160156 4.171875h29.421875c-4.257812 0-8.167969-1.582031-11.160156-4.171875-3.679688-3.136719-6.011719-7.824219-6.011719-13.03125 0-9.4375 7.738281-17.175781 17.171875-17.175781h-29.421875c-9.460937 0-17.171875 7.738281-17.171875 17.175781zm0 0" fill="#6e3e0b"/><path d="m465.25 512c15.589844 0 18.148438-24.308594.605469-31.644531-12.597657-5.265625-13.058594-1.925781-14.296875-7.96875-2.960938-14.242188-15.15625-25.203125-29.679688-27.386719-9.03125-1.351562-4.113281.488281-10.84375-5.46875-14.179687-12.570312-42.941406-19.503906-71.644531-18.925781-28.675781-.578125-57.4375 6.355469-71.617187 18.925781-6.730469 5.957031-1.84375 4.117188-10.84375 5.46875-14.527344 2.183594-26.71875 13.144531-29.683594 27.386719-1.234375 6.039062-1.695313 2.703125-14.292969 7.96875-17.546875 7.335937-14.984375 31.644531.601563 31.644531zm0 0" fill="#47a831"/><path d="m277.664062 488.351562c0-25.199218 12.742188-48.273437 33.796876-65.9375-18.148438 2.820313-34.199219 8.71875-43.6875 17.117188-6.730469 5.957031-1.84375 4.117188-10.84375 5.46875-14.527344 2.183594-26.71875 13.144531-29.683594 27.386719-1.234375 6.039062-1.695313 2.703125-14.292969 7.96875-17.546875 7.335937-14.984375 31.644531.601563 31.644531h67.9375c-2.503907-7.59375-3.828126-15.507812-3.828126-23.648438zm0 0" fill="#178035"/><path d="m82.546875 401.730469c0-5.578125 4.574219-10.152344 10.152344-10.152344h282.785156v-21.003906h-313.042969v72.671875h20.105469zm0 0" fill="#757a85"/></g><path d="m93.792969 243.40625c-4.203125 0-7.609375-3.40625-7.609375-7.609375v-14.929687c0-4.203126 3.40625-7.609376 7.609375-7.609376s7.609375 3.40625 7.609375 7.609376v14.929687c0 4.203125-3.40625 7.609375-7.609375 7.609375zm0 0" fill="#81c6e6"/><path d="m93.792969 302.925781c-4.203125 0-7.609375-3.40625-7.609375-7.609375v-14.929687c0-4.203125 3.40625-7.609375 7.609375-7.609375s7.609375 3.40625 7.609375 7.609375v14.929687c0 4.203125-3.40625 7.609375-7.609375 7.609375zm0 0" fill="#81c6e6"/><path d="m342.523438 212.96875c-4.203126 0-7.609376-3.40625-7.609376-7.609375v-14.929687c0-4.203126 3.40625-7.609376 7.609376-7.609376 4.203124 0 7.609374 3.40625 7.609374 7.609376v14.929687c0 4.203125-3.40625 7.609375-7.609374 7.609375zm0 0" fill="#81c6e6"/><path d="m342.523438 272.488281c-4.203126 0-7.609376-3.402343-7.609376-7.605469v-14.933593c0-4.199219 3.40625-7.605469 7.609376-7.605469 4.203124 0 7.609374 3.402344 7.609374 7.605469v14.933593c0 4.203126-3.40625 7.605469-7.609374 7.605469zm0 0" fill="#81c6e6"/></svg>