<svg height="512pt" viewBox="-9 0 512 512.0003" width="512pt" xmlns="http://www.w3.org/2000/svg"><g fill-rule="evenodd"><path d="m224.890625 1.320312c-32.472656 3.546876-62.722656 14.308594-80.058594 33.65625-30.6875-3.898437-57.980469 19.96875-57.980469 51.105469v.085938c-23.804687 1.4375-42.664062 21.199219-42.664062 45.386719l202.3125 52.070312 203.308594-52.070312c0-24.1875-18.859375-43.949219-42.664063-45.386719.4375-28.878907-24.160156-52.273438-52.710937-51.570313-12.941406-17.648437-44.070313-29.347656-79.179688-33.1875-16.398437-1.820312-33.671875-1.90625-50.363281-.089844zm0 0" fill="#a66d30"/><path d="m27.175781 217.078125 37.625 263.902344c2.402344 16.886719 13.9375 31.019531 31.011719 31.019531h301.375c17.042969 0 28.609375-14.132812 31.007812-31.019531l37.628907-263.902344-224.742188-34.859375zm0 0" fill="#349ecf"/><path d="m144.832031 34.976562c-30.6875-3.898437-57.980469 19.96875-57.980469 51.105469v.085938c-23.804687 1.4375-42.664062 21.199219-42.664062 45.386719h128.140625c-5.328125-10.640626-8.257813-22.195313-8.257813-34.246094 0-34.710938 24.273438-65.203125 60.820313-82.414063 14.492187-6.859375 30.949219-11.609375 48.546875-13.691406-15.867188-1.613281-32.472656-1.613281-48.546875.117187-32.476563 3.546876-62.722656 14.308594-80.058594 33.65625zm0 0" fill="#6e3e0b"/><path d="m27.175781 217.078125 37.625 263.902344c2.402344 16.886719 13.9375 31.019531 31.011719 31.019531h58.15625c-17.042969 0-28.582031-14.132812-31.011719-31.019531l-31.652343-217.546875c-2.839844-19.820313-.644532-23.484375 12.738281-23.484375h358.503906l3.28125-22.871094zm0 0" fill="#4275ab"/></g><path d="m339.96875 287.679688h-6.0625c-4.285156 0-7.757812-3.476563-7.757812-7.769532 0-4.289062 3.476562-7.769531 7.757812-7.769531h6.0625c13.03125 0 23.632812-10.601563 23.632812-23.632813v-31.429687c0-4.289063 3.472657-7.769531 7.757813-7.769531s7.761719 3.480468 7.761719 7.769531v31.429687c0 21.601563-17.5625 39.171876-39.152344 39.171876zm-192.089844 0h-6.0625c-21.589844 0-39.152344-17.570313-39.152344-39.167969v-31.429688c0-4.292969 3.472657-7.773437 7.761719-7.773437 4.285157 0 7.757813 3.480468 7.757813 7.773437v31.429688c0 13.027343 10.601562 23.628906 23.632812 23.628906h6.0625c4.285156 0 7.757813 3.480469 7.757813 7.769531 0 4.292969-3.472657 7.769532-7.757813 7.769532zm0 0" fill="#e6e6e6"/><path d="m147.878906 292.371094c0 5.363281 4.359375 9.734375 9.71875 9.734375h166.589844c5.359375 0 9.722656-4.371094 9.722656-9.734375v-24.890625c0-5.367188-4.363281-9.765625-9.722656-9.765625h-166.589844c-5.359375 0-9.722656 4.398437-9.722656 9.765625v24.890625zm0 0" fill="#f5df87" fill-rule="evenodd"/><path d="m147.878906 267.480469v24.890625c0 5.363281 4.359375 9.734375 9.71875 9.734375h30.75c-5.359375 0-9.722656-4.371094-9.722656-9.734375v-24.890625c0-5.367188 4.363281-9.765625 9.722656-9.765625h-30.75c-5.359375 0-9.71875 4.398437-9.71875 9.765625zm0 0" fill="#d9a13f" fill-rule="evenodd"/><path d="m27.175781 217.078125h438.648438c14.9375 0 27.175781-12.253906 27.175781-27.207031v-31.109375c0-14.980469-12.238281-27.207031-27.175781-27.207031h-438.648438c-14.964843 0-27.175781 12.226562-27.175781 27.207031v31.109375c0 14.953125 12.210938 27.207031 27.175781 27.207031zm0 0" fill="#81c6e6" fill-rule="evenodd"/><path d="m0 189.871094c0 14.953125 12.210938 27.207031 27.175781 27.207031h47.847657c-14.964844 0-27.203126-12.253906-27.203126-27.207031v-31.109375c0-14.980469 12.238282-27.207031 27.203126-27.207031h-47.847657c-14.964843 0-27.175781 12.226562-27.175781 27.207031zm0 0" fill="#349ecf" fill-rule="evenodd"/></svg>