<svg height="512pt" viewBox="0 -18 512 511" width="512pt" xmlns="http://www.w3.org/2000/svg"><g fill-rule="evenodd"><path d="m31.128906 474.5h449.710938c17.144531 0 31.160156-14.03125 31.160156-31.1875v-322.976562l-256.003906-41.503907-255.996094 41.503907v322.976562c0 17.15625 14.015625 31.1875 31.128906 31.1875zm0 0" fill="#e6e6e6"/><path d="m71.601562 37.328125 38.375 18.558594 42.3125-18.558594v-26.539063c0-5.671874-4.644531-10.289062-10.308593-10.289062h-60.097657c-5.664062 0-10.277343 4.617188-10.277343 10.289062v26.539063zm0 0" fill="#f5df87"/><path d="m345.664062 37.328125 42.488282 18.558594 38.199218-18.558594v-26.539063c0-5.671874-4.617187-10.289062-10.28125-10.289062h-60.097656c-5.664062 0-10.308594 4.617188-10.308594 10.289062zm0 0" fill="#f5df87"/><path d="m512 120.335938v-59.449219c0-12.949219-10.601562-23.558594-23.535156-23.558594h-464.957032c-12.9375 0-23.507812 10.609375-23.507812 23.558594v59.449219zm0 0" fill="#349ecf"/><g fill="#f5df87"><path d="m86.730469 138.75h15.039062c4.175781 0 7.621094-3.417969 7.621094-7.597656v-21.628906c0-4.210938-3.445313-7.628907-7.621094-7.628907h-15.039062c-4.175781 0-7.59375 3.417969-7.59375 7.628907v21.628906c0 4.179687 3.417969 7.597656 7.59375 7.597656zm0 0"/><path d="m213.089844 138.75c4.175781 0 7.589844-3.417969 7.589844-7.597656v-21.628906c0-4.210938-3.414063-7.628907-7.589844-7.628907h-15.039063c-4.207031 0-7.625 3.417969-7.625 7.628907v21.628906c0 4.179687 3.417969 7.597656 7.625 7.597656zm0 0"/><path d="m324.378906 138.75c4.175782 0 7.589844-3.417969 7.589844-7.597656v-21.628906c0-4.210938-3.414062-7.628907-7.589844-7.628907h-15.039062c-4.179688 0-7.59375 3.417969-7.59375 7.628907v21.628906c0 4.179687 3.414062 7.597656 7.59375 7.597656zm0 0"/><path d="m435.664062 138.75c4.179688 0 7.625-3.417969 7.625-7.597656v-21.628906c0-4.210938-3.445312-7.628907-7.625-7.628907h-15.035156c-4.179687 0-7.59375 3.417969-7.59375 7.628907v21.628906c0 4.179687 3.414063 7.597656 7.59375 7.597656zm0 0"/></g><path d="m27.304688 120.335938v-59.449219c0-12.949219 10.597656-23.558594 23.535156-23.558594h-27.332032c-12.9375 0-23.507812 10.609375-23.507812 23.558594v59.449219zm0 0" fill="#4275ab"/><path d="m27.304688 443.3125v-322.976562h-27.304688v322.976562c0 17.15625 14.015625 31.1875 31.128906 31.1875h27.332032c-17.140626 0-31.15625-14.03125-31.15625-31.1875zm0 0" fill="#b3adad"/><path d="m93.738281 37.328125v-26.539063c0-5.671874 4.644531-10.289062 10.308594-10.289062h-22.164063c-5.664062 0-10.277343 4.617188-10.277343 10.289062v26.539063zm0 0" fill="#d9a13f"/><path d="m345.664062 37.328125h22.164063v-26.539063c0-5.671874 4.613281-10.289062 10.28125-10.289062h-22.136719c-5.664062 0-10.308594 4.617188-10.308594 10.289062zm0 0" fill="#d9a13f"/><path d="m311.789062 229.5625c-6.539062-23.410156-28.03125-40.597656-53.523437-40.597656-24.96875 0-46.113281 16.484375-53.121094 39.195312-2.191406-.261718-4.410156-.40625-6.65625-.40625-30.691406 0-55.574219 24.929688-55.574219 55.648438 0 20.226562 10.777344 37.941406 26.925782 47.671875-4.671875 8.128906-7.332032 17.539062-7.332032 27.59375 0 30.71875 24.882813 55.621093 55.601563 55.621093 8.617187 0 16.761719-1.957031 24.035156-5.464843 6.074219-2.894531 11.535157-6.898438 16.117188-11.722657 4.671875 4.882813 10.191406 8.917969 16.355469 11.839844 7.210937 3.449219 15.300781 5.347656 23.828124 5.347656 30.691407 0 55.570313-24.902343 55.570313-55.621093 0-9.585938-2.394531-18.589844-6.65625-26.453125 15.914063-9.761719 26.515625-27.355469 26.515625-47.40625 0-30.71875-24.878906-55.625-55.601562-55.625-2.191407 0-4.351563.117187-6.484376.378906zm0 0" fill="#ff698f"/><path d="m256.21875 257.683594c-28.734375 0-52.039062 23.292968-52.039062 52.082031 0 28.761719 23.304687 52.085937 52.039062 52.085937s52.039062-23.324218 52.039062-52.085937c0-28.789063-23.304687-52.082031-52.039062-52.082031zm0 0" fill="#f5df87"/><path d="m258.261719 188.964844c-24.964844 0-46.109375 16.484375-53.117188 39.195312-2.191406-.261718-4.410156-.40625-6.660156-.40625-30.6875 0-55.570313 24.929688-55.570313 55.648438 0 20.226562 10.777344 37.941406 26.925782 47.671875-4.675782 8.128906-7.332032 17.539062-7.332032 27.59375 0 30.71875 24.878907 55.621093 55.601563 55.621093 8.613281 0 16.761719-1.957031 24.03125-5.464843 1.082031-.527344 2.164063-1.082031 3.214844-1.667969-36.152344-18.761719-60.625-54.976562-60.625-96.570312 0-57.902344 47.421875-105.367188 107.695312-109.867188-9.429687-7.367188-21.285156-11.753906-34.164062-11.753906zm0 0" fill="#cf4b82"/><path d="m256.21875 257.683594c-28.734375 0-52.039062 23.292968-52.039062 52.082031 0 28.761719 23.304687 52.085937 52.039062 52.085937 5.871094 0 11.507812-.964843 16.761719-2.777343-20.5-6.984375-35.277344-26.421875-35.277344-49.308594 0-22.914063 14.777344-42.351563 35.277344-49.335937-5.253907-1.78125-10.890625-2.746094-16.761719-2.746094zm0 0" fill="#d9a13f"/></g></svg>