<svg height="512pt" viewBox="0 -70 512 512" width="512pt" xmlns="http://www.w3.org/2000/svg"><path d="m246.261719 180.515625c6.160156 54.054687 61.703125 92.386719 89.972656 56.128906l.117187-.175781c1.222657-1.574219 2.304688-3.179688 3.269532-4.8125 18.191406-31.246094-11.886719-71.210938-76.945313-67.652344-10.632812.585938-17.117187 5.136719-16.414062 16.511719zm0 0" fill="#8fde56" fill-rule="evenodd"/><path d="m246.261719 180.515625c6.160156 54.054687 61.703125 92.386719 89.972656 56.128906l.117187-.175781c.960938-1.226562 1.839844-2.480469 2.625-3.765625-29.289062 10.269531-68.300781-23.714844-73.382812-68.492187-.03125-.117188-.03125-.207032-.03125-.324219-.960938.03125-1.925781.089843-2.890625.117187-10.628906.585938-17.113281 5.136719-16.410156 16.511719zm0 0" fill="#47a831" fill-rule="evenodd"/><path d="m496.933594 180.515625c-6.164063 54.054687-61.707032 92.386719-89.972656 56.128906l-.117188-.175781c-1.226562-1.574219-2.308594-3.179688-3.273438-4.8125-18.21875-31.246094 11.859376-71.210938 76.917969-67.652344 10.660157.585938 17.144531 5.136719 16.445313 16.511719zm0 0" fill="#8fde56" fill-rule="evenodd"/><path d="m496.933594 180.515625c-6.164063 54.054687-61.707032 92.386719-89.972656 56.128906l-.117188-.175781c-.964844-1.226562-1.839844-2.480469-2.628906-3.765625 29.289062 10.269531 68.304687-23.714844 73.386718-68.492187 0-.117188.027344-.207032.027344-.324219.933594.03125 1.898438.089843 2.863282.117187 10.65625.585938 17.140624 5.136719 16.441406 16.511719zm0 0" fill="#47a831" fill-rule="evenodd"/><path d="m442.96875 208.015625c-2.195312-3.664063-6.945312-4.855469-10.609375-2.660156l-53.03125 31.804687v-104.222656c0-4.273438-3.460937-7.738281-7.730469-7.738281-4.273437 0-7.734375 3.464843-7.734375 7.738281v104.226562l-53.03125-31.804687c-3.664062-2.199219-8.414062-1.007813-10.609375 2.65625-2.195312 3.664063-1.007812 8.414063 2.65625 10.613281l60.984375 36.574219v67.265625c0 4.269531 3.460938 7.734375 7.730469 7.734375 4.273438 0 7.734375-3.464844 7.734375-7.734375v-67.265625l60.984375-36.574219c3.664062-2.199218 4.855469-6.949218 2.65625-10.613281zm0 0" fill="#178035"/><path d="m29.902344 214.558594c4.671875 41.101562 46.898437 70.21875 68.363281 42.679687l.117187-.148437c.933594-1.195313 1.75-2.417969 2.480469-3.644532 13.84375-23.746093-9.023437-54.117187-58.492187-51.402343-8.089844.4375-12.992188 3.882812-12.46875 12.515625zm0 0" fill="#8fde56" fill-rule="evenodd"/><path d="m29.902344 214.558594c4.671875 41.101562 46.898437 70.21875 68.363281 42.679687l.117187-.148437c.730469-.933594 1.402344-1.894532 1.984376-2.859375-22.25 7.820312-51.890626-18.027344-55.773438-52.042969 0-.085938 0-.171875-.03125-.261719-.699219.027344-1.429688.058594-2.191406.117188-8.089844.4375-12.992188 3.882812-12.46875 12.515625zm0 0" fill="#47a831" fill-rule="evenodd"/><path d="m220.417969 214.558594c-4.671875 41.101562-46.898438 70.21875-68.363281 42.679687l-.117188-.148437c-.933594-1.195313-1.75-2.417969-2.480469-3.644532-13.84375-23.746093 9.023438-54.117187 58.492188-51.402343 8.085937.4375 12.992187 3.882812 12.46875 12.515625zm0 0" fill="#8fde56" fill-rule="evenodd"/><path d="m220.417969 214.558594c-4.671875 41.101562-46.898438 70.21875-68.363281 42.679687l-.117188-.148437c-.730469-.933594-1.371094-1.894532-1.984375-2.859375 22.28125 7.820312 51.890625-18.027344 55.773437-52.042969 0-.085938.03125-.171875.03125-.261719.699219.027344 1.429688.058594 2.1875.117188 8.089844.4375 12.996094 3.882812 12.472657 12.515625zm0 0" fill="#47a831" fill-rule="evenodd"/><path d="m180.996094 234.5c-2.199219-3.664062-6.949219-4.847656-10.609375-2.652344l-45.226563 27.160156-45.222656-27.160156c-3.664062-2.195312-8.414062-1.011718-10.613281 2.652344-2.199219 3.660156-1.011719 8.414062 2.648437 10.613281l45.453125 27.296875v50.058594c0 4.269531 3.464844 7.734375 7.734375 7.734375 4.269532 0 7.734375-3.464844 7.734375-7.734375v-50.058594l45.453125-27.296875c3.660156-2.199219 4.847656-6.953125 2.648438-10.613281zm0 0" fill="#178035"/><g fill-rule="evenodd"><path d="m24.792969 372h462.414062c13.636719 0 24.792969-11.144531 24.792969-24.765625 0-13.625-11.15625-24.769531-24.792969-24.769531h-462.414062c-13.636719 0-24.792969 11.144531-24.792969 24.769531 0 13.621094 11.15625 24.765625 24.792969 24.765625zm0 0" fill="#a66d30"/><path d="m0 347.234375c0 13.621094 11.15625 24.765625 24.792969 24.765625h44.417969c-13.640626 0-24.796876-11.144531-24.796876-24.765625 0-13.625 11.15625-24.769531 24.796876-24.769531h-44.417969c-13.636719 0-24.792969 11.144531-24.792969 24.769531zm0 0" fill="#6e3e0b"/><path d="m405.382812 25.554688c-4.117187-14.730469-17.695312-25.554688-33.785156-25.554688-15.769531 0-29.085937 10.386719-33.527344 24.679688-1.371093-.148438-2.773437-.234376-4.203124-.234376-19.390626 0-35.101563 15.664063-35.101563 35.035157 0 12.75 6.832031 23.890625 16.996094 30.046875-2.917969 5.105468-4.585938 11.058594-4.585938 17.386718 0 19.339844 15.683594 35.035157 35.074219 35.035157 5.429688 0 10.570312-1.226563 15.183594-3.441407 3.824218-1.839843 7.269531-4.347656 10.164062-7.378906 2.949219 3.0625 6.453125 5.597656 10.335938 7.4375 4.554687 2.1875 9.636718 3.382813 15.039062 3.382813 19.363282 0 35.074219-15.691407 35.074219-35.035157 0-6.039062-1.519531-11.726562-4.207031-16.65625 10.046875-6.183593 16.734375-17.242187 16.734375-29.871093 0-19.371094-15.710938-35.066407-35.074219-35.066407-1.402344 0-2.773438.089844-4.117188.234376zm0 0" fill="#ff698f"/><path d="m370.3125 43.261719c-18.132812 0-32.851562 14.703125-32.851562 32.816406 0 18.148437 14.71875 32.820313 32.851562 32.820313s32.851562-14.671876 32.851562-32.820313c0-18.113281-14.71875-32.816406-32.851562-32.816406zm0 0" fill="#f5df87"/><path d="m371.597656 0c-15.769531 0-29.085937 10.386719-33.527344 24.679688-1.371093-.148438-2.773437-.234376-4.203124-.234376-19.390626 0-35.101563 15.664063-35.101563 35.035157 0 12.75 6.832031 23.890625 16.996094 30.046875-2.917969 5.105468-4.585938 11.058594-4.585938 17.386718 0 19.339844 15.683594 35.035157 35.074219 35.035157 5.429688 0 10.570312-1.226563 15.183594-3.441407.671875-.320312 1.371094-.671874 2.015625-1.050781-22.808594-11.816406-38.253907-34.65625-38.253907-60.851562 0-36.464844 29.929688-66.367188 67.980469-69.226563-5.957031-4.636718-13.433593-7.378906-21.578125-7.378906zm0 0" fill="#cf4b82"/><path d="m370.3125 43.261719c-18.132812 0-32.851562 14.703125-32.851562 32.816406 0 18.148437 14.71875 32.820313 32.851562 32.820313 3.707031 0 7.269531-.613282 10.597656-1.722657-12.964844-4.402343-22.277344-16.65625-22.277344-31.097656 0-14.410156 9.3125-26.660156 22.277344-31.066406-3.328125-1.136719-6.890625-1.75-10.597656-1.75zm0 0" fill="#d9a13f"/></g></svg>