<svg height="512pt" viewBox="-10 0 512 512" width="512pt" xmlns="http://www.w3.org/2000/svg"><g fill-rule="evenodd"><path d="m128.304688 457.21875v42.3125c0 6.863281 5.601562 12.46875 12.460937 12.46875h217.617187c6.859376 0 12.460938-5.605469 12.460938-12.46875v-42.3125l-120.992188-46.695312zm0 0" fill="#f5df87"/><path d="m198.488281 114.558594-24.953125 49.964844 76.054688 24.09375 81.476562-24.09375-24.921875-49.964844-57.808593-27.828125zm0 0" fill="#e6e6e6"/><path d="m223.878906 40.300781v31.683594l24.457032 14.746094 27.3125-14.746094v-31.683594l-27.636719-18.542969zm0 0" fill="#e6e6e6"/><path d="m194.285156 12.46875v15.359375c0 6.863281 5.632813 12.46875 12.492188 12.46875h85.972656c6.859375 0 12.460938-5.605469 12.460938-12.46875v-15.359375c0-6.863281-5.601563-12.46875-12.460938-12.46875h-85.972656c-6.859375 0-12.492188 5.605469-12.492188 12.46875zm0 0" fill="#8fde56"/><path d="m128.304688 176.992188v35.714843l121.574218 18.542969 120.964844-18.542969v-35.714843c0-6.859376-5.601562-12.46875-12.460938-12.46875h-217.617187c-6.859375 0-12.460937 5.609374-12.460937 12.46875zm0 0" fill="#f5df87"/><path d="m122.585938 114.53125c.230468.027344.464843.027344.699218.027344h247.558594c31.488281 0 31.402344 8.820312 47.042969 36.359375l34.378906 60.445312c5.777344 10.195313 18.824219 13.785157 28.976563 8.003907 10.1875-5.78125 13.777343-18.867188 7.996093-29.027344l-52.382812-92.164063c-16.167969-26.191406-28.421875-26.191406-38.550781-26.191406h-275.019532c-.234375 0-.46875 0-.699218.027344l-18.53125 19.535156zm0 0" fill="#8fde56"/><path d="m122.585938 72.011719v42.519531l1.195312.027344h25.214844l-1.199219-.027344v-42.519531l1.199219-.027344h-25.214844zm0 0" fill="#47a831"/><path d="m223.878906 40.300781h16.328125v31.683594h-16.328125zm0 0" fill="#b3adad"/><path d="m194.285156 27.828125c0 6.863281 5.632813 12.472656 12.492188 12.472656h31.429687c-6.859375 0-12.488281-5.609375-12.488281-12.472656v-15.359375c0-6.859375 5.628906-12.46875 12.488281-12.46875h-31.429687c-6.859375 0-12.492188 5.609375-12.492188 12.46875zm0 0" fill="#47a831"/><path d="m198.488281 114.558594-24.953125 49.964844h27.726563l24.921875-49.964844zm0 0" fill="#b3adad"/><path d="m140.765625 164.523438c-6.859375 0-12.460937 5.609374-12.460937 12.46875v35.714843h21.128906v-35.714843c0-6.859376 5.601562-12.46875 12.460937-12.46875zm0 0" fill="#d9a13f"/><path d="m128.304688 457.21875v42.3125c0 6.832031 5.601562 12.46875 12.460937 12.46875h21.128906c6.859375 0-12.460937-5.605469-12.460937-12.46875v-42.3125zm0 0" fill="#d9a13f"/><path d="m82.984375 64.976562v56.59375c0 4.582032 3.734375 8.351563 8.34375 8.351563h23.203125c4.609375 0 8.375-3.769531 8.375-8.351563v-56.597656c0-4.582031-3.765625-8.351562-8.375-8.351562h-23.203125c-4.609375 0-8.34375 3.769531-8.34375 8.355468zm0 0" fill="#f5df87"/><path d="m82.984375 64.976562v56.59375c0 4.582032 3.734375 8.351563 8.34375 8.351563h20.253906c-4.582031 0-8.347656-3.769531-8.347656-8.351563v-56.59375c0-4.585937 3.765625-8.355468 8.347656-8.355468h-20.253906c-4.609375 0-8.34375 3.769531-8.34375 8.355468zm0 0" fill="#d9a13f"/><path d="m128.304688 212.707031h242.539062v244.511719h-242.539062zm0 0" fill="#e6e6e6"/><path d="m128.304688 212.707031v244.511719h21.128906v-244.511719zm0 0" fill="#b3adad"/><path d="m167.640625 298.707031c4.234375 37.175781 42.375 63.546875 61.78125 38.605469l.089844-.117188c.84375-1.078124 1.601562-2.1875 2.246093-3.300781 12.519532-21.492187-8.144531-49-52.851562-46.546875-7.296875.410156-11.761719 3.535156-11.265625 11.359375zm0 0" fill="#8fde56"/><path d="m167.640625 298.707031c4.234375 37.175781 42.375 63.546875 61.78125 38.605469l.089844-.117188c.667969-.847656 1.253906-1.722656 1.808593-2.597656-20.136718 7.09375-46.898437-16.296875-50.398437-47.132812-.03125-.058594-.03125-.144532-.03125-.203125-.640625.027343-1.3125.058593-1.984375.085937-7.296875.410156-11.761719 3.535156-11.265625 11.359375zm0 0" fill="#47a831"/><path d="m330.222656 298.707031c-4.234375 37.175781-42.375 63.546875-61.78125 38.605469l-.089844-.117188c-.84375-1.078124-1.574218-2.1875-2.246093-3.300781-12.519531-21.492187 8.140625-49 52.851562-46.546875 7.296875.410156 11.761719 3.535156 11.265625 11.359375zm0 0" fill="#8fde56"/><path d="m330.222656 298.707031c-4.234375 37.175781-42.375 63.546875-61.78125 38.605469l-.089844-.117188c-.667968-.847656-1.253906-1.722656-1.808593-2.597656 20.136719 7.09375 46.925781-16.296875 50.429687-47.132812 0-.058594 0-.144532 0-.203125.640625.027343 1.3125.058593 1.984375.085937 7.296875.410156 11.761719 3.535156 11.265625 11.359375zm0 0" fill="#47a831"/></g><path d="m295.222656 316.367188c-2.195312-3.65625-6.941406-4.835938-10.59375-2.640626l-35.683594 21.464844-35.710937-21.464844c-3.65625-2.199218-8.398437-1.015624-10.59375 2.640626-2.195313 3.660156-1.011719 8.402343 2.640625 10.601562l35.945312 21.605469v44.921875c0 4.269531 3.457032 7.726562 7.71875 7.726562 4.265626 0 7.71875-3.460937 7.71875-7.726562v-44.921875l35.917969-21.605469c3.65625-2.199219 4.835938-6.945312 2.640625-10.601562zm0 0" fill="#178035"/><path d="m52.339844 102.28125h-44.621094c-4.261719 0-7.71875-3.460938-7.71875-7.722656 0-4.265625 3.457031-7.726563 7.71875-7.726563h44.621094c4.261718 0 7.71875 3.460938 7.71875 7.726563 0 4.261718-3.457032 7.722656-7.71875 7.722656zm0 0" fill="#81c6e6"/><path d="m51.691406 75.621094c-1.105468 0-2.234375-.238282-3.304687-.75l-31.546875-14.976563c-3.851563-1.832031-5.492188-6.4375-3.664063-10.292969 1.828125-3.851562 6.433594-5.496093 10.285157-3.664062l31.546874 14.980469c3.851563 1.828125 5.492188 6.433593 3.664063 10.289062-1.320313 2.78125-4.089844 4.414063-6.980469 4.414063zm0 0" fill="#81c6e6"/><path d="m21.410156 143.953125c-2.886718 0-5.65625-1.628906-6.976562-4.414063-1.828125-3.851562-.1875-8.460937 3.664062-10.289062l31.546875-14.980469c3.851563-1.832031 8.453125-.1875 10.28125 3.667969 1.828125 3.851562.1875 8.460938-3.664062 10.289062l-31.546875 14.980469c-1.066406.507813-2.195313.746094-3.304688.746094zm0 0" fill="#81c6e6"/></svg>