<svg height="512pt" viewBox="0 -50 512 512" width="512pt" xmlns="http://www.w3.org/2000/svg"><path d="m33.582031 233.925781c-18.484375 0-33.582031 15.105469-33.582031 33.59375v110.886719c0 18.492188 15.097656 33.59375 33.582031 33.59375h444.804688c18.484375 0 33.613281-15.101562 33.613281-33.59375v-110.886719c0-18.492187-15.128906-33.59375-33.613281-33.59375-255.808594 0-202.601563 0-444.804688 0zm0 0" fill="#a66d30" fill-rule="evenodd"/><path d="m98.9375 17.910156c6.597656 57.925782 66.027344 98.964844 96.25 60.144532l.144531-.175782c1.316407-1.691406 2.484375-3.417968 3.476563-5.167968 19.507812-33.449219-12.675782-76.273438-82.292969-72.476563-11.386719.644531-18.339844 5.492187-17.578125 17.675781zm0 0" fill="#8fde56" fill-rule="evenodd"/><path d="m98.9375 17.910156c6.597656 57.925782 66.027344 98.964844 96.25 60.144532l.144531-.175782c1.023438-1.34375 1.957031-2.6875 2.804688-4.058594-31.335938 11.011719-73.066407-25.386718-78.523438-73.378906 0-.117187 0-.234375-.03125-.320312-.992187.027344-2.042969.085937-3.066406.117187-11.386719.640625-18.339844 5.488281-17.578125 17.671875zm0 0" fill="#47a831" fill-rule="evenodd"/><g fill="#6e3e0b"><path d="m354.65625 308.425781-9.234375-1.960937c-.726563-.152344-1.386719-.304688-1.996094-.441406-6.050781-1.371094-10.222656-1.867188-17.125 2.820312l-8.539062 5.828125-18.226563-19.523437c-2.933594-3.101563-3.710937 1.597656-6.808594 4.53125-3.097656 2.933593-3.234374 7.824218-.300781 10.925781l29.125 30.765625c2.335938 2.460937 2.300781 2.816406 1.730469 8.730468l-1.015625 10.597657c-.40625 4.25 2.707031 8.023437 6.953125 8.429687.25.023438.5.035156.746094.035156 3.933594 0 7.296875-2.992187 7.679687-6.988281l1.011719-10.585937c.691406-7.128906 1.285156-13.285156-5.898438-20.851563l-4.328124-4.640625 6.558593-4.480468c1.449219-.980469 1.941407-1.09375 1.945313-1.09375.402344-.054688 1.886718.300781 3.078125.574218.675781.152344 1.410156.316406 2.210937.488282l9.226563 1.957031c4.171875.886719 8.273437-1.78125 9.160156-5.957031.882813-4.175782-1.78125-8.277344-5.953125-9.160157zm0 0"/><path d="m80.015625 363.058594h-3.796875c-4.265625 0-7.726562-3.460938-7.726562-7.730469 0-4.265625 3.460937-7.726563 7.726562-7.726563h3.796875c4.265625 0 7.722656 3.460938 7.722656 7.726563 0 4.269531-3.457031 7.730469-7.722656 7.730469zm0 0"/><path d="m122.121094 285.585938h-3.765625c-4.265625 0-7.722657-3.460938-7.722657-7.726563s3.457032-7.726563 7.722657-7.726563h3.765625c4.269531 0 7.726562 3.460938 7.726562 7.726563 0 4.269531-3.457031 7.726563-7.726562 7.726563zm0 0"/><path d="m63.308594 312.957031h-3.765625c-4.265625 0-7.722657-3.457031-7.722657-7.726562 0-4.265625 3.457032-7.726563 7.722657-7.726563h3.765625c4.265625 0 7.726562 3.460938 7.726562 7.726563 0 4.269531-3.460937 7.726562-7.726562 7.726562zm0 0"/><path d="m435.082031 363.058594h-3.769531c-4.265625 0-7.722656-3.460938-7.722656-7.730469 0-4.265625 3.460937-7.726563 7.722656-7.726563h3.769531c4.265625 0 7.722657 3.460938 7.722657 7.726563 0 4.269531-3.457032 7.730469-7.722657 7.730469zm0 0"/><path d="m392.972656 285.585938h-3.769531c-4.265625 0-7.722656-3.460938-7.722656-7.726563s3.460937-7.726563 7.722656-7.726563h3.769531c4.265625 0 7.722656 3.460938 7.722656 7.726563 0 4.269531-3.457031 7.726563-7.722656 7.726563zm0 0"/><path d="m451.785156 312.957031h-3.765625c-4.265625 0-7.726562-3.457031-7.726562-7.726562 0-4.265625 3.460937-7.726563 7.726562-7.726563h3.765625c4.265625 0 7.726563 3.460938 7.726563 7.726563 0 4.269531-3.460938 7.726562-7.726563 7.726562zm0 0"/><path d="m196.789062 309.230469c-3.097656-2.933594-5.054687-5.894531-7.988281-2.796875l-16.925781 17.882812-8.65625-5.890625c-6.894531-4.714843-11.074219-4.222656-17.136719-2.847656-.609375.136719-1.269531.285156-1.996093.441406l-9.226563 1.957031c-4.175781.882813-6.839844 4.984376-5.953125 9.160157.882812 4.175781 4.984375 6.839843 9.15625 5.957031l9.222656-1.957031c.800782-.171875 1.53125-.335938 2.207032-.488281 1.1875-.269532 2.652343-.617188 3.046874-.578126.023438.003907.519532.125 1.972657 1.121094l6.601562 4.492188-4.351562 4.597656c-7.1875 7.570312-6.59375 13.738281-5.90625 20.875l1.015625 10.566406c.382812 4 3.746094 6.988282 7.679687 6.988282.246094 0 .496094-.011719.75-.035157 4.246094-.40625 7.355469-4.183593 6.949219-8.429687l-1.015625-10.570313c-.574219-5.9375-.605469-6.292969 1.738281-8.761719l29.113282-30.761718c2.933593-3.097656 2.800781-7.988282-.296876-10.921875zm0 0"/></g><path d="m389.496094 17.910156c-6.597656 57.925782-65.996094 98.964844-96.25 60.144532l-.144532-.175782c-1.316406-1.691406-2.453124-3.417968-3.476562-5.167968-19.507812-33.449219 12.675781-76.273438 82.292969-72.476563 11.386719.644531 18.339843 5.492187 17.578125 17.675781zm0 0" fill="#8fde56" fill-rule="evenodd"/><path d="m389.496094 17.910156c-6.597656 57.925782-65.996094 98.964844-96.25 60.144532l-.144532-.175782c-1.023437-1.34375-1.957031-2.6875-2.804687-4.058594 31.335937 11.011719 73.066406-25.386718 78.523437-73.378906 0-.117187 0-.234375.03125-.320312.992188.027344 2.042969.085937 3.066407.117187 11.386719.640625 18.339843 5.488281 17.578125 17.671875zm0 0" fill="#47a831" fill-rule="evenodd"/><path d="m331.292969 47.671875c-2.195313-3.660156-6.945313-4.84375-10.601563-2.648437l-76.472656 45.925781-76.476562-45.925781c-3.65625-2.195313-8.402344-1.011719-10.597657 2.648437-2.199219 3.65625-1.011719 8.402344 2.644531 10.601563l76.703126 46.0625v75.144531c0 4.265625 3.457031 7.726562 7.722656 7.726562s7.726562-3.460937 7.726562-7.726562v-75.144531l76.703125-46.0625c3.65625-2.199219 4.84375-6.945313 2.648438-10.601563zm0 0" fill="#178035"/><path d="m0 378.40625c0 18.492188 15.097656 33.59375 33.582031 33.59375h444.804688c18.484375 0 33.613281-15.101562 33.613281-33.59375v-24.304688c0 18.464844-15.128906 33.59375-33.613281 33.59375h-444.804688c-18.484375 0-33.582031-15.128906-33.582031-33.59375zm0 0" fill="#6e3e0b" fill-rule="evenodd"/><path d="m282.796875 333.738281c-3.742187 3.71875-7.945313 6.769531-12.445313 9.171875-49.386718 26.285156-134.902343-26.722656-42.898437-153.882812 11.394531-15.714844 20.089844-20.332032 33.820313-.703125 50.097656 74.3125 44.609374 122.484375 21.523437 145.414062zm0 0" fill="#f5df87" fill-rule="evenodd"/><path d="m259.488281 185.84375c-12.703125-16.738281-21.140625-11.859375-32.035156 3.183594-85.765625 118.511718-17.285156 172.640625 32.414063 158.121094-40.5-9.84375-71.222657-63.503907-2.277344-158.761719.644531-.875 1.257812-1.722657 1.898437-2.542969zm0 0" fill="#d9a13f" fill-rule="evenodd"/><path d="m282.796875 333.738281c-3.742187 3.71875-7.945313 6.769531-12.445313 9.171875l-15.835937-23.085937c-1.019531-1.503907-1.492187-3.304688-1.308594-5.121094l1.773438-18.207031-14.269531-4.347656c-4.078126-1.25-6.386719-5.566407-5.140626-9.648438 1.246094-4.078125 5.5625-6.378906 9.644532-5.140625l20.324218 6.195313c3.511719 1.070312 5.789063 4.480468 5.429688 8.148437l-2.113281 21.703125zm0 0" fill="#6e3e0b"/></svg>