<svg height="511pt" viewBox="0 -11 511.99982 511" width="511pt" xmlns="http://www.w3.org/2000/svg"><path d="m251.773438 481.882812h235.8125c0-19.589843-15.273438-35.609374-34.550782-36.761718v-.085938c0-23.050781-18.640625-41.71875-41.65625-41.71875h-1.035156c-5.898438-8.039062-14.238281-14.144531-23.90625-17.257812-4.574219-1.441406-9.4375-2.246094-14.5-2.246094-5.148438 0-10.097656.835938-14.726562 2.332031-9.726563 3.167969-18.039063 9.363281-23.90625 17.488281-1.726563-.230468-3.480469-.316406-5.292969-.316406-23.015625 0-41.6875 18.667969-41.6875 41.71875v.085938c-19.273438 1.152344-34.550781 17.171875-34.550781 36.761718zm0 0" fill="#a66d30" fill-rule="evenodd"/><path d="m332.898438 481.882812h-81.125c0-19.589843 15.277343-35.609374 34.550781-36.761718v-.085938c0-23.050781 18.671875-41.71875 41.6875-41.71875 1.808593 0 3.566406.085938 5.292969.316406 8.65625-11.984374 22.726562-19.820312 38.632812-19.820312 10.011719 0 19.277344 3.109375 26.957031 8.382812-38.691406 11.351563-66.539062 43.160157-66.539062 80.613282 0 3.054687.199219 6.109375.542969 9.074218zm0 0" fill="#6e3e0b" fill-rule="evenodd"/><path d="m504.386719 489.5h-269.414063c-4.203125 0-7.609375-3.410156-7.609375-7.617188 0-4.207031 3.40625-7.617187 7.609375-7.617187h269.414063c4.207031 0 7.613281 3.410156 7.613281 7.617187 0 4.207032-3.40625 7.617188-7.613281 7.617188zm0 0" fill="#6e3e0b"/><g fill-rule="evenodd"><path d="m332.382812 92.015625-11.277343-10.832031-77.011719-74.046875c-14.296875-13.769531-31.328125-4.03125-35.902344 10.285156-3.050781 9.539063-3.222656 13.140625-5.839844 16.597656-1.699218 2.214844-4.402343 4.378907-9.609374 8.035157-62.601563 44.167968-102.875 90.292968-147.957032 153.5625-12.425781 17.402343-8.601562 14.808593-28.738281 22.214843-14.09375 5.15625-23.128906 22.585938-8.800781 36.328125l76.984375 74.046875 77.011719 74.070313c14.296874 13.742187 31.328124 4.003906 35.902343-10.3125 6.558594-20.429688 4.085938-16.566406 21.027344-29.617188 57.25-43.9375 94.621094-76.148437 134.320313-135.238281 18.871093-28.089844-9.550782-23.652344.949218-51.570313 13.867188-36.820312-22.382812-28.0625-11.105468-51.945312 7.25-15.359375-2.734376-24.632812-9.953126-31.578125zm0 0" fill="#e6e6e6"/><path d="m192.742188 42.058594c-62.601563 44.167968-102.875 90.292968-147.957032 153.5625-12.425781 17.402344-8.601562 14.808594-28.738281 22.210937-14.09375 5.15625-23.128906 22.589844-8.800781 36.332031l20.828125 20.050782c-14.300781-13.742188-5.265625-31.171875 8.832031-36.328125 20.136719-7.40625 16.3125-4.785157 28.738281-22.214844 45.078125-63.269531 85.355469-109.394531 147.953125-153.5625 5.207032-3.660156 7.914063-5.820313 9.609375-8.039063 2.617188-3.457031 2.792969-7.058593 5.839844-16.59375 4.574219-14.289062 21.546875-24.027343 35.816406-10.371093l-20.769531-19.964844c-14.300781-13.773437-31.328125-4.035156-35.902344 10.285156-3.050781 9.535157-3.222656 13.136719-5.839844 16.59375-1.699218 2.21875-4.402343 4.378907-9.609374 8.039063zm0 0" fill="#adafb3"/><path d="m186.066406 143.703125c-16.941406-8.386719-37.453125-1.414063-45.796875 15.558594-5.523437 11.175781-4.375 23.882812 1.871094 33.679687-4.777344 3.195313-8.804687 7.691406-11.539063 13.222656-8.371093 16.96875-1.410156 37.511719 15.535157 45.894532 8.71875 4.292968 18.355469 4.554687 26.84375 1.46875 2.703125 8.617187 8.773437 16.136718 17.488281 20.457031 16.945312 8.355469 37.457031 1.414063 45.800781-15.558594 2.617188-5.269531 3.738281-10.917969 3.539063-16.421875 11.417968-1.066406 22.0625-7.863281 27.527344-18.957031 8.375-16.96875 1.410156-37.511719-15.53125-45.867187-1.210938-.605469-2.445313-1.125-3.683594-1.585938 2.761718-14.691406-4.429688-30.046875-18.5-36.992188-13.777344-6.828124-29.917969-3.484374-39.957032 7.144532-1.152343-.746094-2.332031-1.4375-3.597656-2.042969zm0 0" fill="#ff698f"/><path d="m218.519531 217.257812c6.039063-12.246093 1.003907-27.082031-11.191406-33.105468-12.226563-6.050782-27.042969-1.039063-33.085937 11.207031-6.039063 12.246094-1.003907 27.082031 11.222656 33.105469 12.226562 6.050781 27.011718 1.035156 33.054687-11.207032zm0 0" fill="#e6e6e6"/><path d="m186.066406 143.703125c-16.941406-8.386719-37.453125-1.414063-45.796875 15.558594-5.523437 11.175781-4.375 23.882812 1.871094 33.679687-4.777344 3.195313-8.804687 7.691406-11.539063 13.222656-8.371093 16.96875-1.410156 37.511719 15.535157 45.894532 8.085937 4.007812 17.03125 4.496094 25.058593 2.074218-8.371093-11.464843-13.78125-25.324218-15.015624-40.507812-2.21875-27.886719 10.210937-53.585938 30.867187-69.433594-.316406-.171875-.632813-.316406-.980469-.488281zm0 0" fill="#cf4b82"/><path d="m198.148438 181.644531c-9.722657-.6875-19.332032 4.4375-23.90625 13.714844-6.039063 12.246094-1.003907 27.082031 11.222656 33.105469 6.847656 3.398437 14.527344 3.3125 21 .402344-3.105469-.203126-6.214844-1.007813-9.175782-2.476563-12.226562-6.050781-17.234374-20.890625-11.191406-33.132813 2.644532-5.359374 6.988282-9.335937 12.050782-11.613281zm0 0" fill="#adafb3"/><path d="m376.914062 274.992188c-60.554687 83.8125 72.09375 86.808593 13.464844-.257813-5.464844-7.835937-8.945312-5.992187-13.464844.257813zm0 0" fill="#f5df87"/><path d="m389.660156 273.726562c-5.0625-6.65625-8.429687-4.699218-12.746094 1.265626-34.144531 47.25-6.875 68.800781 12.890626 63.039062-16.109376-3.945312-28.335938-25.324219-.894532-63.269531.261719-.375.492188-.691407.75-1.035157zm0 0" fill="#d9a13f"/><path d="m404.851562 192.96875c-11.308593 102.824219 105.492188 39.789062 11.5625-6.886719-8.601562-4.117187-10.730468-.804687-11.5625 6.886719zm0 0" fill="#f5df87"/><path d="m415.292969 185.5625c-7.683594-3.28125-9.636719.058594-10.445313 7.40625-6.386718 57.964844 27.964844 63.210938 42.320313 48.402344-15.96875 4.578125-37.140625-7.953125-32.019531-54.539063.058593-.433593.085937-.863281.144531-1.269531zm0 0" fill="#d9a13f"/></g></svg>