<svg height="512pt" viewBox="-32 0 512 512" width="512pt" xmlns="http://www.w3.org/2000/svg"><g fill-rule="evenodd"><path d="m230.113281 0c-21.714843 0-40.921875 8.148438-52.714843 20.703125-2.363282-.234375-4.785157-.347656-7.238282-.347656-31.40625 0-56.859375 19.535156-56.859375 43.625v.089843c-26.328125 1.195313-47.167969 17.957032-47.167969 38.429688l157.851563 25.230469 163.957031-25.230469c0-20.472656-20.84375-37.234375-47.171875-38.429688v-.089843c0-24.089844-25.453125-43.625-56.859375-43.625l-1.398437.027343c-11.824219-12.382812-30.882813-20.382812-52.398438-20.382812zm0 0" fill="#a66d30"/><path d="m404.957031 151.355469-187.21875-24.414063-174.695312 24.414063c-22.59375 77.761719-37.507813 190.046875-21.484375 291.84375l190.285156 28.5 214.597656-28.5c16.023438-101.796875 1.109375-214.082031-21.484375-291.84375zm0 0" fill="#f5df87"/><path d="m224.015625 102.5h-181.207031c-13.425782 0-24.429688 11.007812-24.429688 24.441406 0 13.402344 11.003906 24.414063 24.429688 24.414063h368.863281c13.425781 0 24.402344-11.011719 24.402344-24.445313 0-13.402344-10.976563-24.410156-24.402344-24.410156zm0 0" fill="#d9a13f"/><path d="m426.441406 443.199219h-404.882812c-30.5 18.105469-33.625 68.800781 23.527344 68.800781h357.828124c57.152344 0 54.027344-50.695312 23.527344-68.800781zm0 0" fill="#d9a13f"/><path d="m170.160156 20.355469c-31.40625 0-56.859375 19.535156-56.859375 43.625v.089843c-26.328125 1.195313-47.167969 17.957032-47.167969 38.429688h112.027344c4.84375-40.648438 32.253906-76.394531 72.707032-99.898438-6.539063-1.695312-13.511719-2.601562-20.753907-2.601562-21.714843 0-40.921875 8.148438-52.714843 20.703125-2.363282-.230469-4.785157-.347656-7.238282-.347656zm0 0" fill="#6e3e0b"/><path d="m60.058594 102.5h-17.25c-13.425782 0-24.429688 11.007812-24.429688 24.441406 0 13.402344 11.003906 24.414063 24.429688 24.414063h48.484375c-5.371094 0-10.332031-1.78125-14.390625-4.734375-6.042969-4.464844-10.011719-11.648438-10.011719-19.679688 0-9.722656 5.75-18.132812 13.984375-22.078125 3.179688-1.519531 6.710938-2.363281 10.417969-2.363281zm0 0" fill="#a66d30"/><path d="m76.757812 151.355469h-33.714843c-22.59375 77.761719-37.507813 190.046875-21.484375 291.84375h33.976562c-16.054687-101.796875-1.136718-214.078125 21.453125-291.84375zm0 0" fill="#d9a13f"/><path d="m70.070312 443.199219h-48.511718c-30.5 18.105469-33.625 68.800781 23.527344 68.800781h48.511718c-51.632812 0-54.058594-41.410156-31.523437-62.726562 2.394531-2.277344 5.078125-4.320313 7.996093-6.074219zm0 0" fill="#a66d30"/><path d="m167.652344 203.65625c-20.023438.171875-27.207032 12.089844-26.882813 30.835938 1.925781 120.109374 83.097657 166.773437 135.726563 120.605468.175781-.175781.351562-.320312.527344-.46875l.289062-.261718c60.074219-54.054688-14.066406-146.652344-109.660156-150.710938zm0 0" fill="#8fde56"/><path d="m165.402344 203.742188c-18.300782 1.023437-24.925782 12.734374-24.636719 30.75 1.871094 117.042968 78.988281 164.351562 131.644531 123.964843-50.089844 16.496094-109.402344-32.53125-111.035156-135.003906-.144531-7.914063 1.078125-14.601563 4.027344-19.710937zm0 0" fill="#47a831"/></g><path d="m312.597656 384.136719-50.390625-56.796875 3.617188-28.65625c.535156-4.230469-2.460938-8.097656-6.691407-8.632813-4.226562-.527343-8.089843 2.464844-8.628906 6.695313l-1.925781 15.238281-19.148437-21.585937 2.828124-22.253907c.535157-4.230469-2.457031-8.097656-6.6875-8.636719-4.242187-.535156-8.09375 2.457032-8.632812 6.6875l-1.125 8.855469-12.527344-14.117187c-2.832031-3.191406-7.710937-3.484375-10.898437-.652344-3.191407 2.832031-3.480469 7.714844-.652344 10.90625l12.90625 14.546875-11.15625.375c-4.261719.148437-7.597656 3.71875-7.457031 7.984375.144531 4.171875 3.570312 7.460938 7.714844 7.460938.085937 0 .175781 0 .265624-.003907l23.949219-.8125 19.460938 21.9375-18.015625.609375c-4.261719.144532-7.597656 3.71875-7.453125 7.980469.140625 4.175781 3.566406 7.460937 7.710937 7.460937.089844 0 .179688 0 .265625-.003906l30.808594-1.042968 50.316406 56.710937c1.523438 1.71875 3.644531 2.59375 5.777344 2.59375 1.820313 0 3.652344-.640625 5.121094-1.945313 3.191406-2.832031 3.480469-7.710937.648437-10.902343zm0 0" fill="#178035"/></svg>