<svg height="512pt" viewBox="0 -8 512 512" width="512pt" xmlns="http://www.w3.org/2000/svg"><g fill-rule="evenodd"><path d="m484.78125 205.910156v253.410156h-460.109375l-.082031-253.265624c0-23.953126 0-23.832032 16.597656-37.359376l126.585938-103.203124 13.765624-11.21875 44.875-36.585938c15.265626-11.828125 22.105469-17.68359375 28.914063-17.68359375 6.8125-.17578125 13.652344 5.68359375 28.910156 17.53906275l42.648438 35.007812 13.742187 11.28125 127.515625 104.6875c16.636719 13.527344 16.636719 13.433594 16.636719 37.390625zm0 0" fill="#c9eeff"/><path d="m100.066406 341.628906c10.613282-17.332031-5.964844-39.875-42.214844-37.882812-5.902343.320312-9.46875 2.839844-9.089843 9.132812 3.417969 29.917969 34.085937 51.144532 49.695312 31.089844l.089844-.117188c.554687-.730468 1.082031-1.460937 1.519531-2.222656zm0 0" fill="#8fde56"/><path d="m96.265625 346.429688c-14.996094-.203126-31.71875-17.300782-34.171875-38.9375-.117188-1.492188.027344-2.78125.351562-3.863282-1.492187-.027344-3.042968.027344-4.589843.117188-5.90625.320312-9.472657 2.839844-9.09375 9.132812 3.246093 28.574219 31.367187 49.214844 47.503906 33.550782zm0 0" fill="#47a831"/><path d="m125.03125 341.628906c-10.609375-17.332031 5.996094-39.875 42.246094-37.882812 5.875.320312 9.46875 2.839844 9.0625 9.132812-3.394532 29.917969-34.089844 51.144532-49.699219 31.089844l-.058594-.117188c-.585937-.730468-1.082031-1.460937-1.550781-2.222656zm0 0" fill="#8fde56"/><path d="m128.863281 346.429688c14.964844-.203126 31.71875-17.300782 34.171875-38.9375.089844-1.492188-.027344-2.78125-.378906-3.863282 1.519531-.027344 3.039062.027344 4.617188.117188 5.878906.320312 9.472656 2.839844 9.0625 9.132812-3.242188 28.574219-31.335938 49.214844-47.472657 33.550782zm0 0" fill="#47a831"/><path d="m384.863281 341.628906c10.609375-17.332031-5.996093-39.875-42.246093-37.882812-5.875.320312-9.441407 2.839844-9.0625 9.132812 3.390624 29.917969 34.089843 51.144532 49.699218 31.089844l.085938-.085938c.558594-.761718 1.054687-1.492187 1.523437-2.253906zm0 0" fill="#8fde56"/><path d="m381.03125 346.429688c-14.964844-.203126-31.6875-17.300782-34.144531-38.9375-.117188-1.492188.03125-2.78125.351562-3.863282-1.492187 0-3.039062.027344-4.617187.117188-5.878906.320312-9.445313 2.839844-9.0625 9.132812 3.242187 28.574219 31.367187 49.214844 47.472656 33.550782zm0 0" fill="#47a831"/><path d="m409.828125 341.628906c-10.613281-17.332031 5.992187-39.875 42.242187-37.882812 5.875.320312 9.472657 2.839844 9.0625 9.132812-3.390624 29.917969-34.085937 51.144532-49.695312 31.089844l-.058594-.085938c-.585937-.761718-1.082031-1.492187-1.550781-2.253906zm0 0" fill="#8fde56"/><path d="m413.65625 346.429688c14.96875-.203126 31.722656-17.300782 34.175781-38.9375.089844-1.492188-.058593-2.78125-.378906-3.863282 1.488281 0 3.039063.027344 4.617187.117188 5.875.320312 9.472657 2.839844 9.0625 9.132812-3.246093 28.574219-31.335937 49.214844-47.476562 33.550782zm0 0" fill="#47a831"/><path d="m484.78125 256.640625h-460.195312v-15.867187h460.195312zm0 0" fill="#81c6e6"/><path d="m484.78125 211.378906v-8.695312l-.027344-.847656c-.027344-19.9375-.992187-20.582032-16.605468-33.316407l-183.910157-150.976562c-15.257812-11.855469-22.097656-17.710938-28.910156-17.5351565-.234375 0-.4375 0-.644531 0-.234375 0-.4375 0-.640625 0-6.8125-.1757815-13.652344 5.6796875-28.941407 17.5351565l-183.910156 150.976562c-15.613281 12.734375-16.546875 13.378907-16.605468 33.316407v39.640624c0-.234374 0-.46875.027343-.703124h-.027343v-29.394532h22.304687v-4.742187c0-8.371094.875-7.875 7.367187-13.144531l172.15625-140.378907c14.765626-11.445312 21.664063-17.300781 28.269532-17.683593 6.578125.382812 13.476562 6.238281 28.242187 17.683593l172.183594 140.378907c6.492187 5.269531 7.339844 4.773437 7.339844 13.144531v4.742187h22.332031l-.027344 30.039063c0-.207031 0-.441407 0-.644531zm-.027344 30.039063v.058593" fill="#81c6e6"/><path d="m296.488281 289.957031h-83.636719c-7.105468 0-12.921874 5.824219-12.921874 12.9375v156.421875h109.480468l-.027344-21.164062h.027344v-135.257813c0-7.113281-5.816406-12.9375-12.921875-12.9375zm0 0" fill="#81c6e6"/><path d="m296.488281 289.957031h-83.636719c-7.105468 0-12.921874 5.824219-12.921874 12.9375v19.148438c0-7.113281 5.816406-12.941407 12.921874-12.941407h83.636719c7.105469 0 12.921875 5.828126 12.921875 12.941407v-19.148438c0-7.113281-5.816406-12.9375-12.921875-12.9375zm0 0" fill="#349ecf"/></g><path d="m340.617188 211.378906c.003906-.066406.011718-.132812.011718-.199218v-147.347657l-13.742187-11.277343c-1.09375 1.339843-1.75 3.050781-1.75 4.917968v153.707032c0 .066406.007812.132812.007812.199218h-141.875v-152.238281c0-1.835937-.640625-3.535156-1.730469-4.867187l-13.765624 11.21875v145.886718h-143.1875v29.394532h460.199218v-29.394532zm0 0" fill="#757a85"/><path d="m149.253906 325.9375c-2.324218-3.59375-7.121094-4.625-10.714844-2.296875l-25.988281 16.828125-25.988281-16.828125c-3.59375-2.328125-8.390625-1.296875-10.714844 2.296875-2.324218 3.597656-1.296875 8.398438 2.296875 10.726562l26.65625 17.265626v34.746093c0 4.28125 3.46875 7.753907 7.75 7.753907s7.75-3.472657 7.75-7.753907v-34.746093l26.660157-17.265626c3.589843-2.328124 4.617187-7.128906 2.292968-10.726562zm0 0" fill="#178035"/><path d="m434.050781 325.9375c-2.324219-3.59375-7.121093-4.625-10.714843-2.296875l-25.988282 16.828125-25.992187-16.828125c-3.59375-2.328125-8.390625-1.296875-10.714844 2.296875-2.324219 3.597656-1.292969 8.398438 2.296875 10.726562l26.660156 17.265626v34.746093c0 4.28125 3.46875 7.753907 7.75 7.753907 4.277344 0 7.746094-3.472657 7.746094-7.753907v-34.746093l26.660156-17.265626c3.59375-2.328124 4.621094-7.128906 2.296875-10.726562zm0 0" fill="#178035"/><path d="m429.882812 416.953125v-19.640625c0-4.746094-3.859374-8.636719-8.597656-8.636719h-47.851562c-4.738282 0-8.625 3.894531-8.625 8.636719v19.640625l33.9375 11.097656zm0 0" fill="#a66d30" fill-rule="evenodd"/><path d="m429.882812 416.953125h-120.472656v42.363281l89.335938 18.355469 86.035156-18.355469v-42.363281zm0 0" fill="#f5df87" fill-rule="evenodd"/><path d="m429.824219 438.152344h-120.441407l.027344 21.164062h175.285156v-21.164062zm0 0" fill="#d9a13f" fill-rule="evenodd"/><path d="m145.085938 416.953125v-19.640625c0-4.746094-3.859376-8.636719-8.59375-8.636719h-47.855469c-4.734375 0-8.625 3.894531-8.625 8.636719v19.640625l31.398437 11.097656zm0 0" fill="#a66d30" fill-rule="evenodd"/><path d="m145.085938 416.953125h-120.441407l.027344 42.363281 82.761719 18.589844 92.496094-18.589844v-42.363281zm0 0" fill="#f5df87" fill-rule="evenodd"/><path d="m145.085938 438.152344h-120.441407l.027344 21.164062h175.257813v-21.164062zm0 0" fill="#d9a13f" fill-rule="evenodd"/><path d="m199.929688 459.316406h-181.628907c-10.058593 0-18.300781 8.257813-18.300781 18.355469 0 10.070313 8.242188 18.328125 18.300781 18.328125h475.398438c10.058593 0 18.300781-8.257812 18.300781-18.328125 0-10.097656-8.242188-18.355469-18.300781-18.355469zm0 0" fill="#e6e6e6" fill-rule="evenodd"/></svg>