<svg height="512pt" viewBox="-48 0 511 512" width="512pt" xmlns="http://www.w3.org/2000/svg"><g fill-rule="evenodd"><path d="m388.363281 201.671875v-179.652344c0-12.121093-10.292969-22.019531-22.914062-22.019531h-321.972657c-12.59375 0-22.917968 9.898438-22.917968 22.019531v364.703125h.058594c2.363281 0 26.296874-.203125 26.5625-.144531l163.300781 40.386719 177.882812-40.242188zm0 0" fill="#a66d30"/><path d="m37.382812 386.636719v-364.617188c0-12.121093 10.292969-22.019531 22.917969-22.019531h-16.824219c-12.59375 0-22.917968 9.898438-22.917968 22.019531v364.703125h16.824218zm0 0" fill="#6e3e0b"/><path d="m188.644531 363.945312v-118.792968l-.292969.117187c-.902343-3.417969-4.023437-5.929687-7.695312-5.929687h-114.292969c-4.371093 0-7.960937 3.59375-7.960937 8.003906v114.441406c0 4.378906 3.585937 7.972656 7.960937 7.972656h114.292969c3.671875 0 6.792969-2.511718 7.695312-5.898437zm0 0" fill="#c9eeff"/><path d="m402.417969 426.964844-193.917969-20.121094-193.507812 20.121094 11.046874 65.730468c1.75 10.425782 9.710938 19.304688 22.160157 19.304688h321.011719c12.417968 0 20.40625-8.878906 22.15625-19.304688zm0 0" fill="#b3adad"/><path d="m396.382812 386.722656h-384.832031c-6.09375 0-11.050781 4.996094-11.050781 11.066406v18.136719c0 6.074219 4.957031 11.039063 11.050781 11.039063h393.898438c6.09375 0 11.046875-4.964844 11.046875-11.039063v-18.136719c0-6.070312-4.957032-11.066406-11.046875-11.066406zm0 0" fill="#e6e6e6"/><path d="m352.503906 197.667969v-152.84375c0-4.378907-3.589844-7.972657-7.960937-7.972657h-114.292969c-4.402344 0-7.988281 3.59375-7.988281 7.972657v152.84375c0 4.410156 3.585937 8.003906 7.988281 8.003906h114.292969c4.371093 0 7.960937-3.59375 7.960937-8.003906zm0 0" fill="#c9eeff"/><path d="m188.644531 197.667969v-152.84375c0-4.378907-3.585937-7.972657-7.988281-7.972657h-114.292969c-4.371093 0-7.960937 3.59375-7.960937 7.972657v152.84375c0 4.410156 3.585937 8.003906 7.960937 8.003906h114.292969c4.402344 0 7.988281-3.59375 7.988281-8.003906zm0 0" fill="#c9eeff"/><path d="m19.742188 415.925781v-18.136719c0-6.070312 4.988281-11.066406 11.050781-11.066406h-19.242188c-6.09375 0-11.050781 4.996094-11.050781 11.066406v18.136719c0 6.074219 4.957031 11.039063 11.050781 11.039063h19.242188c-1.75 0-3.382813-.410156-4.867188-1.140625-3.644531-1.78125-6.183593-5.578125-6.183593-9.898438zm0 0" fill="#b3adad"/><path d="m352.503906 363.945312v-118.792968l-.265625.117187c-.929687-3.417969-4.023437-5.929687-7.695312-5.929687h-114.292969c-4.402344 0-7.988281 3.59375-7.988281 8.003906v114.441406c0 4.378906 3.585937 7.972656 7.988281 7.972656h114.292969c3.671875 0 6.761719-2.511718 7.695312-5.898437zm0 0" fill="#c9eeff"/><path d="m304.363281 343.53125c-4.925781-10.453125-15.859375-17.664062-28.015625-17.34375-6.152344-8.410156-19.390625-14.511719-35.191406-17.695312-3.558594-.703126-7.230469-1.285157-10.992188-1.695313-.351562-.027344-.699218-.058594-1.019531-.117187-2.304687-.203126-4.578125-.378907-6.882812-.496094-11.28125-.582032-22.917969.203125-33.617188 2.542968-14.140625 3.0625-26.675781 8.847657-34.578125 17.664063-13.382812-1.691406-25.65625 5.667969-31.023437 17.085937-9.125 18.542969.148437 40.296876 20.003906 43.246094 8.21875 1.226563 12.652344-.085937 22.652344-.085937l90.152343.027343c24.839844.058594 57.523438.03125 48.511719-43.132812zm0 0" fill="#47a831"/><path d="m168.496094 367.363281c0-25.902343 13.910156-48.535156 34.640625-60.828125-4.957031.4375-9.828125 1.167969-14.492188 2.1875-14.140625 3.066406-26.679687 8.847656-34.578125 17.667969-13.382812-1.695313-25.660156 5.664063-31.023437 17.082031.292969.207032.582031.4375.847656.644532 4.75 3.707031 8.277344 8.875 9.941406 14.804687 1.105469-.117187 2.214844-.175781 3.351563-.175781 15.511718 0 28.136718 12.410156 28.515625 27.886718h5.453125c-1.75-6.128906-2.65625-12.613281-2.65625-19.269531zm0 0" fill="#178035"/><path d="m45.285156 492.695312-4.113281-24.441406c0-4.964844 3.558594-9.140625 8.253906-10.101562h347.742188l4.957031-29.4375.292969-1.75c-126.859375 0-259.808594 0-387.425781 0l11.046874 65.730468c1.75 10.425782 9.710938 19.304688 22.160157 19.304688h19.242187c-12.417968 0-20.410156-8.878906-22.15625-19.304688zm0 0" fill="#757a85"/><path d="m339.351562 362.28125c-3.234374-11.59375-13.875-20.089844-26.472656-20.089844-12.390625 0-22.828125 8.175782-26.300781 19.417969-1.078125-.144531-2.183594-.203125-3.292969-.203125-15.21875 0-27.523437 12.320312-27.523437 27.535156 0 10.046875 5.335937 18.808594 13.324219 23.625-2.304688 4.03125-3.613282 8.703125-3.613282 13.667969 0 15.214844 12.332032 27.566406 27.519532 27.566406 4.257812 0 8.28125-.992187 11.898437-2.714843 3.003906-1.433594 5.683594-3.417969 7.988281-5.8125 2.304688 2.425781 5.042969 4.410156 8.074219 5.871093 3.585937 1.695313 7.582031 2.65625 11.808594 2.65625 15.191406 0 27.496093-12.351562 27.496093-27.566406 0-4.730469-1.195312-9.199219-3.296874-13.082031 7.875-4.847656 13.121093-13.550782 13.121093-23.507813 0-15.214843-12.304687-27.539062-27.523437-27.539062-1.078125 0-2.15625.058593-3.207032.175781zm0 0" fill="#ff698f"/><path d="m311.859375 376.210938c-14.226563 0-25.773437 11.5625-25.773437 25.8125 0 14.253906 11.546874 25.785156 25.773437 25.785156s25.746094-11.535156 25.746094-25.785156c-.003907-14.25-11.519531-25.8125-25.746094-25.8125zm0 0" fill="#f5df87"/><path d="m312.878906 342.191406c-12.390625 0-22.828125 8.175782-26.300781 19.417969-1.078125-.144531-2.183594-.203125-3.292969-.203125-15.21875 0-27.523437 12.320312-27.523437 27.535156 0 10.046875 5.335937 18.808594 13.324219 23.625-2.304688 4.03125-3.613282 8.703125-3.613282 13.667969 0 15.214844 12.332032 27.566406 27.519532 27.566406 4.257812 0 8.28125-.992187 11.898437-2.714843.523437-.265626 1.078125-.527344 1.574219-.820313-17.875-9.3125-30.003906-27.246094-30.003906-47.859375 0-28.648438 23.472656-52.183594 53.296874-54.402344-4.664062-3.652344-10.523437-5.8125-16.878906-5.8125zm0 0" fill="#cf4b82"/><path d="m311.859375 376.210938c-14.226563 0-25.773437 11.5625-25.773437 25.8125 0 14.253906 11.546874 25.785156 25.773437 25.785156 2.886719 0 5.683594-.464844 8.28125-1.371094-10.148437-3.445312-17.4375-13.082031-17.4375-24.414062 0-11.359376 7.289063-20.996094 17.4375-24.441407-2.597656-.875-5.394531-1.371093-8.28125-1.371093zm0 0" fill="#d9a13f"/><path d="m133.832031 358.921875c-3.355469-12-14.375-20.820313-27.464843-20.820313-12.800782 0-23.648438 8.46875-27.234376 20.121094-1.136718-.148437-2.273437-.203125-3.4375-.203125-15.746093 0-28.515624 12.789063-28.515624 28.558594 0 10.394531 5.539062 19.476563 13.820312 24.472656-2.390625 4.175781-3.761719 9.019531-3.761719 14.160157 0 15.800781 12.769531 28.589843 28.515625 28.589843 4.429688 0 8.628906-1.023437 12.359375-2.804687 3.09375-1.515625 5.890625-3.5625 8.253907-6.015625 2.390624 2.484375 5.246093 4.558593 8.394531 6.074219 3.703125 1.753906 7.84375 2.746093 12.21875 2.746093 15.773437 0 28.542969-12.789062 28.542969-28.589843 0-4.90625-1.253907-9.519532-3.441407-13.550782 8.164063-5.019531 13.617188-14.042968 13.617188-24.351562 0-15.769532-12.769531-28.5625-28.515625-28.5625-1.136719 0-2.246094.058594-3.351563.175781zm0 0" fill="#ff698f"/><path d="m105.316406 373.378906c-14.753906 0-26.707031 11.972656-26.707031 26.75 0 14.746094 11.953125 26.746094 26.707031 26.746094s26.707032-12 26.707032-26.746094c0-14.777344-11.953126-26.75-26.707032-26.75zm0 0" fill="#f5df87"/><path d="m106.367188 338.101562c-12.800782 0-23.648438 8.46875-27.234376 20.121094-1.136718-.148437-2.273437-.203125-3.4375-.203125-15.746093 0-28.515624 12.789063-28.515624 28.558594 0 10.394531 5.539062 19.476563 13.820312 24.472656-2.390625 4.175781-3.761719 9.019531-3.761719 14.160157 0 15.800781 12.769531 28.589843 28.515625 28.589843 4.429688 0 8.628906-1.023437 12.359375-2.804687.554688-.289063 1.109375-.554688 1.632813-.875-18.542969-9.636719-31.109375-28.238282-31.109375-49.585938 0-29.726562 24.347656-54.109375 55.253906-56.417968-4.8125-3.765626-10.90625-6.015626-17.523437-6.015626zm0 0" fill="#cf4b82"/><path d="m105.316406 373.378906c-14.753906 0-26.707031 11.972656-26.707031 26.75 0 14.773438 11.953125 26.746094 26.707031 26.746094 3.003906 0 5.917969-.523438 8.601563-1.429688-10.527344-3.59375-18.078125-13.578124-18.078125-25.316406 0-11.769531 7.550781-21.757812 18.078125-25.347656-2.683594-.90625-5.597657-1.402344-8.601563-1.402344zm0 0" fill="#d9a13f"/><g fill="#81c6e6"><path d="m180.65625 36.851562h-114.292969c-4.371093 0-7.960937 3.59375-7.960937 7.972657v23.945312c0-4.378906 3.585937-7.96875 7.960937-7.96875h114.292969c4.402344 0 7.988281 3.589844 7.988281 7.96875v-23.945312c0-4.378907-3.585937-7.972657-7.988281-7.972657zm0 0"/><path d="m344.542969 36.851562h-114.292969c-4.402344 0-7.988281 3.59375-7.988281 7.972657v23.945312c0-4.378906 3.585937-7.96875 7.988281-7.96875h114.292969c4.371093 0 7.960937 3.589844 7.960937 7.96875v-23.945312c0-4.378907-3.589844-7.972657-7.960937-7.972657zm0 0"/><path d="m180.65625 239.339844h-114.292969c-4.371093 0-7.960937 3.59375-7.960937 8v23.539062c0-4.382812 3.585937-7.972656 7.960937-7.972656h114.292969c3.671875 0 6.792969 2.511719 7.695312 5.898438l.292969-.085938v-23.566406l-.292969.117187c-.902343-3.417969-4.023437-5.929687-7.695312-5.929687zm0 0"/><path d="m344.542969 239.339844h-114.292969c-4.402344 0-7.988281 3.59375-7.988281 8v23.539062c0-4.382812 3.585937-7.972656 7.988281-7.972656h114.292969c3.671875 0 6.761719 2.511719 7.695312 5.898438l.261719-.085938v-23.566406l-.261719.117187c-.929687-3.417969-4.023437-5.929687-7.695312-5.929687zm0 0"/></g></g></svg>