<svg height="511pt" viewBox="0 -23 511.99999 511" width="511pt" xmlns="http://www.w3.org/2000/svg"><g fill-rule="evenodd"><path d="m116.929688 38.703125-30.308594-21.554687-25.40625 21.554687v93.558594l55.714844-34.671875zm0 0" fill="#349ecf"/><path d="m126.1875.5h-74.230469c-6.421875 0-11.652343 5.226562-11.652343 11.652344v14.925781c0 6.398437 5.230468 11.625 11.652343 11.625h74.230469c6.425781 0 11.652344-5.226563 11.652344-11.625v-14.925781c0-6.425782-5.226563-11.652344-11.652344-11.652344zm0 0" fill="#b3adad"/><path d="m226.378906 49.367188-177.691406 113.414062v264.484375l187.476562 24.742187 168.753907-24.742187v-266.175781zm0 0" fill="#f5df87"/><path d="m431.8125 465.5h-409.992188c-10.511718 0-19.125-8.617188-19.125-19.101562 0-10.515626 8.613282-19.132813 19.125-19.132813h409.992188c10.515625 0 19.128906 8.617187 19.128906 19.132813 0 10.484374-8.613281 19.101562-19.128906 19.101562zm0 0" fill="#e6e6e6"/><path d="m501.226562 465.5c13.171876 0 15.332032-20.503906.496094-26.695312-10.601562-4.441407-11.007812-1.636719-12.058594-6.71875-2.484374-12.035157-12.792968-21.292969-25.027343-23.132813-7.621094-1.140625-3.476563.4375-9.167969-4.585937-11.972656-10.605469-36.238281-16.476563-60.449219-15.976563-24.207031-.5-48.445312 5.371094-60.417969 15.976563-5.695312 5.023437-1.546874 3.445312-9.167968 4.585937-12.238282 1.839844-22.546875 11.097656-25.027344 23.132813-1.050781 5.082031-1.460938 2.277343-12.058594 6.71875-14.835937 6.191406-12.675781 26.695312.496094 26.695312zm0 0" fill="#47a831"/><path d="m342.921875 445.550781c0-21.265625 10.777344-40.714843 28.53125-55.640625-15.332031 2.363282-28.851563 7.359375-36.851563 14.457032-5.695312 5.023437-1.550781 3.445312-9.171874 4.585937-12.234376 1.839844-22.542969 11.097656-25.023438 23.132813-1.050781 5.082031-1.460938 2.277343-12.0625 6.71875-14.832031 6.191406-12.671875 26.695312.496094 26.695312h57.324218c-2.101562-6.398438-3.242187-13.085938-3.242187-19.949219zm0 0" fill="#178035"/><path d="m57.886719 12.152344c0-6.425782 5.253906-11.652344 11.648437-11.652344h-17.578125c-6.421875 0-11.652343 5.226562-11.652343 11.652344v14.925781c0 6.398437 5.230468 11.625 11.652343 11.625h17.578125c-2.277344 0-4.378906-.640625-6.191406-1.78125-3.269531-2.074219-5.460938-5.722656-5.460938-9.84375v-14.925781zm0 0" fill="#757a85"/><path d="m194.054688 272.050781h-71.632813c-6.394531 0-11.652344 5.230469-11.652344 11.65625v143.558594h94.9375v-143.558594c-.003906-6.425781-5.230469-11.65625-11.652343-11.65625zm0 0" fill="#349ecf"/><path d="m329.375 272.050781h-64.390625c-6.394531 0-11.652344 5.230469-11.652344 11.65625v57.976563c0 6.425781 5.257813 11.65625 11.652344 11.65625h64.390625c6.421875 0 11.652344-5.230469 11.652344-11.65625v-57.976563c0-6.425781-5.230469-11.65625-11.652344-11.65625zm0 0" fill="#c9eeff"/><path d="m254.238281 185.800781c5.492188-15.714843-2.773437-32.917969-18.484375-38.410156-15.710937-5.519531-32.910156 2.773437-38.429687 18.488281-5.488281 15.714844 2.804687 32.917969 18.515625 38.410156 15.707031 5.488282 32.878906-2.777343 38.398437-18.488281zm0 0" fill="#ff698f"/><path d="m405.09375 182.003906-158.59375-99.222656c-23.652344-14.808594-16.382812-14.984375-39.832031 0l-157.980469 100.796875c-39.304688 23.921875-67.019531-23.25-34.078125-43.492187l190.191406-116.804688c19.359375-12.910156 24.527344-10.953125 44.0625 0l187.507813 116.746094c32.527344 20.273437 8.523437 66.859375-31.277344 41.976562zm0 0" fill="#a66d30"/><path d="m48.6875 183.578125v31.78125l166.769531-106.410156c8.292969-5.34375 13.988281-6.6875 22.078125 0l167.382813 104.742187v-31.804687l-158.417969-99.105469c-23.652344-14.808594-16.382812-14.984375-39.832031 0l-131.496094 83.886719zm0 0" fill="#d9a13f"/><path d="m264.984375 272.050781c-6.394531 0-11.652344 5.230469-11.652344 11.65625v21.203125c0-6.425781 5.257813-11.652344 11.652344-11.652344h64.390625c6.421875 0 11.652344 5.226563 11.652344 11.652344v-21.203125c0-6.425781-5.230469-11.65625-11.652344-11.65625zm0 0" fill="#81c6e6"/><g fill="#4275ab"><path d="m122.421875 272.050781c-6.394531 0-11.652344 5.230469-11.652344 11.65625v21.203125c0-6.425781 5.257813-11.652344 11.652344-11.652344h71.632813c6.421874 0 11.648437 5.226563 11.648437 11.652344v-21.203125c0-6.425781-5.226563-11.65625-11.648437-11.65625zm0 0"/><path d="m78.824219 100.511719v-39.023438c0-5.667969 4.640625-10.28125 10.308593-10.28125h27.796876v-12.503906h-55.714844v72.761719l17.609375-10.808594zm0 0"/></g></g></svg>