<svg height="512pt" viewBox="-45 0 512 512" width="512pt" xmlns="http://www.w3.org/2000/svg"><g fill-rule="evenodd"><path d="m422.4375 491.269531v-461.757812c0-11.394531-9.335938-20.703125-20.730469-20.703125h-381.007812c-11.390625 0-20.699219 9.308594-20.699219 20.703125v461.757812c0 11.394531 9.308594 20.730469 20.699219 20.730469h381.007812c11.394531 0 20.730469-9.335938 20.730469-20.730469zm0 0" fill="#f5df87"/><path d="m388.054688 471.65625v-421.945312c0-5.019532-4.113282-9.101563-9.132813-9.101563h-335.4375c-5.019531 0-9.128906 4.082031-9.128906 9.101563v421.945312c0 5.019531 4.109375 9.128906 9.128906 9.128906h335.4375c5.019531 0 9.132813-4.109375 9.132813-9.128906zm0 0" fill="#e6e6e6"/><path d="m197.699219 132.925781c11.507812-18.820312-6.488281-43.25-45.863281-41.078125-6.402344.324219-10.277344 3.082032-9.867188 9.894532 3.699219 32.476562 37.023438 55.496093 53.96875 33.707031l.085938-.085938c.617187-.792969 1.175781-1.617187 1.675781-2.4375zm0 0" fill="#8fde56"/><path d="m193.558594 138.152344c-16.269532-.234375-34.441406-18.761719-37.113282-42.253906-.117187-1.613282.027344-3.023438.378907-4.199219-1.613281 0-3.289063.03125-4.988281.148437-6.402344.324219-10.277344 3.082032-9.867188 9.894532 3.523438 31.007812 34.058594 53.382812 51.589844 36.410156zm0 0" fill="#47a831"/><path d="m19.144531 491.269531v-461.757812c0-11.394531 9.335938-20.703125 20.730469-20.703125h-19.175781c-11.390625 0-20.699219 9.308594-20.699219 20.703125v461.757812c0 11.394531 9.308594 20.730469 20.699219 20.730469h19.175781c-11.394531 0-20.730469-9.335938-20.730469-20.730469zm0 0" fill="#d9a13f"/><path d="m224.800781 132.925781c-11.511719-18.820312 6.515625-43.25 45.863281-41.078125 6.398438.324219 10.304688 3.082032 9.863282 9.894532-3.699219 32.476562-37.023438 55.496093-53.964844 33.707031l-.089844-.085938c-.617187-.792969-1.175781-1.617187-1.671875-2.4375zm0 0" fill="#8fde56"/><path d="m228.96875 138.152344c16.265625-.234375 34.441406-18.761719 37.085938-42.253906.117187-1.613282-.03125-3.023438-.382813-4.199219 1.613281 0 3.289063.03125 4.992187.148437 6.402344.324219 10.304688 3.082032 9.867188 9.894532-3.527344 31.007812-34.0625 53.382812-51.5625 36.410156zm0 0" fill="#47a831"/><path d="m293.566406 40.609375h-164.722656v13.273437c0 2.847657 2.320312 5.167969 5.167969 5.167969h154.386719c2.847656 0 5.167968-2.320312 5.167968-5.167969zm0 0" fill="#757a85"/><path d="m388.054688 59.050781v-9.339843c0-5.019532-4.113282-9.101563-9.132813-9.101563h-335.4375c-5.019531 0-9.128906 4.082031-9.128906 9.101563v421.945312c0 5.019531 4.109375 9.132812 9.128906 9.132812h25.078125c-5.023438 0-9.132812-4.113281-9.132812-9.132812v-402.242188c0-5.695312 4.667968-10.363281 10.367187-10.363281zm0 0" fill="#b3adad"/><path d="m293.566406 53.882812v-48.714843c0-2.847657-2.320312-5.167969-5.167968-5.167969h-154.386719c-2.847657 0-5.167969 2.320312-5.167969 5.167969v48.714843c0 2.847657 2.320312 5.167969 5.167969 5.167969h154.386719c2.847656 0 5.167968-2.320312 5.167968-5.167969zm0 0" fill="#a66d30"/><path d="m293.566406 42.019531h-164.722656v11.859375c0 2.847656 2.320312 5.167969 5.167969 5.167969h154.386719c2.847656 0 5.167968-2.320313 5.167968-5.167969zm0 0" fill="#6e3e0b"/></g><path d="m250.554688 116.285156c-2.332032-3.601562-7.144532-4.628906-10.742188-2.300781l-28.550781 18.472656-28.578125-18.472656c-3.605469-2.328125-8.414063-1.300781-10.742188 2.304687-2.328125 3.601563-1.292968 8.410157 2.308594 10.738282l29.246094 18.90625v38.027344c0 4.285156 3.476562 7.765624 7.769531 7.765624 4.289063 0 7.765625-3.480468 7.765625-7.765624v-38.03125l29.222656-18.90625c3.597656-2.328126 4.628906-7.136719 2.300782-10.738282zm0 0" fill="#178035"/><path d="m103.796875 297.136719c-1.9375 0-3.875-.71875-5.375-2.160157l-13.476563-12.917968c-3.097656-2.96875-3.203124-7.886719-.230468-10.980469 2.96875-3.097656 7.882812-3.203125 10.980468-.230469l8.164063 7.824219 27.867187-26.09375c3.132813-2.933594 8.046876-2.769531 10.976563.359375 2.933594 3.128906 2.773437 8.042969-.359375 10.976562l-33.238281 31.125c-1.492188 1.398438-3.402344 2.097657-5.308594 2.097657zm0 0" fill="#178035"/><path d="m328.535156 297.136719h-153.300781c-4.289063 0-7.765625-3.476563-7.765625-7.765625 0-4.289063 3.476562-7.765625 7.765625-7.765625h153.300781c4.289063 0 7.769532 3.476562 7.769532 7.765625 0 4.289062-3.480469 7.765625-7.769532 7.765625zm0 0" fill="#757a85"/><path d="m327.773438 266.011719h-153.300782c-4.289062 0-7.769531-3.476563-7.769531-7.765625 0-4.289063 3.480469-7.765625 7.769531-7.765625h153.300782c4.289062 0 7.765624 3.476562 7.765624 7.765625 0 4.289062-3.476562 7.765625-7.765624 7.765625zm0 0" fill="#757a85"/><path d="m329.300781 337.832031h-153.304687c-4.285156 0-7.765625-3.476562-7.765625-7.765625 0-4.289062 3.476562-7.765625 7.765625-7.765625h153.304687c4.289063 0 7.765625 3.476563 7.765625 7.765625 0 4.289063-3.476562 7.765625-7.765625 7.765625zm0 0" fill="#757a85"/><path d="m104.882812 368.957031c-1.9375 0-3.875-.71875-5.375-2.160156l-13.449218-12.890625c-3.097656-2.964844-3.199219-7.882812-.230469-10.976562 2.964844-3.097657 7.882813-3.203126 10.980469-.234376l8.140625 7.800782 27.894531-26.097656c3.132812-2.933594 8.050781-2.769532 10.980469.363281 2.929687 3.132812 2.765625 8.046875-.367188 10.976562l-33.265625 31.125c-1.496094 1.398438-3.402344 2.09375-5.308594 2.09375zm0 0" fill="#178035"/><path d="m330.0625 368.957031h-153.300781c-4.289063 0-7.765625-3.476562-7.765625-7.765625 0-4.289062 3.476562-7.765625 7.765625-7.765625h153.300781c4.289062 0 7.765625 3.476563 7.765625 7.765625 0 4.289063-3.476563 7.765625-7.765625 7.765625zm0 0" fill="#757a85"/><path d="m330.824219 409.683594h-153.296875c-4.289063 0-7.769532-3.476563-7.769532-7.765625 0-4.289063 3.476563-7.765625 7.769532-7.765625h153.296875c4.289062 0 7.769531 3.476562 7.769531 7.765625 0 4.289062-3.476562 7.765625-7.769531 7.765625zm0 0" fill="#757a85"/><path d="m105.96875 440.808594c-1.9375 0-3.875-.71875-5.375-2.160156l-13.449219-12.890626c-3.09375-2.96875-3.199219-7.882812-.230469-10.980468 2.96875-3.09375 7.886719-3.199219 10.984376-.230469l8.136718 7.800781 27.898438-26.101562c3.128906-2.929688 8.046875-2.765625 10.976562.367187 2.929688 3.132813 2.769532 8.046875-.363281 10.976563l-33.269531 31.125c-1.496094 1.398437-3.402344 2.09375-5.308594 2.09375zm0 0" fill="#178035"/><path d="m331.589844 440.808594h-153.300782c-4.289062 0-7.765624-3.476563-7.765624-7.765625 0-4.289063 3.476562-7.765625 7.765624-7.765625h153.300782c4.289062 0 7.765625 3.476562 7.765625 7.765625 0 4.289062-3.476563 7.765625-7.765625 7.765625zm0 0" fill="#757a85"/><path d="m246.585938 214.640625v-21.34375c0-5.140625-4.199219-9.339844-9.335938-9.339844h-51.972656c-5.167969 0-9.367188 4.199219-9.367188 9.339844v21.34375zm0 0" fill="#a66d30" fill-rule="evenodd"/><path d="m188.917969 193.296875c0-5.140625 4.199219-9.335937 9.335937-9.335937h-12.976562c-5.167969 0-9.367188 4.195312-9.367188 9.335937v21.347656h13.007813zm0 0" fill="#6e3e0b" fill-rule="evenodd"/><path d="m265.554688 222.40625h-108.699219c-4.289063 0-7.765625-3.476562-7.765625-7.765625s3.476562-7.765625 7.765625-7.765625h108.699219c4.289062 0 7.765624 3.476562 7.765624 7.765625 0 4.292969-3.476562 7.765625-7.765624 7.765625zm0 0" fill="#6e3e0b"/></svg>