<svg height="512pt" viewBox="-11 0 512 512" width="512pt" xmlns="http://www.w3.org/2000/svg"><g fill-rule="evenodd"><path d="m245.5 0c-44.011719 0-82.046875 23.476562-99.957031 57.527344 40.253906 9.609375 68.429687 13.375 103.664062 13.140625 35.234375.234375 66.441407-7.242188 96.253907-13.140625-17.910157-34.050782-55.945313-57.527344-99.960938-57.527344zm0 0" fill="#d9a13f"/><path d="m326.210938 261.855469 32.898437 40.152343 61.167969 30.371094c4.636718 2.304688 9.039062 4.964844 13.242187 7.972656-53.261719-50.113281-25-142.070312-43.199219-175.710937-11.230468 12.617187-22.925781 15.886719-28.640624 17.636719-30.597657 0-52.679688 38.167968-35.46875 79.578125zm0 0" fill="#a66d30"/><path d="m70.730469 512h402.890625c9.511718 0 16.308594-8.820312 17.152344-27.480469 2.421874-53.46875-14.699219-105.796875-47.105469-135.847656-3.675781-2.625-7.058594-5.402344-10.148438-8.320313-4.203125-3.007812-8.605469-5.667968-13.242187-7.972656l-61.167969-30.371094-32.898437-40.152343c-36.605469-44.652344-96.195313-79.515625-161.386719-.03125l-32.929688 40.183593-61.164062 30.371094c-4.609375 2.304688-9.015625 4.964844-13.214844 7.972656-3.121094 2.917969-6.472656 5.691407-10.179687 8.320313-32.402344 30.050781-49.554688 82.378906-47.105469 135.847656 1.078125 23.566407 8.953125 27.480469 21.933593 27.480469zm0 0" fill="#81c6e6"/><path d="m362.027344 124.984375-18.316406 38.226563 17.964843 19.066406c5.71875-1.75 17.414063-5.019532 28.644531-17.636719l-2.042968-33.054687zm0 0" fill="#de966f"/><path d="m129.003906 124.984375-.027344 48.972656c0 2.6875.117188 5.460938.351563 8.324219 1.371094 15.882812 6.5625 34.105469 15.398437 51.539062 5.457032 10.777344 12.28125 20.121094 20.097657 28.035157 19.457031 19.742187 45.125 30.664062 71.433593 32.738281 6.152344.464844 12.335938.464844 18.492188 0 26.308594-2.074219 51.976562-12.996094 71.460938-32.738281 7.785156-7.914063 14.613281-17.257813 20.066406-28.035157 8.835937-17.433593 14.03125-35.65625 15.402344-51.539062.230468-2.863281.347656-5.636719.347656-8.324219v-48.972656c-27.914063-18.457031-72.304688-26.867187-116.523438-26.574219-39.960937-.261718-80.039062 6.570313-107.980468 21.492188-3.003907 1.609375-5.832032 3.300781-8.519532 5.082031zm0 0" fill="#fae1be"/><path d="m245.5 77.53125c-35.789062-.203125-92.195312 17.753906-116.496094 47.453125 32.085938 7.332031 136.359375 25.609375 233.023438 0-18.316406-26.601563-72.304688-47.714844-116.527344-47.453125zm0 0" fill="#a66d30"/><path d="m129.003906 124.984375-30.945312 13.199219 2.625 26.457031c11.230468 12.617187 22.925781 15.886719 28.644531 17.636719l21.875-23.390625zm0 0" fill="#de966f"/><path d="m100.683594 164.640625c-18.199219 33.640625 10.0625 125.597656-43.167969 175.710937 4.199219-3.007812 8.605469-5.667968 13.214844-7.972656l61.164062-30.371094 32.929688-40.152343c6.039062-25.875-15.953125-72.714844-35.496094-79.578125-5.71875-1.75-17.414063-5.019532-28.644531-17.636719zm0 0" fill="#a66d30"/><path d="m164.824219 261.855469-32.929688 40.152343 37.859375 39.949219c10.734375 9.226563 26.570313 12.117188 38.5-5.636719l28-41.730468c-26.308594-2.074219-51.976562-12.992188-71.429687-32.734375zm0 0" fill="#349ecf"/><path d="m326.210938 261.855469c-19.484376 19.742187-45.152344 30.660156-71.460938 32.734375l28 41.730468c11.929688 17.753907 27.769531 14.863282 38.53125 5.636719l37.832031-39.949219zm0 0" fill="#349ecf"/><path d="m236.253906 294.589844-28 41.730468c-11.929687 17.753907-27.765625 14.863282-38.5 5.636719l-37.859375-39.949219 1.195313 111.554688c.902344 2.480469 3.265625 4.292969 6.066406 4.292969h212.691406c2.800782 0 5.191406-1.8125 6.066406-4.292969l1.199219-111.554688-37.832031 39.949219c-10.761719 9.226563-26.601562 12.117188-38.53125-5.636719l-28-41.730468c-6.15625.46875-12.339844.46875-18.496094 0zm0 0" fill="#81c6e6"/><path d="m145.542969 57.527344c-57.984375 19.15625-90.621094 56.011718-44.859375 107.113281 3.121094-19.273437 16.890625-34.078125 36.839844-44.738281 27.941406-14.921875 68.019531-21.753906 107.980468-21.492188 44.21875-.292968 88.609375 8.117188 116.523438 26.574219 15.285156 10.105469 25.636718 23.246094 28.292968 39.65625 45.765626-51.105469 13.125-87.957031-44.859374-107.113281-29.167969-9.636719-64.722657-14.804688-99.957032-15.039063-35.234375.234375-70.792968 5.402344-99.960937 15.039063zm0 0" fill="#f5df87"/><path d="m137.523438 119.902344c-3.003907 1.609375-5.835938 3.300781-8.519532 5.082031 6.214844 1.402344 15.167969 3.242187 26.222656 5.082031 8.898438-10.835937 22.082032-20.121094 36.957032-27.539062-20.503906 3.476562-39.40625 9.230468-54.660156 17.375zm0 0" fill="#6e3e0b"/><path d="m145.542969 57.527344c-57.984375 19.15625-90.621094 56.011718-44.859375 107.113281 2.246094-13.929687 10.0625-25.492187 21.730468-34.867187-.261718-.554688-.523437-1.109376-.757812-1.664063-10.675781-24.675781-1.488281-45.089844 19.398438-60.683594 3.792968-2.832031 7.960937-5.519531 12.511718-8.03125 6.214844-3.472656 13.066406-6.628906 20.449219-9.460937-9.949219 2.105468-19.515625 4.617187-28.472656 7.59375zm0 0" fill="#d9a13f"/><path d="m245.5 0c-44.011719 0-82.046875 23.476562-99.957031 57.527344 8.957031-2.976563 18.523437-5.488282 28.46875-7.59375 20.15625-25.460938 52.882812-42.019532 89.835937-42.019532 13.300782 0 26.046875 2.132813 37.859375 6.074219-16.476562-8.90625-35.699219-13.988281-56.207031-13.988281zm0 0" fill="#a66d30"/><path d="m100.683594 164.640625c-18.199219 33.640625 10.0625 125.597656-43.167969 175.710937 4.199219-3.007812 8.605469-5.667968 13.214844-7.972656l27.679687-13.753906c23.886719-46.054688 11.871094-107.523438 20.328125-140.257812-5.425781-2.601563-11.8125-6.71875-18.054687-13.726563zm0 0" fill="#6e3e0b"/><path d="m128.976562 173.957031c0 2.6875.117188 5.460938.351563 8.324219 1.371094 15.882812 6.5625 34.105469 15.398437 51.539062 5.457032 10.777344 12.28125 20.121094 20.097657 28.035157 19.457031 19.742187 45.125 30.664062 71.433593 32.738281 6.152344.464844 12.335938.464844 18.492188 0 1.3125-.117188 2.59375-.234375 3.878906-.382812-24.9375-2.800782-49.0625-13.578126-67.582031-32.355469-7.789063-7.914063-14.613281-17.257813-20.066406-28.035157-8.839844-17.433593-14.03125-35.65625-15.402344-51.539062-.234375-2.863281-.378906-5.636719-.378906-8.324219l.027343-43.890625c-11.054687-1.839844-20.007812-3.679687-26.222656-5.082031zm0 0" fill="#f0b49c"/><path d="m47.335938 348.671875c-32.402344 30.050781-49.554688 82.378906-47.105469 135.847656 1.078125 23.566407 8.953125 27.480469 21.933593 27.480469h10.035157c-.875-3.445312-1.429688-7.679688-1.664063-12.847656-2.273437-49.558594 12.28125-98.089844 40.195313-128.871094v-37.902344c-4.609375 2.304688-9.015625 4.964844-13.214844 7.972656-3.121094 2.917969-6.476563 5.695313-10.179687 8.320313zm0 0" fill="#349ecf"/><path d="m131.894531 302.007812.320313 29.496094 18.785156-9.347656zm0 0" fill="#349ecf"/><path d="m164.824219 261.855469-32.929688 40.152343 19.105469 20.148438 35.496094-43.304688c-7.789063-4.644531-15.082032-10.308593-21.671875-16.996093zm0 0" fill="#4275ab"/></g><path d="m178.554688 183.5625c-1.167969 0-2.355469-.265625-3.472657-.828125-3.8125-1.921875-5.347656-6.574219-3.425781-10.390625 4.828125-9.589844 17.277344-13.933594 27.472656-13.980469h.179688c11.519531 0 21.066406 5.195313 25.558594 13.917969 1.957031 3.796875.464843 8.464844-3.328126 10.421875-3.796874 1.957031-8.457031.464844-10.414062-3.332031-2.59375-5.03125-9.214844-5.546875-11.921875-5.53125-7.183594.03125-12.59375 3.195312-13.738281 5.46875-1.355469 2.699218-4.082032 4.253906-6.910156 4.253906zm0 0" fill="#6e3e0b"/><path d="m271.222656 183.5625c-1.164062 0-2.347656-.261719-3.457031-.820312-3.816406-1.914063-5.359375-6.5625-3.449219-10.382813 4.796875-9.574219 17.210938-13.929687 27.390625-13.996094h.25c11.515625 0 21.066407 5.1875 25.574219 13.90625 1.960938 3.792969.476562 8.464844-3.3125 10.425781-3.792969 1.964844-8.460938.480469-10.421875-3.3125-2.613281-5.054687-9.261719-5.605468-11.992187-5.542968-7.15625.046875-12.535157 3.195312-13.664063 5.453125-1.355469 2.707031-4.085937 4.269531-6.917969 4.269531zm0 0" fill="#6e3e0b"/><path d="m131.894531 410.84375v-108.835938l-33.484375 16.617188-27.679687 13.753906v179.621094h349.542969v-179.621094l-61.164063-30.371094v108.835938c0 5.023438-3.265625 7.007812-6.066406 7.007812h-215.082031c-2.800782 0-6.066407-1.984374-6.066407-7.007812zm0 0" fill="#f5df87" fill-rule="evenodd"/><path d="m98.410156 318.625-27.679687 13.753906v37.902344c2.214843-2.453125 4.519531-4.789062 6.910156-7.007812 3.675781-2.597657 7.058594-5.402344 10.152344-8.324219 4.199219-3.007813 8.601562-5.664063 13.210937-7.941407l31.210938-15.503906-.320313-29.496094zm0 0" fill="#d9a13f" fill-rule="evenodd"/></svg>