<svg height="512pt" viewBox="-38 0 512 512" width="512pt" xmlns="http://www.w3.org/2000/svg"><g fill-rule="evenodd"><path d="m435 484.898438v-457.828126c0-14.894531-12.207031-27.070312-27.101562-27.070312h-34.925782c14.921875 0 27.101563 12.175781 27.101563 27.070312v457.828126c0 14.894531-12.175781 27.101562-27.101563 27.101562h34.925782c14.894531 0 27.101562-12.207031 27.101562-27.101562zm0 0" fill="#d9a13f"/><path d="m410.5 484.898438v-457.828126c0-14.894531-12.179688-27.070312-27.070312-27.070312h-37.878907c14.921875 0 27.101563 12.175781 27.101563 27.070312v457.828126c0 14.894531-12.175782 27.101562-27.101563 27.101562h37.878907c14.890624 0 27.070312-12.207031 27.070312-27.101562zm0 0" fill="#e6e6e6"/><path d="m13.8125 0h342.195312c14.894532 0 27.070313 12.175781 27.070313 27.070312v457.828126c0 14.894531-12.175781 27.101562-27.070313 27.101562h-342.195312c-7.59375 0-13.8125-6.21875-13.8125-13.8125v-484.375c0-7.59375 6.21875-13.8125 13.8125-13.8125zm0 0" fill="#f5df87"/><path d="m287.265625 381.582031h-204.769531c-11.476563 0-20.851563 9.402344-20.851563 20.882813v5.574218c0 11.476563 9.375 20.882813 20.851563 20.882813h204.769531c11.476563 0 20.851563-9.402344 20.851563-20.882813v-5.574218c-.003907-11.476563-9.375-20.882813-20.851563-20.882813zm0 0" fill="#e6e6e6"/><path d="m93.828125 402.464844c0-11.476563 9.402344-20.882813 20.878906-20.882813h-32.210937c-11.476563 0-20.847656 9.402344-20.847656 20.882813v5.574218c0 11.476563 9.371093 20.882813 20.847656 20.882813h32.210937c-11.476562 0-20.878906-9.402344-20.878906-20.882813zm0 0" fill="#adafb3"/><path d="m154.363281 290.414062c17.871094-34.078124-15.972656-75.195312-84.949219-68.359374-11.300781 1.109374-17.960937 6.246093-16.675781 18.308593 9.082031 57.234375 69.910157 95.402344 98.238281 55.511719 1.253907-1.753906 2.394532-3.5625 3.386719-5.460938zm0 0" fill="#8fde56"/><path d="m153.839844 291.378906c-30.78125 17.550782-77.59375-17.757812-85.476563-67.398437-.058593-.613281-.117187-1.199219-.117187-1.78125-10.601563 1.34375-16.761719 6.539062-15.507813 18.164062 9.082031 57.234375 69.910157 95.402344 98.238281 55.511719l.144532-.175781c.996094-1.429688 1.898437-2.859375 2.71875-4.320313zm0 0" fill="#47a831"/><path d="m221.820312 290.414062c-17.871093-34.078124 15.976563-75.195312 84.953126-68.359374 11.300781 1.109374 17.988281 6.246093 16.671874 18.308593-9.082031 57.234375-69.910156 95.402344-98.234374 55.511719-1.257813-1.753906-2.367188-3.5625-3.390626-5.460938zm0 0" fill="#8fde56"/><path d="m222.347656 291.378906c30.78125 17.550782 77.589844-17.757812 85.476563-67.398437.058593-.613281.117187-1.199219.144531-1.78125 10.570312 1.34375 16.734375 6.539062 15.476562 18.164062-9.082031 57.234375-69.910156 95.402344-98.234374 55.511719l-.148438-.175781c-.992188-1.429688-1.898438-2.859375-2.714844-4.320313zm0 0" fill="#47a831"/></g><path d="m264.386719 267.34375c-2.035157-3.75-6.726563-5.140625-10.476563-3.109375l-58.089844 31.488281v-98.988281c0-4.265625-3.460937-7.722656-7.726562-7.722656-4.269531 0-7.726562 3.457031-7.726562 7.722656v98.988281l-58.09375-31.488281c-3.75-2.03125-8.441407-.640625-10.472657 3.109375-2.035156 3.75-.644531 8.433594 3.105469 10.46875l65.460938 35.480469v18.941406c0 4.261719 3.457031 7.71875 7.726562 7.71875 4.265625 0 7.726562-3.457031 7.726562-7.71875v-18.941406l65.457032-35.480469c3.75-2.035156 5.144531-6.71875 3.109375-10.46875zm0 0" fill="#178035"/><path d="m226.230469 83.488281c-4.4375-15.796875-18.949219-27.421875-36.179688-27.421875-16.910156 0-31.1875 11.15625-35.917969 26.488282-1.492187-.175782-3.011718-.265626-4.527343-.265626-20.761719 0-37.585938 16.820313-37.585938 37.585938 0 13.664062 7.300781 25.636719 18.195313 32.210938-3.125 5.515624-4.9375 11.882812-4.9375 18.65625 0 20.765624 16.824218 37.585937 37.585937 37.585937 5.839844 0 11.359375-1.316406 16.265625-3.679687 4.117188-1.988282 7.796875-4.671876 10.921875-7.914063 3.152344 3.269531 6.890625 6.015625 11.039063 7.972656 4.90625 2.335938 10.367187 3.621094 16.121094 3.621094 20.761718 0 37.582031-16.820313 37.582031-37.585937 0-6.480469-1.632813-12.554688-4.496094-17.871094 10.746094-6.597656 17.929687-18.484375 17.929687-32.035156 0-20.761719-16.820312-37.582032-37.582031-37.582032-1.492187 0-2.953125.089844-4.414062.234375zm0 0" fill="#ff698f" fill-rule="evenodd"/><path d="m188.648438 102.5c-19.449219 0-35.1875 15.769531-35.1875 35.1875 0 19.449219 15.738281 35.21875 35.1875 35.21875 19.449218 0 35.1875-15.769531 35.1875-35.21875 0-19.417969-15.738282-35.1875-35.1875-35.1875zm0 0" fill="#f5df87" fill-rule="evenodd"/><path d="m190.050781 56.066406c-16.910156 0-31.1875 11.15625-35.917969 26.488282-1.492187-.175782-3.011718-.265626-4.527343-.265626-20.761719 0-37.585938 16.820313-37.585938 37.585938 0 13.664062 7.300781 25.636719 18.195313 32.210938-3.125 5.515624-4.9375 11.882812-4.9375 18.65625 0 20.765624 16.824218 37.585937 37.585937 37.585937 5.839844 0 11.359375-1.316406 16.265625-3.679687.730469-.351563 1.460938-.730469 2.191406-1.140626-24.472656-12.671874-41.03125-37.144531-41.03125-65.265624 0-39.101563 32.09375-71.195313 72.859376-74.230469-6.394532-4.964844-14.394532-7.945313-23.097657-7.945313zm0 0" fill="#cf4b82" fill-rule="evenodd"/><path d="m188.648438 102.5c-19.449219 0-35.1875 15.769531-35.1875 35.1875 0 19.449219 15.738281 35.21875 35.1875 35.21875 3.972656 0 7.796874-.671875 11.359374-1.871094-13.898437-4.730468-23.859374-17.871094-23.859374-33.347656 0-15.449219 9.960937-28.589844 23.859374-33.320312-3.5625-1.226563-7.390624-1.867188-11.359374-1.867188zm0 0" fill="#d9a13f" fill-rule="evenodd"/></svg>