<svg height="512pt" viewBox="-5 0 512 512.00052" width="512pt" xmlns="http://www.w3.org/2000/svg"><g fill-rule="evenodd"><path d="m313.761719 4.582031c15.675781 9.273438 20.921875 29.675781 11.640625 45.339844l-263.796875 445.832031c-9.253907 15.691406-29.675781 20.933594-45.351563 11.660156-15.675781-9.273437-20.953125-29.648437-11.667968-45.34375l263.792968-445.828124c9.285156-15.664063 29.675782-20.9375 45.382813-11.660157zm0 0" fill="#f5df87"/><path d="m160.824219 249.902344 121.757812-205.808594 8.546875-14.425781c6.867188-11.632813 19.921875-17.519531 32.589844-15.988281-2.589844-3.59375-5.949219-6.714844-9.957031-9.097657-15.707031-9.277343-36.097657-4.003906-45.382813 11.660157l-8.542968 14.425781-121.761719 205.777343-95.445313 161.351563-38.042968 64.273437c-9.285157 15.664063-4.007813 36.070313 11.667968 45.34375 4.035156 2.386719 8.367188 3.796876 12.757813 4.328126-7.453125-10.335938-8.574219-24.585938-1.679688-36.214844l38.015625-64.304688zm0 0" fill="#d9a13f"/><path d="m249.109375 21.390625 181.582031 94.984375 38.71875 11.132812c105.347656 30.207032-64.296875 316.042969-136.289062 222.089844l-23.21875-30.328125-170.265625-112.855469c-12.703125-8.421874-17.503907-24.820312-9.753907-37.953124l81.242188-137.324219c7.75-13.101563 24.457031-16.808594 37.984375-9.746094zm0 0" fill="#b3adad"/><path d="m158.730469 185.507812 81.242187-137.324218c2.652344-4.472656 6.367188-7.917969 10.667969-10.246094 8.28125-4.445312 20.21875-5.773438 28.851563-.652344l-30.382813-15.894531c-13.144531-7.742187-30.234375-3.355469-37.984375 9.746094l-81.246094 137.324219c-7.75 13.132812-3.355468 30.210937 9.753906 37.953124l8.398438 4.945313 20.453125 12.101563c-8.664063-5.121094-13.527344-14.28125-13.613281-23.671876-.03125-4.859374 1.207031-9.804687 3.859375-14.28125zm0 0" fill="#757a85"/><path d="m341.136719 358.164062c74.464843 64.453126 225.132812-193.324218 132.8125-229.15625 36.007812 48.167969-71.3125 225.152344-132.8125 229.15625zm0 0" fill="#e6e6e6"/></g></svg>